<?xml version="1.0" encoding="UTF-8"?>
<svg width="1920px" height="1080px" viewBox="0 0 1920 1080" version="1.1" xmlns="http://www.w3.org/2000/svg" xmlns:xlink="http://www.w3.org/1999/xlink">
    <!-- Generator: Sketch 46.2 (44496) - http://www.bohemiancoding.com/sketch -->
    <title>bitcoinMining</title>
    <desc>Created with Sketch.</desc>
    <defs></defs>
    <g id="Actual-Slides" stroke="none" stroke-width="1" fill="none" fill-rule="evenodd">
        <g id="bitcoinMining">
            <path d="M1044.3125,774.5 L1942.48438,774.5" id="Path-7" stroke="#6F6F6F" stroke-width="5"></path>
            <g id="Group-3" transform="translate(576.000000, 170.000000)">
                <rect id="Rectangle-4-Copy" fill="#E5A1EE" x="427.718475" y="278.439172" width="158.281525" height="177"></rect>
                <g id="Group-2" transform="translate(480.000000, 0.000000)" fill-rule="nonzero" fill="#E1B73F">
                    <path d="M37.9105012,137.657038 C23.675513,132.484778 7.82624787,139.821318 2.65322383,154.090888 C-2.51980022,168.360458 4.85451066,184.170701 19.0894988,189.342962 C33.324487,194.515222 49.1737521,187.178682 54.3467762,172.909112 C59.5198002,158.639542 52.1454893,142.829299 37.9105012,137.657038 Z M35.7459025,175.073392 C34.8653877,175.696998 33.8381206,176.100507 32.7741653,176.283921 C31.71021,176.504017 30.6095665,176.504017 29.4355469,176.357286 C28.6284084,176.247238 27.7845818,176.100507 26.9407552,175.843728 L25.28979,180.429066 L22.6482458,179.475316 L24.299211,174.889978 L21.6209787,173.899545 L19.9700135,178.484883 L17.3284693,177.531133 L18.9794345,172.945795 L13.2560887,170.854881 L14.2466678,168.103679 L15.0904944,168.323775 C15.3839993,168.433823 15.7875686,168.507188 16.3378903,168.653919 C17.0349644,168.837333 17.2917812,168.80065 17.3651575,168.837333 C17.6586624,168.837333 17.7687267,168.763967 17.7687267,168.763967 C17.8421029,168.690602 17.9154792,168.580554 17.9888554,168.360458 L23.4920725,153.210503 C23.5654487,152.990407 23.5654487,152.843676 23.5654487,152.696945 C23.5654487,152.660262 23.4920725,152.550214 23.3086319,152.366801 C23.0518151,152.110022 22.7216221,151.926608 22.4281172,151.706512 C22.0245479,151.486416 21.6943549,151.339685 21.4742262,151.192954 L20.6670877,150.826127 L21.6576668,148.074925 L27.2342601,150.092473 L28.8852252,145.580501 L31.5267694,146.534252 L29.9491805,151.119589 L32.6274128,152.110022 L34.2783779,147.524684 L36.9199221,148.478435 L35.2322689,153.100455 C35.7825906,153.320551 36.2962242,153.614013 36.7731697,153.870791 C37.6169963,154.384349 38.3507586,154.971272 39.0478327,155.668244 C39.7082188,156.365215 40.1851642,157.172234 40.4786692,158.089302 C40.7721741,159.043052 40.735486,160.070168 40.3686048,161.097283 C40.0384118,161.977668 39.5614663,162.711322 38.9010803,163.298245 C38.2773823,163.848486 37.5069319,164.251995 36.6631053,164.508774 C36.1494717,164.655505 35.5624619,164.765553 34.938764,164.838919 C35.5624619,165.352476 36.1127836,165.866034 36.5897291,166.452957 C37.2501151,167.223294 37.7270606,168.103679 38.0205655,169.130794 C38.3140704,170.15791 38.2406942,171.295074 37.837125,172.432237 C37.3601795,173.496036 36.6997934,174.413103 35.7459025,175.073392 Z M30.7747877,169.400181 C31.4881851,167.362135 30.4537589,165.109557 28.4205764,164.358698 L24.6752401,163 L22,170.401327 L25.7453362,171.760025 C27.7785187,172.510884 30.0257204,171.438228 30.7747877,169.400181 Z M33.8214459,159.7021 C34.3898997,157.915442 33.5539382,155.862686 31.9823306,155.178434 L29.106623,154 L27,160.614437 L29.8757076,161.792871 C31.4807537,162.439109 33.2529921,161.526773 33.8214459,159.7021 Z" id="Combined-Shape"></path>
                    <path d="M50.2626875,112.183964 C59.158278,99.9260833 56.4745927,82.6685673 44.1836803,73.7627109 C31.8927679,64.8568545 14.6623509,67.5876033 5.76676039,79.845484 C-3.12883011,92.1033646 -0.44514489,109.360881 11.8457676,118.266737 C24.13668,127.172593 41.367097,124.441845 50.2626875,112.183964 Z M14.8924244,99.7898734 C14.5356787,98.7715792 14.4309535,97.6728842 14.547911,96.5995892 C14.6296068,95.516183 14.9329852,94.4581766 15.3976356,93.370081 C15.7258981,92.624543 16.099535,91.8538493 16.5789568,91.1134889 L12.6263152,88.2625891 L14.271227,85.9862631 L18.2238686,88.8371629 L19.9141547,86.535681 L15.9615131,83.6847812 L17.6064249,81.4084552 L21.5590664,84.259355 L25.1465497,79.3340559 L27.5181347,81.0445958 L27.0739745,81.7950673 C26.8872885,82.0468689 26.7055264,82.4145823 26.4127905,82.903141 C26.0443425,83.5226561 26.0088158,83.7796354 25.9533289,83.840058 C25.872428,84.122193 25.9126135,84.2482159 25.9126135,84.2482159 C25.9629116,84.3389719 26.0484714,84.439839 26.2398162,84.5710395 L39.2859953,94.0369648 C39.4773401,94.1681653 39.6183868,94.2086098 39.7594335,94.2490543 C39.7946952,94.2591654 39.9207055,94.218965 40.1475769,94.0931862 C40.4651969,93.9170959 40.7325188,93.6502496 41.0249898,93.4287813 C41.3477986,93.1015124 41.5798588,92.824555 41.7815812,92.6533982 L42.3566755,91.9786381 L44.7282604,93.689178 L41.2517509,98.4936318 L45.1338691,101.324309 L43.4889573,103.600635 L39.5160906,100.820269 L37.8258045,103.121751 L41.7784461,105.972651 L40.1335343,108.248977 L36.1557437,105.352699 C35.7924844,105.821036 35.3688144,106.233883 34.9905187,106.621575 C34.2642651,107.291157 33.497826,107.834717 32.6357146,108.312676 C31.7837157,108.755369 30.8764949,108.991393 29.9140521,109.02075 C28.9163477,109.039996 27.9391334,108.721618 27.0529327,108.085838 C26.2976661,107.525769 25.7238966,106.865077 25.3417369,106.068495 C24.9847262,105.317291 24.8092127,104.465465 24.7949711,103.583549 C24.795501,103.049368 24.8515179,102.454764 24.952909,101.835005 C24.2873311,102.292986 23.6419784,102.680434 22.9463276,102.977125 C22.0238054,103.399596 21.0460613,103.615398 19.9778335,103.614422 C18.9096057,103.613445 17.836719,103.229467 16.8548459,102.528086 C15.9637214,101.776394 15.2642066,100.888812 14.8924244,99.7898734 Z M21.7160893,96.5750798 C23.4785464,97.8226032 25.9289896,97.4491435 27.2111828,95.7016879 L29.5496015,92.4759475 L23.1723856,87.8642594 L20.8339669,91.0899998 C19.5517737,92.8374554 19.9634641,95.2932684 21.7160893,96.5750798 Z M30.19871,102.176869 C31.7594689,103.215772 33.963127,102.97801 35.0540661,101.655889 L36.9795021,99.2164023 L31.2019616,95.3682005 L29.2765256,97.8076876 C28.2129111,99.1724295 28.6014097,101.127488 30.19871,102.176869 Z" id="Combined-Shape"></path>
                    <path d="M78.7667604,11.845484 C69.8711699,24.1033646 72.5548551,41.3608805 84.8457676,50.266737 C97.13668,59.1725934 114.367097,56.4418445 123.262687,44.1839639 C132.158278,31.9260833 129.474593,14.6685673 117.18368,5.76271089 C104.892768,-3.14314554 87.6623509,-0.412396657 78.7667604,11.845484 Z M114.137023,24.2395745 C114.493769,25.2578687 114.598494,26.3565636 114.481537,27.4298587 C114.399841,28.5132649 114.096463,29.5712713 113.631812,30.6593669 C113.30355,31.4049048 112.929913,32.1755985 112.450491,32.9159589 L116.403133,35.7668587 L114.758221,38.0431848 L110.805579,35.192285 L109.115293,37.4937668 L113.067935,40.3446666 L111.423023,42.6209927 L107.470381,39.7700929 L103.882898,44.6953919 L101.511313,42.9848521 L101.955473,42.2343806 C102.142159,41.9825789 102.323921,41.6148655 102.616657,41.1263068 C102.985105,40.5067917 103.020632,40.2498125 103.076119,40.1893898 C103.15702,39.9072548 103.116834,39.7812319 103.116834,39.7812319 C103.066536,39.6904759 102.980976,39.5896088 102.789632,39.4584083 L89.7434525,29.992483 C89.5521077,29.8612826 89.411061,29.8208381 89.2700143,29.7803936 C89.2347526,29.7702825 89.1087424,29.8104828 88.8818709,29.9362616 C88.5642509,30.1123519 88.296929,30.3791982 88.0044581,30.6006665 C87.6816493,30.9279354 87.449589,31.2048929 87.2478667,31.3760496 L86.6727724,32.0508097 L84.3011875,30.3402699 L87.7776969,25.535816 L83.8955787,22.7051385 L85.5404905,20.4288124 L89.5133573,23.2091785 L91.2036434,20.9076966 L87.2510018,18.0567968 L88.8959136,15.7804707 L92.8737042,18.6767486 C93.2369635,18.2084121 93.6606335,17.7955648 94.0389292,17.4078732 C94.7651827,16.7382907 95.5316218,16.1947311 96.3937333,15.7167718 C97.2457322,15.2740793 98.152953,15.0380545 99.1153957,15.0086976 C100.1131,14.9894517 101.090314,15.30783 101.976515,15.9436102 C102.731782,16.5036791 103.305551,17.1643709 103.687711,17.9609527 C104.044722,18.7121565 104.220235,19.5639833 104.234477,20.4458993 C104.233947,20.9800801 104.17793,21.5746835 104.076539,22.1944427 C104.742117,21.7364615 105.387469,21.349014 106.08312,21.0523226 C107.005642,20.6298523 107.983387,20.4140498 109.051614,20.4150262 C110.119842,20.4160026 111.192729,20.7999812 112.174602,21.5013616 C113.065726,22.2530536 113.765241,23.1406355 114.137023,24.2395745 Z M107.313359,27.454368 C105.550901,26.2068447 103.100458,26.5803044 101.818265,28.32776 L99.4798464,31.5535004 L105.857062,36.1651884 L108.195481,32.939448 C109.477674,31.1919924 109.065984,28.7361794 107.313359,27.454368 Z M98.8307378,21.8525788 C97.2699789,20.8136762 95.0663208,21.0514377 93.9753818,22.3735585 L92.0499458,24.8130456 L97.8274863,28.6612474 L99.7529222,26.2217603 C100.816537,24.8570183 100.428038,22.9019595 98.8307378,21.8525788 Z" id="Combined-Shape"></path>
                    <path d="M56.1247291,215.54889 C42.1864445,221.474376 35.598534,237.649155 41.5470471,251.613251 C47.4955601,265.577348 63.6713498,272.11096 77.6096343,266.185474 C91.5479189,260.259987 98.1358294,244.085209 92.1873163,230.121112 C86.2388033,216.157015 70.0630136,209.623403 56.1247291,215.54889 Z M80.0595334,244.389731 C79.8408639,245.446317 79.3647612,246.44202 78.7117213,247.301776 C78.0836988,248.18836 77.2787392,248.938997 76.3200454,249.632364 C75.6546891,250.102347 74.9374832,250.570523 74.1452247,250.958216 L76.0649778,255.437675 L73.4826187,256.541675 L71.5628655,252.062216 L68.9286568,253.164409 L70.8484099,257.643868 L68.2660508,258.747868 L66.3462976,254.268409 L60.7345077,256.642524 L59.5826558,253.954848 L60.3498968,253.540328 C60.6396053,253.420642 60.9847922,253.199065 61.4873422,252.931059 C62.1222377,252.589795 62.2850441,252.387819 62.3637256,252.364604 C62.5783815,252.164434 62.6088424,252.035714 62.6088424,252.035714 C62.6124713,251.932016 62.5910826,251.801489 62.4946413,251.590479 L56.1871952,236.757318 C56.0907539,236.546308 55.9906837,236.438995 55.8906136,236.331683 C55.865596,236.304855 55.7368794,236.274414 55.4776318,236.26538 C55.1146851,236.252732 54.7481095,236.343783 54.3833483,236.382985 C53.9380912,236.49725 53.5965332,236.615129 53.3354711,236.657945 L52.4949919,236.940131 L51.3431401,234.252456 L56.7975669,231.92477 L54.9278489,227.498967 L57.5102081,226.394967 L59.4836252,230.824384 L62.1178339,229.72219 L60.1980808,225.242731 L62.7804399,224.138731 L64.6983786,228.670039 C65.2509637,228.455689 65.8267519,228.320016 66.3506905,228.182536 C67.3180718,227.98264 68.2549922,227.911464 69.2401332,227.945793 C70.1984423,228.005143 71.097644,228.270084 71.9377385,228.740615 C72.8028504,229.237974 73.4765096,230.01418 73.9086808,231.015577 C74.2676139,231.884641 74.4191489,232.746477 74.3364538,233.626108 C74.2555731,234.453889 73.9672943,235.274443 73.5252814,236.037728 C73.2497037,236.495337 72.8954445,236.976161 72.4893358,237.455178 C73.2957252,237.40541 74.0484506,237.405684 74.797547,237.509656 C75.8058912,237.622662 76.755128,237.941259 77.6702751,238.492274 C78.5854221,239.043289 79.3073019,239.925 79.7876938,241.031903 C80.1643866,242.135191 80.3068494,243.256274 80.0595334,244.389731 Z M72.55477,243.6309 C71.6865714,241.653831 69.3937857,240.711877 67.3947253,241.54936 L63.7289302,243.109985 L66.8200763,250.347482 L70.4858713,248.786857 C72.4849317,247.949374 73.3968813,245.632295 72.55477,243.6309 Z M68.1688796,234.460356 C67.3661225,232.765993 65.3547626,231.834826 63.7387028,232.40623 L60.8318532,233.505606 L63.8022016,239.779812 L66.7090511,238.680436 C68.3236408,238.058426 68.9975622,236.182522 68.1688796,234.460356 Z" id="Combined-Shape"></path>
                    <path d="M177.639777,137.688893 C162.608153,139.542924 151.817073,153.275245 153.686124,168.338028 C155.555175,183.400812 169.303435,194.139975 184.335059,192.285944 C199.366684,190.431912 210.157763,176.699592 208.288712,161.636808 C206.419661,146.574024 192.671402,135.834861 177.639777,137.688893 Z M192.697774,172.009815 C192.196341,172.965197 191.464229,173.791096 190.599506,174.437545 C189.751436,175.116677 188.770756,175.616359 187.658082,176.018615 C186.888956,176.286994 186.070486,176.539345 185.202056,176.693643 L185.812735,181.528731 L183.026109,181.878169 L182.41543,177.043081 L179.57946,177.376491 L180.190139,182.211579 L177.403512,182.561018 L176.792833,177.72593 L170.74404,178.461256 L170.377633,175.560203 L171.229409,175.373221 C171.540885,175.338026 171.933775,175.220179 172.490729,175.101076 C173.195095,174.948034 173.407267,174.798757 173.489299,174.798129 C173.750814,174.664881 173.815575,174.549544 173.815575,174.549544 C173.847646,174.450862 173.863064,174.319497 173.828521,174.090077 L171.853988,158.092961 C171.819445,157.863541 171.752831,157.732803 171.686216,157.602065 C171.669563,157.569381 171.554223,157.504639 171.307509,157.424497 C170.962108,157.312297 170.584636,157.298779 170.223199,157.235921 C169.763695,157.22303 169.402877,157.242197 169.140126,157.211395 L168.254424,157.250983 L167.888017,154.34993 L173.772746,153.615858 L173.195374,148.846139 L175.982001,148.496701 L176.658058,153.298477 L179.494028,152.965067 L178.883349,148.129979 L181.669976,147.780541 L182.264619,152.664969 C182.854881,152.611236 183.44576,152.639527 183.987297,152.65179 C184.972302,152.726284 185.892547,152.916115 186.830063,153.220656 C187.73489,153.541853 188.52623,154.044384 189.204085,154.728249 C189.898593,155.444798 190.332205,156.376621 190.471612,157.458348 C190.577094,158.392681 190.485204,159.2629 190.163254,160.085662 C189.857339,160.859082 189.354052,161.568389 188.718772,162.18027 C188.327736,162.544193 187.854667,162.908744 187.332255,163.257266 C188.121124,163.431696 188.844615,163.639439 189.536034,163.945862 C190.474168,164.332428 191.298816,164.900328 192.026631,165.682246 C192.754447,166.464165 193.20533,167.510697 193.362008,168.707134 C193.420001,169.871514 193.247933,170.988436 192.697774,172.009815 Z M185.692895,169.211786 C185.403283,167.071998 183.458954,165.534556 181.306492,165.788581 L177.352537,166.27832 L178.329013,174.087484 L182.282967,173.597745 C184.435429,173.34372 185.950725,171.367768 185.692895,169.211786 Z M184.004651,159.187579 C183.700021,157.337582 182.023242,155.888082 180.312286,155.991904 L177.215013,156.247455 L178.34089,163.097348 L181.438162,162.841797 C183.161655,162.688923 184.326539,161.071446 184.004651,159.187579 Z" id="Combined-Shape"></path>
                    <path d="M110.251266,100.74408 C95.1057354,100.752397 82.7215423,113.067258 82.7409702,128.245546 C82.7603981,143.423834 95.0974053,155.75844 110.242936,155.750122 C125.388467,155.741805 137.77266,143.426945 137.753232,128.248656 C137.733804,113.070368 125.396797,100.735762 110.251266,100.74408 Z M121.014355,136.644287 C120.400228,137.531439 119.572921,138.26196 118.635861,138.798206 C117.711347,139.368923 116.677081,139.745366 115.523678,140.009022 C114.727578,140.181668 113.884455,140.332392 113.003694,140.379705 L113.020572,145.253176 L110.212131,145.260405 L110.195253,140.386934 L107.339789,140.372241 L107.356667,145.245712 L104.548226,145.252941 L104.531348,140.37947 L98.4380276,140.372153 L98.4279008,137.448071 L99.2961158,137.366288 C99.6095588,137.369315 100.013882,137.300227 100.5812,137.249887 C101.298967,137.183826 101.52775,137.061519 101.609247,137.070894 C101.885051,136.970509 101.963386,136.863924 101.963386,136.863924 C102.007244,136.769887 102.038557,136.641379 102.03223,136.40946 L102.021973,120.290949 C102.015647,120.05903 101.965462,119.921148 101.915277,119.783266 C101.902731,119.748795 101.796141,119.67048 101.561032,119.560868 C101.23188,119.407412 100.858869,119.347992 100.507787,119.241554 C100.053279,119.17276 99.6928139,119.147811 99.4357757,119.085217 L98.5518514,119.01657 L98.5417246,116.092488 L104.47205,116.081056 L104.480265,111.276526 L107.288706,111.269296 L107.374535,116.117671 L110.229998,116.132364 L110.21312,111.258893 L113.021562,111.251664 L113.01651,116.172153 C113.608921,116.190755 114.191948,116.290846 114.727954,116.369014 C115.696539,116.562995 116.586789,116.863561 117.480203,117.280086 C118.339141,117.70916 119.06334,118.304385 119.6528,119.065762 C120.254806,119.861609 120.571625,120.83933 120.578164,121.929984 C120.568993,122.870208 120.371736,123.722742 119.951915,124.500135 C119.554024,125.230509 118.968046,125.873193 118.262932,126.403092 C117.830459,126.716647 117.316489,127.020828 116.755497,127.303086 C117.517229,127.572355 118.210009,127.86672 118.858931,128.255123 C119.742961,128.753137 120.492253,129.417303 121.119351,130.282092 C121.74645,131.14688 122.066432,132.240561 122.076134,133.447174 C121.991792,134.609942 121.684887,135.697569 121.014355,136.644287 Z M114.402683,133.013435 C114.376004,130.854301 112.633535,129.091365 110.466159,129.081177 L106.481992,129.0854 L106.499492,136.955358 L110.483659,136.951136 C112.651034,136.961323 114.395843,135.184768 114.402683,133.013435 Z M113.948666,122.858201 C113.871765,120.984869 112.384134,119.341825 110.673278,119.23636 L107.567949,119.112544 L107.850641,126.048589 L110.955971,126.172404 C112.685247,126.230711 114.038569,124.767255 113.948666,122.858201 Z" id="Combined-Shape"></path>
                </g>
                <g id="noun_1102789" transform="translate(415.000000, 277.000000)" fill-rule="nonzero" fill="#FFFFFF">
                    <path d="M0,0 L0,338 L175,338 L175,0 L0,0 Z M87.5,255.64467 C79.7794118,255.64467 73.7745098,249.639594 73.7745098,241.918782 C73.7745098,234.19797 79.7794118,228.192893 87.5,228.192893 C95.2205882,228.192893 101.22549,234.19797 101.22549,241.918782 C101.22549,249.639594 95.2205882,255.64467 87.5,255.64467 Z M160.416667,114.096447 L14.5833333,114.096447 L14.5833333,94.3654822 L160.416667,94.3654822 L160.416667,114.096447 Z M160.416667,74.2055838 L14.5833333,74.2055838 L14.5833333,54.4746193 L160.416667,54.4746193 L160.416667,74.2055838 Z M160.416667,34.3147208 L14.5833333,34.3147208 L14.5833333,14.5837563 L160.416667,14.5837563 L160.416667,34.3147208 Z" id="Shape"></path>
                </g>
                <g id="noun_834876" transform="translate(446.553439, 221.924687) rotate(-16.000000) translate(-446.553439, -221.924687) translate(408.553439, 181.924687)" fill-rule="nonzero" fill="#FDA066">
                    <g id="Group" transform="translate(38.000000, 40.302796) scale(-1, 1) rotate(-180.000000) translate(-38.000000, -40.302796) translate(0.000000, 0.802796)">
                        <path d="M65.5425711,77.9777799 C65.0900805,77.5515215 63.9245746,76.4514999 62.9373224,75.5439821 C61.9637822,74.6364643 60.565175,73.3301887 59.8521596,72.6426752 C59.1391442,71.9551617 58.0833329,70.9788926 57.5211476,70.4563823 C56.9589624,69.9338721 55.8757274,68.9163521 55.1215765,68.2013381 C54.3674256,67.4725738 52.7631409,65.9462938 51.5564994,64.8187717 C50.349858,63.6912496 48.7729969,62.2062205 48.0599815,61.518707 C46.6339507,60.14368 44.700582,58.3011438 43.946431,57.5998801 C43.6859062,57.3523752 42.205028,55.9360974 40.6555906,54.4510683 C39.1198651,52.9660392 37.1453609,51.0822522 36.2815153,50.2434858 C35.4039579,49.4184696 33.648843,47.7134361 32.3736423,46.4621616 C31.0847298,45.210887 29.0416664,43.2308482 27.835025,42.0620752 C25.010387,39.3257716 12.7794302,27.0605309 10.9009088,25.0804921 C10.1056224,24.2417256 8.94011639,23.0042013 8.29566015,22.3304381 C6.96561216,20.9416609 4.81285407,18.5491139 3.94900847,17.5178437 C2.76979066,16.1153162 1.27520065,14.2177789 1.19292964,14.0115249 C1.15179414,13.9015227 0.987252117,13.5852665 0.822710097,13.3240114 C0.164542019,12.2239898 0,11.4402245 0,9.47393587 C0,7.39764514 0.178253854,6.71013165 1.00096395,5.34885494 C2.48184213,2.94255773 5.9235127,0.715014028 8.77557437,0.316256205 C9.15950575,0.275005395 9.52972529,0.165003237 9.62570814,0.0962518884 C9.85880933,-0.0962518884 13.1359379,0.0550010791 14.3974267,0.316256205 C15.0007474,0.440008633 16.2073889,0.60501187 17.0712345,0.673763219 C17.9350801,0.742514568 18.8674849,0.852516726 19.1280098,0.893767535 C19.3885346,0.935018345 20.3209394,1.03127023 21.184785,1.08627131 C22.0486306,1.15502266 23.6940508,1.30627563 24.8184213,1.41627779 C25.9565036,1.54003021 27.5196528,1.70503345 28.3149392,1.7737848 C29.1102256,1.85628642 30.6185275,2.00753939 31.6743387,2.11754155 C32.73015,2.24129397 34.2110282,2.37879667 34.9651791,2.44754802 C35.7193301,2.51629937 36.4871928,2.59880099 36.6791585,2.65380207 C36.9945307,2.72255342 38.5302562,2.88755665 41.2726232,3.14881178 C41.875944,3.21756313 43.2608393,3.36881609 44.3577861,3.49256852 C45.4547329,3.61632095 46.9081874,3.76757392 47.5800673,3.83632527 C49.1706402,3.98757823 51.1862799,4.22133282 52.255803,4.38633606 C52.7220054,4.46883768 53.4350208,4.52383876 53.832664,4.52383876 C54.2440191,4.52383876 54.8199162,4.5925901 55.1215765,4.66134145 C55.6563381,4.78509388 57.740537,5.0050982 60.1263963,5.21135224 C60.7708525,5.26635332 61.9363585,5.37635548 62.7316449,5.47260737 C63.5269314,5.55510899 64.7609965,5.69261169 65.4740119,5.7751133 C67.2565505,5.96761708 67.3525333,6.03636843 66.1596037,6.27012302 C65.5974184,6.36637491 64.8295557,6.51762787 64.4456243,6.60012949 C64.0754048,6.66888084 63.4857958,6.79263327 63.143,6.84763435 C62.8002041,6.90263543 62.2517307,7.02638785 61.9089348,7.10888947 C61.566139,7.19139109 60.9216827,7.31514352 60.4691922,7.41139541 C60.0167016,7.49389703 59.2488388,7.64514999 58.7552128,7.75515215 C58.2615867,7.85140404 57.493724,8.00265701 57.0412334,8.0989089 C56.5887429,8.18141052 55.8208801,8.33266348 55.327254,8.44266564 C54.833628,8.5526678 54.2577309,8.66266996 54.0246297,8.70392077 C53.8052404,8.73142131 53.1196486,8.868924 52.5163279,8.99267643 C51.9130071,9.11642886 51.1451444,9.26768183 50.8023485,9.33643318 C50.4595526,9.39143426 49.6916899,9.54268722 49.0883691,9.68018992 C48.4850484,9.80394235 47.689762,9.96894559 47.3058306,10.0376969 C46.9356111,10.1064483 46.1266128,10.2577013 45.5232921,10.3677034 C44.9199713,10.4914558 44.0835494,10.6427088 43.6721943,10.7114602 C41.8073848,11.0414666 40.9161155,11.2339704 40.8475563,11.3027218 C40.6830143,11.467725 40.9298273,11.8114817 41.204064,11.8114817 C41.3548942,11.8114817 41.5879954,11.8664828 41.7251138,11.9489844 C41.9993505,12.1002374 43.0140263,12.5127455 44.4263453,13.049006 C44.5771754,13.1040071 44.9748187,13.2552601 45.3176145,13.3927628 C45.6604104,13.5302655 46.0580536,13.6815184 46.2088838,13.7365195 C46.359714,13.7915206 46.6339507,13.9015227 46.8259164,13.9840244 C47.0178821,14.066526 47.6623383,14.3277811 48.265659,14.5615357 C48.8689798,14.8090405 49.4860124,15.0427951 49.6368425,15.1115465 C49.7876727,15.1665476 50.1853159,15.3178005 50.5281118,15.4553032 C51.5153639,15.8403108 51.8033125,15.9503129 52.2420912,16.1428167 C52.4751924,16.2390686 53.2704788,16.5553248 54.0246297,16.8303302 C54.7787807,17.1190859 55.6014907,17.4353421 55.8483038,17.531594 C56.8081322,17.9441021 57.1920636,18.1091053 57.658266,18.2741085 C57.9187909,18.3566101 58.2615867,18.4941128 58.4124169,18.5628642 C58.5632471,18.6178653 59.1802797,18.8653701 59.7836004,19.0991247 C60.3869211,19.3328793 61.0039537,19.5666339 61.1547839,19.6353852 C61.3056141,19.7041366 61.7032573,19.8553896 62.0460532,19.9928923 C62.9098988,20.336649 63.0470171,20.3778998 64.6513018,21.0241625 C66.1596037,21.6291744 66.2692983,21.6704252 67.2565505,22.0554327 C67.5993463,22.1929354 68.0655487,22.3716889 68.2849381,22.4679408 C68.5180393,22.5641927 68.9156825,22.7154457 69.1762074,22.8116976 C69.4367322,22.8941992 69.7795281,23.0317019 69.9303583,23.1004532 C70.7393565,23.4579602 73.0977922,24.3242272 73.2486223,24.3242272 C73.3446052,24.3242272 73.4268762,24.3929786 73.4268762,24.4754802 C73.4268762,24.5992326 73.0429448,24.6129829 72.0968282,24.5442315 C71.3563891,24.5029807 69.8617991,24.4067288 68.7648523,24.3379775 C67.6679055,24.2692261 65.9402143,24.1454737 64.9255385,24.0629721 C63.9108627,23.9804705 62.1557479,23.8567181 61.0176656,23.7742164 C59.8932951,23.6917148 57.822808,23.5404619 56.4242008,23.4304597 C55.0255937,23.3204575 53.1196486,23.1554543 52.173532,23.0867029 C51.2274154,23.0179516 49.7191136,22.8804489 48.8141324,22.7979473 C47.1961359,22.6604446 45.3861737,22.5091916 42.8906197,22.3166878 C42.1090452,22.2616868 41.6154191,22.275437 41.6154191,22.3579387 C41.6154191,22.42669 41.9033676,22.6604446 42.2598753,22.8941992 C42.7809251,23.2104554 45.35875,25.0117407 47.854304,26.7992758 C48.0874052,26.9505288 49.2803348,27.7892952 50.5281118,28.6555622 C51.7758888,29.5218292 53.8737995,30.9793578 55.1901357,31.9143761 C56.5064719,32.8493945 57.6856897,33.6744107 57.8090962,33.743162 C58.1656039,33.9631663 58.6592299,34.3069231 60.9902419,35.9707057 C62.1694597,36.8232225 63.1704236,37.5244862 63.1978473,37.5244862 C63.2526947,37.5244862 67.5856345,40.5495456 67.873583,40.7970504 C67.955854,40.8658018 68.2026671,41.030805 68.4220564,41.182058 C68.9156825,41.4983142 73.5639945,44.7571281 73.7970957,44.9358816 C73.8793667,45.0183832 74.2632981,45.2658881 74.6472295,45.4996427 C75.0311609,45.7471475 75.3465331,45.9946524 75.3465331,46.0634037 C75.3465331,46.2971583 74.9900254,46.2146567 73.6325537,45.6508956 C73.3308933,45.5271432 73.0977922,45.4308913 70.4102725,44.3996211 C69.3955967,44.0146135 68.4357683,43.6433563 68.2849381,43.5746049 C68.1341079,43.5196038 67.791312,43.3821011 67.5307872,43.2995995 C67.2702623,43.2033476 66.8726191,43.0520947 66.6395179,42.9558428 C66.214451,42.7770893 65.1997752,42.3783314 64.719861,42.1995779 C64.5690308,42.1445769 64.1713876,41.9933239 63.8285917,41.8558212 C63.4857958,41.7183185 63.0881526,41.5670655 62.9373224,41.5120644 C62.7864923,41.4570634 62.3888491,41.3058104 62.0460532,41.1683077 C61.7032573,41.030805 61.3056141,40.879552 61.1547839,40.824551 C60.6748697,40.6457975 59.6601939,40.2470396 59.235127,40.0682861 C59.0157377,39.9720342 58.6043826,39.8207813 58.3438577,39.7245294 C58.0833329,39.6282775 57.6445542,39.4632742 57.3840293,39.3532721 C56.6435902,39.0507662 56.3967772,38.9545143 55.7386091,38.6932591 C55.3958132,38.5557564 54.99817,38.4045035 54.8473398,38.3495024 C54.6965096,38.280751 54.1754599,38.0882473 53.6818339,37.8957435 C53.1882078,37.7032397 52.1461083,37.2907316 51.3508219,36.9744754 C49.7191136,36.3282127 49.595707,36.2732117 48.7455733,35.9432052 C48.4027774,35.8057025 48.0051342,35.6544495 47.854304,35.5856982 C47.7034738,35.5306971 46.9356111,35.2144409 46.1403246,34.911935 C45.3450382,34.5956787 44.5223281,34.251922 44.2892269,34.1694204 C43.0140263,33.6194096 42.287299,33.3719047 42.205028,33.4406561 C42.1638925,33.4956572 42.3969937,33.9769166 42.7260777,34.5269274 C43.0551618,35.0769382 43.3568221,35.5856982 43.3842458,35.6681998 C43.4116695,35.7369511 43.6859062,36.19071 43.9738547,36.6719695 C44.2618032,37.1394787 44.4949044,37.5519868 44.4949044,37.5794873 C44.4949044,37.6207381 44.865124,38.280751 45.3313264,39.0645164 C45.7975288,39.8482818 46.359714,40.824551 46.5928152,41.2370591 C46.8259164,41.6495671 47.1138649,42.1858277 47.2372714,42.405832 C47.3606779,42.6395866 47.6760501,43.1895974 47.9228632,43.6433563 C48.1696762,44.0971152 48.4164892,44.5371238 48.4713366,44.6058751 C48.5261839,44.6883768 48.7729969,45.1146351 49.01981,45.568394 C49.266623,46.0221529 49.5819952,46.585914 49.7054017,46.8059183 C49.8288082,47.0396729 50.1441804,47.5896837 50.3909935,48.0434426 C50.6378065,48.4972015 50.9531787,49.0609626 51.0765852,49.2809669 C51.1999917,49.5147215 51.5153639,50.0647322 51.762177,50.5184911 C52.00899,50.97225 52.3243622,51.5360111 52.4477687,51.7560154 C53.2156315,53.1310424 53.585851,53.8185559 54.2028836,54.9873288 C54.5731031,55.7023429 54.99817,56.5136088 55.1490002,56.7748639 C55.4232369,57.2698736 56.0951168,58.5073979 57.0412334,60.2811827 C57.329182,60.8174432 57.8090962,61.7112107 58.1107565,62.2749718 C58.4124169,62.8387329 58.9608903,63.8975036 59.3448217,64.6125177 C59.7150412,65.3275317 60.2223791,66.2900506 60.4691922,66.7438095 C60.8805472,67.5138246 61.2370549,68.2013381 63.554355,72.6564255 C67.1331439,79.5453106 67.1057203,79.4903096 65.5425711,77.9777799 Z" id="Shape"></path>
                    </g>
                </g>
                <g id="Screen" transform="translate(0.000000, 345.000000)">
                    <rect id="Rectangle-4" fill="#4ABAEB" x="12" y="10" width="315" height="177"></rect>
                    <g id="noun_1148993" fill="#6F6F6F">
                        <path d="M0,0 L339,0 L339,215.445169 L200.319942,215.445169 L200.319942,239.573455 L138.680058,239.573455 L138.680058,215.445169 L0,215.445169 L0,0 Z M16.4551252,17.8297042 L16.4551252,178.927405 L322.544875,178.927405 L322.544875,17.8297042 L16.4551252,17.8297042 Z M169.498386,192.146014 C165.241656,192.146014 161.793928,195.589288 161.793928,199.840495 C161.793928,204.091713 165.241667,207.534976 169.498386,207.534976 C173.755116,207.534976 177.202845,204.091702 177.202845,199.840495 C177.202845,195.589277 173.755106,192.146014 169.498386,192.146014 Z M96.8372095,244.121481 L242.15838,244.121481 L242.15838,270 L197.143061,270 L96.8372095,270 L96.8372095,244.121481 Z" id="Combined-Shape"></path>
                    </g>
                </g>
                <g id="noun_383745" transform="translate(328.511645, 150.932150) rotate(10.000000) translate(-328.511645, -150.932150) translate(228.011645, 49.932150)" fill-rule="nonzero">
                    <rect id="Rectangle-path" fill="#B77E4F" transform="translate(69.711784, 132.149892) rotate(-45.000000) translate(-69.711784, -132.149892) " x="-12.5920958" y="115.920958" width="164.60776" height="32.4578681"></rect>
                    <polygon id="Shape" fill="#B77E4F" points="191.42879 28.2119602 173.649927 10.4328862 156.652502 21.7463609 180.115526 45.2091735"></polygon>
                    <path d="M149.176984,77.7429957 C167.593779,98.4491567 183.844535,121.115048 197.185001,145.395852 C197.306456,145.616949 197.42791,145.838256 197.547686,146.060407 C196.92636,144.908975 199.525147,137.891842 199.742254,136.486645 C201.032733,128.142088 200.994136,119.577066 199.796793,111.224922 C194.931489,77.2845729 169.906865,50.5984726 145.248492,28.7368758 C122.740008,8.78147402 92.2016943,-5.4460681 61.4473218,2.0151557 C60.5398755,2.23519856 56.4788125,4.00502614 55.8012692,3.63596976 C90.3563861,22.4565913 122.691762,47.965757 149.176984,77.7429957 Z" id="Shape" fill="#6F6F6F"></path>
                </g>
            </g>
        </g>
    </g>
</svg>