<?xml version="1.0" encoding="UTF-8"?>
<svg width="1920px" height="1080px" viewBox="0 0 1920 1080" version="1.1" xmlns="http://www.w3.org/2000/svg" xmlns:xlink="http://www.w3.org/1999/xlink">
    <!-- Generator: Sketch 46.2 (44496) - http://www.bohemiancoding.com/sketch -->
    <title>blueprintWhatOriginalApproachWasMissing</title>
    <desc>Created with Sketch.</desc>
    <defs></defs>
    <g id="Actual-Slides" stroke="none" stroke-width="1" fill="none" fill-rule="evenodd">
        <g id="blueprintWhatOriginalApproachWasMissing">
            <g id="Events-Block" transform="translate(187.000000, 312.000000)">
                <rect id="Rectangle-7" stroke="#FFFFFF" stroke-width="5" x="2.5" y="2.5" width="309" height="152.140909"></rect>
                <text id="EVENTS" font-family="HelveticaNeue-Bold, Helvetica Neue" font-size="48" font-weight="bold" letter-spacing="1.33333337" fill="#FFFFFF">
                    <tspan x="52" y="97">EVENTS</tspan>
                </text>
            </g>
            <g id="State-Block" opacity="0.2" transform="translate(1010.000000, 312.000000)">
                <rect id="Rectangle-7-Copy" stroke="#FFFFFF" stroke-width="5" x="2.5" y="2.5" width="309" height="152.140909"></rect>
                <text id="STATE" font-family="HelveticaNeue-Bold, Helvetica Neue" font-size="48" font-weight="bold" letter-spacing="1.33333337" fill="#FFFFFF">
                    <tspan x="76" y="97">STATE</tspan>
                </text>
            </g>
            <g id="Lightning-Strike-Action" transform="translate(187.000000, 505.000000)">
                <rect id="Rectangle" fill="#6F6F6F" opacity="0" x="0" y="0" width="107" height="107"></rect>
                <path d="M66.077193,32.7249951 C62.8650917,33.6603701 60.3138533,35.6006935 59.0774248,38.0434911 C58.2621044,37.7420065 57.3952981,37.5796687 56.4885327,37.5796687 C52.0461505,37.5796687 48.4505949,41.5144281 48.4505949,46.3691018 C48.4505949,49.468981 49.910641,52.1900719 52.1237634,53.7601105 L30.0386458,53.7601105 C29.9618013,53.7601105 29.8849568,53.7438767 29.8081122,53.7438767 C24.7517422,53.6743034 20.6866667,49.3769895 20.6866667,44.0731813 C20.6866667,38.8087979 24.6672133,34.5416325 29.6467387,34.3792947 C31.0068869,26.9735983 37.0238135,21.4 44.2241459,21.4 C50.1411746,21.4 55.2513358,25.1646912 57.6412006,30.6146035 C58.2475039,30.4986479 58.8707131,30.4522657 59.5085227,30.4522657 C61.9660107,30.4522657 64.2413772,31.2941032 66.077193,32.7249951 Z M87.0266667,48.348411 C87.0266667,51.3306857 83.6894431,53.7601105 79.5642639,53.7601105 C79.4182603,53.7601105 79.2792094,53.7601105 79.1401584,53.7367506 C79.0706329,53.7601105 78.9841123,53.7601105 78.8999092,53.7601105 L59.5872725,53.7601105 C59.441269,53.7601105 59.292948,53.7601105 59.1469444,53.7367506 C59.0009409,53.7445373 58.8448948,53.7601105 58.6834411,53.7601105 L57.254306,53.7601105 C57.1222076,53.7601105 56.9993792,53.7437586 56.8757784,53.728964 C53.0287011,53.4408592 50.0159298,50.2405591 50.0159298,46.3316769 C50.0159298,42.2437024 53.3377033,38.9188165 57.4319823,38.9188165 C57.8645854,38.9188165 58.2894634,38.9577496 58.6988913,39.0278292 C59.2481426,39.1212686 59.7734464,39.277001 60.2755749,39.479453 C60.3899057,39.214708 60.5305017,38.949963 60.6772778,38.6930046 C62.0291623,36.3180861 64.5004073,34.5038041 67.498501,33.7485022 C68.4865355,33.4915438 69.5371429,33.3591713 70.6186506,33.3591713 C76.7446189,33.3591713 81.7126016,37.6418112 81.7126016,42.9367114 C81.7126016,43.0145776 81.7126016,43.0924438 81.7033315,43.17031 C81.989931,43.2326029 82.2749855,43.3026825 82.5469075,43.3961219 C85.1796061,44.2215034 87.0266667,46.1362328 87.0266667,48.348411 Z M50.3263777,72.2264779 L51.3023486,70.2812473 L43.7310877,70.2812473 L48.4842423,59.3879558 L58.9419504,59.3879558 L54.3892115,66.9121078 L61.5381404,66.9121078 L43.7310877,85.065 L50.3263777,72.2264779 Z" id="Combined-Shape" fill="#FFFFFF" fill-rule="nonzero"></path>
            </g>
            <g id="Cellphone-Explosion-Action" transform="translate(294.000000, 505.000000)">
                <rect id="Rectangle" fill="#6F6F6F" opacity="0" x="0" y="0" width="107" height="107"></rect>
                <g id="Group" transform="translate(37.450000, 20.330000)" fill="#FFFFFF">
                    <g id="noun_1131411" transform="translate(0.000000, 4.815000)" fill-rule="nonzero">
                        <path d="M26.3778261,0 L7.32717391,0 C3.2804875,0 0,3.29350531 0,7.35625 L0,51.49375 C0,55.5564947 3.2804875,58.85 7.32717391,58.85 L26.3778261,58.85 C30.4245125,58.85 33.705,55.5564947 33.705,51.49375 L33.705,7.35625 C33.705,3.29350531 30.4245125,0 26.3778261,0 Z M20.516087,53.700625 L13.188913,53.700625 C12.3795758,53.700625 11.7234783,53.0419239 11.7234783,52.229375 C11.7234783,51.4168261 12.3795758,50.758125 13.188913,50.758125 L20.516087,50.758125 C21.3254242,50.758125 21.9815217,51.4168261 21.9815217,52.229375 C21.9815217,53.0419239 21.3254242,53.700625 20.516087,53.700625 Z M30.7741304,46.344375 L2.93086957,46.344375 L2.93086957,9.563125 L30.7741304,9.563125 L30.7741304,46.344375 Z" id="Shape"></path>
                    </g>
                    <polygon id="Rectangle-2" points="19.6556682 9.63 31.565 13.3249912 30.0993318 18.19 18.19 14.4950088"></polygon>
                    <g id="noun_563989" transform="translate(13.910000, 0.000000)" fill-rule="nonzero">
                        <path d="M24.61,0.350409357 L14.0121802,4.42391813 L8.95715315,0 L7.93727928,4.33631579 L0.399081081,2.80327485 L5.32108108,10.4684795 L0,12.395731 L5.05502703,14.8047953 L4.52291892,22.47 L11.262955,16.6006433 L16.584036,21.3311696 L18.5350991,14.3229825 L23.191045,14.8485965 L20.4418198,7.88421053 L24.61,0.350409357 Z M13.3027027,11.8263158 L14.766,17.2138596 L11.3072973,12.5709357 L8.55807207,15.5932164 L9.93268468,11.7825146 L4.74463063,11.9577193 L9.5336036,10.2056725 L6.69569369,7.31479532 L10.4647928,9.02304094 L12.2828288,5.25614035 L12.5045405,9.63625731 L16.4953514,7.09578947 L14.0121802,10.5560819 L17.9586486,11.2569006 L13.3027027,11.8263158 Z" id="Shape"></path>
                        <polygon id="Shape" points="20.5463117 17.0636842 20.8501389 16.6614286 19.8247222 16.2189474"></polygon>
                        <polygon id="Shape" points="1.87993056 15.5332198 2.03184414 16.05 2.90534722 15.3742105"></polygon>
                        <polygon id="Shape" points="9.74145833 21.6559809 10.2541667 21.7942105 10.1752885 20.2736842"></polygon>
                        <polygon id="Shape" points="6.49430556 1.05840557 5.98159722 1.01368421 6.83611111 2.53421053"></polygon>
                        <polygon id="Shape" points="11.4504861 20.2736842 12.1340972 19.947441 11.5786632 18.9221053"></polygon>
                        <polygon id="Shape" points="14.2506624 3.54789474 14.5267361 2.43766917 14.0140278 2.19631579"></polygon>
                        <path d="M17.6029861,1.52052632 C17.6029861,1.52052632 18.2455309,0.875454545 18.2833276,0.875454545 C18.3211244,0.875454545 18.0187504,0.506842105 18.0187504,0.506842105 L17.6029861,1.52052632 Z" id="Shape"></path>
                        <polygon id="Shape" points="22.3882639 6.92684211 23.8302561 6.25105263 23.9263889 6.75789474"></polygon>
                        <polygon id="Shape" points="0.7690625 6.75789474 0.512708333 7.11268421 1.19631944 7.26473684"></polygon>
                        <polygon id="Shape" points="3.41805556 9.79894737 2.6534905 9.29210526 2.56354167 9.73136842"></polygon>
                    </g>
                </g>
            </g>
            <g id="Meteor-Action" transform="translate(187.000000, 612.000000)">
                <rect id="Rectangle" fill="#6F6F6F" opacity="0" x="0" y="0" width="107" height="107"></rect>
                <path d="M83.8110209,24.7370008 L83.797504,24.7302109 C83.6983806,24.639679 83.5849894,24.601203 83.4550776,24.6147828 C83.4453154,24.6095017 83.4363042,24.6087473 83.4295458,24.611765 C81.5326835,24.690226 80.0893861,24.7686869 79.1011554,24.8471479 C79.0538465,24.8554466 79.0538465,24.9987887 79.0080394,25.0070875 C77.1990366,25.1202523 75.699419,25.5676305 74.3980483,26.034624 L74.3755203,26.0429228 C71.6060713,27.0372643 69.616844,27.9689879 68.527237,29.1715527 C68.5152221,29.1851325 68.527237,29.2492592 68.5219805,29.2598213 C67.3798081,30.4729481 66.6521519,31.8271538 66.6168579,34.0979944 L66.6055939,34.1017666 C66.4373844,35.6672132 66.036385,37.0327353 65.3740602,38.1243986 C65.3537849,38.1568392 65.330506,38.1870164 65.3087288,38.2202115 C64.6689321,39.1194945 63.7114897,39.6566502 62.2847128,39.4159864 L62.2734488,39.4197585 C60.6536816,39.2485024 59.1923617,39.1677782 57.8812289,39.1609883 C57.8031317,39.1723048 57.6754727,39.0485779 57.5928698,39.0531045 C56.1473196,39.0191551 55.0134074,39.0161373 54.2744872,39.280943 C54.2587176,39.286224 54.2482045,39.2899962 54.2406951,39.2930139 C52.7628547,39.8233797 51.5808827,40.8448808 50.6211875,42.1523116 L50.5445922,42.2496334 C49.9130557,43.0968606 49.4069253,44.3560078 48.5268293,46.0964827 L48.5230746,46.0851662 C48.3443521,47.6883345 47.3936681,49.0055729 47.0947959,49.5238678 C47.0797772,49.5291488 47.117324,49.5200956 47.1203277,49.5268855 C46.491044,50.5227359 45.77315,51.1866362 44.9215895,51.5344294 C44.7473725,51.6061004 44.5754084,51.6257156 44.3839199,51.6023283 C44.1991898,51.5759231 44.0414934,51.5027432 43.9010686,51.3865607 C43.8605181,51.3669454 43.8312316,51.3488391 43.8087035,51.3307327 C43.4482546,51.0674359 43.2094573,50.755101 43.0900586,50.3959913 C43.0397459,50.2541581 43.0247272,50.1055349 43.0435006,49.9478586 C43.0532627,49.7185113 43.1328619,49.4476701 43.2792942,49.1345808 C43.3228485,49.0432945 43.3739121,48.9618159 43.4399944,48.8886359 C43.641245,48.5400883 43.9739093,48.0391454 44.4852961,47.3699641 L44.4815415,47.3586476 C44.9553816,46.5861091 45.5366054,45.8799607 45.7521238,45.4084406 C45.7596331,45.3797722 45.7603841,45.3646836 45.77315,45.3503493 C46.1523722,44.5197196 46.2041868,43.7773584 45.9661403,43.1089315 C45.9608838,43.0938429 45.9556272,43.0787543 45.9503707,43.0636656 L45.7799084,42.5846012 C45.7401088,42.4736997 45.6642644,42.3839223 45.5561297,42.3137601 L45.575654,42.3190411 C45.4787834,42.2549144 45.3804109,42.2300181 45.2782837,42.2503878 C45.2617631,42.2481245 45.2467444,42.2496334 45.2317257,42.25416 C45.1055686,42.2745296 44.9929283,42.331112 44.8930539,42.4261705 C44.8307263,42.5068947 44.7939305,42.6042165 44.7841683,42.7166268 C44.7819155,42.7339788 44.7804137,42.7520852 44.7781609,42.7686827 C44.6895505,43.4793577 44.3621428,44.0949743 43.7974395,44.614778 C43.7486287,44.6660794 43.722346,44.7898063 43.663773,44.8365811 C43.1463787,45.2303946 42.3849304,45.8067808 41.254022,46.2119108 C41.2397543,46.2171918 41.2284902,46.2217184 41.2209809,46.2247362 C41.2134715,46.2269995 41.2059622,46.2292628 41.1984528,46.2315261 C39.5726782,46.8154565 38.612983,47.2311486 38.2915827,47.4054224 C38.242021,47.4303187 38.1857009,47.4129667 38.148905,47.4250377 C37.0225023,48.0316011 36.2775746,48.9007069 35.9276388,50.0730944 C35.9096163,50.1379755 35.8803298,50.1968212 35.8472887,50.2677378 C35.5364015,51.1745652 34.9506721,52.3952364 34.0923532,53.9433311 C32.5101327,55.256043 30.8918674,56.5159446 29.23981,57.7290714 C24.9805056,60.8411039 23.1076733,64.8780701 23.6235657,69.8422334 C24.4278173,77.6309905 28.7081479,81.7954558 36.4660593,82.3341203 C43.9055742,82.8448708 48.8497314,79.854302 51.3000329,73.3646769 C52.5533438,70.0270693 53.7653532,66.862981 54.8609676,63.6649433 C55.8927525,62.7249209 57.3518196,62.2601907 59.0226504,61.6604172 L59.0339144,61.6558906 C61.1410386,60.8999496 62.7390286,60.3016849 63.708486,59.5095312 C63.7114897,59.4989692 63.7002257,59.439369 63.7069841,59.4371057 C66.580813,57.0923307 67.9685413,54.5710186 67.7462645,51.9802987 C67.7365023,51.9501215 67.8100939,51.8626073 67.7988299,51.83243 C67.7935734,51.816587 67.7875659,51.799235 67.7800565,51.7758476 L67.6891934,51.5200952 C67.6456391,51.4008949 67.5014596,51.3360137 67.3963287,51.2733959 C67.3828118,51.2620794 67.3370048,51.2696237 67.3287445,51.2726414 C67.2266173,51.2168134 67.1049658,51.210778 66.9998349,51.2402008 C66.9810615,51.2379375 66.9562806,51.2424641 66.940511,51.2477452 C66.8196104,51.2764136 66.720487,51.332996 66.6581594,51.4129658 L66.708472,51.3186618 C66.5958317,51.4853913 66.1617912,52.0466888 65.4183654,53.000291 C65.4025957,53.0063264 65.3965883,53.0131163 65.399592,53.0199062 C65.0083548,53.4861452 64.6771923,53.8007434 64.4106104,53.9652096 C64.3002229,54.0293364 64.1815751,54.0715846 64.0584218,54.0994985 C63.1332696,54.6811657 62.2306455,55.2394455 61.2852181,55.5781855 L61.263441,55.5864842 C60.3315304,55.9214521 59.5625728,55.8882571 58.8949914,55.3246963 C58.3685859,54.9437081 57.9480621,54.2194532 57.6319184,53.1436331 C57.5868623,52.9927466 57.578602,52.8411058 57.6078885,52.6887105 C58.0817286,49.4288093 60.3690772,47.3194172 64.4684324,46.3582706 C67.797328,45.5480106 69.7497595,44.9361661 70.3257268,44.5189652 C70.41659,44.4450308 70.5172153,44.3884484 70.6276028,44.3484635 C72.3555046,43.1836203 73.3197054,42.1342053 73.520956,41.2002183 C73.5247107,41.1662689 73.5307182,41.1345827 73.5367257,41.1066687 C73.7304669,40.1500488 73.5840346,38.3348851 73.1004323,35.6626866 C73.0974286,35.6551423 73.1034361,35.6626866 73.1086926,35.6521246 C72.6859161,33.2673647 73.6185776,30.8282856 76.1950362,29.1496742 L76.1837722,29.1542008 C78.873622,27.4356044 81.1782421,25.9161782 83.4911225,25.695884 C83.6330492,25.678532 83.7599573,25.6076154 83.8703448,25.5012405 C83.9499439,25.3722326 83.9897435,25.2281361 83.995,25.0764952 C83.9649626,24.9459785 83.902635,24.8297959 83.8110209,24.7370008 Z M50.1375853,54.8350698 C48.7678795,57.3028173 47.985405,59.123262 47.3148199,60.4684144 C46.3731472,62.3891986 45.6267176,64.1643773 45.1258438,65.6151503 C44.9876718,66.0014195 44.6872977,66.0557386 44.7030673,66.8026264 L45.0019395,66.6939882 C45.1498738,66.6419324 45.3075702,66.3454406 45.5959293,66.1500427 C45.8009346,66.0006651 45.9916721,65.6581529 46.2875406,65.4589828 C46.6720194,65.2024759 47.3508648,65.0983643 47.962877,64.1251469 L50.163868,63.3352564 L50.4815136,64.2285041 C50.2629915,65.7215252 49.781642,67.1919134 49.3340846,68.5332937 C49.2244481,68.8569451 49.0254503,69.2009661 48.9075534,69.5012301 C48.2910357,70.9286156 47.4695126,72.2684871 46.5458623,73.5381963 C45.0364826,75.5970416 43.2657774,77.1021336 41.2487655,77.8263884 C41.0783032,77.8874974 40.9198559,77.9440798 40.7719216,77.9976445 C40.3138512,78.1628652 39.8460186,78.3099794 39.3511523,78.3952303 C36.5817033,78.9716164 34.1231415,78.9248416 31.9687085,78.2337818 C29.8345507,77.5261245 28.2973863,75.852794 27.3542117,73.2032285 C26.3216759,70.3001737 26.3344418,67.4529469 27.3887548,64.6555126 C27.4570899,64.3793905 27.5562133,64.1062861 27.6846232,63.8339361 C28.2958845,62.484257 29.0610874,61.3201683 29.9779793,60.3371432 C30.571969,59.8739219 31.1306648,59.3624169 31.6578213,58.8048916 C31.8523135,58.6268456 32.06633,58.466906 32.2991199,58.3250728 C32.2653279,58.2285055 32.5889809,57.9689808 33.2723319,57.5480077 C33.68835,57.2892375 34.2425402,56.9814292 34.9311478,56.6253372 C35.2082429,56.4676609 35.4823342,56.32281 35.7526709,56.1930476 C37.0735659,55.4333345 38.034012,54.9467258 38.6325073,54.7309582 C40.9228596,53.9086272 42.5140913,53.4514414 43.4054513,53.3563829 C43.3588934,53.9516298 43.0059538,54.7739608 42.3796739,55.9191888 C41.6490139,57.1692828 41.2742973,58.2466119 40.9716704,58.3552501 L45.0064452,56.9067404 C45.4051917,56.7641528 46.2680163,56.2300148 47.4605013,55.5766766 C48.6522355,54.8984421 49.2845229,54.5431046 49.9138066,54.2088912 L50.1375853,54.8350698 Z M32.9676199,62.7679621 C31.8514027,63.4683899 30.8995132,64.3994558 30.1127088,65.5627077 C28.4815475,67.9627372 28.4823047,70.3457396 30.1157379,72.7109412 C32.6276053,76.3624532 36.0625858,76.9452401 40.4206795,74.4608498 C42.5645133,73.2395513 43.5262473,71.4455274 43.3036096,69.0803259 C42.7189965,62.9134653 39.2741715,60.80986 32.9676199,62.7679621 Z M41.3543945,70.0632466 C41.3649963,70.3341303 41.3415209,70.6042401 41.2854828,70.8743498 C40.6910252,71.434692 39.9981224,71.601866 39.2045026,71.3766455 C38.0708681,71.0422977 37.6808736,70.2884671 38.0345191,69.1120579 C38.1284207,68.8032505 38.2813894,68.5919613 38.4941825,68.480512 C39.1499791,68.0006609 39.7876011,67.9503539 40.4093205,68.3350087 C41.009079,68.7065064 41.3248609,69.2831016 41.3543945,70.0632466 Z" id="Combined-Shape" fill="#FFFFFF" fill-rule="nonzero"></path>
            </g>
            <g id="Add-Ground-On-Action" transform="translate(294.000000, 612.000000)" fill="#FFFFFF">
                <rect id="Rectangle-2" opacity="0" x="0" y="0" width="107" height="107"></rect>
                <path d="M54.9944245,51.4424858 C55.0014049,51.3655351 55.0049714,51.2875987 55.0049714,51.2088293 L55.0049714,30.373554 C55.0049714,28.963265 53.8617064,27.82 52.4514175,27.82 C51.0411286,27.82 49.8978635,28.963265 49.8978635,30.373554 L49.8978635,51.2088293 C49.8978635,51.2875987 49.9014301,51.3655351 49.9084104,51.4424858 L28.233554,51.4424858 C26.823265,51.4424858 25.68,52.5857509 25.68,53.9960398 C25.68,55.4063287 26.823265,56.5495937 28.233554,56.5495937 L76.6932231,56.5495937 C78.103512,56.5495937 79.2467771,55.4063287 79.2467771,53.9960398 C79.2467771,52.5857509 78.103512,51.4424858 76.6932231,51.4424858 L54.9944245,51.4424858 Z M34.6026052,64.738245 C33.1923163,64.738245 32.0490513,63.5949799 32.0490513,62.184691 C32.0490513,60.7744021 33.1923163,59.6311371 34.6026052,59.6311371 L70.329556,59.6311371 C71.7398449,59.6311371 72.88311,60.7744021 72.88311,62.184691 C72.88311,63.5949799 71.7398449,64.738245 70.329556,64.738245 L34.6026052,64.738245 Z M41.1037097,72.9005244 C39.6934208,72.9005244 38.5501558,71.7572594 38.5501558,70.3469705 C38.5501558,68.9366816 39.6934208,67.7934165 41.1037097,67.7934165 L63.7978076,67.7934165 C65.2080965,67.7934165 66.3513616,68.9366816 66.3513616,70.3469705 C66.3513616,71.7572594 65.2080965,72.9005244 63.7978076,72.9005244 L41.1037097,72.9005244 Z M47.8234865,81.0725406 C46.4131976,81.0725406 45.2699326,79.9292755 45.2699326,78.5189866 C45.2699326,77.1086977 46.4131976,75.9654327 47.8234865,75.9654327 L57.0657176,75.9654327 C58.4760065,75.9654327 59.6192715,77.1086977 59.6192715,78.5189866 C59.6192715,79.9292755 58.4760065,81.0725406 57.0657176,81.0725406 L47.8234865,81.0725406 Z" id="Combined-Shape" fill-rule="nonzero"></path>
                <g id="PLUS" transform="translate(9.095000, 9.362500)">
                    <path d="M12.0375,24.075 C5.38937232,24.075 0,18.6856277 0,12.0375 C0,5.38937232 5.38937232,0 12.0375,0 C18.6856277,0 24.075,5.38937232 24.075,12.0375 C24.075,18.6856277 18.6856277,24.075 12.0375,24.075 Z M13.729901,10.612599 L13.729901,4.815 L10.612599,4.815 L10.612599,10.612599 L4.815,10.612599 L4.815,13.729901 L10.612599,13.729901 L10.612599,19.5275 L13.729901,19.5275 L13.729901,13.729901 L19.5275,13.729901 L19.5275,10.612599 L13.729901,10.612599 Z" id="Combined-Shape"></path>
                </g>
            </g>
            <g id="Fire-Department-Coming" transform="translate(187.000000, 719.000000)" fill="#FFFFFF">
                <rect id="Rectangle-2" opacity="0" x="0" y="0" width="107" height="107"></rect>
                <path d="M89.3920978,40.5772019 L84.6706574,40.5772019 L84.6706574,35.845 L79.9492171,35.845 L79.9492171,40.5772019 L71.6868554,40.5772019 C69.7322567,40.5772019 68.1465702,42.1673543 68.1465702,44.126672 L68.1465702,57.1411835 L68.1465702,61.874023 L65.7855319,61.874023 L65.7855319,57.1411835 L65.7855319,52.4089817 L35.0977596,52.4089817 L35.0977596,57.1411835 L38.6386808,57.1411835 C35.1969842,57.1418211 34.5075,66.6075 34.5075,66.6075 L37.552934,66.6075 C37.4975972,66.219207 37.4587978,65.8264508 37.4587978,65.4241307 C37.4587978,60.8513267 41.1580969,57.1418211 45.7205234,57.1418211 C50.2829499,57.1418211 53.982249,60.8506891 53.982249,65.4241307 C53.982249,65.8264508 53.9453578,66.219207 53.8900209,66.6075 L72.9615107,66.6075 C72.9061739,66.219207 72.8673745,65.8264508 72.8673745,65.4241307 C72.8673745,60.8513267 76.5666736,57.1418211 81.1291001,57.1418211 C85.6915266,57.1418211 89.3914618,60.8506891 89.3914618,65.4241307 C89.3914618,65.8264508 89.3539345,66.219207 89.2985977,66.6075 L91.7525,66.6075 L91.7525,57.1418211 L89.3920978,40.5772019 Z M45.475,59.385 C42.2242321,59.385 39.59,62.0205006 39.59,65.27 C39.59,68.5207679 42.2242321,71.155 45.475,71.155 C48.7257679,71.155 51.36,68.5207679 51.36,65.27 C51.36,62.0211349 48.7257679,59.385 45.475,59.385 M45.475,67.9188209 C44.0148502,67.9188209 42.8261791,66.7314184 42.8261791,65.2706343 C42.8261791,63.8111188 44.0148502,62.6224477 45.475,62.6224477 C46.9351498,62.6224477 48.1231866,63.8111188 48.1231866,65.2706343 C48.1231866,66.7314184 46.9351498,67.9188209 45.475,67.9188209 M81.32,59.385 C78.0692321,59.385 75.435,62.0205006 75.435,65.27 C75.435,68.5207679 78.0692321,71.155 81.32,71.155 C84.5707679,71.155 87.205,68.5207679 87.205,65.27 C87.205,62.0211349 84.5707679,59.385 81.32,59.385 M81.32,67.9188209 C79.8598502,67.9188209 78.6718134,66.7314184 78.6718134,65.2706343 C78.6718134,63.8111188 79.8598502,62.6224477 81.32,62.6224477 C82.7801498,62.6224477 83.9688209,63.8111188 83.9688209,65.2706343 C83.9688209,66.7314184 82.7801498,67.9188209 81.32,67.9188209 M65.5375,47.6820327 L63.17135,47.6820327 L63.17135,43.0004673 L65.5375,43.0004673 L65.5375,40.66 L34.775,40.66 L34.775,43.0004673 L37.1417876,43.0004673 L37.1417876,47.6820327 L34.775,47.6820327 L34.775,50.0225 L65.5375,50.0225 L65.5375,47.6820327 Z M41.8740875,47.6820327 L39.5079375,47.6820327 L39.5079375,43.0004673 L41.8740875,43.0004673 L41.8740875,47.6820327 Z M46.6063874,47.6820327 L44.2402375,47.6820327 L44.2402375,43.0004673 L46.6063874,43.0004673 L46.6063874,47.6820327 Z M51.339325,47.6820327 L48.973175,47.6820327 L48.973175,43.0004673 L51.339325,43.0004673 L51.339325,47.6820327 Z M56.0722625,47.6820327 L53.705475,47.6820327 L53.705475,43.0004673 L56.0722625,43.0004673 L56.0722625,47.6820327 Z M60.8052001,47.6820327 L58.4384125,47.6820327 L58.4384125,43.0004673 L60.8052001,43.0004673 L60.8052001,47.6820327 Z M75.2284127,47.6767798 L70.5069723,47.6767798 L70.5069723,42.9439404 L75.2284127,42.9439404 L75.2284127,47.6767798 Z M77.5888149,52.4096193 L77.5888149,42.9439404 L79.9492171,42.9439404 L84.6706574,42.9439404 L87.0310596,42.9439404 L88.2109427,52.4096193 L77.5888149,52.4096193 L77.5888149,52.4096193 Z M28.9546582,40.7270327 L28.9546582,43.0675 L15.2475,43.0675 L15.2475,40.7270327 L28.9546582,40.7270327 Z M28.9546582,46.0770327 L28.9546582,48.4175 L18.3325305,48.4175 L18.3325305,46.0770327 L28.9546582,46.0770327 Z M28.9546582,51.4270327 L28.9546582,53.7675 L22.1010791,53.7675 L22.1010791,51.4270327 L28.9546582,51.4270327 Z" id="Shape" fill-rule="nonzero" transform="translate(53.500000, 53.500000) scale(-1, 1) translate(-53.500000, -53.500000) "></path>
            </g>
            <g id="Sun-/-Fire-Switch" opacity="0.2" transform="translate(1077.000000, 515.000000)">
                <g id="Switch-Copy-2" transform="translate(82.699382, 37.500000) scale(-1, 1) translate(-82.699382, -37.500000) translate(0.699382, 0.000000)">
                    <path d="M126.75504,2.5 L37.074551,2.5 C18.0183449,2.5 2.5,18.1964257 2.5,37.5 C2.5,56.8035743 18.0183449,72.5 37.074551,72.5 L126.75504,72.5 C145.811246,72.5 161.329591,56.8035743 161.329591,37.5 C161.329591,18.1964257 145.811246,2.5 126.75504,2.5 Z" id="Shape-Copy-2" stroke="#FFFFFF" stroke-width="5" fill-rule="nonzero"></path>
                    <path d="M126.75504,66.1764706 C111.096494,66.1764706 98.4039124,53.3382353 98.4039124,37.5 C98.4039124,21.6617647 111.096494,8.82352941 126.75504,8.82352941 C142.413585,8.82352941 155.106167,21.6617647 155.106167,37.5 C155.106167,53.3382353 142.413585,66.1764706 126.75504,66.1764706 Z" id="Path" fill="#FFFFFF"></path>
                </g>
                <g id="Sun-State" transform="translate(1.585205, 0.721154)">
                    <rect id="Background-Copy" fill="#000000" opacity="0" x="0" y="0" width="71.5413059" height="72.1153846"></rect>
                    <path d="M36.4568196,25.7959906 C42.4504662,25.7959906 47.3229991,30.7076228 47.3229991,36.749365 C47.3229991,42.7911073 42.4504662,47.7027395 36.4568196,47.7027395 C30.463173,47.7027395 25.5906401,42.7911073 25.5906401,36.749365 C25.5906401,30.7076228 30.463173,25.7959906 36.4568196,25.7959906 Z M36.4568196,22.666455 C35.6101043,22.666455 34.9045082,22.0933133 34.9045082,21.3154782 L34.9045082,16.9759768 C34.9045082,16.2390804 35.6101043,15.625 36.4568196,15.625 C37.3035349,15.625 38.0091309,16.2390804 38.0091309,16.9759768 L38.0091309,21.3154782 C38.0091309,22.0523746 37.3035349,22.666455 36.4568196,22.666455 Z M24.6791405,26.9160641 L21.3645967,23.5808575 C20.7900758,23.002755 20.7900758,22.1133666 21.3645967,21.5352641 C21.9391176,20.9571616 22.822996,20.9571616 23.3975169,21.5352641 L26.7120607,24.8704707 C27.2865817,25.4485732 27.2865817,26.3379616 26.7120607,26.9160641 C26.4468972,27.2273501 26.049152,27.3607583 25.6956006,27.3607583 C25.3420493,27.3607583 24.944304,27.1828807 24.6791405,26.9160641 Z M22.4860174,36.749365 C22.4860174,37.6028747 21.9174382,38.3141328 21.1457951,38.3141328 L16.8408386,38.3141328 C16.1098082,38.3141328 15.5006163,37.6028747 15.5006163,36.749365 C15.5006163,35.8958553 16.1098082,35.1845972 16.8408386,35.1845972 L21.1457951,35.1845972 C21.8768254,35.1845972 22.4860174,35.8958553 22.4860174,36.749365 Z M24.6791405,45.7891647 C25.2536615,45.2110622 26.1817337,45.2110622 26.7120607,45.7891647 C27.2865817,46.3672672 27.2865817,47.2566556 26.7120607,47.8347581 L23.3975169,51.1699647 C23.1323534,51.4812507 22.7346082,51.6146589 22.3810568,51.6146589 C22.0275055,51.6146589 21.6297602,51.4367812 21.3645967,51.1699647 C20.7900758,50.5918622 20.7900758,49.7024738 21.3645967,49.1243713 L24.6791405,45.7891647 Z M36.4568196,50.0498911 C37.3035349,50.0498911 38.0091309,50.6230328 38.0091309,51.400868 L38.0091309,55.7403693 C38.0091309,56.4772658 37.3035349,57.0913462 36.4568196,57.0913462 C35.6101043,57.0913462 34.9045082,56.4772658 34.9045082,55.7403693 L34.9045082,51.400868 C34.9045082,50.6639715 35.6101043,50.0498911 36.4568196,50.0498911 Z M47.4583429,45.7891647 L50.7728867,49.1243713 C51.3474077,49.7024738 51.3474077,50.5918622 50.7728867,51.1699647 C50.5077232,51.4812507 50.109978,51.6146589 49.7564266,51.6146589 C49.4028753,51.6146589 49.00513,51.4367812 48.7399665,51.1699647 L45.4254227,47.8347581 C44.8509018,47.2566556 44.8509018,46.3672672 45.4254227,45.7891647 C45.9999436,45.2110622 46.883822,45.2110622 47.4583429,45.7891647 Z M55.2966449,35.1845972 C56.0276752,35.1845972 56.6368672,35.8958553 56.6368672,36.749365 C56.6368672,37.6028747 56.0276752,38.3141328 55.2966449,38.3141328 L50.9916884,38.3141328 C50.260658,38.3141328 49.6514661,37.6028747 49.6514661,36.749365 C49.6514661,35.8958553 50.260658,35.1845972 50.9916884,35.1845972 L55.2966449,35.1845972 Z M46.4418828,27.3607583 C46.0441376,27.3607583 45.6905862,27.2273501 45.4254227,26.9160641 C44.8509018,26.3379616 44.8509018,25.4485732 45.4254227,24.8704707 L48.7399665,21.5352641 C49.3144875,20.9571616 50.1983658,20.9571616 50.7728867,21.5352641 C51.3474077,22.1133666 51.3474077,23.002755 50.7728867,23.5808575 L47.4583429,26.9160641 C47.1931794,27.2273501 46.7954342,27.3607583 46.4418828,27.3607583 Z" id="Combined-Shape" fill="#4D70B8" fill-rule="nonzero"></path>
                </g>
                <g id="Fire-State" transform="translate(94.588902, 0.000000)">
                    <rect id="Background-Copy" fill="#6F6F6F" opacity="0" x="0" y="0" width="71.5413059" height="72.1153846"></rect>
                    <path d="M44.9139863,35.2856307 C43.0450514,31.1775122 43.6914997,27.7756898 43.6914997,27.7756898 C43.6914997,27.7756898 40.0311281,31.2160197 40.6000782,36.2658664 C40.7914609,37.9650715 41.4818563,39.8933721 42.0999516,41.8002254 C41.4638994,43.3146919 40.3415934,44.8340329 38.4329642,44.4923396 C34.8103966,43.843561 36.0678519,40.8565475 36.8296024,38.2741066 C37.5913528,35.6911782 35.7035159,33.6283451 35.7035159,33.6283451 C35.7035159,33.6283451 34.0018637,38.1103277 32.5506629,34.6197918 C31.0994621,31.1292559 38.5889057,27.5217351 37.7137433,22.3329689 C36.8390534,17.1442027 33.3648664,13.7019231 33.3648664,13.7019231 C33.3648664,13.7019231 35.6108962,16.9272933 34.1587503,21.0027535 C32.7066044,25.0782138 29.8807559,24.7097114 27.2524333,29.660121 C24.6241106,34.6105305 28.5198121,39.0720408 26.6641086,40.1512262 C22.8397622,42.3758884 23.5599282,34.3229427 23.5599282,34.3229427 C23.5599282,34.3229427 18.7904819,40.2872211 23.2433198,49.6401611 C28.0448995,59.7262062 39.2726854,57.3738355 39.8501414,57.2451522 C43.2548636,56.8157202 46.4875775,54.471636 48.2237259,49.9725931 C51.5277949,41.4083261 46.7829212,39.3937492 44.9139863,35.2856307 Z" id="Shape-Copy-6" fill="#FFFFFF" fill-rule="nonzero"></path>
                </g>
            </g>
            <g id="Fire-Truck-Coming-Switch" opacity="0.2" transform="translate(1073.000000, 630.000000)">
                <g id="Switch" transform="translate(3.549887, 0.000000)">
                    <path d="M125.791966,2.5 L36.7928618,2.5 C17.8963216,2.5 2.5,18.1922302 2.5,37.5 C2.5,56.8077698 17.8963216,72.5 36.7928618,72.5 L125.791966,72.5 C144.688506,72.5 160.084828,56.8077698 160.084828,37.5 C160.084828,18.1922302 144.688506,2.5 125.791966,2.5 Z" id="Shape-Copy-2" stroke="#FFFFFF" stroke-width="5" fill-rule="nonzero"></path>
                    <path d="M125.791966,66.1764706 C110.252393,66.1764706 97.6562483,53.3382353 97.6562483,37.5 C97.6562483,21.6617647 110.252393,8.82352941 125.791966,8.82352941 C141.33154,8.82352941 153.927684,21.6617647 153.927684,37.5 C153.927684,53.3382353 141.33154,66.1764706 125.791966,66.1764706 Z" id="Path" fill="#FFFFFF"></path>
                </g>
                <g id="Fire-Department-Coming" transform="translate(98.686861, 5.048077)">
                    <rect id="Rectangle-2" fill="#FFFFFF" opacity="0" x="0" y="0" width="63.8979673" height="64.9038462"></rect>
                    <path d="M53.3829285,24.613238 L50.5633916,24.613238 L50.5633916,21.7427885 L47.7438548,21.7427885 L47.7438548,24.613238 L42.8097602,24.613238 C41.6425183,24.613238 40.6955824,25.5777895 40.6955824,26.7662685 L40.6955824,34.6605849 L40.6955824,37.5314212 L39.285624,37.5314212 L39.285624,34.6605849 L39.285624,31.7901354 L20.959584,31.7901354 L20.959584,34.6605849 L23.0741417,34.6605849 C21.0188388,34.6609716 20.6070945,40.4026442 20.6070945,40.4026442 L22.4257584,40.4026442 C22.3927125,40.1671142 22.3695424,39.928877 22.3695424,39.6848385 C22.3695424,36.9110761 24.5786797,34.6609716 27.3032571,34.6609716 C30.0278345,34.6609716 32.2369718,36.9106894 32.2369718,39.6848385 C32.2369718,39.928877 32.2149412,40.1671142 32.1818953,40.4026442 L43.5709554,40.4026442 C43.5379095,40.1671142 43.5147394,39.928877 43.5147394,39.6848385 C43.5147394,36.9110761 45.7238767,34.6609716 48.4484541,34.6609716 C51.1730315,34.6609716 53.3825486,36.9106894 53.3825486,39.6848385 C53.3825486,39.928877 53.3601382,40.1671142 53.3270923,40.4026442 L54.792507,40.4026442 L54.792507,34.6609716 L53.3829285,24.613238 Z M27.1566361,36.0216346 C25.2153514,36.0216346 23.6422479,37.6202713 23.6422479,39.5913462 C23.6422479,41.5631905 25.2153514,43.1610577 27.1566361,43.1610577 C29.0979208,43.1610577 30.6710243,41.5631905 30.6710243,39.5913462 C30.6710243,37.6206561 29.0979208,36.0216346 27.1566361,36.0216346 M27.1566361,41.1980626 C26.2846678,41.1980626 25.5748205,40.4778104 25.5748205,39.5917309 C25.5748205,38.7064209 26.2846678,37.9853992 27.1566361,37.9853992 C28.0286044,37.9853992 28.7380729,38.7064209 28.7380729,39.5917309 C28.7380729,40.4778104 28.0286044,41.1980626 27.1566361,41.1980626 M48.5624552,36.0216346 C46.6211705,36.0216346 45.048067,37.6202713 45.048067,39.5913462 C45.048067,41.5631905 46.6211705,43.1610577 48.5624552,43.1610577 C50.5037399,43.1610577 52.0768434,41.5631905 52.0768434,39.5913462 C52.0768434,37.6206561 50.5037399,36.0216346 48.5624552,36.0216346 M48.5624552,41.1980626 C47.6904869,41.1980626 46.9810183,40.4778104 46.9810183,39.5917309 C46.9810183,38.7064209 47.6904869,37.9853992 48.5624552,37.9853992 C49.4344234,37.9853992 50.1442708,38.7064209 50.1442708,39.5917309 C50.1442708,40.4778104 49.4344234,41.1980626 48.5624552,41.1980626 M39.137505,28.9228721 L37.724494,28.9228721 L37.724494,26.0831375 L39.137505,26.0831375 L39.137505,24.6634615 L20.7668394,24.6634615 L20.7668394,26.0831375 L22.1802311,26.0831375 L22.1802311,28.9228721 L20.7668394,28.9228721 L20.7668394,30.3425481 L39.137505,30.3425481 L39.137505,28.9228721 Z M25.006253,28.9228721 L23.5932421,28.9228721 L23.5932421,26.0831375 L25.006253,26.0831375 L25.006253,28.9228721 Z M27.832275,28.9228721 L26.419264,28.9228721 L26.419264,26.0831375 L27.832275,26.0831375 L27.832275,28.9228721 Z M30.6586777,28.9228721 L29.2456667,28.9228721 L29.2456667,26.0831375 L30.6586777,26.0831375 L30.6586777,28.9228721 Z M33.4850804,28.9228721 L32.0716886,28.9228721 L32.0716886,26.0831375 L33.4850804,26.0831375 L33.4850804,28.9228721 Z M36.3114831,28.9228721 L34.8980913,28.9228721 L34.8980913,26.0831375 L36.3114831,26.0831375 L36.3114831,28.9228721 Z M44.9246977,28.9196858 L42.1051609,28.9196858 L42.1051609,26.0488495 L44.9246977,26.0488495 L44.9246977,28.9196858 Z M46.3342762,31.7905221 L46.3342762,26.0488495 L47.7438548,26.0488495 L50.5633916,26.0488495 L51.9729701,26.0488495 L52.6775695,31.7905221 L46.3342762,31.7905221 L46.3342762,31.7905221 Z M17.2910636,24.7041221 L17.2910636,26.1237981 L9.10546034,26.1237981 L9.10546034,24.7041221 L17.2910636,24.7041221 Z M17.2910636,27.9493144 L17.2910636,29.3689904 L10.9477704,29.3689904 L10.9477704,27.9493144 L17.2910636,27.9493144 Z M17.2910636,31.1945067 L17.2910636,32.6141827 L13.198262,32.6141827 L13.198262,31.1945067 L17.2910636,31.1945067 Z" id="Shape" fill="#4D70B8" fill-rule="nonzero" transform="translate(31.948984, 32.451923) scale(-1, 1) translate(-31.948984, -32.451923) "></path>
                </g>
                <g id="Fire-Department-Static" transform="translate(0.000000, 5.048077)" fill="#FFFFFF">
                    <rect id="Rectangle-2" opacity="0" x="0" y="0" width="63.8979673" height="64.9038462"></rect>
                    <path d="M52.5309556,24.613238 L49.7114187,24.613238 L49.7114187,21.7427885 L46.8918819,21.7427885 L46.8918819,24.613238 L41.9577873,24.613238 C40.7905454,24.613238 39.8436095,25.5777895 39.8436095,26.7662685 L39.8436095,34.6605849 L39.8436095,37.5314212 L38.4336511,37.5314212 L38.4336511,34.6605849 L38.4336511,31.7901354 L20.1076111,31.7901354 L20.1076111,34.6605849 L22.2221688,34.6605849 C20.1668659,34.6609716 19.7551216,40.4026442 19.7551216,40.4026442 L21.5737855,40.4026442 C21.5407396,40.1671142 21.5175695,39.928877 21.5175695,39.6848385 C21.5175695,36.9110761 23.7267068,34.6609716 26.4512842,34.6609716 C29.1758616,34.6609716 31.3849989,36.9106894 31.3849989,39.6848385 C31.3849989,39.928877 31.3629683,40.1671142 31.3299224,40.4026442 L42.7189825,40.4026442 C42.6859366,40.1671142 42.6627665,39.928877 42.6627665,39.6848385 C42.6627665,36.9110761 44.8719038,34.6609716 47.5964812,34.6609716 C50.3210586,34.6609716 52.5305757,36.9106894 52.5305757,39.6848385 C52.5305757,39.928877 52.5081653,40.1671142 52.4751194,40.4026442 L53.9405341,40.4026442 L53.9405341,34.6609716 L52.5309556,24.613238 Z M26.3046632,36.0216346 C24.3633785,36.0216346 22.790275,37.6202713 22.790275,39.5913462 C22.790275,41.5631905 24.3633785,43.1610577 26.3046632,43.1610577 C28.2459479,43.1610577 29.8190514,41.5631905 29.8190514,39.5913462 C29.8190514,37.6206561 28.2459479,36.0216346 26.3046632,36.0216346 M26.3046632,41.1980626 C25.4326949,41.1980626 24.7228476,40.4778104 24.7228476,39.5917309 C24.7228476,38.7064209 25.4326949,37.9853992 26.3046632,37.9853992 C27.1766315,37.9853992 27.8861,38.7064209 27.8861,39.5917309 C27.8861,40.4778104 27.1766315,41.1980626 26.3046632,41.1980626 M47.7104823,36.0216346 C45.7691976,36.0216346 44.1960941,37.6202713 44.1960941,39.5913462 C44.1960941,41.5631905 45.7691976,43.1610577 47.7104823,43.1610577 C49.651767,43.1610577 51.2248705,41.5631905 51.2248705,39.5913462 C51.2248705,37.6206561 49.651767,36.0216346 47.7104823,36.0216346 M47.7104823,41.1980626 C46.838514,41.1980626 46.1290455,40.4778104 46.1290455,39.5917309 C46.1290455,38.7064209 46.838514,37.9853992 47.7104823,37.9853992 C48.5824505,37.9853992 49.2922979,38.7064209 49.2922979,39.5917309 C49.2922979,40.4778104 48.5824505,41.1980626 47.7104823,41.1980626 M38.2855321,28.9228721 L36.8725211,28.9228721 L36.8725211,26.0831375 L38.2855321,26.0831375 L38.2855321,24.6634615 L19.9148665,24.6634615 L19.9148665,26.0831375 L21.3282582,26.0831375 L21.3282582,28.9228721 L19.9148665,28.9228721 L19.9148665,30.3425481 L38.2855321,30.3425481 L38.2855321,28.9228721 Z M24.1542801,28.9228721 L22.7412692,28.9228721 L22.7412692,26.0831375 L24.1542801,26.0831375 L24.1542801,28.9228721 Z M26.9803021,28.9228721 L25.5672911,28.9228721 L25.5672911,26.0831375 L26.9803021,26.0831375 L26.9803021,28.9228721 Z M29.8067048,28.9228721 L28.3936938,28.9228721 L28.3936938,26.0831375 L29.8067048,26.0831375 L29.8067048,28.9228721 Z M32.6331075,28.9228721 L31.2197157,28.9228721 L31.2197157,26.0831375 L32.6331075,26.0831375 L32.6331075,28.9228721 Z M35.4595102,28.9228721 L34.0461184,28.9228721 L34.0461184,26.0831375 L35.4595102,26.0831375 L35.4595102,28.9228721 Z M44.0727248,28.9196858 L41.253188,28.9196858 L41.253188,26.0488495 L44.0727248,26.0488495 L44.0727248,28.9196858 Z M45.4823033,31.7905221 L45.4823033,26.0488495 L46.8918819,26.0488495 L49.7114187,26.0488495 L51.1209972,26.0488495 L51.8255966,31.7905221 L45.4823033,31.7905221 L45.4823033,31.7905221 Z" id="Shape" fill-rule="nonzero" transform="translate(36.847828, 32.451923) scale(-1, 1) translate(-36.847828, -32.451923) "></path>
                </g>
            </g>
            <g id="Rod-or-not-Rod-Switch" opacity="0.2" transform="translate(1077.000000, 744.000000)">
                <g id="Switch-Copy">
                    <path d="M126.113185,2.5 L36.886815,2.5 C17.9370131,2.5 2.5,18.193629 2.5,37.5 C2.5,56.806371 17.9370131,72.5 36.886815,72.5 L126.113185,72.5 C145.062987,72.5 160.5,56.806371 160.5,37.5 C160.5,18.193629 145.062987,2.5 126.113185,2.5 Z" id="Shape-Copy-2" stroke="#FFFFFF" stroke-width="5" fill-rule="nonzero"></path>
                    <path d="M126.113185,66.1764706 C110.53393,66.1764706 97.9056205,53.3382353 97.9056205,37.5 C97.9056205,21.6617647 110.53393,8.82352941 126.113185,8.82352941 C141.69244,8.82352941 154.320749,21.6617647 154.320749,37.5 C154.320749,53.3382353 141.69244,66.1764706 126.113185,66.1764706 Z" id="Path" fill="#FFFFFF"></path>
                </g>
                <g id="Add-Ground-On-Action" transform="translate(94.668122, 3.605769)">
                    <rect id="Rectangle-2" fill="#FFFFFF" opacity="0" x="0" y="0" width="64.0611354" height="64.9038462"></rect>
                    <path d="M32.9252829,31.2038802 C32.9294621,31.1572036 32.9315974,31.1099291 32.9315974,31.0621493 L32.9315974,18.4239297 C32.9315974,17.5684794 32.2471221,16.875 31.402779,16.875 C30.558436,16.875 29.8739607,17.5684794 29.8739607,18.4239297 L29.8739607,31.0621493 C29.8739607,31.1099291 29.8760959,31.1572036 29.8802751,31.2038802 L16.9034909,31.2038802 C16.0591478,31.2038802 15.3746725,31.8973597 15.3746725,32.7528099 C15.3746725,33.6082601 16.0591478,34.3017395 16.9034909,34.3017395 L45.9164014,34.3017395 C46.7607445,34.3017395 47.4452198,33.6082601 47.4452198,32.7528099 C47.4452198,31.8973597 46.7607445,31.2038802 45.9164014,31.2038802 L32.9252829,31.2038802 Z M20.7166559,39.2687953 C19.8723128,39.2687953 19.1878375,38.5753158 19.1878375,37.7198656 C19.1878375,36.8644154 19.8723128,36.170936 20.7166559,36.170936 L42.1064599,36.170936 C42.950803,36.170936 43.6352783,36.8644154 43.6352783,37.7198656 C43.6352783,38.5753158 42.950803,39.2687953 42.1064599,39.2687953 L20.7166559,39.2687953 Z M24.6088814,44.2198544 C23.7645384,44.2198544 23.0800631,43.526375 23.0800631,42.6709248 C23.0800631,41.8154745 23.7645384,41.1219951 24.6088814,41.1219951 L38.1958877,41.1219951 C39.0402308,41.1219951 39.7247061,41.8154745 39.7247061,42.6709248 C39.7247061,43.526375 39.0402308,44.2198544 38.1958877,44.2198544 L24.6088814,44.2198544 Z M28.6320266,49.1768196 C27.7876835,49.1768196 27.1032082,48.4833402 27.1032082,47.62789 C27.1032082,46.7724397 27.7876835,46.0789603 28.6320266,46.0789603 L34.1653706,46.0789603 C35.0097137,46.0789603 35.694189,46.7724397 35.694189,47.62789 C35.694189,48.4833402 35.0097137,49.1768196 34.1653706,49.1768196 L28.6320266,49.1768196 Z" id="Combined-Shape" fill="#4D70B8" fill-rule="nonzero"></path>
                </g>
                <g id="Ground-Off" transform="translate(3.558952, 3.605769)">
                    <rect id="Rectangle-2" x="0" y="0" width="64.0611354" height="64.9038462"></rect>
                    <path d="M32.9252829,31.2038802 C32.9294621,31.1572036 32.9315974,31.1099291 32.9315974,31.0621493 L32.9315974,18.4239297 C32.9315974,17.5684794 32.2471221,16.875 31.402779,16.875 C30.558436,16.875 29.8739607,17.5684794 29.8739607,18.4239297 L29.8739607,31.0621493 C29.8739607,31.1099291 29.8760959,31.1572036 29.8802751,31.2038802 L16.9034909,31.2038802 C16.0591478,31.2038802 15.3746725,31.8973597 15.3746725,32.7528099 C15.3746725,33.6082601 16.0591478,34.3017395 16.9034909,34.3017395 L45.9164014,34.3017395 C46.7607445,34.3017395 47.4452198,33.6082601 47.4452198,32.7528099 C47.4452198,31.8973597 46.7607445,31.2038802 45.9164014,31.2038802 L32.9252829,31.2038802 Z M20.7166559,39.2687953 C19.8723128,39.2687953 19.1878375,38.5753158 19.1878375,37.7198656 C19.1878375,36.8644154 19.8723128,36.170936 20.7166559,36.170936 L42.1064599,36.170936 C42.950803,36.170936 43.6352783,36.8644154 43.6352783,37.7198656 C43.6352783,38.5753158 42.950803,39.2687953 42.1064599,39.2687953 L20.7166559,39.2687953 Z M24.6088814,44.2198544 C23.7645384,44.2198544 23.0800631,43.526375 23.0800631,42.6709248 C23.0800631,41.8154745 23.7645384,41.1219951 24.6088814,41.1219951 L38.1958877,41.1219951 C39.0402308,41.1219951 39.7247061,41.8154745 39.7247061,42.6709248 C39.7247061,43.526375 39.0402308,44.2198544 38.1958877,44.2198544 L24.6088814,44.2198544 Z M28.6320266,49.1768196 C27.7876835,49.1768196 27.1032082,48.4833402 27.1032082,47.62789 C27.1032082,46.7724397 27.7876835,46.0789603 28.6320266,46.0789603 L34.1653706,46.0789603 C35.0097137,46.0789603 35.694189,46.7724397 35.694189,47.62789 C35.694189,48.4833402 35.0097137,49.1768196 34.1653706,49.1768196 L28.6320266,49.1768196 Z" id="Combined-Shape" fill="#FFFFFF" fill-rule="nonzero"></path>
                    <path d="M19.4659363,38.1459362 L48.4788468,38.1459362 C49.3231899,38.1459362 50.0076652,37.4524568 50.0076652,36.5970066 C50.0076652,35.7415563 49.3231899,35.0480769 48.4788468,35.0480769 L19.4659363,35.0480769 C18.6215932,35.0480769 17.9371179,35.7415563 17.9371179,36.5970066 C17.9371179,37.4524568 18.6215932,38.1459362 19.4659363,38.1459362 Z" id="Shape-Copy" fill="#FFFFFF" transform="translate(33.972392, 36.597007) rotate(-45.000000) translate(-33.972392, -36.597007) "></path>
                </g>
            </g>
            <g id="State-Block-Copy" opacity="0.2" transform="translate(599.000000, 312.000000)">
                <rect id="Rectangle-7-Copy" stroke="#FFFFFF" stroke-width="5" x="2.5" y="2.5" width="309" height="152.140909"></rect>
                <text id="UPDATE" font-family="HelveticaNeue-Bold, Helvetica Neue" font-size="48" font-weight="bold" letter-spacing="1.33333337" fill="#FFFFFF">
                    <tspan x="50" y="97">UPDATE</tspan>
                </text>
            </g>
            <g id="Arrows" opacity="0.2" transform="translate(738.000000, 255.000000)">
                <polygon id="Shape-Copy-3" fill="#FFFFFF" fill-rule="nonzero" transform="translate(221.995152, 135.542264) scale(-1, 1) rotate(90.000000) translate(-221.995152, -135.542264) " points="221.995141 185.127322 223.376734 183.923097 238.351439 171.078027 235.588253 167.844494 224.134403 177.678966 224.134403 85.957206 219.8559 85.957206 219.8559 177.678966 208.40205 167.844494 205.638865 171.078027 220.613548 183.923097"></polygon>
                <polygon id="Shape-Copy-4" fill="#FFFFFF" fill-rule="nonzero" transform="translate(16.951224, 28.533415) scale(-1, 1) translate(-16.951224, -28.533415) " points="16.9512131 57.06683 18.3328059 55.8626047 33.3075108 43.0175343 30.5443252 39.7840019 19.090475 49.6184732 19.090475 0 14.8119726 0 14.8119726 49.6184732 3.35812236 39.7840019 0.594936709 43.0175343 15.5696203 55.8626047"></polygon>
                <polyline id="Path-11" stroke="#FFFFFF" stroke-width="6" points="16.2827004 2.14084507 437 2.14084507 437 58.5164319"></polyline>
            </g>
            <g id="Update-Function-Definition" opacity="0.2" transform="translate(596.000000, 503.000000)">
                <g id="Connectors" transform="translate(86.462571, 42.194792)" stroke="#FFFFFF" stroke-width="5">
                    <polyline id="Path-4" points="163.057253 0 129.336573 0 57.8799028 71.6117168"></polyline>
                    <polyline id="Path-3" points="57.1653361 71.5165971 128.213084 143.725313 163.419451 143.725313"></polyline>
                    <path d="M58.378791,72.050178 L0.606727436,72.050178" id="Path-9"></path>
                    <ellipse id="Oval-3" fill="#4D70B8" cx="58.5944695" cy="72.2317631" rx="5.71653361" ry="5.72132777"></ellipse>
                </g>
                <g id="Fire-State" transform="translate(249.383779, 137.311866)" fill="#FFFFFF">
                    <rect id="Background-Copy" opacity="0" x="0" y="0" width="85.7480042" height="85.8199165"></rect>
                    <path d="M54.6905019,42.8493762 C52.4504332,37.9605665 53.2252535,33.9122748 53.2252535,33.9122748 C53.2252535,33.9122748 48.8380039,38.0063919 49.5199363,44.0158921 C49.7493239,46.0380077 50.5768183,48.3327551 51.3176551,50.6019795 C50.5552955,52.4042495 49.2101215,54.2123202 46.9224761,53.8056928 C42.5805377,53.0336228 44.087699,49.4789686 45.0007181,46.4057706 C45.9137373,43.3319924 43.651013,40.8771464 43.651013,40.8771464 C43.651013,40.8771464 41.6114461,46.2108678 39.8720653,42.0570038 C38.1326845,37.9031398 47.1093845,33.6100596 46.060432,27.4352401 C45.0120459,21.2604206 40.8479536,17.1639833 40.8479536,17.1639833 C40.8479536,17.1639833 43.5400008,21.0022905 41.7994872,25.8522357 C40.0589737,30.7021808 36.6719672,30.2636497 33.5217113,36.1548161 C30.3714554,42.0459826 35.0407667,47.3553412 32.8165569,48.6396108 C28.2327704,51.2870393 29.0959473,41.7037427 29.0959473,41.7037427 C29.0959473,41.7037427 23.3793826,48.8014497 28.7164666,59.9317866 C34.4715457,71.9345452 47.9289495,69.135139 48.6210769,68.9820011 C52.70191,68.4709616 56.5765774,65.6814166 58.6574908,60.3273927 C62.617683,50.1356052 56.9305706,47.7381858 54.6905019,42.8493762 Z" id="Shape-Copy-6" fill-rule="nonzero"></path>
                </g>
                <g id="Sun-State" transform="translate(249.383779, 0.000000)">
                    <rect id="Background-Copy" fill="#C2C9D8" opacity="0" x="0" y="0" width="85.7480042" height="85.8199165"></rect>
                    <path d="M43.6964279,30.698162 C50.880295,30.698162 56.7204172,36.543182 56.7204172,43.7330738 C56.7204172,50.9229657 50.880295,56.7679857 43.6964279,56.7679857 C36.5125608,56.7679857 30.6724386,50.9229657 30.6724386,43.7330738 C30.6724386,36.543182 36.5125608,30.698162 43.6964279,30.698162 Z M43.6964279,26.9739014 C42.6815716,26.9739014 41.835858,26.2918421 41.835858,25.3661901 L41.835858,20.2020265 C41.835858,19.3250931 42.6815716,18.5943152 43.6964279,18.5943152 C44.7112842,18.5943152 45.5569978,19.3250931 45.5569978,20.2020265 L45.5569978,25.3661901 C45.5569978,26.2431236 44.7112842,26.9739014 43.6964279,26.9739014 Z M29.5799331,32.03109 L25.607186,28.0620735 C24.9185765,27.3741106 24.9185765,26.3157062 25.607186,25.6277433 C26.2957955,24.9397805 27.3551948,24.9397805 28.0438043,25.6277433 L32.0165514,29.5967599 C32.7051609,30.2847227 32.7051609,31.3431272 32.0165514,32.03109 C31.6987316,32.4015316 31.2220019,32.5602922 30.7982423,32.5602922 C30.3744826,32.5602922 29.8977529,32.3486113 29.5799331,32.03109 Z M26.9512988,43.7330738 C26.9512988,44.7487812 26.269811,45.5952041 25.3449347,45.5952041 L20.1850984,45.5952041 C19.3088997,45.5952041 18.5787342,44.7487812 18.5787342,43.7330738 C18.5787342,42.7173664 19.3088997,41.8709435 20.1850984,41.8709435 L25.3449347,41.8709435 C26.2211333,41.8709435 26.9512988,42.7173664 26.9512988,43.7330738 Z M29.5799331,54.4907624 C30.2685426,53.8027995 31.3809118,53.8027995 32.0165514,54.4907624 C32.7051609,55.1787253 32.7051609,56.2371297 32.0165514,56.9250926 L28.0438043,60.8941091 C27.7259845,61.2645507 27.2492548,61.4233113 26.8254951,61.4233113 C26.4017354,61.4233113 25.9250058,61.2116304 25.607186,60.8941091 C24.9185765,60.2061462 24.9185765,59.1477418 25.607186,58.459779 L29.5799331,54.4907624 Z M43.6964279,59.5611811 C44.7112842,59.5611811 45.5569978,60.2432404 45.5569978,61.1688924 L45.5569978,66.3330559 C45.5569978,67.2099894 44.7112842,67.9407672 43.6964279,67.9407672 C42.6815716,67.9407672 41.835858,67.2099894 41.835858,66.3330559 L41.835858,61.1688924 C41.835858,60.2919589 42.6815716,59.5611811 43.6964279,59.5611811 Z M56.8826377,54.4907624 L60.8553848,58.459779 C61.5439944,59.1477418 61.5439944,60.2061462 60.8553848,60.8941091 C60.5375651,61.2645507 60.0608354,61.4233113 59.6370757,61.4233113 C59.213316,61.4233113 58.7365864,61.2116304 58.4187666,60.8941091 L54.4460195,56.9250926 C53.75741,56.2371297 53.75741,55.1787253 54.4460195,54.4907624 C55.134629,53.8027995 56.1940282,53.8027995 56.8826377,54.4907624 Z M66.2774725,41.8709435 C67.1536711,41.8709435 67.8838366,42.7173664 67.8838366,43.7330738 C67.8838366,44.7487812 67.1536711,45.5952041 66.2774725,45.5952041 L61.1176362,45.5952041 C60.2414376,45.5952041 59.5112721,44.7487812 59.5112721,43.7330738 C59.5112721,42.7173664 60.2414376,41.8709435 61.1176362,41.8709435 L66.2774725,41.8709435 Z M55.6643286,32.5602922 C55.187599,32.5602922 54.7638393,32.4015316 54.4460195,32.03109 C53.75741,31.3431272 53.75741,30.2847227 54.4460195,29.5967599 L58.4187666,25.6277433 C59.1073761,24.9397805 60.1667753,24.9397805 60.8553848,25.6277433 C61.5439944,26.3157062 61.5439944,27.3741106 60.8553848,28.0620735 L56.8826377,32.03109 C56.564818,32.4015316 56.0880883,32.5602922 55.6643286,32.5602922 Z" id="Combined-Shape" fill="#FFFFFF" fill-rule="nonzero"></path>
                </g>
                <g id="Ground-Off" transform="translate(120.761773, 143.033194)">
                    <rect id="Rectangle-2" x="0" y="0" width="50.0196691" height="50.061618"></rect>
                    <path d="M25.7084385,24.0681689 C25.7117016,24.0321663 25.7133689,23.9957025 25.7133689,23.958849 L25.7133689,14.2107407 C25.7133689,13.550915 25.1789227,13.0160207 24.51965,13.0160207 C23.8603772,13.0160207 23.325931,13.550915 23.325931,14.2107407 L23.325931,23.958849 C23.325931,23.9957025 23.3275983,24.0321663 23.3308615,24.0681689 L13.1984395,24.0681689 C12.5391667,24.0681689 12.0047206,24.6030633 12.0047206,25.2628889 C12.0047206,25.9227146 12.5391667,26.4576089 13.1984395,26.4576089 L35.8520527,26.4576089 C36.5113255,26.4576089 37.0457716,25.9227146 37.0457716,25.2628889 C37.0457716,24.6030633 36.5113255,24.0681689 35.8520527,24.0681689 L25.7084385,24.0681689 Z M16.1758025,30.2887971 C15.5165297,30.2887971 14.9820836,29.7539027 14.9820836,29.0940771 C14.9820836,28.4342514 15.5165297,27.899357 16.1758025,27.899357 L32.8772067,27.899357 C33.5364795,27.899357 34.0709256,28.4342514 34.0709256,29.0940771 C34.0709256,29.7539027 33.5364795,30.2887971 32.8772067,30.2887971 L16.1758025,30.2887971 Z M19.2148968,34.1076468 C18.5556241,34.1076468 18.0211779,33.5727524 18.0211779,32.9129267 C18.0211779,32.2531011 18.5556241,31.7182067 19.2148968,31.7182067 L29.8237872,31.7182067 C30.4830599,31.7182067 31.0175061,32.2531011 31.0175061,32.9129267 C31.0175061,33.5727524 30.4830599,34.1076468 29.8237872,34.1076468 L19.2148968,34.1076468 Z M22.3562147,37.9310519 C21.6969419,37.9310519 21.1624958,37.3961575 21.1624958,36.7363319 C21.1624958,36.0765062 21.6969419,35.5416119 22.3562147,35.5416119 L26.6767132,35.5416119 C27.3359859,35.5416119 27.8704321,36.0765062 27.8704321,36.7363319 C27.8704321,37.3961575 27.3359859,37.9310519 26.6767132,37.9310519 L22.3562147,37.9310519 Z" id="Combined-Shape" fill="#FFFFFF" fill-rule="nonzero"></path>
                    <path d="M13.7700929,27.9923818 L36.4237061,27.9923818 C37.0829788,27.9923818 37.617425,27.4574874 37.617425,26.7976618 C37.617425,26.1378361 37.0829788,25.6029418 36.4237061,25.6029418 L13.7700929,25.6029418 C13.1108201,25.6029418 12.5763739,26.1378361 12.5763739,26.7976618 C12.5763739,27.4574874 13.1108201,27.9923818 13.7700929,27.9923818 Z" id="Shape-Copy-5" fill="#4D70B8" transform="translate(25.096899, 26.797662) rotate(-45.000000) translate(-25.096899, -26.797662) "></path>
                    <path d="M15.1992263,29.4227137 L37.8528395,29.4227137 C38.5121123,29.4227137 39.0465584,28.8878194 39.0465584,28.2279937 C39.0465584,27.5681681 38.5121123,27.0332737 37.8528395,27.0332737 L15.1992263,27.0332737 C14.5399535,27.0332737 14.0055073,27.5681681 14.0055073,28.2279937 C14.0055073,28.8878194 14.5399535,29.4227137 15.1992263,29.4227137 Z" id="Shape-Copy" fill="#FFFFFF" transform="translate(26.526033, 28.227994) rotate(-45.000000) translate(-26.526033, -28.227994) "></path>
                </g>
                <g id="Ground-On" transform="translate(120.761773, 35.758299)">
                    <rect id="Rectangle-2" x="0" y="0" width="50.0196691" height="50.061618"></rect>
                    <path d="M25.7084385,24.0681689 C25.7117016,24.0321663 25.7133689,23.9957025 25.7133689,23.958849 L25.7133689,14.2107407 C25.7133689,13.550915 25.1789227,13.0160207 24.51965,13.0160207 C23.8603772,13.0160207 23.325931,13.550915 23.325931,14.2107407 L23.325931,23.958849 C23.325931,23.9957025 23.3275983,24.0321663 23.3308615,24.0681689 L13.1984395,24.0681689 C12.5391667,24.0681689 12.0047206,24.6030633 12.0047206,25.2628889 C12.0047206,25.9227146 12.5391667,26.4576089 13.1984395,26.4576089 L35.8520527,26.4576089 C36.5113255,26.4576089 37.0457716,25.9227146 37.0457716,25.2628889 C37.0457716,24.6030633 36.5113255,24.0681689 35.8520527,24.0681689 L25.7084385,24.0681689 Z M16.1758025,30.2887971 C15.5165297,30.2887971 14.9820836,29.7539027 14.9820836,29.0940771 C14.9820836,28.4342514 15.5165297,27.899357 16.1758025,27.899357 L32.8772067,27.899357 C33.5364795,27.899357 34.0709256,28.4342514 34.0709256,29.0940771 C34.0709256,29.7539027 33.5364795,30.2887971 32.8772067,30.2887971 L16.1758025,30.2887971 Z M19.2148968,34.1076468 C18.5556241,34.1076468 18.0211779,33.5727524 18.0211779,32.9129267 C18.0211779,32.2531011 18.5556241,31.7182067 19.2148968,31.7182067 L29.8237872,31.7182067 C30.4830599,31.7182067 31.0175061,32.2531011 31.0175061,32.9129267 C31.0175061,33.5727524 30.4830599,34.1076468 29.8237872,34.1076468 L19.2148968,34.1076468 Z M22.3562147,37.9310519 C21.6969419,37.9310519 21.1624958,37.3961575 21.1624958,36.7363319 C21.1624958,36.0765062 21.6969419,35.5416119 22.3562147,35.5416119 L26.6767132,35.5416119 C27.3359859,35.5416119 27.8704321,36.0765062 27.8704321,36.7363319 C27.8704321,37.3961575 27.3359859,37.9310519 26.6767132,37.9310519 L22.3562147,37.9310519 Z" id="Combined-Shape" fill="#FFFFFF" fill-rule="nonzero"></path>
                </g>
                <g id="Lightning-Strike-Action" transform="translate(0.000000, 82.244087)" fill-rule="nonzero" fill="#FFFFFF">
                    <path d="M45.4690075,11.8904648 C42.2513524,12.8282429 39.6957029,14.7735512 38.4571366,17.2226246 C37.6404064,16.9203656 36.7721014,16.7576107 35.8637682,16.7576107 C31.413705,16.7576107 27.8119327,20.7024789 27.8119327,25.5696248 C27.8119327,28.677468 29.2745032,31.4055497 31.4914522,32.9796219 L9.36814893,32.9796219 C9.29117153,32.9796219 9.21419414,32.9633464 9.13721674,32.9633464 C4.07210418,32.8935943 0,28.5852402 0,23.2678058 C0,17.9898976 3.98742904,13.7117694 8.97556422,13.5490145 C10.3380641,6.12429197 16.3653941,0.536374478 23.578176,0.536374478 C29.5054354,0.536374478 34.6244321,4.31073761 37.0184291,9.77465138 C37.6257807,9.6583979 38.2500674,9.61189651 38.8889798,9.61189651 C41.3507169,9.61189651 43.6300175,10.4558968 45.4690075,11.8904648 Z" id="Shape"></path>
                    <path d="M66.4547032,27.5540191 C66.4547032,30.5439556 63.1117095,32.9796219 58.9793978,32.9796219 C58.8331418,32.9796219 58.6938504,32.9796219 58.554559,32.9562021 C58.4849133,32.9796219 58.3982431,32.9796219 58.3138944,32.9796219 L38.9678658,32.9796219 C38.8216098,32.9796219 38.6730323,32.9796219 38.5267764,32.9562021 C38.3805204,32.9640087 38.2242045,32.9796219 38.0624717,32.9796219 L36.6308656,32.9796219 C36.4985387,32.9796219 36.375498,32.963228 36.2516834,32.9483954 C32.3979545,32.6595504 29.3799741,29.4510284 29.3799741,25.5321038 C29.3799741,21.4336269 32.707491,18.1001989 36.808849,18.1001989 C37.2422001,18.1001989 37.6678127,18.139232 38.0779485,18.2094916 C38.6281496,18.3031711 39.1543615,18.4593036 39.6573583,18.6622758 C39.7718868,18.3968506 39.9127259,18.1314254 40.0597557,17.8738069 C41.4139777,15.4927869 43.8894955,13.6738438 46.892773,12.9166014 C47.8825158,12.6589829 48.9349397,12.5262703 50.0183173,12.5262703 C56.1548776,12.5262703 61.13145,16.8199128 61.13145,22.1284163 C61.13145,22.2064825 61.13145,22.2845487 61.1221639,22.362615 C61.409259,22.4250679 61.6948064,22.4953275 61.9671984,22.589007 C64.6044491,23.416509 66.4547032,25.3361576 66.4547032,27.5540191 Z" id="Shape"></path>
                    <polygon id="Shape" points="29.6909587 51.4934316 30.668617 49.5432035 23.0842653 49.5432035 27.8456383 38.6219258 38.3214279 38.6219258 33.7608172 46.1654083 40.9221067 46.1654083 23.0842653 64.3649374"></polygon>
                </g>
            </g>
            <rect id="Rectangle-7-Copy" stroke="#FFFFFF" stroke-width="5" x="1422.5" y="314.5" width="309" height="152.140909"></rect>
            <text id="EFFECTS" font-family="HelveticaNeue-Bold, Helvetica Neue" font-size="48" font-weight="bold" letter-spacing="1.33333337" fill="#FFFFFF">
                <tspan x="1458" y="409">EFFECTS</tspan>
            </text>
            <polygon id="Shape-Copy-3" fill="#FFFFFF" fill-rule="nonzero" transform="translate(1369.995152, 390.542264) scale(-1, 1) rotate(90.000000) translate(-1369.995152, -390.542264) " points="1369.99514 440.127322 1371.37673 438.923097 1386.35144 426.078027 1383.58825 422.844494 1372.1344 432.678966 1372.1344 340.957206 1367.8559 340.957206 1367.8559 432.678966 1356.40205 422.844494 1353.63886 426.078027 1368.61355 438.923097"></polygon>
            <g id="Effect" transform="translate(1452.000000, 505.000000)">
                <g id="Fire-Deparment" transform="translate(107.000000, 0.000000)">
                    <circle id="Oval-Copy-2" fill="#FFFFFF" cx="53.5" cy="53.5" r="53.5"></circle>
                    <path d="M85.0843373,47.2961128 L82.4318696,47.2961128 L82.4318696,41.9779835 L85.0843373,41.9779835 L85.0843373,39.3192771 L50.5993976,39.3192771 L50.5993976,41.9779835 L53.2525801,41.9779835 L53.2525801,47.2961128 L50.5993976,47.2961128 L50.5993976,49.9548193 L85.0843373,49.9548193 L85.0843373,47.2961128 Z M58.5575156,47.2961128 L55.9050478,47.2961128 L55.9050478,41.9779835 L58.5575156,41.9779835 L58.5575156,47.2961128 Z M63.8624511,47.2961128 L61.2099833,47.2961128 L61.2099833,41.9779835 L63.8624511,41.9779835 L63.8624511,47.2961128 Z M69.1681013,47.2961128 L66.5156336,47.2961128 L66.5156336,41.9779835 L69.1681013,41.9779835 L69.1681013,47.2961128 Z M74.4737516,47.2961128 L71.8205691,47.2961128 L71.8205691,41.9779835 L74.4737516,41.9779835 L74.4737516,47.2961128 Z M79.7794019,47.2961128 L77.1262193,47.2961128 L77.1262193,41.9779835 L79.7794019,41.9779835 L79.7794019,47.2961128 Z" id="Shape" fill="#4D70B8" fill-rule="nonzero" transform="translate(67.841867, 44.637048) scale(-1, 1) translate(-67.841867, -44.637048) "></path>
                    <path d="M72.998494,60.2680723 C69.3489462,60.2680723 66.3915663,63.2268764 66.3915663,66.875 C66.3915663,70.5245478 69.3489462,73.4819277 72.998494,73.4819277 C76.6480418,73.4819277 79.6054217,70.5245478 79.6054217,66.875 C79.6054217,63.2275885 76.6480418,60.2680723 72.998494,60.2680723 M72.998494,69.8487584 C71.3592239,69.8487584 70.0247356,68.5156943 70.0247356,66.8757121 C70.0247356,65.2371542 71.3592239,63.9026658 72.998494,63.9026658 C74.637764,63.9026658 75.9715402,65.2371542 75.9715402,66.8757121 C75.9715402,68.5156943 74.637764,69.8487584 72.998494,69.8487584" id="Shape" fill="#4D70B8" fill-rule="nonzero" transform="translate(72.998494, 66.875000) scale(-1, 1) translate(-72.998494, -66.875000) "></path>
                    <path d="M33.0346386,60.2680723 C29.3850908,60.2680723 26.4277108,63.2268764 26.4277108,66.875 C26.4277108,70.5245478 29.3850908,73.4819277 33.0346386,73.4819277 C36.6841864,73.4819277 39.6415663,70.5245478 39.6415663,66.875 C39.6415663,63.2275885 36.6841864,60.2680723 33.0346386,60.2680723 M33.0346386,69.8487584 C31.3953685,69.8487584 30.0615923,68.5156943 30.0615923,66.8757121 C30.0615923,65.2371542 31.3953685,63.9026658 33.0346386,63.9026658 C34.6739086,63.9026658 36.0083969,65.2371542 36.0083969,66.8757121 C36.0083969,68.5156943 34.6739086,69.8487584 33.0346386,69.8487584" id="Shape" fill="#4D70B8" fill-rule="nonzero" transform="translate(33.034639, 66.875000) scale(-1, 1) translate(-33.034639, -66.875000) "></path>
                    <path d="M82.7621043,39.145187 L77.4723473,39.145187 L77.4723473,33.8403614 L72.1825903,33.8403614 L72.1825903,39.145187 L62.9256937,39.145187 C60.7358213,39.145187 58.9592668,40.927757 58.9592668,43.1241635 L58.9592668,57.7135059 L58.9592668,63.0190462 L56.314032,63.0190462 L56.314032,57.7135059 L56.314032,52.4086803 L21.932393,52.4086803 L21.932393,57.7135059 L25.8995326,57.7135059 C22.0435613,57.7142206 21.2710843,68.3253012 21.2710843,68.3253012 L24.6830952,68.3253012 C24.6210975,67.8900225 24.5776278,67.4497405 24.5776278,66.9987374 C24.5776278,61.8725978 28.7222091,57.7142206 33.8338118,57.7142206 C38.9454145,57.7142206 43.0899958,61.871883 43.0899958,66.9987374 C43.0899958,67.4497405 43.048664,67.8900225 42.9866663,68.3253012 L64.3537785,68.3253012 C64.2917808,67.8900225 64.2483111,67.4497405 64.2483111,66.9987374 C64.2483111,61.8725978 68.3928924,57.7142206 73.5044951,57.7142206 C78.6160978,57.7142206 82.7613917,61.871883 82.7613917,66.9987374 C82.7613917,67.4497405 82.7193473,67.8900225 82.6573496,68.3253012 L85.4066265,68.3253012 L85.4066265,57.7142206 L82.7621043,39.145187 Z M66.893546,47.1038548 L61.603789,47.1038548 L61.603789,41.7983145 L66.893546,41.7983145 L66.893546,47.1038548 Z M69.5380681,52.4093951 L69.5380681,41.7983145 L72.1825903,41.7983145 L77.4723473,41.7983145 L80.1168695,41.7983145 L81.4387743,52.4093951 L69.5380681,52.4093951 L69.5380681,52.4093951 Z" id="Shape" fill="#4D70B8" fill-rule="nonzero" transform="translate(53.338855, 51.082831) scale(-1, 1) translate(-53.338855, -51.082831) "></path>
                </g>
                <g id="Call-box" fill="#FFFFFF">
                    <rect id="Rectangle" opacity="0" x="0" y="0" width="107" height="107"></rect>
                    <path d="M40.4065351,73.7873748 L32.7971941,66.1645637 C20.1970726,53.5421038 17.0350011,43.8405737 28.4490048,32.4063416 C30.2830178,30.6165578 32.6010477,28.9429317 34.9712926,31.3173773 L42.037107,40.5736503 C43.6058711,43.4947725 42.4904391,44.6361059 40.9500616,46.0185253 C35.3195413,51.0716519 37.1879979,56.523642 40.9500539,60.1751988 L46.3852963,65.6200738 C50.0303932,69.3888049 55.472738,71.2605651 60.5169251,65.6200738 C61.8968988,64.0769587 63.0362207,62.9595422 65.9521675,64.5310942 L75.1920727,71.6094387 C77.5623099,73.9838766 75.8916293,76.3060146 74.105035,78.1432779 C62.6910313,89.5775101 53.0066489,86.4098347 40.4065351,73.7873748 Z M49.4549052,23.7255788 C49.4396418,22.9349974 50.1493055,22.1057429 51.0616584,22.1133858 C70.3933093,22.1133858 86.0973238,37.8719726 86.0973238,57.2707191 C86.1087485,58.0782678 85.3789392,58.8210811 84.5740317,58.8210811 C83.7692003,58.8210811 83.0393148,58.0782678 83.0507395,57.2707191 C83.0507395,39.524138 68.7468133,25.1705452 51.0616584,25.1705452 C50.264017,25.2144154 49.4985475,24.5260196 49.4549052,23.7255788 Z M49.4549052,32.8970571 C49.4396189,32.1599759 50.1103397,31.2925069 51.0616584,31.284864 C65.3455534,31.284864 76.9575711,42.9372272 76.9575711,57.2707191 C76.9689958,58.0782678 76.2391865,58.8210811 75.434279,58.8210811 C74.6294476,58.8210811 73.8995622,58.0782678 73.9109868,57.2707191 C73.9109868,44.5893925 63.6990574,34.3420235 51.0616584,34.3420235 C50.264017,34.3858937 49.4985475,33.6974978 49.4549052,32.8970571 Z" id="Combined-Shape" fill-rule="nonzero"></path>
                </g>
            </g>
            <polygon id="Shape" fill="#FFFFFF" fill-rule="nonzero" transform="translate(548.547894, 390.542264) scale(-1, 1) rotate(90.000000) translate(-548.547894, -390.542264) " points="548.547884 440.127322 549.929476 438.923097 564.904181 426.078027 562.140996 422.844494 550.687145 432.678966 550.687145 340.957206 546.408643 340.957206 546.408643 432.678966 534.954793 422.844494 532.191607 426.078027 547.166291 438.923097"></polygon>
        </g>
    </g>
</svg>