<?xml version="1.0" encoding="UTF-8"?>
<svg width="1920px" height="1080px" viewBox="0 0 1920 1080" version="1.1" xmlns="http://www.w3.org/2000/svg" xmlns:xlink="http://www.w3.org/1999/xlink">
    <!-- Generator: Sketch 46.2 (44496) - http://www.bohemiancoding.com/sketch -->
    <title>blueprintIntroducingFireTruckComing</title>
    <desc>Created with Sketch.</desc>
    <defs></defs>
    <g id="Actual-Slides" stroke="none" stroke-width="1" fill="none" fill-rule="evenodd">
        <g id="blueprintIntroducingFireTruckComing">
            <rect id="Rectangle-8" fill="#26437D" x="759" y="-155" width="1248" height="1375"></rect>
            <g id="Fire-Department-Coming" transform="translate(1125.000000, 333.000000)">
                <rect id="Rectangle-2" fill="#FFFFFF" x="0" y="0" width="400" height="400"></rect>
                <path d="M334.176067,151.690474 L316.525822,151.690474 L316.525822,134 L298.875578,134 L298.875578,151.690474 L267.988244,151.690474 C260.681333,151.690474 254.753533,157.634969 254.753533,164.959522 L254.753533,213.611901 L254.753533,231.304759 L245.927222,231.304759 L245.927222,213.611901 L245.927222,195.921427 L131.206578,195.921427 L131.206578,213.611901 L144.443667,213.611901 C131.577511,213.614285 129,249 129,249 L140.3848,249 C140.177933,247.548437 140.032889,246.08019 140.032889,244.57619 C140.032889,227.481595 153.862044,213.614285 170.917844,213.614285 C187.973644,213.614285 201.8028,227.479212 201.8028,244.57619 C201.8028,246.08019 201.664889,247.548437 201.458022,249 L272.753311,249 C272.546444,247.548437 272.4014,246.08019 272.4014,244.57619 C272.4014,227.481595 286.230556,213.614285 303.286356,213.614285 C320.342156,213.614285 334.173689,227.479212 334.173689,244.57619 C334.173689,246.08019 334.0334,247.548437 333.826533,249 L343,249 L343,213.614285 L334.176067,151.690474 Z M170,222 C157.847596,222 148,231.852339 148,244 C148,256.152404 157.847596,266 170,266 C182.152404,266 192,256.152404 192,244 C192,231.85471 182.152404,222 170,222 M170,253.902134 C164.541496,253.902134 160.097866,249.463246 160.097866,244.002371 C160.097866,238.546238 164.541496,234.102608 170,234.102608 C175.458504,234.102608 179.899763,238.546238 179.899763,244.002371 C179.899763,249.463246 175.458504,253.902134 170,253.902134 M304,222 C291.847596,222 282,231.852339 282,244 C282,256.152404 291.847596,266 304,266 C316.152404,266 326,256.152404 326,244 C326,231.85471 316.152404,222 304,222 M304,253.902134 C298.541496,253.902134 294.100237,249.463246 294.100237,244.002371 C294.100237,238.546238 298.541496,234.102608 304,234.102608 C309.458504,234.102608 313.902134,238.546238 313.902134,244.002371 C313.902134,249.463246 309.458504,253.902134 304,253.902134 M245,178.250589 L236.15458,178.250589 L236.15458,160.749411 L245,160.749411 L245,152 L130,152 L130,160.749411 L138.847804,160.749411 L138.847804,178.250589 L130,178.250589 L130,187 L245,187 L245,178.250589 Z M156.538645,178.250589 L147.693224,178.250589 L147.693224,160.749411 L156.538645,160.749411 L156.538645,178.250589 Z M174.229486,178.250589 L165.384065,178.250589 L165.384065,160.749411 L174.229486,160.749411 L174.229486,178.250589 Z M191.92271,178.250589 L183.07729,178.250589 L183.07729,160.749411 L191.92271,160.749411 L191.92271,178.250589 Z M209.615935,178.250589 L200.768131,178.250589 L200.768131,160.749411 L209.615935,160.749411 L209.615935,178.250589 Z M227.309159,178.250589 L218.461355,178.250589 L218.461355,160.749411 L227.309159,160.749411 L227.309159,178.250589 Z M281.227711,178.230953 L263.577467,178.230953 L263.577467,160.538095 L281.227711,160.538095 L281.227711,178.230953 Z M290.051644,195.92381 L290.051644,160.538095 L298.875578,160.538095 L316.525822,160.538095 L325.349756,160.538095 L329.760533,195.92381 L290.051644,195.92381 L290.051644,195.92381 Z M108.241713,152.250589 L108.241713,161 L57,161 L57,152.250589 L108.241713,152.250589 Z M108.241713,172.250589 L108.241713,181 L68.5328241,181 L68.5328241,172.250589 L108.241713,172.250589 Z M108.241713,192.250589 L108.241713,201 L82.6208565,201 L82.6208565,192.250589 L108.241713,192.250589 Z" id="Shape" fill="#26437D" fill-rule="nonzero" transform="translate(200.000000, 200.000000) scale(-1, 1) translate(-200.000000, -200.000000) "></path>
            </g>
            <g id="Events-Block" transform="translate(163.000000, 220.000000)">
                <rect id="Rectangle-7" stroke="#FFFFFF" stroke-width="5" x="2.5" y="2.5" width="435" height="215"></rect>
                <text id="EVENTS" font-family="HelveticaNeue-Bold, Helvetica Neue" font-size="72" font-weight="bold" letter-spacing="2" fill="#FFFFFF">
                    <tspan x="73" y="137">EVENTS</tspan>
                </text>
            </g>
            <g id="Lightning-Strike-Action" transform="translate(163.000000, 490.000000)">
                <rect id="Rectangle" fill="#6F6F6F" opacity="0" x="0" y="0" width="150" height="150"></rect>
                <path d="M92.6315789,45.8761613 C88.1286332,47.1874347 84.5521308,49.9075142 82.8188199,53.3319968 C81.6758473,52.909355 80.4606983,52.6817786 79.1895318,52.6817786 C72.9618932,52.6817786 67.9213948,58.1977964 67.9213948,65.0034137 C67.9213948,69.3490387 69.9681883,73.1636522 73.0706964,75.3646409 L42.1102512,75.3646409 C42.0025252,75.3646409 41.8947992,75.3418832 41.7870732,75.3418832 C34.6987041,75.2443505 29,69.2200788 29,61.7848335 C29,54.4048569 34.5802055,48.4228493 41.5608487,48.1952729 C43.4675985,37.8134555 51.9025423,30 61.9964662,30 C70.2913662,30 77.4551436,35.2776045 80.8054214,42.9176685 C81.6553793,42.7551139 82.529037,42.6900921 83.4231626,42.6900921 C86.8682393,42.6900921 90.0580054,43.8702381 92.6315789,45.8761613 Z M122,67.7781462 C122,71.9589051 117.321649,75.3646409 111.538688,75.3646409 C111.33401,75.3646409 111.139079,75.3646409 110.944147,75.3318934 C110.846682,75.3646409 110.725391,75.3646409 110.607349,75.3646409 L83.5335596,75.3646409 C83.3288818,75.3646409 83.1209551,75.3646409 82.9162772,75.3318934 C82.7115994,75.3428092 82.4928432,75.3646409 82.2665063,75.3646409 L80.2630458,75.3646409 C80.0778611,75.3646409 79.9056718,75.3417177 79.7323996,75.3209776 C74.3393007,74.9170923 70.1157895,70.4306904 70.1157895,64.9509489 C70.1157895,59.2201436 74.7724813,54.5590886 80.5121247,54.5590886 C81.1185776,54.5590886 81.714201,54.6136677 82.2881653,54.7119101 C83.0581439,54.8428999 83.794551,55.0612163 84.4984695,55.3450276 C84.6587463,54.9738898 84.8558435,54.6027519 85.0616043,54.2425298 C86.9567696,50.9132048 90.4211317,48.3698189 94.6240668,47.3109844 C96.0091619,46.9507623 97.4819761,46.7651934 98.9981083,46.7651934 C107.585914,46.7651934 114.550376,52.7688942 114.550376,60.1916516 C114.550376,60.3008098 114.550376,60.4099679 114.537381,60.5191261 C114.939156,60.6064527 115.338765,60.7046951 115.719964,60.8356849 C119.410663,61.9927618 122,64.6769619 122,67.7781462 Z M70.5509968,101.252072 L71.9191802,98.525113 L61.3052632,98.525113 L67.968564,83.2541436 L82.6289024,83.2541436 L76.2465582,93.8020203 L86.2684211,93.8020203 L61.3052632,119.25 L70.5509968,101.252072 Z" id="Combined-Shape" fill="#FFFFFF" fill-rule="nonzero"></path>
            </g>
            <g id="Cellphone-Explosion-Action" transform="translate(313.000000, 490.000000)">
                <rect id="Rectangle" fill="#6F6F6F" opacity="0" x="0" y="0" width="150" height="150"></rect>
                <g id="Group" transform="translate(52.500000, 28.500000)" fill="#FFFFFF">
                    <g id="noun_1131411" transform="translate(0.000000, 6.750000)" fill-rule="nonzero">
                        <path d="M36.9782609,0 L10.2717391,0 C4.59881425,0 0,4.61706352 0,10.3125 L0,72.1875 C0,77.8829365 4.59881425,82.5 10.2717391,82.5 L36.9782609,82.5 C42.6511857,82.5 47.25,77.8829365 47.25,72.1875 L47.25,10.3125 C47.25,4.61706352 42.6511857,0 36.9782609,0 Z M28.7608696,75.28125 L18.4891304,75.28125 C17.3545455,75.28125 16.4347826,74.3578373 16.4347826,73.21875 C16.4347826,72.0796627 17.3545455,71.15625 18.4891304,71.15625 L28.7608696,71.15625 C29.8954545,71.15625 30.8152174,72.0796627 30.8152174,73.21875 C30.8152174,74.3578373 29.8954545,75.28125 28.7608696,75.28125 Z M43.1413043,64.96875 L4.10869565,64.96875 L4.10869565,13.40625 L43.1413043,13.40625 L43.1413043,64.96875 Z" id="Shape"></path>
                    </g>
                    <polygon id="Rectangle-2" points="27.554675 13.5 44.25 18.6798943 42.195325 25.5 25.5 20.3201057"></polygon>
                    <g id="noun_563989" transform="translate(19.500000, 0.000000)" fill-rule="nonzero">
                        <path d="M34.5,0.49122807 L19.6432432,6.20175439 L12.5567568,0 L11.127027,6.07894737 L0.559459459,3.92982456 L7.45945946,14.6754386 L0,17.377193 L7.08648649,20.754386 L6.34054054,31.5 L15.7891892,23.2719298 L23.2486486,29.9035088 L25.9837838,20.0789474 L32.5108108,20.8157895 L28.6567568,11.0526316 L34.5,0.49122807 Z M18.6486486,16.5789474 L20.7,24.1315789 L15.8513514,17.622807 L11.9972973,21.8596491 L13.9243243,16.5175439 L6.65135135,16.7631579 L13.3648649,14.3070175 L9.38648649,10.254386 L14.6702703,12.6491228 L17.2189189,7.36842105 L17.5297297,13.5087719 L23.1243243,9.94736842 L19.6432432,14.7982456 L25.1756757,15.7807018 L18.6486486,16.5789474 Z" id="Shape"></path>
                        <polygon id="Shape" points="28.8032407 23.9210526 29.2291667 23.3571429 27.7916667 22.7368421"></polygon>
                        <polygon id="Shape" points="2.63541667 21.7755418 2.84837963 22.5 4.07291667 21.5526316"></polygon>
                        <polygon id="Shape" points="13.65625 30.3588517 14.375 30.5526316 14.2644231 28.4210526"></polygon>
                        <polygon id="Shape" points="9.10416667 1.48374613 8.38541667 1.42105263 9.58333333 3.55263158"></polygon>
                        <polygon id="Shape" points="16.0520833 28.4210526 17.0104167 27.9637024 16.2317708 26.5263158"></polygon>
                        <polygon id="Shape" points="19.9775641 4.97368421 20.3645833 3.41729323 19.6458333 3.07894737"></polygon>
                        <path d="M24.6770833,2.13157895 C24.6770833,2.13157895 25.577847,1.22727273 25.6308331,1.22727273 C25.6838192,1.22727273 25.2599304,0.710526316 25.2599304,0.710526316 L24.6770833,2.13157895 Z" id="Shape"></path>
                        <polygon id="Shape" points="31.3854167 9.71052632 33.406901 8.76315789 33.5416667 9.47368421"></polygon>
                        <polygon id="Shape" points="1.078125 9.47368421 0.71875 9.97105263 1.67708333 10.1842105"></polygon>
                        <polygon id="Shape" points="4.79166667 13.7368421 3.71984649 13.0263158 3.59375 13.6421053"></polygon>
                    </g>
                </g>
            </g>
            <g id="Meteor-Action" transform="translate(163.000000, 640.000000)">
                <rect id="Rectangle" fill="#6F6F6F" opacity="0" x="0" y="0" width="150" height="150"></rect>
                <path d="M117.492085,34.6780385 L117.473137,34.6685199 C117.334178,34.5416061 117.175219,34.4876677 116.993099,34.5067048 C116.979414,34.4993015 116.966782,34.4982439 116.957307,34.5024744 C114.298154,34.6124663 112.27484,34.7224583 110.88947,34.8324503 C110.823149,34.844084 110.823149,35.0450309 110.758934,35.0566647 C108.222948,35.2153069 106.120681,35.8424727 104.296329,36.4971364 L104.264748,36.5087702 C100.382343,37.9027069 97.5937065,39.2088616 96.0662202,40.8947001 C96.0493767,40.9137371 96.0662202,41.0036344 96.0588512,41.018441 C94.4576749,42.7190861 93.4375961,44.6175053 93.3881186,47.8009267 L93.3723279,47.8062148 C93.1365202,50.0007662 92.5743715,51.9150495 91.6458788,53.4454186 C91.6174555,53.490896 91.5848214,53.5332006 91.5542928,53.5797357 C90.6573814,54.8404129 89.3151725,55.5934349 87.315018,55.2560556 L87.2992273,55.2613437 C85.0285256,55.0212651 82.9799464,54.9081003 81.1419097,54.8985817 C81.0324276,54.914446 80.8534664,54.7409971 80.7376679,54.7473428 C78.7111957,54.6997501 77.1215992,54.6955196 76.0857297,55.0667425 C76.0636228,55.0741458 76.0488848,55.0794339 76.0383577,55.0836644 C73.9666187,55.8271678 72.3096487,57.2591787 70.9642816,59.0920256 L70.8569049,59.228458 C69.9715734,60.4161598 69.2620449,62.1813194 68.0282654,64.6212374 L68.0230018,64.6053732 C67.7724562,66.8528053 66.4397217,68.6994013 66.0207419,69.4259829 C65.9996877,69.4333862 66.0523233,69.4206948 66.0565342,69.4302133 C65.1743608,70.8262653 64.1679673,71.7569666 62.9741909,72.2445271 C62.7299615,72.3450006 62.4888902,72.3724986 62.2204484,72.3397125 C61.9614811,72.302696 61.7404114,72.2001073 61.5435541,72.0372346 C61.4867076,72.0097366 61.4456518,71.9843538 61.4140704,71.9589711 C60.9087682,71.5898634 60.5740055,71.1520107 60.4066242,70.6485859 C60.3360924,70.4497543 60.3150381,70.2414041 60.341356,70.0203626 C60.3550412,69.6988476 60.4666288,69.3191638 60.6719078,68.8802535 C60.7329651,68.7522821 60.8045496,68.6380596 60.8971884,68.535471 C61.1793154,68.0468528 61.6456672,67.3445963 62.3625647,66.4064917 L62.3573011,66.3906275 C63.0215629,65.3076296 63.8363627,64.3177019 64.1384913,63.6566925 C64.1490184,63.6165031 64.1500711,63.5953508 64.1679673,63.5752561 C64.6995873,62.4108219 64.7722245,61.3701286 64.4385145,60.4330816 C64.4311455,60.4119293 64.4237765,60.390777 64.4164075,60.3696247 L64.1774417,59.6980391 C64.1216479,59.5425697 64.0153239,59.4167135 63.8637332,59.3183553 L63.8911038,59.3257586 C63.7553038,59.2358613 63.6173984,59.20096 63.4742295,59.2295156 C63.4510698,59.2263428 63.4300155,59.228458 63.4089613,59.2348037 C63.2321055,59.2633593 63.0741986,59.3426804 62.9341878,59.4759399 C62.8468126,59.5891047 62.7952297,59.7255371 62.7815444,59.8831217 C62.7783863,59.9074469 62.7762808,59.9328297 62.7731227,59.9560972 C62.6489026,60.9523706 62.1899198,61.8153846 61.3982797,62.5440814 C61.3298533,62.6159992 61.2930084,62.7894481 61.2108968,62.8550202 C60.4855776,63.4070953 59.4181268,64.2151132 57.8327412,64.7830525 C57.8127396,64.7904559 57.7969489,64.7968015 57.7864218,64.801032 C57.7758947,64.8042048 57.7653675,64.8073777 57.7548404,64.8105505 C55.475717,65.6291446 54.13035,66.2118906 53.6797889,66.4561996 C53.6103098,66.4911009 53.5313563,66.4667758 53.4797734,66.4836976 C51.9007041,67.3340202 50.8564129,68.5523928 50.3658487,70.1959267 C50.3405836,70.2868816 50.2995278,70.3693756 50.2532085,70.4687914 C49.8173853,71.7400447 48.9962693,73.451266 47.7930185,75.6214922 C45.5749524,77.4617425 43.3063562,79.2279597 40.9903878,80.9286048 C35.0194004,85.2912671 32.3939345,90.9505656 33.1171482,97.909673 C34.2446037,108.828491 40.2450671,114.666527 51.1206439,115.421664 C61.5498703,116.137669 68.4809319,111.945283 71.915934,102.847678 C73.6729118,98.1687887 75.3719904,93.7331509 76.9078985,89.2499205 C78.354326,87.9321321 80.3997471,87.2806412 82.7420333,86.4398371 L82.757824,86.4334914 C85.7117363,85.3737611 87.9519093,84.5350723 89.3109616,83.4245765 C89.3151725,83.4097699 89.2993818,83.3262183 89.3088562,83.3230454 C93.3375884,80.0359777 95.2830018,76.501428 94.9713988,72.8695777 C94.9577135,72.8272731 95.0608794,72.7045897 95.0450887,72.6622851 C95.0377197,72.6400752 95.029298,72.61575 95.0187708,72.582964 L94.8913926,72.2244325 C94.8303352,72.0573293 94.6282144,71.9663744 94.4808346,71.8785923 C94.4618857,71.8627281 94.3976702,71.8733042 94.3860904,71.8775347 C94.2429215,71.7992712 94.072382,71.7908103 93.9250022,71.8320573 C93.8986843,71.8288844 93.8639448,71.8352301 93.8418378,71.8426334 C93.6723511,71.8828228 93.533393,71.9621439 93.4460178,72.0742511 L93.5165496,71.9420492 C93.3586426,72.1757822 92.7501746,72.9626478 91.7079888,74.2994733 C91.6858819,74.3079342 91.6774602,74.3174528 91.681671,74.3269713 C91.1332076,74.9805774 90.6689612,75.4216029 90.2952482,75.652163 C90.1404994,75.7420603 89.9741707,75.8012868 89.8015258,75.8404185 C88.5045836,76.6558398 87.2392227,77.4384749 85.9138572,77.9133441 L85.8833285,77.9249779 C84.5769118,78.394559 83.4989338,78.3480239 82.5630721,77.5579855 C81.8251204,77.0238898 81.2356011,76.0085793 80.792409,74.5004202 C80.7292462,74.2888971 80.7176664,74.0763165 80.7587222,73.8626783 C81.422984,69.2927234 84.6295475,66.3356315 90.3763071,64.9882299 C95.0429832,63.8523513 97.7800367,62.9946254 98.5874675,62.4097642 C98.7148458,62.306118 98.8559093,62.2267968 99.0106581,62.1707432 C101.43295,60.5377855 102.784634,59.0666429 103.066761,57.7573154 C103.072024,57.7097227 103.080446,57.6653029 103.088868,57.6261711 C103.360468,56.2851151 103.155189,53.7404932 102.477242,49.9944205 C102.473031,49.9838443 102.481452,49.9944205 102.488821,49.9796139 C101.896144,46.6364925 103.203613,43.2172229 106.815471,40.8640292 L106.799681,40.8703749 C110.570498,38.4611277 113.801274,36.3310909 117.04363,36.0222673 C117.242592,35.9979421 117.420501,35.8985263 117.57525,35.7494026 C117.686837,35.5685504 117.742631,35.3665459 117.75,35.1539653 C117.707891,34.9709978 117.620516,34.8081251 117.492085,34.6780385 Z M70.2863345,76.8715932 C68.3661862,80.3310523 67.2692594,82.8830775 66.3291868,84.7688053 C65.0090849,87.4614933 63.9626883,89.9500617 63.2605288,91.9838555 C63.0668296,92.5253545 62.6457444,92.6015028 62.6678514,93.6485417 L63.0868311,93.4962451 C63.2942156,93.4232697 63.5152853,93.007627 63.919527,92.7337047 C64.2069176,92.5242969 64.4743067,92.0441396 64.8890756,91.7649292 C65.4280646,91.4053401 66.379717,91.2593892 67.237678,89.8950657 L70.3231795,88.7877427 L70.768477,90.039959 C70.4621376,92.1329793 69.7873486,94.1942711 69.1599317,96.0747108 C69.0062356,96.5284277 68.7272667,97.0107002 68.5619908,97.431631 C67.6977135,99.4326388 66.5460457,101.310963 65.2512088,103.090929 C63.1352559,105.977161 60.652959,108.087103 57.8253722,109.102414 C57.5864064,109.188081 57.3642839,109.267402 57.1568995,109.342492 C56.5147446,109.57411 55.8589045,109.780345 55.1651667,109.899855 C51.2827616,110.707873 47.8361797,110.642301 44.8159464,109.673526 C41.8241364,108.681483 39.6692332,106.335693 38.3470258,102.621348 C36.8995456,98.5516454 36.9174417,94.5602059 38.3954506,90.6385691 C38.4912475,90.251482 38.6302056,89.8686253 38.8102195,89.4868263 C39.6671278,87.5947528 40.7398422,85.9628527 42.0252046,84.5847802 C42.8579005,83.9354046 43.6411189,83.2183415 44.3801233,82.436764 C44.6527759,82.1871668 44.9527991,81.9629524 45.2791401,81.7641207 C45.231768,81.628746 45.6854873,81.2649264 46.643456,80.6747772 C47.2266589,80.3120152 48.003561,79.8805082 48.9688987,79.3813139 C49.3573498,79.1602723 49.74159,78.9572102 50.1205666,78.7753004 C51.9722886,77.710282 53.3187083,77.0281203 54.1577205,76.7256424 C57.3684948,75.5728419 59.5991934,74.9319271 60.8487636,74.7986676 C60.7834954,75.633126 60.2887203,76.7859264 59.4107578,78.3913862 C58.3864681,80.1438544 57.8611644,81.6541288 57.4369211,81.8064253 L63.0931474,79.7758043 C63.652138,79.5759151 64.861705,78.8271236 66.5334131,77.9112289 C68.2040684,76.9604329 69.0904527,76.4622962 69.9726261,75.9937727 L70.2863345,76.8715932 Z M46.2162896,87.9924702 C44.6514991,88.9743783 43.3170746,90.2796109 42.2140778,91.9103379 C39.927403,95.2748652 39.9284646,98.6155229 42.2183242,101.931226 C45.7396336,107.050168 50.5550269,107.867159 56.664504,104.384369 C59.6698784,102.672268 61.0181036,100.157281 60.7059948,96.8415783 C59.8864437,88.1964467 55.0572497,85.2474673 46.2162896,87.9924702 Z M57.9734502,98.2195046 C57.9883125,98.5992481 57.9554031,98.9779066 57.8768451,99.3565651 C57.0434933,100.142092 56.0721342,100.376448 54.959583,100.060718 C53.3703759,99.5920061 52.8236546,98.5352342 53.3194193,96.8860625 C53.4510571,96.453155 53.6654992,96.156955 53.9638073,96.0007177 C54.8831482,95.3280293 55.7770109,95.2575055 56.6485801,95.7967412 C57.4893631,96.3175323 57.932048,97.1258434 57.9734502,98.2195046 Z" id="Combined-Shape" fill="#FFFFFF" fill-rule="nonzero"></path>
            </g>
            <g id="Add-Ground-On-Action" transform="translate(313.000000, 640.000000)" fill="#FFFFFF">
                <rect id="Rectangle-2" opacity="0" x="0" y="0" width="150" height="150"></rect>
                <path d="M77.0949876,72.1156343 C77.1047732,72.0077595 77.109773,71.8985028 77.109773,71.7880784 L77.109773,42.5797485 C77.109773,40.602708 75.507065,39 73.5300245,39 C71.552984,39 69.950276,40.602708 69.950276,42.5797485 L69.950276,71.7880784 C69.950276,71.8985028 69.9552758,72.0077595 69.9650614,72.1156343 L39.5797485,72.1156343 C37.602708,72.1156343 36,73.7183423 36,75.6953829 C36,77.6724234 37.602708,79.2751314 39.5797485,79.2751314 L107.513864,79.2751314 C109.490905,79.2751314 111.093613,77.6724234 111.093613,75.6953829 C111.093613,73.7183423 109.490905,72.1156343 107.513864,72.1156343 L77.0949876,72.1156343 Z M48.5083251,90.7545491 C46.5312846,90.7545491 44.9285766,89.151841 44.9285766,87.1748005 C44.9285766,85.19776 46.5312846,83.595052 48.5083251,83.595052 L98.5928355,83.595052 C100.569876,83.595052 102.172584,85.19776 102.172584,87.1748005 C102.172584,89.151841 100.569876,90.7545491 98.5928355,90.7545491 L48.5083251,90.7545491 Z M57.622023,102.196997 C55.6449825,102.196997 54.0422744,100.594289 54.0422744,98.6172483 C54.0422744,96.6402078 55.6449825,95.0374998 57.622023,95.0374998 L89.4361789,95.0374998 C91.4132194,95.0374998 93.0159274,96.6402078 93.0159274,98.6172483 C93.0159274,100.594289 91.4132194,102.196997 89.4361789,102.196997 L57.622023,102.196997 Z M67.0422708,113.653094 C65.0652303,113.653094 63.4625223,112.050386 63.4625223,110.073346 C63.4625223,108.096305 65.0652303,106.493597 67.0422708,106.493597 L79.9986695,106.493597 C81.97571,106.493597 83.578418,108.096305 83.578418,110.073346 C83.578418,112.050386 81.97571,113.653094 79.9986695,113.653094 L67.0422708,113.653094 Z" id="Combined-Shape" fill-rule="nonzero"></path>
                <g id="PLUS" transform="translate(12.750000, 13.125000)">
                    <path d="M16.875,33.75 C7.55519485,33.75 0,26.1948052 0,16.875 C0,7.55519485 7.55519485,0 16.875,0 C26.1948052,0 33.75,7.55519485 33.75,16.875 C33.75,26.1948052 26.1948052,33.75 16.875,33.75 Z M19.2475248,14.8774752 L19.2475248,6.75 L14.8774752,6.75 L14.8774752,14.8774752 L6.75,14.8774752 L6.75,19.2475248 L14.8774752,19.2475248 L14.8774752,27.375 L19.2475248,27.375 L19.2475248,19.2475248 L27.375,19.2475248 L27.375,14.8774752 L19.2475248,14.8774752 Z" id="Combined-Shape"></path>
                </g>
            </g>
        </g>
    </g>
</svg>