<?xml version="1.0" encoding="UTF-8"?>
<svg width="1920px" height="1080px" viewBox="0 0 1920 1080" version="1.1" xmlns="http://www.w3.org/2000/svg" xmlns:xlink="http://www.w3.org/1999/xlink">
    <!-- Generator: Sketch 46.2 (44496) - http://www.bohemiancoding.com/sketch -->
    <title>callFireDepartmentOnPhoneExplosion</title>
    <desc>Created with Sketch.</desc>
    <defs>
        <rect id="path-1" x="0" y="0" width="702" height="538"></rect>
    </defs>
    <g id="Actual-Slides" stroke="none" stroke-width="1" fill="none" fill-rule="evenodd">
        <g id="callFireDepartmentOnPhoneExplosion">
            <g id="Action" transform="translate(343.000000, 445.000000)">
                <rect id="Rectangle" fill="#FFFFFF" x="0" y="0" width="306" height="284"></rect>
                <g id="noun_1131411" transform="translate(107.000000, 58.000000)" fill-rule="nonzero" fill="#2E2E2E">
                    <path d="M75.9130435,0 L21.0869565,0 C9.44095201,0 0,9.40202025 0,21 L0,147 C0,158.59798 9.44095201,168 21.0869565,168 L75.9130435,168 C87.559048,168 97,158.59798 97,147 L97,21 C97,9.40202025 87.559048,0 75.9130435,0 Z M59.0434783,153.3 L37.9565217,153.3 C35.6273208,153.3 33.7391304,151.419596 33.7391304,149.1 C33.7391304,146.780404 35.6273208,144.9 37.9565217,144.9 L59.0434783,144.9 C61.3726792,144.9 63.2608696,146.780404 63.2608696,149.1 C63.2608696,151.419596 61.3726792,153.3 59.0434783,153.3 Z M88.5652174,132.3 L8.43478261,132.3 L8.43478261,27.3 L88.5652174,27.3 L88.5652174,132.3 Z" id="Shape"></path>
                </g>
                <polygon id="Rectangle-2" fill="#2E2E2E" points="164.240742 72 198.699019 82.5349526 194.458277 96.4057938 160 85.8708412"></polygon>
                <g id="noun_563989" transform="translate(146.000000, 44.000000)" fill-rule="nonzero" fill="#A2A2A2">
                    <path d="M69,0.998050682 L39.2864865,12.6003899 L25.1135135,0 L22.2540541,12.3508772 L1.11891892,7.98440546 L14.9189189,29.8167641 L0,35.3060429 L14.172973,42.1676413 L12.6810811,64 L31.5783784,47.2826511 L46.4972973,60.7563353 L51.9675676,40.7953216 L65.0216216,42.2923977 L57.3135135,22.4561404 L69,0.998050682 Z M37.2972973,33.6842105 L41.4,49.0292398 L31.7027027,35.8050682 L23.9945946,44.4132554 L27.8486486,33.5594542 L13.3027027,34.0584795 L26.7297297,29.0682261 L18.772973,20.834308 L29.3405405,25.6998051 L34.4378378,14.9707602 L35.0594595,27.4463938 L46.2486486,20.2105263 L39.2864865,30.0662768 L50.3513514,32.0623782 L37.2972973,33.6842105 Z" id="Shape"></path>
                    <polygon id="Shape" points="57.6064815 48.6015038 58.4583333 47.4557823 55.5833333 46.1954887"></polygon>
                    <polygon id="Shape" points="5.27083333 44.2423706 5.69675926 45.7142857 8.14583333 43.7894737"></polygon>
                    <polygon id="Shape" points="27.3125 61.6814764 28.75 62.075188 28.5288462 57.7443609"></polygon>
                    <polygon id="Shape" points="18.2083333 3.01459531 16.7708333 2.88721805 19.1666667 7.21804511"></polygon>
                    <polygon id="Shape" points="32.1041667 57.7443609 34.0208333 56.8151413 32.4635417 53.8947368"></polygon>
                    <polygon id="Shape" points="39.9551282 10.1052632 40.7291667 6.94307197 39.2916667 6.2556391"></polygon>
                    <path d="M49.3541667,4.33082707 C49.3541667,4.33082707 51.155694,2.49350649 51.2616662,2.49350649 C51.3676384,2.49350649 50.5198608,1.44360902 50.5198608,1.44360902 L49.3541667,4.33082707 Z" id="Shape"></path>
                    <polygon id="Shape" points="62.7708333 19.7293233 66.8138021 17.8045113 67.0833333 19.2481203"></polygon>
                    <polygon id="Shape" points="2.15625 19.2481203 1.4375 20.2586466 3.35416667 20.6917293"></polygon>
                    <polygon id="Shape" points="9.58333333 27.9097744 7.43969298 26.4661654 7.1875 27.7172932"></polygon>
                </g>
            </g>
            <g id="Effect" transform="translate(914.000000, 268.000000)">
                <g id="Lines">
                    <mask id="mask-2" fill="white">
                        <use xlink:href="#path-1"></use>
                    </mask>
                    <use id="Mask" fill="#2E2E2E" xlink:href="#path-1"></use>
                    <g id="Group-2" mask="url(#mask-2)" fill="#FFDE10">
                        <g transform="translate(-516.000000, -83.000000)">
                            <rect id="Rectangle-3" transform="translate(846.534361, 426.534361) rotate(-45.000000) translate(-846.534361, -426.534361) " x="365.534361" y="375.034361" width="962" height="103"></rect>
                            <rect id="Rectangle-3-Copy" transform="translate(636.534361, 376.534361) rotate(-45.000000) translate(-636.534361, -376.534361) " x="155.534361" y="325.034361" width="962" height="103"></rect>
                            <rect id="Rectangle-3-Copy-2" transform="translate(376.534361, 376.534361) rotate(-45.000000) translate(-376.534361, -376.534361) " x="-104.465639" y="325.034361" width="962" height="103"></rect>
                            <rect id="Rectangle-3" transform="translate(1106.534361, 426.534361) rotate(-45.000000) translate(-1106.534361, -426.534361) " x="625.534361" y="375.034361" width="962" height="103"></rect>
                            <rect id="Rectangle-3-Copy" transform="translate(896.534361, 376.534361) rotate(-45.000000) translate(-896.534361, -376.534361) " x="415.534361" y="325.034361" width="962" height="103"></rect>
                            <rect id="Rectangle-3-Copy-2" transform="translate(636.534361, 376.534361) rotate(-45.000000) translate(-636.534361, -376.534361) " x="155.534361" y="325.034361" width="962" height="103"></rect>
                            <rect id="Rectangle-3" transform="translate(1366.534361, 426.534361) rotate(-45.000000) translate(-1366.534361, -426.534361) " x="885.534361" y="375.034361" width="962" height="103"></rect>
                            <rect id="Rectangle-3-Copy-3" transform="translate(1616.534361, 426.534361) rotate(-45.000000) translate(-1616.534361, -426.534361) " x="1135.53436" y="375.034361" width="962" height="103"></rect>
                            <rect id="Rectangle-3-Copy" transform="translate(1156.534361, 376.534361) rotate(-45.000000) translate(-1156.534361, -376.534361) " x="675.534361" y="325.034361" width="962" height="103"></rect>
                            <rect id="Rectangle-3-Copy-2" transform="translate(896.534361, 376.534361) rotate(-45.000000) translate(-896.534361, -376.534361) " x="415.534361" y="325.034361" width="962" height="103"></rect>
                        </g>
                    </g>
                </g>
                <g id="Call-box" transform="translate(0.000000, 332.000000)">
                    <rect id="Rectangle" fill="#FFFFFF" x="0" y="0" width="152" height="148"></rect>
                    <g id="noun_1142898" transform="translate(20.000000, 19.000000)" fill-rule="nonzero" fill="#2E2E2E">
                        <path d="M33.1966446,90.0937502 C55.2038912,112.101023 72.118547,117.623869 92.0541441,97.6882722 C95.1745939,94.4850016 98.0925897,90.4363512 93.9527545,86.2965161 L77.8144185,73.9554144 C72.7214518,71.2154117 70.7315223,73.1636286 68.3212725,75.8540516 C59.5111403,85.6882546 50.0055894,82.4248384 43.6390958,75.8540516 L34.1459498,66.3609058 C27.5751764,59.9944123 24.3117468,50.4888615 34.1459633,41.6787294 C36.8363729,39.2684796 38.7845764,37.2785636 36.0445871,32.1855836 L23.7034987,16.0472612 C19.56365,11.9074126 15.5149996,14.8253815 12.311729,17.9458716 C-7.62386813,37.8814684 -2.10102235,54.7960971 19.9062376,76.8033702 L33.1966446,90.0937502 Z" id="Shape"></path>
                        <path d="M49.0004472,2.81095178 C49.0766725,4.20652117 50.4136347,5.40674016 51.8067881,5.33025235 C82.695522,5.33025235 107.678632,30.3557577 107.678632,61.2969421 C107.658678,62.7049041 108.933489,64 110.3392,64 C111.745045,64 113.019723,62.7049041 112.999769,61.2969421 C112.999769,27.4752055 85.5712772,9.14157408e-05 51.8067881,9.14157408e-05 C50.2132806,-0.0132339866 48.9737883,1.43257217 49.0004472,2.81095178 Z M49.0004472,18.8014346 C49.0766725,20.197004 50.4136347,21.397223 51.8067881,21.3207351 C73.8791565,21.3207351 91.7152214,39.1870348 91.7152214,61.2969421 C91.6952671,62.7049041 92.9700785,64 94.3757898,64 C95.7816342,64 97.0563125,62.7049041 97.0363582,61.2969421 C97.0363582,36.3064826 76.7549117,15.9905742 51.8067881,15.9905742 C50.1452233,16.0038996 48.9737484,17.5163328 49.0004472,18.8014346 Z" id="Shape"></path>
                    </g>
                </g>
                <g id="Fire-Deparment" transform="translate(252.000000, 103.000000)">
                    <circle id="Oval-Copy-2" fill="#494949" cx="166" cy="166" r="166"></circle>
                    <path d="M264,146.750556 L255.769913,146.750556 L255.769913,130.249444 L264,130.249444 L264,122 L157,122 L157,130.249444 L165.232305,130.249444 L165.232305,146.750556 L157,146.750556 L157,155 L264,155 L264,146.750556 Z M181.692478,146.750556 L173.462391,146.750556 L173.462391,130.249444 L181.692478,130.249444 L181.692478,146.750556 Z M198.152652,146.750556 L189.922565,146.750556 L189.922565,130.249444 L198.152652,130.249444 L198.152652,146.750556 Z M214.615043,146.750556 L206.384957,146.750556 L206.384957,130.249444 L214.615043,130.249444 L214.615043,146.750556 Z M231.077435,146.750556 L222.84513,146.750556 L222.84513,130.249444 L231.077435,130.249444 L231.077435,146.750556 Z M247.539826,146.750556 L239.307522,146.750556 L239.307522,130.249444 L247.539826,130.249444 L247.539826,146.750556 Z" id="Shape" fill="#FFFFFF" fill-rule="nonzero" transform="translate(210.500000, 138.500000) scale(-1, 1) translate(-210.500000, -138.500000) "></path>
                    <path d="M226.5,187 C215.176169,187 206,196.180588 206,207.5 C206,218.823831 215.176169,228 226.5,228 C237.823831,228 247,218.823831 247,207.5 C247,196.182798 237.823831,187 226.5,187 M226.5,216.726989 C221.413667,216.726989 217.273011,212.590752 217.273011,207.50221 C217.273011,202.418086 221.413667,198.27743 226.5,198.27743 C231.586333,198.27743 235.724779,202.418086 235.724779,207.50221 C235.724779,212.590752 231.586333,216.726989 226.5,216.726989" id="Shape" fill="#FFFFFF" fill-rule="nonzero" transform="translate(226.500000, 207.500000) scale(-1, 1) translate(-226.500000, -207.500000) "></path>
                    <path d="M102.5,187 C91.1761694,187 82,196.180588 82,207.5 C82,218.823831 91.1761694,228 102.5,228 C113.823831,228 123,218.823831 123,207.5 C123,196.182798 113.823831,187 102.5,187 M102.5,216.726989 C97.4136667,216.726989 93.275221,212.590752 93.275221,207.50221 C93.275221,202.418086 97.4136667,198.27743 102.5,198.27743 C107.586333,198.27743 111.726989,202.418086 111.726989,207.50221 C111.726989,212.590752 107.586333,216.726989 102.5,216.726989" id="Shape" fill="#FFFFFF" fill-rule="nonzero" transform="translate(102.500000, 207.500000) scale(-1, 1) translate(-102.500000, -207.500000) "></path>
                    <path d="M256.794567,121.459833 L240.381489,121.459833 L240.381489,105 L223.968411,105 L223.968411,121.459833 L195.246078,121.459833 C188.451333,121.459833 182.939033,126.990798 182.939033,133.805816 L182.939033,179.073682 L182.939033,195.535732 L174.731389,195.535732 L174.731389,179.073682 L174.731389,162.613849 L68.0519111,162.613849 L68.0519111,179.073682 L80.3611667,179.073682 C68.3968444,179.0759 66,212 66,212 L76.5868,212 C76.3944333,210.649416 76.2595556,209.283307 76.2595556,207.883933 C76.2595556,191.978528 89.1193778,179.0759 104.979678,179.0759 C120.839978,179.0759 133.6998,191.97631 133.6998,207.883933 C133.6998,209.283307 133.571556,210.649416 133.379189,212 L199.677144,212 C199.484778,210.649416 199.3499,209.283307 199.3499,207.883933 C199.3499,191.978528 212.209722,179.0759 228.070022,179.0759 C243.930322,179.0759 256.792356,191.97631 256.792356,207.883933 C256.792356,209.283307 256.6619,210.649416 256.469533,212 L265,212 L265,179.0759 L256.794567,121.459833 Z M207.557544,146.154017 L191.144467,146.154017 L191.144467,129.691967 L207.557544,129.691967 L207.557544,146.154017 Z M215.762978,162.616067 L215.762978,129.691967 L223.968411,129.691967 L240.381489,129.691967 L248.586922,129.691967 L252.688533,162.616067 L215.762978,162.616067 L215.762978,162.616067 Z" id="Shape" fill="#FFFFFF" fill-rule="nonzero" transform="translate(165.500000, 158.500000) scale(-1, 1) translate(-165.500000, -158.500000) "></path>
                </g>
            </g>
            <g id="Robot" transform="translate(80.000000, 699.000000)" fill-rule="nonzero" fill="#494949">
                <path d="M221.538673,99 L213.833624,111.741368 C216.564275,113.788352 218.195832,117.258086 218.195832,121.025677 C218.195832,127.138112 213.956062,132.112981 208.748177,132.112981 C203.528904,132.112981 199.283438,127.141281 199.283438,121.025677 C199.283438,117.258086 200.914995,113.788352 203.645647,111.738199 L195.93775,99 C189.39159,103.905157 185.482118,112.137456 185.482118,121.025677 C185.482118,132.87347 192.372812,142.927775 201.837551,146.280267 L201.837551,168.778081 C201.837551,172.87205 199.024326,176.20236 195.567589,176.20236 L156.803162,176.20236 C149.846977,161.987544 136.29338,152.284965 120.79786,152.284965 L114.758536,152.284965 C99.2658632,152.284965 85.7094185,161.987544 78.753234,176.20236 L36.4267164,176.20236 C32.9699796,176.20236 30.156754,172.87205 30.156754,168.778081 L30.156754,146.280267 C39.6214929,142.927775 46.5121873,132.87347 46.5121873,121.025677 C46.5121873,112.137456 42.6027148,103.905157 36.0565551,99 L28.3515059,111.741368 C31.0821571,113.785184 32.7137141,117.258086 32.7137141,121.025677 C32.7137141,127.138112 28.4682491,132.112981 23.2489752,132.112981 C18.0410908,132.112981 13.8013206,127.141281 13.8013206,121.025677 C13.8013206,117.258086 15.4328776,113.788352 18.1635288,111.741368 L10.4584796,99 C3.9094725,103.905157 0,112.140625 0,121.025677 C0,132.876639 6.89069442,142.934113 16.3554334,146.283435 L16.3554334,168.778081 C16.3554334,181.338833 25.3588944,191.557911 36.4267164,191.557911 L74.2401139,191.557911 C73.9781536,193.627076 73.7987678,195.721591 73.7987678,197.866805 L73.7987678,230.986123 L110.980044,230.986123 L110.980044,244 C113.124132,243.220498 115.404895,242.786385 117.779621,242.786385 C120.154348,242.786385 122.435111,243.220498 124.579199,244 L124.579199,230.986123 L161.760475,230.986123 L161.760475,197.866805 C161.760475,195.721591 161.578242,193.627076 161.319129,191.557911 L195.573284,191.557911 C206.638258,191.557911 215.644567,181.338833 215.644567,168.778081 L215.644567,146.283435 C225.109306,142.934113 232,132.879808 232,121.025677 C231.997153,112.140625 228.08768,103.905157 221.538673,99 Z M128.710769,194.698099 L108.508505,216.397399 C107.406564,217.579327 105.985714,218.168706 104.567712,218.168706 C103.081372,218.168706 101.597879,217.52229 100.484548,216.238964 C98.3091387,213.729349 98.3717813,209.730441 100.626918,207.306381 L110.718083,196.466237 L103.938437,196.466237 C101.703233,196.466237 99.675888,195.005463 98.7618744,192.73667 C97.8450134,190.467876 98.2123273,187.809331 99.6986671,185.952469 L116.962419,164.354567 C119.046712,161.746722 122.634429,161.515406 124.974987,163.834899 C127.318393,166.151224 127.526252,170.146962 125.44196,172.751639 L116.580868,183.835774 L124.769975,183.835774 C127.084906,183.835774 129.166352,185.401115 130.03196,187.78715 C130.897567,190.176355 130.373647,192.90778 128.710769,194.698099 Z" id="Shape"></path>
                <path d="M77.5604492,109 L156.439556,109 C157.827985,109 159,107.574359 159,105.88547 L159,94.1145299 C159,92.425641 157.827985,91 156.439556,91 L77.5604492,91 C76.1720196,91 75.000005,92.425641 75.000005,94.1145299 L75.000005,105.88547 C74.9971944,107.574359 76.1720196,109 77.5604492,109 Z" id="Shape"></path>
                <polygon id="Shape" points="121 0 118 0 115 0 115 12 121 12"></polygon>
                <polygon id="Shape" points="133 30 142 30 142 27 142 24 133 24"></polygon>
                <polygon id="Shape" points="102 24 93 24 93 27 93 30 102 30"></polygon>
                <rect id="Rectangle-path" transform="translate(133.000000, 12.000000) rotate(45.000000) translate(-133.000000, -12.000000) " x="130" y="6" width="6" height="12"></rect>
                <rect id="Rectangle-path" transform="translate(103.500000, 12.000000) rotate(45.000000) translate(-103.500000, -12.000000) " x="99" y="9" width="9" height="6"></rect>
                <path d="M174.646299,58.0931891 L131.28512,58.0931891 L131.28512,46.0425375 L122.355829,46.0425375 L122.355829,36.616179 C125.205423,35.0019671 127.181254,31.7000246 127.181254,27.8418982 C127.181254,22.4079174 123.297238,18 118.502818,18 C113.708397,18 109.824381,22.4047209 109.824381,27.8418982 C109.824381,31.7000246 111.800212,35.0051635 114.649806,36.616179 L114.649806,46.0425375 L105.717696,46.0425375 L105.717696,58.0931891 L62.3536996,58.0931891 C58.3090239,58.0931891 55,61.8458323 55,66.4327514 L55,139.660438 C55,144.247357 58.3090239,148 62.3536996,148 L174.646299,148 C178.690974,148 181.999998,144.247357 181.999998,139.660438 L181.999998,66.4359479 C182.002817,61.8458323 178.693793,58.0931891 174.646299,58.0931891 Z M170.897575,104.080649 C170.897575,112.113351 165.136378,118.646914 158.053263,118.646914 L78.9495536,118.646914 C71.8664386,118.646914 66.105242,112.113351 66.105242,104.080649 L66.105242,93.0752397 C66.105242,85.0425375 71.8664386,78.5089747 78.9495536,78.5089747 L158.053263,78.5089747 C165.136378,78.5089747 170.897575,85.0425375 170.897575,93.0752397 L170.897575,104.080649 Z" id="Shape"></path>
                <path d="M102,269 C102,278.939476 109.386008,287 118.5,287 C127.611187,287 135,278.942537 135,269 C135,259.057463 127.613992,251 118.5,251 C109.386008,251 102,259.060524 102,269 Z M123.341721,269 C123.341721,271.916355 121.173325,274.281877 118.5,274.281877 C115.823869,274.281877 113.658279,271.916355 113.658279,269 C113.658279,266.083645 115.826675,263.718123 118.5,263.718123 C121.173325,263.718123 123.341721,266.083645 123.341721,269 Z" id="Shape"></path>
            </g>
            <polyline id="Path-2-Copy" stroke="#6F6F6F" stroke-width="5" stroke-linejoin="bevel" points="650.621149 253 775.541652 253 775.541652 669.591431 914.245493 669.591431"></polyline>
            <path id="Path-2-Copy-decoration-1" d="M903.445493,672.591431 L914.245493,669.591431 L903.445493,666.591431" stroke="#6F6F6F" stroke-width="5" stroke-linejoin="bevel"></path>
            <polyline id="Path-2" stroke="#FFFFFF" stroke-width="5" stroke-linejoin="bevel" points="650.621149 587 775.541652 587 775.541652 669.591431 914.245493 669.591431"></polyline>
            <path id="Path-2-decoration-1" d="M903.445493,672.591431 L914.245493,669.591431 L903.445493,666.591431" stroke="#FFFFFF" stroke-width="5" stroke-linejoin="bevel"></path>
            <g id="Action" transform="translate(345.000000, 111.000000)">
                <rect id="Rectangle" fill="#6F6F6F" x="0" y="0" width="306" height="284"></rect>
                <g id="Group" transform="translate(58.000000, 52.000000)" fill-rule="nonzero" fill="#FFFFFF">
                    <path d="M130,32.197033 C120.800433,34.8563102 113.493601,40.3726619 109.952428,47.3175509 C107.617322,46.4604286 105.13476,45.9989011 102.537753,45.9989011 C89.8146204,45.9989011 79.5168281,57.1854471 79.5168281,70.9873152 C79.5168281,79.8002914 83.6984492,87.5363704 90.0369066,92 L26.7843841,92 C26.5642988,92 26.3442134,91.9538473 26.1241281,91.9538473 C11.6425137,91.7560498 0,79.5387592 0,64.4599986 C0,49.4933231 11.4004199,37.3617448 25.6619489,36.9002174 C29.5574592,15.8457753 46.7901402,0 67.4121352,0 C84.3587052,0 98.9943794,10.703041 105.839033,26.1971764 C107.575506,25.8675139 109.360398,25.7356489 111.187106,25.7356489 C118.225435,25.7356489 124.742162,28.1289984 130,32.197033 Z" id="Shape"></path>
                    <path d="M190,76.6145038 C190,85.0931298 180.442079,92 168.627426,92 C168.209267,92 167.811021,92 167.412774,91.9335878 C167.213651,92 166.965853,92 166.724692,92 L111.412649,92 C110.99449,92 110.569693,92 110.151534,91.9335878 C109.733375,91.9557252 109.286454,92 108.824045,92 L104.730954,92 C104.352619,92 104.000835,91.9535115 103.646838,91.9114504 C92.6286788,91.0923664 84,81.9938931 84,70.880916 C84,59.2587786 93.5136715,49.8061069 105.239825,49.8061069 C106.478814,49.8061069 107.695679,49.9167939 108.868295,50.1160305 C110.441369,50.3816794 111.945857,50.8244275 113.38397,51.4 C113.711417,50.6473282 114.114089,49.8946565 114.53446,49.1641221 C118.406303,42.4122137 125.484033,37.2541985 134.070674,35.1068702 C136.900438,34.3763359 139.909413,34 143.006888,34 C160.551868,34 174.780338,46.1755725 174.780338,61.2290076 C174.780338,61.4503817 174.780338,61.6717557 174.753788,61.8931298 C175.574619,62.070229 176.391025,62.2694656 177.169818,62.5351145 C184.709956,64.8816794 190,70.3252672 190,76.6145038 Z" id="Shape"></path>
                    <polygon id="Shape" points="84.8891332 144.5 87.6843467 138.969697 66 138.969697 79.6131953 108 109.564424 108 96.5252264 129.391212 117 129.391212 66 181"></polygon>
                </g>
            </g>
        </g>
    </g>
</svg>