<?xml version="1.0" encoding="UTF-8"?>
<svg width="1920px" height="1080px" viewBox="0 0 1920 1080" version="1.1" xmlns="http://www.w3.org/2000/svg" xmlns:xlink="http://www.w3.org/1999/xlink">
    <!-- Generator: Sketch 46.2 (44496) - http://www.bohemiancoding.com/sketch -->
    <title>effectsAreAFunctionOfState</title>
    <desc>Created with Sketch.</desc>
    <defs></defs>
    <g id="Actual-Slides" stroke="none" stroke-width="1" fill="none" fill-rule="evenodd">
        <g id="effectsAreAFunctionOfState">
            <g id="Group" transform="translate(452.000000, 184.000000)">
                <g id="Events-Block">
                    <rect id="Rectangle-7" stroke="#FFFFFF" stroke-width="5" x="2.5" y="2.5" width="435" height="213"></rect>
                    <path d="M119.946769,117.568 L109.002769,117.568 C108.954769,120.736016 109.530763,123.471988 110.730769,125.776 C111.930775,128.080012 113.550759,129.975993 115.590769,131.464 C117.630779,132.952007 119.982756,134.043997 122.646769,134.74 C125.310783,135.436003 128.058755,135.784 130.890769,135.784 C134.394787,135.784 137.478756,135.376004 140.142769,134.56 C142.806783,133.743996 145.03876,132.604007 146.838769,131.14 C148.638778,129.675993 149.994765,127.93601 150.906769,125.92 C151.818774,123.90399 152.274769,121.720012 152.274769,119.368 C152.274769,116.487986 151.662775,114.124009 150.438769,112.276 C149.214763,110.427991 147.762778,108.952006 146.082769,107.848 C144.402761,106.743994 142.710778,105.940003 141.006769,105.436 C139.302761,104.931997 137.970774,104.584001 137.010769,104.392 C133.794753,103.575996 131.190779,102.904003 129.198769,102.376 C127.206759,101.847997 125.646775,101.320003 124.518769,100.792 C123.390764,100.263997 122.634771,99.6880031 122.250769,99.064 C121.866767,98.4399969 121.674769,97.624005 121.674769,96.616 C121.674769,95.5119945 121.914767,94.6000036 122.394769,93.88 C122.874772,93.1599964 123.486766,92.5600024 124.230769,92.08 C124.974773,91.5999976 125.802765,91.264001 126.714769,91.072 C127.626774,90.879999 128.538765,90.784 129.450769,90.784 C130.842776,90.784 132.126763,90.9039988 133.302769,91.144 C134.478775,91.3840012 135.522765,91.7919971 136.434769,92.368 C137.346774,92.9440029 138.078767,93.735995 138.630769,94.744 C139.182772,95.752005 139.506769,97.0239923 139.602769,98.56 L150.546769,98.56 C150.546769,95.5839851 149.982775,93.0520104 148.854769,90.964 C147.726764,88.8759896 146.202779,87.1600067 144.282769,85.816 C142.36276,84.4719933 140.166782,83.500003 137.694769,82.9 C135.222757,82.299997 132.642783,82 129.954769,82 C127.650758,82 125.346781,82.3119969 123.042769,82.936 C120.738758,83.5600031 118.674778,84.5199935 116.850769,85.816 C115.02676,87.1120065 113.550775,88.7319903 112.422769,90.676 C111.294764,92.6200097 110.730769,94.9119868 110.730769,97.552 C110.730769,99.9040118 111.174765,101.907992 112.062769,103.564 C112.950774,105.220008 114.114762,106.599994 115.554769,107.704 C116.994776,108.808006 118.62676,109.707997 120.450769,110.404 C122.274778,111.100003 124.14676,111.687998 126.066769,112.168 C127.938779,112.696003 129.78676,113.175998 131.610769,113.608 C133.434778,114.040002 135.066762,114.543997 136.506769,115.12 C137.946776,115.696003 139.110765,116.415996 139.998769,117.28 C140.886774,118.144004 141.330769,119.271993 141.330769,120.664 C141.330769,121.960006 140.994773,123.027996 140.322769,123.868 C139.650766,124.708004 138.810774,125.367998 137.802769,125.848 C136.794764,126.328002 135.714775,126.651999 134.562769,126.82 C133.410764,126.988001 132.330774,127.072 131.322769,127.072 C129.834762,127.072 128.394776,126.892002 127.002769,126.532 C125.610762,126.171998 124.398774,125.620004 123.366769,124.876 C122.334764,124.131996 121.506772,123.160006 120.882769,121.96 C120.258766,120.759994 119.946769,119.296009 119.946769,117.568 Z M172.346769,92.728 L156.938769,92.728 L156.938769,83.224 L199.058769,83.224 L199.058769,92.728 L183.650769,92.728 L183.650769,134.632 L172.346769,134.632 L172.346769,92.728 Z M213.298769,114.76 L226.618769,114.76 L220.138769,95.896 L219.994769,95.896 L213.298769,114.76 Z M214.378769,83.224 L225.970769,83.224 L245.194769,134.632 L233.458769,134.632 L229.570769,123.184 L210.346769,123.184 L206.314769,134.632 L194.938769,134.632 L214.378769,83.224 Z M256.410769,92.728 L241.002769,92.728 L241.002769,83.224 L283.122769,83.224 L283.122769,92.728 L267.714769,92.728 L267.714769,134.632 L256.410769,134.632 L256.410769,92.728 Z M291.026769,83.224 L291.026769,134.632 L330.050769,134.632 L330.050769,125.128 L302.330769,125.128 L302.330769,112.528 L327.242769,112.528 L327.242769,103.744 L302.330769,103.744 L302.330769,92.728 L329.474769,92.728 L329.474769,83.224 L291.026769,83.224 Z" id="STATE" fill="#FFFFFF"></path>
                </g>
                <g id="State-Block-Copy" transform="translate(577.000000, 0.000000)">
                    <rect id="Rectangle-7-Copy" stroke="#FFFFFF" stroke-width="5" x="2.5" y="2.5" width="435" height="213"></rect>
                    <path d="M56,83.224 L56,134.632 L95.024,134.632 L95.024,125.128 L67.304,125.128 L67.304,112.528 L92.216,112.528 L92.216,103.744 L67.304,103.744 L67.304,92.728 L94.448,92.728 L94.448,83.224 L56,83.224 Z M104.656,83.224 L104.656,134.632 L115.96,134.632 L115.96,113.392 L137.488,113.392 L137.488,104.608 L115.96,104.608 L115.96,92.728 L140.8,92.728 L140.8,83.224 L104.656,83.224 Z M149.352,83.224 L149.352,134.632 L160.656,134.632 L160.656,113.392 L182.184,113.392 L182.184,104.608 L160.656,104.608 L160.656,92.728 L185.496,92.728 L185.496,83.224 L149.352,83.224 Z M194.048,83.224 L194.048,134.632 L233.072,134.632 L233.072,125.128 L205.352,125.128 L205.352,112.528 L230.264,112.528 L230.264,103.744 L205.352,103.744 L205.352,92.728 L232.496,92.728 L232.496,83.224 L194.048,83.224 Z M276.976,100.504 L287.92,100.504 C287.583998,97.5279851 286.768006,94.8880115 285.472,92.584 C284.175994,90.2799885 282.53201,88.3480078 280.54,86.788 C278.54799,85.2279922 276.292013,84.0400041 273.772,83.224 C271.251987,82.4079959 268.576014,82 265.744,82 C261.80798,82 258.268016,82.695993 255.124,84.088 C251.979984,85.480007 249.328011,87.3999878 247.168,89.848 C245.007989,92.2960122 243.352006,95.1639836 242.2,98.452 C241.047994,101.740016 240.472,105.303981 240.472,109.144 C240.472,112.888019 241.047994,116.379984 242.2,119.62 C243.352006,122.860016 245.007989,125.679988 247.168,128.08 C249.328011,130.480012 251.979984,132.363993 255.124,133.732 C258.268016,135.100007 261.80798,135.784 265.744,135.784 C268.912016,135.784 271.815987,135.304005 274.456,134.344 C277.096013,133.383995 279.39999,131.992009 281.368,130.168 C283.33601,128.343991 284.919994,126.136013 286.12,123.544 C287.320006,120.951987 288.063999,118.048016 288.352,114.832 L277.408,114.832 C276.975998,118.288017 275.78801,121.071989 273.844,123.184 C271.89999,125.296011 269.200017,126.352 265.744,126.352 C263.199987,126.352 261.040009,125.860005 259.264,124.876 C257.487991,123.891995 256.048006,122.584008 254.944,120.952 C253.839994,119.319992 253.036003,117.48401 252.532,115.444 C252.027997,113.40399 251.776,111.304011 251.776,109.144 C251.776,106.887989 252.027997,104.704011 252.532,102.592 C253.036003,100.479989 253.839994,98.5960083 254.944,96.94 C256.048006,95.2839917 257.487991,93.9640049 259.264,92.98 C261.040009,91.9959951 263.199987,91.504 265.744,91.504 C267.136007,91.504 268.467994,91.7319977 269.74,92.188 C271.012006,92.6440023 272.151995,93.2799959 273.16,94.096 C274.168005,94.9120041 275.007997,95.8599946 275.68,96.94 C276.352003,98.0200054 276.783999,99.2079935 276.976,100.504 Z M309.432,92.728 L309.432,134.632 L320.736,134.632 L320.736,92.728 L336.144,92.728 L336.144,83.224 L294.024,83.224 L294.024,92.728 L309.432,92.728 Z M351.752,117.568 L340.808,117.568 C340.76,120.736016 341.335994,123.471988 342.536,125.776 C343.736006,128.080012 345.35599,129.975993 347.396,131.464 C349.43601,132.952007 351.787987,134.043997 354.452,134.74 C357.116013,135.436003 359.863986,135.784 362.696,135.784 C366.200018,135.784 369.283987,135.376004 371.948,134.56 C374.612013,133.743996 376.843991,132.604007 378.644,131.14 C380.444009,129.675993 381.799995,127.93601 382.712,125.92 C383.624005,123.90399 384.08,121.720012 384.08,119.368 C384.08,116.487986 383.468006,114.124009 382.244,112.276 C381.019994,110.427991 379.568008,108.952006 377.888,107.848 C376.207992,106.743994 374.516009,105.940003 372.812,105.436 C371.107991,104.931997 369.776005,104.584001 368.816,104.392 C365.599984,103.575996 362.99601,102.904003 361.004,102.376 C359.01199,101.847997 357.452006,101.320003 356.324,100.792 C355.195994,100.263997 354.440002,99.6880031 354.056,99.064 C353.671998,98.4399969 353.48,97.624005 353.48,96.616 C353.48,95.5119945 353.719998,94.6000036 354.2,93.88 C354.680002,93.1599964 355.291996,92.5600024 356.036,92.08 C356.780004,91.5999976 357.607995,91.264001 358.52,91.072 C359.432005,90.879999 360.343995,90.784 361.256,90.784 C362.648007,90.784 363.931994,90.9039988 365.108,91.144 C366.284006,91.3840012 367.327995,91.7919971 368.24,92.368 C369.152005,92.9440029 369.883997,93.735995 370.436,94.744 C370.988003,95.752005 371.312,97.0239923 371.408,98.56 L382.352,98.56 C382.352,95.5839851 381.788006,93.0520104 380.66,90.964 C379.531994,88.8759896 378.00801,87.1600067 376.088,85.816 C374.16799,84.4719933 371.972012,83.500003 369.5,82.9 C367.027988,82.299997 364.448013,82 361.76,82 C359.455988,82 357.152012,82.3119969 354.848,82.936 C352.543988,83.5600031 350.480009,84.5199935 348.656,85.816 C346.831991,87.1120065 345.356006,88.7319903 344.228,90.676 C343.099994,92.6200097 342.536,94.9119868 342.536,97.552 C342.536,99.9040118 342.979996,101.907992 343.868,103.564 C344.756004,105.220008 345.919993,106.599994 347.36,107.704 C348.800007,108.808006 350.431991,109.707997 352.256,110.404 C354.080009,111.100003 355.95199,111.687998 357.872,112.168 C359.744009,112.696003 361.591991,113.175998 363.416,113.608 C365.240009,114.040002 366.871993,114.543997 368.312,115.12 C369.752007,115.696003 370.915996,116.415996 371.804,117.28 C372.692004,118.144004 373.136,119.271993 373.136,120.664 C373.136,121.960006 372.800003,123.027996 372.128,123.868 C371.455997,124.708004 370.616005,125.367998 369.608,125.848 C368.599995,126.328002 367.520006,126.651999 366.368,126.82 C365.215994,126.988001 364.136005,127.072 363.128,127.072 C361.639993,127.072 360.200007,126.892002 358.808,126.532 C357.415993,126.171998 356.204005,125.620004 355.172,124.876 C354.139995,124.131996 353.312003,123.160006 352.688,121.96 C352.063997,120.759994 351.752,119.296009 351.752,117.568 Z" id="EFFECTS" fill="#FFFFFF"></path>
                </g>
                <g id="Arrows" transform="translate(438.000000, 87.000000)" fill-rule="nonzero" fill="#FFFFFF">
                    <polygon id="Shape" transform="translate(69.484325, 22.937515) scale(-1, 1) rotate(90.000000) translate(-69.484325, -22.937515) " points="69.48431 92.42184 71.42181 90.73434 92.42184 72.73434 88.54684 68.20314 72.48434 81.98434 72.48434 -46.54681 66.48431 -46.54681 66.48431 81.98434 50.42181 68.20314 46.54681 72.73434 67.54681 90.73434"></polygon>
                </g>
            </g>
            <g id="Effect" transform="translate(1099.000000, 462.000000)">
                <g id="Fire-Deparment" transform="translate(150.000000, 0.000000)">
                    <circle id="Oval-Copy-2" fill="#FFFFFF" cx="75" cy="75" r="75"></circle>
                    <path d="M119.277108,66.3029619 L115.558696,66.3029619 L115.558696,58.8476405 L119.277108,58.8476405 L119.277108,55.1204819 L70.9337349,55.1204819 L70.9337349,58.8476405 L74.6531497,58.8476405 L74.6531497,66.3029619 L70.9337349,66.3029619 L70.9337349,70.0301205 L119.277108,70.0301205 L119.277108,66.3029619 Z M82.0899751,66.3029619 L78.3715624,66.3029619 L78.3715624,58.8476405 L82.0899751,58.8476405 L82.0899751,66.3029619 Z M89.5268006,66.3029619 L85.8083879,66.3029619 L85.8083879,58.8476405 L89.5268006,58.8476405 L89.5268006,66.3029619 Z M96.9646281,66.3029619 L93.2462153,66.3029619 L93.2462153,58.8476405 L96.9646281,58.8476405 L96.9646281,66.3029619 Z M104.402456,66.3029619 L100.683041,66.3029619 L100.683041,58.8476405 L104.402456,58.8476405 L104.402456,66.3029619 Z M111.840283,66.3029619 L108.120868,66.3029619 L108.120868,58.8476405 L111.840283,58.8476405 L111.840283,66.3029619 Z" id="Shape" fill="#4D70B8" fill-rule="nonzero" transform="translate(95.105422, 62.575301) scale(-1, 1) translate(-95.105422, -62.575301) "></path>
                    <path d="M102.334337,84.4879518 C97.2181488,84.4879518 93.0722892,88.6358081 93.0722892,93.75 C93.0722892,98.8661885 97.2181488,103.012048 102.334337,103.012048 C107.450526,103.012048 111.596386,98.8661885 111.596386,93.75 C111.596386,88.6368063 107.450526,84.4879518 102.334337,84.4879518 M102.334337,97.9188201 C100.036295,97.9188201 98.1655172,96.0500387 98.1655172,93.7509983 C98.1655172,91.4539544 100.036295,89.5831764 102.334337,89.5831764 C104.632379,89.5831764 106.502159,91.4539544 106.502159,93.7509983 C106.502159,96.0500387 104.632379,97.9188201 102.334337,97.9188201" id="Shape" fill="#4D70B8" fill-rule="nonzero" transform="translate(102.334337, 93.750000) scale(-1, 1) translate(-102.334337, -93.750000) "></path>
                    <path d="M46.310241,84.4879518 C41.1940525,84.4879518 37.0481928,88.6358081 37.0481928,93.75 C37.0481928,98.8661885 41.1940525,103.012048 46.310241,103.012048 C51.4264295,103.012048 55.5722892,98.8661885 55.5722892,93.75 C55.5722892,88.6368063 51.4264295,84.4879518 46.310241,84.4879518 M46.310241,97.9188201 C44.0121988,97.9188201 42.1424191,96.0500387 42.1424191,93.7509983 C42.1424191,91.4539544 44.0121988,89.5831764 46.310241,89.5831764 C48.6082831,89.5831764 50.4790611,91.4539544 50.4790611,93.7509983 C50.4790611,96.0500387 48.6082831,97.9188201 46.310241,97.9188201" id="Shape" fill="#4D70B8" fill-rule="nonzero" transform="translate(46.310241, 93.750000) scale(-1, 1) translate(-46.310241, -93.750000) "></path>
                    <path d="M116.021642,54.8764304 L108.606094,54.8764304 L108.606094,47.439759 L101.190547,47.439759 L101.190547,54.8764304 L88.2135894,54.8764304 C85.1436747,54.8764304 82.6531777,57.3753603 82.6531777,60.4544348 L82.6531777,80.906784 L82.6531777,88.3444573 L78.9449046,88.3444573 L78.9449046,80.906784 L78.9449046,73.4701126 L30.7463454,73.4701126 L30.7463454,80.906784 L36.307756,80.906784 C30.9021888,80.9077859 29.8192771,95.7831325 29.8192771,95.7831325 L34.6024699,95.7831325 C34.5155572,95.1729287 34.4546185,94.555711 34.4546185,93.9234637 C34.4546185,86.7372866 40.2647791,80.9077859 47.4305773,80.9077859 C54.5963755,80.9077859 60.4065361,86.7362846 60.4065361,93.9234637 C60.4065361,94.555711 60.3485944,95.1729287 60.2616817,95.7831325 L90.2155773,95.7831325 C90.1286647,95.1729287 90.0677259,94.555711 90.0677259,93.9234637 C90.0677259,86.7372866 95.8778865,80.9077859 103.043685,80.9077859 C110.209483,80.9077859 116.020643,86.7362846 116.020643,93.9234637 C116.020643,94.555711 115.961702,95.1729287 115.874789,95.7831325 L119.728916,95.7831325 L119.728916,80.9077859 L116.021642,54.8764304 Z M93.775999,66.0334413 L86.3604518,66.0334413 L86.3604518,58.595768 L93.775999,58.595768 L93.775999,66.0334413 Z M97.4832731,73.4711146 L97.4832731,58.595768 L101.190547,58.595768 L108.606094,58.595768 L112.313368,58.595768 L114.166506,73.4711146 L97.4832731,73.4711146 L97.4832731,73.4711146 Z" id="Shape" fill="#4D70B8" fill-rule="nonzero" transform="translate(74.774096, 71.611446) scale(-1, 1) translate(-74.774096, -71.611446) "></path>
                </g>
                <g id="Call-box" fill="#FFFFFF">
                    <rect id="Rectangle" opacity="0" x="0" y="0" width="150" height="150"></rect>
                    <path d="M56.6446753,103.440245 L45.977375,92.7540612 C28.3136531,75.059024 23.8808427,61.4587482 39.8817824,45.4294508 C42.4528287,42.9204081 45.7024033,40.5742034 49.0251766,43.9028654 L58.9305238,56.878949 C61.1297258,60.9739802 59.5660361,62.5739803 57.4066284,64.5119513 C49.5133757,71.5957738 52.1327074,79.2387504 57.4066176,84.3577554 L65.0261164,91.9907577 C70.1360652,97.2740255 77.7655205,99.8979885 84.8368109,91.9907577 C86.7713534,89.8275122 88.3685337,88.2610405 92.4563096,90.4641508 L105.409448,100.387064 C108.73221,103.715715 106.390135,106.971049 103.885563,109.546651 C87.8846233,125.575949 74.3083864,121.135282 56.6446753,103.440245 Z M69.3293063,33.2601572 C69.307909,32.1518655 70.3027647,30.9893592 71.5817642,31.0000735 C98.6822093,31.0000735 120.697183,53.0915503 120.697183,80.2860548 C120.713199,81.4181324 119.690102,82.4594595 118.561727,82.4594595 C117.433458,82.4594595 116.410254,81.4181324 116.42627,80.2860548 C116.42627,55.40767 96.3740374,35.285811 71.5817642,35.285811 C70.4635752,35.3473113 69.3904871,34.3822704 69.3293063,33.2601572 Z M69.3293063,46.1173697 C69.307877,45.0840784 70.2481397,43.8680004 71.5817642,43.857286 C91.6059159,43.857286 107.884445,60.1923745 107.884445,80.2860548 C107.900461,81.4181324 106.877364,82.4594595 105.748989,82.4594595 C104.620721,82.4594595 103.597517,81.4181324 103.613533,80.2860548 C103.613533,62.5084942 89.297744,48.1430235 71.5817642,48.1430235 C70.4635752,48.2045239 69.3904871,47.2394829 69.3293063,46.1173697 Z" id="Combined-Shape" fill-rule="nonzero"></path>
                </g>
            </g>
            <g id="States" transform="translate(557.000000, 472.000000)">
                <g id="Sun-/-Fire-Switch">
                    <g id="Switch-Copy-2">
                        <path d="M177.177419,2.5 L51.8225806,2.5 C24.6296282,2.5 2.5,24.705391 2.5,52 C2.5,79.294609 24.6296282,101.5 51.8225806,101.5 L177.177419,101.5 C204.370372,101.5 226.5,79.294609 226.5,52 C226.5,24.705391 204.370372,2.5 177.177419,2.5 Z" id="Shape-Copy-2" stroke="#FFFFFF" stroke-width="5" fill-rule="nonzero"></path>
                        <path d="M177.629032,91.5294118 C155.741613,91.5294118 138,73.7270588 138,51.7647059 C138,29.8023529 155.741613,12 177.629032,12 C199.516452,12 217.258065,29.8023529 217.258065,51.7647059 C217.258065,73.7270588 199.516452,91.5294118 177.629032,91.5294118 Z" id="Path" fill="#FFFFFF"></path>
                    </g>
                    <g id="Sun-State" transform="translate(1.000000, 1.000000)">
                        <rect id="Background-Copy" fill="#000000" opacity="0" x="0" y="0" width="100" height="100"></rect>
                        <path d="M48.9591195,35.7704403 C57.3370021,35.7704403 64.1477987,42.5812369 64.1477987,50.9591195 C64.1477987,59.3370021 57.3370021,66.1477987 48.9591195,66.1477987 C40.5812369,66.1477987 33.7704403,59.3370021 33.7704403,50.9591195 C33.7704403,42.5812369 40.5812369,35.7704403 48.9591195,35.7704403 Z M48.9591195,31.4308176 C47.775586,31.4308176 46.7893082,30.6360611 46.7893082,29.5574631 L46.7893082,23.5400212 C46.7893082,22.5181915 47.775586,21.6666667 48.9591195,21.6666667 C50.1426529,21.6666667 51.1289308,22.5181915 51.1289308,23.5400212 L51.1289308,29.5574631 C51.1289308,30.5792928 50.1426529,31.4308176 48.9591195,31.4308176 Z M32.4963518,37.3236089 L27.8633027,32.6987891 C27.0602408,31.8971536 27.0602408,30.6638683 27.8633027,29.8622329 C28.6663645,29.0605974 29.9018443,29.0605974 30.7049061,29.8622329 L35.3379552,34.4870527 C36.141017,35.2886882 36.141017,36.5219735 35.3379552,37.3236089 C34.9673113,37.7552588 34.4113454,37.9402516 33.9171535,37.9402516 C33.4229616,37.9402516 32.8669957,37.6935945 32.4963518,37.3236089 Z M29.4308176,50.9591195 C29.4308176,52.1426529 28.6360611,53.1289308 27.5574631,53.1289308 L21.5400212,53.1289308 C20.5181915,53.1289308 19.6666667,52.1426529 19.6666667,50.9591195 C19.6666667,49.775586 20.5181915,48.7893082 21.5400212,48.7893082 L27.5574631,48.7893082 C28.5792928,48.7893082 29.4308176,49.775586 29.4308176,50.9591195 Z M32.4963518,63.4943083 C33.2994136,62.6926729 34.5966673,62.6926729 35.3379552,63.4943083 C36.141017,64.2959438 36.141017,65.5292291 35.3379552,66.3308645 L30.7049061,70.9556844 C30.3342622,71.3873342 29.7782963,71.572327 29.2841044,71.572327 C28.7899125,71.572327 28.2339466,71.32567 27.8633027,70.9556844 C27.0602408,70.154049 27.0602408,68.9207637 27.8633027,68.1191282 L32.4963518,63.4943083 Z M48.9591195,69.4025157 C50.1426529,69.4025157 51.1289308,70.1972722 51.1289308,71.2758703 L51.1289308,77.2933121 C51.1289308,78.3151419 50.1426529,79.1666667 48.9591195,79.1666667 C47.775586,79.1666667 46.7893082,78.3151419 46.7893082,77.2933121 L46.7893082,71.2758703 C46.7893082,70.2540405 47.775586,69.4025157 48.9591195,69.4025157 Z M64.3369816,63.4943083 L68.9700307,68.1191282 C69.7730925,68.9207637 69.7730925,70.154049 68.9700307,70.9556844 C68.5993867,71.3873342 68.0434208,71.572327 67.5492289,71.572327 C67.055037,71.572327 66.4990712,71.32567 66.1284272,70.9556844 L61.4953781,66.3308645 C60.6923163,65.5292291 60.6923163,64.2959438 61.4953781,63.4943083 C62.29844,62.6926729 63.5339197,62.6926729 64.3369816,63.4943083 Z M75.2933121,48.7893082 C76.3151419,48.7893082 77.1666667,49.775586 77.1666667,50.9591195 C77.1666667,52.1426529 76.3151419,53.1289308 75.2933121,53.1289308 L69.2758703,53.1289308 C68.2540405,53.1289308 67.4025157,52.1426529 67.4025157,50.9591195 C67.4025157,49.775586 68.2540405,48.7893082 69.2758703,48.7893082 L75.2933121,48.7893082 Z M62.9161799,37.9402516 C62.360214,37.9402516 61.8660221,37.7552588 61.4953781,37.3236089 C60.6923163,36.5219735 60.6923163,35.2886882 61.4953781,34.4870527 L66.1284272,29.8622329 C66.9314891,29.0605974 68.1669688,29.0605974 68.9700307,29.8622329 C69.7730925,30.6638683 69.7730925,31.8971536 68.9700307,32.6987891 L64.3369816,37.3236089 C63.9663377,37.7552588 63.4103718,37.9402516 62.9161799,37.9402516 Z" id="Combined-Shape" fill="#FFFFFF" fill-rule="nonzero"></path>
                    </g>
                    <g id="Fire-State" transform="translate(158.000000, 19.000000)" fill-rule="nonzero" fill="#4D70B8">
                        <path d="M32.9471621,29.9294079 C30.3347763,24.2328169 31.2383778,19.5156232 31.2383778,19.5156232 C31.2383778,19.5156232 26.1219327,24.286214 26.9172077,31.288668 C27.1847213,33.6448992 28.1497518,36.3188093 29.0137216,38.9629792 C28.1246517,41.0630395 26.5558992,43.1698589 23.8880291,42.6960442 C18.8244262,41.7964046 20.5820896,37.6544125 21.6468597,34.0734278 C22.7116298,30.4917671 20.0728229,27.6313052 20.0728229,27.6313052 C20.0728229,27.6313052 17.6942638,33.8463211 15.6657843,29.0061113 C13.6373047,24.1659015 24.1060031,19.1634727 22.8827064,11.9683836 C21.6600702,4.77329446 16.8038729,0 16.8038729,0 C16.8038729,0 19.9433596,4.47251337 17.9135589,10.1238182 C15.8837583,15.7751231 11.9338046,15.2641332 8.25995126,22.1287011 C4.58609796,28.993269 10.0314857,35.1798966 7.43759467,36.676367 C2.09194657,39.7612319 3.0985903,28.5944806 3.0985903,28.5944806 C3.0985903,28.5944806 -3.56811256,36.8649466 2.65603695,49.8343567 C9.36765568,63.8203393 25.0617863,60.5583853 25.8689507,60.3799444 C30.6280505,59.7844654 35.1467183,56.5340019 37.5734959,50.295329 C42.1919034,38.4195455 35.5595479,35.6259989 32.9471621,29.9294079 Z" id="Shape-Copy-6"></path>
                    </g>
                </g>
                <g id="Fire-Truck-Coming-Switch" transform="translate(0.000000, 160.000000)">
                    <g id="Switch" transform="translate(114.500000, 52.000000) scale(-1, 1) translate(-114.500000, -52.000000) ">
                        <path d="M177.177419,2.5 L51.8225806,2.5 C24.6296282,2.5 2.5,24.705391 2.5,52 C2.5,79.294609 24.6296282,101.5 51.8225806,101.5 L177.177419,101.5 C204.370372,101.5 226.5,79.294609 226.5,52 C226.5,24.705391 204.370372,2.5 177.177419,2.5 Z" id="Shape-Copy-2" stroke="#FFFFFF" stroke-width="5" fill-rule="nonzero"></path>
                        <path d="M177.177419,91.7647059 C155.29,91.7647059 137.548387,73.9623529 137.548387,52 C137.548387,30.0376471 155.29,12.2352941 177.177419,12.2352941 C199.064839,12.2352941 216.806452,30.0376471 216.806452,52 C216.806452,73.9623529 199.064839,91.7647059 177.177419,91.7647059 Z" id="Path" fill="#FFFFFF"></path>
                    </g>
                    <g id="Fire-Department-Coming" transform="translate(134.000000, 7.000000)" fill="#FFFFFF">
                        <rect id="Rectangle-2" opacity="0" x="0" y="0" width="90" height="90"></rect>
                        <path d="M75.189615,34.1303567 L71.21831,34.1303567 L71.21831,30.15 L67.247005,30.15 L67.247005,34.1303567 L60.297355,34.1303567 C58.6533,34.1303567 57.319545,35.4678681 57.319545,37.1158924 L57.319545,48.0626777 L57.319545,52.0435707 L55.333625,52.0435707 L55.333625,48.0626777 L55.333625,44.082321 L29.52148,44.082321 L29.52148,48.0626777 L32.499825,48.0626777 C29.60494,48.063214 29.025,56.025 29.025,56.025 L31.58658,56.025 C31.540035,55.6983984 31.5074,55.3680427 31.5074,55.0296427 C31.5074,51.1833589 34.61896,48.063214 38.456515,48.063214 C42.29407,48.063214 45.40563,51.1828226 45.40563,55.0296427 C45.40563,55.3680427 45.3746,55.6983984 45.328055,56.025 L61.369495,56.025 C61.32295,55.6983984 61.290315,55.3680427 61.290315,55.0296427 C61.290315,51.1833589 64.401875,48.063214 68.23943,48.063214 C72.076985,48.063214 75.18908,51.1828226 75.18908,55.0296427 C75.18908,55.3680427 75.157515,55.6983984 75.11097,56.025 L77.175,56.025 L77.175,48.063214 L75.189615,34.1303567 Z M38.25,49.95 C35.5157092,49.95 33.3,52.1667762 33.3,54.9 C33.3,57.6342908 35.5157092,59.85 38.25,59.85 C40.9842908,59.85 43.2,57.6342908 43.2,54.9 C43.2,52.1673098 40.9842908,49.95 38.25,49.95 M38.25,57.1279802 C37.0218366,57.1279802 36.0220198,56.1292304 36.0220198,54.9005335 C36.0220198,53.6729036 37.0218366,52.6730869 38.25,52.6730869 C39.4781634,52.6730869 40.4774466,53.6729036 40.4774466,54.9005335 C40.4774466,56.1292304 39.4781634,57.1279802 38.25,57.1279802 M68.4,49.95 C65.6657092,49.95 63.45,52.1667762 63.45,54.9 C63.45,57.6342908 65.6657092,59.85 68.4,59.85 C71.1342908,59.85 73.35,57.6342908 73.35,54.9 C73.35,52.1673098 71.1342908,49.95 68.4,49.95 M68.4,57.1279802 C67.1718366,57.1279802 66.1725534,56.1292304 66.1725534,54.9005335 C66.1725534,53.6729036 67.1718366,52.6730869 68.4,52.6730869 C69.6281634,52.6730869 70.6279802,53.6729036 70.6279802,54.9005335 C70.6279802,56.1292304 69.6281634,57.1279802 68.4,57.1279802 M55.125,40.1063826 L53.1347804,40.1063826 L53.1347804,36.1686174 L55.125,36.1686174 L55.125,34.2 L29.25,34.2 L29.25,36.1686174 L31.2407559,36.1686174 L31.2407559,40.1063826 L29.25,40.1063826 L29.25,42.075 L55.125,42.075 L55.125,40.1063826 Z M35.2211951,40.1063826 L33.2309755,40.1063826 L33.2309755,36.1686174 L35.2211951,36.1686174 L35.2211951,40.1063826 Z M39.2016343,40.1063826 L37.2114147,40.1063826 L37.2114147,36.1686174 L39.2016343,36.1686174 L39.2016343,40.1063826 Z M43.1826098,40.1063826 L41.1923902,40.1063826 L41.1923902,36.1686174 L43.1826098,36.1686174 L43.1826098,40.1063826 Z M47.1635853,40.1063826 L45.1728294,40.1063826 L45.1728294,36.1686174 L47.1635853,36.1686174 L47.1635853,40.1063826 Z M51.1445608,40.1063826 L49.1538049,40.1063826 L49.1538049,36.1686174 L51.1445608,36.1686174 L51.1445608,40.1063826 Z M63.276235,40.1019643 L59.30493,40.1019643 L59.30493,36.1210713 L63.276235,36.1210713 L63.276235,40.1019643 Z M65.26162,44.0828573 L65.26162,36.1210713 L67.247005,36.1210713 L71.21831,36.1210713 L73.203695,36.1210713 L74.19612,44.0828573 L65.26162,44.0828573 L65.26162,44.0828573 Z M24.3543854,34.2563826 L24.3543854,36.225 L12.825,36.225 L12.825,34.2563826 L24.3543854,34.2563826 Z M24.3543854,38.7563826 L24.3543854,40.725 L15.4198854,40.725 L15.4198854,38.7563826 L24.3543854,38.7563826 Z M24.3543854,43.2563826 L24.3543854,45.225 L18.5896927,45.225 L18.5896927,43.2563826 L24.3543854,43.2563826 Z" id="Shape" fill-rule="nonzero" transform="translate(45.000000, 45.000000) scale(-1, 1) translate(-45.000000, -45.000000) "></path>
                    </g>
                    <g id="Fire-Department-Static" transform="translate(0.000000, 7.000000)">
                        <rect id="Rectangle-2" fill="#FFFFFF" opacity="0" x="0" y="0" width="90" height="90"></rect>
                        <path d="M73.989615,34.1303567 L70.01831,34.1303567 L70.01831,30.15 L66.047005,30.15 L66.047005,34.1303567 L59.097355,34.1303567 C57.4533,34.1303567 56.119545,35.4678681 56.119545,37.1158924 L56.119545,48.0626777 L56.119545,52.0435707 L54.133625,52.0435707 L54.133625,48.0626777 L54.133625,44.082321 L28.32148,44.082321 L28.32148,48.0626777 L31.299825,48.0626777 C28.40494,48.063214 27.825,56.025 27.825,56.025 L30.38658,56.025 C30.340035,55.6983984 30.3074,55.3680427 30.3074,55.0296427 C30.3074,51.1833589 33.41896,48.063214 37.256515,48.063214 C41.09407,48.063214 44.20563,51.1828226 44.20563,55.0296427 C44.20563,55.3680427 44.1746,55.6983984 44.128055,56.025 L60.169495,56.025 C60.12295,55.6983984 60.090315,55.3680427 60.090315,55.0296427 C60.090315,51.1833589 63.201875,48.063214 67.03943,48.063214 C70.876985,48.063214 73.98908,51.1828226 73.98908,55.0296427 C73.98908,55.3680427 73.957515,55.6983984 73.91097,56.025 L75.975,56.025 L75.975,48.063214 L73.989615,34.1303567 Z M37.05,49.95 C34.3157092,49.95 32.1,52.1667762 32.1,54.9 C32.1,57.6342908 34.3157092,59.85 37.05,59.85 C39.7842908,59.85 42,57.6342908 42,54.9 C42,52.1673098 39.7842908,49.95 37.05,49.95 M37.05,57.1279802 C35.8218366,57.1279802 34.8220198,56.1292304 34.8220198,54.9005335 C34.8220198,53.6729036 35.8218366,52.6730869 37.05,52.6730869 C38.2781634,52.6730869 39.2774466,53.6729036 39.2774466,54.9005335 C39.2774466,56.1292304 38.2781634,57.1279802 37.05,57.1279802 M67.2,49.95 C64.4657092,49.95 62.25,52.1667762 62.25,54.9 C62.25,57.6342908 64.4657092,59.85 67.2,59.85 C69.9342908,59.85 72.15,57.6342908 72.15,54.9 C72.15,52.1673098 69.9342908,49.95 67.2,49.95 M67.2,57.1279802 C65.9718366,57.1279802 64.9725534,56.1292304 64.9725534,54.9005335 C64.9725534,53.6729036 65.9718366,52.6730869 67.2,52.6730869 C68.4281634,52.6730869 69.4279802,53.6729036 69.4279802,54.9005335 C69.4279802,56.1292304 68.4281634,57.1279802 67.2,57.1279802 M53.925,40.1063826 L51.9347804,40.1063826 L51.9347804,36.1686174 L53.925,36.1686174 L53.925,34.2 L28.05,34.2 L28.05,36.1686174 L30.0407559,36.1686174 L30.0407559,40.1063826 L28.05,40.1063826 L28.05,42.075 L53.925,42.075 L53.925,40.1063826 Z M34.0211951,40.1063826 L32.0309755,40.1063826 L32.0309755,36.1686174 L34.0211951,36.1686174 L34.0211951,40.1063826 Z M38.0016343,40.1063826 L36.0114147,40.1063826 L36.0114147,36.1686174 L38.0016343,36.1686174 L38.0016343,40.1063826 Z M41.9826098,40.1063826 L39.9923902,40.1063826 L39.9923902,36.1686174 L41.9826098,36.1686174 L41.9826098,40.1063826 Z M45.9635853,40.1063826 L43.9728294,40.1063826 L43.9728294,36.1686174 L45.9635853,36.1686174 L45.9635853,40.1063826 Z M49.9445608,40.1063826 L47.9538049,40.1063826 L47.9538049,36.1686174 L49.9445608,36.1686174 L49.9445608,40.1063826 Z M62.076235,40.1019643 L58.10493,40.1019643 L58.10493,36.1210713 L62.076235,36.1210713 L62.076235,40.1019643 Z M64.06162,44.0828573 L64.06162,36.1210713 L66.047005,36.1210713 L70.01831,36.1210713 L72.003695,36.1210713 L72.99612,44.0828573 L64.06162,44.0828573 L64.06162,44.0828573 Z" id="Shape" fill="#4D70B8" fill-rule="nonzero" transform="translate(51.900000, 45.000000) scale(-1, 1) translate(-51.900000, -45.000000) "></path>
                    </g>
                </g>
                <g id="Rod-or-not-Rod-Switch" transform="translate(0.000000, 320.000000)">
                    <g id="Switch-Copy" transform="translate(114.500000, 52.000000) scale(-1, 1) translate(-114.500000, -52.000000) ">
                        <path d="M177.177419,2.5 L51.8225806,2.5 C24.6296282,2.5 2.5,24.705391 2.5,52 C2.5,79.294609 24.6296282,101.5 51.8225806,101.5 L177.177419,101.5 C204.370372,101.5 226.5,79.294609 226.5,52 C226.5,24.705391 204.370372,2.5 177.177419,2.5 Z" id="Shape-Copy-2" stroke="#FFFFFF" stroke-width="5" fill-rule="nonzero"></path>
                        <path d="M177.177419,91.7647059 C155.29,91.7647059 137.548387,73.9623529 137.548387,52 C137.548387,30.0376471 155.29,12.2352941 177.177419,12.2352941 C199.064839,12.2352941 216.806452,30.0376471 216.806452,52 C216.806452,73.9623529 199.064839,91.7647059 177.177419,91.7647059 Z" id="Path" fill="#FFFFFF"></path>
                    </g>
                    <g id="Add-Ground-On-Action" transform="translate(133.000000, 5.000000)" fill="#FFFFFF">
                        <rect id="Rectangle-2" opacity="0" x="0" y="0" width="90" height="90"></rect>
                        <path d="M46.2569926,43.2693806 C46.2628639,43.2046557 46.2658638,43.1391017 46.2658638,43.072847 L46.2658638,25.5478491 C46.2658638,24.3616248 45.304239,23.4 44.1180147,23.4 C42.9317904,23.4 41.9701656,24.3616248 41.9701656,25.5478491 L41.9701656,43.072847 C41.9701656,43.1391017 41.9731655,43.2046557 41.9790368,43.2693806 L23.7478491,43.2693806 C22.5616248,43.2693806 21.6,44.2310054 21.6,45.4172297 C21.6,46.603454 22.5616248,47.5650788 23.7478491,47.5650788 L64.5083185,47.5650788 C65.6945428,47.5650788 66.6561676,46.603454 66.6561676,45.4172297 C66.6561676,44.2310054 65.6945428,43.2693806 64.5083185,43.2693806 L46.2569926,43.2693806 Z M29.1049951,54.4527294 C27.9187707,54.4527294 26.9571459,53.4911046 26.9571459,52.3048803 C26.9571459,51.118656 27.9187707,50.1570312 29.1049951,50.1570312 L59.1557013,50.1570312 C60.3419256,50.1570312 61.3035504,51.118656 61.3035504,52.3048803 C61.3035504,53.4911046 60.3419256,54.4527294 59.1557013,54.4527294 L29.1049951,54.4527294 Z M34.5732138,61.3181981 C33.3869895,61.3181981 32.4253647,60.3565733 32.4253647,59.170349 C32.4253647,57.9841247 33.3869895,57.0224999 34.5732138,57.0224999 L53.6617073,57.0224999 C54.8479316,57.0224999 55.8095564,57.9841247 55.8095564,59.170349 C55.8095564,60.3565733 54.8479316,61.3181981 53.6617073,61.3181981 L34.5732138,61.3181981 Z M40.2253625,68.1918565 C39.0391382,68.1918565 38.0775134,67.2302317 38.0775134,66.0440074 C38.0775134,64.8577831 39.0391382,63.8961583 40.2253625,63.8961583 L47.9992017,63.8961583 C49.185426,63.8961583 50.1470508,64.8577831 50.1470508,66.0440074 C50.1470508,67.2302317 49.185426,68.1918565 47.9992017,68.1918565 L40.2253625,68.1918565 Z" id="Combined-Shape" fill-rule="nonzero"></path>
                    </g>
                    <g id="Ground-Off" transform="translate(5.000000, 5.000000)">
                        <rect id="Rectangle-2" x="0" y="0" width="90" height="90"></rect>
                        <path d="M55.1228341,47.6874027 L52.5284873,50.2817495 L60.32539,50.2817495 C61.5117152,50.2817495 62.4734218,51.2442627 62.4734218,52.4315828 C62.4734218,53.618903 61.5117152,54.5814162 60.32539,54.5814162 L48.2288206,54.5814162 L45.6566762,57.1535606 L54.8309285,57.1535606 C56.0172538,57.1535606 56.9789604,58.1160737 56.9789604,59.3033939 C56.9789604,60.490714 56.0172538,61.4532272 54.8309285,61.4532272 L41.3570096,61.4532272 L36.0047335,66.8055033 C35.1658748,67.644362 33.805246,67.6437916 32.9656839,66.8042295 C32.1261217,65.9646674 32.1255514,64.6040385 32.96441,63.7651799 L61.7888668,34.9407232 C62.6277254,34.1018645 63.9883543,34.1024348 64.8279164,34.941997 C65.6674785,35.7815591 65.6680488,37.142188 64.8291902,37.9810466 L59.4225007,43.3877361 L65.6784626,43.3877361 C66.8647879,43.3877361 67.8264945,44.3502492 67.8264945,45.5375694 C67.8264945,46.7248895 66.8647879,47.6874027 65.6784626,47.6874027 L55.1228341,47.6874027 Z M43.8967358,47.6874027 L24.914525,47.6874027 C23.7281997,47.6874027 22.7664931,46.7248895 22.7664931,45.5375694 C22.7664931,44.3502492 23.7281997,43.3877361 24.914525,43.3877361 L43.147264,43.3877361 C43.1413921,43.3229514 43.138392,43.2573368 43.138392,43.1910209 L43.138392,25.6498333 C43.138392,24.4625132 44.1000986,23.5 45.2864238,23.5 C46.4727491,23.5 47.4344557,24.4625132 47.4344557,25.6498333 L47.4344557,43.1910209 C47.4344557,43.2573368 47.4314556,43.3229514 47.4255837,43.3877361 L48.1964024,43.3877361 L43.8967358,47.6874027 Z M41.302389,50.2817495 L37.0027223,54.5814162 L30.2721268,54.5814162 C29.0858015,54.5814162 28.1240949,53.618903 28.1240949,52.4315828 C28.1240949,51.2442627 29.0858015,50.2817495 30.2721268,50.2817495 L41.302389,50.2817495 Z M41.3934404,68.3332356 C40.2071152,68.3332356 39.2454085,67.3707224 39.2454085,66.1834023 C39.2454085,64.9960821 40.2071152,64.0335689 41.3934404,64.0335689 L49.1679411,64.0335689 C50.3542663,64.0335689 51.3159729,64.9960821 51.3159729,66.1834023 C51.3159729,67.3707224 50.3542663,68.3332356 49.1679411,68.3332356 L41.3934404,68.3332356 Z" id="Combined-Shape" fill="#4D70B8" fill-rule="nonzero"></path>
                    </g>
                </g>
            </g>
        </g>
    </g>
</svg>