<?xml version="1.0" encoding="UTF-8"?>
<svg width="1920px" height="1080px" viewBox="0 0 1920 1080" version="1.1" xmlns="http://www.w3.org/2000/svg" xmlns:xlink="http://www.w3.org/1999/xlink">
    <!-- Generator: Sketch 46.2 (44496) - http://www.bohemiancoding.com/sketch -->
    <title>forestOnFire</title>
    <desc>Created with Sketch.</desc>
    <defs></defs>
    <g id="Actual-Slides" stroke="none" stroke-width="1" fill="none" fill-rule="evenodd">
        <g id="forestOnFire" fill-rule="nonzero">
            <g id="Group-5" transform="translate(-60.000000, 771.000000)">
                <g id="Group" transform="translate(305.000000, 0.000000)">
                    <path d="M468.927235,186.972543 L489.449577,186.972543 C491.68038,186.980558 493.73415,185.763289 494.79178,183.806219 C495.84941,181.849149 495.738834,179.470675 494.504153,177.619407 L460.452268,126.385425 L484.965065,126.385425 C488.084807,126.385275 490.952215,124.67735 492.429389,121.939422 C493.906563,119.201494 493.754626,115.87632 492.033871,113.28346 L453.763505,55.7256982 C450.772102,51.5078721 445.911441,49 440.728018,49 C435.544595,49 430.683934,51.5078721 427.692531,55.7256982 L389.422164,113.28346 C387.705122,115.870658 387.549798,119.187539 389.0176,121.922801 C390.485401,124.658063 393.340044,126.371387 396.452966,126.385425 L421.041772,126.385425 L386.837869,177.619407 C385.595213,179.482024 385.4912,181.877492 386.567764,183.840084 C387.644328,185.802677 389.724034,187.008929 391.968455,186.972543 L412.034744,186.972543 L380.453141,234.495564 C376.238333,240.817789 375.85413,248.937158 379.453242,255.626464 C383.052354,262.315769 390.051645,266.491196 397.669105,266.493136 L421.041772,266.493136 C423.140693,266.493136 424.842205,268.188497 424.842205,270.279831 L424.842205,285.42661 C424.842205,289.609278 428.24523,293 432.443073,293 L447.644807,293 C451.84265,293 455.245674,289.609278 455.245674,285.42661 L455.245674,270.279831 C455.245674,268.188497 456.947186,266.493136 459.046108,266.493136 L483.292874,266.493136 C490.917152,266.505165 497.929266,262.335165 501.537776,255.643166 C505.146286,248.951166 504.765438,240.823449 500.546843,234.495564 L468.927235,186.972543 Z" id="Shape" fill="#549764"></path>
                    <path d="M828.927235,186.972543 L849.449577,186.972543 C851.68038,186.980558 853.73415,185.763289 854.79178,183.806219 C855.84941,181.849149 855.738834,179.470675 854.504153,177.619407 L820.452268,126.385425 L844.965065,126.385425 C848.084807,126.385275 850.952215,124.67735 852.429389,121.939422 C853.906563,119.201494 853.754626,115.87632 852.033871,113.28346 L813.763505,55.7256982 C810.772102,51.5078721 805.911441,49 800.728018,49 C795.544595,49 790.683934,51.5078721 787.692531,55.7256982 L749.422164,113.28346 C747.705122,115.870658 747.549798,119.187539 749.0176,121.922801 C750.485401,124.658063 753.340044,126.371387 756.452966,126.385425 L781.041772,126.385425 L746.837869,177.619407 C745.595213,179.482024 745.4912,181.877492 746.567764,183.840084 C747.644328,185.802677 749.724034,187.008929 751.968455,186.972543 L772.034744,186.972543 L740.453141,234.495564 C736.238333,240.817789 735.85413,248.937158 739.453242,255.626464 C743.052354,262.315769 750.051645,266.491196 757.669105,266.493136 L781.041772,266.493136 C783.140693,266.493136 784.842205,268.188497 784.842205,270.279831 L784.842205,285.42661 C784.842205,289.609278 788.24523,293 792.443073,293 L807.644807,293 C811.84265,293 815.245674,289.609278 815.245674,285.42661 L815.245674,270.279831 C815.245674,268.188497 816.947186,266.493136 819.046108,266.493136 L843.292874,266.493136 C850.917152,266.505165 857.929266,262.335165 861.537776,255.643166 C865.146286,248.951166 864.765438,240.823449 860.546843,234.495564 L828.927235,186.972543 Z" id="Shape-Copy" fill="#3F7E4E"></path>
                    <path d="M1433.92724,179.972543 L1454.44958,179.972543 C1456.68038,179.980558 1458.73415,178.763289 1459.79178,176.806219 C1460.84941,174.849149 1460.73883,172.470675 1459.50415,170.619407 L1425.45227,119.385425 L1449.96506,119.385425 C1453.08481,119.385275 1455.95221,117.67735 1457.42939,114.939422 C1458.90656,112.201494 1458.75463,108.87632 1457.03387,106.28346 L1418.76351,48.7256982 C1415.7721,44.5078721 1410.91144,42 1405.72802,42 C1400.54459,42 1395.68393,44.5078721 1392.69253,48.7256982 L1354.42216,106.28346 C1352.70512,108.870658 1352.5498,112.187539 1354.0176,114.922801 C1355.4854,117.658063 1358.34004,119.371387 1361.45297,119.385425 L1386.04177,119.385425 L1351.83787,170.619407 C1350.59521,172.482024 1350.4912,174.877492 1351.56776,176.840084 C1352.64433,178.802677 1354.72403,180.008929 1356.96845,179.972543 L1377.03474,179.972543 L1345.45314,227.495564 C1341.23833,233.817789 1340.85413,241.937158 1344.45324,248.626464 C1348.05235,255.315769 1355.05165,259.491196 1362.66911,259.493136 L1386.04177,259.493136 C1388.14069,259.493136 1389.84221,261.188497 1389.84221,263.279831 L1389.84221,278.42661 C1389.84221,282.609278 1393.24523,286 1397.44307,286 L1412.64481,286 C1416.84265,286 1420.24567,282.609278 1420.24567,278.42661 L1420.24567,263.279831 C1420.24567,261.188497 1421.94719,259.493136 1424.04611,259.493136 L1448.29287,259.493136 C1455.91715,259.505165 1462.92927,255.335165 1466.53778,248.643166 C1470.14629,241.951166 1469.76544,233.823449 1465.54684,227.495564 L1433.92724,179.972543 Z" id="Shape-Copy-5" fill="#3F7E4E"></path>
                    <path d="M605.092086,84.913053 C605.929784,81.0522833 606.360845,77.1140876 606.378187,73.1631617 C606.534703,44.9003712 585.479782,21.0290965 557.468544,17.7112553 C550.57379,5.49002111 537.037341,-1.39643855 523.122097,0.238029819 C521.08716,0.466042836 519.112034,1.07005831 517.296819,2.01946495 C497.324436,12.2532413 493.08787,23.3966866 492.709605,34.0473945 C488.031244,35.0220419 483.502873,36.6152711 479.243377,38.7852539 C477.248164,39.8080266 475.789032,41.6420849 475.238662,43.8189867 C474.688291,45.9958886 475.099975,48.3048441 476.368564,50.1561164 L481.891231,58.5326519 L506.894536,96.8145558 C508.995237,99.9571612 510.36543,103.532039 510.904143,107.275749 C512.935992,120.255442 509.267206,133.481453 500.842299,143.548801 C499.588936,144.839521 499.415014,146.835745 500.426207,148.324563 L507.991504,159.998649 C508.180728,160.294821 508.333162,160.613031 508.445422,160.946221 C513.138159,173.588674 511.901728,187.676257 505.078865,199.30393 C504.213862,200.586244 504.213862,202.266738 505.078865,203.549052 L519.415102,225.456914 C520.88286,227.689408 522.148768,230.048752 523.19775,232.506849 C523.440208,233.065936 523.758424,233.588864 524.143412,234.060867 L524.143412,288.565201 C524.142017,290.956377 526.032844,292.918089 528.417805,292.999838 L549.789768,292.999838 C550.970076,293.009947 552.105512,292.547194 552.943691,291.71444 C553.781869,290.881686 554.253336,289.747937 554.253293,288.565201 L554.253293,243.7261 C556.409794,244.012217 558.584386,244.138902 560.759448,244.105129 C579.081004,243.3304 595.186126,231.707718 601.725529,214.540886 C605.137309,206.007245 605.733803,196.603449 603.427721,187.705651 C624.063293,179.190708 637.656234,159.180532 637.99358,136.821227 C638.330927,114.461922 625.347868,94.0491583 604.978607,84.913053 L605.092086,84.913053 Z" id="Shape" fill="#3F7E4E"></path>
                    <path d="M1086.64688,129.01468 C1094.97942,113.580968 1094.36241,94.0797652 1083.38066,78.9475598 C1072.78101,64.3444128 1055.36871,57.7169619 1038.7291,60.2029671 C1037.65922,57.9359807 1036.3884,55.7258823 1034.86284,53.623871 C1021.7555,35.5647786 996.56258,31.6053745 978.592704,44.7777886 C972.714072,49.0870538 968.369489,54.7075872 965.598579,60.9368222 C952.128955,52.7705512 934.546837,52.9867255 921.043249,62.8880802 C903.073373,76.0604943 899.13353,101.378494 912.243699,119.437587 C912.311628,119.531452 912.390877,119.611095 912.458806,119.70496 C911.015328,120.51277 909.591664,121.383156 908.221775,122.387229 C890.2519,135.559643 886.312056,160.877643 899.419395,178.936736 C899.883572,179.576725 900.395865,180.159827 900.891176,180.76284 C887.902711,194.666265 886.136574,216.300767 897.729677,232.272071 C907.52268,245.763057 924.0604,251.375058 939.290499,247.865069 C950.773219,259.168712 967.837384,262.325996 982.54953,256.310091 L980.973026,293 L1013.37767,293 L1011.69362,253.838308 C1017.86094,252.893967 1023.90091,250.547337 1029.29272,246.596467 C1031.63908,244.875605 1033.73353,242.938569 1035.5959,240.847935 C1048.9976,248.715544 1066.31366,248.396971 1079.65592,238.617926 C1090.32067,230.798672 1095.99835,218.698596 1096.14835,206.382346 C1099.02965,205.179165 1101.82603,203.660256 1104.45826,201.731753 C1122.42813,188.559339 1126.36797,163.241339 1113.26064,145.182247 C1106.64045,136.065946 1096.93802,130.5535 1086.64688,129.01468 Z" id="Shape-Copy-2" fill="#3F7E4E"></path>
                    <path d="M1734,126.044444 C1734,89.5511111 1704.38222,59.9333333 1667.88889,59.9333333 C1666.83111,59.9333333 1666.03778,59.9333333 1664.98,59.9333333 C1655.72444,54.9088889 1644.88222,52 1633.51111,52 C1617.64444,52 1602.83556,57.5533333 1591.46444,67.0733333 C1584.06,64.1644444 1575.86222,62.5777778 1567.4,62.5777778 C1530.90667,62.5777778 1501.28889,92.1955556 1501.28889,128.688889 C1501.28889,133.184444 1501.81778,137.68 1502.61111,142.175556 C1498.38,150.902222 1496,160.686667 1496,171 C1496,207.493333 1525.61778,237.111111 1562.11111,237.111111 C1577.18444,237.111111 1591.2,232.086667 1602.57111,223.36 L1603.62889,244.515556 C1604.15778,259.06 1603.1,273.34 1599.92667,287.62 L1599.13333,290 L1641.44444,290 L1637.47778,277.571111 C1631.92444,260.382222 1630.60222,242.135556 1632.98222,224.417778 C1643.03111,230.764444 1655.19556,234.466667 1667.88889,234.466667 C1704.38222,234.466667 1734,204.848889 1734,168.355556 C1734,160.951111 1732.67778,153.811111 1730.56222,147.2 C1732.67778,140.588889 1734,133.448889 1734,126.044444 Z" id="Shape" fill="#3F7E4E"></path>
                    <path d="M1252,123.155556 C1252,78.2288889 1220.76444,41.7666667 1182.27778,41.7666667 C1181.16222,41.7666667 1180.32556,41.7666667 1179.21,41.7666667 C1169.44889,35.5811111 1158.01444,32 1146.02222,32 C1129.28889,32 1113.67111,38.8366667 1101.67889,50.5566667 C1093.87,46.9755556 1085.22444,45.0222222 1076.3,45.0222222 C1037.81333,45.0222222 1006.57778,81.4844444 1006.57778,126.411111 C1006.57778,131.945556 1007.13556,137.48 1007.97222,143.014444 C1003.51,153.757778 1001,165.803333 1001,178.5 C1001,223.426667 1032.23556,259.888889 1070.72222,259.888889 C1086.61889,259.888889 1101.4,253.703333 1113.39222,242.96 L1114.50778,269.004444 C1115.06556,286.91 1113.95,304.49 1110.60333,322.07 L1109.76667,325 L1154.38889,325 L1150.20556,309.698889 C1144.34889,288.537778 1142.95444,266.074444 1145.46444,244.262222 C1156.06222,252.075556 1168.89111,256.633333 1182.27778,256.633333 C1220.76444,256.633333 1252,220.171111 1252,175.244444 C1252,166.128889 1250.60556,157.338889 1248.37444,149.2 C1250.60556,141.061111 1252,132.271111 1252,123.155556 Z" id="Shape-Copy-4" fill="#494949"></path>
                    <path d="M1260,129.044444 C1260,92.5511111 1230.38222,62.9333333 1193.88889,62.9333333 C1192.83111,62.9333333 1192.03778,62.9333333 1190.98,62.9333333 C1181.72444,57.9088889 1170.88222,55 1159.51111,55 C1143.64444,55 1128.83556,60.5533333 1117.46444,70.0733333 C1110.06,67.1644444 1101.86222,65.5777778 1093.4,65.5777778 C1056.90667,65.5777778 1027.28889,95.1955556 1027.28889,131.688889 C1027.28889,136.184444 1027.81778,140.68 1028.61111,145.175556 C1024.38,153.902222 1022,163.686667 1022,174 C1022,210.493333 1051.61778,240.111111 1088.11111,240.111111 C1103.18444,240.111111 1117.2,235.086667 1128.57111,226.36 L1129.62889,247.515556 C1130.15778,262.06 1129.1,276.34 1125.92667,290.62 L1125.13333,293 L1167.44444,293 L1163.47778,280.571111 C1157.92444,263.382222 1156.60222,245.135556 1158.98222,227.417778 C1169.03111,233.764444 1181.19556,237.466667 1193.88889,237.466667 C1230.38222,237.466667 1260,207.848889 1260,171.355556 C1260,163.951111 1258.67778,156.811111 1256.56222,150.2 C1258.67778,143.588889 1260,136.448889 1260,129.044444 Z" id="Shape-Copy-3" fill="#549764"></path>
                    <path d="M196.646879,129.01468 C204.979422,113.580968 204.362406,94.0797652 193.380658,78.9475598 C182.781006,64.3444128 165.368709,57.7169619 148.729096,60.2029671 C147.659225,57.9359807 146.388399,55.7258823 144.862842,53.623871 C131.755503,35.5647786 106.56258,31.6053745 88.5927041,44.7777886 C82.7140724,49.0870538 78.3694891,54.7075872 75.598579,60.9368222 C62.1289554,52.7705512 44.5468371,52.9867255 31.0432494,62.8880802 C13.0733735,76.0604943 9.13352983,101.378494 22.2436992,119.437587 C22.3116275,119.531452 22.3908773,119.611095 22.4588056,119.70496 C21.0153284,120.51277 19.5916636,121.383156 18.2217755,122.387229 C0.251899536,135.559643 -3.68794411,160.877643 9.41939492,178.936736 C9.8835719,179.576725 10.3958648,180.159827 10.8911756,180.76284 C-2.09728885,194.666265 -3.86342565,216.300767 7.72967749,232.272071 C17.5226797,245.763057 34.0603998,251.375058 49.2904994,247.865069 C60.773219,259.168712 77.8373838,262.325996 92.5495298,256.310091 L90.9730263,293 L123.377674,293 L121.693617,253.838308 C127.860945,252.893967 133.900906,250.547337 139.292718,246.596467 C141.639076,244.875605 143.733533,242.938569 145.595902,240.847935 C158.997597,248.715544 176.313663,248.396971 189.65592,238.617926 C200.32067,230.798672 205.998347,218.698596 206.148355,206.382346 C209.029649,205.179165 211.826032,203.660256 214.458255,201.731753 C232.428131,188.559339 236.367975,163.241339 223.260636,145.182247 C216.640453,136.065946 206.938022,130.5535 196.646879,129.01468 Z" id="Shape" fill="#549764"></path>
                </g>
                <path d="M130.092086,84.913053 C130.929784,81.0522833 131.360845,77.1140876 131.378187,73.1631617 C131.534703,44.9003712 110.479782,21.0290965 82.468544,17.7112553 C75.5737901,5.49002111 62.0373414,-1.39643855 48.1220973,0.238029819 C46.08716,0.466042836 44.1120344,1.07005831 42.2968189,2.01946495 C22.3244358,12.2532413 18.0878697,23.3966866 17.7096049,34.0473945 C13.0312445,35.0220419 8.50287285,36.6152711 4.24337693,38.7852539 C2.24816401,39.8080266 0.789031866,41.6420849 0.238661555,43.8189867 C-0.311708755,45.9958886 0.0999752545,48.3048441 1.36856421,50.1561164 L6.89123074,58.5326519 L31.8945361,96.8145558 C33.9952371,99.9571612 35.3654301,103.532039 35.9041433,107.275749 C37.9359917,120.255442 34.2672057,133.481453 25.8422988,143.548801 C24.5889364,144.839521 24.4150141,146.835745 25.4262075,148.324563 L32.9915041,159.998649 C33.1807283,160.294821 33.3331617,160.613031 33.4454219,160.946221 C38.1381592,173.588674 36.9017285,187.676257 30.0788649,199.30393 C29.213862,200.586244 29.213862,202.266738 30.0788649,203.549052 L44.415102,225.456914 C45.8828601,227.689408 47.1487683,230.048752 48.1977503,232.506849 C48.440208,233.065936 48.7584239,233.588864 49.1434124,234.060867 L49.1434124,288.565201 C49.1420173,290.956377 51.0328435,292.918089 53.4178049,292.999838 L74.7897679,292.999838 C75.9700764,293.009947 77.1055122,292.547194 77.9436908,291.71444 C78.7818695,290.881686 79.253336,289.747937 79.2532929,288.565201 L79.2532929,243.7261 C81.4097937,244.012217 83.5843864,244.138902 85.759448,244.105129 C104.081004,243.3304 120.186126,231.707718 126.725529,214.540886 C130.137309,206.007245 130.733803,196.603449 128.427721,187.705651 C149.063293,179.190708 162.656234,159.180532 162.99358,136.821227 C163.330927,114.461922 150.347868,94.0491583 129.978607,84.913053 L130.092086,84.913053 Z" id="Shape" fill="#3F7E4E"></path>
            </g>
            <path d="M367.721355,1034.36601 C358.78366,1015.26293 361.875131,999.444172 361.875131,999.444172 C361.875131,999.444172 344.370357,1015.44199 347.091213,1038.92419 C348.006451,1046.82563 351.308087,1055.79239 354.263967,1064.65942 C351.222213,1071.70181 345.855076,1078.76687 336.727555,1077.17797 C319.403569,1074.16109 325.417021,1060.27124 329.059894,1048.26267 C332.702768,1036.25184 323.674679,1026.6595 323.674679,1026.6595 C323.674679,1026.6595 315.536971,1047.50109 308.596981,1031.26981 C301.656991,1015.03853 337.473304,998.263262 333.288068,974.135073 C329.105091,950.006883 312.490697,934 312.490697,934 C312.490697,934 323.231749,948.998237 316.28724,967.949462 C309.342731,986.900687 295.828846,985.187121 283.259578,1008.20693 C270.69031,1031.22674 289.320487,1051.97313 280.446069,1056.99143 C262.157128,1067.3363 265.601134,1029.88944 265.601134,1029.88944 C265.601134,1029.88944 242.7925,1057.62382 264.087037,1101.11576 C287.049341,1148.0167 340.743303,1137.07798 343.504836,1136.47959 C359.787032,1134.4827 375.246645,1123.58252 383.549322,1102.6616 C399.350172,1062.83705 376.659049,1053.4691 367.721355,1034.36601 Z" id="Shape" fill="#FDA066"></path>
            <path d="M1320.72135,830.366014 C1311.78366,811.262926 1314.87513,795.444172 1314.87513,795.444172 C1314.87513,795.444172 1297.37036,811.441989 1300.09121,834.924191 C1301.00645,842.825635 1304.30809,851.792391 1307.26397,860.659415 C1304.22221,867.701809 1298.85508,874.766869 1289.72755,873.177967 C1272.40357,870.161094 1278.41702,856.271235 1282.05989,844.262673 C1285.70277,832.251844 1276.67468,822.6595 1276.67468,822.6595 C1276.67468,822.6595 1268.53697,843.501088 1261.59698,827.269809 C1254.65699,811.03853 1290.4733,794.263262 1286.28807,770.135073 C1282.10509,746.006883 1265.4907,730 1265.4907,730 C1265.4907,730 1276.23175,744.998237 1269.28724,763.949462 C1262.34273,782.900687 1248.82885,781.187121 1236.25958,804.206932 C1223.69031,827.226743 1242.32049,847.973133 1233.44607,852.991433 C1215.15713,863.336295 1218.60113,825.889436 1218.60113,825.889436 C1218.60113,825.889436 1195.7925,853.623821 1217.08704,897.115761 C1240.04934,944.016699 1293.7433,933.077982 1296.50484,932.479594 C1312.78703,930.4827 1328.24664,919.582516 1336.54932,898.661597 C1352.35017,858.837051 1329.65905,849.469103 1320.72135,830.366014 Z" id="Shape-Copy-6" fill="#FDA066"></path>
            <path d="M1122.72135,932.366014 C1113.78366,913.262926 1116.87513,897.444172 1116.87513,897.444172 C1116.87513,897.444172 1099.37036,913.441989 1102.09121,936.924191 C1103.00645,944.825635 1106.30809,953.792391 1109.26397,962.659415 C1106.22221,969.701809 1100.85508,976.766869 1091.72755,975.177967 C1074.40357,972.161094 1080.41702,958.271235 1084.05989,946.262673 C1087.70277,934.251844 1078.67468,924.6595 1078.67468,924.6595 C1078.67468,924.6595 1070.53697,945.501088 1063.59698,929.269809 C1056.65699,913.03853 1092.4733,896.263262 1088.28807,872.135073 C1084.10509,848.006883 1067.4907,832 1067.4907,832 C1067.4907,832 1078.23175,846.998237 1071.28724,865.949462 C1064.34273,884.900687 1050.82885,883.187121 1038.25958,906.206932 C1025.69031,929.226743 1044.32049,949.973133 1035.44607,954.991433 C1017.15713,965.336295 1020.60113,927.889436 1020.60113,927.889436 C1020.60113,927.889436 997.7925,955.623821 1019.08704,999.115761 C1042.04934,1046.0167 1095.7433,1035.07798 1098.50484,1034.47959 C1114.78703,1032.4827 1130.24664,1021.58252 1138.54932,1000.6616 C1154.35017,960.837051 1131.65905,951.469103 1122.72135,932.366014 Z" id="Shape-Copy-9" fill="#FDA066"></path>
            <path d="M1193.54958,923.894657 C1187.47995,910.971979 1189.57938,900.271057 1189.57938,900.271057 C1189.57938,900.271057 1177.69181,911.09311 1179.53955,926.978129 C1180.1611,932.323223 1182.40325,938.38897 1184.4106,944.387251 C1182.34494,949.151224 1178.70009,953.930529 1172.50155,952.855684 C1160.73675,950.814858 1164.82051,941.418777 1167.29441,933.295337 C1169.7683,925.170365 1163.63728,918.681427 1163.63728,918.681427 C1163.63728,918.681427 1158.11093,932.780148 1153.39795,921.800165 C1148.68497,910.820182 1173.00799,899.472207 1170.16578,883.150196 C1167.3251,866.828186 1156.04219,856 1156.04219,856 C1156.04219,856 1163.33649,866.145866 1158.62044,878.965812 C1153.90439,891.785759 1144.72705,890.626582 1136.19121,906.198807 C1127.65536,921.771032 1140.3072,935.805354 1134.28054,939.200087 C1121.86044,946.198082 1124.19928,920.866383 1124.19928,920.866383 C1124.19928,920.866383 1108.70983,939.627879 1123.17105,969.048897 C1138.76485,1000.776 1175.22866,993.376282 1177.10403,992.97149 C1188.16134,991.62065 1198.66003,984.246996 1204.29842,970.094609 C1215.02885,943.154476 1199.6192,936.817334 1193.54958,923.894657 Z" id="Shape-Copy-10" fill="#FDA066" transform="translate(1162.500000, 925.000000) scale(-1, 1) translate(-1162.500000, -925.000000) "></path>
            <path d="M420.549577,797.894657 C414.479948,784.971979 416.57938,774.271057 416.57938,774.271057 C416.57938,774.271057 404.69181,785.09311 406.539555,800.978129 C407.161097,806.323223 409.403253,812.38897 411.410604,818.387251 C409.344936,823.151224 405.700089,827.930529 399.501548,826.855684 C387.736752,824.814858 391.820514,815.418777 394.294406,807.295337 C396.768297,799.170365 390.637282,792.681427 390.637282,792.681427 C390.637282,792.681427 385.110928,806.780148 380.39795,795.800165 C375.684972,784.820182 400.00799,773.472207 397.165777,757.150196 C394.325099,740.828186 383.04219,730 383.04219,730 C383.04219,730 390.336487,740.145866 385.620439,752.965812 C380.904392,765.785759 371.727052,764.626582 363.191206,780.198807 C354.65536,795.771032 367.307197,809.805354 361.280539,813.200087 C348.860438,820.198082 351.199278,794.866383 351.199278,794.866383 C351.199278,794.866383 335.709832,813.627879 350.171048,843.048897 C365.764851,874.776002 402.228661,867.376282 404.10403,866.97149 C415.161343,865.62065 425.660035,858.246996 431.29842,844.094609 C442.028848,817.154476 426.619205,810.817334 420.549577,797.894657 Z" id="Shape-Copy-11" fill="#FDA066" transform="translate(389.500000, 799.000000) scale(-1, 1) translate(-389.500000, -799.000000) "></path>
            <path d="M808.721355,992.366014 C799.78366,973.262926 802.875131,957.444172 802.875131,957.444172 C802.875131,957.444172 785.370357,973.441989 788.091213,996.924191 C789.006451,1004.82563 792.308087,1013.79239 795.263967,1022.65942 C792.222213,1029.70181 786.855076,1036.76687 777.727555,1035.17797 C760.403569,1032.16109 766.417021,1018.27124 770.059894,1006.26267 C773.702768,994.251844 764.674679,984.6595 764.674679,984.6595 C764.674679,984.6595 756.536971,1005.50109 749.596981,989.269809 C742.656991,973.03853 778.473304,956.263262 774.288068,932.135073 C770.105091,908.006883 753.490697,892 753.490697,892 C753.490697,892 764.231749,906.998237 757.28724,925.949462 C750.342731,944.900687 736.828846,943.187121 724.259578,966.206932 C711.69031,989.226743 730.320487,1009.97313 721.446069,1014.99143 C703.157128,1025.3363 706.601134,987.889436 706.601134,987.889436 C706.601134,987.889436 683.7925,1015.62382 705.087037,1059.11576 C728.049341,1106.0167 781.743303,1095.07798 784.504836,1094.47959 C800.787032,1092.4827 816.246645,1081.58252 824.549322,1060.6616 C840.350172,1020.83705 817.659049,1011.4691 808.721355,992.366014 Z" id="Shape-Copy-7" fill="#FDA066"></path>
            <path d="M90.7213547,932.366014 C81.7836604,913.262926 84.8751309,897.444172 84.8751309,897.444172 C84.8751309,897.444172 67.370357,913.441989 70.0912126,936.924191 C71.0064506,944.825635 74.3080869,953.792391 77.2639666,962.659415 C74.2222127,969.701809 68.8550764,976.766869 59.7275549,975.177967 C42.4035688,972.161094 48.4170213,958.271235 52.0598945,946.262673 C55.7027676,934.251844 46.6746794,924.6595 46.6746794,924.6595 C46.6746794,924.6595 38.5369708,945.501088 31.596981,929.269809 C24.6569913,913.03853 60.4733044,896.263262 56.288068,872.135073 C52.1050914,848.006883 35.4906972,832 35.4906972,832 C35.4906972,832 46.2317494,846.998237 39.2872399,865.949462 C32.3427305,884.900687 18.8288462,883.187121 6.25957792,906.206932 C-6.30969038,929.226743 12.3204872,949.973133 3.44606856,954.991433 C-14.8428722,965.336295 -11.3988655,927.889436 -11.3988655,927.889436 C-11.3988655,927.889436 -34.2075,955.623821 -12.9129629,999.115761 C10.0493411,1046.0167 63.7433028,1035.07798 66.5048357,1034.47959 C82.7870324,1032.4827 98.2466448,1021.58252 106.549322,1000.6616 C122.350172,960.837051 99.6590491,951.469103 90.7213547,932.366014 Z" id="Shape-Copy-8" fill="#FDA066" transform="translate(45.000000, 934.000000) scale(-1, 1) translate(-45.000000, -934.000000) "></path>
        </g>
    </g>
</svg>