<?xml version="1.0" encoding="UTF-8"?>
<svg width="1920px" height="1080px" viewBox="0 0 1920 1080" version="1.1" xmlns="http://www.w3.org/2000/svg" xmlns:xlink="http://www.w3.org/1999/xlink">
    <!-- Generator: Sketch 46.2 (44496) - http://www.bohemiancoding.com/sketch -->
    <title>login04</title>
    <desc>Created with Sketch.</desc>
    <defs>
        <rect id="path-1" x="0" y="0" width="50" height="270"></rect>
        <rect id="path-3" x="0" y="0" width="50" height="270"></rect>
        <rect id="path-5" x="0" y="0" width="50" height="270"></rect>
        <rect id="path-7" x="0" y="0" width="50" height="270"></rect>
        <rect id="path-9" x="0" y="0" width="50" height="270"></rect>
        <rect id="path-11" x="0" y="0" width="50" height="270"></rect>
        <rect id="path-13" x="0" y="0" width="50" height="270"></rect>
        <rect id="path-15" x="0" y="0" width="50" height="270"></rect>
        <rect id="path-17" x="0" y="0" width="50" height="270"></rect>
        <rect id="path-19" x="0" y="0" width="50" height="270"></rect>
        <rect id="path-21" x="66" y="310" width="460" height="460"></rect>
        <mask id="mask-22" maskContentUnits="userSpaceOnUse" maskUnits="objectBoundingBox" x="0" y="0" width="460" height="460" fill="white">
            <use xlink:href="#path-21"></use>
        </mask>
        <rect id="path-23" x="0.535714286" y="0.0357142857" width="164.285714" height="82.1428571"></rect>
        <rect id="path-24" x="14" y="75" width="23" height="24"></rect>
    </defs>
    <g id="Actual-Slides" stroke="none" stroke-width="1" fill="none" fill-rule="evenodd">
        <g id="login04">
            <g id="Top-Arrow" transform="translate(495.000000, 183.000000)">
                <polyline id="Path-12" stroke="#FFFFFF" stroke-width="6" points="0.0200195312 0.162597656 249.937515 0.162597656 249.937515 91.3686523"></polyline>
                <polygon id="Shape" fill="#FFFFFF" fill-rule="nonzero" transform="translate(249.937515, 82.195018) scale(-1, 1) translate(-249.937515, -82.195018) " points="249.9375 99.3900367 251.875 97.7025367 272.87503 79.7025367 269.00003 75.1713367 252.93753 88.9525367 252.93753 65 246.9375 65 246.9375 88.9525367 230.875 75.1713367 227 79.7025367 248 97.7025367"></polygon>
            </g>
            <g id="All-Borders" transform="translate(590.000000, 0.000000)">
                <g id="Borders-Copy" transform="translate(690.000000, 0.000000)">
                    <g id="Lines-Copy">
                        <mask id="mask-2" fill="white">
                            <use xlink:href="#path-1"></use>
                        </mask>
                        <use id="Mask" fill="#1E1E1E" xlink:href="#path-1"></use>
                        <g id="Group-2" mask="url(#mask-2)" fill="#FFE859">
                            <g transform="translate(-224.000000, -36.000000)">
                                <rect id="Rectangle-3" transform="translate(367.265677, 185.487836) rotate(-45.000000) translate(-367.265677, -185.487836) " x="158.585677" y="163.15713" width="417.36" height="44.6614126"></rect>
                                <rect id="Rectangle-3-Copy" transform="translate(276.157984, 163.807539) rotate(-45.000000) translate(-276.157984, -163.807539) " x="67.4779843" y="141.476832" width="417.36" height="44.6614126"></rect>
                                <rect id="Rectangle-3-Copy-2" transform="translate(163.357984, 163.807539) rotate(-45.000000) translate(-163.357984, -163.807539) " x="-45.3220157" y="141.476832" width="417.36" height="44.6614126"></rect>
                                <rect id="Rectangle-3" transform="translate(480.065677, 185.487836) rotate(-45.000000) translate(-480.065677, -185.487836) " x="271.385677" y="163.15713" width="417.36" height="44.6614126"></rect>
                                <rect id="Rectangle-3-Copy" transform="translate(388.957984, 163.807539) rotate(-45.000000) translate(-388.957984, -163.807539) " x="180.277984" y="141.476832" width="417.36" height="44.6614126"></rect>
                                <rect id="Rectangle-3-Copy-2" transform="translate(276.157984, 163.807539) rotate(-45.000000) translate(-276.157984, -163.807539) " x="67.4779843" y="141.476832" width="417.36" height="44.6614126"></rect>
                                <rect id="Rectangle-3" transform="translate(592.865677, 185.487836) rotate(-45.000000) translate(-592.865677, -185.487836) " x="384.185677" y="163.15713" width="417.36" height="44.6614126"></rect>
                                <rect id="Rectangle-3-Copy-3" transform="translate(701.327215, 185.487836) rotate(-45.000000) translate(-701.327215, -185.487836) " x="492.647215" y="163.15713" width="417.36" height="44.6614126"></rect>
                                <rect id="Rectangle-3-Copy" transform="translate(501.757984, 163.807539) rotate(-45.000000) translate(-501.757984, -163.807539) " x="293.077984" y="141.476832" width="417.36" height="44.6614126"></rect>
                                <rect id="Rectangle-3-Copy-2" transform="translate(388.957984, 163.807539) rotate(-45.000000) translate(-388.957984, -163.807539) " x="180.277984" y="141.476832" width="417.36" height="44.6614126"></rect>
                            </g>
                        </g>
                    </g>
                    <g id="Lines-Copy-2" transform="translate(0.000000, 226.000000)">
                        <mask id="mask-4" fill="white">
                            <use xlink:href="#path-3"></use>
                        </mask>
                        <use id="Mask" fill="#1E1E1E" xlink:href="#path-3"></use>
                        <g id="Group-2" mask="url(#mask-4)" fill="#FFE859">
                            <g transform="translate(-223.864615, -36.529294)">
                                <rect id="Rectangle-3" transform="translate(367.265677, 185.487836) rotate(-45.000000) translate(-367.265677, -185.487836) " x="158.585677" y="163.15713" width="417.36" height="44.6614126"></rect>
                                <rect id="Rectangle-3-Copy" transform="translate(276.157984, 163.807539) rotate(-45.000000) translate(-276.157984, -163.807539) " x="67.4779843" y="141.476832" width="417.36" height="44.6614126"></rect>
                                <rect id="Rectangle-3-Copy-2" transform="translate(163.357984, 163.807539) rotate(-45.000000) translate(-163.357984, -163.807539) " x="-45.3220157" y="141.476832" width="417.36" height="44.6614126"></rect>
                                <rect id="Rectangle-3" transform="translate(480.065677, 185.487836) rotate(-45.000000) translate(-480.065677, -185.487836) " x="271.385677" y="163.15713" width="417.36" height="44.6614126"></rect>
                                <rect id="Rectangle-3-Copy" transform="translate(388.957984, 163.807539) rotate(-45.000000) translate(-388.957984, -163.807539) " x="180.277984" y="141.476832" width="417.36" height="44.6614126"></rect>
                                <rect id="Rectangle-3-Copy-2" transform="translate(276.157984, 163.807539) rotate(-45.000000) translate(-276.157984, -163.807539) " x="67.4779843" y="141.476832" width="417.36" height="44.6614126"></rect>
                                <rect id="Rectangle-3" transform="translate(592.865677, 185.487836) rotate(-45.000000) translate(-592.865677, -185.487836) " x="384.185677" y="163.15713" width="417.36" height="44.6614126"></rect>
                                <rect id="Rectangle-3-Copy-3" transform="translate(701.327215, 185.487836) rotate(-45.000000) translate(-701.327215, -185.487836) " x="492.647215" y="163.15713" width="417.36" height="44.6614126"></rect>
                                <rect id="Rectangle-3-Copy" transform="translate(501.757984, 163.807539) rotate(-45.000000) translate(-501.757984, -163.807539) " x="293.077984" y="141.476832" width="417.36" height="44.6614126"></rect>
                                <rect id="Rectangle-3-Copy-2" transform="translate(388.957984, 163.807539) rotate(-45.000000) translate(-388.957984, -163.807539) " x="180.277984" y="141.476832" width="417.36" height="44.6614126"></rect>
                            </g>
                        </g>
                    </g>
                    <g id="Lines-Copy-4" transform="translate(0.000000, 451.000000)">
                        <mask id="mask-6" fill="white">
                            <use xlink:href="#path-5"></use>
                        </mask>
                        <use id="Mask" fill="#1E1E1E" xlink:href="#path-5"></use>
                        <g id="Group-2" mask="url(#mask-6)" fill="#FFE859">
                            <g transform="translate(-224.000000, -36.000000)">
                                <rect id="Rectangle-3" transform="translate(367.265677, 185.487836) rotate(-45.000000) translate(-367.265677, -185.487836) " x="158.585677" y="163.15713" width="417.36" height="44.6614126"></rect>
                                <rect id="Rectangle-3-Copy" transform="translate(276.157984, 163.807539) rotate(-45.000000) translate(-276.157984, -163.807539) " x="67.4779843" y="141.476832" width="417.36" height="44.6614126"></rect>
                                <rect id="Rectangle-3-Copy-2" transform="translate(163.357984, 163.807539) rotate(-45.000000) translate(-163.357984, -163.807539) " x="-45.3220157" y="141.476832" width="417.36" height="44.6614126"></rect>
                                <rect id="Rectangle-3" transform="translate(480.065677, 185.487836) rotate(-45.000000) translate(-480.065677, -185.487836) " x="271.385677" y="163.15713" width="417.36" height="44.6614126"></rect>
                                <rect id="Rectangle-3-Copy" transform="translate(388.957984, 163.807539) rotate(-45.000000) translate(-388.957984, -163.807539) " x="180.277984" y="141.476832" width="417.36" height="44.6614126"></rect>
                                <rect id="Rectangle-3-Copy-2" transform="translate(276.157984, 163.807539) rotate(-45.000000) translate(-276.157984, -163.807539) " x="67.4779843" y="141.476832" width="417.36" height="44.6614126"></rect>
                                <rect id="Rectangle-3" transform="translate(592.865677, 185.487836) rotate(-45.000000) translate(-592.865677, -185.487836) " x="384.185677" y="163.15713" width="417.36" height="44.6614126"></rect>
                                <rect id="Rectangle-3-Copy-3" transform="translate(701.327215, 185.487836) rotate(-45.000000) translate(-701.327215, -185.487836) " x="492.647215" y="163.15713" width="417.36" height="44.6614126"></rect>
                                <rect id="Rectangle-3-Copy" transform="translate(501.757984, 163.807539) rotate(-45.000000) translate(-501.757984, -163.807539) " x="293.077984" y="141.476832" width="417.36" height="44.6614126"></rect>
                                <rect id="Rectangle-3-Copy-2" transform="translate(388.957984, 163.807539) rotate(-45.000000) translate(-388.957984, -163.807539) " x="180.277984" y="141.476832" width="417.36" height="44.6614126"></rect>
                            </g>
                        </g>
                    </g>
                    <g id="Lines-Copy-3" transform="translate(0.000000, 677.000000)">
                        <mask id="mask-8" fill="white">
                            <use xlink:href="#path-7"></use>
                        </mask>
                        <use id="Mask" fill="#1E1E1E" xlink:href="#path-7"></use>
                        <g id="Group-2" mask="url(#mask-8)" fill="#FFE859">
                            <g transform="translate(-223.864615, -36.529294)">
                                <rect id="Rectangle-3" transform="translate(367.265677, 185.487836) rotate(-45.000000) translate(-367.265677, -185.487836) " x="158.585677" y="163.15713" width="417.36" height="44.6614126"></rect>
                                <rect id="Rectangle-3-Copy" transform="translate(276.157984, 163.807539) rotate(-45.000000) translate(-276.157984, -163.807539) " x="67.4779843" y="141.476832" width="417.36" height="44.6614126"></rect>
                                <rect id="Rectangle-3-Copy-2" transform="translate(163.357984, 163.807539) rotate(-45.000000) translate(-163.357984, -163.807539) " x="-45.3220157" y="141.476832" width="417.36" height="44.6614126"></rect>
                                <rect id="Rectangle-3" transform="translate(480.065677, 185.487836) rotate(-45.000000) translate(-480.065677, -185.487836) " x="271.385677" y="163.15713" width="417.36" height="44.6614126"></rect>
                                <rect id="Rectangle-3-Copy" transform="translate(388.957984, 163.807539) rotate(-45.000000) translate(-388.957984, -163.807539) " x="180.277984" y="141.476832" width="417.36" height="44.6614126"></rect>
                                <rect id="Rectangle-3-Copy-2" transform="translate(276.157984, 163.807539) rotate(-45.000000) translate(-276.157984, -163.807539) " x="67.4779843" y="141.476832" width="417.36" height="44.6614126"></rect>
                                <rect id="Rectangle-3" transform="translate(592.865677, 185.487836) rotate(-45.000000) translate(-592.865677, -185.487836) " x="384.185677" y="163.15713" width="417.36" height="44.6614126"></rect>
                                <rect id="Rectangle-3-Copy-3" transform="translate(701.327215, 185.487836) rotate(-45.000000) translate(-701.327215, -185.487836) " x="492.647215" y="163.15713" width="417.36" height="44.6614126"></rect>
                                <rect id="Rectangle-3-Copy" transform="translate(501.757984, 163.807539) rotate(-45.000000) translate(-501.757984, -163.807539) " x="293.077984" y="141.476832" width="417.36" height="44.6614126"></rect>
                                <rect id="Rectangle-3-Copy-2" transform="translate(388.957984, 163.807539) rotate(-45.000000) translate(-388.957984, -163.807539) " x="180.277984" y="141.476832" width="417.36" height="44.6614126"></rect>
                            </g>
                        </g>
                    </g>
                    <g id="Lines-Copy-6" transform="translate(0.000000, 902.000000)">
                        <mask id="mask-10" fill="white">
                            <use xlink:href="#path-9"></use>
                        </mask>
                        <use id="Mask" fill="#1E1E1E" xlink:href="#path-9"></use>
                        <g id="Group-2" mask="url(#mask-10)" fill="#FFE859">
                            <g transform="translate(-224.000000, -36.000000)">
                                <rect id="Rectangle-3" transform="translate(367.265677, 185.487836) rotate(-45.000000) translate(-367.265677, -185.487836) " x="158.585677" y="163.15713" width="417.36" height="44.6614126"></rect>
                                <rect id="Rectangle-3-Copy" transform="translate(276.157984, 163.807539) rotate(-45.000000) translate(-276.157984, -163.807539) " x="67.4779843" y="141.476832" width="417.36" height="44.6614126"></rect>
                                <rect id="Rectangle-3-Copy-2" transform="translate(163.357984, 163.807539) rotate(-45.000000) translate(-163.357984, -163.807539) " x="-45.3220157" y="141.476832" width="417.36" height="44.6614126"></rect>
                                <rect id="Rectangle-3" transform="translate(480.065677, 185.487836) rotate(-45.000000) translate(-480.065677, -185.487836) " x="271.385677" y="163.15713" width="417.36" height="44.6614126"></rect>
                                <rect id="Rectangle-3-Copy" transform="translate(388.957984, 163.807539) rotate(-45.000000) translate(-388.957984, -163.807539) " x="180.277984" y="141.476832" width="417.36" height="44.6614126"></rect>
                                <rect id="Rectangle-3-Copy-2" transform="translate(276.157984, 163.807539) rotate(-45.000000) translate(-276.157984, -163.807539) " x="67.4779843" y="141.476832" width="417.36" height="44.6614126"></rect>
                                <rect id="Rectangle-3" transform="translate(592.865677, 185.487836) rotate(-45.000000) translate(-592.865677, -185.487836) " x="384.185677" y="163.15713" width="417.36" height="44.6614126"></rect>
                                <rect id="Rectangle-3-Copy-3" transform="translate(701.327215, 185.487836) rotate(-45.000000) translate(-701.327215, -185.487836) " x="492.647215" y="163.15713" width="417.36" height="44.6614126"></rect>
                                <rect id="Rectangle-3-Copy" transform="translate(501.757984, 163.807539) rotate(-45.000000) translate(-501.757984, -163.807539) " x="293.077984" y="141.476832" width="417.36" height="44.6614126"></rect>
                                <rect id="Rectangle-3-Copy-2" transform="translate(388.957984, 163.807539) rotate(-45.000000) translate(-388.957984, -163.807539) " x="180.277984" y="141.476832" width="417.36" height="44.6614126"></rect>
                            </g>
                        </g>
                    </g>
                </g>
                <g id="Borders">
                    <g id="Lines-Copy">
                        <mask id="mask-12" fill="white">
                            <use xlink:href="#path-11"></use>
                        </mask>
                        <use id="Mask" fill="#1E1E1E" xlink:href="#path-11"></use>
                        <g id="Group-2" mask="url(#mask-12)" fill="#FFE859">
                            <g transform="translate(-224.000000, -36.000000)">
                                <rect id="Rectangle-3" transform="translate(367.265677, 185.487836) rotate(-45.000000) translate(-367.265677, -185.487836) " x="158.585677" y="163.15713" width="417.36" height="44.6614126"></rect>
                                <rect id="Rectangle-3-Copy" transform="translate(276.157984, 163.807539) rotate(-45.000000) translate(-276.157984, -163.807539) " x="67.4779843" y="141.476832" width="417.36" height="44.6614126"></rect>
                                <rect id="Rectangle-3-Copy-2" transform="translate(163.357984, 163.807539) rotate(-45.000000) translate(-163.357984, -163.807539) " x="-45.3220157" y="141.476832" width="417.36" height="44.6614126"></rect>
                                <rect id="Rectangle-3" transform="translate(480.065677, 185.487836) rotate(-45.000000) translate(-480.065677, -185.487836) " x="271.385677" y="163.15713" width="417.36" height="44.6614126"></rect>
                                <rect id="Rectangle-3-Copy" transform="translate(388.957984, 163.807539) rotate(-45.000000) translate(-388.957984, -163.807539) " x="180.277984" y="141.476832" width="417.36" height="44.6614126"></rect>
                                <rect id="Rectangle-3-Copy-2" transform="translate(276.157984, 163.807539) rotate(-45.000000) translate(-276.157984, -163.807539) " x="67.4779843" y="141.476832" width="417.36" height="44.6614126"></rect>
                                <rect id="Rectangle-3" transform="translate(592.865677, 185.487836) rotate(-45.000000) translate(-592.865677, -185.487836) " x="384.185677" y="163.15713" width="417.36" height="44.6614126"></rect>
                                <rect id="Rectangle-3-Copy-3" transform="translate(701.327215, 185.487836) rotate(-45.000000) translate(-701.327215, -185.487836) " x="492.647215" y="163.15713" width="417.36" height="44.6614126"></rect>
                                <rect id="Rectangle-3-Copy" transform="translate(501.757984, 163.807539) rotate(-45.000000) translate(-501.757984, -163.807539) " x="293.077984" y="141.476832" width="417.36" height="44.6614126"></rect>
                                <rect id="Rectangle-3-Copy-2" transform="translate(388.957984, 163.807539) rotate(-45.000000) translate(-388.957984, -163.807539) " x="180.277984" y="141.476832" width="417.36" height="44.6614126"></rect>
                            </g>
                        </g>
                    </g>
                    <g id="Lines-Copy-2" transform="translate(0.000000, 226.000000)">
                        <mask id="mask-14" fill="white">
                            <use xlink:href="#path-13"></use>
                        </mask>
                        <use id="Mask" fill="#1E1E1E" xlink:href="#path-13"></use>
                        <g id="Group-2" mask="url(#mask-14)" fill="#FFE859">
                            <g transform="translate(-223.864615, -36.529294)">
                                <rect id="Rectangle-3" transform="translate(367.265677, 185.487836) rotate(-45.000000) translate(-367.265677, -185.487836) " x="158.585677" y="163.15713" width="417.36" height="44.6614126"></rect>
                                <rect id="Rectangle-3-Copy" transform="translate(276.157984, 163.807539) rotate(-45.000000) translate(-276.157984, -163.807539) " x="67.4779843" y="141.476832" width="417.36" height="44.6614126"></rect>
                                <rect id="Rectangle-3-Copy-2" transform="translate(163.357984, 163.807539) rotate(-45.000000) translate(-163.357984, -163.807539) " x="-45.3220157" y="141.476832" width="417.36" height="44.6614126"></rect>
                                <rect id="Rectangle-3" transform="translate(480.065677, 185.487836) rotate(-45.000000) translate(-480.065677, -185.487836) " x="271.385677" y="163.15713" width="417.36" height="44.6614126"></rect>
                                <rect id="Rectangle-3-Copy" transform="translate(388.957984, 163.807539) rotate(-45.000000) translate(-388.957984, -163.807539) " x="180.277984" y="141.476832" width="417.36" height="44.6614126"></rect>
                                <rect id="Rectangle-3-Copy-2" transform="translate(276.157984, 163.807539) rotate(-45.000000) translate(-276.157984, -163.807539) " x="67.4779843" y="141.476832" width="417.36" height="44.6614126"></rect>
                                <rect id="Rectangle-3" transform="translate(592.865677, 185.487836) rotate(-45.000000) translate(-592.865677, -185.487836) " x="384.185677" y="163.15713" width="417.36" height="44.6614126"></rect>
                                <rect id="Rectangle-3-Copy-3" transform="translate(701.327215, 185.487836) rotate(-45.000000) translate(-701.327215, -185.487836) " x="492.647215" y="163.15713" width="417.36" height="44.6614126"></rect>
                                <rect id="Rectangle-3-Copy" transform="translate(501.757984, 163.807539) rotate(-45.000000) translate(-501.757984, -163.807539) " x="293.077984" y="141.476832" width="417.36" height="44.6614126"></rect>
                                <rect id="Rectangle-3-Copy-2" transform="translate(388.957984, 163.807539) rotate(-45.000000) translate(-388.957984, -163.807539) " x="180.277984" y="141.476832" width="417.36" height="44.6614126"></rect>
                            </g>
                        </g>
                    </g>
                    <g id="Lines-Copy-4" transform="translate(0.000000, 451.000000)">
                        <mask id="mask-16" fill="white">
                            <use xlink:href="#path-15"></use>
                        </mask>
                        <use id="Mask" fill="#1E1E1E" xlink:href="#path-15"></use>
                        <g id="Group-2" mask="url(#mask-16)" fill="#FFE859">
                            <g transform="translate(-224.000000, -36.000000)">
                                <rect id="Rectangle-3" transform="translate(367.265677, 185.487836) rotate(-45.000000) translate(-367.265677, -185.487836) " x="158.585677" y="163.15713" width="417.36" height="44.6614126"></rect>
                                <rect id="Rectangle-3-Copy" transform="translate(276.157984, 163.807539) rotate(-45.000000) translate(-276.157984, -163.807539) " x="67.4779843" y="141.476832" width="417.36" height="44.6614126"></rect>
                                <rect id="Rectangle-3-Copy-2" transform="translate(163.357984, 163.807539) rotate(-45.000000) translate(-163.357984, -163.807539) " x="-45.3220157" y="141.476832" width="417.36" height="44.6614126"></rect>
                                <rect id="Rectangle-3" transform="translate(480.065677, 185.487836) rotate(-45.000000) translate(-480.065677, -185.487836) " x="271.385677" y="163.15713" width="417.36" height="44.6614126"></rect>
                                <rect id="Rectangle-3-Copy" transform="translate(388.957984, 163.807539) rotate(-45.000000) translate(-388.957984, -163.807539) " x="180.277984" y="141.476832" width="417.36" height="44.6614126"></rect>
                                <rect id="Rectangle-3-Copy-2" transform="translate(276.157984, 163.807539) rotate(-45.000000) translate(-276.157984, -163.807539) " x="67.4779843" y="141.476832" width="417.36" height="44.6614126"></rect>
                                <rect id="Rectangle-3" transform="translate(592.865677, 185.487836) rotate(-45.000000) translate(-592.865677, -185.487836) " x="384.185677" y="163.15713" width="417.36" height="44.6614126"></rect>
                                <rect id="Rectangle-3-Copy-3" transform="translate(701.327215, 185.487836) rotate(-45.000000) translate(-701.327215, -185.487836) " x="492.647215" y="163.15713" width="417.36" height="44.6614126"></rect>
                                <rect id="Rectangle-3-Copy" transform="translate(501.757984, 163.807539) rotate(-45.000000) translate(-501.757984, -163.807539) " x="293.077984" y="141.476832" width="417.36" height="44.6614126"></rect>
                                <rect id="Rectangle-3-Copy-2" transform="translate(388.957984, 163.807539) rotate(-45.000000) translate(-388.957984, -163.807539) " x="180.277984" y="141.476832" width="417.36" height="44.6614126"></rect>
                            </g>
                        </g>
                    </g>
                    <g id="Lines-Copy-3" transform="translate(0.000000, 677.000000)">
                        <mask id="mask-18" fill="white">
                            <use xlink:href="#path-17"></use>
                        </mask>
                        <use id="Mask" fill="#1E1E1E" xlink:href="#path-17"></use>
                        <g id="Group-2" mask="url(#mask-18)" fill="#FFE859">
                            <g transform="translate(-223.864615, -36.529294)">
                                <rect id="Rectangle-3" transform="translate(367.265677, 185.487836) rotate(-45.000000) translate(-367.265677, -185.487836) " x="158.585677" y="163.15713" width="417.36" height="44.6614126"></rect>
                                <rect id="Rectangle-3-Copy" transform="translate(276.157984, 163.807539) rotate(-45.000000) translate(-276.157984, -163.807539) " x="67.4779843" y="141.476832" width="417.36" height="44.6614126"></rect>
                                <rect id="Rectangle-3-Copy-2" transform="translate(163.357984, 163.807539) rotate(-45.000000) translate(-163.357984, -163.807539) " x="-45.3220157" y="141.476832" width="417.36" height="44.6614126"></rect>
                                <rect id="Rectangle-3" transform="translate(480.065677, 185.487836) rotate(-45.000000) translate(-480.065677, -185.487836) " x="271.385677" y="163.15713" width="417.36" height="44.6614126"></rect>
                                <rect id="Rectangle-3-Copy" transform="translate(388.957984, 163.807539) rotate(-45.000000) translate(-388.957984, -163.807539) " x="180.277984" y="141.476832" width="417.36" height="44.6614126"></rect>
                                <rect id="Rectangle-3-Copy-2" transform="translate(276.157984, 163.807539) rotate(-45.000000) translate(-276.157984, -163.807539) " x="67.4779843" y="141.476832" width="417.36" height="44.6614126"></rect>
                                <rect id="Rectangle-3" transform="translate(592.865677, 185.487836) rotate(-45.000000) translate(-592.865677, -185.487836) " x="384.185677" y="163.15713" width="417.36" height="44.6614126"></rect>
                                <rect id="Rectangle-3-Copy-3" transform="translate(701.327215, 185.487836) rotate(-45.000000) translate(-701.327215, -185.487836) " x="492.647215" y="163.15713" width="417.36" height="44.6614126"></rect>
                                <rect id="Rectangle-3-Copy" transform="translate(501.757984, 163.807539) rotate(-45.000000) translate(-501.757984, -163.807539) " x="293.077984" y="141.476832" width="417.36" height="44.6614126"></rect>
                                <rect id="Rectangle-3-Copy-2" transform="translate(388.957984, 163.807539) rotate(-45.000000) translate(-388.957984, -163.807539) " x="180.277984" y="141.476832" width="417.36" height="44.6614126"></rect>
                            </g>
                        </g>
                    </g>
                    <g id="Lines-Copy-6" transform="translate(0.000000, 902.000000)">
                        <mask id="mask-20" fill="white">
                            <use xlink:href="#path-19"></use>
                        </mask>
                        <use id="Mask" fill="#1E1E1E" xlink:href="#path-19"></use>
                        <g id="Group-2" mask="url(#mask-20)" fill="#FFE859">
                            <g transform="translate(-224.000000, -36.000000)">
                                <rect id="Rectangle-3" transform="translate(367.265677, 185.487836) rotate(-45.000000) translate(-367.265677, -185.487836) " x="158.585677" y="163.15713" width="417.36" height="44.6614126"></rect>
                                <rect id="Rectangle-3-Copy" transform="translate(276.157984, 163.807539) rotate(-45.000000) translate(-276.157984, -163.807539) " x="67.4779843" y="141.476832" width="417.36" height="44.6614126"></rect>
                                <rect id="Rectangle-3-Copy-2" transform="translate(163.357984, 163.807539) rotate(-45.000000) translate(-163.357984, -163.807539) " x="-45.3220157" y="141.476832" width="417.36" height="44.6614126"></rect>
                                <rect id="Rectangle-3" transform="translate(480.065677, 185.487836) rotate(-45.000000) translate(-480.065677, -185.487836) " x="271.385677" y="163.15713" width="417.36" height="44.6614126"></rect>
                                <rect id="Rectangle-3-Copy" transform="translate(388.957984, 163.807539) rotate(-45.000000) translate(-388.957984, -163.807539) " x="180.277984" y="141.476832" width="417.36" height="44.6614126"></rect>
                                <rect id="Rectangle-3-Copy-2" transform="translate(276.157984, 163.807539) rotate(-45.000000) translate(-276.157984, -163.807539) " x="67.4779843" y="141.476832" width="417.36" height="44.6614126"></rect>
                                <rect id="Rectangle-3" transform="translate(592.865677, 185.487836) rotate(-45.000000) translate(-592.865677, -185.487836) " x="384.185677" y="163.15713" width="417.36" height="44.6614126"></rect>
                                <rect id="Rectangle-3-Copy-3" transform="translate(701.327215, 185.487836) rotate(-45.000000) translate(-701.327215, -185.487836) " x="492.647215" y="163.15713" width="417.36" height="44.6614126"></rect>
                                <rect id="Rectangle-3-Copy" transform="translate(501.757984, 163.807539) rotate(-45.000000) translate(-501.757984, -163.807539) " x="293.077984" y="141.476832" width="417.36" height="44.6614126"></rect>
                                <rect id="Rectangle-3-Copy-2" transform="translate(388.957984, 163.807539) rotate(-45.000000) translate(-388.957984, -163.807539) " x="180.277984" y="141.476832" width="417.36" height="44.6614126"></rect>
                            </g>
                        </g>
                    </g>
                </g>
            </g>
            <g id="Login-Form">
                <rect id="Rectangle" fill="#FFFFFF" x="0" y="0" width="590" height="1080"></rect>
                <use id="Rectangle-2-Copy" stroke="#1E1E1E" mask="url(#mask-22)" stroke-width="10" stroke-dasharray="25" xlink:href="#path-21"></use>
                <g id="Password" transform="translate(131.642857, 490.357143)">
                    <path d="M52.0952381,39.2380952 L50.452381,39.2380952 L50.452381,34.5833333 C50.452381,29.2993571 46.1530238,25 40.8690476,25 C35.5850714,25 31.2857143,29.2993571 31.2857143,34.5833333 L31.2857143,39.2380952 L30.1904762,39.2380952 C28.9807857,39.2380952 28,40.218881 28,41.4285714 L28,55.6666667 C28,56.8763571 28.9807857,57.8571429 30.1904762,57.8571429 L52.0952381,57.8571429 C53.3049286,57.8571429 54.2857143,56.8763571 54.2857143,55.6666667 L54.2857143,41.4285714 C54.2857143,40.218881 53.3049286,39.2380952 52.0952381,39.2380952 Z M42.7857143,50.7380952 C42.7857143,51.6455 42.0502619,52.3809524 41.1428571,52.3809524 C40.2354524,52.3809524 39.5,51.6455 39.5,50.7380952 L39.5,46.3571429 C39.5,45.4497381 40.2354524,44.7142857 41.1428571,44.7142857 C42.0502619,44.7142857 42.7857143,45.4497381 42.7857143,46.3571429 L42.7857143,50.7380952 Z M34.5714286,39.2380952 L34.5714286,34.5833333 C34.5714286,31.110881 37.3965952,28.2857143 40.8690476,28.2857143 C44.3415,28.2857143 47.1666667,31.110881 47.1666667,34.5833333 L47.1666667,39.2380952 L34.5714286,39.2380952 Z" id="Shape" fill="#1E1E1E" fill-rule="nonzero"></path>
                    <rect id="Rectangle-2-Copy-3" stroke="#1E1E1E" stroke-width="5" x="2.57142857" y="2.85714286" width="323.571429" height="77.1428571"></rect>
                </g>
                <g id="User-Name" transform="translate(131.357143, 375.357143)">
                    <path d="M57.8563086,57.8565011 L57.8563086,54.4091323 C57.8563086,52.7345731 56.7734347,51.3128599 55.2704129,50.8094782 L55.2704129,50.8094782 C55.1520759,50.7693694 47.4585631,48.8041657 46.3576563,46.6182031 C45.8553655,45.6194615 46.3506613,44.3401507 46.8519894,43.4577567 C47.081476,43.1488867 47.3060212,42.822048 47.5217746,42.4791016 C47.5217746,42.4771122 47.5217746,42.4771122 47.5217746,42.4771122 L47.5217746,42.4771122 C48.8253432,40.3915179 49.8200419,37.6482031 49.9211802,34.2571791 C50.0735938,29.1556585 46.1260519,25.012514 41.4396735,25.0005134 L41.4396735,25.0005134 C41.4356306,25.0005134 41.4326786,25.0005134 41.4286356,25.0005134 C41.4255552,25.0005134 41.4216406,25.0005134 41.4175335,25.0005134 L41.4175335,25.0005134 C36.7320536,25.012514 32.7845759,29.1556585 32.937952,34.2573075 C33.0392188,37.6483956 34.0329548,40.3917104 35.3363309,42.4772405 L35.3363309,42.4772405 C35.3363309,42.4772405 35.3374219,42.4772405 35.3374219,42.4792299 C35.5520201,42.8221763 35.7766295,43.1490792 36.0061802,43.457885 C36.5075725,44.340279 37.0028041,45.619654 36.5005134,46.6183315 C35.400505,48.8041657 27.7060296,50.7694978 27.5876925,50.8096066 L27.5876925,50.8096066 C26.0847349,51.3131166 25.0007701,52.7347015 25.0007701,54.409389 L25.0007701,57.8566295 L57.8563086,57.8565011 L57.8563086,57.8565011 Z" id="Shape" fill="#1E1E1E" fill-rule="nonzero"></path>
                    <rect id="Rectangle-2-Copy-2" stroke="#1E1E1E" stroke-width="5" x="3.14285714" y="3.14285714" width="323.571429" height="77.1428571"></rect>
                </g>
                <g id="Login-Button" transform="translate(295.464286, 622.107143)">
                    <g id="Rectangle-2-Copy-4">
                        <use fill="#1E1E1E" fill-rule="evenodd" xlink:href="#path-23"></use>
                        <rect stroke="#1E1E1E" stroke-width="5" x="3.03571429" y="2.53571429" width="159.285714" height="77.1428571"></rect>
                    </g>
                    <path d="M40.922115,41.6557876 C41.4778121,42.1550797 41.5933149,42.6819677 41.5933149,43.0330124 C41.5933149,43.3840571 41.475887,43.9070945 40.9227566,44.4051031 C40.5467307,44.7409594 40.1709186,45.0768158 39.7953204,45.4126721 C38.3470428,46.7064676 36.8493557,48.0439031 35.3516685,49.3274305 C34.9698674,49.6540882 34.6458177,49.7625462 34.3891447,49.7625462 C34.2254512,49.7631457 34.0647407,49.7187449 33.9245665,49.6341935 C33.6216923,49.4519326 33.2540082,49.0071904 33.2244908,47.9161922 C33.2071654,47.2712197 33.2110155,46.6435748 33.2148656,45.9164566 C33.2148656,45.8043618 33.2148656,45.689914 33.2148656,45.573113 L32.156731,45.573113 C30.9497261,45.5763218 29.8094562,45.5795306 28.6646945,45.5654118 C27.6688031,45.5532183 26.898784,45.2188595 26.4425477,44.5989158 C26.1024559,44.1362041 25.9535856,43.5406475 26.0126204,42.8770638 C26.156999,41.2591776 27.0232704,40.4383619 28.5876925,40.4383619 L28.645444,40.4383619 C29.7934141,40.4531224 30.9413842,40.4499136 32.1605811,40.4467048 L33.2103738,40.446063 C33.2103738,40.3801753 33.2103738,40.3147154 33.2103738,40.2496834 C33.2052403,39.5841744 33.2001069,38.9571713 33.2212824,38.3154077 C33.2328327,37.9483188 33.270692,36.8316501 33.9386835,36.4343983 C34.5771577,36.0538325 35.2464326,36.6250022 35.4665297,36.8130389 C36.9584417,38.0869398 38.4458619,39.4269423 39.8838726,40.7226632 L40.922115,41.6557876 Z M58.7871995,27.7109048 C58.8057078,27.76163 58.8291339,27.8104225 58.8571429,27.8565851 L58.8571429,54.7991075 C58.8365292,54.8235448 58.8194636,54.8507668 58.8064499,54.8799698 C58.4483911,56.2238229 57.5603024,56.9233453 56.212769,56.9233453 C55.0911078,56.9252706 53.9675217,56.923987 52.8452188,56.9329717 C51.5977879,56.9438817 50.3400901,56.9008836 49.0952259,56.9971481 C47.7014913,57.1043226 46.317382,57.3430587 44.9287809,57.5201855 C44.4301936,57.5837201 43.9816575,57.4502333 43.5639221,57.157589 C43.4118031,57.0501345 43.23212,56.9884511 43.0460843,56.9798205 C41.5477555,56.970194 40.0513517,56.9855964 38.5543063,56.9798205 C37.321634,56.9759699 36.2981503,56.0916196 36.1268211,54.8305539 C36.0504609,54.2690107 36.0921702,53.6862893 36.0921702,53.1138361 C36.1053016,53.0435358 36.145957,52.9813898 36.2051064,52.9412017 C36.5804907,52.6690939 36.9616501,52.405329 37.3396012,52.1357883 C37.6058994,51.9458263 37.8664225,51.7500883 38.1872638,51.5177699 C38.1872638,52.1037001 38.178922,52.6081264 38.1872638,53.1131944 C38.2052309,54.1997003 38.9912921,55.1623458 40.0340263,55.2669532 C40.8072538,55.3433231 41.5926732,55.2849226 42.3710342,55.316369 C42.7027841,55.3304878 42.7990365,55.2335815 42.7990365,54.8812533 C42.7913363,50.8997515 42.7990365,46.9143991 42.7990365,42.9354643 C42.7981809,37.9823323 42.8022449,33.0296281 42.8112284,28.0773518 C42.8118701,27.8148705 42.7560437,27.7051289 42.4762701,27.7141136 C41.813412,27.7352918 41.1499123,27.7186059 40.4870542,27.7250236 C39.1157785,27.7372171 38.1769969,28.7082055 38.1769969,30.1252197 C38.1769969,31.4491782 38.1769969,32.7724948 38.1769969,34.0964533 C38.1769969,34.1984937 38.16673,34.3024594 38.1596715,34.4308122 C37.4737128,33.9456388 36.8191966,33.4887031 36.177514,33.0189321 C36.1191209,32.9746504 36.0928119,32.8495065 36.0928119,32.7622266 C36.0896035,31.2617832 36.0806199,29.7613397 36.0973037,28.261538 C36.1101373,27.121124 36.8557725,26.1494938 37.9299491,25.8805948 C38.288008,25.7907479 38.6698091,25.7759873 39.0413433,25.771495 C40.2708071,25.7548091 41.500271,25.7637938 42.7297348,25.7548091 C42.8368958,25.7541673 43.0018082,25.7310638 43.0409508,25.6604698 C43.3386915,25.127806 43.8135366,24.8601905 44.35255,24.6785714 L44.9942326,24.6785714 C45.0717575,24.7104631 45.1518208,24.7357946 45.2335802,24.7542995 C46.7768267,24.9737827 48.3200733,25.1996835 49.865245,25.4024808 C50.8592113,25.5366095 51.8551026,25.6822898 52.8548441,25.7291386 C54.0169312,25.7836885 55.1841518,25.7272133 56.3488057,25.7349144 C57.5789112,25.7426156 58.4817586,26.4844944 58.7871995,27.7109048 Z" id="Combined-Shape" fill="#FFFFFF" fill-rule="nonzero"></path>
                    <path d="M117.055088,49.908131 C116.930383,49.9967924 116.803259,50.0830341 116.673714,50.1668571 C116.469713,50.2988578 116.259715,50.4368564 116.043714,50.5808571 C115.13171,51.1808601 114.243719,51.7568544 113.379714,52.3088571 C112.51571,52.8608599 111.699718,53.3408551 110.931714,53.7488571 C109.371706,54.5648612 108.135719,54.9728571 107.223714,54.9728571 C107.103714,54.9728571 106.983715,54.9668572 106.863714,54.9548571 C106.743714,54.9428571 106.611715,54.9248573 106.467714,54.9008571 C106.179713,54.8048567 105.939715,54.6008587 105.747714,54.2888571 C105.675714,54.1448564 105.627714,53.9708582 105.603714,53.7668571 C105.579714,53.5628561 105.609714,53.2568592 105.693714,52.8488571 C105.777715,52.4408551 105.921713,51.8828607 106.125714,51.1748571 C106.329715,50.4668536 106.611712,49.5488628 106.971714,48.4208571 C106.419712,48.6128581 105.807718,48.8408558 105.135714,49.1048571 C104.508505,49.3512608 103.860398,49.5976609 103.191375,49.8440641 C102.697021,50.2874985 102.193138,50.7070928 101.679714,51.1028571 C101.103711,51.5468594 100.521717,51.9308555 99.9337143,52.2548571 C99.3457113,52.5788588 98.7517173,52.8068565 98.1517143,52.9388571 C97.5517113,53.0708578 96.9637172,53.0648579 96.3877143,52.9208571 C96.0037124,52.7768564 95.7277151,52.5368588 95.5597143,52.2008571 C95.4157136,51.8648555 95.373714,51.4988591 95.4337143,51.1028571 C95.4937146,50.7068552 95.6317132,50.1968603 95.8477143,49.5728571 C95.583713,49.8128583 95.3137157,50.0408561 95.0377143,50.2568571 C94.7617129,50.4728582 94.4677158,50.7128558 94.1557143,50.9768571 C90.8436977,53.5928702 88.2637235,54.9008571 86.4157143,54.9008571 C86.2237133,54.9008571 86.0497151,54.8888573 85.8937143,54.8648571 C85.7377135,54.840857 85.5757151,54.8048574 85.4077143,54.7568571 C84.9757121,54.6368565 84.6757151,54.3848591 84.5077143,54.0008571 C84.2917132,53.5208547 84.2977131,52.9388606 84.5257143,52.2548571 C84.7537154,51.5708537 85.1317116,50.6888625 85.6597143,49.6088571 C85.7557148,49.4168562 85.8517138,49.2008583 85.9477143,48.9608571 C86.0437148,48.7208559 86.1517137,48.4928582 86.2717143,48.2768571 C85.9597127,48.3968577 85.629716,48.5948558 85.2817143,48.8708571 C84.9337125,49.1468585 84.5797161,49.4288557 84.2197143,49.7168571 C83.9797131,49.9088581 83.7097158,49.9808574 83.4097143,49.9328571 C83.1097128,49.8848569 82.8637152,49.7528582 82.6717143,49.5368571 C82.4797133,49.2968559 82.407714,49.0328586 82.4557143,48.7448571 C82.5037145,48.4568557 82.6357132,48.2048582 82.8517143,47.9888571 C83.187716,47.7488559 83.5357125,47.4848586 83.8957143,47.1968571 C84.2557161,46.9088557 84.6397122,46.6688581 85.0477143,46.4768571 C86.0317192,45.9728546 86.9317102,45.8408559 87.7477143,46.0808571 C88.1317162,46.1528575 88.4197133,46.3928551 88.6117143,46.8008571 C88.8037152,47.2088592 88.7977153,47.6888544 88.5937143,48.2408571 C88.3897133,48.7928599 88.0477167,49.5728521 87.5677143,50.5808571 C87.4477137,50.8688586 87.3217149,51.1568557 87.1897143,51.4448571 C87.0577136,51.7328586 86.9317149,52.0088558 86.8117143,52.2728571 C86.763714,52.3688576 86.7277144,52.4528568 86.7037143,52.5248571 L86.6317143,52.7408571 C86.8717155,52.716857 87.1777124,52.6448577 87.5497143,52.5248571 C87.9217161,52.4048565 88.3537118,52.2188584 88.8457143,51.9668571 C89.3377167,51.7148559 89.907711,51.3728593 90.5557143,50.9408571 C91.2037175,50.508855 91.9477101,49.9688604 92.7877143,49.3208571 C93.4357175,48.7928545 94.0477114,48.2768597 94.6237143,47.7728571 C95.1997172,47.2688546 95.7037121,46.8128592 96.1357143,46.4048571 C96.5677164,45.9968551 96.915713,45.6608585 97.1797143,45.3968571 L97.5757143,45.0008571 C97.8637157,44.6648555 98.2117122,44.5568565 98.6197143,44.6768571 C98.8117152,44.7248574 98.9677137,44.8088565 99.0877143,44.9288571 C99.2077149,45.0488577 99.3037139,45.1688565 99.3757143,45.2888571 C99.5437151,45.6248588 99.555715,46.0208549 99.4117143,46.4768571 C99.2677136,46.9328594 99.0037162,47.6408523 98.6197143,48.6008571 C98.4757136,48.9128587 98.3377149,49.2248556 98.2057143,49.5368571 C98.0737136,49.8488587 97.9477149,50.1368558 97.8277143,50.4008571 C97.8037142,50.5208577 97.7677145,50.6528564 97.7197143,50.7968571 C98.055716,50.7488569 98.4157124,50.6168582 98.7997143,50.4008571 C99.1837162,50.1848561 99.5677124,49.9448585 99.9517143,49.6808571 C100.335716,49.4168558 100.695713,49.1348586 101.031714,48.8348571 C101.367716,48.5348556 101.667713,48.2768582 101.931714,48.0608571 C101.979216,48.0181053 102.027658,47.9800544 102.077041,47.9467044 C102.152739,47.8928966 102.236297,47.8469476 102.327714,47.8088571 C103.095718,47.5208557 103.839711,47.2448585 104.559714,46.9808571 C105.279718,46.7168558 105.915712,46.4828582 106.467714,46.2788571 C107.019717,46.0748561 107.463713,45.9068578 107.799714,45.7748571 L108.303714,45.5768571 C108.543715,45.4808567 108.771713,45.4688568 108.987714,45.5408571 C109.299716,45.6128575 109.527714,45.7928557 109.671714,46.0808571 C109.791715,46.2968582 109.833714,46.4888563 109.797714,46.6568571 C109.761714,46.824858 109.719715,47.0048562 109.671714,47.1968571 C109.623714,47.2928576 109.587714,47.3948566 109.563714,47.5028571 C109.539714,47.6108577 109.503715,47.7368564 109.455714,47.8808571 C109.287713,48.2888592 109.113715,48.7868542 108.933714,49.3748571 C108.753713,49.9628601 108.567715,50.5568541 108.375714,51.1568571 C108.255714,51.4928588 108.159715,51.7808559 108.087714,52.0208571 C108.015714,52.2608583 107.955715,52.4768562 107.907714,52.6688571 C108.363717,52.5728567 109.02371,52.2968594 109.887714,51.8408571 C110.631718,51.4328551 111.42371,50.9648598 112.263714,50.4368571 C113.103718,49.9088545 113.97971,49.3328603 114.891714,48.7088571 L115.467714,48.3488571 C115.659715,48.2288565 115.851713,48.0968579 116.043714,47.9528571 C116.159264,47.8793254 116.277112,47.8276328 116.397259,47.7977794 C117.154803,47.5137765 117.888947,47.2414718 118.599714,46.9808571 C119.319718,46.7168558 119.955712,46.4828582 120.507714,46.2788571 C121.059717,46.0748561 121.503713,45.9068578 121.839714,45.7748571 L122.343714,45.5768571 C122.583715,45.4808567 122.811713,45.4688568 123.027714,45.5408571 C123.339716,45.6128575 123.567714,45.7928557 123.711714,46.0808571 C123.831715,46.2968582 123.873714,46.4888563 123.837714,46.6568571 C123.801714,46.824858 123.759715,47.0048562 123.711714,47.1968571 C123.663714,47.2928576 123.627714,47.3948566 123.603714,47.5028571 C123.579714,47.6108577 123.543715,47.7368564 123.495714,47.8808571 C123.327713,48.2888592 123.153715,48.7868542 122.973714,49.3748571 C122.793713,49.9628601 122.607715,50.5568541 122.415714,51.1568571 C122.295714,51.4928588 122.199715,51.7808559 122.127714,52.0208571 C122.055714,52.2608583 121.995715,52.4768562 121.947714,52.6688571 C122.403717,52.5728567 123.06371,52.2968594 123.927714,51.8408571 C124.671718,51.4328551 125.46371,50.9648598 126.303714,50.4368571 C127.143718,49.9088545 128.01971,49.3328603 128.931714,48.7088571 L129.507714,48.3488571 C129.699715,48.2288565 129.891713,48.0968579 130.083714,47.9528571 C130.347716,47.7848563 130.623713,47.7308568 130.911714,47.7908571 C131.199716,47.8508574 131.439713,48.0128558 131.631714,48.2768571 C131.799715,48.5408585 131.853715,48.8108558 131.793714,49.0868571 C131.733714,49.3628585 131.571716,49.5848563 131.307714,49.7528571 C131.115713,49.8968579 130.917715,50.0348565 130.713714,50.1668571 C130.509713,50.2988578 130.299715,50.4368564 130.083714,50.5808571 C129.17171,51.1808601 128.283719,51.7568544 127.419714,52.3088571 C126.55571,52.8608599 125.739718,53.3408551 124.971714,53.7488571 C123.411706,54.5648612 122.175719,54.9728571 121.263714,54.9728571 C121.143714,54.9728571 121.023715,54.9668572 120.903714,54.9548571 C120.783714,54.9428571 120.651715,54.9248573 120.507714,54.9008571 C120.219713,54.8048567 119.979715,54.6008587 119.787714,54.2888571 C119.715714,54.1448564 119.667714,53.9708582 119.643714,53.7668571 C119.619714,53.5628561 119.649714,53.2568592 119.733714,52.8488571 C119.817715,52.4408551 119.961713,51.8828607 120.165714,51.1748571 C120.369715,50.4668536 120.651712,49.5488628 121.011714,48.4208571 C120.459712,48.6128581 119.847718,48.8408558 119.175714,49.1048571 C118.503711,49.3688585 117.807718,49.6328558 117.087714,49.8968571 C117.076849,49.9008082 117.065973,49.9045661 117.055088,49.908131 Z" id="buy" fill="#FFFFFF"></path>
                </g>
            </g>
            <g id="Write-Copy" transform="translate(685.000000, 283.000000)">
                <rect id="Rectangle" fill="#FFFFFF" x="0" y="0" width="120" height="120"></rect>
                <path d="M29.7471742,91.9559766 C31.5827533,91.4857384 47.5337296,87.2700938 51.9787184,86.2561941 C52.8028728,86.0680988 53.4628563,85.7042829 54.0601414,85.1061729 L63.7247748,75.4415395 L89.7858733,49.379616 L89.91622,49.2500942 L89.915395,49.2484443 C92.7376495,46.2867683 92.6947505,41.5555116 89.7866982,38.6474593 L81.3529341,30.2136952 C78.4448818,27.3056429 73.7136251,27.2627439 70.7511241,30.0849984 L70.7494742,30.0833484 L70.6199524,30.2136952 L44.5588539,56.2747936 L34.8942205,65.938602 C34.2969355,66.5367121 33.9322946,67.1975206 33.7441993,68.02085 C32.7319496,72.4641889 28.5212549,88.3945407 28.0485417,90.2375446 C27.9874932,90.4627639 27.9817184,90.7069578 28.0444168,90.9495018 C28.237462,91.6969331 28.9989179,92.1473718 29.7471742,91.9559766 Z M82.435307,46.3370921 C82.9434943,45.8289048 83.7750735,45.8289048 84.2824359,46.3370921 L84.5307546,46.5854109 C85.0389419,47.0935982 85.0389419,47.9251774 84.5307546,48.4333647 L53.7779985,79.1869458 C53.2698112,79.6943082 52.4382319,79.6943082 51.9300447,79.1869458 L51.6817259,78.938627 C51.1735386,78.4304397 51.1735386,77.5988605 51.6817259,77.0906732 L82.435307,46.3370921 Z M76.9640438,40.8650039 C77.4714061,40.3568166 78.3021604,40.3568166 78.8111726,40.8650039 L79.0594914,41.1124977 C79.5676787,41.62151 79.5676787,42.4530892 79.0594914,42.9612765 L48.3059103,73.7140327 C47.797723,74.22222 46.9653188,74.22222 46.4579565,73.7140327 L46.2104626,73.4657139 C45.7014504,72.9583516 45.7022753,72.1267723 46.2104626,71.618585 L76.9640438,40.8650039 Z M40.7367245,66.1456719 L71.4894807,35.3920907 C71.9984929,34.8839034 72.8292472,34.8839034 73.3374345,35.3920907 L73.5865782,35.6404095 C74.0947655,36.1485968 74.0947655,36.980176 73.5865782,37.4891883 L42.8329971,68.2411195 C42.3248098,68.7493068 41.4932306,68.7493068 40.9850433,68.2411195 L40.7375495,67.9936257 C40.2285372,67.4846134 40.2293622,66.6538592 40.7367245,66.1456719 Z M36.0112426,70.4462894 L49.554104,83.9883258 L39.3235348,86.6125852 L33.3878082,80.6768586 L36.0112426,70.4462894 Z" id="Shape" fill="#4D70B8" fill-rule="nonzero"></path>
            </g>
            <g id="Center-Arrow" transform="translate(715.000000, 403.000000)">
                <path d="M30,0 L30,240" id="Path-15" stroke="#FFFFFF" stroke-width="6"></path>
                <polygon id="Shape" fill="#FFFFFF" fill-rule="nonzero" transform="translate(29.937515, 252.195018) scale(-1, 1) translate(-29.937515, -252.195018) " points="29.9375 269.390037 31.875 267.702537 52.87503 249.702537 49.00003 245.171337 32.93753 258.952537 32.93753 235 26.9375 235 26.9375 258.952537 10.875 245.171337 7 249.702537 28 267.702537"></polygon>
                <g id="cog-circle" transform="translate(0.000000, 100.000000)" fill-rule="nonzero">
                    <circle id="Oval-3" fill="#FFFFFF" cx="30" cy="30" r="30"></circle>
                    <path d="M14.6608512,44.124415 C13.8896752,44.5431837 12.9085583,44.2652442 12.4651547,43.4961427 L9.22307698,37.8726294 C8.78160319,37.1068755 9.03144047,36.1137419 9.7780104,35.6562992 L12.0255851,34.2791516 C12.7735402,33.8208601 13.3794916,32.7340937 13.3790204,31.8609051 L13.3767845,27.7172922 C13.3763112,26.840023 12.7681886,25.7564783 12.0215985,25.2990232 L9.77396302,23.9218385 C9.02598779,23.4635346 8.77596959,22.4748147 9.2198469,21.7059966 L12.465388,16.0845546 C12.9073333,15.3190827 13.8919586,15.0386737 14.6614214,15.4565122 L16.9779161,16.7144291 C17.7488066,17.1330428 18.9933525,17.1151065 19.7497915,16.6789203 L23.3393835,14.6090502 C24.0993576,14.1708255 24.7340567,13.1030875 24.7569288,12.2278176 L24.8257861,9.59278697 C24.8487008,8.71589314 25.5799545,8.00458723 26.4677177,8.00403535 L32.958862,8.00000032 C33.8427612,7.99945083 34.5779289,8.71177538 34.60081,9.58739319 L34.6696948,12.2234711 C34.6926184,13.1007135 35.3307483,14.1695542 36.0871031,14.6062359 L39.6762943,16.6784564 C40.4361836,17.1171787 41.6787852,17.1325787 42.4485332,16.7145856 L44.765886,15.4562025 C45.537062,15.0374338 46.5181788,15.3153733 46.9615825,16.0844747 L50.2036603,21.7079883 C50.645134,22.4737421 50.3952968,23.4668756 49.6487268,23.9243183 L47.401152,25.3014659 C46.653197,25.7597575 46.0472457,26.846524 46.0477167,27.7197125 L46.0499527,31.8633255 C46.050426,32.7405946 46.6585486,33.8241391 47.4051387,34.2815944 L49.6527742,35.6587791 C50.4007495,36.1170831 50.6507676,37.1058029 50.2068902,37.8746209 L46.9613492,43.4960631 C46.5194039,44.2615349 45.5347786,44.5419438 44.7653158,44.1241054 L42.4488211,42.8661883 C41.6779307,42.4475747 40.4333847,42.465511 39.6769456,42.9016973 L36.0873537,44.9715675 C35.3273796,45.4097921 34.6926806,46.47753 34.6698084,47.3528 L34.600951,49.9878306 C34.5780364,50.8647245 33.8467827,51.5760304 32.9590195,51.5765821 L26.4678752,51.5806173 C25.583976,51.5811667 24.8488084,50.8688422 24.8259272,49.9932244 L24.7570424,47.3571464 C24.7341188,46.4799041 24.0959888,45.4110633 23.3396341,44.9743818 L19.7504429,42.9021611 C18.9905536,42.4634389 17.747952,42.4480389 16.978204,42.866032 L14.6608512,44.124415 Z M24.9310161,38.0735863 C29.5057439,40.7148067 35.3554258,39.1473891 37.9966461,34.5726612 C40.6378665,29.9979334 39.0704489,24.1482516 34.495721,21.5070312 C29.9209933,18.8658109 24.0713114,20.4332285 21.4300911,25.0079563 C18.7888707,29.5826841 20.3562883,35.4323659 24.9310161,38.0735863 Z" id="Shape" fill="#4D70B8"></path>
                </g>
            </g>
            <g id="User-Name-Copy-2" transform="translate(685.000000, 673.000000)" fill="#FFFFFF">
                <rect id="Rectangle" opacity="0" x="0" y="0" width="120" height="120"></rect>
                <path d="M90.3989453,89.5997656 L90.3989453,83.3043736 C90.3989453,80.2463874 88.4214616,77.6501344 85.6767274,76.7308869 L85.6767274,76.7308869 C85.4606269,76.6576424 71.4111644,73.0688975 69.40075,69.0770149 C68.4834948,67.2531688 69.3879762,64.916963 70.3034735,63.3055845 C70.7225491,62.7415435 71.132601,62.1446889 71.5265977,61.5184193 C71.5265977,61.5147864 71.5265977,61.5147864 71.5265977,61.5147864 L71.5265977,61.5147864 C73.9071018,57.7061908 75.7235648,52.696503 75.9082581,46.5040048 C76.1865871,37.1878934 68.9778071,29.6219147 60.4198053,29.6 L60.4198053,29.6 C60.4124223,29.6 60.4070315,29.6 60.3996484,29.6 C60.3940233,29.6 60.3868746,29.6 60.3793744,29.6 L60.3793744,29.6 C51.8230132,29.6219147 44.6143504,37.1878934 44.8944373,46.5042392 C45.079365,52.6968546 46.8940701,57.7065424 49.2742226,61.5150208 L49.2742226,61.5150208 C49.2742226,61.5150208 49.2762149,61.5150208 49.2762149,61.5186537 C49.6681021,62.1449233 50.0782712,62.7418951 50.497464,63.3058189 C51.4130785,64.9171974 52.3174427,67.2535204 51.4001875,69.0772493 C49.3914138,73.0688975 35.3401934,76.6578768 35.1240929,76.7311213 L35.1240929,76.7311213 C32.3794759,77.6506031 30.4,80.2466218 30.4,83.3048423 L30.4,89.6 L90.3989453,89.5997656 L90.3989453,89.5997656 Z" id="Shape" fill-rule="nonzero"></path>
            </g>
            <g id="Server" transform="translate(1330.000000, 0.000000)">
                <rect id="Rectangle-6" fill="#494949" x="0" y="0" width="590" height="1080"></rect>
                <path d="M256,724.875 L256,458" id="Path-20" stroke="#ACACAC" stroke-width="8"></path>
                <path d="M195,452.012999 C195.011597,460.727974 202.073589,467.789966 210.788564,467.801563 L216.051419,467.801563 L216.051419,475.16956 C216.051419,478.076154 218.407679,480.432414 221.314274,480.432414 C224.220868,480.432414 226.577128,478.076154 226.577128,475.16956 L226.577128,467.801563 L363.411351,467.801563 L363.411351,475.16956 C363.411351,478.076154 365.767611,480.432414 368.674205,480.432414 C371.5808,480.432414 373.93706,478.076154 373.93706,475.16956 L373.93706,467.801563 L379.199915,467.801563 C387.91489,467.789966 394.976882,460.727974 394.988479,452.012999 L394.988479,406.752449 L195,406.752449 L195,452.012999 Z M345.517645,421.488442 C354.237428,421.488442 361.306209,428.557223 361.306209,437.277006 C361.306209,445.996789 354.237428,453.06557 345.517645,453.06557 C336.797861,453.06557 329.72908,445.996789 329.72908,437.277006 C329.740677,428.562031 336.802669,421.500039 345.517645,421.488442 L345.517645,421.488442 Z M291.836527,426.751296 C291.836527,423.844702 294.192787,421.488442 297.099381,421.488442 C300.005976,421.488442 302.362236,423.844702 302.362236,426.751296 L302.362236,447.802715 C302.362236,450.70931 300.005976,453.06557 297.099381,453.06557 C294.192787,453.06557 291.836527,450.70931 291.836527,447.802715 L291.836527,426.751296 Z M270.785108,426.751296 C270.785108,423.844702 273.141368,421.488442 276.047962,421.488442 C278.954557,421.488442 281.310817,423.844702 281.310817,426.751296 L281.310817,447.802715 C281.310817,450.70931 278.954557,453.06557 276.047962,453.06557 C273.141368,453.06557 270.785108,450.70931 270.785108,447.802715 L270.785108,426.751296 Z M249.733689,426.751296 C249.733689,423.844702 252.089949,421.488442 254.996544,421.488442 C257.903138,421.488442 260.259398,423.844702 260.259398,426.751296 L260.259398,447.802715 C260.259398,450.70931 257.903138,453.06557 254.996544,453.06557 C252.089949,453.06557 249.733689,450.70931 249.733689,447.802715 L249.733689,426.751296 Z M228.68227,426.751296 C228.68227,423.844702 231.03853,421.488442 233.945125,421.488442 C236.851719,421.488442 239.20798,423.844702 239.20798,426.751296 L239.20798,447.802715 C239.20798,450.70931 236.851719,453.06557 233.945125,453.06557 C231.03853,453.06557 228.68227,450.70931 228.68227,447.802715 L228.68227,426.751296 Z M389.725624,400.437023 L200.262855,400.437023 C197.513519,400.227479 195.392003,397.931466 195.399977,395.174168 L195.399977,340.314171 C195.373875,340.012998 195.373875,339.710132 195.399977,339.156343 C195.454935,338.92732 195.525265,338.702261 195.610491,338.23008 C195.719115,337.989298 195.845785,337.757071 195.989417,337.409075 C196.175639,337.137166 196.387089,336.883426 196.620959,336.651224 C196.773604,336.501126 196.935302,336.360519 197.105142,336.230196 L224.619346,315.684011 C229.54501,312.006719 235.524089,310.013692 241.670996,310.000128 L350.085802,310.000128 C356.625485,309.98056 362.973007,312.210369 368.063714,316.315553 L393.325417,336.88279 L393.809599,337.324869 C393.961131,337.491046 394.101767,337.666841 394.377988,338.061669 C394.541104,338.315699 394.681971,338.583345 394.799016,338.861623 L394.799016,339.135291 C394.875414,339.341603 394.938694,339.552538 394.988479,339.766834 L394.988479,340.082605 C395.00384,340.313916 395.00384,340.545991 394.988479,340.966765 L394.988479,395.174168 C394.988479,398.080763 392.632218,400.437023 389.725624,400.437023 Z M239.20798,380.438175 L239.20798,359.386756 C239.20798,356.480162 236.851719,354.123902 233.945125,354.123902 C231.03853,354.123902 228.68227,356.480162 228.68227,359.386756 L228.68227,380.438175 C228.68227,383.344769 231.03853,385.70103 233.945125,385.70103 C236.851719,385.70103 239.20798,383.344769 239.20798,380.438175 Z M260.259398,380.438175 L260.259398,359.386756 C260.259398,356.480162 257.903138,354.123902 254.996544,354.123902 C252.089949,354.123902 249.733689,356.480162 249.733689,359.386756 L249.733689,380.438175 C249.733689,383.344769 252.089949,385.70103 254.996544,385.70103 C257.903138,385.70103 260.259398,383.344769 260.259398,380.438175 Z M281.310817,380.438175 L281.310817,359.386756 C281.310817,356.480162 278.954557,354.123902 276.047962,354.123902 C273.141368,354.123902 270.785108,356.480162 270.785108,359.386756 L270.785108,380.438175 C270.785108,383.344769 273.141368,385.70103 276.047962,385.70103 C278.954557,385.70103 281.310817,383.344769 281.310817,380.438175 Z M302.362236,380.438175 L302.362236,359.386756 C302.362236,356.480162 300.005976,354.123902 297.099381,354.123902 C294.192787,354.123902 291.836527,356.480162 291.836527,359.386756 L291.836527,380.438175 C291.836527,383.344769 294.192787,385.70103 297.099381,385.70103 C300.005976,385.70103 302.362236,383.344769 302.362236,380.438175 Z M345.517645,385.70103 C354.23262,385.689433 361.294612,378.627441 361.306209,369.912466 C361.306209,361.192682 354.237428,354.123902 345.517645,354.123902 C336.797861,354.123902 329.72908,361.192682 329.72908,369.912466 C329.72908,378.632249 336.797861,385.70103 345.517645,385.70103 Z M230.934772,324.020373 L216.07247,335.219727 L329.265949,335.535499 L374.989631,335.661807 L361.222003,324.483504 C358.024371,321.873076 354.024192,320.445503 349.89634,320.441631 L241.670996,320.441631 C237.800558,320.449174 234.035647,321.704144 230.934772,324.020373 Z" fill="#ACACAC" fill-rule="nonzero"></path>
                <g id="Modem" transform="translate(195.000000, 650.000000)">
                    <g id="Rectangle-2-Copy-5">
                        <use fill="#29D051" fill-rule="evenodd" xlink:href="#path-24"></use>
                        <rect stroke="#979797" stroke-width="1" x="14.5" y="75.5" width="22" height="23"></rect>
                    </g>
                    <path d="M181.411111,57.0911111 L159,57.0911111 L159,15.4688889 C161.331111,14.1111111 162.92,11.6111111 162.92,8.72444444 C162.92,4.40444444 159.404444,0.888888889 155.084444,0.888888889 C150.764444,0.888888889 147.248889,4.40444444 147.248889,8.72444444 C147.248889,11.6133333 148.837778,14.1133333 151.171111,15.4711111 L151.171111,57.0911111 L7.82888889,57.0911111 C3.50444444,57.0911111 0,60.5977778 0,64.9244444 L0,111.908889 C0,116.233333 3.50444444,119.737778 7.82888889,119.737778 L24.0244444,119.737778 L24.0244444,120.393333 C24.0244444,123.275556 26.3622222,125.613333 29.2444444,125.613333 L39.8177778,125.613333 C42.7,125.613333 45.0377778,123.275556 45.0377778,120.393333 L45.0377778,119.737778 L144.206667,119.737778 L144.206667,120.393333 C144.206667,123.275556 146.542222,125.613333 149.426667,125.613333 L159.997778,125.613333 C162.88,125.613333 165.217778,123.275556 165.217778,120.393333 L165.217778,119.737778 L181.413333,119.737778 C185.737778,119.737778 189.244444,116.233333 189.244444,111.908889 L189.244444,64.9244444 C189.242222,60.5977778 185.735556,57.0911111 181.411111,57.0911111 Z M29.3644444,92.6288889 C29.3644444,93.9044444 28.3288889,94.94 27.0533333,94.94 L18.6244444,94.94 C17.3488889,94.94 16.3133333,93.9044444 16.3133333,92.6288889 L16.3133333,84.2 C16.3133333,82.9222222 17.3488889,81.8888889 18.6244444,81.8888889 L27.0533333,81.8888889 C28.3288889,81.8888889 29.3644444,82.9222222 29.3644444,84.2 L29.3644444,92.6288889 Z M55.4666667,92.6288889 C55.4666667,93.9044444 54.4311111,94.94 53.1555556,94.94 L44.7266667,94.94 C43.4488889,94.94 42.4155556,93.9044444 42.4155556,92.6288889 L42.4155556,84.2 C42.4155556,82.9222222 43.4488889,81.8888889 44.7266667,81.8888889 L53.1555556,81.8888889 C54.4311111,81.8888889 55.4666667,82.9222222 55.4666667,84.2 L55.4666667,92.6288889 Z M81.5688889,92.6288889 C81.5688889,93.9044444 80.5333333,94.94 79.2577778,94.94 L70.8266667,94.94 C69.5533333,94.94 68.5177778,93.9044444 68.5177778,92.6288889 L68.5177778,84.2 C68.5177778,82.9222222 69.5533333,81.8888889 70.8266667,81.8888889 L79.2577778,81.8888889 C80.5333333,81.8888889 81.5688889,82.9222222 81.5688889,84.2 L81.5688889,92.6288889 Z M107.671111,92.6288889 C107.671111,93.9044444 106.635556,94.94 105.36,94.94 L96.9311111,94.94 C95.6533333,94.94 94.62,93.9044444 94.62,92.6288889 L94.62,84.2 C94.62,82.9222222 95.6533333,81.8888889 96.9311111,81.8888889 L105.36,81.8888889 C106.635556,81.8888889 107.671111,82.9222222 107.671111,84.2 L107.671111,92.6288889 Z M172.926667,92.6288889 C172.926667,93.9044444 171.891111,94.94 170.615556,94.94 L123.033333,94.94 C121.755556,94.94 120.722222,93.9044444 120.722222,92.6288889 L120.722222,84.2 C120.722222,82.9222222 121.755556,81.8888889 123.033333,81.8888889 L170.615556,81.8888889 C171.891111,81.8888889 172.926667,82.9222222 172.926667,84.2 L172.926667,92.6288889 L172.926667,92.6288889 Z" id="Shape" fill="#ACACAC" fill-rule="nonzero"></path>
                </g>
            </g>
        </g>
    </g>
</svg>