<?xml version="1.0" encoding="UTF-8"?>
<svg width="1920px" height="1080px" viewBox="0 0 1920 1080" version="1.1" xmlns="http://www.w3.org/2000/svg" xmlns:xlink="http://www.w3.org/1999/xlink">
    <!-- Generator: Sketch 46.2 (44496) - http://www.bohemiancoding.com/sketch -->
    <title>meteorFromTheSky</title>
    <desc>Created with Sketch.</desc>
    <defs></defs>
    <g id="Actual-Slides" stroke="none" stroke-width="1" fill="none" fill-rule="evenodd">
        <g id="meteorFromTheSky" fill-rule="nonzero">
            <g id="noun_1174161" transform="translate(400.000000, 240.000000)" fill="#F8E71C">
                <path d="M110.5,52 C78.2321429,52 52,78.2321429 52,110.5 C52,142.767857 78.2321429,169 110.5,169 C142.767857,169 169,142.767857 169,110.5 C169,78.2321429 142.767857,52 110.5,52 Z" id="Shape"></path>
                <path d="M109.5,40 C113.590909,40 117,36.5116279 117,32.3255814 L117,7.6744186 C117,3.48837209 113.590909,0 109.5,0 C105.409091,0 102,3.48837209 102,7.6744186 L102,32.3255814 C102,36.744186 105.409091,40 109.5,40 Z" id="Shape"></path>
                <path d="M49.3024911,60.6554174 C50.6690391,62.062167 52.7188612,63 54.5409253,63 C56.3629893,63 58.4128114,62.2966252 59.7793594,60.6554174 C62.7402135,57.60746 62.7402135,52.9182948 59.7793594,49.8703375 L42.6975089,32.285968 C39.7366548,29.2380107 35.1814947,29.2380107 32.2206406,32.285968 C29.2597865,35.3339254 29.2597865,40.0230906 32.2206406,43.071048 L49.3024911,60.6554174 Z" id="Shape"></path>
                <path d="M40,109.5 C40,105.409091 36.5116279,102 32.3255814,102 L7.6744186,102 C3.48837209,102 0,105.409091 0,109.5 C0,113.590909 3.48837209,117 7.6744186,117 L32.3255814,117 C36.744186,117 40,113.590909 40,109.5 Z" id="Shape"></path>
                <path d="M49.3024911,159.285968 L32.2206406,176.870337 C29.2597865,179.918295 29.2597865,184.60746 32.2206406,187.655417 C33.5871886,189.062167 35.6370107,190 37.4590747,190 C39.2811388,190 41.3309609,189.296625 42.6975089,187.655417 L59.7793594,170.071048 C62.7402135,167.023091 62.7402135,162.333925 59.7793594,159.285968 C57.0462633,156.238011 52.2633452,156.238011 49.3024911,159.285968 Z" id="Shape"></path>
                <path d="M109.5,180 C105.409091,180 102,183.488372 102,187.674419 L102,212.325581 C102,216.511628 105.409091,220 109.5,220 C113.590909,220 117,216.511628 117,212.325581 L117,187.674419 C117,183.255814 113.590909,180 109.5,180 Z" id="Shape"></path>
                <path d="M169.697509,159.285968 C166.736655,156.238011 162.181495,156.238011 159.220641,159.285968 C156.259786,162.333925 156.259786,167.023091 159.220641,170.071048 L176.302491,187.655417 C177.669039,189.062167 179.718861,190 181.540925,190 C183.362989,190 185.412811,189.296625 186.779359,187.655417 C189.740214,184.60746 189.740214,179.918295 186.779359,176.870337 L169.697509,159.285968 Z" id="Shape"></path>
                <path d="M212.325581,102 L187.674419,102 C183.488372,102 180,105.409091 180,109.5 C180,113.590909 183.488372,117 187.674419,117 L212.325581,117 C216.511628,117 220,113.590909 220,109.5 C220,105.409091 216.511628,102 212.325581,102 Z" id="Shape"></path>
                <path d="M164.459075,63 C166.281139,63 168.330961,62.2966252 169.697509,60.6554174 L186.779359,43.071048 C189.740214,40.0230906 189.740214,35.3339254 186.779359,32.285968 C183.818505,29.2380107 179.263345,29.2380107 176.302491,32.285968 L159.220641,49.8703375 C156.259786,52.9182948 156.259786,57.60746 159.220641,60.6554174 C160.587189,62.2966252 162.409253,63 164.459075,63 Z" id="Shape"></path>
            </g>
            <g id="noun_387172" transform="translate(952.000000, 350.000000)">
                <path d="M319.026163,0.66819373 L318.954616,0.632469842 C318.429936,0.156151333 317.829735,-0.046284033 317.142086,0.0251637433 C317.090413,-0.00262150301 317.042715,-0.00659082391 317.006942,0.00928645971 C306.966483,0.422095834 299.326831,0.834905208 294.095935,1.24771458 C293.845519,1.29137711 293.845519,2.04554808 293.603054,2.08921061 C284.027652,2.68460875 276.089886,5.03841605 269.20148,7.49542568 L269.082234,7.53908821 C254.423006,12.7706532 243.893641,17.6727645 238.126141,23.999862 C238.062543,24.0713098 238.126141,24.4087021 238.098317,24.4642725 C232.052578,30.8469406 228.200953,37.9718716 228.014135,49.9195275 L227.954512,49.9393741 C227.064147,58.175715 224.94158,65.3601858 221.435766,71.1037932 C221.328446,71.274474 221.205225,71.4332468 221.089955,71.6078969 C217.703387,76.3393274 212.635459,79.1654839 205.083254,77.8992706 L205.023631,77.9191172 C196.44989,77.0180813 188.714842,76.593364 181.774762,76.5576401 C181.361378,76.6171799 180.685655,75.9662113 180.248422,75.9900272 C172.596845,75.8114078 166.594829,75.7955305 162.683581,77.1887621 C162.60011,77.2165474 162.544462,77.236394 162.504713,77.2522713 C154.682218,80.0427038 148.425812,85.4171644 143.34596,92.2959975 L142.940526,92.8080399 C139.597681,97.2655872 136.918636,103.890384 132.260117,113.047607 L132.240243,112.988067 C131.29423,121.422874 126.262076,128.353309 124.680088,131.080232 C124.600591,131.108017 124.799333,131.060385 124.815232,131.096109 C121.484312,136.335613 117.68436,139.828615 113.176886,141.658472 C112.254722,142.035558 111.344482,142.13876 110.330897,142.015711 C109.353085,141.876785 108.518367,141.491761 107.775071,140.880485 C107.56043,140.777283 107.405411,140.682019 107.286165,140.586756 C105.37824,139.201463 104.114239,137.558164 103.482239,135.668767 C103.215924,134.922535 103.136427,134.140578 103.235798,133.31099 C103.287471,132.104317 103.708805,130.679331 104.4839,129.032062 C104.714441,128.551775 104.98473,128.123088 105.334516,127.738064 C106.399775,125.904238 108.160631,123.268608 110.867501,119.747821 L110.847627,119.688281 C113.355754,115.623696 116.432284,111.908412 117.573064,109.427586 C117.612813,109.276752 117.616788,109.197366 117.68436,109.121949 C119.691657,104.751726 119.965921,100.845915 118.705895,97.3290964 C118.678071,97.24971 118.650248,97.1703235 118.622424,97.0909371 L117.720134,94.5704184 C117.509467,93.9869282 117.108008,93.514579 116.53563,93.1454322 L116.638976,93.1732174 C116.126221,92.8358251 115.605516,92.7048375 115.064937,92.8120092 C114.977491,92.8001012 114.897994,92.8080399 114.818497,92.8318558 C114.150723,92.9390275 113.554496,93.2367265 113.025842,93.736861 C112.69593,94.1615783 112.501162,94.6736207 112.449489,95.2650495 C112.437565,95.3563439 112.429615,95.4516076 112.41769,95.5389327 C111.948659,99.2780329 110.215626,102.516999 107.226543,105.251861 C106.968178,105.521775 106.829058,106.172743 106.51902,106.418841 C103.780352,108.490827 99.7498592,111.523388 93.7637425,113.654913 C93.6882204,113.682699 93.6285977,113.706514 93.5888493,113.722392 C93.5491008,113.7343 93.5093524,113.746208 93.4696039,113.758116 C84.8640643,116.83037 79.7842123,119.017466 78.0829786,119.934379 C77.8206388,120.065367 77.5225255,119.974072 77.327758,120.037581 C71.3654904,123.228915 67.4224441,127.801573 65.5701663,133.969898 C65.47477,134.311259 65.319751,134.620866 65.1448579,134.993982 C63.499272,139.765106 60.3988928,146.187467 55.8556449,154.332514 C47.4806463,161.239132 38.9148552,167.867898 30.170196,174.250566 C7.62487468,190.624015 -2.28838895,211.863851 0.442329617,237.981983 C4.6993887,278.961252 27.3560057,300.871903 68.4201302,303.705998 C107.79892,306.393228 133.9693,290.65884 146.93922,256.514742 C153.573236,238.954466 159.988636,222.307134 165.787935,205.481183 C171.249372,200.535409 178.972496,198.090308 187.816527,194.934697 L187.876149,194.910881 C199.029565,190.933622 207.488035,187.78595 212.61956,183.618164 C212.635459,183.562593 212.575837,183.249017 212.61161,183.237109 C227.823343,170.900459 235.168856,157.634989 233.992302,144.004341 C233.940629,143.845568 234.330164,143.385127 234.270541,143.226354 C234.242717,143.142998 234.210919,143.051704 234.17117,142.928655 L233.690214,141.583055 C233.459673,140.955902 232.696503,140.614541 232.140024,140.285087 C232.068477,140.225547 231.826012,140.265241 231.782288,140.281118 C231.241709,139.987388 230.597784,139.955634 230.041306,140.110437 C229.941935,140.098529 229.810765,140.122345 229.727293,140.15013 C229.087343,140.300964 228.562664,140.598664 228.232752,141.019412 L228.499066,140.523246 C227.902839,141.400466 225.605379,144.353641 221.670282,149.370863 C221.586811,149.402617 221.555012,149.438341 221.570911,149.474065 C219.500017,151.927105 217.74711,153.582312 216.33604,154.447624 C215.751738,154.785016 215.123713,155.007298 214.471838,155.154163 C209.574829,158.21451 204.797065,161.151807 199.792735,162.934032 L199.677465,162.977695 C194.744682,164.740073 190.67444,164.565423 187.140803,161.60034 C184.354437,159.595833 182.128523,155.785285 180.455114,150.125034 C180.216623,149.33117 180.1729,148.533336 180.327919,147.731533 C182.836046,130.580098 194.943424,119.481876 216.642103,114.424962 C234.262592,110.161911 244.597189,106.942792 247.645895,104.747757 C248.126851,104.358764 248.65948,104.061065 249.243783,103.850691 C258.389901,97.7220592 263.493602,92.2007338 264.558861,87.2867145 C264.578735,87.1080951 264.610534,86.9413836 264.642333,86.7945187 C265.667843,81.7614198 264.892748,72.2112337 262.332948,58.1518991 C262.317048,58.1122059 262.348847,58.1518991 262.376671,58.0963286 C260.138833,45.5493052 265.075591,32.7164907 278.713284,23.8847517 L278.653661,23.9085676 C292.891557,14.8664546 305.090356,6.8722423 317.332879,5.7132006 C318.084125,5.62190622 318.755873,5.24879005 319.340176,4.68911581 C319.761509,4.01036193 319.972176,3.25222164 320,2.45438814 C319.841006,1.76769562 319.511094,1.1564202 319.026163,0.66819373 Z M140.78616,159.024251 C133.536042,172.0079 129.394254,181.585871 125.844717,188.66317 C120.860261,198.769061 116.909265,208.108873 114.258044,215.741878 C113.526672,217.77417 111.936734,218.059961 112.020206,221.989589 L113.602194,221.418006 C114.385239,221.144123 115.219956,219.58418 116.746297,218.556126 C117.831429,217.770201 118.84104,215.968129 120.407129,214.920228 C122.44225,213.570659 126.03551,213.022893 129.275008,207.902469 L140.925279,203.74659 L142.606639,208.446266 C141.449959,216.301552 138.902083,224.037758 136.533076,231.095211 C135.952748,232.79805 134.899414,234.60806 134.275364,236.18785 C131.012016,243.697805 126.663535,250.747319 121.774476,257.427686 C113.785037,268.259962 104.412352,276.178758 93.7359185,279.989306 C92.8336287,280.310821 91.9949364,280.60852 91.2118919,280.890342 C88.7872364,281.759623 86.3109079,282.53364 83.691485,282.982174 C69.0322564,286.014735 56.0186136,285.768637 44.614783,282.132739 C33.3182733,278.409516 25.1817654,269.605562 20.18936,255.665307 C14.723948,240.39136 14.7915204,225.411143 20.3722029,210.692901 C20.7339138,209.24013 21.2585933,207.803236 21.9382918,206.370311 C25.1738157,199.269196 29.2241829,193.144534 34.0774687,187.972509 C37.2215712,185.535346 40.1788559,182.844146 42.9691972,179.910818 C43.998682,178.974058 45.1315129,178.132562 46.3637149,177.38633 C46.1848468,176.878257 47.8980051,175.51281 51.5151141,173.297929 C53.7171783,171.936452 56.6506139,170.316969 60.2955469,168.44345 C61.7622647,167.613862 63.2130832,166.851752 64.6440274,166.169029 C71.6357799,162.171923 76.7196067,159.611711 79.8875583,158.476485 C92.0108358,154.149925 100.433533,151.744517 105.151674,151.244382 C104.905233,154.376176 103.037056,158.702736 99.7220352,164.728165 C95.854511,171.30533 93.8710633,176.97352 92.2692007,177.545103 L113.626043,169.924006 C115.736686,169.173805 120.303783,166.363526 126.615837,162.926094 C132.923916,159.357674 136.270736,157.488124 139.601656,155.729715 L140.78616,159.024251 Z" id="Shape" fill="#FDA066"></path>
                <path d="M50.171443,200.664505 C44.3759226,204.290012 39.4336098,209.109333 35.3484364,215.130479 C26.8792703,227.553348 26.8832021,239.888084 35.3641637,252.13068 C48.4060504,271.03139 66.2408403,274.047972 88.8685334,261.188439 C99.9995498,254.866837 104.992976,245.580731 103.837018,233.338135 C100.801643,201.417649 82.9157398,190.52911 50.171443,200.664505 Z M93.7164822,238.425863 C93.7715279,239.827993 93.6496411,241.226117 93.3586855,242.62424 C90.2721974,245.524646 86.6745711,246.38996 82.5540112,245.22419 C76.6680587,243.493561 74.6431653,239.591634 76.4793308,233.502385 C76.966878,231.903957 77.761108,230.810296 78.8659528,230.233419 C82.2709193,227.749647 85.5815219,227.489251 88.8095559,229.480275 C91.9235669,231.403196 93.5631408,234.38773 93.7164822,238.425863 Z" id="Shape" fill="#ACACAC"></path>
            </g>
            <g id="Group-5" transform="translate(-60.000000, 771.000000)">
                <g id="Group" transform="translate(305.000000, 0.000000)">
                    <path d="M468.927235,186.972543 L489.449577,186.972543 C491.68038,186.980558 493.73415,185.763289 494.79178,183.806219 C495.84941,181.849149 495.738834,179.470675 494.504153,177.619407 L460.452268,126.385425 L484.965065,126.385425 C488.084807,126.385275 490.952215,124.67735 492.429389,121.939422 C493.906563,119.201494 493.754626,115.87632 492.033871,113.28346 L453.763505,55.7256982 C450.772102,51.5078721 445.911441,49 440.728018,49 C435.544595,49 430.683934,51.5078721 427.692531,55.7256982 L389.422164,113.28346 C387.705122,115.870658 387.549798,119.187539 389.0176,121.922801 C390.485401,124.658063 393.340044,126.371387 396.452966,126.385425 L421.041772,126.385425 L386.837869,177.619407 C385.595213,179.482024 385.4912,181.877492 386.567764,183.840084 C387.644328,185.802677 389.724034,187.008929 391.968455,186.972543 L412.034744,186.972543 L380.453141,234.495564 C376.238333,240.817789 375.85413,248.937158 379.453242,255.626464 C383.052354,262.315769 390.051645,266.491196 397.669105,266.493136 L421.041772,266.493136 C423.140693,266.493136 424.842205,268.188497 424.842205,270.279831 L424.842205,285.42661 C424.842205,289.609278 428.24523,293 432.443073,293 L447.644807,293 C451.84265,293 455.245674,289.609278 455.245674,285.42661 L455.245674,270.279831 C455.245674,268.188497 456.947186,266.493136 459.046108,266.493136 L483.292874,266.493136 C490.917152,266.505165 497.929266,262.335165 501.537776,255.643166 C505.146286,248.951166 504.765438,240.823449 500.546843,234.495564 L468.927235,186.972543 Z" id="Shape" fill="#549764"></path>
                    <path d="M828.927235,186.972543 L849.449577,186.972543 C851.68038,186.980558 853.73415,185.763289 854.79178,183.806219 C855.84941,181.849149 855.738834,179.470675 854.504153,177.619407 L820.452268,126.385425 L844.965065,126.385425 C848.084807,126.385275 850.952215,124.67735 852.429389,121.939422 C853.906563,119.201494 853.754626,115.87632 852.033871,113.28346 L813.763505,55.7256982 C810.772102,51.5078721 805.911441,49 800.728018,49 C795.544595,49 790.683934,51.5078721 787.692531,55.7256982 L749.422164,113.28346 C747.705122,115.870658 747.549798,119.187539 749.0176,121.922801 C750.485401,124.658063 753.340044,126.371387 756.452966,126.385425 L781.041772,126.385425 L746.837869,177.619407 C745.595213,179.482024 745.4912,181.877492 746.567764,183.840084 C747.644328,185.802677 749.724034,187.008929 751.968455,186.972543 L772.034744,186.972543 L740.453141,234.495564 C736.238333,240.817789 735.85413,248.937158 739.453242,255.626464 C743.052354,262.315769 750.051645,266.491196 757.669105,266.493136 L781.041772,266.493136 C783.140693,266.493136 784.842205,268.188497 784.842205,270.279831 L784.842205,285.42661 C784.842205,289.609278 788.24523,293 792.443073,293 L807.644807,293 C811.84265,293 815.245674,289.609278 815.245674,285.42661 L815.245674,270.279831 C815.245674,268.188497 816.947186,266.493136 819.046108,266.493136 L843.292874,266.493136 C850.917152,266.505165 857.929266,262.335165 861.537776,255.643166 C865.146286,248.951166 864.765438,240.823449 860.546843,234.495564 L828.927235,186.972543 Z" id="Shape-Copy" fill="#3F7E4E"></path>
                    <path d="M1433.92724,179.972543 L1454.44958,179.972543 C1456.68038,179.980558 1458.73415,178.763289 1459.79178,176.806219 C1460.84941,174.849149 1460.73883,172.470675 1459.50415,170.619407 L1425.45227,119.385425 L1449.96506,119.385425 C1453.08481,119.385275 1455.95221,117.67735 1457.42939,114.939422 C1458.90656,112.201494 1458.75463,108.87632 1457.03387,106.28346 L1418.76351,48.7256982 C1415.7721,44.5078721 1410.91144,42 1405.72802,42 C1400.54459,42 1395.68393,44.5078721 1392.69253,48.7256982 L1354.42216,106.28346 C1352.70512,108.870658 1352.5498,112.187539 1354.0176,114.922801 C1355.4854,117.658063 1358.34004,119.371387 1361.45297,119.385425 L1386.04177,119.385425 L1351.83787,170.619407 C1350.59521,172.482024 1350.4912,174.877492 1351.56776,176.840084 C1352.64433,178.802677 1354.72403,180.008929 1356.96845,179.972543 L1377.03474,179.972543 L1345.45314,227.495564 C1341.23833,233.817789 1340.85413,241.937158 1344.45324,248.626464 C1348.05235,255.315769 1355.05165,259.491196 1362.66911,259.493136 L1386.04177,259.493136 C1388.14069,259.493136 1389.84221,261.188497 1389.84221,263.279831 L1389.84221,278.42661 C1389.84221,282.609278 1393.24523,286 1397.44307,286 L1412.64481,286 C1416.84265,286 1420.24567,282.609278 1420.24567,278.42661 L1420.24567,263.279831 C1420.24567,261.188497 1421.94719,259.493136 1424.04611,259.493136 L1448.29287,259.493136 C1455.91715,259.505165 1462.92927,255.335165 1466.53778,248.643166 C1470.14629,241.951166 1469.76544,233.823449 1465.54684,227.495564 L1433.92724,179.972543 Z" id="Shape-Copy-5" fill="#3F7E4E"></path>
                    <path d="M605.092086,84.913053 C605.929784,81.0522833 606.360845,77.1140876 606.378187,73.1631617 C606.534703,44.9003712 585.479782,21.0290965 557.468544,17.7112553 C550.57379,5.49002111 537.037341,-1.39643855 523.122097,0.238029819 C521.08716,0.466042836 519.112034,1.07005831 517.296819,2.01946495 C497.324436,12.2532413 493.08787,23.3966866 492.709605,34.0473945 C488.031244,35.0220419 483.502873,36.6152711 479.243377,38.7852539 C477.248164,39.8080266 475.789032,41.6420849 475.238662,43.8189867 C474.688291,45.9958886 475.099975,48.3048441 476.368564,50.1561164 L481.891231,58.5326519 L506.894536,96.8145558 C508.995237,99.9571612 510.36543,103.532039 510.904143,107.275749 C512.935992,120.255442 509.267206,133.481453 500.842299,143.548801 C499.588936,144.839521 499.415014,146.835745 500.426207,148.324563 L507.991504,159.998649 C508.180728,160.294821 508.333162,160.613031 508.445422,160.946221 C513.138159,173.588674 511.901728,187.676257 505.078865,199.30393 C504.213862,200.586244 504.213862,202.266738 505.078865,203.549052 L519.415102,225.456914 C520.88286,227.689408 522.148768,230.048752 523.19775,232.506849 C523.440208,233.065936 523.758424,233.588864 524.143412,234.060867 L524.143412,288.565201 C524.142017,290.956377 526.032844,292.918089 528.417805,292.999838 L549.789768,292.999838 C550.970076,293.009947 552.105512,292.547194 552.943691,291.71444 C553.781869,290.881686 554.253336,289.747937 554.253293,288.565201 L554.253293,243.7261 C556.409794,244.012217 558.584386,244.138902 560.759448,244.105129 C579.081004,243.3304 595.186126,231.707718 601.725529,214.540886 C605.137309,206.007245 605.733803,196.603449 603.427721,187.705651 C624.063293,179.190708 637.656234,159.180532 637.99358,136.821227 C638.330927,114.461922 625.347868,94.0491583 604.978607,84.913053 L605.092086,84.913053 Z" id="Shape" fill="#3F7E4E"></path>
                    <path d="M1086.64688,129.01468 C1094.97942,113.580968 1094.36241,94.0797652 1083.38066,78.9475598 C1072.78101,64.3444128 1055.36871,57.7169619 1038.7291,60.2029671 C1037.65922,57.9359807 1036.3884,55.7258823 1034.86284,53.623871 C1021.7555,35.5647786 996.56258,31.6053745 978.592704,44.7777886 C972.714072,49.0870538 968.369489,54.7075872 965.598579,60.9368222 C952.128955,52.7705512 934.546837,52.9867255 921.043249,62.8880802 C903.073373,76.0604943 899.13353,101.378494 912.243699,119.437587 C912.311628,119.531452 912.390877,119.611095 912.458806,119.70496 C911.015328,120.51277 909.591664,121.383156 908.221775,122.387229 C890.2519,135.559643 886.312056,160.877643 899.419395,178.936736 C899.883572,179.576725 900.395865,180.159827 900.891176,180.76284 C887.902711,194.666265 886.136574,216.300767 897.729677,232.272071 C907.52268,245.763057 924.0604,251.375058 939.290499,247.865069 C950.773219,259.168712 967.837384,262.325996 982.54953,256.310091 L980.973026,293 L1013.37767,293 L1011.69362,253.838308 C1017.86094,252.893967 1023.90091,250.547337 1029.29272,246.596467 C1031.63908,244.875605 1033.73353,242.938569 1035.5959,240.847935 C1048.9976,248.715544 1066.31366,248.396971 1079.65592,238.617926 C1090.32067,230.798672 1095.99835,218.698596 1096.14835,206.382346 C1099.02965,205.179165 1101.82603,203.660256 1104.45826,201.731753 C1122.42813,188.559339 1126.36797,163.241339 1113.26064,145.182247 C1106.64045,136.065946 1096.93802,130.5535 1086.64688,129.01468 Z" id="Shape-Copy-2" fill="#3F7E4E"></path>
                    <path d="M1734,126.044444 C1734,89.5511111 1704.38222,59.9333333 1667.88889,59.9333333 C1666.83111,59.9333333 1666.03778,59.9333333 1664.98,59.9333333 C1655.72444,54.9088889 1644.88222,52 1633.51111,52 C1617.64444,52 1602.83556,57.5533333 1591.46444,67.0733333 C1584.06,64.1644444 1575.86222,62.5777778 1567.4,62.5777778 C1530.90667,62.5777778 1501.28889,92.1955556 1501.28889,128.688889 C1501.28889,133.184444 1501.81778,137.68 1502.61111,142.175556 C1498.38,150.902222 1496,160.686667 1496,171 C1496,207.493333 1525.61778,237.111111 1562.11111,237.111111 C1577.18444,237.111111 1591.2,232.086667 1602.57111,223.36 L1603.62889,244.515556 C1604.15778,259.06 1603.1,273.34 1599.92667,287.62 L1599.13333,290 L1641.44444,290 L1637.47778,277.571111 C1631.92444,260.382222 1630.60222,242.135556 1632.98222,224.417778 C1643.03111,230.764444 1655.19556,234.466667 1667.88889,234.466667 C1704.38222,234.466667 1734,204.848889 1734,168.355556 C1734,160.951111 1732.67778,153.811111 1730.56222,147.2 C1732.67778,140.588889 1734,133.448889 1734,126.044444 Z" id="Shape" fill="#3F7E4E"></path>
                    <path d="M1252,123.155556 C1252,78.2288889 1220.76444,41.7666667 1182.27778,41.7666667 C1181.16222,41.7666667 1180.32556,41.7666667 1179.21,41.7666667 C1169.44889,35.5811111 1158.01444,32 1146.02222,32 C1129.28889,32 1113.67111,38.8366667 1101.67889,50.5566667 C1093.87,46.9755556 1085.22444,45.0222222 1076.3,45.0222222 C1037.81333,45.0222222 1006.57778,81.4844444 1006.57778,126.411111 C1006.57778,131.945556 1007.13556,137.48 1007.97222,143.014444 C1003.51,153.757778 1001,165.803333 1001,178.5 C1001,223.426667 1032.23556,259.888889 1070.72222,259.888889 C1086.61889,259.888889 1101.4,253.703333 1113.39222,242.96 L1114.50778,269.004444 C1115.06556,286.91 1113.95,304.49 1110.60333,322.07 L1109.76667,325 L1154.38889,325 L1150.20556,309.698889 C1144.34889,288.537778 1142.95444,266.074444 1145.46444,244.262222 C1156.06222,252.075556 1168.89111,256.633333 1182.27778,256.633333 C1220.76444,256.633333 1252,220.171111 1252,175.244444 C1252,166.128889 1250.60556,157.338889 1248.37444,149.2 C1250.60556,141.061111 1252,132.271111 1252,123.155556 Z" id="Shape-Copy-4" fill="#494949"></path>
                    <path d="M1260,129.044444 C1260,92.5511111 1230.38222,62.9333333 1193.88889,62.9333333 C1192.83111,62.9333333 1192.03778,62.9333333 1190.98,62.9333333 C1181.72444,57.9088889 1170.88222,55 1159.51111,55 C1143.64444,55 1128.83556,60.5533333 1117.46444,70.0733333 C1110.06,67.1644444 1101.86222,65.5777778 1093.4,65.5777778 C1056.90667,65.5777778 1027.28889,95.1955556 1027.28889,131.688889 C1027.28889,136.184444 1027.81778,140.68 1028.61111,145.175556 C1024.38,153.902222 1022,163.686667 1022,174 C1022,210.493333 1051.61778,240.111111 1088.11111,240.111111 C1103.18444,240.111111 1117.2,235.086667 1128.57111,226.36 L1129.62889,247.515556 C1130.15778,262.06 1129.1,276.34 1125.92667,290.62 L1125.13333,293 L1167.44444,293 L1163.47778,280.571111 C1157.92444,263.382222 1156.60222,245.135556 1158.98222,227.417778 C1169.03111,233.764444 1181.19556,237.466667 1193.88889,237.466667 C1230.38222,237.466667 1260,207.848889 1260,171.355556 C1260,163.951111 1258.67778,156.811111 1256.56222,150.2 C1258.67778,143.588889 1260,136.448889 1260,129.044444 Z" id="Shape-Copy-3" fill="#549764"></path>
                    <path d="M196.646879,129.01468 C204.979422,113.580968 204.362406,94.0797652 193.380658,78.9475598 C182.781006,64.3444128 165.368709,57.7169619 148.729096,60.2029671 C147.659225,57.9359807 146.388399,55.7258823 144.862842,53.623871 C131.755503,35.5647786 106.56258,31.6053745 88.5927041,44.7777886 C82.7140724,49.0870538 78.3694891,54.7075872 75.598579,60.9368222 C62.1289554,52.7705512 44.5468371,52.9867255 31.0432494,62.8880802 C13.0733735,76.0604943 9.13352983,101.378494 22.2436992,119.437587 C22.3116275,119.531452 22.3908773,119.611095 22.4588056,119.70496 C21.0153284,120.51277 19.5916636,121.383156 18.2217755,122.387229 C0.251899536,135.559643 -3.68794411,160.877643 9.41939492,178.936736 C9.8835719,179.576725 10.3958648,180.159827 10.8911756,180.76284 C-2.09728885,194.666265 -3.86342565,216.300767 7.72967749,232.272071 C17.5226797,245.763057 34.0603998,251.375058 49.2904994,247.865069 C60.773219,259.168712 77.8373838,262.325996 92.5495298,256.310091 L90.9730263,293 L123.377674,293 L121.693617,253.838308 C127.860945,252.893967 133.900906,250.547337 139.292718,246.596467 C141.639076,244.875605 143.733533,242.938569 145.595902,240.847935 C158.997597,248.715544 176.313663,248.396971 189.65592,238.617926 C200.32067,230.798672 205.998347,218.698596 206.148355,206.382346 C209.029649,205.179165 211.826032,203.660256 214.458255,201.731753 C232.428131,188.559339 236.367975,163.241339 223.260636,145.182247 C216.640453,136.065946 206.938022,130.5535 196.646879,129.01468 Z" id="Shape" fill="#549764"></path>
                </g>
                <path d="M130.092086,84.913053 C130.929784,81.0522833 131.360845,77.1140876 131.378187,73.1631617 C131.534703,44.9003712 110.479782,21.0290965 82.468544,17.7112553 C75.5737901,5.49002111 62.0373414,-1.39643855 48.1220973,0.238029819 C46.08716,0.466042836 44.1120344,1.07005831 42.2968189,2.01946495 C22.3244358,12.2532413 18.0878697,23.3966866 17.7096049,34.0473945 C13.0312445,35.0220419 8.50287285,36.6152711 4.24337693,38.7852539 C2.24816401,39.8080266 0.789031866,41.6420849 0.238661555,43.8189867 C-0.311708755,45.9958886 0.0999752545,48.3048441 1.36856421,50.1561164 L6.89123074,58.5326519 L31.8945361,96.8145558 C33.9952371,99.9571612 35.3654301,103.532039 35.9041433,107.275749 C37.9359917,120.255442 34.2672057,133.481453 25.8422988,143.548801 C24.5889364,144.839521 24.4150141,146.835745 25.4262075,148.324563 L32.9915041,159.998649 C33.1807283,160.294821 33.3331617,160.613031 33.4454219,160.946221 C38.1381592,173.588674 36.9017285,187.676257 30.0788649,199.30393 C29.213862,200.586244 29.213862,202.266738 30.0788649,203.549052 L44.415102,225.456914 C45.8828601,227.689408 47.1487683,230.048752 48.1977503,232.506849 C48.440208,233.065936 48.7584239,233.588864 49.1434124,234.060867 L49.1434124,288.565201 C49.1420173,290.956377 51.0328435,292.918089 53.4178049,292.999838 L74.7897679,292.999838 C75.9700764,293.009947 77.1055122,292.547194 77.9436908,291.71444 C78.7818695,290.881686 79.253336,289.747937 79.2532929,288.565201 L79.2532929,243.7261 C81.4097937,244.012217 83.5843864,244.138902 85.759448,244.105129 C104.081004,243.3304 120.186126,231.707718 126.725529,214.540886 C130.137309,206.007245 130.733803,196.603449 128.427721,187.705651 C149.063293,179.190708 162.656234,159.180532 162.99358,136.821227 C163.330927,114.461922 150.347868,94.0491583 129.978607,84.913053 L130.092086,84.913053 Z" id="Shape" fill="#3F7E4E"></path>
            </g>
        </g>
    </g>
</svg>