<?xml version="1.0" encoding="UTF-8"?>
<svg width="1920px" height="1080px" viewBox="0 0 1920 1080" version="1.1" xmlns="http://www.w3.org/2000/svg" xmlns:xlink="http://www.w3.org/1999/xlink">
    <!-- Generator: Sketch 46.2 (44496) - http://www.bohemiancoding.com/sketch -->
    <title>robotSleepingOnPhoneExplosion</title>
    <desc>Created with Sketch.</desc>
    <defs></defs>
    <g id="Actual-Slides" stroke="none" stroke-width="1" fill="none" fill-rule="evenodd">
        <g id="robotSleepingOnPhoneExplosion">
            <g id="noun_1131411" transform="translate(860.000000, 367.000000)">
                <rect id="Rectangle-4" fill="#4ABAEB" x="8" y="44" width="178" height="247"></rect>
                <path d="M156.521739,0 L43.4782609,0 C19.4658804,0 0,19.419649 0,43.375 L0,303.625 C0,327.580351 19.4658804,347 43.4782609,347 L156.521739,347 C180.53412,347 200,327.580351 200,303.625 L200,43.375 C200,19.419649 180.53412,0 156.521739,0 Z M121.73913,316.6375 L78.2608696,316.6375 C73.4583935,316.6375 69.5652174,312.75357 69.5652174,307.9625 C69.5652174,303.17143 73.4583935,299.2875 78.2608696,299.2875 L121.73913,299.2875 C126.541607,299.2875 130.434783,303.17143 130.434783,307.9625 C130.434783,312.75357 126.541607,316.6375 121.73913,316.6375 Z M182.608696,273.2625 L17.3913043,273.2625 L17.3913043,56.3875 L182.608696,56.3875 L182.608696,273.2625 Z" id="Shape" fill="#FFFFFF" fill-rule="nonzero"></path>
            </g>
            <rect id="Rectangle-2" fill="#FFFFFF" transform="translate(1007.753270, 419.514311) rotate(17.000000) translate(-1007.753270, -419.514311) " x="970.519917" y="404.52639" width="74.4667072" height="29.9758418"></rect>
            <g id="noun_563989" transform="translate(942.000000, 338.000000)" fill-rule="nonzero" fill="#FDA066">
                <path d="M144,2.07407407 L81.9891892,26.1851852 L52.4108108,0 L46.4432432,25.6666667 L2.33513514,16.5925926 L31.1351351,61.962963 L0,73.3703704 L29.5783784,87.6296296 L26.4648649,133 L65.9027027,98.2592593 L97.0378378,126.259259 L108.454054,84.7777778 L135.697297,87.8888889 L119.610811,46.6666667 L144,2.07407407 Z M77.8378378,70 L86.4,101.888889 L66.1621622,74.4074074 L50.0756757,92.2962963 L58.1189189,69.7407407 L27.7621622,70.7777778 L55.7837838,60.4074074 L39.1783784,43.2962963 L61.2324324,53.4074074 L71.8702703,31.1111111 L73.1675676,57.037037 L96.5189189,42 L81.9891892,62.4814815 L105.081081,66.6296296 L77.8378378,70 Z" id="Shape"></path>
                <polygon id="Shape" points="120.222222 101 122 98.6190476 116 96"></polygon>
                <polygon id="Shape" points="11 91.9411765 11.8888889 95 17 91"></polygon>
                <polygon id="Shape" points="57 128.181818 60 129 59.5384615 120"></polygon>
                <polygon id="Shape" points="38 6.26470588 35 6 40 15"></polygon>
                <polygon id="Shape" points="67 120 71 118.068966 67.75 112"></polygon>
                <polygon id="Shape" points="83.3846154 21 85 14.4285714 82 13"></polygon>
                <path d="M103,9 C103,9 106.759709,5.18181818 106.980869,5.18181818 C107.202028,5.18181818 105.432753,3 105.432753,3 L103,9 Z" id="Shape"></path>
                <polygon id="Shape" points="131 41 139.4375 37 140 40"></polygon>
                <polygon id="Shape" points="4.5 40 3 42.1 7 43"></polygon>
                <polygon id="Shape" points="20 58 15.5263158 55 15 57.6"></polygon>
            </g>
            <g id="noun_835610" transform="translate(189.000000, 632.000000)" fill-rule="nonzero" fill="#E5A1EE">
                <path d="M283.607698,127 L273.743906,143.3441 C277.239611,145.969886 279.328285,150.420717 279.328285,155.253628 C279.328285,163.094406 273.900648,169.475962 267.233658,169.475962 C260.552088,169.475962 255.11716,163.09847 255.11716,155.253628 C255.11716,150.420717 257.205835,145.969886 260.701539,143.340035 L250.834102,127 C242.453889,133.292133 237.449091,143.852185 237.449091,155.253628 C237.449091,170.451486 246.270367,183.348733 258.386865,187.64917 L258.386865,216.508435 C258.386865,221.760009 254.785451,226.031993 250.360232,226.031993 L200.735082,226.031993 C191.829966,207.797815 174.479025,195.351748 154.642087,195.351748 L146.910712,195.351748 C127.07742,195.351748 109.722833,207.797815 100.817718,226.031993 L46.6324775,226.031993 C42.2072584,226.031993 38.6058445,221.760009 38.6058445,216.508435 L38.6058445,187.64917 C50.7223422,183.348733 59.5436191,170.451486 59.5436191,155.253628 C59.5436191,143.852185 54.5388203,133.292133 46.1586072,127 L36.2948158,143.3441 C39.7905201,145.965822 41.8791944,150.420717 41.8791944,155.253628 C41.8791944,163.094406 36.4442672,169.475962 29.7626967,169.475962 C23.0957068,169.475962 17.6680699,163.09847 17.6680699,155.253628 C17.6680699,150.420717 19.7567442,145.969886 23.2524485,143.3441 L13.3886571,127 C5.00479884,133.292133 0,143.85625 0,155.253628 C0,170.455551 8.82127691,183.356862 20.9377746,187.653234 L20.9377746,216.508435 C20.9377746,232.620848 32.4637571,245.729458 46.6324775,245.729458 L95.0401458,245.729458 C94.7047915,248.383698 94.4751467,251.070455 94.4751467,253.822247 L94.4751467,296.306337 L142.07359,296.306337 L142.07359,313 C144.818393,312.000087 147.738162,311.443226 150.778222,311.443226 C153.818282,311.443226 156.738052,312.000087 159.482854,313 L159.482854,296.306337 L207.081298,296.306337 L207.081298,253.822247 C207.081298,251.070455 206.848008,248.383698 206.516299,245.729458 L250.367523,245.729458 C264.532598,245.729458 276.062225,232.620848 276.062225,216.508435 L276.062225,187.653234 C288.178723,183.356862 297,170.459615 297,155.253628 C296.996355,143.85625 291.991556,133.292133 283.607698,127 Z M164.771975,249.757561 L138.909595,277.592526 C137.49892,279.108654 135.679987,279.864685 133.8647,279.864685 C131.961928,279.864685 130.062802,279.03549 128.637546,277.389292 C125.852647,274.170061 125.932841,269.040428 128.819804,265.930944 L141.738236,252.025656 L133.05912,252.025656 C130.197673,252.025656 127.602322,250.151836 126.432227,247.241521 C125.258487,244.331206 125.728712,240.920935 127.631483,238.53903 L149.732063,210.834135 C152.400317,207.488899 156.993213,207.192177 159.989531,210.167526 C162.989494,213.138811 163.25559,218.264379 160.587336,221.605551 L149.243612,235.82382 L159.72708,235.82382 C162.690591,235.82382 165.3552,237.831774 166.463328,240.892483 C167.571455,243.957255 166.900746,247.461014 164.771975,249.757561 Z" id="Shape"></path>
                <path d="M99.2920061,139 L200.708,139 C202.493124,139 204,137.178348 204,135.020323 L204,119.979677 C204,117.821652 202.493124,116 200.708,116 L99.2920061,116 C97.5068823,116 96.0000065,117.821652 96.0000065,119.979677 L96.0000065,135.020323 C95.9963929,137.178348 97.5068823,139 99.2920061,139 Z" id="Shape"></path>
                <polygon id="Shape" points="155 0 151 0 147 0 147 15 155 15"></polygon>
                <polygon id="Shape" points="170 39 181 39 181 35 181 31 170 31"></polygon>
                <polygon id="Shape" points="130 31 119 31 119 35 119 39 130 39"></polygon>
                <rect id="Rectangle-path" transform="translate(170.000000, 15.500000) rotate(45.000000) translate(-170.000000, -15.500000) " x="166" y="8" width="8" height="15"></rect>
                <rect id="Rectangle-path" transform="translate(132.500000, 15.000000) rotate(45.000000) translate(-132.500000, -15.000000) " x="127" y="11" width="11" height="8"></rect>
                <path d="M222.619688,74.1959184 L167.308579,74.1959184 L167.308579,58.8081633 L155.918459,58.8081633 L155.918459,46.7714286 C159.553374,44.7102041 162.073726,40.4938776 162.073726,35.5673469 C162.073726,28.6285714 157.119312,23 151.003594,23 C144.887877,23 139.933463,28.6244898 139.933463,35.5673469 C139.933463,40.4938776 142.453814,44.7142857 146.088729,46.7714286 L146.088729,58.8081633 L134.695014,58.8081633 L134.695014,74.1959184 L79.3803097,74.1959184 C74.2209596,74.1959184 70,78.9877551 70,84.844898 L70,178.35102 C70,184.208163 74.2209596,189 79.3803097,189 L222.619688,189 C227.779038,189 231.999998,184.208163 231.999998,178.35102 L231.999998,84.8489796 C232.003593,78.9877551 227.782633,74.1959184 222.619688,74.1959184 Z M217.837851,132.918367 C217.837851,143.17551 210.488923,151.518367 201.453769,151.518367 L100.549824,151.518367 C91.5146697,151.518367 84.1657417,143.17551 84.1657417,132.918367 L84.1657417,118.865306 C84.1657417,108.608163 91.5146697,100.265306 100.549824,100.265306 L201.453769,100.265306 C210.488923,100.265306 217.837851,108.608163 217.837851,118.865306 L217.837851,132.918367 Z" id="Shape"></path>
                <path d="M131,344 C131,356.700442 140.400374,367 152,367 C163.596056,367 173,356.704352 173,344 C173,331.295648 163.599626,321 152,321 C140.400374,321 131,331.299558 131,344 Z M158.16219,344 C158.16219,347.726454 155.402414,350.749065 152,350.749065 C148.594016,350.749065 145.83781,347.726454 145.83781,344 C145.83781,340.273546 148.597586,337.250935 152,337.250935 C155.402414,337.250935 158.16219,340.273546 158.16219,344 Z" id="Shape"></path>
            </g>
            <g id="noun_1002950" transform="translate(142.000000, 516.000000)" fill-rule="nonzero" fill="#FFFFFF">
                <path d="M42.8196601,54.0147783 L19.2650334,54.0147783 L46.6744974,12.847828 C47.9009671,10.9247649 48.9504836,8.73981191 48.9504836,6.64164801 C48.9504836,2.96909987 46.6744974,0 40.806053,0 L8.23138176,0 C3.50245599,0 1.1379931,2.27174205 1.1379931,7.0786386 C1.1379931,11.6236453 3.50245599,13.9836991 8.23138176,13.9836991 L28.8967874,13.9836991 L1.48884889,55.238961 C0.61323489,56.7250336 0,58.5613077 0,60.5711599 C0,65.5531572 2.36293743,68 6.82948409,68 L42.8196601,68 C47.5485859,68 50,65.6399463 50,60.8330497 C50,56.3748321 47.5485859,54.0147783 42.8196601,54.0147783 Z" id="Shape"></path>
                <path d="M94.6916854,77.5686105 L80.5579562,77.5686105 L97.0048126,52.7473886 C97.7405284,51.58736 98.3702642,50.2701961 98.3702642,49.0054107 C98.3702642,46.791651 97.0048126,45 93.4828999,45 L73.9380504,45 C71.0996314,45 69.6819578,46.3695423 69.6819578,49.2688435 C69.6819578,52.0094687 71.1011673,53.43293 73.9380504,53.43293 L86.3377022,53.43293 L69.8923817,78.3065304 C69.3670899,79.2031262 69,80.3092357 69,81.5216427 C69,84.5257008 70.4176736,86 73.0978906,86 L94.6916854,86 C97.5285685,86 99,84.5765387 99,81.6787781 C99,78.9920718 97.5301044,77.5686105 94.6916854,77.5686105 Z" id="Shape"></path>
                <path d="M134.9846,142.241765 L125.091376,142.241765 L136.603183,125.291066 C137.117556,124.498385 137.559548,123.598708 137.559548,122.735199 C137.559548,121.223681 136.603183,120 134.139117,120 L120.457392,120 C118.470739,120 117.477413,120.935845 117.477413,122.914532 C117.477413,124.786222 118.470739,125.758235 120.457392,125.758235 L129.137064,125.758235 L117.625257,142.745102 C117.257187,143.356943 117,144.113455 117,144.940797 C117,146.991819 117.993326,148 119.869097,148 L134.9846,148 C136.971253,148 138,147.027987 138,145.0493 C138,143.213778 136.969713,142.241765 134.9846,142.241765 Z" id="Shape"></path>
            </g>
        </g>
    </g>
</svg>