<?xml version="1.0" encoding="UTF-8"?>
<svg width="1920px" height="1080px" viewBox="0 0 1920 1080" version="1.1" xmlns="http://www.w3.org/2000/svg" xmlns:xlink="http://www.w3.org/1999/xlink">
    <!-- Generator: Sketch 46.2 (44496) - http://www.bohemiancoding.com/sketch -->
    <title>thankYou</title>
    <desc>Created with Sketch.</desc>
    <defs></defs>
    <g id="Actual-Slides" stroke="none" stroke-width="1" fill="none" fill-rule="evenodd">
        <g id="thankYou">
            <path d="M960.5,609 C992.767857,609 1019,635.232143 1019,667.5 C1019,699.767857 992.767857,726 960.5,726 C928.232143,726 902,699.767857 902,667.5 C902,635.232143 928.232143,609 960.5,609 Z M959.5,597 C955.409091,597 952,593.744186 952,589.325581 L952,564.674419 C952,560.488372 955.409091,557 959.5,557 C963.590909,557 967,560.488372 967,564.674419 L967,589.325581 C967,593.511628 963.590909,597 959.5,597 Z M899.302491,617.655417 L882.220641,600.071048 C879.259786,597.023091 879.259786,592.333925 882.220641,589.285968 C885.181495,586.238011 889.736655,586.238011 892.697509,589.285968 L909.779359,606.870337 C912.740214,609.918295 912.740214,614.60746 909.779359,617.655417 C908.412811,619.296625 906.362989,620 904.540925,620 C902.718861,620 900.669039,619.062167 899.302491,617.655417 Z M890,666.5 C890,670.590909 886.744186,674 882.325581,674 L857.674419,674 C853.488372,674 850,670.590909 850,666.5 C850,662.409091 853.488372,659 857.674419,659 L882.325581,659 C886.511628,659 890,662.409091 890,666.5 Z M899.302491,716.285968 C902.263345,713.238011 907.046263,713.238011 909.779359,716.285968 C912.740214,719.333925 912.740214,724.023091 909.779359,727.071048 L892.697509,744.655417 C891.330961,746.296625 889.281139,747 887.459075,747 C885.637011,747 883.587189,746.062167 882.220641,744.655417 C879.259786,741.60746 879.259786,736.918295 882.220641,733.870337 L899.302491,716.285968 Z M959.5,737 C963.590909,737 967,740.255814 967,744.674419 L967,769.325581 C967,773.511628 963.590909,777 959.5,777 C955.409091,777 952,773.511628 952,769.325581 L952,744.674419 C952,740.488372 955.409091,737 959.5,737 Z M1019.69751,716.285968 L1036.77936,733.870337 C1039.74021,736.918295 1039.74021,741.60746 1036.77936,744.655417 C1035.41281,746.296625 1033.36299,747 1031.54093,747 C1029.71886,747 1027.66904,746.062167 1026.30249,744.655417 L1009.22064,727.071048 C1006.25979,724.023091 1006.25979,719.333925 1009.22064,716.285968 C1012.18149,713.238011 1016.73665,713.238011 1019.69751,716.285968 Z M1062.32558,659 C1066.51163,659 1070,662.409091 1070,666.5 C1070,670.590909 1066.51163,674 1062.32558,674 L1037.67442,674 C1033.48837,674 1030,670.590909 1030,666.5 C1030,662.409091 1033.48837,659 1037.67442,659 L1062.32558,659 Z M1014.45907,620 C1012.40925,620 1010.58719,619.296625 1009.22064,617.655417 C1006.25979,614.60746 1006.25979,609.918295 1009.22064,606.870337 L1026.30249,589.285968 C1029.26335,586.238011 1033.81851,586.238011 1036.77936,589.285968 C1039.74021,592.333925 1039.74021,597.023091 1036.77936,600.071048 L1019.69751,617.655417 C1018.33096,619.296625 1016.28114,620 1014.45907,620 Z" id="Sun" fill="#FFF8D0" fill-rule="nonzero"></path>
            <rect id="Rectangle" fill="#702D2D" x="0" y="666" width="1920" height="504"></rect>
            <path d="M870.5,681 L989,792.645223 L989,931 L908.963019,931 L908.963019,841.763854 C908.963019,820.575524 891.743726,803.38375 870.5,803.38375 C849.256274,803.38375 832.031906,820.570459 832.031906,841.763854 L832.031906,931 L752,931 L752,792.645223 L870.5,681 Z M922,680 L1081.89492,680 L1177,768 L1014.8678,768 L922,680 Z M1177,773.593598 L1177,790.595245 L1021.26794,790.595245 L1013.2039,790.595245 L998.971142,790.595245 L998.778052,790.595245 L998.778052,790.422999 L870.60703,669.780202 L728,804 L728,775.2046 L870.60703,641 L1011.4915,773.593598 L1177,773.593598 Z M999,797 L1165,797 L1165,913 L999,913 L999,797 Z M1133.50547,881.187207 L1133.50547,825.626977 L1032.21733,825.626977 L1032.21733,881.187207 L1133.50547,881.187207 Z" id="House" fill="#2F0707" fill-rule="nonzero"></path>
            <text id="pirelenito" font-family="FiraCode-Regular, Fira Code" font-size="72" font-weight="normal" letter-spacing="2" fill="#FFF8D0">
                <tspan x="734" y="415">pirelenito</tspan>
            </text>
            <text id="xaviervia" font-family="FiraCode-Regular, Fira Code" font-size="72" font-weight="normal" letter-spacing="2" fill="#FFF8D0">
                <tspan x="757" y="491">xaviervia</tspan>
            </text>
            <g id="Group" transform="translate(795.000000, 177.000000)">
                <path d="M69.4985808,131 C68.4199833,131 67.3130016,130.857208 66.1208675,130.563226 C65.68659,130.445632 65.3686876,130.328039 65.0536236,130.196447 L64.6903065,130.064855 C64.1510077,129.882865 63.6173858,129.684077 63.112148,129.418093 C62.496212,129.093312 0,95.7976636 0,57.5435061 C0,33.2885279 17.1042862,15 39.7888955,15 C49.7971452,15 61.2331176,20.0033067 69.4985808,27.7616519 C77.7668824,20.0033067 89.2000163,15 99.2111045,15 C121.892875,15 139,33.2913277 139,57.5435061 C139,95.7976636 76.503788,129.093312 75.8736599,129.426492 C75.374099,129.689677 74.8461538,129.885665 74.3096935,130.067655 C74.292663,130.073254 74.0173368,130.165649 74.0031447,130.174048 C73.6341508,130.330839 73.3162484,130.448432 72.9841539,130.538027 C71.6869984,130.857208 70.5800167,131 69.4985808,131 Z" id="Heart" fill="#FFF8D0" fill-rule="nonzero"></path>
                <path d="M246.571928,0.000404983718 C246.994884,0.0197894054 247.359727,0.229916536 247.714563,0.545688765 C248.282224,1.05065295 248.977273,2.15207579 248.977273,4.42257309 L248.977273,125.030002 C248.977273,127.598438 246.648899,131.337111 243.264676,133.57136 C233.986782,137.972593 224.802986,131.778689 219.331501,124.121454 C215.56223,118.657373 213.144186,110.450979 216.565355,96.7409587 C219.125219,89.5960547 220.65598,79.4353224 224.98406,62.9392959 C224.98406,62.8985886 224.98406,62.8578814 224.98406,62.8191125 C227.027063,53.7260742 228.98155,48.9788293 230.456122,46.5239861 C231.930694,44.069143 232.683086,43.8217978 234.364903,42.4654698 C236.046527,41.108948 238.10223,38.4953464 238.995286,34.3482432 C239.88815,30.2009462 240.257996,24.1522313 240.257996,13.6311426 C240.257996,4.12308378 243.923163,0.725188509 245.73025,0.18320008 C246.069115,0.0824010873 246.318309,-0.0106441366 246.571928,0.000986516367 L246.571928,0.000404983718 Z M258.368021,0.0024459627 C258.621831,-0.0169034649 258.931446,0.0817786158 259.270116,0.184330582 C261.077193,0.725340577 264.742147,4.11710174 264.742147,13.607996 C264.742147,24.1102848 265.111798,30.1480802 266.005042,34.2876967 C266.897901,38.4275067 268.9534,41.0361966 270.635207,42.3902695 C272.316822,43.7443424 273.069209,43.9910476 274.543773,46.4416526 C276.01853,48.8920642 277.973005,53.630739 280.015997,62.7071685 C280.015997,62.7478023 280.015997,62.7884361 280.015997,62.8271349 C284.333662,79.2542958 285.886158,89.3781098 288.434654,96.5072129 C288.434654,96.5265624 288.434654,96.5517166 288.434654,96.5671962 C291.855804,110.252466 289.437773,118.444046 285.668524,123.898263 C280.078343,130.939519 269.763515,138.497986 261.675447,133.331109 C258.291243,131.101668 256.022727,127.369743 256.022727,124.805944 L256.022727,4.41624389 C256.022727,2.14984544 256.717964,1.05041096 257.285622,0.546358372 C257.640456,0.231156197 257.945068,0.0219888846 258.368021,0.00205897415 L258.368021,0.0024459627 Z M206.347621,108.030303 C206.401325,116.335469 208.703708,122.817158 212.041818,127.65683 C216.59192,134.254467 222.688324,137.666818 226.666667,139.613973 L226.666667,150.30303 L175.299785,150.30303 L175,117.330303 C184.859546,114.928053 192.041162,113.308258 197.536653,111.65368 C201.002118,110.61034 203.892372,109.498978 206.347621,108.030303 Z M298.6759,108.030303 C301.134014,109.498978 304.02764,110.61034 307.496959,111.65368 C312.998671,113.308258 320.128948,114.928246 330,117.330303 L329.700057,150.30303 L278.333333,150.30303 L278.333333,139.613973 C282.316895,137.665079 288.426366,134.244612 292.97525,127.65683 C296.317063,122.817158 298.622901,116.335469 298.6759,108.030303 L298.6759,108.030303 Z" id="Combined-Shape" fill="#400D0D"></path>
            </g>
        </g>
    </g>
</svg>