<?xml version="1.0" encoding="UTF-8"?>
<svg width="1920px" height="1080px" viewBox="0 0 1920 1080" version="1.1" xmlns="http://www.w3.org/2000/svg" xmlns:xlink="http://www.w3.org/1999/xlink">
    <!-- Generator: Sketch 46.2 (44496) - http://www.bohemiancoding.com/sketch -->
    <title>thankYou</title>
    <desc>Created with Sketch.</desc>
    <defs></defs>
    <g id="Actual-Slides" stroke="none" stroke-width="1" fill="none" fill-rule="evenodd">
        <g id="thankYou">
            <path d="M960.5,609 C992.767857,609 1019,635.232143 1019,667.5 C1019,699.767857 992.767857,726 960.5,726 C928.232143,726 902,699.767857 902,667.5 C902,635.232143 928.232143,609 960.5,609 Z M959.5,597 C955.409091,597 952,593.744186 952,589.325581 L952,564.674419 C952,560.488372 955.409091,557 959.5,557 C963.590909,557 967,560.488372 967,564.674419 L967,589.325581 C967,593.511628 963.590909,597 959.5,597 Z M899.302491,617.655417 L882.220641,600.071048 C879.259786,597.023091 879.259786,592.333925 882.220641,589.285968 C885.181495,586.238011 889.736655,586.238011 892.697509,589.285968 L909.779359,606.870337 C912.740214,609.918295 912.740214,614.60746 909.779359,617.655417 C908.412811,619.296625 906.362989,620 904.540925,620 C902.718861,620 900.669039,619.062167 899.302491,617.655417 Z M890,666.5 C890,670.590909 886.744186,674 882.325581,674 L857.674419,674 C853.488372,674 850,670.590909 850,666.5 C850,662.409091 853.488372,659 857.674419,659 L882.325581,659 C886.511628,659 890,662.409091 890,666.5 Z M899.302491,716.285968 C902.263345,713.238011 907.046263,713.238011 909.779359,716.285968 C912.740214,719.333925 912.740214,724.023091 909.779359,727.071048 L892.697509,744.655417 C891.330961,746.296625 889.281139,747 887.459075,747 C885.637011,747 883.587189,746.062167 882.220641,744.655417 C879.259786,741.60746 879.259786,736.918295 882.220641,733.870337 L899.302491,716.285968 Z M959.5,737 C963.590909,737 967,740.255814 967,744.674419 L967,769.325581 C967,773.511628 963.590909,777 959.5,777 C955.409091,777 952,773.511628 952,769.325581 L952,744.674419 C952,740.488372 955.409091,737 959.5,737 Z M1019.69751,716.285968 L1036.77936,733.870337 C1039.74021,736.918295 1039.74021,741.60746 1036.77936,744.655417 C1035.41281,746.296625 1033.36299,747 1031.54093,747 C1029.71886,747 1027.66904,746.062167 1026.30249,744.655417 L1009.22064,727.071048 C1006.25979,724.023091 1006.25979,719.333925 1009.22064,716.285968 C1012.18149,713.238011 1016.73665,713.238011 1019.69751,716.285968 Z M1062.32558,659 C1066.51163,659 1070,662.409091 1070,666.5 C1070,670.590909 1066.51163,674 1062.32558,674 L1037.67442,674 C1033.48837,674 1030,670.590909 1030,666.5 C1030,662.409091 1033.48837,659 1037.67442,659 L1062.32558,659 Z M1014.45907,620 C1012.40925,620 1010.58719,619.296625 1009.22064,617.655417 C1006.25979,614.60746 1006.25979,609.918295 1009.22064,606.870337 L1026.30249,589.285968 C1029.26335,586.238011 1033.81851,586.238011 1036.77936,589.285968 C1039.74021,592.333925 1039.74021,597.023091 1036.77936,600.071048 L1019.69751,617.655417 C1018.33096,619.296625 1016.28114,620 1014.45907,620 Z" id="Sun" fill="#FFF8D0" fill-rule="nonzero"></path>
            <rect id="Rectangle" fill="#702D2D" x="0" y="666" width="1920" height="504"></rect>
            <path d="M870.5,681 L989,792.645223 L989,931 L908.963019,931 L908.963019,841.763854 C908.963019,820.575524 891.743726,803.38375 870.5,803.38375 C849.256274,803.38375 832.031906,820.570459 832.031906,841.763854 L832.031906,931 L752,931 L752,792.645223 L870.5,681 Z M922,680 L1081.89492,680 L1177,768 L1014.8678,768 L922,680 Z M1177,773.593598 L1177,790.595245 L1021.26794,790.595245 L1013.2039,790.595245 L998.971142,790.595245 L998.778052,790.595245 L998.778052,790.422999 L870.60703,669.780202 L728,804 L728,775.2046 L870.60703,641 L1011.4915,773.593598 L1177,773.593598 Z M999,797 L1165,797 L1165,913 L999,913 L999,797 Z M1133.50547,881.187207 L1133.50547,825.626977 L1032.21733,825.626977 L1032.21733,881.187207 L1133.50547,881.187207 Z" id="House" fill="#2F0707" fill-rule="nonzero"></path>
            <path d="M758.192,376.264 C768.272,376.264 771.944,384.112 771.944,395.992 C771.944,407.512 767.192,415.792 757.328,415.792 C753.152,415.792 749.84,414.352 747.248,411.472 L747.248,429.544 L741.2,430.264 L741.2,377.056 L746.384,377.056 L746.888,382.384 C749.624,378.496 753.656,376.264 758.192,376.264 Z M756.752,381.16 C752.576,381.16 749.336,384.184 747.248,387.208 L747.248,406 C749.264,408.952 752.36,410.752 755.96,410.752 C762.224,410.752 765.392,406.072 765.392,395.992 C765.392,386.128 762.728,381.16 756.752,381.16 Z M800.8,359.344 C798.208,359.344 796.48,361.144 796.48,363.592 C796.48,366.04 798.208,367.84 800.8,367.84 C803.464,367.84 805.264,366.04 805.264,363.592 C805.264,361.144 803.464,359.344 800.8,359.344 Z M805.624,377.056 L788.272,377.056 L788.272,381.88 L799.576,381.88 L799.576,410.176 L787.912,410.176 L787.912,415 L816.28,415 L816.28,410.176 L805.624,410.176 L805.624,377.056 Z M857.232,376.264 C850.392,376.264 846.504,379.864 843.624,386.056 L842.472,377.056 L831.96,377.056 L831.96,381.736 L837.936,381.736 L837.936,410.32 L831.96,410.32 L831.96,415 L851.688,415 L851.688,410.32 L843.984,410.32 L843.984,394.336 C846.432,385.984 850.608,381.808 856.44,381.808 L856.8,381.808 L856.8,389.944 L861.696,389.944 L862.56,377.056 C860.904,376.624 859.32,376.264 857.232,376.264 Z M881.624,398.152 C881.912,406.936 886.808,410.752 892.64,410.752 C896.528,410.752 899.408,409.6 902.792,407.368 L905.6,411.4 C902.072,414.136 897.32,415.792 892.64,415.792 C881.552,415.792 875.288,407.872 875.288,396.064 C875.288,384.616 881.696,376.264 891.776,376.264 C901.352,376.264 907.256,383.392 907.256,394.912 C907.256,396.208 907.184,397.36 907.112,398.152 L881.624,398.152 Z M891.848,381.232 C886.232,381.232 882.128,385.192 881.624,393.544 L901.352,393.544 C901.208,385.408 897.608,381.232 891.848,381.232 Z M936.832,361.792 L919.12,361.792 L919.12,366.616 L930.784,366.616 L930.784,405.352 C930.784,411.904 935.32,415.792 942.016,415.792 C945.904,415.792 949,414.928 951.016,413.848 L949.432,409.456 C947.344,410.248 945.328,410.752 943.096,410.752 C939.424,410.752 936.832,409.384 936.832,405.64 L936.832,361.792 Z M972.024,398.152 C972.312,406.936 977.208,410.752 983.04,410.752 C986.928,410.752 989.808,409.6 993.192,407.368 L996,411.4 C992.472,414.136 987.72,415.792 983.04,415.792 C971.952,415.792 965.688,407.872 965.688,396.064 C965.688,384.616 972.096,376.264 982.176,376.264 C991.752,376.264 997.656,383.392 997.656,394.912 C997.656,396.208 997.584,397.36 997.512,398.152 L972.024,398.152 Z M982.248,381.232 C976.632,381.232 972.528,385.192 972.024,393.544 L991.752,393.544 C991.608,385.408 988.008,381.232 982.248,381.232 Z M1012.4,415 L1018.448,415 L1018.448,387.424 C1020.464,384.4 1024.28,381.088 1028.744,381.088 C1034.432,381.088 1035.224,384.184 1035.224,391.96 L1035.224,415 L1041.272,415 L1041.272,387.496 C1041.272,380.44 1038.032,376.264 1030.616,376.264 C1026.152,376.264 1021.112,378.496 1018.088,382.384 L1017.584,377.056 L1012.4,377.056 L1012.4,415 Z M1072,359.344 C1069.408,359.344 1067.68,361.144 1067.68,363.592 C1067.68,366.04 1069.408,367.84 1072,367.84 C1074.664,367.84 1076.464,366.04 1076.464,363.592 C1076.464,361.144 1074.664,359.344 1072,359.344 Z M1076.824,377.056 L1059.472,377.056 L1059.472,381.88 L1070.776,381.88 L1070.776,410.176 L1059.112,410.176 L1059.112,415 L1087.48,415 L1087.48,410.176 L1076.824,410.176 L1076.824,377.056 Z M1132.968,413.056 L1130.592,408.952 C1128.576,410.032 1126.128,410.752 1123.32,410.752 C1118.136,410.752 1116.048,408.52 1116.048,404.344 L1116.048,381.808 L1128.432,381.808 L1129.224,377.056 L1116.048,377.056 L1116.048,367.768 L1110,368.488 L1110,377.056 L1101.288,377.056 L1101.288,381.808 L1110,381.808 L1110,404.416 C1110,411.04 1114.608,415.792 1122.744,415.792 C1126.344,415.792 1130.304,414.784 1132.968,413.056 Z M1162.472,376.264 C1173.128,376.264 1178.744,384.04 1178.744,395.992 C1178.744,407.656 1172.984,415.792 1162.4,415.792 C1151.744,415.792 1146.056,408.016 1146.056,396.064 C1146.056,384.4 1151.816,376.264 1162.472,376.264 Z M1162.472,381.232 C1155.92,381.232 1152.608,385.984 1152.608,396.064 C1152.608,406.144 1155.848,410.824 1162.4,410.824 C1168.952,410.824 1172.192,406.144 1172.192,395.992 C1172.192,385.984 1168.952,381.232 1162.472,381.232 Z" id="pirelenito" fill="#FFF8D0"></path>
            <path d="M767.944,491 L778.384,474.728 L788.824,491 L796.168,491 L782.2,470.696 L794.512,453.056 L787.528,453.056 L778.672,467.168 L769.888,453.056 L762.688,453.056 L775,470.984 L761.032,491 L767.944,491 Z M836.616,482.72 C836.616,485.744 837.552,486.896 839.712,487.544 L838.2,491.864 C834.96,491.432 832.296,489.92 831.288,486.464 C828.552,489.992 824.304,491.792 819.408,491.792 C811.776,491.792 807.168,487.184 807.168,480.128 C807.168,472.352 813.432,467.96 824.88,467.96 L830.496,467.96 L830.496,464.864 C830.496,459.32 827.112,457.304 821.496,457.304 C818.976,457.304 815.52,457.88 811.632,459.248 L809.976,454.64 C814.656,452.984 818.688,452.264 822.432,452.264 C831.864,452.264 836.616,457.016 836.616,464.504 L836.616,482.72 Z M820.92,487.256 C824.664,487.256 828.264,485.24 830.496,481.856 L830.496,472.136 L825.024,472.136 C816.672,472.136 813.648,475.16 813.648,480.056 C813.648,484.808 815.952,487.256 820.92,487.256 Z M886.28,453.056 L879.944,453.056 L869.144,485.528 L858.2,453.056 L851.72,453.056 L865.472,491 L872.456,491 L886.28,453.056 Z M914.2,435.344 C911.608,435.344 909.88,437.144 909.88,439.592 C909.88,442.04 911.608,443.84 914.2,443.84 C916.864,443.84 918.664,442.04 918.664,439.592 C918.664,437.144 916.864,435.344 914.2,435.344 Z M919.024,453.056 L901.672,453.056 L901.672,457.88 L912.976,457.88 L912.976,486.176 L901.312,486.176 L901.312,491 L929.68,491 L929.68,486.176 L919.024,486.176 L919.024,453.056 Z M949.824,474.152 C950.112,482.936 955.008,486.752 960.84,486.752 C964.728,486.752 967.608,485.6 970.992,483.368 L973.8,487.4 C970.272,490.136 965.52,491.792 960.84,491.792 C949.752,491.792 943.488,483.872 943.488,472.064 C943.488,460.616 949.896,452.264 959.976,452.264 C969.552,452.264 975.456,459.392 975.456,470.912 C975.456,472.208 975.384,473.36 975.312,474.152 L949.824,474.152 Z M960.048,457.232 C954.432,457.232 950.328,461.192 949.824,469.544 L969.552,469.544 C969.408,461.408 965.808,457.232 960.048,457.232 Z M1015.832,452.264 C1008.992,452.264 1005.104,455.864 1002.224,462.056 L1001.072,453.056 L990.56,453.056 L990.56,457.736 L996.536,457.736 L996.536,486.32 L990.56,486.32 L990.56,491 L1010.288,491 L1010.288,486.32 L1002.584,486.32 L1002.584,470.336 C1005.032,461.984 1009.208,457.808 1015.04,457.808 L1015.4,457.808 L1015.4,465.944 L1020.296,465.944 L1021.16,453.056 C1019.504,452.624 1017.92,452.264 1015.832,452.264 Z M1067.08,453.056 L1060.744,453.056 L1049.944,485.528 L1039,453.056 L1032.52,453.056 L1046.272,491 L1053.256,491 L1067.08,453.056 Z M1095,435.344 C1092.408,435.344 1090.68,437.144 1090.68,439.592 C1090.68,442.04 1092.408,443.84 1095,443.84 C1097.664,443.84 1099.464,442.04 1099.464,439.592 C1099.464,437.144 1097.664,435.344 1095,435.344 Z M1099.824,453.056 L1082.472,453.056 L1082.472,457.88 L1093.776,457.88 L1093.776,486.176 L1082.112,486.176 L1082.112,491 L1110.48,491 L1110.48,486.176 L1099.824,486.176 L1099.824,453.056 Z M1153.016,482.72 C1153.016,485.744 1153.952,486.896 1156.112,487.544 L1154.6,491.864 C1151.36,491.432 1148.696,489.92 1147.688,486.464 C1144.952,489.992 1140.704,491.792 1135.808,491.792 C1128.176,491.792 1123.568,487.184 1123.568,480.128 C1123.568,472.352 1129.832,467.96 1141.28,467.96 L1146.896,467.96 L1146.896,464.864 C1146.896,459.32 1143.512,457.304 1137.896,457.304 C1135.376,457.304 1131.92,457.88 1128.032,459.248 L1126.376,454.64 C1131.056,452.984 1135.088,452.264 1138.832,452.264 C1148.264,452.264 1153.016,457.016 1153.016,464.504 L1153.016,482.72 Z M1137.32,487.256 C1141.064,487.256 1144.664,485.24 1146.896,481.856 L1146.896,472.136 L1141.424,472.136 C1133.072,472.136 1130.048,475.16 1130.048,480.056 C1130.048,484.808 1132.352,487.256 1137.32,487.256 Z" id="xaviervia" fill="#FFF8D0"></path>
            <g id="Group" transform="translate(795.000000, 177.000000)">
                <path d="M69.4985808,131 C68.4199833,131 67.3130016,130.857208 66.1208675,130.563226 C65.68659,130.445632 65.3686876,130.328039 65.0536236,130.196447 L64.6903065,130.064855 C64.1510077,129.882865 63.6173858,129.684077 63.112148,129.418093 C62.496212,129.093312 0,95.7976636 0,57.5435061 C0,33.2885279 17.1042862,15 39.7888955,15 C49.7971452,15 61.2331176,20.0033067 69.4985808,27.7616519 C77.7668824,20.0033067 89.2000163,15 99.2111045,15 C121.892875,15 139,33.2913277 139,57.5435061 C139,95.7976636 76.503788,129.093312 75.8736599,129.426492 C75.374099,129.689677 74.8461538,129.885665 74.3096935,130.067655 C74.292663,130.073254 74.0173368,130.165649 74.0031447,130.174048 C73.6341508,130.330839 73.3162484,130.448432 72.9841539,130.538027 C71.6869984,130.857208 70.5800167,131 69.4985808,131 Z" id="Heart" fill="#FFF8D0" fill-rule="nonzero"></path>
                <path d="M246.571928,0.000404983718 C246.994884,0.0197894054 247.359727,0.229916536 247.714563,0.545688765 C248.282224,1.05065295 248.977273,2.15207579 248.977273,4.42257309 L248.977273,125.030002 C248.977273,127.598438 246.648899,131.337111 243.264676,133.57136 C233.986782,137.972593 224.802986,131.778689 219.331501,124.121454 C215.56223,118.657373 213.144186,110.450979 216.565355,96.7409587 C219.125219,89.5960547 220.65598,79.4353224 224.98406,62.9392959 C224.98406,62.8985886 224.98406,62.8578814 224.98406,62.8191125 C227.027063,53.7260742 228.98155,48.9788293 230.456122,46.5239861 C231.930694,44.069143 232.683086,43.8217978 234.364903,42.4654698 C236.046527,41.108948 238.10223,38.4953464 238.995286,34.3482432 C239.88815,30.2009462 240.257996,24.1522313 240.257996,13.6311426 C240.257996,4.12308378 243.923163,0.725188509 245.73025,0.18320008 C246.069115,0.0824010873 246.318309,-0.0106441366 246.571928,0.000986516367 L246.571928,0.000404983718 Z M258.368021,0.0024459627 C258.621831,-0.0169034649 258.931446,0.0817786158 259.270116,0.184330582 C261.077193,0.725340577 264.742147,4.11710174 264.742147,13.607996 C264.742147,24.1102848 265.111798,30.1480802 266.005042,34.2876967 C266.897901,38.4275067 268.9534,41.0361966 270.635207,42.3902695 C272.316822,43.7443424 273.069209,43.9910476 274.543773,46.4416526 C276.01853,48.8920642 277.973005,53.630739 280.015997,62.7071685 C280.015997,62.7478023 280.015997,62.7884361 280.015997,62.8271349 C284.333662,79.2542958 285.886158,89.3781098 288.434654,96.5072129 C288.434654,96.5265624 288.434654,96.5517166 288.434654,96.5671962 C291.855804,110.252466 289.437773,118.444046 285.668524,123.898263 C280.078343,130.939519 269.763515,138.497986 261.675447,133.331109 C258.291243,131.101668 256.022727,127.369743 256.022727,124.805944 L256.022727,4.41624389 C256.022727,2.14984544 256.717964,1.05041096 257.285622,0.546358372 C257.640456,0.231156197 257.945068,0.0219888846 258.368021,0.00205897415 L258.368021,0.0024459627 Z M206.347621,108.030303 C206.401325,116.335469 208.703708,122.817158 212.041818,127.65683 C216.59192,134.254467 222.688324,137.666818 226.666667,139.613973 L226.666667,150.30303 L175.299785,150.30303 L175,117.330303 C184.859546,114.928053 192.041162,113.308258 197.536653,111.65368 C201.002118,110.61034 203.892372,109.498978 206.347621,108.030303 Z M298.6759,108.030303 C301.134014,109.498978 304.02764,110.61034 307.496959,111.65368 C312.998671,113.308258 320.128948,114.928246 330,117.330303 L329.700057,150.30303 L278.333333,150.30303 L278.333333,139.613973 C282.316895,137.665079 288.426366,134.244612 292.97525,127.65683 C296.317063,122.817158 298.622901,116.335469 298.6759,108.030303 L298.6759,108.030303 Z" id="Combined-Shape" fill="#400D0D"></path>
            </g>
        </g>
    </g>
</svg>