<?xml version="1.0" encoding="UTF-8"?>
<svg width="1920px" height="1080px" viewBox="0 0 1920 1080" version="1.1" xmlns="http://www.w3.org/2000/svg" xmlns:xlink="http://www.w3.org/1999/xlink">
    <!-- Generator: Sketch 46.2 (44496) - http://www.bohemiancoding.com/sketch -->
    <title>theFireDepartmentAsksForMoney</title>
    <desc>Created with Sketch.</desc>
    <defs></defs>
    <g id="Actual-Slides" stroke="none" stroke-width="1" fill="none" fill-rule="evenodd">
        <g id="theFireDepartmentAsksForMoney">
            <g id="noun_253798" transform="translate(960.000000, 202.000000)" fill-rule="nonzero" fill="#292929">
                <path d="M241.498605,0 C108.121122,0 0,81.8042635 0,182.720025 C0,197.740545 2.46319157,212.315001 6.9793971,226.277533 C18.0218312,260.423273 41.6804641,290.818751 74.0811329,314.404692 C74.5773009,318.436083 74.8021202,322.556654 74.8021202,326.703663 C74.8021202,380.020653 36.7484396,441 36.7484396,441 C105.58252,435.229087 178.99553,359.576257 178.99553,359.576257 C178.99553,359.576257 178.843301,359.430666 178.595915,359.202433 C198.64397,363.286864 219.737222,365.462787 241.4986,365.462787 C329.521633,365.462787 406.51558,329.825658 448.722511,276.584814 C470.469812,249.145985 483,217.047476 483,182.720025 C483.000005,81.8042635 374.876078,0 241.498605,0 Z" id="Shape"></path>
            </g>
            <g id="Firetruck" transform="translate(804.500000, 732.000000) scale(-1, 1) translate(-804.500000, -732.000000) translate(661.000000, 643.000000)" fill-rule="nonzero">
                <path d="M287,61.0008084 L275.077912,61.0008084 L275.077912,36.9991916 L287,36.9991916 L287,25 L132,25 L132,36.9991916 L143.925301,36.9991916 L143.925301,61.0008084 L132,61.0008084 L132,73 L287,73 L287,61.0008084 Z M167.769478,61.0008084 L155.847389,61.0008084 L155.847389,36.9991916 L167.769478,36.9991916 L167.769478,61.0008084 Z M191.613655,61.0008084 L179.691566,61.0008084 L179.691566,36.9991916 L191.613655,36.9991916 L191.613655,61.0008084 Z M215.461044,61.0008084 L203.538956,61.0008084 L203.538956,36.9991916 L215.461044,36.9991916 L215.461044,61.0008084 Z M239.308434,61.0008084 L227.383133,61.0008084 L227.383133,36.9991916 L239.308434,36.9991916 L239.308434,61.0008084 Z M263.155823,61.0008084 L251.230522,61.0008084 L251.230522,36.9991916 L263.155823,36.9991916 L263.155823,61.0008084 Z" id="Shape" fill="#FFFFFF" transform="translate(209.500000, 49.000000) scale(-1, 1) translate(-209.500000, -49.000000) "></path>
                <path d="M231.5,119 C215.204732,119 202,132.211091 202,148.5 C202,164.795268 215.204732,178 231.5,178 C247.795268,178 261,164.795268 261,148.5 C261,132.21427 247.795268,119 231.5,119 M231.5,161.777862 C224.180642,161.777862 218.222138,155.825717 218.222138,148.50318 C218.222138,141.187002 224.180642,135.228498 231.5,135.228498 C238.819358,135.228498 244.774682,141.187002 244.774682,148.50318 C244.774682,155.825717 238.819358,161.777862 231.5,161.777862" id="Shape" fill="#ACACAC" transform="translate(231.500000, 148.500000) scale(-1, 1) translate(-231.500000, -148.500000) "></path>
                <path d="M52.5,119 C36.2047316,119 23,132.211091 23,148.5 C23,164.795268 36.2047316,178 52.5,178 C68.7952684,178 82,164.795268 82,148.5 C82,132.21427 68.7952684,119 52.5,119 M52.5,161.777862 C45.1806424,161.777862 39.225318,155.825717 39.225318,148.50318 C39.225318,141.187002 45.1806424,135.228498 52.5,135.228498 C59.8193576,135.228498 65.7778616,141.187002 65.7778616,148.50318 C65.7778616,155.825717 59.8193576,161.777862 52.5,161.777862" id="Shape" fill="#ACACAC" transform="translate(52.500000, 148.500000) scale(-1, 1) translate(-52.500000, -148.500000) "></path>
                <path d="M275.166033,23.8436826 L251.494911,23.8436826 L251.494911,0 L227.823789,0 L227.823789,23.8436826 L186.400122,23.8436826 C176.600667,23.8436826 168.650767,31.8558282 168.650767,41.7280509 L168.650767,107.302997 L168.650767,131.149892 L156.813611,131.149892 L156.813611,107.302997 L156.813611,83.4593144 L2.95928889,83.4593144 L2.95928889,107.302997 L20.7118333,107.302997 C3.45675556,107.30621 0,155 0,155 L15.2684,155 C14.9909667,153.043546 14.7964444,151.064604 14.7964444,149.037473 C14.7964444,125.996933 33.3430222,107.30621 56.2169222,107.30621 C79.0908222,107.30621 97.6374,125.99372 97.6374,149.037473 C97.6374,151.064604 97.4524444,153.043546 97.1750111,155 L192.790656,155 C192.513222,153.043546 192.3187,151.064604 192.3187,149.037473 C192.3187,125.996933 210.865278,107.30621 233.739178,107.30621 C256.613078,107.30621 275.162844,125.99372 275.162844,149.037473 C275.162844,151.064604 274.9747,153.043546 274.697267,155 L287,155 L287,107.30621 L275.166033,23.8436826 Z M204.155856,59.6156317 L180.484733,59.6156317 L180.484733,35.7687365 L204.155856,35.7687365 L204.155856,59.6156317 Z M215.989822,83.4625269 L215.989822,35.7687365 L227.823789,35.7687365 L251.494911,35.7687365 L263.328878,35.7687365 L269.244267,83.4625269 L215.989822,83.4625269 L215.989822,83.4625269 Z" id="Shape" fill="#FF5858" transform="translate(143.500000, 77.500000) scale(-1, 1) translate(-143.500000, -77.500000) "></path>
            </g>
            <g id="Group" transform="translate(1090.000000, 324.000000)">
                <path d="M0,0 L200,0 L200,100 L0,100 L0,0 Z M89.152,60.296 L79,60.296 C79.4800024,65.9600283 81.2319849,70.2559854 84.256,73.184 C87.2800151,76.1120146 91.4799731,77.7679981 96.856,78.152 L96.856,84.272 L101.104,84.272 L101.104,78.152 C104.704018,77.9119988 107.655988,77.192006 109.96,75.992 C112.264012,74.791994 114.099993,73.4240077 115.468,71.888 C116.836007,70.3519923 117.783997,68.780008 118.312,67.172 C118.840003,65.563992 119.104,64.2320053 119.104,63.176 C119.104,61.975994 119.020001,60.6080077 118.852,59.072 C118.683999,57.5359923 118.144005,56.0000077 117.232,54.464 C116.319995,52.9279923 114.90401,51.4520071 112.984,50.036 C111.06399,48.6199929 108.328018,47.4320048 104.776,46.472 C104.103997,46.279999 103.468003,46.1120007 102.868,45.968 C102.267997,45.8239993 101.680003,45.6800007 101.104,45.536 L101.104,32.792 C102.736008,32.792 104.127994,33.4639933 105.28,34.808 C106.432006,36.1520067 107.032,37.7839904 107.08,39.704 L117.304,39.704 C117.159999,37.2079875 116.632005,35.0480091 115.72,33.224 C114.807995,31.3999909 113.632007,29.8760061 112.192,28.652 C110.751993,27.4279939 109.084009,26.4680035 107.188,25.772 C105.291991,25.0759965 103.264011,24.6080012 101.104,24.368 L101.104,18.824 L96.856,18.824 L96.856,24.368 C94.6959892,24.5120007 92.6080101,24.9319965 90.592,25.628 C88.5759899,26.3240035 86.8000077,27.3079936 85.264,28.58 C83.7279923,29.8520064 82.4920047,31.4239906 81.556,33.296 C80.6199953,35.1680094 80.152,37.3279878 80.152,39.776 C80.152,42.176012 80.5599959,44.179992 81.376,45.788 C82.1920041,47.396008 83.2839932,48.7399946 84.652,49.82 C86.0200068,50.9000054 87.5679914,51.7639968 89.296,52.412 C91.0240086,53.0600032 92.7759911,53.6239976 94.552,54.104 C95.0320024,54.2000005 95.475998,54.3079994 95.884,54.428 C96.292002,54.5480006 96.6159988,54.6559995 96.856,54.752 L96.856,69.8 C94.647989,69.3679978 92.8000074,68.3600079 91.312,66.776 C89.8239926,65.1919921 89.1039998,63.0320137 89.152,60.296 Z M101.104,69.8 L101.104,55.976 C103.936014,56.7440038 105.939994,57.5959953 107.116,58.532 C108.292006,59.4680047 108.88,60.8719906 108.88,62.744 C108.88,63.8960058 108.640002,64.8919958 108.16,65.732 C107.679998,66.5720042 107.068004,67.2799971 106.324,67.856 C105.579996,68.4320029 104.740005,68.8759984 103.804,69.188 C102.867995,69.5000016 101.968004,69.7039995 101.104,69.8 Z M96.856,32.792 L96.856,44.528 C94.5519885,43.9999974 92.896005,43.3040043 91.888,42.44 C90.879995,41.5759957 90.376,40.3520079 90.376,38.768 C90.376,37.759995 90.5559982,36.8840037 90.916,36.14 C91.2760018,35.3959963 91.7679969,34.7720025 92.392,34.268 C93.0160031,33.7639975 93.7119962,33.3920012 94.48,33.152 C95.2480038,32.9119988 96.0399959,32.792 96.856,32.792 Z" id="Combined-Shape-Copy" fill="#B1D6BE"></path>
                <rect id="Combined-Shape-Copy-2" fill="#292929" x="9" y="7" width="200" height="100"></rect>
                <path d="M19,14 L219,14 L219,114 L19,114 L19,14 Z M108.152,74.296 L98,74.296 C98.4800024,79.9600283 100.231985,84.2559854 103.256,87.184 C106.280015,90.1120146 110.479973,91.7679981 115.856,92.152 L115.856,98.272 L120.104,98.272 L120.104,92.152 C123.704018,91.9119988 126.655988,91.192006 128.96,89.992 C131.264012,88.791994 133.099993,87.4240077 134.468,85.888 C135.836007,84.3519923 136.783997,82.780008 137.312,81.172 C137.840003,79.563992 138.104,78.2320053 138.104,77.176 C138.104,75.975994 138.020001,74.6080077 137.852,73.072 C137.683999,71.5359923 137.144005,70.0000077 136.232,68.464 C135.319995,66.9279923 133.90401,65.4520071 131.984,64.036 C130.06399,62.6199929 127.328018,61.4320048 123.776,60.472 C123.103997,60.279999 122.468003,60.1120007 121.868,59.968 C121.267997,59.8239993 120.680003,59.6800007 120.104,59.536 L120.104,46.792 C121.736008,46.792 123.127994,47.4639933 124.28,48.808 C125.432006,50.1520067 126.032,51.7839904 126.08,53.704 L136.304,53.704 C136.159999,51.2079875 135.632005,49.0480091 134.72,47.224 C133.807995,45.3999909 132.632007,43.8760061 131.192,42.652 C129.751993,41.4279939 128.084009,40.4680035 126.188,39.772 C124.291991,39.0759965 122.264011,38.6080012 120.104,38.368 L120.104,32.824 L115.856,32.824 L115.856,38.368 C113.695989,38.5120007 111.60801,38.9319965 109.592,39.628 C107.57599,40.3240035 105.800008,41.3079936 104.264,42.58 C102.727992,43.8520064 101.492005,45.4239906 100.556,47.296 C99.6199953,49.1680094 99.152,51.3279878 99.152,53.776 C99.152,56.176012 99.5599959,58.179992 100.376,59.788 C101.192004,61.396008 102.283993,62.7399946 103.652,63.82 C105.020007,64.9000054 106.567991,65.7639968 108.296,66.412 C110.024009,67.0600032 111.775991,67.6239976 113.552,68.104 C114.032002,68.2000005 114.475998,68.3079994 114.884,68.428 C115.292002,68.5480006 115.615999,68.6559995 115.856,68.752 L115.856,83.8 C113.647989,83.3679978 111.800007,82.3600079 110.312,80.776 C108.823993,79.1919921 108.104,77.0320137 108.152,74.296 Z M120.104,83.8 L120.104,69.976 C122.936014,70.7440038 124.939994,71.5959953 126.116,72.532 C127.292006,73.4680047 127.88,74.8719906 127.88,76.744 C127.88,77.8960058 127.640002,78.8919958 127.16,79.732 C126.679998,80.5720042 126.068004,81.2799971 125.324,81.856 C124.579996,82.4320029 123.740005,82.8759984 122.804,83.188 C121.867995,83.5000016 120.968004,83.7039995 120.104,83.8 Z M115.856,46.792 L115.856,58.528 C113.551988,57.9999974 111.896005,57.3040043 110.888,56.44 C109.879995,55.5759957 109.376,54.3520079 109.376,52.768 C109.376,51.759995 109.555998,50.8840037 109.916,50.14 C110.276002,49.3959963 110.767997,48.7720025 111.392,48.268 C112.016003,47.7639975 112.711996,47.3920012 113.48,47.152 C114.248004,46.9119988 115.039996,46.792 115.856,46.792 Z" id="Combined-Shape" fill="#B1D6BE"></path>
            </g>
        </g>
    </g>
</svg>