<?xml version="1.0" encoding="UTF-8"?>
<svg width="1920px" height="1080px" viewBox="0 0 1920 1080" version="1.1" xmlns="http://www.w3.org/2000/svg" xmlns:xlink="http://www.w3.org/1999/xlink">
    <!-- Generator: Sketch 46.2 (44496) - http://www.bohemiancoding.com/sketch -->
    <title>aboutToMineBitcoin</title>
    <desc>Created with Sketch.</desc>
    <defs></defs>
    <g id="Actual-Slides" stroke="none" stroke-width="1" fill="none" fill-rule="evenodd">
        <g id="aboutToMineBitcoin">
            <rect id="Rectangle-4-Copy" fill="#E5A1EE" x="1003.71847" y="448.439172" width="158.281525" height="177"></rect>
            <path d="M1044.3125,774.5 L1942.48438,774.5" id="Path-7" stroke="#6F6F6F" stroke-width="5"></path>
            <g id="noun_1102789" transform="translate(991.000000, 447.000000)" fill-rule="nonzero" fill="#FFFFFF">
                <path d="M0,0 L0,338 L175,338 L175,0 L0,0 Z M87.5,255.64467 C79.7794118,255.64467 73.7745098,249.639594 73.7745098,241.918782 C73.7745098,234.19797 79.7794118,228.192893 87.5,228.192893 C95.2205882,228.192893 101.22549,234.19797 101.22549,241.918782 C101.22549,249.639594 95.2205882,255.64467 87.5,255.64467 Z M160.416667,114.096447 L14.5833333,114.096447 L14.5833333,94.3654822 L160.416667,94.3654822 L160.416667,114.096447 Z M160.416667,74.2055838 L14.5833333,74.2055838 L14.5833333,54.4746193 L160.416667,54.4746193 L160.416667,74.2055838 Z M160.416667,34.3147208 L14.5833333,34.3147208 L14.5833333,14.5837563 L160.416667,14.5837563 L160.416667,34.3147208 Z" id="Shape"></path>
            </g>
            <g id="Screen" transform="translate(576.000000, 515.000000)">
                <rect id="Rectangle-4" fill="#4ABAEB" x="12" y="10" width="315" height="177"></rect>
                <g id="noun_1148993" fill="#6F6F6F">
                    <path d="M0,0 L339,0 L339,215.445169 L200.319942,215.445169 L200.319942,239.573455 L138.680058,239.573455 L138.680058,215.445169 L0,215.445169 L0,0 Z M16.4551252,17.8297042 L16.4551252,178.927405 L322.544875,178.927405 L322.544875,17.8297042 L16.4551252,17.8297042 Z M169.498386,192.146014 C165.241656,192.146014 161.793928,195.589288 161.793928,199.840495 C161.793928,204.091713 165.241667,207.534976 169.498386,207.534976 C173.755116,207.534976 177.202845,204.091702 177.202845,199.840495 C177.202845,195.589277 173.755106,192.146014 169.498386,192.146014 Z M96.8372095,244.121481 L242.15838,244.121481 L242.15838,270 L197.143061,270 L96.8372095,270 L96.8372095,244.121481 Z" id="Combined-Shape"></path>
                </g>
            </g>
        </g>
    </g>
</svg>