<?xml version="1.0" encoding="UTF-8"?>
<svg width="1920px" height="1080px" viewBox="0 0 1920 1080" version="1.1" xmlns="http://www.w3.org/2000/svg" xmlns:xlink="http://www.w3.org/1999/xlink">
    <!-- Generator: Sketch 46.2 (44496) - http://www.bohemiancoding.com/sketch -->
    <title>bitcoinKeepMining</title>
    <desc>Created with Sketch.</desc>
    <defs></defs>
    <g id="Actual-Slides" stroke="none" stroke-width="1" fill="none" fill-rule="evenodd">
        <g id="bitcoinKeepMining">
            <g id="Group-2" transform="translate(1039.000000, 195.000000)" fill-rule="nonzero" fill="#E1B73F">
                <path d="M360.910501,288.657038 C346.675513,283.484778 330.826248,290.821318 325.653224,305.090888 C320.4802,319.360458 327.854511,335.170701 342.089499,340.342962 C356.324487,345.515222 372.173752,338.178682 377.346776,323.909112 C382.5198,309.639542 375.145489,293.829299 360.910501,288.657038 Z M358.745902,326.073392 C357.865388,326.696998 356.838121,327.100507 355.774165,327.283921 C354.71021,327.504017 353.609567,327.504017 352.435547,327.357286 C351.628408,327.247238 350.784582,327.100507 349.940755,326.843728 L348.28979,331.429066 L345.648246,330.475316 L347.299211,325.889978 L344.620979,324.899545 L342.970014,329.484883 L340.328469,328.531133 L341.979434,323.945795 L336.256089,321.854881 L337.246668,319.103679 L338.090494,319.323775 C338.383999,319.433823 338.787569,319.507188 339.33789,319.653919 C340.034964,319.837333 340.291781,319.80065 340.365157,319.837333 C340.658662,319.837333 340.768727,319.763967 340.768727,319.763967 C340.842103,319.690602 340.915479,319.580554 340.988855,319.360458 L346.492072,304.210503 C346.565449,303.990407 346.565449,303.843676 346.565449,303.696945 C346.565449,303.660262 346.492072,303.550214 346.308632,303.366801 C346.051815,303.110022 345.721622,302.926608 345.428117,302.706512 C345.024548,302.486416 344.694355,302.339685 344.474226,302.192954 L343.667088,301.826127 L344.657667,299.074925 L350.23426,301.092473 L351.885225,296.580501 L354.526769,297.534252 L352.94918,302.119589 L355.627413,303.110022 L357.278378,298.524684 L359.919922,299.478435 L358.232269,304.100455 C358.782591,304.320551 359.296224,304.614013 359.77317,304.870791 C360.616996,305.384349 361.350759,305.971272 362.047833,306.668244 C362.708219,307.365215 363.185164,308.172234 363.478669,309.089302 C363.772174,310.043052 363.735486,311.070168 363.368605,312.097283 C363.038412,312.977668 362.561466,313.711322 361.90108,314.298245 C361.277382,314.848486 360.506932,315.251995 359.663105,315.508774 C359.149472,315.655505 358.562462,315.765553 357.938764,315.838919 C358.562462,316.352476 359.112784,316.866034 359.589729,317.452957 C360.250115,318.223294 360.727061,319.103679 361.020566,320.130794 C361.31407,321.15791 361.240694,322.295074 360.837125,323.432237 C360.360179,324.496036 359.699793,325.413103 358.745902,326.073392 Z M353.774788,320.400181 C354.488185,318.362135 353.453759,316.109557 351.420576,315.358698 L347.67524,314 L345,321.401327 L348.745336,322.760025 C350.778519,323.510884 353.02572,322.438228 353.774788,320.400181 Z M356.821446,310.7021 C357.3899,308.915442 356.553938,306.862686 354.982331,306.178434 L352.106623,305 L350,311.614437 L352.875708,312.792871 C354.480754,313.439109 356.252992,312.526773 356.821446,310.7021 Z" id="Combined-Shape"></path>
                <path d="M517.738985,292.658018 C526.634575,280.400138 523.95089,263.142622 511.659977,254.236765 C499.369065,245.330909 482.138648,248.061658 473.243057,260.319538 C464.347467,272.577419 467.031152,289.834935 479.322065,298.740791 C491.612977,307.646648 508.843394,304.915899 517.738985,292.658018 Z M482.368722,280.263928 C482.011976,279.245634 481.907251,278.146939 482.024208,277.073644 C482.105904,275.990237 482.409282,274.932231 482.873933,273.844135 C483.202195,273.098597 483.575832,272.327904 484.055254,271.587543 L480.102612,268.736644 L481.747524,266.460317 L485.700166,269.311217 L487.390452,267.009735 L483.43781,264.158836 L485.082722,261.88251 L489.035364,264.733409 L492.622847,259.80811 L494.994432,261.51865 L494.550272,262.269122 C494.363586,262.520923 494.181824,262.888637 493.889088,263.377195 C493.52064,263.996711 493.485113,264.25369 493.429626,264.314112 C493.348725,264.596247 493.388911,264.72227 493.388911,264.72227 C493.439209,264.813026 493.524769,264.913893 493.716113,265.045094 L506.762292,274.511019 C506.953637,274.64222 507.094684,274.682664 507.235731,274.723109 C507.270992,274.73322 507.397003,274.693019 507.623874,274.567241 C507.941494,274.39115 508.208816,274.124304 508.501287,273.902836 C508.824096,273.575567 509.056156,273.298609 509.257878,273.127453 L509.832973,272.452693 L512.204557,274.163232 L508.728048,278.967686 L512.610166,281.798364 L510.965254,284.07469 L506.992388,281.294324 L505.302102,283.595806 L509.254743,286.446705 L507.609831,288.723032 L503.632041,285.826754 C503.268781,286.29509 502.845111,286.707937 502.466816,287.095629 C501.740562,287.765212 500.974123,288.308771 500.112012,288.786731 C499.260013,289.229423 498.352792,289.465448 497.390349,289.494805 C496.392645,289.514051 495.415431,289.195672 494.52923,288.559892 C493.773963,287.999823 493.200194,287.339131 492.818034,286.54255 C492.461023,285.791346 492.28551,284.939519 492.271268,284.057603 C492.271798,283.523422 492.327815,282.928819 492.429206,282.30906 C491.763628,282.767041 491.118275,283.154488 490.422625,283.45118 C489.500103,283.87365 488.522358,284.089452 487.454131,284.088476 C486.385903,284.0875 485.313016,283.703521 484.331143,283.002141 C483.440018,282.250449 482.740504,281.362867 482.368722,280.263928 Z M489.192386,277.049134 C490.954843,278.296658 493.405287,277.923198 494.68748,276.175742 L497.025899,272.950002 L490.648683,268.338314 L488.310264,271.564054 C487.028071,273.31151 487.439761,275.767323 489.192386,277.049134 Z M497.675007,282.650923 C499.235766,283.689826 501.439424,283.452065 502.530363,282.129944 L504.455799,279.690457 L498.678259,275.842255 L496.752823,278.281742 C495.689208,279.646484 496.077707,281.601543 497.675007,282.650923 Z" id="Combined-Shape"></path>
                <path d="M707.243057,212.319538 C698.347467,224.577419 701.031152,241.834935 713.322065,250.740791 C725.612977,259.646648 742.843394,256.915899 751.738985,244.658018 C760.634575,232.400138 757.95089,215.142622 745.659977,206.236765 C733.369065,197.330909 716.138648,200.061658 707.243057,212.319538 Z M742.61332,224.713629 C742.970066,225.731923 743.074791,226.830618 742.957834,227.903913 C742.876138,228.987319 742.57276,230.045326 742.108109,231.133421 C741.779847,231.878959 741.40621,232.649653 740.926788,233.390013 L744.87943,236.240913 L743.234518,238.517239 L739.281876,235.666339 L737.59159,237.967821 L741.544232,240.818721 L739.89932,243.095047 L735.946678,240.244147 L732.359195,245.169446 L729.98761,243.458906 L730.43177,242.708435 C730.618456,242.456633 730.800218,242.08892 731.092954,241.600361 C731.461402,240.980846 731.496929,240.723867 731.552416,240.663444 C731.633317,240.381309 731.593131,240.255286 731.593131,240.255286 C731.542833,240.16453 731.457273,240.063663 731.265929,239.932463 L718.21975,230.466537 C718.028405,230.335337 717.887358,230.294892 717.746311,230.254448 C717.71105,230.244337 717.585039,230.284537 717.358168,230.410316 C717.040548,230.586406 716.773226,230.853253 716.480755,231.074721 C716.157946,231.40199 715.925886,231.678947 715.724164,231.850104 L715.149069,232.524864 L712.777485,230.814324 L716.253994,226.00987 L712.371876,223.179193 L714.016788,220.902867 L717.989654,223.683233 L719.67994,221.381751 L715.727299,218.530851 L717.372211,216.254525 L721.350001,219.150803 C721.713261,218.682467 722.136931,218.269619 722.515226,217.881928 C723.24148,217.212345 724.007919,216.668786 724.87003,216.190826 C725.722029,215.748134 726.62925,215.512109 727.591693,215.482752 C728.589397,215.463506 729.566611,215.781884 730.452812,216.417665 C731.208079,216.977733 731.781848,217.638425 732.164008,218.435007 C732.521019,219.186211 732.696532,220.038038 732.710774,220.919954 C732.710244,221.454135 732.654227,222.048738 732.552836,222.668497 C733.218414,222.210516 733.863767,221.823068 734.559417,221.526377 C735.481939,221.103907 736.459684,220.888104 737.527911,220.889081 C738.596139,220.890057 739.669026,221.274036 740.650899,221.975416 C741.542024,222.727108 742.241538,223.61469 742.61332,224.713629 Z M735.789656,227.928422 C734.027199,226.680899 731.576755,227.054359 730.294562,228.801814 L727.956143,232.027555 L734.333359,236.639243 L736.671778,233.413502 C737.953971,231.666047 737.542281,229.210234 735.789656,227.928422 Z M727.307035,222.326633 C725.746276,221.287731 723.542618,221.525492 722.451679,222.847613 L720.526243,225.2871 L726.303783,229.135302 L728.229219,226.695815 C729.292834,225.331073 728.904335,223.376014 727.307035,222.326633 Z" id="Combined-Shape"></path>
                <path d="M230.26783,333.186613 C216.329546,339.1121 209.741635,355.286878 215.690148,369.250975 C221.638661,383.215072 237.814451,389.748684 251.752735,383.823197 C265.69102,377.897711 272.27893,361.722932 266.330417,347.758835 C260.381904,333.794739 244.206115,327.261126 230.26783,333.186613 Z M254.202634,362.027454 C253.983965,363.08404 253.507862,364.079743 252.854822,364.939499 C252.2268,365.826083 251.42184,366.57672 250.463146,367.270087 C249.79779,367.740071 249.080584,368.208247 248.288326,368.595939 L250.208079,373.075398 L247.62572,374.179398 L245.705967,369.699939 L243.071758,370.802132 L244.991511,375.281591 L242.409152,376.385591 L240.489399,371.906132 L234.877609,374.280247 L233.725757,371.592572 L234.492998,371.178052 C234.782706,371.058366 235.127893,370.836788 235.630443,370.568782 C236.265339,370.227519 236.428145,370.025542 236.506827,370.002328 C236.721482,369.802158 236.751943,369.673438 236.751943,369.673438 C236.755572,369.569739 236.734184,369.439213 236.637742,369.228202 L230.330296,354.395042 C230.233855,354.184031 230.133785,354.076719 230.033715,353.969407 C230.008697,353.942579 229.87998,353.912137 229.620733,353.903103 C229.257786,353.890456 228.89121,353.981507 228.526449,354.020708 C228.081192,354.134974 227.739634,354.252853 227.478572,354.295668 L226.638093,354.577855 L225.486241,351.890179 L230.940668,349.562493 L229.07095,345.136691 L231.653309,344.03269 L233.626726,348.462107 L236.260935,347.359914 L234.341182,342.880455 L236.923541,341.776455 L238.84148,346.307763 C239.394065,346.093413 239.969853,345.957739 240.493791,345.82026 C241.461173,345.620364 242.398093,345.549187 243.383234,345.583517 C244.341543,345.642867 245.240745,345.907807 246.080839,346.378338 C246.945951,346.875697 247.619611,347.651903 248.051782,348.6533 C248.410715,349.522364 248.56225,350.384201 248.479555,351.263831 C248.398674,352.091613 248.110395,352.912167 247.668382,353.675451 C247.392805,354.133061 247.038546,354.613885 246.632437,355.092902 C247.438826,355.043133 248.191552,355.043407 248.940648,355.147379 C249.948992,355.260386 250.898229,355.578982 251.813376,356.129997 C252.728523,356.681012 253.450403,357.562724 253.930795,358.669626 C254.307488,359.772915 254.44995,360.893998 254.202634,362.027454 Z M246.697871,361.268623 C245.829672,359.291554 243.536887,358.3496 241.537826,359.187084 L237.872031,360.747708 L240.963177,367.985205 L244.628972,366.424581 C246.628033,365.587097 247.539982,363.270019 246.697871,361.268623 Z M242.311981,352.09808 C241.509223,350.403716 239.497864,349.47255 237.881804,350.043953 L234.974954,351.143329 L237.945303,357.417535 L240.852152,356.318159 C242.466742,355.696149 243.140663,353.820245 242.311981,352.09808 Z" id="Combined-Shape"></path>
                <path d="M407.16412,395.208144 C392.132496,397.062175 381.341417,410.794496 383.210468,425.85728 C385.079519,440.920064 398.827778,451.659227 413.859403,449.805195 C428.891027,447.951164 439.682106,434.218843 437.813055,419.156059 C435.944004,404.093276 422.195745,393.354113 407.16412,395.208144 Z M422.222118,429.529066 C421.720685,430.484448 420.988572,431.310348 420.123849,431.956796 C419.27578,432.635929 418.295099,433.13561 417.182426,433.537866 C416.413299,433.806246 415.59483,434.058597 414.7264,434.212894 L415.337079,439.047983 L412.550452,439.397421 L411.939773,434.562333 L409.103803,434.895743 L409.714482,439.730831 L406.927856,440.080269 L406.317177,435.245181 L400.268383,435.980508 L399.901976,433.079455 L400.753753,432.892473 C401.065228,432.857278 401.458118,432.73943 402.015073,432.620328 C402.719438,432.467285 402.93161,432.318008 403.013643,432.317381 C403.275157,432.184132 403.339918,432.068795 403.339918,432.068795 C403.37199,431.970114 403.387408,431.838748 403.352865,431.609329 L401.378331,415.612212 C401.343789,415.382793 401.277174,415.252055 401.21056,415.121317 C401.193906,415.088632 401.078567,415.023891 400.831852,414.943748 C400.486451,414.831549 400.108979,414.818031 399.747543,414.755172 C399.288038,414.742282 398.92722,414.761448 398.664469,414.730646 L397.778768,414.770234 L397.41236,411.869181 L403.297089,411.13511 L402.719718,406.365391 L405.506344,406.015953 L406.182402,410.817728 L409.018371,410.484319 L408.407692,405.649231 L411.194319,405.299792 L411.788962,410.184221 C412.379224,410.130487 412.970104,410.158779 413.51164,410.171042 C414.496646,410.245536 415.41689,410.435367 416.354406,410.739908 C417.259233,411.061105 418.050574,411.563636 418.728428,412.2475 C419.422937,412.964049 419.856548,413.895872 419.995955,414.977599 C420.101437,415.911933 420.009548,416.782152 419.687597,417.604913 C419.381682,418.378334 418.878395,419.087641 418.243116,419.699522 C417.852079,420.063445 417.37901,420.427995 416.856598,420.776517 C417.645468,420.950948 418.368958,421.15869 419.060377,421.465114 C419.998511,421.85168 420.823159,422.41958 421.550975,423.201498 C422.27879,423.983416 422.729673,425.029948 422.886352,426.226385 C422.944344,427.390765 422.772276,428.507687 422.222118,429.529066 Z M415.217238,426.731038 C414.927626,424.591249 412.983297,423.053807 410.830835,423.307832 L406.87688,423.797571 L407.853356,431.606735 L411.807311,431.116997 C413.959773,430.862972 415.475068,428.88702 415.217238,426.731038 Z M413.528994,416.70683 C413.224364,414.856834 411.547585,413.407333 409.836629,413.511155 L406.739357,413.766707 L407.865233,420.6166 L410.962505,420.361048 C412.685998,420.208175 413.850882,418.590698 413.528994,416.70683 Z" id="Combined-Shape"></path>
                <path d="M651.510319,359.000004 C636.364788,359.008322 623.980595,371.323182 624.000023,386.50147 C624.019451,401.679758 636.356458,414.014365 651.501989,414.006047 C666.647519,413.997729 679.031712,401.682869 679.012284,386.504581 C678.992857,371.326293 666.655849,358.991687 651.510319,359.000004 Z M662.273408,394.900212 C661.65928,395.787363 660.831973,396.517884 659.894914,397.054131 C658.9704,397.624848 657.936133,398.00129 656.782731,398.264947 C655.98663,398.437593 655.143508,398.588317 654.262747,398.635629 L654.279625,403.5091 L651.471183,403.51633 L651.454305,398.642858 L648.598842,398.628165 L648.61572,403.501636 L645.807279,403.508866 L645.790401,398.635395 L639.69708,398.628078 L639.686953,395.703995 L640.555168,395.622212 C640.868611,395.625239 641.272935,395.556151 641.840253,395.505812 C642.55802,395.439751 642.786802,395.317444 642.8683,395.326818 C643.144104,395.226434 643.222438,395.119848 643.222438,395.119848 C643.266297,395.025811 643.297609,394.897304 643.291283,394.665385 L643.281026,378.546873 C643.2747,378.314954 643.224515,378.177072 643.17433,378.03919 C643.161784,378.00472 643.055194,377.926405 642.820085,377.816793 C642.490933,377.663336 642.117921,377.603916 641.76684,377.497478 C641.312331,377.428684 640.951867,377.403735 640.694828,377.341142 L639.810904,377.272495 L639.800777,374.348412 L645.731103,374.33698 L645.739317,369.53245 L648.547759,369.525221 L648.633588,374.373596 L651.489051,374.388289 L651.472173,369.514818 L654.280614,369.507588 L654.275563,374.428078 C654.867974,374.44668 655.451001,374.54677 655.987007,374.624939 C656.955592,374.818919 657.845842,375.119485 658.739256,375.536011 C659.598194,375.965084 660.322393,376.560309 660.911853,377.321686 C661.513859,378.117534 661.830678,379.095255 661.837216,380.185908 C661.828046,381.126132 661.630788,381.978666 661.210968,382.756059 C660.813077,383.486433 660.227099,384.129118 659.521985,384.659017 C659.089512,384.972572 658.575542,385.276752 658.01455,385.55901 C658.776281,385.82828 659.469062,386.122645 660.117983,386.511047 C661.002014,387.009062 661.751305,387.673228 662.378404,388.538016 C663.005503,389.402805 663.325484,390.496485 663.335186,391.703098 C663.250844,392.865867 662.94394,393.953493 662.273408,394.900212 Z M655.661736,391.269359 C655.635057,389.110226 653.892587,387.347289 651.725212,387.337102 L647.741045,387.341324 L647.758544,395.211282 L651.742711,395.20706 C653.910087,395.217248 655.654896,393.440692 655.661736,391.269359 Z M655.207719,381.114126 C655.130818,379.240794 653.643187,377.597749 651.932331,377.492284 L648.827001,377.368468 L649.109694,384.304513 L652.215023,384.428329 C653.9443,384.486636 655.297622,383.023179 655.207719,381.114126 Z" id="Combined-Shape"></path>
                <path d="M113.746646,90.2383892 C98.6011152,90.2467068 86.2169221,102.561567 86.23635,117.739855 C86.2557779,132.918143 98.5927851,145.25275 113.738316,145.244432 C128.883846,145.236114 141.268039,132.921254 141.248612,117.742966 C141.229184,102.564678 128.892177,90.2300717 113.746646,90.2383892 Z M124.509735,126.138597 C123.895608,127.025748 123.068301,127.75627 122.131241,128.292516 C121.206727,128.863233 120.172461,129.239675 119.019058,129.503332 C118.222957,129.675978 117.379835,129.826702 116.499074,129.874014 L116.515952,134.747485 L113.70751,134.754715 L113.690632,129.881244 L110.835169,129.86655 L110.852047,134.740021 L108.043606,134.747251 L108.026728,129.87378 L101.933407,129.866463 L101.923281,126.94238 L102.791496,126.860597 C103.104939,126.863624 103.509262,126.794536 104.07658,126.744197 C104.794347,126.678136 105.023129,126.555829 105.104627,126.565203 C105.380431,126.464819 105.458765,126.358234 105.458765,126.358234 C105.502624,126.264196 105.533936,126.135689 105.52761,125.90377 L105.517353,109.785258 C105.511027,109.553339 105.460842,109.415457 105.410657,109.277576 C105.398111,109.243105 105.291521,109.16479 105.056412,109.055178 C104.72726,108.901721 104.354249,108.842302 104.003167,108.735863 C103.548659,108.667069 103.188194,108.64212 102.931156,108.579527 L102.047231,108.51088 L102.037104,105.586797 L107.96743,105.575365 L107.975645,100.770835 L110.784086,100.763606 L110.869915,105.611981 L113.725378,105.626674 L113.7085,100.753203 L116.516942,100.745973 L116.51189,105.666463 C117.104301,105.685065 117.687328,105.785155 118.223334,105.863324 C119.191919,106.057304 120.082169,106.35787 120.975583,106.774396 C121.834521,107.203469 122.55872,107.798694 123.14818,108.560071 C123.750186,109.355919 124.067005,110.33364 124.073544,111.424293 C124.064373,112.364517 123.867115,113.217051 123.447295,113.994444 C123.049404,114.724818 122.463426,115.367503 121.758312,115.897402 C121.325839,116.210957 120.811869,116.515137 120.250877,116.797395 C121.012608,117.066665 121.705389,117.36103 122.35431,117.749432 C123.238341,118.247447 123.987632,118.911613 124.614731,119.776401 C125.24183,120.64119 125.561811,121.73487 125.571513,122.941483 C125.487172,124.104252 125.180267,125.191879 124.509735,126.138597 Z M117.898063,122.507744 C117.871384,120.348611 116.128915,118.585675 113.961539,118.575487 L109.977372,118.579709 L109.994872,126.449667 L113.979038,126.445445 C116.146414,126.455633 117.891223,124.679078 117.898063,122.507744 Z M117.444046,112.352511 C117.367145,110.479179 115.879514,108.836134 114.168658,108.730669 L111.063329,108.606853 L111.346021,115.542898 L114.45135,115.666714 C116.180627,115.725021 117.533949,114.261564 117.444046,112.352511 Z" id="Combined-Shape-Copy" transform="translate(113.742481, 117.741411) rotate(31.000000) translate(-113.742481, -117.741411) "></path>
                <path d="M230.422984,10.9151052 C215.277453,10.9234227 202.89326,23.2382831 202.912688,38.4165712 C202.932116,53.5948593 215.269123,65.9294655 230.414654,65.9211479 C245.560184,65.9128304 257.944377,53.59797 257.924949,38.4196819 C257.905522,23.2413938 245.568514,10.9067876 230.422984,10.9151052 Z M241.186073,46.8153127 C240.571945,47.7024643 239.744638,48.4329855 238.807579,48.9692319 C237.883065,49.5399488 236.848798,49.916391 235.695396,50.1800476 C234.899295,50.3526938 234.056173,50.5034177 233.175411,50.5507301 L233.192289,55.4242012 L230.383848,55.4314305 L230.36697,50.5579594 L227.511507,50.5432664 L227.528385,55.4167374 L224.719944,55.4239667 L224.703066,50.5504957 L218.609745,50.5431789 L218.599618,47.6190962 L219.467833,47.5373133 C219.781276,47.5403401 220.1856,47.4712522 220.752918,47.420913 C221.470685,47.3548519 221.699467,47.2325449 221.780965,47.2419192 C222.056769,47.1415346 222.135103,47.0349495 222.135103,47.0349495 C222.178962,46.9409124 222.210274,46.8124049 222.203948,46.5804859 L222.193691,30.4619741 C222.187364,30.2300552 222.13718,30.0921733 222.086995,29.9542915 C222.074448,29.919821 221.967859,29.8415058 221.73275,29.7318938 C221.403597,29.5784371 221.030586,29.5190175 220.679505,29.4125793 C220.224996,29.3437853 219.864531,29.3188361 219.607493,29.2562427 L218.723569,29.1875957 L218.713442,26.2635131 L224.643768,26.2520813 L224.651982,21.4475511 L227.460424,21.4403218 L227.546253,26.2886967 L230.401716,26.3033898 L230.384838,21.4299187 L233.193279,21.4226894 L233.188228,26.343179 C233.780639,26.3617807 234.363666,26.4618714 234.899672,26.5400396 C235.868257,26.7340204 236.758507,27.0345863 237.651921,27.4511117 C238.510859,27.8801851 239.235058,28.4754103 239.824518,29.2367873 C240.426524,30.0326347 240.743343,31.0103557 240.749881,32.1010094 C240.740711,33.0412331 240.543453,33.8937673 240.123633,34.67116 C239.725742,35.4015342 239.139764,36.0442189 238.43465,36.5741178 C238.002177,36.8876727 237.488207,37.1918532 236.927215,37.4741114 C237.688946,37.7433806 238.381726,38.037746 239.030648,38.4261484 C239.914679,38.9241628 240.66397,39.5883289 241.291069,40.4531173 C241.918167,41.3179056 242.238149,42.4115861 242.247851,43.6181992 C242.163509,44.7809676 241.856605,45.8685944 241.186073,46.8153127 Z M234.574401,43.1844601 C234.547722,41.0253265 232.805252,39.2623904 230.637877,39.2522029 L226.65371,39.2564251 L226.671209,47.1263834 L230.655376,47.1221612 C232.822752,47.1323487 234.567561,45.3557935 234.574401,43.1844601 Z M234.120384,33.0292267 C234.043483,31.1558946 232.555852,29.5128504 230.844996,29.4073853 L227.739666,29.2835694 L228.022359,36.2196141 L231.127688,36.34343 C232.856965,36.401737 234.210287,34.9382803 234.120384,33.0292267 Z" id="Combined-Shape-Copy-5" transform="translate(230.418819, 38.418127) rotate(-36.000000) translate(-230.418819, -38.418127) "></path>
                <path d="M134.75332,12.7474384 C119.607789,12.755756 107.223596,25.0706163 107.243024,40.2489044 C107.262452,55.4271925 119.599459,67.7617987 134.74499,67.7534812 C149.89052,67.7451636 162.274713,55.4303033 162.255285,40.2520152 C162.235858,25.0737271 149.89885,12.7391208 134.75332,12.7474384 Z M145.516409,48.6476459 C144.902281,49.5347975 144.074974,50.2653187 143.137915,50.8015651 C142.213401,51.3722821 141.179135,51.7487243 140.025732,52.0123808 C139.229631,52.185027 138.386509,52.3357509 137.505748,52.3830634 L137.522626,57.2565344 L134.714184,57.2637637 L134.697306,52.3902927 L131.841843,52.3755996 L131.858721,57.2490707 L129.05028,57.2563 L129.033402,52.3828289 L122.940081,52.3755121 L122.929954,49.4514295 L123.798169,49.3696465 C124.111612,49.3726733 124.515936,49.3035855 125.083254,49.2532462 C125.801021,49.1871851 126.029803,49.0648781 126.111301,49.0742524 C126.387105,48.9738678 126.465439,48.8672827 126.465439,48.8672827 C126.509298,48.7732456 126.54061,48.6447381 126.534284,48.4128192 L126.524027,32.2943073 C126.517701,32.0623884 126.467516,31.9245065 126.417331,31.7866247 C126.404785,31.7521542 126.298195,31.673839 126.063086,31.5642271 C125.733934,31.4107703 125.360922,31.3513507 125.009841,31.2449125 C124.555332,31.1761186 124.194868,31.1511694 123.937829,31.088576 L123.053905,31.019929 L123.043778,28.0958463 L128.974104,28.0844145 L128.982318,23.2798844 L131.79076,23.2726551 L131.876589,28.12103 L134.732052,28.135723 L134.715174,23.262252 L137.523615,23.2550227 L137.518564,28.1755123 C138.110975,28.1941139 138.694002,28.2942046 139.230008,28.3723729 C140.198593,28.5663536 141.088843,28.8669195 141.982257,29.2834449 C142.841195,29.7125184 143.565394,30.3077436 144.154854,31.0691205 C144.75686,31.8649679 145.073679,32.8426889 145.080217,33.9333426 C145.071047,34.8735664 144.873789,35.7261006 144.453969,36.5034933 C144.056078,37.2338675 143.4701,37.8765521 142.764986,38.406451 C142.332513,38.7200059 141.818543,39.0241865 141.257551,39.3064447 C142.019282,39.5757139 142.712063,39.8700792 143.360984,40.2584817 C144.245015,40.756496 144.994306,41.4206622 145.621405,42.2854505 C146.248504,43.1502388 146.568485,44.2439193 146.578187,45.4505324 C146.493845,46.6133008 146.186941,47.7009277 145.516409,48.6476459 Z M138.904737,45.0167933 C138.878058,42.8576598 137.135588,41.0947237 134.968213,41.0845361 L130.984046,41.0887584 L131.001545,48.9587167 L134.985712,48.9544944 C137.153088,48.9646819 138.897897,47.1881267 138.904737,45.0167933 Z M138.45072,34.8615599 C138.373819,32.9882278 136.886188,31.3451836 135.175332,31.2397185 L132.070002,31.1159026 L132.352695,38.0519473 L135.458024,38.1757632 C137.187301,38.2340702 138.540623,36.7706135 138.45072,34.8615599 Z" id="Combined-Shape-Copy-2" transform="translate(134.749155, 40.250460) rotate(-50.000000) translate(-134.749155, -40.250460) "></path>
                <path d="M60.0700012,163.561158 C44.9244706,163.569475 32.5402775,175.884335 32.5597053,191.062624 C32.5791332,206.240912 44.9161404,218.575518 60.0616711,218.5672 C75.2072017,218.558883 87.5913948,206.244022 87.5719669,191.065734 C87.5525391,175.887446 75.2155318,163.55284 60.0700012,163.561158 Z M70.8330903,199.461365 C70.2189629,200.348517 69.3916559,201.079038 68.4545961,201.615284 C67.5300825,202.186001 66.495816,202.562443 65.3424135,202.8261 C64.5463127,202.998746 63.7031902,203.14947 62.822429,203.196783 L62.839307,208.070254 L60.0308657,208.077483 L60.0139877,203.204012 L57.1585245,203.189319 L57.1754025,208.06279 L54.3669612,208.070019 L54.3500832,203.196548 L48.2567627,203.189231 L48.2466359,200.265149 L49.1148509,200.183366 C49.428294,200.186393 49.8326175,200.117305 50.3999356,200.066965 C51.1177021,200.000904 51.3464848,199.878597 51.4279821,199.887972 C51.7037865,199.787587 51.7821207,199.681002 51.7821207,199.681002 C51.8259794,199.586965 51.8572918,199.458457 51.8509656,199.226538 L51.8407083,183.108027 C51.8343821,182.876108 51.7841972,182.738226 51.7340123,182.600344 C51.7214661,182.565873 51.6148763,182.487558 51.3797674,182.377946 C51.050615,182.22449 50.677604,182.16507 50.3265222,182.058632 C49.8720139,181.989838 49.511549,181.964889 49.2545108,181.902295 L48.3705865,181.833648 L48.3604597,178.909566 L54.2907855,178.898134 L54.2989999,174.093604 L57.1074413,174.086374 L57.1932704,178.934749 L60.0487335,178.949442 L60.0318555,174.075971 L62.8402969,174.068742 L62.8352456,178.989231 C63.4276561,179.007833 64.0106836,179.107924 64.5466893,179.186092 C65.5152741,179.380073 66.4055246,179.680639 67.2989383,180.097164 C68.1578764,180.526238 68.8820754,181.121463 69.4715354,181.88284 C70.0735416,182.678687 70.3903602,183.656408 70.396899,184.747062 C70.3877283,185.687286 70.1904706,186.53982 69.7706503,187.317212 C69.3727593,188.047587 68.7867812,188.690271 68.0816671,189.22017 C67.6491943,189.533725 67.1352241,189.837906 66.5742322,190.120164 C67.3359637,190.389433 68.0287441,190.683798 68.6776658,191.072201 C69.5616963,191.570215 70.3109878,192.234381 70.9380864,193.09917 C71.565185,193.963958 71.8851668,195.057639 71.8948686,196.264252 C71.8105269,197.42702 71.5036226,198.514647 70.8330903,199.461365 Z M64.2214182,195.830513 C64.1947395,193.671379 62.4522698,191.908443 60.2848942,191.898255 L56.3007275,191.902478 L56.3182269,199.772436 L60.3023937,199.768214 C62.4697693,199.778401 64.2145782,198.001846 64.2214182,195.830513 Z M63.7674014,185.675279 C63.6905002,183.801947 62.2028694,182.158903 60.4920133,182.053438 L57.3866839,181.929622 L57.6693764,188.865666 L60.7747058,188.989482 C62.5039822,189.047789 63.8573042,187.584333 63.7674014,185.675279 Z" id="Combined-Shape-Copy-3" transform="translate(60.065836, 191.064179) rotate(-157.000000) translate(-60.065836, -191.064179) "></path>
                <path d="M173.992172,173.482642 C158.846642,173.490959 146.462449,185.80582 146.481876,200.984108 C146.501304,216.162396 158.838312,228.497002 173.983842,228.488684 C189.129373,228.480367 201.513566,216.165507 201.494138,200.987218 C201.47471,185.80893 189.137703,173.474324 173.992172,173.482642 Z M184.755261,209.382849 C184.141134,210.270001 183.313827,211.000522 182.376767,211.536768 C181.452254,212.107485 180.417987,212.483928 179.264585,212.747584 C178.468484,212.92023 177.625361,213.070954 176.7446,213.118267 L176.761478,217.991738 L173.953037,217.998967 L173.936159,213.125496 L171.080696,213.110803 L171.097574,217.984274 L168.289132,217.991503 L168.272254,213.118032 L162.178934,213.110715 L162.168807,210.186633 L163.037022,210.10485 C163.350465,210.107877 163.754789,210.038789 164.322107,209.988449 C165.039873,209.922388 165.268656,209.800081 165.350153,209.809456 C165.625958,209.709071 165.704292,209.602486 165.704292,209.602486 C165.748151,209.508449 165.779463,209.379941 165.773137,209.148022 L165.762879,193.029511 C165.756553,192.797592 165.706368,192.65971 165.656183,192.521828 C165.643637,192.487358 165.537047,192.409042 165.301939,192.29943 C164.972786,192.145974 164.599775,192.086554 164.248693,191.980116 C163.794185,191.911322 163.43372,191.886373 163.176682,191.823779 L162.292758,191.755132 L162.282631,188.83105 L168.212957,188.819618 L168.221171,184.015088 L171.029612,184.007858 L171.115442,188.856233 L173.970905,188.870926 L173.954027,183.997455 L176.762468,183.990226 L176.757417,188.910716 C177.349827,188.929317 177.932855,189.029408 178.46886,189.107576 C179.437445,189.301557 180.327696,189.602123 181.221109,190.018648 C182.080048,190.447722 182.804247,191.042947 183.393707,191.804324 C183.995713,192.600171 184.312531,193.577892 184.31907,194.668546 C184.309899,195.60877 184.112642,196.461304 183.692821,197.238697 C183.29493,197.969071 182.708952,198.611755 182.003838,199.141654 C181.571365,199.455209 181.057395,199.75939 180.496403,200.041648 C181.258135,200.310917 181.950915,200.605283 182.599837,200.993685 C183.483867,201.491699 184.233159,202.155865 184.860258,203.020654 C185.487356,203.885442 185.807338,204.979123 185.81704,206.185736 C185.732698,207.348504 185.425794,208.436131 184.755261,209.382849 Z M178.143589,205.751997 C178.116911,203.592863 176.374441,201.829927 174.207065,201.819739 L170.222899,201.823962 L170.240398,209.69392 L174.224565,209.689698 C176.39194,209.699885 178.136749,207.92333 178.143589,205.751997 Z M177.689573,195.596763 C177.612671,193.723431 176.125041,192.080387 174.414184,191.974922 L171.308855,191.851106 L171.591548,198.787151 L174.696877,198.910966 C176.426153,198.969274 177.779475,197.505817 177.689573,195.596763 Z" id="Combined-Shape-Copy-6" transform="translate(173.988007, 200.985663) rotate(-13.000000) translate(-173.988007, -200.985663) "></path>
                <path d="M39.397006,90.1046768 C24.2514754,90.1129943 11.8672823,102.427855 11.8867102,117.606143 C11.906138,132.784431 24.2431453,145.119037 39.3886759,145.11072 C54.5342065,145.102402 66.9183996,132.787542 66.8989718,117.609254 C66.8795439,102.430965 54.5425367,90.0963592 39.397006,90.1046768 Z M50.1600951,126.004884 C49.5459677,126.892036 48.7186607,127.622557 47.7816009,128.158804 C46.8570873,128.72952 45.8228208,129.105963 44.6694183,129.369619 C43.8733176,129.542265 43.030195,129.692989 42.1494338,129.740302 L42.1663118,134.613773 L39.3578705,134.621002 L39.3409925,129.747531 L36.4855293,129.732838 L36.5024074,134.606309 L33.693966,134.613538 L33.677088,129.740067 L27.5837675,129.73275 L27.5736407,126.808668 L28.4418557,126.726885 C28.7552988,126.729912 29.1596223,126.660824 29.7269404,126.610485 C30.444707,126.544423 30.6734896,126.422116 30.7549869,126.431491 C31.0307913,126.331106 31.1091255,126.224521 31.1091255,126.224521 C31.1529842,126.130484 31.1842966,126.001976 31.1779704,125.770058 L31.1677131,109.651546 C31.1613869,109.419627 31.111202,109.281745 31.0610171,109.143863 C31.0484709,109.109393 30.9418811,109.031077 30.7067723,108.921465 C30.3776198,108.768009 30.0046088,108.708589 29.6535271,108.602151 C29.1990187,108.533357 28.8385538,108.508408 28.5815157,108.445814 L27.6975913,108.377167 L27.6874645,105.453085 L33.6177903,105.441653 L33.6260047,100.637123 L36.4344461,100.629893 L36.5202752,105.478268 L39.3757383,105.492961 L39.3588603,100.61949 L42.1673017,100.612261 L42.1622504,105.532751 C42.754661,105.551352 43.3376884,105.651443 43.8736941,105.729611 C44.8422789,105.923592 45.7325294,106.224158 46.6259431,106.640683 C47.4848812,107.069757 48.2090803,107.664982 48.7985402,108.426359 C49.4005464,109.222206 49.7173651,110.199927 49.7239038,111.290581 C49.7147332,112.230805 49.5174754,113.083339 49.0976551,113.860732 C48.6997641,114.591106 48.113786,115.23379 47.4086719,115.763689 C46.9761991,116.077244 46.462229,116.381425 45.9012371,116.663683 C46.6629685,116.932952 47.3557489,117.227318 48.0046706,117.61572 C48.8887011,118.113734 49.6379926,118.777901 50.2650912,119.642689 C50.8921898,120.507477 51.2121716,121.601158 51.2218735,122.807771 C51.1375318,123.970539 50.8306274,125.058166 50.1600951,126.004884 Z M43.548423,122.374032 C43.5217443,120.214898 41.7792746,118.451962 39.6118991,118.441775 L35.6277323,118.445997 L35.6452317,126.315955 L39.6293985,126.311733 C41.7967741,126.32192 43.541583,124.545365 43.548423,122.374032 Z M43.0944062,112.218798 C43.017505,110.345466 41.5298742,108.702422 39.8190181,108.596957 L36.7136887,108.473141 L36.9963812,115.409186 L40.1017106,115.533002 C41.830987,115.591309 43.184309,114.127852 43.0944062,112.218798 Z" id="Combined-Shape-Copy-4" transform="translate(39.392841, 117.607698) rotate(-232.000000) translate(-39.392841, -117.607698) "></path>
            </g>
            <path d="M1044.3125,774.5 L1942.48438,774.5" id="Path-7" stroke="#6F6F6F" stroke-width="5"></path>
            <g id="Group-3" transform="translate(576.000000, 204.000000)">
                <rect id="Rectangle-4-Copy" fill="#E5A1EE" x="427.718475" y="244.439172" width="158.281525" height="177"></rect>
                <g id="noun_1102789" transform="translate(415.000000, 243.000000)" fill-rule="nonzero" fill="#FFFFFF">
                    <path d="M0,0 L0,338 L175,338 L175,0 L0,0 Z M87.5,255.64467 C79.7794118,255.64467 73.7745098,249.639594 73.7745098,241.918782 C73.7745098,234.19797 79.7794118,228.192893 87.5,228.192893 C95.2205882,228.192893 101.22549,234.19797 101.22549,241.918782 C101.22549,249.639594 95.2205882,255.64467 87.5,255.64467 Z M160.416667,114.096447 L14.5833333,114.096447 L14.5833333,94.3654822 L160.416667,94.3654822 L160.416667,114.096447 Z M160.416667,74.2055838 L14.5833333,74.2055838 L14.5833333,54.4746193 L160.416667,54.4746193 L160.416667,74.2055838 Z M160.416667,34.3147208 L14.5833333,34.3147208 L14.5833333,14.5837563 L160.416667,14.5837563 L160.416667,34.3147208 Z" id="Shape"></path>
                </g>
                <g id="noun_834876" transform="translate(446.553439, 187.924687) rotate(-16.000000) translate(-446.553439, -187.924687) translate(408.553439, 147.924687)" fill-rule="nonzero" fill="#FDA066">
                    <g id="Group" transform="translate(38.000000, 40.302796) scale(-1, 1) rotate(-180.000000) translate(-38.000000, -40.302796) translate(0.000000, 0.802796)">
                        <path d="M65.5425711,77.9777799 C65.0900805,77.5515215 63.9245746,76.4514999 62.9373224,75.5439821 C61.9637822,74.6364643 60.565175,73.3301887 59.8521596,72.6426752 C59.1391442,71.9551617 58.0833329,70.9788926 57.5211476,70.4563823 C56.9589624,69.9338721 55.8757274,68.9163521 55.1215765,68.2013381 C54.3674256,67.4725738 52.7631409,65.9462938 51.5564994,64.8187717 C50.349858,63.6912496 48.7729969,62.2062205 48.0599815,61.518707 C46.6339507,60.14368 44.700582,58.3011438 43.946431,57.5998801 C43.6859062,57.3523752 42.205028,55.9360974 40.6555906,54.4510683 C39.1198651,52.9660392 37.1453609,51.0822522 36.2815153,50.2434858 C35.4039579,49.4184696 33.648843,47.7134361 32.3736423,46.4621616 C31.0847298,45.210887 29.0416664,43.2308482 27.835025,42.0620752 C25.010387,39.3257716 12.7794302,27.0605309 10.9009088,25.0804921 C10.1056224,24.2417256 8.94011639,23.0042013 8.29566015,22.3304381 C6.96561216,20.9416609 4.81285407,18.5491139 3.94900847,17.5178437 C2.76979066,16.1153162 1.27520065,14.2177789 1.19292964,14.0115249 C1.15179414,13.9015227 0.987252117,13.5852665 0.822710097,13.3240114 C0.164542019,12.2239898 0,11.4402245 0,9.47393587 C0,7.39764514 0.178253854,6.71013165 1.00096395,5.34885494 C2.48184213,2.94255773 5.9235127,0.715014028 8.77557437,0.316256205 C9.15950575,0.275005395 9.52972529,0.165003237 9.62570814,0.0962518884 C9.85880933,-0.0962518884 13.1359379,0.0550010791 14.3974267,0.316256205 C15.0007474,0.440008633 16.2073889,0.60501187 17.0712345,0.673763219 C17.9350801,0.742514568 18.8674849,0.852516726 19.1280098,0.893767535 C19.3885346,0.935018345 20.3209394,1.03127023 21.184785,1.08627131 C22.0486306,1.15502266 23.6940508,1.30627563 24.8184213,1.41627779 C25.9565036,1.54003021 27.5196528,1.70503345 28.3149392,1.7737848 C29.1102256,1.85628642 30.6185275,2.00753939 31.6743387,2.11754155 C32.73015,2.24129397 34.2110282,2.37879667 34.9651791,2.44754802 C35.7193301,2.51629937 36.4871928,2.59880099 36.6791585,2.65380207 C36.9945307,2.72255342 38.5302562,2.88755665 41.2726232,3.14881178 C41.875944,3.21756313 43.2608393,3.36881609 44.3577861,3.49256852 C45.4547329,3.61632095 46.9081874,3.76757392 47.5800673,3.83632527 C49.1706402,3.98757823 51.1862799,4.22133282 52.255803,4.38633606 C52.7220054,4.46883768 53.4350208,4.52383876 53.832664,4.52383876 C54.2440191,4.52383876 54.8199162,4.5925901 55.1215765,4.66134145 C55.6563381,4.78509388 57.740537,5.0050982 60.1263963,5.21135224 C60.7708525,5.26635332 61.9363585,5.37635548 62.7316449,5.47260737 C63.5269314,5.55510899 64.7609965,5.69261169 65.4740119,5.7751133 C67.2565505,5.96761708 67.3525333,6.03636843 66.1596037,6.27012302 C65.5974184,6.36637491 64.8295557,6.51762787 64.4456243,6.60012949 C64.0754048,6.66888084 63.4857958,6.79263327 63.143,6.84763435 C62.8002041,6.90263543 62.2517307,7.02638785 61.9089348,7.10888947 C61.566139,7.19139109 60.9216827,7.31514352 60.4691922,7.41139541 C60.0167016,7.49389703 59.2488388,7.64514999 58.7552128,7.75515215 C58.2615867,7.85140404 57.493724,8.00265701 57.0412334,8.0989089 C56.5887429,8.18141052 55.8208801,8.33266348 55.327254,8.44266564 C54.833628,8.5526678 54.2577309,8.66266996 54.0246297,8.70392077 C53.8052404,8.73142131 53.1196486,8.868924 52.5163279,8.99267643 C51.9130071,9.11642886 51.1451444,9.26768183 50.8023485,9.33643318 C50.4595526,9.39143426 49.6916899,9.54268722 49.0883691,9.68018992 C48.4850484,9.80394235 47.689762,9.96894559 47.3058306,10.0376969 C46.9356111,10.1064483 46.1266128,10.2577013 45.5232921,10.3677034 C44.9199713,10.4914558 44.0835494,10.6427088 43.6721943,10.7114602 C41.8073848,11.0414666 40.9161155,11.2339704 40.8475563,11.3027218 C40.6830143,11.467725 40.9298273,11.8114817 41.204064,11.8114817 C41.3548942,11.8114817 41.5879954,11.8664828 41.7251138,11.9489844 C41.9993505,12.1002374 43.0140263,12.5127455 44.4263453,13.049006 C44.5771754,13.1040071 44.9748187,13.2552601 45.3176145,13.3927628 C45.6604104,13.5302655 46.0580536,13.6815184 46.2088838,13.7365195 C46.359714,13.7915206 46.6339507,13.9015227 46.8259164,13.9840244 C47.0178821,14.066526 47.6623383,14.3277811 48.265659,14.5615357 C48.8689798,14.8090405 49.4860124,15.0427951 49.6368425,15.1115465 C49.7876727,15.1665476 50.1853159,15.3178005 50.5281118,15.4553032 C51.5153639,15.8403108 51.8033125,15.9503129 52.2420912,16.1428167 C52.4751924,16.2390686 53.2704788,16.5553248 54.0246297,16.8303302 C54.7787807,17.1190859 55.6014907,17.4353421 55.8483038,17.531594 C56.8081322,17.9441021 57.1920636,18.1091053 57.658266,18.2741085 C57.9187909,18.3566101 58.2615867,18.4941128 58.4124169,18.5628642 C58.5632471,18.6178653 59.1802797,18.8653701 59.7836004,19.0991247 C60.3869211,19.3328793 61.0039537,19.5666339 61.1547839,19.6353852 C61.3056141,19.7041366 61.7032573,19.8553896 62.0460532,19.9928923 C62.9098988,20.336649 63.0470171,20.3778998 64.6513018,21.0241625 C66.1596037,21.6291744 66.2692983,21.6704252 67.2565505,22.0554327 C67.5993463,22.1929354 68.0655487,22.3716889 68.2849381,22.4679408 C68.5180393,22.5641927 68.9156825,22.7154457 69.1762074,22.8116976 C69.4367322,22.8941992 69.7795281,23.0317019 69.9303583,23.1004532 C70.7393565,23.4579602 73.0977922,24.3242272 73.2486223,24.3242272 C73.3446052,24.3242272 73.4268762,24.3929786 73.4268762,24.4754802 C73.4268762,24.5992326 73.0429448,24.6129829 72.0968282,24.5442315 C71.3563891,24.5029807 69.8617991,24.4067288 68.7648523,24.3379775 C67.6679055,24.2692261 65.9402143,24.1454737 64.9255385,24.0629721 C63.9108627,23.9804705 62.1557479,23.8567181 61.0176656,23.7742164 C59.8932951,23.6917148 57.822808,23.5404619 56.4242008,23.4304597 C55.0255937,23.3204575 53.1196486,23.1554543 52.173532,23.0867029 C51.2274154,23.0179516 49.7191136,22.8804489 48.8141324,22.7979473 C47.1961359,22.6604446 45.3861737,22.5091916 42.8906197,22.3166878 C42.1090452,22.2616868 41.6154191,22.275437 41.6154191,22.3579387 C41.6154191,22.42669 41.9033676,22.6604446 42.2598753,22.8941992 C42.7809251,23.2104554 45.35875,25.0117407 47.854304,26.7992758 C48.0874052,26.9505288 49.2803348,27.7892952 50.5281118,28.6555622 C51.7758888,29.5218292 53.8737995,30.9793578 55.1901357,31.9143761 C56.5064719,32.8493945 57.6856897,33.6744107 57.8090962,33.743162 C58.1656039,33.9631663 58.6592299,34.3069231 60.9902419,35.9707057 C62.1694597,36.8232225 63.1704236,37.5244862 63.1978473,37.5244862 C63.2526947,37.5244862 67.5856345,40.5495456 67.873583,40.7970504 C67.955854,40.8658018 68.2026671,41.030805 68.4220564,41.182058 C68.9156825,41.4983142 73.5639945,44.7571281 73.7970957,44.9358816 C73.8793667,45.0183832 74.2632981,45.2658881 74.6472295,45.4996427 C75.0311609,45.7471475 75.3465331,45.9946524 75.3465331,46.0634037 C75.3465331,46.2971583 74.9900254,46.2146567 73.6325537,45.6508956 C73.3308933,45.5271432 73.0977922,45.4308913 70.4102725,44.3996211 C69.3955967,44.0146135 68.4357683,43.6433563 68.2849381,43.5746049 C68.1341079,43.5196038 67.791312,43.3821011 67.5307872,43.2995995 C67.2702623,43.2033476 66.8726191,43.0520947 66.6395179,42.9558428 C66.214451,42.7770893 65.1997752,42.3783314 64.719861,42.1995779 C64.5690308,42.1445769 64.1713876,41.9933239 63.8285917,41.8558212 C63.4857958,41.7183185 63.0881526,41.5670655 62.9373224,41.5120644 C62.7864923,41.4570634 62.3888491,41.3058104 62.0460532,41.1683077 C61.7032573,41.030805 61.3056141,40.879552 61.1547839,40.824551 C60.6748697,40.6457975 59.6601939,40.2470396 59.235127,40.0682861 C59.0157377,39.9720342 58.6043826,39.8207813 58.3438577,39.7245294 C58.0833329,39.6282775 57.6445542,39.4632742 57.3840293,39.3532721 C56.6435902,39.0507662 56.3967772,38.9545143 55.7386091,38.6932591 C55.3958132,38.5557564 54.99817,38.4045035 54.8473398,38.3495024 C54.6965096,38.280751 54.1754599,38.0882473 53.6818339,37.8957435 C53.1882078,37.7032397 52.1461083,37.2907316 51.3508219,36.9744754 C49.7191136,36.3282127 49.595707,36.2732117 48.7455733,35.9432052 C48.4027774,35.8057025 48.0051342,35.6544495 47.854304,35.5856982 C47.7034738,35.5306971 46.9356111,35.2144409 46.1403246,34.911935 C45.3450382,34.5956787 44.5223281,34.251922 44.2892269,34.1694204 C43.0140263,33.6194096 42.287299,33.3719047 42.205028,33.4406561 C42.1638925,33.4956572 42.3969937,33.9769166 42.7260777,34.5269274 C43.0551618,35.0769382 43.3568221,35.5856982 43.3842458,35.6681998 C43.4116695,35.7369511 43.6859062,36.19071 43.9738547,36.6719695 C44.2618032,37.1394787 44.4949044,37.5519868 44.4949044,37.5794873 C44.4949044,37.6207381 44.865124,38.280751 45.3313264,39.0645164 C45.7975288,39.8482818 46.359714,40.824551 46.5928152,41.2370591 C46.8259164,41.6495671 47.1138649,42.1858277 47.2372714,42.405832 C47.3606779,42.6395866 47.6760501,43.1895974 47.9228632,43.6433563 C48.1696762,44.0971152 48.4164892,44.5371238 48.4713366,44.6058751 C48.5261839,44.6883768 48.7729969,45.1146351 49.01981,45.568394 C49.266623,46.0221529 49.5819952,46.585914 49.7054017,46.8059183 C49.8288082,47.0396729 50.1441804,47.5896837 50.3909935,48.0434426 C50.6378065,48.4972015 50.9531787,49.0609626 51.0765852,49.2809669 C51.1999917,49.5147215 51.5153639,50.0647322 51.762177,50.5184911 C52.00899,50.97225 52.3243622,51.5360111 52.4477687,51.7560154 C53.2156315,53.1310424 53.585851,53.8185559 54.2028836,54.9873288 C54.5731031,55.7023429 54.99817,56.5136088 55.1490002,56.7748639 C55.4232369,57.2698736 56.0951168,58.5073979 57.0412334,60.2811827 C57.329182,60.8174432 57.8090962,61.7112107 58.1107565,62.2749718 C58.4124169,62.8387329 58.9608903,63.8975036 59.3448217,64.6125177 C59.7150412,65.3275317 60.2223791,66.2900506 60.4691922,66.7438095 C60.8805472,67.5138246 61.2370549,68.2013381 63.554355,72.6564255 C67.1331439,79.5453106 67.1057203,79.4903096 65.5425711,77.9777799 Z" id="Shape"></path>
                    </g>
                </g>
                <g id="Screen" transform="translate(0.000000, 311.000000)">
                    <rect id="Rectangle-4" fill="#4ABAEB" x="12" y="10" width="315" height="177"></rect>
                    <g id="noun_1148993" fill="#6F6F6F">
                        <path d="M0,0 L339,0 L339,215.445169 L200.319942,215.445169 L200.319942,239.573455 L138.680058,239.573455 L138.680058,215.445169 L0,215.445169 L0,0 Z M16.4551252,17.8297042 L16.4551252,178.927405 L322.544875,178.927405 L322.544875,17.8297042 L16.4551252,17.8297042 Z M169.498386,192.146014 C165.241656,192.146014 161.793928,195.589288 161.793928,199.840495 C161.793928,204.091713 165.241667,207.534976 169.498386,207.534976 C173.755116,207.534976 177.202845,204.091702 177.202845,199.840495 C177.202845,195.589277 173.755106,192.146014 169.498386,192.146014 Z M96.8372095,244.121481 L242.15838,244.121481 L242.15838,270 L197.143061,270 L96.8372095,270 L96.8372095,244.121481 Z" id="Combined-Shape"></path>
                    </g>
                </g>
                <g id="noun_383745" transform="translate(328.511645, 116.932150) rotate(10.000000) translate(-328.511645, -116.932150) translate(228.011645, 15.932150)" fill-rule="nonzero">
                    <rect id="Rectangle-path" fill="#B77E4F" transform="translate(69.711784, 132.149892) rotate(-45.000000) translate(-69.711784, -132.149892) " x="-12.5920958" y="115.920958" width="164.60776" height="32.4578681"></rect>
                    <polygon id="Shape" fill="#B77E4F" points="191.42879 28.2119602 173.649927 10.4328862 156.652502 21.7463609 180.115526 45.2091735"></polygon>
                    <path d="M149.176984,77.7429957 C167.593779,98.4491567 183.844535,121.115048 197.185001,145.395852 C197.306456,145.616949 197.42791,145.838256 197.547686,146.060407 C196.92636,144.908975 199.525147,137.891842 199.742254,136.486645 C201.032733,128.142088 200.994136,119.577066 199.796793,111.224922 C194.931489,77.2845729 169.906865,50.5984726 145.248492,28.7368758 C122.740008,8.78147402 92.2016943,-5.4460681 61.4473218,2.0151557 C60.5398755,2.23519856 56.4788125,4.00502614 55.8012692,3.63596976 C90.3563861,22.4565913 122.691762,47.965757 149.176984,77.7429957 Z" id="Shape" fill="#6F6F6F"></path>
                </g>
            </g>
        </g>
    </g>
</svg>