<?xml version="1.0" encoding="UTF-8"?>
<svg width="1920px" height="1080px" viewBox="0 0 1920 1080" version="1.1" xmlns="http://www.w3.org/2000/svg" xmlns:xlink="http://www.w3.org/1999/xlink">
    <!-- Generator: Sketch 46.2 (44496) - http://www.bohemiancoding.com/sketch -->
    <title>bitcoinMiningExplosion</title>
    <desc>Created with Sketch.</desc>
    <defs></defs>
    <g id="Actual-Slides" stroke="none" stroke-width="1" fill="none" fill-rule="evenodd">
        <g id="bitcoinMiningExplosion">
            <g id="Group-2" transform="translate(1266.000000, 343.000000)" fill-rule="nonzero" fill="#E1B73F">
                <path d="M243.910501,367.657038 C229.675513,362.484778 213.826248,369.821318 208.653224,384.090888 C203.4802,398.360458 210.854511,414.170701 225.089499,419.342962 C239.324487,424.515222 255.173752,417.178682 260.346776,402.909112 C265.5198,388.639542 258.145489,372.829299 243.910501,367.657038 Z M241.745902,405.073392 C240.865388,405.696998 239.838121,406.100507 238.774165,406.283921 C237.71021,406.504017 236.609567,406.504017 235.435547,406.357286 C234.628408,406.247238 233.784582,406.100507 232.940755,405.843728 L231.28979,410.429066 L228.648246,409.475316 L230.299211,404.889978 L227.620979,403.899545 L225.970014,408.484883 L223.328469,407.531133 L224.979434,402.945795 L219.256089,400.854881 L220.246668,398.103679 L221.090494,398.323775 C221.383999,398.433823 221.787569,398.507188 222.33789,398.653919 C223.034964,398.837333 223.291781,398.80065 223.365157,398.837333 C223.658662,398.837333 223.768727,398.763967 223.768727,398.763967 C223.842103,398.690602 223.915479,398.580554 223.988855,398.360458 L229.492072,383.210503 C229.565449,382.990407 229.565449,382.843676 229.565449,382.696945 C229.565449,382.660262 229.492072,382.550214 229.308632,382.366801 C229.051815,382.110022 228.721622,381.926608 228.428117,381.706512 C228.024548,381.486416 227.694355,381.339685 227.474226,381.192954 L226.667088,380.826127 L227.657667,378.074925 L233.23426,380.092473 L234.885225,375.580501 L237.526769,376.534252 L235.94918,381.119589 L238.627413,382.110022 L240.278378,377.524684 L242.919922,378.478435 L241.232269,383.100455 C241.782591,383.320551 242.296224,383.614013 242.77317,383.870791 C243.616996,384.384349 244.350759,384.971272 245.047833,385.668244 C245.708219,386.365215 246.185164,387.172234 246.478669,388.089302 C246.772174,389.043052 246.735486,390.070168 246.368605,391.097283 C246.038412,391.977668 245.561466,392.711322 244.90108,393.298245 C244.277382,393.848486 243.506932,394.251995 242.663105,394.508774 C242.149472,394.655505 241.562462,394.765553 240.938764,394.838919 C241.562462,395.352476 242.112784,395.866034 242.589729,396.452957 C243.250115,397.223294 243.727061,398.103679 244.020566,399.130794 C244.31407,400.15791 244.240694,401.295074 243.837125,402.432237 C243.360179,403.496036 242.699793,404.413103 241.745902,405.073392 Z M236.774788,399.400181 C237.488185,397.362135 236.453759,395.109557 234.420576,394.358698 L230.67524,393 L228,400.401327 L231.745336,401.760025 C233.778519,402.510884 236.02572,401.438228 236.774788,399.400181 Z M239.821446,389.7021 C240.3899,387.915442 239.553938,385.862686 237.982331,385.178434 L235.106623,384 L233,390.614437 L235.875708,391.792871 C237.480754,392.439109 239.252992,391.526773 239.821446,389.7021 Z" id="Combined-Shape"></path>
                <path d="M422.738985,440.658018 C431.634575,428.400138 428.95089,411.142622 416.659977,402.236765 C404.369065,393.330909 387.138648,396.061658 378.243057,408.319538 C369.347467,420.577419 372.031152,437.834935 384.322065,446.740791 C396.612977,455.646648 413.843394,452.915899 422.738985,440.658018 Z M387.368722,428.263928 C387.011976,427.245634 386.907251,426.146939 387.024208,425.073644 C387.105904,423.990237 387.409282,422.932231 387.873933,421.844135 C388.202195,421.098597 388.575832,420.327904 389.055254,419.587543 L385.102612,416.736644 L386.747524,414.460317 L390.700166,417.311217 L392.390452,415.009735 L388.43781,412.158836 L390.082722,409.88251 L394.035364,412.733409 L397.622847,407.80811 L399.994432,409.51865 L399.550272,410.269122 C399.363586,410.520923 399.181824,410.888637 398.889088,411.377195 C398.52064,411.996711 398.485113,412.25369 398.429626,412.314112 C398.348725,412.596247 398.388911,412.72227 398.388911,412.72227 C398.439209,412.813026 398.524769,412.913893 398.716113,413.045094 L411.762292,422.511019 C411.953637,422.64222 412.094684,422.682664 412.235731,422.723109 C412.270992,422.73322 412.397003,422.693019 412.623874,422.567241 C412.941494,422.39115 413.208816,422.124304 413.501287,421.902836 C413.824096,421.575567 414.056156,421.298609 414.257878,421.127453 L414.832973,420.452693 L417.204557,422.163232 L413.728048,426.967686 L417.610166,429.798364 L415.965254,432.07469 L411.992388,429.294324 L410.302102,431.595806 L414.254743,434.446705 L412.609831,436.723032 L408.632041,433.826754 C408.268781,434.29509 407.845111,434.707937 407.466816,435.095629 C406.740562,435.765212 405.974123,436.308771 405.112012,436.786731 C404.260013,437.229423 403.352792,437.465448 402.390349,437.494805 C401.392645,437.514051 400.415431,437.195672 399.52923,436.559892 C398.773963,435.999823 398.200194,435.339131 397.818034,434.54255 C397.461023,433.791346 397.28551,432.939519 397.271268,432.057603 C397.271798,431.523422 397.327815,430.928819 397.429206,430.30906 C396.763628,430.767041 396.118275,431.154488 395.422625,431.45118 C394.500103,431.87365 393.522358,432.089452 392.454131,432.088476 C391.385903,432.0875 390.313016,431.703521 389.331143,431.002141 C388.440018,430.250449 387.740504,429.362867 387.368722,428.263928 Z M394.192386,425.049134 C395.954843,426.296658 398.405287,425.923198 399.68748,424.175742 L402.025899,420.950002 L395.648683,416.338314 L393.310264,419.564054 C392.028071,421.31151 392.439761,423.767323 394.192386,425.049134 Z M402.675007,430.650923 C404.235766,431.689826 406.439424,431.452065 407.530363,430.129944 L409.455799,427.690457 L403.678259,423.842255 L401.752823,426.281742 C400.689208,427.646484 401.077707,429.601543 402.675007,430.650923 Z" id="Combined-Shape"></path>
                <path d="M129.769521,396.186613 C115.831236,402.1121 109.243326,418.286878 115.191839,432.250975 C121.140352,446.215072 137.316141,452.748684 151.254426,446.823197 C165.192711,440.897711 171.780621,424.722932 165.832108,410.758835 C159.883595,396.794739 143.707805,390.261126 129.769521,396.186613 Z M153.704325,425.027454 C153.485656,426.08404 153.009553,427.079743 152.356513,427.939499 C151.728491,428.826083 150.923531,429.57672 149.964837,430.270087 C149.299481,430.740071 148.582275,431.208247 147.790016,431.595939 L149.70977,436.075398 L147.12741,437.179398 L145.207657,432.699939 L142.573448,433.802132 L144.493202,438.281591 L141.910842,439.385591 L139.991089,434.906132 L134.379299,437.280247 L133.227447,434.592572 L133.994688,434.178052 C134.284397,434.058366 134.629584,433.836788 135.132134,433.568782 C135.767029,433.227519 135.929836,433.025542 136.008517,433.002328 C136.223173,432.802158 136.253634,432.673438 136.253634,432.673438 C136.257263,432.569739 136.235874,432.439213 136.139433,432.228202 L129.831987,417.395042 C129.735546,417.184031 129.635475,417.076719 129.535405,416.969407 C129.510388,416.942579 129.381671,416.912137 129.122423,416.903103 C128.759477,416.890456 128.392901,416.981507 128.02814,417.020708 C127.582883,417.134974 127.241325,417.252853 126.980263,417.295668 L126.139784,417.577855 L124.987932,414.890179 L130.442359,412.562493 L128.572641,408.136691 L131.155,407.03269 L133.128417,411.462107 L135.762626,410.359914 L133.842872,405.880455 L136.425232,404.776455 L138.34317,409.307763 C138.895755,409.093413 139.471544,408.957739 139.995482,408.82026 C140.962863,408.620364 141.899784,408.549187 142.884925,408.583517 C143.843234,408.642867 144.742436,408.907807 145.58253,409.378338 C146.447642,409.875697 147.121301,410.651903 147.553473,411.6533 C147.912406,412.522364 148.063941,413.384201 147.981245,414.263831 C147.900365,415.091613 147.612086,415.912167 147.170073,416.675451 C146.894495,417.133061 146.540236,417.613885 146.134127,418.092902 C146.940517,418.043133 147.693242,418.043407 148.442339,418.147379 C149.450683,418.260386 150.39992,418.578982 151.315067,419.129997 C152.230214,419.681012 152.952094,420.562724 153.432485,421.669626 C153.809178,422.772915 153.951641,423.893998 153.704325,425.027454 Z M146.199562,424.268623 C145.331363,422.291554 143.038577,421.3496 141.039517,422.187084 L137.373722,423.747708 L140.464868,430.985205 L144.130663,429.424581 C146.129723,428.587097 147.041673,426.270019 146.199562,424.268623 Z M141.813671,415.09808 C141.010914,413.403716 138.999554,412.47255 137.383494,413.043953 L134.476645,414.143329 L137.446993,420.417535 L140.353843,419.318159 C141.968432,418.696149 142.642354,416.820245 141.813671,415.09808 Z" id="Combined-Shape"></path>
                <path d="M300.16412,364.208144 C285.132496,366.062175 274.341417,379.794496 276.210468,394.85728 C278.079519,409.920064 291.827778,420.659227 306.859403,418.805195 C321.891027,416.951164 332.682106,403.218843 330.813055,388.156059 C328.944004,373.093276 315.195745,362.354113 300.16412,364.208144 Z M315.222118,398.529066 C314.720685,399.484448 313.988572,400.310348 313.123849,400.956796 C312.27578,401.635929 311.295099,402.13561 310.182426,402.537866 C309.413299,402.806246 308.59483,403.058597 307.7264,403.212894 L308.337079,408.047983 L305.550452,408.397421 L304.939773,403.562333 L302.103803,403.895743 L302.714482,408.730831 L299.927856,409.080269 L299.317177,404.245181 L293.268383,404.980508 L292.901976,402.079455 L293.753753,401.892473 C294.065228,401.857278 294.458118,401.73943 295.015073,401.620328 C295.719438,401.467285 295.93161,401.318008 296.013643,401.317381 C296.275157,401.184132 296.339918,401.068795 296.339918,401.068795 C296.37199,400.970114 296.387408,400.838748 296.352865,400.609329 L294.378331,384.612212 C294.343789,384.382793 294.277174,384.252055 294.21056,384.121317 C294.193906,384.088632 294.078567,384.023891 293.831852,383.943748 C293.486451,383.831549 293.108979,383.818031 292.747543,383.755172 C292.288038,383.742282 291.92722,383.761448 291.664469,383.730646 L290.778768,383.770234 L290.41236,380.869181 L296.297089,380.13511 L295.719718,375.365391 L298.506344,375.015953 L299.182402,379.817728 L302.018371,379.484319 L301.407692,374.649231 L304.194319,374.299792 L304.788962,379.184221 C305.379224,379.130487 305.970104,379.158779 306.51164,379.171042 C307.496646,379.245536 308.41689,379.435367 309.354406,379.739908 C310.259233,380.061105 311.050574,380.563636 311.728428,381.2475 C312.422937,381.964049 312.856548,382.895872 312.995955,383.977599 C313.101437,384.911933 313.009548,385.782152 312.687597,386.604913 C312.381682,387.378334 311.878395,388.087641 311.243116,388.699522 C310.852079,389.063445 310.37901,389.427995 309.856598,389.776517 C310.645468,389.950948 311.368958,390.15869 312.060377,390.465114 C312.998511,390.85168 313.823159,391.41958 314.550975,392.201498 C315.27879,392.983416 315.729673,394.029948 315.886352,395.226385 C315.944344,396.390765 315.772276,397.507687 315.222118,398.529066 Z M308.217238,395.731038 C307.927626,393.591249 305.983297,392.053807 303.830835,392.307832 L299.87688,392.797571 L300.853356,400.606735 L304.807311,400.116997 C306.959773,399.862972 308.475068,397.88702 308.217238,395.731038 Z M306.528994,385.70683 C306.224364,383.856834 304.547585,382.407333 302.836629,382.511155 L299.739357,382.766707 L300.865233,389.6166 L303.962505,389.361048 C305.685998,389.208175 306.850882,387.590698 306.528994,385.70683 Z" id="Combined-Shape"></path>
                <path d="M545.510319,377.000004 C530.364788,377.008322 517.980595,389.323182 518.000023,404.50147 C518.019451,419.679758 530.356458,432.014365 545.501989,432.006047 C560.647519,431.997729 573.031712,419.682869 573.012284,404.504581 C572.992857,389.326293 560.655849,376.991687 545.510319,377.000004 Z M556.273408,412.900212 C555.65928,413.787363 554.831973,414.517884 553.894914,415.054131 C552.9704,415.624848 551.936133,416.00129 550.782731,416.264947 C549.98663,416.437593 549.143508,416.588317 548.262747,416.635629 L548.279625,421.5091 L545.471183,421.51633 L545.454305,416.642858 L542.598842,416.628165 L542.61572,421.501636 L539.807279,421.508866 L539.790401,416.635395 L533.69708,416.628078 L533.686953,413.703995 L534.555168,413.622212 C534.868611,413.625239 535.272935,413.556151 535.840253,413.505812 C536.55802,413.439751 536.786802,413.317444 536.8683,413.326818 C537.144104,413.226434 537.222438,413.119848 537.222438,413.119848 C537.266297,413.025811 537.297609,412.897304 537.291283,412.665385 L537.281026,396.546873 C537.2747,396.314954 537.224515,396.177072 537.17433,396.03919 C537.161784,396.00472 537.055194,395.926405 536.820085,395.816793 C536.490933,395.663336 536.117921,395.603916 535.76684,395.497478 C535.312331,395.428684 534.951867,395.403735 534.694828,395.341142 L533.810904,395.272495 L533.800777,392.348412 L539.731103,392.33698 L539.739317,387.53245 L542.547759,387.525221 L542.633588,392.373596 L545.489051,392.388289 L545.472173,387.514818 L548.280614,387.507588 L548.275563,392.428078 C548.867974,392.44668 549.451001,392.54677 549.987007,392.624939 C550.955592,392.818919 551.845842,393.119485 552.739256,393.536011 C553.598194,393.965084 554.322393,394.560309 554.911853,395.321686 C555.513859,396.117534 555.830678,397.095255 555.837216,398.185908 C555.828046,399.126132 555.630788,399.978666 555.210968,400.756059 C554.813077,401.486433 554.227099,402.129118 553.521985,402.659017 C553.089512,402.972572 552.575542,403.276752 552.01455,403.55901 C552.776281,403.82828 553.469062,404.122645 554.117983,404.511047 C555.002014,405.009062 555.751305,405.673228 556.378404,406.538016 C557.005503,407.402805 557.325484,408.496485 557.335186,409.703098 C557.250844,410.865867 556.94394,411.953493 556.273408,412.900212 Z M549.661736,409.269359 C549.635057,407.110226 547.892587,405.347289 545.725212,405.337102 L541.741045,405.341324 L541.758544,413.211282 L545.742711,413.20706 C547.910087,413.217248 549.654896,411.440692 549.661736,409.269359 Z M549.207719,399.114126 C549.130818,397.240794 547.643187,395.597749 545.932331,395.492284 L542.827001,395.368468 L543.109694,402.304513 L546.215023,402.428329 C547.9443,402.486636 549.297622,401.023179 549.207719,399.114126 Z" id="Combined-Shape"></path>
                <path d="M186.746646,12.2383892 C171.601115,12.2467068 159.216922,24.5615671 159.23635,39.7398552 C159.255778,54.9181433 171.592785,67.2527496 186.738316,67.244432 C201.883846,67.2361144 214.268039,54.9212541 214.248612,39.742966 C214.229184,24.5646779 201.892177,12.2300717 186.746646,12.2383892 Z M197.509735,48.1385967 C196.895608,49.0257484 196.068301,49.7562695 195.131241,50.292516 C194.206727,50.8632329 193.172461,51.2396751 192.019058,51.5033316 C191.222957,51.6759779 190.379835,51.8267017 189.499074,51.8740142 L189.515952,56.7474853 L186.70751,56.7547146 L186.690632,51.8812435 L183.835169,51.8665504 L183.852047,56.7400215 L181.043606,56.7472508 L181.026728,51.8737797 L174.933407,51.866463 L174.923281,48.9423803 L175.791496,48.8605974 C176.104939,48.8636242 176.509262,48.7945363 177.07658,48.744197 C177.794347,48.6781359 178.023129,48.555829 178.104627,48.5652033 C178.380431,48.4648187 178.458765,48.3582335 178.458765,48.3582335 C178.502624,48.2641965 178.533936,48.1356889 178.52761,47.90377 L178.517353,31.7852581 C178.511027,31.5533392 178.460842,31.4154574 178.410657,31.2775755 C178.398111,31.2431051 178.291521,31.1647898 178.056412,31.0551779 C177.72726,30.9017212 177.354249,30.8423015 177.003167,30.7358634 C176.548659,30.6670694 176.188194,30.6421202 175.931156,30.5795268 L175.047231,30.5108798 L175.037104,27.5867972 L180.96743,27.5753653 L180.975645,22.7708352 L183.784086,22.7636059 L183.869915,27.6119808 L186.725378,27.6266739 L186.7085,22.7532028 L189.516942,22.7459735 L189.51189,27.6664631 C190.104301,27.6850648 190.687328,27.7851554 191.223334,27.8633237 C192.191919,28.0573045 193.082169,28.3578704 193.975583,28.7743957 C194.834521,29.2034692 195.55872,29.7986944 196.14818,30.5600713 C196.750186,31.3559188 197.067005,32.3336398 197.073544,33.4242934 C197.064373,34.3645172 196.867115,35.2170514 196.447295,35.9944441 C196.049404,36.7248183 195.463426,37.3675029 194.758312,37.8974019 C194.325839,38.2109567 193.811869,38.5151373 193.250877,38.7973955 C194.012608,39.0666647 194.705389,39.3610301 195.35431,39.7494325 C196.238341,40.2474469 196.987632,40.911613 197.614731,41.7764013 C198.24183,42.6411897 198.561811,43.7348701 198.571513,44.9414833 C198.487172,46.1042516 198.180267,47.1918785 197.509735,48.1385967 Z M190.898063,44.5077442 C190.871384,42.3486106 189.128915,40.5856745 186.961539,40.575487 L182.977372,40.5797092 L182.994872,48.4496675 L186.979038,48.4454453 C189.146414,48.4556328 190.891223,46.6790775 190.898063,44.5077442 Z M190.444046,34.3525108 C190.367145,32.4791786 188.879514,30.8361345 187.168658,30.7306693 L184.063329,30.6068534 L184.346021,37.5428981 L187.45135,37.666714 C189.180627,37.7250211 190.533949,36.2615644 190.444046,34.3525108 Z" id="Combined-Shape-Copy" transform="translate(186.742481, 39.741411) rotate(31.000000) translate(-186.742481, -39.741411) "></path>
                <path d="M627.422984,112.915105 C612.277453,112.923423 599.89326,125.238283 599.912688,140.416571 C599.932116,155.594859 612.269123,167.929465 627.414654,167.921148 C642.560184,167.91283 654.944377,155.59797 654.924949,140.419682 C654.905522,125.241394 642.568514,112.906788 627.422984,112.915105 Z M638.186073,148.815313 C637.571945,149.702464 636.744638,150.432985 635.807579,150.969232 C634.883065,151.539949 633.848798,151.916391 632.695396,152.180048 C631.899295,152.352694 631.056173,152.503418 630.175411,152.55073 L630.192289,157.424201 L627.383848,157.431431 L627.36697,152.557959 L624.511507,152.543266 L624.528385,157.416737 L621.719944,157.423967 L621.703066,152.550496 L615.609745,152.543179 L615.599618,149.619096 L616.467833,149.537313 C616.781276,149.54034 617.1856,149.471252 617.752918,149.420913 C618.470685,149.354852 618.699467,149.232545 618.780965,149.241919 C619.056769,149.141535 619.135103,149.034949 619.135103,149.034949 C619.178962,148.940912 619.210274,148.812405 619.203948,148.580486 L619.193691,132.461974 C619.187364,132.230055 619.13718,132.092173 619.086995,131.954291 C619.074448,131.919821 618.967859,131.841506 618.73275,131.731894 C618.403597,131.578437 618.030586,131.519017 617.679505,131.412579 C617.224996,131.343785 616.864531,131.318836 616.607493,131.256243 L615.723569,131.187596 L615.713442,128.263513 L621.643768,128.252081 L621.651982,123.447551 L624.460424,123.440322 L624.546253,128.288697 L627.401716,128.30339 L627.384838,123.429919 L630.193279,123.422689 L630.188228,128.343179 C630.780639,128.361781 631.363666,128.461871 631.899672,128.54004 C632.868257,128.73402 633.758507,129.034586 634.651921,129.451112 C635.510859,129.880185 636.235058,130.47541 636.824518,131.236787 C637.426524,132.032635 637.743343,133.010356 637.749881,134.101009 C637.740711,135.041233 637.543453,135.893767 637.123633,136.67116 C636.725742,137.401534 636.139764,138.044219 635.43465,138.574118 C635.002177,138.887673 634.488207,139.191853 633.927215,139.474111 C634.688946,139.743381 635.381726,140.037746 636.030648,140.426148 C636.914679,140.924163 637.66397,141.588329 638.291069,142.453117 C638.918167,143.317906 639.238149,144.411586 639.247851,145.618199 C639.163509,146.780968 638.856605,147.868594 638.186073,148.815313 Z M631.574401,145.18446 C631.547722,143.025327 629.805252,141.26239 627.637877,141.252203 L623.65371,141.256425 L623.671209,149.126383 L627.655376,149.122161 C629.822752,149.132349 631.567561,147.355793 631.574401,145.18446 Z M631.120384,135.029227 C631.043483,133.155895 629.555852,131.51285 627.844996,131.407385 L624.739666,131.283569 L625.022359,138.219614 L628.127688,138.34343 C629.856965,138.401737 631.210287,136.93828 631.120384,135.029227 Z" id="Combined-Shape-Copy-5" transform="translate(627.418819, 140.418127) rotate(-36.000000) translate(-627.418819, -140.418127) "></path>
                <path d="M431.75332,11.2465188 C416.607789,11.2548364 404.223596,23.5696967 404.243024,38.7479848 C404.262452,53.9262729 416.599459,66.2608792 431.74499,66.2525616 C446.89052,66.244244 459.274713,53.9293837 459.255285,38.7510956 C459.235858,23.5728075 446.89885,11.2382013 431.75332,11.2465188 Z M442.516409,47.1467263 C441.902281,48.033878 441.074974,48.7643991 440.137915,49.3006456 C439.213401,49.8713625 438.179135,50.2478047 437.025732,50.5114612 C436.229631,50.6841075 435.386509,50.8348313 434.505748,50.8821438 L434.522626,55.7556149 L431.714184,55.7628442 L431.697306,50.8893731 L428.841843,50.87468 L428.858721,55.7481511 L426.05028,55.7553804 L426.033402,50.8819093 L419.940081,50.8745926 L419.929954,47.9505099 L420.798169,47.868727 C421.111612,47.8717538 421.515936,47.8026659 422.083254,47.7523266 C422.801021,47.6862655 423.029803,47.5639586 423.111301,47.5733329 C423.387105,47.4729483 423.465439,47.3663631 423.465439,47.3663631 C423.509298,47.2723261 423.54061,47.1438185 423.534284,46.9118996 L423.524027,30.7933877 C423.517701,30.5614688 423.467516,30.423587 423.417331,30.2857051 C423.404785,30.2512347 423.298195,30.1729194 423.063086,30.0633075 C422.733934,29.9098508 422.360922,29.8504311 422.009841,29.743993 C421.555332,29.675199 421.194868,29.6502498 420.937829,29.5876564 L420.053905,29.5190094 L420.043778,26.5949268 L425.974104,26.5834949 L425.982318,21.7789648 L428.79076,21.7717355 L428.876589,26.6201104 L431.732052,26.6348035 L431.715174,21.7613324 L434.523615,21.7541031 L434.518564,26.6745927 C435.110975,26.6931944 435.694002,26.793285 436.230008,26.8714533 C437.198593,27.0654341 438.088843,27.366 438.982257,27.7825253 C439.841195,28.2115988 440.565394,28.806824 441.154854,29.5682009 C441.75686,30.3640484 442.073679,31.3417694 442.080217,32.432423 C442.071047,33.3726468 441.873789,34.225181 441.453969,35.0025737 C441.056078,35.7329479 440.4701,36.3756325 439.764986,36.9055315 C439.332513,37.2190864 438.818543,37.5232669 438.257551,37.8055251 C439.019282,38.0747943 439.712063,38.3691597 440.360984,38.7575621 C441.245015,39.2555765 441.994306,39.9197426 442.621405,40.7845309 C443.248504,41.6493193 443.568485,42.7429997 443.578187,43.9496129 C443.493845,45.1123812 443.186941,46.2000081 442.516409,47.1467263 Z M435.904737,43.5158738 C435.878058,41.3567402 434.135588,39.5938041 431.968213,39.5836166 L427.984046,39.5878388 L428.001545,47.4577971 L431.985712,47.4535749 C434.153088,47.4637624 435.897897,45.6872071 435.904737,43.5158738 Z M435.45072,33.3606404 C435.373819,31.4873082 433.886188,29.8442641 432.175332,29.7387989 L429.070002,29.614983 L429.352695,36.5510277 L432.458024,36.6748436 C434.187301,36.7331507 435.540623,35.269694 435.45072,33.3606404 Z" id="Combined-Shape-Copy-2" transform="translate(431.749155, 38.749540) rotate(-50.000000) translate(-431.749155, -38.749540) "></path>
                <path d="M36.0700012,108.561158 C20.9244706,108.569475 8.54027746,120.884335 8.55970534,136.062624 C8.57913321,151.240912 20.9161404,163.575518 36.0616711,163.5672 C51.2072017,163.558883 63.5913948,151.244022 63.5719669,136.065734 C63.5525391,120.887446 51.2155318,108.55284 36.0700012,108.561158 Z M46.8330903,144.461365 C46.2189629,145.348517 45.3916559,146.079038 44.4545961,146.615284 C43.5300825,147.186001 42.495816,147.562443 41.3424135,147.8261 C40.5463127,147.998746 39.7031902,148.14947 38.822429,148.196783 L38.839307,153.070254 L36.0308657,153.077483 L36.0139877,148.204012 L33.1585245,148.189319 L33.1754025,153.06279 L30.3669612,153.070019 L30.3500832,148.196548 L24.2567627,148.189231 L24.2466359,145.265149 L25.1148509,145.183366 C25.428294,145.186393 25.8326175,145.117305 26.3999356,145.066965 C27.1177021,145.000904 27.3464848,144.878597 27.4279821,144.887972 C27.7037865,144.787587 27.7821207,144.681002 27.7821207,144.681002 C27.8259794,144.586965 27.8572918,144.458457 27.8509656,144.226538 L27.8407083,128.108027 C27.8343821,127.876108 27.7841972,127.738226 27.7340123,127.600344 C27.7214661,127.565873 27.6148763,127.487558 27.3797674,127.377946 C27.050615,127.22449 26.677604,127.16507 26.3265222,127.058632 C25.8720139,126.989838 25.511549,126.964889 25.2545108,126.902295 L24.3705865,126.833648 L24.3604597,123.909566 L30.2907855,123.898134 L30.2989999,119.093604 L33.1074413,119.086374 L33.1932704,123.934749 L36.0487335,123.949442 L36.0318555,119.075971 L38.8402969,119.068742 L38.8352456,123.989231 C39.4276561,124.007833 40.0106836,124.107924 40.5466893,124.186092 C41.5152741,124.380073 42.4055246,124.680639 43.2989383,125.097164 C44.1578764,125.526238 44.8820754,126.121463 45.4715354,126.88284 C46.0735416,127.678687 46.3903602,128.656408 46.396899,129.747062 C46.3877283,130.687286 46.1904706,131.53982 45.7706503,132.317212 C45.3727593,133.047587 44.7867812,133.690271 44.0816671,134.22017 C43.6491943,134.533725 43.1352241,134.837906 42.5742322,135.120164 C43.3359637,135.389433 44.0287441,135.683798 44.6776658,136.072201 C45.5616963,136.570215 46.3109878,137.234381 46.9380864,138.09917 C47.565185,138.963958 47.8851668,140.057639 47.8948686,141.264252 C47.8105269,142.42702 47.5036226,143.514647 46.8330903,144.461365 Z M40.2214182,140.830513 C40.1947395,138.671379 38.4522698,136.908443 36.2848942,136.898255 L32.3007275,136.902478 L32.3182269,144.772436 L36.3023937,144.768214 C38.4697693,144.778401 40.2145782,143.001846 40.2214182,140.830513 Z M39.7674014,130.675279 C39.6905002,128.801947 38.2028694,127.158903 36.4920133,127.053438 L33.3866839,126.929622 L33.6693764,133.865666 L36.7747058,133.989482 C38.5039822,134.047789 39.8573042,132.584333 39.7674014,130.675279 Z" id="Combined-Shape-Copy-3" transform="translate(36.065836, 136.064179) rotate(-157.000000) translate(-36.065836, -136.064179) "></path>
                <path d="M136.992172,139.482642 C121.846642,139.490959 109.462449,151.80582 109.481876,166.984108 C109.501304,182.162396 121.838312,194.497002 136.983842,194.488684 C152.129373,194.480367 164.513566,182.165507 164.494138,166.987218 C164.47471,151.80893 152.137703,139.474324 136.992172,139.482642 Z M147.755261,175.382849 C147.141134,176.270001 146.313827,177.000522 145.376767,177.536768 C144.452254,178.107485 143.417987,178.483928 142.264585,178.747584 C141.468484,178.92023 140.625361,179.070954 139.7446,179.118267 L139.761478,183.991738 L136.953037,183.998967 L136.936159,179.125496 L134.080696,179.110803 L134.097574,183.984274 L131.289132,183.991503 L131.272254,179.118032 L125.178934,179.110715 L125.168807,176.186633 L126.037022,176.10485 C126.350465,176.107877 126.754789,176.038789 127.322107,175.988449 C128.039873,175.922388 128.268656,175.800081 128.350153,175.809456 C128.625958,175.709071 128.704292,175.602486 128.704292,175.602486 C128.748151,175.508449 128.779463,175.379941 128.773137,175.148022 L128.762879,159.029511 C128.756553,158.797592 128.706368,158.65971 128.656183,158.521828 C128.643637,158.487358 128.537047,158.409042 128.301939,158.29943 C127.972786,158.145974 127.599775,158.086554 127.248693,157.980116 C126.794185,157.911322 126.43372,157.886373 126.176682,157.823779 L125.292758,157.755132 L125.282631,154.83105 L131.212957,154.819618 L131.221171,150.015088 L134.029612,150.007858 L134.115442,154.856233 L136.970905,154.870926 L136.954027,149.997455 L139.762468,149.990226 L139.757417,154.910716 C140.349827,154.929317 140.932855,155.029408 141.46886,155.107576 C142.437445,155.301557 143.327696,155.602123 144.221109,156.018648 C145.080048,156.447722 145.804247,157.042947 146.393707,157.804324 C146.995713,158.600171 147.312531,159.577892 147.31907,160.668546 C147.309899,161.60877 147.112642,162.461304 146.692821,163.238697 C146.29493,163.969071 145.708952,164.611755 145.003838,165.141654 C144.571365,165.455209 144.057395,165.75939 143.496403,166.041648 C144.258135,166.310917 144.950915,166.605283 145.599837,166.993685 C146.483867,167.491699 147.233159,168.155865 147.860258,169.020654 C148.487356,169.885442 148.807338,170.979123 148.81704,172.185736 C148.732698,173.348504 148.425794,174.436131 147.755261,175.382849 Z M141.143589,171.751997 C141.116911,169.592863 139.374441,167.829927 137.207065,167.819739 L133.222899,167.823962 L133.240398,175.69392 L137.224565,175.689698 C139.39194,175.699885 141.136749,173.92333 141.143589,171.751997 Z M140.689573,161.596763 C140.612671,159.723431 139.125041,158.080387 137.414184,157.974922 L134.308855,157.851106 L134.591548,164.787151 L137.696877,164.910966 C139.426153,164.969274 140.779475,163.505817 140.689573,161.596763 Z" id="Combined-Shape-Copy-6" transform="translate(136.988007, 166.985663) rotate(-13.000000) translate(-136.988007, -166.985663) "></path>
                <path d="M292.611324,59.1046768 C277.465793,59.1129943 265.0816,71.4278547 265.101028,86.6061428 C265.120456,101.784431 277.457463,114.119037 292.602994,114.11072 C307.748525,114.102402 320.132718,101.787542 320.11329,86.6092535 C320.093862,71.4309654 307.756855,59.0963592 292.611324,59.1046768 Z M303.374413,95.0048843 C302.760286,95.8920359 301.932979,96.6225571 300.995919,97.1588035 C300.071405,97.7295204 299.037139,98.1059627 297.883736,98.3696192 C297.087636,98.5422654 296.244513,98.6929893 295.363752,98.7403017 L295.38063,103.613773 L292.572189,103.621002 L292.555311,98.747531 L289.699847,98.732838 L289.716725,103.606309 L286.908284,103.613538 L286.891406,98.7400673 L280.798086,98.7327505 L280.787959,95.8086679 L281.656174,95.7268849 C281.969617,95.7299117 282.37394,95.6608238 282.941258,95.6104846 C283.659025,95.5444235 283.887808,95.4221165 283.969305,95.4314908 C284.245109,95.3311062 284.323444,95.2245211 284.323444,95.2245211 C284.367302,95.130484 284.398615,95.0019765 284.392288,94.7700575 L284.382031,78.6515457 C284.375705,78.4196268 284.32552,78.2817449 284.275335,78.1438631 C284.262789,78.1093926 284.156199,78.0310774 283.92109,77.9214654 C283.591938,77.7680087 283.218927,77.7085891 282.867845,77.6021509 C282.413337,77.5333569 282.052872,77.5084078 281.795834,77.4458143 L280.911909,77.3771674 L280.901783,74.4530847 L286.832108,74.4416529 L286.840323,69.6371227 L289.648764,69.6298934 L289.734593,74.4782683 L292.590056,74.4929614 L292.573178,69.6194904 L295.38162,69.612261 L295.376568,74.5327506 C295.968979,74.5513523 296.552007,74.651443 297.088012,74.7296112 C298.056597,74.923592 298.946848,75.2241579 299.840261,75.6406833 C300.699199,76.0697567 301.423398,76.6649819 302.012858,77.4263589 C302.614864,78.2222063 302.931683,79.1999273 302.938222,80.290581 C302.929051,81.2308047 302.731794,82.0833389 302.311973,82.8607317 C301.914082,83.5911058 301.328104,84.2337905 300.62299,84.7636894 C300.190517,85.0772443 299.676547,85.3814249 299.115555,85.663683 C299.877287,85.9329523 300.570067,86.2273176 301.218989,86.61572 C302.103019,87.1137344 302.852311,87.7779005 303.479409,88.6426889 C304.106508,89.5074772 304.42649,90.6011577 304.436192,91.8077708 C304.35185,92.9705392 304.044945,94.0581661 303.374413,95.0048843 Z M296.762741,91.3740317 C296.736062,89.2148981 294.993593,87.451962 292.826217,87.4417745 L288.84205,87.4459968 L288.85955,95.315955 L292.843717,95.3117328 C295.011092,95.3219203 296.755901,93.5453651 296.762741,91.3740317 Z M296.308724,81.2187983 C296.231823,79.3454662 294.744192,77.702422 293.033336,77.5969569 L289.928007,77.473141 L290.210699,84.4091857 L293.316029,84.5330016 C295.045305,84.5913086 296.398627,83.1278519 296.308724,81.2187983 Z" id="Combined-Shape-Copy-4" transform="translate(292.607159, 86.607698) rotate(-232.000000) translate(-292.607159, -86.607698) "></path>
            </g>
            <rect id="Rectangle-4-Copy" fill="#E5A1EE" x="1003.71847" y="448.439172" width="158.281525" height="177"></rect>
            <path d="M1044.3125,774.5 L1942.48438,774.5" id="Path-7" stroke="#6F6F6F" stroke-width="5"></path>
            <g id="noun_563989" transform="translate(1975.557028, 719.909247) rotate(-27.000000) translate(-1975.557028, -719.909247) translate(1761.057028, 522.909247)" fill-rule="nonzero" fill="#FDA066">
                <path d="M428.259601,6.13943955 L243.837899,77.5104243 L155.871062,0 L138.123367,75.9755644 L6.94475028,49.1155164 L92.5966704,183.415757 L0,217.182674 L87.9668369,259.391321 L78.7071699,393.691561 L195.996286,290.855949 L288.592956,373.738383 L322.545069,250.949592 L403.567155,260.158751 L355.725542,138.13739 L428.259601,6.13943955 Z" id="Shape"></path>
                <polygon id="Shape" points="34.5680395 273.042325 37.128635 280.385209 51.8520593 270.782976"></polygon>
                <polygon id="Shape" points="111.769994 18.0747919 103.704119 17.2840198 117.147245 44.1702727"></polygon>
                <polygon id="Shape" points="13.2030706 119.067692 9.6022332 125.789255 19.2044664 128.669925"></polygon>
                <polygon id="Shape" points="57.6133992 174.760644 45.5853387 165.158411 44.1702727 173.480346"></polygon>
            </g>
            <g id="noun_1102789" transform="translate(991.000000, 447.000000)" fill-rule="nonzero" fill="#FFFFFF">
                <path d="M0,0 L0,338 L175,338 L175,0 L0,0 Z M87.5,255.64467 C79.7794118,255.64467 73.7745098,249.639594 73.7745098,241.918782 C73.7745098,234.19797 79.7794118,228.192893 87.5,228.192893 C95.2205882,228.192893 101.22549,234.19797 101.22549,241.918782 C101.22549,249.639594 95.2205882,255.64467 87.5,255.64467 Z M160.416667,114.096447 L14.5833333,114.096447 L14.5833333,94.3654822 L160.416667,94.3654822 L160.416667,114.096447 Z M160.416667,74.2055838 L14.5833333,74.2055838 L14.5833333,54.4746193 L160.416667,54.4746193 L160.416667,74.2055838 Z M160.416667,34.3147208 L14.5833333,34.3147208 L14.5833333,14.5837563 L160.416667,14.5837563 L160.416667,34.3147208 Z" id="Shape"></path>
            </g>
            <g id="Screen" transform="translate(576.000000, 515.000000)">
                <rect id="Rectangle-4" fill="#4ABAEB" x="12" y="10" width="315" height="177"></rect>
                <g id="noun_1148993" fill="#6F6F6F">
                    <path d="M0,0 L339,0 L339,215.445169 L200.319942,215.445169 L200.319942,239.573455 L138.680058,239.573455 L138.680058,215.445169 L0,215.445169 L0,0 Z M16.4551252,17.8297042 L16.4551252,178.927405 L322.544875,178.927405 L322.544875,17.8297042 L16.4551252,17.8297042 Z M169.498386,192.146014 C165.241656,192.146014 161.793928,195.589288 161.793928,199.840495 C161.793928,204.091713 165.241667,207.534976 169.498386,207.534976 C173.755116,207.534976 177.202845,204.091702 177.202845,199.840495 C177.202845,195.589277 173.755106,192.146014 169.498386,192.146014 Z M96.8372095,244.121481 L242.15838,244.121481 L242.15838,270 L197.143061,270 L96.8372095,270 L96.8372095,244.121481 Z" id="Combined-Shape"></path>
                </g>
            </g>
        </g>
    </g>
</svg>