<?xml version="1.0" encoding="UTF-8"?>
<svg width="1920px" height="1080px" viewBox="0 0 1920 1080" version="1.1" xmlns="http://www.w3.org/2000/svg" xmlns:xlink="http://www.w3.org/1999/xlink">
    <!-- Generator: Sketch 46.2 (44496) - http://www.bohemiancoding.com/sketch -->
    <title>bitcoinMining</title>
    <desc>Created with Sketch.</desc>
    <defs></defs>
    <g id="Actual-Slides" stroke="none" stroke-width="1" fill="none" fill-rule="evenodd">
        <g id="bitcoinMining">
            <rect id="Rectangle-4-Copy" fill="#E5A1EE" x="881.718475" y="448.439172" width="158.281525" height="177"></rect>
            <g id="Group-2" transform="translate(928.000000, 164.000000)" fill-rule="nonzero" fill="#E1B73F">
                <path d="M43.9105012,143.657038 C29.675513,138.484778 13.8262479,145.821318 8.65322383,160.090888 C3.48019978,174.360458 10.8545107,190.170701 25.0894988,195.342962 C39.324487,200.515222 55.1737521,193.178682 60.3467762,178.909112 C65.5198002,164.639542 58.1454893,148.829299 43.9105012,143.657038 Z M41.7459025,181.073392 C40.8653877,181.696998 39.8381206,182.100507 38.7741653,182.283921 C37.71021,182.504017 36.6095665,182.504017 35.4355469,182.357286 C34.6284084,182.247238 33.7845818,182.100507 32.9407552,181.843728 L31.28979,186.429066 L28.6482458,185.475316 L30.299211,180.889978 L27.6209787,179.899545 L25.9700135,184.484883 L23.3284693,183.531133 L24.9794345,178.945795 L19.2560887,176.854881 L20.2466678,174.103679 L21.0904944,174.323775 C21.3839993,174.433823 21.7875686,174.507188 22.3378903,174.653919 C23.0349644,174.837333 23.2917812,174.80065 23.3651575,174.837333 C23.6586624,174.837333 23.7687267,174.763967 23.7687267,174.763967 C23.8421029,174.690602 23.9154792,174.580554 23.9888554,174.360458 L29.4920725,159.210503 C29.5654487,158.990407 29.5654487,158.843676 29.5654487,158.696945 C29.5654487,158.660262 29.4920725,158.550214 29.3086319,158.366801 C29.0518151,158.110022 28.7216221,157.926608 28.4281172,157.706512 C28.0245479,157.486416 27.6943549,157.339685 27.4742262,157.192954 L26.6670877,156.826127 L27.6576668,154.074925 L33.2342601,156.092473 L34.8852252,151.580501 L37.5267694,152.534252 L35.9491805,157.119589 L38.6274128,158.110022 L40.2783779,153.524684 L42.9199221,154.478435 L41.2322689,159.100455 C41.7825906,159.320551 42.2962242,159.614013 42.7731697,159.870791 C43.6169963,160.384349 44.3507586,160.971272 45.0478327,161.668244 C45.7082188,162.365215 46.1851642,163.172234 46.4786692,164.089302 C46.7721741,165.043052 46.735486,166.070168 46.3686048,167.097283 C46.0384118,167.977668 45.5614663,168.711322 44.9010803,169.298245 C44.2773823,169.848486 43.5069319,170.251995 42.6631053,170.508774 C42.1494717,170.655505 41.5624619,170.765553 40.938764,170.838919 C41.5624619,171.352476 42.1127836,171.866034 42.5897291,172.452957 C43.2501151,173.223294 43.7270606,174.103679 44.0205655,175.130794 C44.3140704,176.15791 44.2406942,177.295074 43.837125,178.432237 C43.3601795,179.496036 42.6997934,180.413103 41.7459025,181.073392 Z" id="Shape"></path>
                <path d="M36.7747877,175.400181 C36.0257204,177.438228 33.7785187,178.510884 31.7453362,177.760025 L28,176.401327 L30.6752401,169 L34.4205764,170.358698 C36.4537589,171.109557 37.4881851,173.362135 36.7747877,175.400181 Z" id="Shape"></path>
                <path d="M39.8214459,165.7021 C39.2529921,167.526773 37.4807537,168.439109 35.8757076,167.792871 L33,166.614437 L35.106623,160 L37.9823306,161.178434 C39.5539382,161.862686 40.3898997,163.915442 39.8214459,165.7021 Z" id="Shape"></path>
                <path d="M43.4252251,76.1717622 C29.190237,70.9995016 13.3409718,78.3360415 8.16794775,92.6056115 C2.99492371,106.875182 10.3692346,122.685425 24.6042227,127.857686 C38.8392109,133.029946 54.688476,125.693406 59.8615001,111.423836 C65.0345241,97.1542663 57.6602133,81.3440228 43.4252251,76.1717622 Z M41.2606264,113.588116 C40.3801117,114.211721 39.3528445,114.615231 38.2888892,114.798645 C37.2249339,115.018741 36.1242905,115.018741 34.9502708,114.87201 C34.1431323,114.761962 33.2993057,114.615231 32.4554791,114.358452 L30.804514,118.94379 L28.1629698,117.990039 L29.8139349,113.404702 L27.1357026,112.414269 L25.4847375,116.999607 L22.8431933,116.045856 L24.4941584,111.460519 L18.7708126,109.369605 L19.7613917,106.618403 L20.6052183,106.838499 C20.8987232,106.948547 21.3022925,107.021912 21.8526142,107.168643 C22.5496884,107.352057 22.8065052,107.315374 22.8798814,107.352057 C23.1733863,107.352057 23.2834506,107.278691 23.2834506,107.278691 C23.3568269,107.205326 23.4302031,107.095278 23.5035793,106.875182 L29.0067964,91.7252268 C29.0801726,91.5051306 29.0801726,91.3583998 29.0801726,91.211669 C29.0801726,91.1749863 29.0067964,91.0649382 28.8233558,90.8815247 C28.566539,90.6247458 28.236346,90.4413323 27.9428411,90.2212361 C27.5392718,90.0011399 27.2090788,89.8544091 26.9889501,89.7076783 L26.1818116,89.3408513 L27.1723907,86.5896488 L32.748984,88.6071973 L34.3999491,84.0952253 L37.0414933,85.0489755 L35.4639044,89.6343129 L38.1421367,90.6247458 L39.7931018,86.0394083 L42.434646,86.9931585 L40.7469928,91.6151787 C41.2973145,91.8352748 41.8109481,92.1287364 42.2878936,92.3855153 C43.1317202,92.8990731 43.8654825,93.4859963 44.5625566,94.1829676 C45.2229427,94.8799389 45.6998882,95.6869583 45.9933931,96.6040258 C46.286898,97.5577759 46.2502099,98.5848915 45.8833287,99.6120071 C45.5531357,100.492392 45.0761902,101.226046 44.4158042,101.812969 C43.7921063,102.36321 43.0216559,102.766719 42.1778292,103.023498 C41.6641957,103.170229 41.0771858,103.280277 40.4534879,103.353642 C41.0771858,103.8672 41.6275075,104.380758 42.104453,104.967681 C42.7648391,105.738018 43.2417845,106.618403 43.5352895,107.645518 C43.8287944,108.672634 43.7554181,109.809798 43.3518489,110.946961 C42.8749034,112.01076 42.2145174,112.927827 41.2606264,113.588116 Z" id="Shape" transform="translate(34.014724, 102.014724) rotate(106.000000) translate(-34.014724, -102.014724) "></path>
                <path d="M34.9957395,100.889832 C34.2466723,102.927879 31.9994706,104.000535 29.9662881,103.249676 L26.2209519,101.890978 L28.896192,94.4896511 L32.6415282,95.8483488 C34.6747107,96.599208 35.7091369,98.8517858 34.9957395,100.889832 Z" id="Shape" transform="translate(30.720952, 98.989651) rotate(106.000000) translate(-30.720952, -98.989651) "></path>
                <path d="M42.0718344,107.155353 C41.5033806,108.980025 39.7311422,109.892361 38.1260961,109.246123 L35.2503885,108.067689 L37.3570115,101.453253 L40.2327191,102.631687 C41.8043267,103.315939 42.6402883,105.368695 42.0718344,107.155353 Z" id="Shape" transform="translate(38.750389, 105.453253) rotate(106.000000) translate(-38.750389, -105.453253) "></path>
                <path d="M116.425225,8.17176222 C102.190237,2.99950161 86.3409718,10.3360415 81.1679478,24.6056115 C75.9949237,38.8751816 83.3692346,54.685425 97.6042227,59.8576856 C111.839211,65.0299462 127.688476,57.6934064 132.8615,43.4238363 C138.034524,29.1542663 130.660213,13.3440228 116.425225,8.17176222 Z M114.260626,45.5881156 C113.380112,46.2117215 112.352844,46.6152312 111.288889,46.7986447 C110.224934,47.0187408 109.12429,47.0187408 107.950271,46.8720101 C107.143132,46.761962 106.299306,46.6152312 105.455479,46.3584523 L103.804514,50.9437897 L101.16297,49.9900395 L102.813935,45.4047021 L100.135703,44.4142692 L98.4847375,48.9996066 L95.8431933,48.0458564 L97.4941584,43.460519 L91.7708126,41.3696051 L92.7613917,38.6184027 L93.6052183,38.8384989 C93.8987232,38.948547 94.3022925,39.0219124 94.8526142,39.1686432 C95.5496884,39.3520567 95.8065052,39.315374 95.8798814,39.3520567 C96.1733863,39.3520567 96.2834506,39.2786913 96.2834506,39.2786913 C96.3568269,39.2053259 96.4302031,39.0952778 96.5035793,38.8751816 L102.006796,23.7252268 C102.080173,23.5051306 102.080173,23.3583998 102.080173,23.211669 C102.080173,23.1749863 102.006796,23.0649382 101.823356,22.8815247 C101.566539,22.6247458 101.236346,22.4413323 100.942841,22.2212361 C100.539272,22.0011399 100.209079,21.8544091 99.9889501,21.7076783 L99.1818116,21.3408513 L100.172391,18.5896488 L105.748984,20.6071973 L107.399949,16.0952253 L110.041493,17.0489755 L108.463904,21.6343129 L111.142137,22.6247458 L112.793102,18.0394083 L115.434646,18.9931585 L113.746993,23.6151787 C114.297315,23.8352748 114.810948,24.1287364 115.287894,24.3855153 C116.13172,24.8990731 116.865482,25.4859963 117.562557,26.1829676 C118.222943,26.8799389 118.699888,27.6869583 118.993393,28.6040258 C119.286898,29.5577759 119.25021,30.5848915 118.883329,31.6120071 C118.553136,32.4923919 118.07619,33.2260459 117.415804,33.8129691 C116.792106,34.3632096 116.021656,34.7667193 115.177829,35.0234982 C114.664196,35.170229 114.077186,35.2802771 113.453488,35.3536425 C114.077186,35.8672002 114.627508,36.380758 115.104453,36.9676812 C115.764839,37.7380179 116.241785,38.6184027 116.535289,39.6455183 C116.828794,40.6726339 116.755418,41.8097975 116.351849,42.9469612 C115.874903,44.0107595 115.214517,44.927827 114.260626,45.5881156 Z" id="Shape" transform="translate(107.014724, 34.014724) rotate(-74.000000) translate(-107.014724, -34.014724) "></path>
                <path d="M114.583284,38.939978 C113.834216,40.9780245 111.587015,42.0506806 109.553832,41.2998213 L105.808496,39.9411236 L108.483736,32.5397967 L112.229072,33.8984944 C114.262255,34.6493537 115.296681,36.9019314 114.583284,38.939978 Z" id="Shape" transform="translate(110.308496, 37.039797) rotate(-74.000000) translate(-110.308496, -37.039797) "></path>
                <path d="M105.600505,32.2782955 C105.032051,34.1029677 103.259813,35.0153038 101.654767,34.3690657 L98.7790593,33.1906316 L100.885682,26.5761951 L103.76139,27.7546292 C105.332998,28.4388812 106.168959,30.4916374 105.600505,32.2782955 Z" id="Shape" transform="translate(102.279059, 30.576195) rotate(-74.000000) translate(-102.279059, -30.576195) "></path>
                <path d="M82.2776829,221.02422 C68.0426947,215.851959 52.1934296,223.188499 47.0204055,237.458069 C41.8473815,251.727639 49.2216924,267.537883 63.4566805,272.710143 C77.6916687,277.882404 93.5409338,270.545864 98.7139579,256.276294 C103.886982,242.006724 96.512671,226.196481 82.2776829,221.02422 Z M80.1130842,258.440573 C79.2325694,259.064179 78.2053023,259.467689 77.141347,259.651102 C76.0773917,259.871199 74.9767482,259.871199 73.8027286,259.724468 C72.9955901,259.61442 72.1517635,259.467689 71.3079369,259.21091 L69.6569717,263.796247 L67.0154275,262.842497 L68.6663927,258.25716 L65.9881604,257.266727 L64.3371952,261.852064 L61.695651,260.898314 L63.3466162,256.312977 L57.6232704,254.222063 L58.6138495,251.47086 L59.4576761,251.690957 C59.751181,251.801005 60.1547503,251.87437 60.705072,252.021101 C61.4021461,252.204514 61.6589629,252.167832 61.7323392,252.204514 C62.0258441,252.204514 62.1359084,252.131149 62.1359084,252.131149 C62.2092846,252.057784 62.2826609,251.947736 62.3560371,251.727639 L67.8592542,236.577685 C67.9326304,236.357588 67.9326304,236.210858 67.9326304,236.064127 C67.9326304,236.027444 67.8592542,235.917396 67.6758136,235.733982 C67.4189968,235.477204 67.0888038,235.29379 66.7952989,235.073694 C66.3917296,234.853598 66.0615366,234.706867 65.8414079,234.560136 L65.0342694,234.193309 L66.0248485,231.442107 L71.6014418,233.459655 L73.2524069,228.947683 L75.8939511,229.901433 L74.3163622,234.486771 L76.9945945,235.477204 L78.6455596,230.891866 L81.2871038,231.845616 L79.5994506,236.467636 C80.1497723,236.687733 80.6634059,236.981194 81.1403514,237.237973 C81.984178,237.751531 82.7179403,238.338454 83.4150144,239.035425 C84.0754005,239.732397 84.5523459,240.539416 84.8458509,241.456484 C85.1393558,242.410234 85.1026676,243.437349 84.7357865,244.464465 C84.4055935,245.34485 83.928648,246.078504 83.268262,246.665427 C82.644564,247.215667 81.8741136,247.619177 81.030287,247.875956 C80.5166534,248.022687 79.9296436,248.132735 79.3059457,248.2061 C79.9296436,248.719658 80.4799653,249.233216 80.9569108,249.820139 C81.6172968,250.590476 82.0942423,251.47086 82.3877472,252.497976 C82.6812521,253.525092 82.6078759,254.662255 82.2043067,255.799419 C81.7273612,256.863217 81.0669751,257.780285 80.1130842,258.440573 Z" id="Shape" transform="translate(72.867182, 246.867182) rotate(-43.000000) translate(-72.867182, -246.867182) "></path>
                <path d="M78.4072554,253.056774 C77.6581882,255.094821 75.4109865,256.167477 73.3778039,255.416618 L69.6324677,254.05792 L72.3077079,246.656593 L76.0530441,248.015291 C78.0862266,248.76615 79.1206528,251.018728 78.4072554,253.056774 Z" id="Shape" transform="translate(74.132468, 251.156593) rotate(-43.000000) translate(-74.132468, -251.156593) "></path>
                <path d="M73.900344,243.18284 C73.3318902,245.007512 71.5596518,245.919848 69.9546057,245.27361 L67.0788981,244.095176 L69.1855211,237.48074 L72.0612287,238.659174 C73.6328363,239.343426 74.4687978,241.396182 73.900344,243.18284 Z" id="Shape" transform="translate(70.578898, 241.480740) rotate(-43.000000) translate(-70.578898, -241.480740) "></path>
                <path d="M196.397919,145.144456 C182.162931,139.972196 166.313666,147.308736 161.140642,161.578306 C155.967618,175.847876 163.341929,191.658119 177.576917,196.83038 C191.811905,202.00264 207.66117,194.666101 212.834194,180.396531 C218.007218,166.12696 210.632908,150.316717 196.397919,145.144456 Z M194.233321,182.56081 C193.352806,183.184416 192.325539,183.587925 191.261583,183.771339 C190.197628,183.991435 189.096985,183.991435 187.922965,183.844704 C187.115827,183.734656 186.272,183.587925 185.428173,183.331146 L183.777208,187.916484 L181.135664,186.962734 L182.786629,182.377396 L180.108397,181.386963 L178.457432,185.972301 L175.815888,185.018551 L177.466853,180.433213 L171.743507,178.342299 L172.734086,175.591097 L173.577913,175.811193 C173.871417,175.921241 174.274987,175.994607 174.825308,176.141337 C175.522383,176.324751 175.779199,176.288068 175.852576,176.324751 C176.146081,176.324751 176.256145,176.251386 176.256145,176.251386 C176.329521,176.17802 176.402897,176.067972 176.476274,175.847876 L181.979491,160.697921 C182.052867,160.477825 182.052867,160.331094 182.052867,160.184363 C182.052867,160.14768 181.979491,160.037632 181.79605,159.854219 C181.539233,159.59744 181.20904,159.414027 180.915535,159.19393 C180.511966,158.973834 180.181773,158.827103 179.961644,158.680373 L179.154506,158.313546 L180.145085,155.562343 L185.721678,157.579892 L187.372643,153.06792 L190.014188,154.02167 L188.436599,158.607007 L191.114831,159.59744 L192.765796,155.012103 L195.40734,155.965853 L193.719687,160.587873 C194.270009,160.807969 194.783642,161.101431 195.260588,161.35821 C196.104414,161.871767 196.838177,162.458691 197.535251,163.155662 C198.195637,163.852633 198.672582,164.659653 198.966087,165.57672 C199.259592,166.53047 199.222904,167.557586 198.856023,168.584701 C198.52583,169.465086 198.048884,170.19874 197.388498,170.785663 C196.7648,171.335904 195.99435,171.739413 195.150523,171.996192 C194.63689,172.142923 194.04988,172.252971 193.426182,172.326337 C194.04988,172.839894 194.600202,173.353452 195.077147,173.940375 C195.737533,174.710712 196.214479,175.591097 196.507984,176.618213 C196.801489,177.645328 196.728112,178.782492 196.324543,179.919655 C195.847598,180.983454 195.187212,181.900521 194.233321,182.56081 Z" id="Shape" transform="translate(186.987418, 170.987418) rotate(-27.000000) translate(-186.987418, -170.987418) "></path>
                <path d="M191.296155,177.359606 C190.547088,179.397653 188.299886,180.470309 186.266703,179.71945 L182.521367,178.360752 L185.196607,170.959425 L188.941943,172.318123 C190.975126,173.068982 192.009552,175.32156 191.296155,177.359606 Z" id="Shape" transform="translate(187.021367, 175.459425) rotate(-27.000000) translate(-187.021367, -175.459425) "></path>
                <path d="M189.593929,166.881002 C189.025476,168.705674 187.253237,169.61801 185.648191,168.971772 L182.772483,167.793338 L184.879106,161.178901 L187.754814,162.357335 C189.326422,163.041587 190.162383,165.094344 189.593929,166.881002 Z" id="Shape" transform="translate(186.272483, 165.178901) rotate(-27.000000) translate(-186.272483, -165.178901) "></path>
                <path d="M125.657602,108.404139 C111.422614,103.231879 95.5733489,110.568419 90.4003248,124.837989 C85.2273008,139.107559 92.6016117,154.917802 106.8366,160.090063 C121.071588,165.262323 136.920853,157.925783 142.093877,143.656213 C147.266901,129.386643 139.89259,113.5764 125.657602,108.404139 Z M123.493003,145.820493 C122.612489,146.444099 121.585222,146.847608 120.521266,147.031022 C119.457311,147.251118 118.356668,147.251118 117.182648,147.104387 C116.375509,146.994339 115.531683,146.847608 114.687856,146.590829 L113.036891,151.176167 L110.395347,150.222417 L112.046312,145.637079 L109.36808,144.646646 L107.717115,149.231984 L105.07557,148.278234 L106.726535,143.692896 L101.00319,141.601982 L101.993769,138.85078 L102.837595,139.070876 C103.1311,139.180924 103.53467,139.254289 104.084991,139.40102 C104.782065,139.584434 105.038882,139.547751 105.112258,139.584434 C105.405763,139.584434 105.515828,139.511068 105.515828,139.511068 C105.589204,139.437703 105.66258,139.327655 105.735956,139.107559 L111.239173,123.957604 C111.31255,123.737508 111.31255,123.590777 111.31255,123.444046 C111.31255,123.407363 111.239173,123.297315 111.055733,123.113902 C110.798916,122.857123 110.468723,122.673709 110.175218,122.453613 C109.771649,122.233517 109.441456,122.086786 109.221327,121.940055 L108.414189,121.573228 L109.404768,118.822026 L114.981361,120.839574 L116.632326,116.327602 L119.27387,117.281353 L117.696282,121.86669 L120.374514,122.857123 L122.025479,118.271785 L124.667023,119.225536 L122.97937,123.847556 C123.529692,124.067652 124.043325,124.361114 124.520271,124.617892 C125.364097,125.13145 126.09786,125.718373 126.794934,126.415345 C127.45532,127.112316 127.932265,127.919335 128.22577,128.836403 C128.519275,129.790153 128.482587,130.817269 128.115706,131.844384 C127.785513,132.724769 127.308567,133.458423 126.648181,134.045346 C126.024483,134.595587 125.254033,134.999096 124.410206,135.255875 C123.896573,135.402606 123.309563,135.512654 122.685865,135.58602 C123.309563,136.099577 123.859885,136.613135 124.33683,137.200058 C124.997216,137.970395 125.474162,138.85078 125.767667,139.877895 C126.061171,140.905011 125.987795,142.042175 125.584226,143.179338 C125.10728,144.243137 124.446894,145.160204 123.493003,145.820493 Z" id="Shape" transform="translate(116.247101, 134.247101) rotate(-20.000000) translate(-116.247101, -134.247101) "></path>
                <path d="M120.010584,140.590093 C119.261517,142.62814 117.014315,143.700796 114.981133,142.949936 L111.235796,141.591239 L113.911036,134.189912 L117.656373,135.548609 C119.689555,136.299469 120.723981,138.552046 120.010584,140.590093 Z" id="Shape" transform="translate(115.735796, 138.689912) rotate(-20.000000) translate(-115.735796, -138.689912) "></path>
                <path d="M119.566821,130.096852 C118.998368,131.921524 117.226129,132.83386 115.621083,132.187622 L112.745375,131.009188 L114.851998,124.394751 L117.727706,125.573185 C119.299314,126.257437 120.135275,128.310194 119.566821,130.096852 Z" id="Shape" transform="translate(116.245375, 128.394751) rotate(-20.000000) translate(-116.245375, -128.394751) "></path>
            </g>
            <g id="noun_1102789" transform="translate(869.000000, 447.000000)" fill-rule="nonzero" fill="#FFFFFF">
                <path d="M0,0 L0,338 L175,338 L175,0 L0,0 Z M87.5,255.64467 C79.7794118,255.64467 73.7745098,249.639594 73.7745098,241.918782 C73.7745098,234.19797 79.7794118,228.192893 87.5,228.192893 C95.2205882,228.192893 101.22549,234.19797 101.22549,241.918782 C101.22549,249.639594 95.2205882,255.64467 87.5,255.64467 Z M160.416667,114.096447 L14.5833333,114.096447 L14.5833333,94.3654822 L160.416667,94.3654822 L160.416667,114.096447 Z M160.416667,74.2055838 L14.5833333,74.2055838 L14.5833333,54.4746193 L160.416667,54.4746193 L160.416667,74.2055838 Z M160.416667,34.3147208 L14.5833333,34.3147208 L14.5833333,14.5837563 L160.416667,14.5837563 L160.416667,34.3147208 Z" id="Shape"></path>
            </g>
            <path d="M1044.3125,774.5 L1942.48438,774.5" id="Path-7" stroke="#6F6F6F" stroke-width="5"></path>
            <g id="noun_834876" transform="translate(901.553439, 394.924687) rotate(-16.000000) translate(-901.553439, -394.924687) translate(863.553439, 354.924687)" fill-rule="nonzero" fill="#FDA066">
                <g id="Group" transform="translate(38.000000, 40.302796) scale(-1, 1) rotate(-180.000000) translate(-38.000000, -40.302796) translate(0.000000, 0.802796)">
                    <path d="M65.5425711,77.9777799 C65.0900805,77.5515215 63.9245746,76.4514999 62.9373224,75.5439821 C61.9637822,74.6364643 60.565175,73.3301887 59.8521596,72.6426752 C59.1391442,71.9551617 58.0833329,70.9788926 57.5211476,70.4563823 C56.9589624,69.9338721 55.8757274,68.9163521 55.1215765,68.2013381 C54.3674256,67.4725738 52.7631409,65.9462938 51.5564994,64.8187717 C50.349858,63.6912496 48.7729969,62.2062205 48.0599815,61.518707 C46.6339507,60.14368 44.700582,58.3011438 43.946431,57.5998801 C43.6859062,57.3523752 42.205028,55.9360974 40.6555906,54.4510683 C39.1198651,52.9660392 37.1453609,51.0822522 36.2815153,50.2434858 C35.4039579,49.4184696 33.648843,47.7134361 32.3736423,46.4621616 C31.0847298,45.210887 29.0416664,43.2308482 27.835025,42.0620752 C25.010387,39.3257716 12.7794302,27.0605309 10.9009088,25.0804921 C10.1056224,24.2417256 8.94011639,23.0042013 8.29566015,22.3304381 C6.96561216,20.9416609 4.81285407,18.5491139 3.94900847,17.5178437 C2.76979066,16.1153162 1.27520065,14.2177789 1.19292964,14.0115249 C1.15179414,13.9015227 0.987252117,13.5852665 0.822710097,13.3240114 C0.164542019,12.2239898 0,11.4402245 0,9.47393587 C0,7.39764514 0.178253854,6.71013165 1.00096395,5.34885494 C2.48184213,2.94255773 5.9235127,0.715014028 8.77557437,0.316256205 C9.15950575,0.275005395 9.52972529,0.165003237 9.62570814,0.0962518884 C9.85880933,-0.0962518884 13.1359379,0.0550010791 14.3974267,0.316256205 C15.0007474,0.440008633 16.2073889,0.60501187 17.0712345,0.673763219 C17.9350801,0.742514568 18.8674849,0.852516726 19.1280098,0.893767535 C19.3885346,0.935018345 20.3209394,1.03127023 21.184785,1.08627131 C22.0486306,1.15502266 23.6940508,1.30627563 24.8184213,1.41627779 C25.9565036,1.54003021 27.5196528,1.70503345 28.3149392,1.7737848 C29.1102256,1.85628642 30.6185275,2.00753939 31.6743387,2.11754155 C32.73015,2.24129397 34.2110282,2.37879667 34.9651791,2.44754802 C35.7193301,2.51629937 36.4871928,2.59880099 36.6791585,2.65380207 C36.9945307,2.72255342 38.5302562,2.88755665 41.2726232,3.14881178 C41.875944,3.21756313 43.2608393,3.36881609 44.3577861,3.49256852 C45.4547329,3.61632095 46.9081874,3.76757392 47.5800673,3.83632527 C49.1706402,3.98757823 51.1862799,4.22133282 52.255803,4.38633606 C52.7220054,4.46883768 53.4350208,4.52383876 53.832664,4.52383876 C54.2440191,4.52383876 54.8199162,4.5925901 55.1215765,4.66134145 C55.6563381,4.78509388 57.740537,5.0050982 60.1263963,5.21135224 C60.7708525,5.26635332 61.9363585,5.37635548 62.7316449,5.47260737 C63.5269314,5.55510899 64.7609965,5.69261169 65.4740119,5.7751133 C67.2565505,5.96761708 67.3525333,6.03636843 66.1596037,6.27012302 C65.5974184,6.36637491 64.8295557,6.51762787 64.4456243,6.60012949 C64.0754048,6.66888084 63.4857958,6.79263327 63.143,6.84763435 C62.8002041,6.90263543 62.2517307,7.02638785 61.9089348,7.10888947 C61.566139,7.19139109 60.9216827,7.31514352 60.4691922,7.41139541 C60.0167016,7.49389703 59.2488388,7.64514999 58.7552128,7.75515215 C58.2615867,7.85140404 57.493724,8.00265701 57.0412334,8.0989089 C56.5887429,8.18141052 55.8208801,8.33266348 55.327254,8.44266564 C54.833628,8.5526678 54.2577309,8.66266996 54.0246297,8.70392077 C53.8052404,8.73142131 53.1196486,8.868924 52.5163279,8.99267643 C51.9130071,9.11642886 51.1451444,9.26768183 50.8023485,9.33643318 C50.4595526,9.39143426 49.6916899,9.54268722 49.0883691,9.68018992 C48.4850484,9.80394235 47.689762,9.96894559 47.3058306,10.0376969 C46.9356111,10.1064483 46.1266128,10.2577013 45.5232921,10.3677034 C44.9199713,10.4914558 44.0835494,10.6427088 43.6721943,10.7114602 C41.8073848,11.0414666 40.9161155,11.2339704 40.8475563,11.3027218 C40.6830143,11.467725 40.9298273,11.8114817 41.204064,11.8114817 C41.3548942,11.8114817 41.5879954,11.8664828 41.7251138,11.9489844 C41.9993505,12.1002374 43.0140263,12.5127455 44.4263453,13.049006 C44.5771754,13.1040071 44.9748187,13.2552601 45.3176145,13.3927628 C45.6604104,13.5302655 46.0580536,13.6815184 46.2088838,13.7365195 C46.359714,13.7915206 46.6339507,13.9015227 46.8259164,13.9840244 C47.0178821,14.066526 47.6623383,14.3277811 48.265659,14.5615357 C48.8689798,14.8090405 49.4860124,15.0427951 49.6368425,15.1115465 C49.7876727,15.1665476 50.1853159,15.3178005 50.5281118,15.4553032 C51.5153639,15.8403108 51.8033125,15.9503129 52.2420912,16.1428167 C52.4751924,16.2390686 53.2704788,16.5553248 54.0246297,16.8303302 C54.7787807,17.1190859 55.6014907,17.4353421 55.8483038,17.531594 C56.8081322,17.9441021 57.1920636,18.1091053 57.658266,18.2741085 C57.9187909,18.3566101 58.2615867,18.4941128 58.4124169,18.5628642 C58.5632471,18.6178653 59.1802797,18.8653701 59.7836004,19.0991247 C60.3869211,19.3328793 61.0039537,19.5666339 61.1547839,19.6353852 C61.3056141,19.7041366 61.7032573,19.8553896 62.0460532,19.9928923 C62.9098988,20.336649 63.0470171,20.3778998 64.6513018,21.0241625 C66.1596037,21.6291744 66.2692983,21.6704252 67.2565505,22.0554327 C67.5993463,22.1929354 68.0655487,22.3716889 68.2849381,22.4679408 C68.5180393,22.5641927 68.9156825,22.7154457 69.1762074,22.8116976 C69.4367322,22.8941992 69.7795281,23.0317019 69.9303583,23.1004532 C70.7393565,23.4579602 73.0977922,24.3242272 73.2486223,24.3242272 C73.3446052,24.3242272 73.4268762,24.3929786 73.4268762,24.4754802 C73.4268762,24.5992326 73.0429448,24.6129829 72.0968282,24.5442315 C71.3563891,24.5029807 69.8617991,24.4067288 68.7648523,24.3379775 C67.6679055,24.2692261 65.9402143,24.1454737 64.9255385,24.0629721 C63.9108627,23.9804705 62.1557479,23.8567181 61.0176656,23.7742164 C59.8932951,23.6917148 57.822808,23.5404619 56.4242008,23.4304597 C55.0255937,23.3204575 53.1196486,23.1554543 52.173532,23.0867029 C51.2274154,23.0179516 49.7191136,22.8804489 48.8141324,22.7979473 C47.1961359,22.6604446 45.3861737,22.5091916 42.8906197,22.3166878 C42.1090452,22.2616868 41.6154191,22.275437 41.6154191,22.3579387 C41.6154191,22.42669 41.9033676,22.6604446 42.2598753,22.8941992 C42.7809251,23.2104554 45.35875,25.0117407 47.854304,26.7992758 C48.0874052,26.9505288 49.2803348,27.7892952 50.5281118,28.6555622 C51.7758888,29.5218292 53.8737995,30.9793578 55.1901357,31.9143761 C56.5064719,32.8493945 57.6856897,33.6744107 57.8090962,33.743162 C58.1656039,33.9631663 58.6592299,34.3069231 60.9902419,35.9707057 C62.1694597,36.8232225 63.1704236,37.5244862 63.1978473,37.5244862 C63.2526947,37.5244862 67.5856345,40.5495456 67.873583,40.7970504 C67.955854,40.8658018 68.2026671,41.030805 68.4220564,41.182058 C68.9156825,41.4983142 73.5639945,44.7571281 73.7970957,44.9358816 C73.8793667,45.0183832 74.2632981,45.2658881 74.6472295,45.4996427 C75.0311609,45.7471475 75.3465331,45.9946524 75.3465331,46.0634037 C75.3465331,46.2971583 74.9900254,46.2146567 73.6325537,45.6508956 C73.3308933,45.5271432 73.0977922,45.4308913 70.4102725,44.3996211 C69.3955967,44.0146135 68.4357683,43.6433563 68.2849381,43.5746049 C68.1341079,43.5196038 67.791312,43.3821011 67.5307872,43.2995995 C67.2702623,43.2033476 66.8726191,43.0520947 66.6395179,42.9558428 C66.214451,42.7770893 65.1997752,42.3783314 64.719861,42.1995779 C64.5690308,42.1445769 64.1713876,41.9933239 63.8285917,41.8558212 C63.4857958,41.7183185 63.0881526,41.5670655 62.9373224,41.5120644 C62.7864923,41.4570634 62.3888491,41.3058104 62.0460532,41.1683077 C61.7032573,41.030805 61.3056141,40.879552 61.1547839,40.824551 C60.6748697,40.6457975 59.6601939,40.2470396 59.235127,40.0682861 C59.0157377,39.9720342 58.6043826,39.8207813 58.3438577,39.7245294 C58.0833329,39.6282775 57.6445542,39.4632742 57.3840293,39.3532721 C56.6435902,39.0507662 56.3967772,38.9545143 55.7386091,38.6932591 C55.3958132,38.5557564 54.99817,38.4045035 54.8473398,38.3495024 C54.6965096,38.280751 54.1754599,38.0882473 53.6818339,37.8957435 C53.1882078,37.7032397 52.1461083,37.2907316 51.3508219,36.9744754 C49.7191136,36.3282127 49.595707,36.2732117 48.7455733,35.9432052 C48.4027774,35.8057025 48.0051342,35.6544495 47.854304,35.5856982 C47.7034738,35.5306971 46.9356111,35.2144409 46.1403246,34.911935 C45.3450382,34.5956787 44.5223281,34.251922 44.2892269,34.1694204 C43.0140263,33.6194096 42.287299,33.3719047 42.205028,33.4406561 C42.1638925,33.4956572 42.3969937,33.9769166 42.7260777,34.5269274 C43.0551618,35.0769382 43.3568221,35.5856982 43.3842458,35.6681998 C43.4116695,35.7369511 43.6859062,36.19071 43.9738547,36.6719695 C44.2618032,37.1394787 44.4949044,37.5519868 44.4949044,37.5794873 C44.4949044,37.6207381 44.865124,38.280751 45.3313264,39.0645164 C45.7975288,39.8482818 46.359714,40.824551 46.5928152,41.2370591 C46.8259164,41.6495671 47.1138649,42.1858277 47.2372714,42.405832 C47.3606779,42.6395866 47.6760501,43.1895974 47.9228632,43.6433563 C48.1696762,44.0971152 48.4164892,44.5371238 48.4713366,44.6058751 C48.5261839,44.6883768 48.7729969,45.1146351 49.01981,45.568394 C49.266623,46.0221529 49.5819952,46.585914 49.7054017,46.8059183 C49.8288082,47.0396729 50.1441804,47.5896837 50.3909935,48.0434426 C50.6378065,48.4972015 50.9531787,49.0609626 51.0765852,49.2809669 C51.1999917,49.5147215 51.5153639,50.0647322 51.762177,50.5184911 C52.00899,50.97225 52.3243622,51.5360111 52.4477687,51.7560154 C53.2156315,53.1310424 53.585851,53.8185559 54.2028836,54.9873288 C54.5731031,55.7023429 54.99817,56.5136088 55.1490002,56.7748639 C55.4232369,57.2698736 56.0951168,58.5073979 57.0412334,60.2811827 C57.329182,60.8174432 57.8090962,61.7112107 58.1107565,62.2749718 C58.4124169,62.8387329 58.9608903,63.8975036 59.3448217,64.6125177 C59.7150412,65.3275317 60.2223791,66.2900506 60.4691922,66.7438095 C60.8805472,67.5138246 61.2370549,68.2013381 63.554355,72.6564255 C67.1331439,79.5453106 67.1057203,79.4903096 65.5425711,77.9777799 Z" id="Shape"></path>
                </g>
            </g>
            <g id="Screen" transform="translate(454.000000, 515.000000)">
                <rect id="Rectangle-4" fill="#4ABAEB" x="12" y="10" width="315" height="177"></rect>
                <g id="noun_1148993" fill="#6F6F6F">
                    <path d="M0,0 L339,0 L339,215.445169 L200.319942,215.445169 L200.319942,239.573455 L138.680058,239.573455 L138.680058,215.445169 L0,215.445169 L0,0 Z M16.4551252,17.8297042 L16.4551252,178.927405 L322.544875,178.927405 L322.544875,17.8297042 L16.4551252,17.8297042 Z M169.498386,192.146014 C165.241656,192.146014 161.793928,195.589288 161.793928,199.840495 C161.793928,204.091713 165.241667,207.534976 169.498386,207.534976 C173.755116,207.534976 177.202845,204.091702 177.202845,199.840495 C177.202845,195.589277 173.755106,192.146014 169.498386,192.146014 Z M96.8372095,244.121481 L242.15838,244.121481 L242.15838,270 L197.143061,270 L96.8372095,270 L96.8372095,244.121481 Z" id="Combined-Shape"></path>
                </g>
            </g>
            <g id="noun_383745" transform="translate(785.511645, 327.917225) rotate(10.000000) translate(-785.511645, -327.917225) translate(685.011645, 226.917225)" fill-rule="nonzero">
                <rect id="Rectangle-path" fill="#B77E4F" transform="translate(69.711784, 132.149892) rotate(-45.000000) translate(-69.711784, -132.149892) " x="-12.5920958" y="115.920958" width="164.60776" height="32.4578681"></rect>
                <polygon id="Shape" fill="#B77E4F" points="191.42879 28.2119602 173.649927 10.4328862 156.652502 21.7463609 180.115526 45.2091735"></polygon>
                <path d="M149.176984,77.7429957 C167.593779,98.4491567 183.844535,121.115048 197.185001,145.395852 C197.306456,145.616949 197.42791,145.838256 197.547686,146.060407 C196.92636,144.908975 199.525147,137.891842 199.742254,136.486645 C201.032733,128.142088 200.994136,119.577066 199.796793,111.224922 C194.931489,77.2845729 169.906865,50.5984726 145.248492,28.7368758 C122.740008,8.78147402 92.2016943,-5.4460681 61.4473218,2.0151557 C60.5398755,2.23519856 56.4788125,4.00502614 55.8012692,3.63596976 C90.3563861,22.4565913 122.691762,47.965757 149.176984,77.7429957 Z" id="Shape" fill="#6F6F6F"></path>
            </g>
        </g>
    </g>
</svg>