<?xml version="1.0" encoding="UTF-8"?>
<svg width="1920px" height="1080px" viewBox="0 0 1920 1080" version="1.1" xmlns="http://www.w3.org/2000/svg" xmlns:xlink="http://www.w3.org/1999/xlink">
    <!-- Generator: Sketch 46.2 (44496) - http://www.bohemiancoding.com/sketch -->
    <title>blueprintOverlay</title>
    <desc>Created with Sketch.</desc>
    <defs>
        <rect id="path-1" x="0" y="0" width="565" height="450"></rect>
    </defs>
    <g id="Actual-Slides" stroke="none" stroke-width="1" fill="none" fill-rule="evenodd">
        <g id="blueprintOverlay">
            <polyline id="Path-4" stroke="#6F6F6F" stroke-width="5" points="740.190388 259.866996 693 259.866996 593 360"></polyline>
            <polyline id="Path-3" stroke="#FFFFFF" stroke-width="5" points="592 359.130859 691.427734 460.098633 740.697266 460.098633"></polyline>
            <polyline id="Path-9" stroke="#FFFFFF" stroke-width="5" points="593.698169 359.701172 540.357422 359.701172 540.357422 299.955078 350 299.955078"></polyline>
            <circle id="Oval-3" stroke="#FFFFFF" stroke-width="5" fill="#ACACAC" cx="594" cy="360" r="8"></circle>
            <polyline id="Path-6" stroke="#6F6F6F" stroke-width="5" points="740.894531 490.486328 690.580078 490.486328 590.865234 490.486328 590.865234 550.605469 350 550.605469"></polyline>
            <polyline id="Path-8" stroke="#6F6F6F" stroke-width="5" points="741.458984 519.730469 690.394531 519.730469 690.394531 799.744141 350 799.744141"></polyline>
            <g id="Effect" transform="translate(1205.000000, 480.000000)">
                <g id="Lines">
                    <mask id="mask-2" fill="white">
                        <use xlink:href="#path-1"></use>
                    </mask>
                    <use id="Mask" fill="#2E2E2E" xlink:href="#path-1"></use>
                    <g id="Group-2" mask="url(#mask-2)" fill="#FFDE10">
                        <g transform="translate(-414.564103, -67.646840)">
                            <rect id="Rectangle-3" transform="translate(680.121623, 343.495992) rotate(-45.000000) translate(-680.121623, -343.495992) " x="293.677179" y="302.142833" width="772.888889" height="82.7063197"></rect>
                            <rect id="Rectangle-3-Copy" transform="translate(511.403675, 303.347294) rotate(-45.000000) translate(-511.403675, -303.347294) " x="124.95923" y="261.994134" width="772.888889" height="82.7063197"></rect>
                            <rect id="Rectangle-3-Copy-2" transform="translate(302.514786, 303.347294) rotate(-45.000000) translate(-302.514786, -303.347294) " x="-83.9296587" y="261.994134" width="772.888889" height="82.7063197"></rect>
                            <rect id="Rectangle-3" transform="translate(889.010512, 343.495992) rotate(-45.000000) translate(-889.010512, -343.495992) " x="502.566068" y="302.142833" width="772.888889" height="82.7063197"></rect>
                            <rect id="Rectangle-3-Copy" transform="translate(720.292564, 303.347294) rotate(-45.000000) translate(-720.292564, -303.347294) " x="333.848119" y="261.994134" width="772.888889" height="82.7063197"></rect>
                            <rect id="Rectangle-3-Copy-2" transform="translate(511.403675, 303.347294) rotate(-45.000000) translate(-511.403675, -303.347294) " x="124.95923" y="261.994134" width="772.888889" height="82.7063197"></rect>
                            <rect id="Rectangle-3" transform="translate(1097.899401, 343.495992) rotate(-45.000000) translate(-1097.899401, -343.495992) " x="711.454957" y="302.142833" width="772.888889" height="82.7063197"></rect>
                            <rect id="Rectangle-3-Copy-3" transform="translate(1298.754102, 343.495992) rotate(-45.000000) translate(-1298.754102, -343.495992) " x="912.309658" y="302.142833" width="772.888889" height="82.7063197"></rect>
                            <rect id="Rectangle-3-Copy" transform="translate(929.181452, 303.347294) rotate(-45.000000) translate(-929.181452, -303.347294) " x="542.737008" y="261.994134" width="772.888889" height="82.7063197"></rect>
                            <rect id="Rectangle-3-Copy-2" transform="translate(720.292564, 303.347294) rotate(-45.000000) translate(-720.292564, -303.347294) " x="333.848119" y="261.994134" width="772.888889" height="82.7063197"></rect>
                        </g>
                    </g>
                </g>
                <g id="Fire-Deparment" transform="translate(203.000000, 92.000000)">
                    <circle id="Oval-Copy-2" fill="#494949" cx="133.5" cy="133.5" r="133.5"></circle>
                    <path d="M212.313253,118.019272 L205.694478,118.019272 L205.694478,104.7488 L212.313253,104.7488 L212.313253,98.1144578 L126.262048,98.1144578 L126.262048,104.7488 L132.882606,104.7488 L132.882606,118.019272 L126.262048,118.019272 L126.262048,124.653614 L212.313253,124.653614 L212.313253,118.019272 Z M146.120156,118.019272 L139.501381,118.019272 L139.501381,104.7488 L146.120156,104.7488 L146.120156,118.019272 Z M159.357705,118.019272 L152.73893,118.019272 L152.73893,104.7488 L159.357705,104.7488 L159.357705,118.019272 Z M172.597038,118.019272 L165.978263,118.019272 L165.978263,104.7488 L172.597038,104.7488 L172.597038,118.019272 Z M185.836371,118.019272 L179.215813,118.019272 L179.215813,104.7488 L185.836371,104.7488 L185.836371,118.019272 Z M199.075704,118.019272 L192.455145,118.019272 L192.455145,104.7488 L199.075704,104.7488 L199.075704,118.019272 Z" id="Shape" fill="#FFFFFF" fill-rule="nonzero" transform="translate(169.287651, 111.384036) scale(-1, 1) translate(-169.287651, -111.384036) "></path>
                    <path d="M182.15512,150.388554 C173.048305,150.388554 165.668675,157.771738 165.668675,166.875 C165.668675,175.981816 173.048305,183.361446 182.15512,183.361446 C191.261936,183.361446 198.641566,175.981816 198.641566,166.875 C198.641566,157.773515 191.261936,150.388554 182.15512,150.388554 M182.15512,174.2955 C178.064605,174.2955 174.734621,170.969069 174.734621,166.876777 C174.734621,162.788039 178.064605,159.458054 182.15512,159.458054 C186.245635,159.458054 189.573843,162.788039 189.573843,166.876777 C189.573843,170.969069 186.245635,174.2955 182.15512,174.2955" id="Shape" fill="#FFFFFF" fill-rule="nonzero" transform="translate(182.155120, 166.875000) scale(-1, 1) translate(-182.155120, -166.875000) "></path>
                    <path d="M82.4322289,150.388554 C73.3254134,150.388554 65.9457831,157.771738 65.9457831,166.875 C65.9457831,175.981816 73.3254134,183.361446 82.4322289,183.361446 C91.5390445,183.361446 98.9186747,175.981816 98.9186747,166.875 C98.9186747,157.773515 91.5390445,150.388554 82.4322289,150.388554 M82.4322289,174.2955 C78.3417139,174.2955 75.013506,170.969069 75.013506,166.876777 C75.013506,162.788039 78.3417139,159.458054 82.4322289,159.458054 C86.5227439,159.458054 89.8527288,162.788039 89.8527288,166.876777 C89.8527288,170.969069 86.5227439,174.2955 82.4322289,174.2955" id="Shape" fill="#FFFFFF" fill-rule="nonzero" transform="translate(82.432229, 166.875000) scale(-1, 1) translate(-82.432229, -166.875000) "></path>
                    <path d="M206.518522,97.680046 L193.318848,97.680046 L193.318848,84.4427711 L180.119174,84.4427711 L180.119174,97.680046 L157.020189,97.680046 C151.555741,97.680046 147.122656,102.128141 147.122656,107.608894 L147.122656,144.014075 L147.122656,157.253134 L140.52193,157.253134 L140.52193,144.014075 L140.52193,130.7768 L54.7284948,130.7768 L54.7284948,144.014075 L64.6278057,144.014075 C55.005896,144.015859 53.0783133,170.493976 53.0783133,170.493976 L61.5923964,170.493976 C61.4376919,169.407813 61.3292209,168.309166 61.3292209,167.183765 C61.3292209,154.39237 71.6713068,144.015859 84.4264276,144.015859 C97.1815484,144.015859 107.523634,154.390587 107.523634,167.183765 C107.523634,168.309166 107.420498,169.407813 107.265793,170.493976 L160.583728,170.493976 C160.429023,169.407813 160.320552,168.309166 160.320552,167.183765 C160.320552,154.39237 170.662638,144.015859 183.417759,144.015859 C196.17288,144.015859 206.516744,154.390587 206.516744,167.183765 C206.516744,168.309166 206.411829,169.407813 206.257125,170.493976 L213.11747,170.493976 L213.11747,144.015859 L206.518522,97.680046 Z M166.921278,117.539526 L153.721604,117.539526 L153.721604,104.300467 L166.921278,104.300467 L166.921278,117.539526 Z M173.520226,130.778584 L173.520226,104.300467 L180.119174,104.300467 L193.318848,104.300467 L199.917796,104.300467 L203.216381,130.778584 L173.520226,130.778584 L173.520226,130.778584 Z" id="Shape" fill="#FFFFFF" fill-rule="nonzero" transform="translate(133.097892, 127.468373) scale(-1, 1) translate(-133.097892, -127.468373) "></path>
                </g>
                <g id="Call-box" transform="translate(0.000000, 285.000000)">
                    <rect id="Rectangle" fill="#FFFFFF" x="0" y="0" width="125" height="125"></rect>
                    <path d="M43.6973069,87.7172721 L33.0300065,77.0310882 C15.3662847,59.3360511 10.9334743,45.7357753 26.934414,29.7064778 C29.5054602,27.1974351 32.7550349,24.8512304 36.0778082,28.1798925 L45.9831554,41.155976 C48.1823574,45.2510072 46.6186677,46.8510073 44.45926,48.7889784 C36.5660073,55.8728008 39.1853389,63.5157774 44.4592492,68.6347824 L52.0787479,76.2677848 C57.1886968,81.5510525 64.8181521,84.1750155 71.8894424,76.2677848 C73.823985,74.1045392 75.4211653,72.5380675 79.5089412,74.7411778 L92.4620793,84.6640906 C95.7848418,87.9927419 93.4427662,91.2480756 90.9381946,93.8236783 C74.9372549,109.852976 61.361018,105.412309 43.6973069,87.7172721 Z M56.3819379,17.5371842 C56.3605406,16.4288925 57.3553963,15.2663862 58.6343958,15.2771005 C85.7348409,15.2771005 107.749814,37.3685774 107.749814,64.5630819 C107.76583,65.6951594 106.742733,66.7364865 105.614358,66.7364865 C104.48609,66.7364865 103.462886,65.6951594 103.478902,64.5630819 C103.478902,39.6846971 83.4266689,19.562838 58.6343958,19.562838 C57.5162068,19.6243384 56.4431187,18.6592974 56.3819379,17.5371842 Z M56.3819379,30.3943967 C56.3605086,29.3611054 57.3007713,28.1450274 58.6343958,28.134313 C78.6585475,28.134313 94.937077,44.4694016 94.937077,64.5630819 C94.9530929,65.6951594 93.9299959,66.7364865 92.8016208,66.7364865 C91.6733525,66.7364865 90.6501486,65.6951594 90.6661645,64.5630819 C90.6661645,46.7855212 76.3503756,32.4200506 58.6343958,32.4200506 C57.5162068,32.4815509 56.4431187,31.5165099 56.3819379,30.3943967 Z" id="Combined-Shape" fill="#2E2E2E" fill-rule="nonzero"></path>
                </g>
            </g>
            <g id="Lightning-Strike-Action" transform="translate(150.000000, 200.000000)">
                <rect id="Rectangle" fill="#FFFFFF" x="0" y="0" width="200" height="200"></rect>
                <g id="Lightning-with-Cloud" transform="translate(38.000000, 41.000000)" fill-rule="nonzero" fill="#2E2E2E">
                    <path d="M84.8421053,21.1682151 C78.8381776,22.9165796 74.0695078,26.5433523 71.7584265,31.1093291 C70.234463,30.5458066 68.6142644,30.2423715 66.9193757,30.2423715 C58.6158575,30.2423715 51.8951931,37.5970619 51.8951931,46.6712183 C51.8951931,52.465385 54.6242511,57.5515363 58.7609285,60.4861878 L17.4803349,60.4861878 C17.3367003,60.4861878 17.1930656,60.4558443 17.049431,60.4558443 C7.59827211,60.3258007 0,52.2934384 0,42.3797781 C0,32.5398091 7.44027401,24.5637991 16.7477983,24.2603639 C19.2901313,10.4179407 30.5367231,0 43.9952882,0 C55.055155,0 64.6068581,7.03680597 69.0738952,17.2235579 C70.2071725,17.0068185 71.3720493,16.9201228 72.5642168,16.9201228 C77.1576524,16.9201228 81.4106739,18.4936509 84.8421053,21.1682151 Z" id="Shape"></path>
                    <path d="M124,50.3708616 C124,55.9452069 117.762199,60.4861878 110.051584,60.4861878 C109.77868,60.4861878 109.518771,60.4861878 109.258863,60.4425246 C109.128909,60.4861878 108.967188,60.4861878 108.809799,60.4861878 L72.7114128,60.4861878 C72.438509,60.4861878 72.1612734,60.4861878 71.8883696,60.4425246 C71.6154658,60.457079 71.3237909,60.4861878 71.0220084,60.4861878 L68.3507278,60.4861878 C68.1038148,60.4861878 67.8742291,60.4556236 67.6431994,60.4279701 C60.4524009,59.8894564 54.8210526,53.9075872 54.8210526,46.6012652 C54.8210526,38.9601915 61.0299751,32.7454515 68.6828329,32.7454515 C69.4914368,32.7454515 70.2856013,32.8182236 71.0508871,32.9492134 C72.0775252,33.1238666 73.0594013,33.4149551 73.9979593,33.7933702 C74.2116618,33.2985197 74.474458,32.8036692 74.7488058,32.3233731 C77.2756928,27.8842731 81.8948423,24.4930918 87.4987558,23.0813125 C89.3455492,22.6010164 91.3093014,22.3535912 93.3308111,22.3535912 C104.781219,22.3535912 114.067168,30.3585256 114.067168,40.2555354 C114.067168,40.4010797 114.067168,40.5466239 114.049841,40.6921682 C114.585541,40.8086036 115.118353,40.9395934 115.626618,41.1142466 C120.54755,42.6570157 124,46.2359491 124,50.3708616 Z" id="Shape"></path>
                    <polygon id="Shape" points="55.4013291 95.0027624 57.2255736 91.3668173 43.0736842 91.3668173 51.9580854 71.0055249 71.5052032 71.0055249 62.9954109 85.0693605 76.3578947 85.0693605 43.0736842 119"></polygon>
                </g>
            </g>
            <g id="Cellphone-Explosion-Action" transform="translate(150.000000, 450.000000)">
                <rect id="Rectangle" fill="#6F6F6F" x="0" y="0" width="200" height="200"></rect>
                <g id="Group" transform="translate(70.000000, 38.000000)">
                    <g id="noun_1131411" transform="translate(0.000000, 9.000000)" fill-rule="nonzero" fill="#FFFFFF">
                        <path d="M49.3043478,0 L13.6956522,0 C6.13175234,0 0,6.15608469 0,13.75 L0,96.25 C0,103.843915 6.13175234,110 13.6956522,110 L49.3043478,110 C56.8682477,110 63,103.843915 63,96.25 L63,13.75 C63,6.15608469 56.8682477,0 49.3043478,0 Z M38.3478261,100.375 L24.6521739,100.375 C23.1393939,100.375 21.9130435,99.1437831 21.9130435,97.625 C21.9130435,96.1062169 23.1393939,94.875 24.6521739,94.875 L38.3478261,94.875 C39.8606061,94.875 41.0869565,96.1062169 41.0869565,97.625 C41.0869565,99.1437831 39.8606061,100.375 38.3478261,100.375 Z M57.5217391,86.625 L5.47826087,86.625 L5.47826087,17.875 L57.5217391,17.875 L57.5217391,86.625 Z" id="Shape"></path>
                    </g>
                    <polygon id="Rectangle-2" fill="#FFFFFF" points="36.7395667 18 59 24.9065257 56.2604333 34 34 27.0934743"></polygon>
                    <g id="noun_563989" transform="translate(26.000000, 0.000000)" fill-rule="nonzero" fill="#A2A2A2">
                        <path d="M46,0.65497076 L26.190991,8.26900585 L16.7423423,0 L14.836036,8.10526316 L0.745945946,5.23976608 L9.94594595,19.5672515 L0,23.1695906 L9.44864865,27.6725146 L8.45405405,42 L21.0522523,31.0292398 L30.9981982,39.871345 L34.645045,26.7719298 L43.3477477,27.754386 L38.209009,14.7368421 L46,0.65497076 Z M24.8648649,22.1052632 L27.6,32.1754386 L21.1351351,23.497076 L15.9963964,29.1461988 L18.5657658,22.0233918 L8.86846847,22.3508772 L17.8198198,19.0760234 L12.5153153,13.6725146 L19.5603604,16.8654971 L22.9585586,9.8245614 L23.372973,18.0116959 L30.8324324,13.2631579 L26.190991,19.7309942 L33.5675676,21.0409357 L24.8648649,22.1052632 Z" id="Shape"></path>
                        <polygon id="Shape" points="38.404321 31.8947368 38.9722222 31.1428571 37.0555556 30.3157895"></polygon>
                        <polygon id="Shape" points="3.51388889 29.0340557 3.79783951 30 5.43055556 28.7368421"></polygon>
                        <polygon id="Shape" points="18.2083333 40.4784689 19.1666667 40.7368421 19.0192308 37.8947368"></polygon>
                        <polygon id="Shape" points="12.1388889 1.97832817 11.1805556 1.89473684 12.7777778 4.73684211"></polygon>
                        <polygon id="Shape" points="21.4027778 37.8947368 22.6805556 37.2849365 21.6423611 35.3684211"></polygon>
                        <polygon id="Shape" points="26.6367521 6.63157895 27.1527778 4.55639098 26.1944444 4.10526316"></polygon>
                        <path d="M32.9027778,2.84210526 C32.9027778,2.84210526 34.103796,1.63636364 34.1744441,1.63636364 C34.2450923,1.63636364 33.6799072,0.947368421 33.6799072,0.947368421 L32.9027778,2.84210526 Z" id="Shape"></path>
                        <polygon id="Shape" points="41.8472222 12.9473684 44.5425347 11.6842105 44.7222222 12.6315789"></polygon>
                        <polygon id="Shape" points="1.4375 12.6315789 0.958333333 13.2947368 2.23611111 13.5789474"></polygon>
                        <polygon id="Shape" points="6.38888889 18.3157895 4.95979532 17.3684211 4.79166667 18.1894737"></polygon>
                    </g>
                </g>
            </g>
            <g id="Meteor-Action" transform="translate(150.000000, 700.000000)">
                <rect id="Rectangle" fill="#6F6F6F" x="0" y="0" width="200" height="200"></rect>
                <path d="M156.656114,46.2373846 L156.630849,46.2246932 C156.445571,46.0554748 156.233625,45.983557 155.990799,46.0089398 C155.972552,45.9990687 155.955709,45.9976585 155.943076,46.0032991 C152.397539,46.1499551 149.699787,46.2966111 147.852627,46.443267 C147.764199,46.4587787 147.764199,46.7267079 147.678578,46.7422196 C144.297265,46.9537426 141.494241,47.7899636 139.061773,48.6628486 L139.019664,48.6783603 C133.843124,50.5369426 130.124942,52.2784821 128.088294,54.5262668 C128.065836,54.5516495 128.088294,54.6715126 128.078468,54.6912547 C125.943567,56.9587815 124.583461,59.490007 124.517491,63.734569 L124.496437,63.7416198 C124.182027,66.6676882 123.432495,69.220066 122.194505,71.2605581 C122.156607,71.3211947 122.113095,71.3776008 122.07239,71.4396476 C120.876509,73.1205505 119.086897,74.1245798 116.420024,73.6747409 L116.39897,73.6817916 C113.371368,73.3616868 110.639929,73.2108004 108.189213,73.198109 C108.043237,73.2192613 107.804622,72.9879961 107.650224,72.996457 C104.948261,72.9330001 102.828799,72.9273595 101.44764,73.4223234 C101.418164,73.4321945 101.398513,73.4392452 101.384477,73.4448858 C98.6221583,74.4362237 96.4128649,76.3455715 94.6190421,78.7893675 L94.4758732,78.9712773 C93.2954311,80.5548797 92.3493932,82.9084258 90.7043538,86.1616499 L90.6973358,86.1404976 C90.3632749,89.1370738 88.5862955,91.5992017 88.0276559,92.5679772 C87.9995836,92.5778482 88.0697644,92.5609264 88.0753789,92.5736178 C86.8991477,94.4350204 85.5572897,95.6759554 83.9655878,96.3260362 C83.6399486,96.4600008 83.3185203,96.4966648 82.9605979,96.45295 C82.6153081,96.4035946 82.3205485,96.2668097 82.0580721,96.0496461 C81.9822768,96.0129821 81.9275357,95.9791384 81.8854272,95.9452948 C81.2116909,95.4531512 80.7653407,94.8693476 80.5421655,94.1981146 C80.4481232,93.9330057 80.4200508,93.6552055 80.4551413,93.3604834 C80.4733883,92.9317968 80.6221717,92.4255517 80.8958771,91.840338 C80.9772869,91.6697094 81.0727328,91.5174128 81.1962511,91.3806279 C81.5724205,90.729137 82.1942229,89.7927951 83.1500862,88.541989 L83.1430682,88.5208367 C84.0287506,87.0768395 85.1151503,85.7569359 85.5179884,84.8755899 C85.5320246,84.8220041 85.5334282,84.793801 85.5572897,84.7670081 C86.2661164,83.2144291 86.3629659,81.8268381 85.9180193,80.5774421 C85.908194,80.5492391 85.8983687,80.521036 85.8885433,80.4928329 L85.5699222,79.5973855 C85.4955305,79.3900929 85.3537652,79.2222846 85.1516443,79.0911404 L85.1881384,79.1010114 C85.0070718,78.9811484 84.8231979,78.9346133 84.632306,78.9726875 C84.6014264,78.968457 84.573354,78.9712773 84.5452817,78.9797382 C84.309474,79.0178124 84.0989314,79.1235739 83.9122504,79.3012532 C83.7957501,79.4521397 83.7269729,79.6340495 83.7087259,79.8441623 C83.704515,79.8765959 83.7017078,79.9104395 83.6974969,79.9414629 C83.5318701,81.2698275 82.919893,82.4205127 81.8643729,83.3921085 C81.7731378,83.4879989 81.7240112,83.7192641 81.6145291,83.8066936 C80.6474368,84.5427937 79.224169,85.620151 77.1103216,86.3774034 C77.0836528,86.3872745 77.0625986,86.3957354 77.0485624,86.401376 C77.0345262,86.4056065 77.0204901,86.4098369 77.0064539,86.4140674 C73.9676227,87.5055262 72.1738,88.2825207 71.5730518,88.6082662 C71.4804131,88.6548013 71.3751418,88.6223677 71.3063646,88.6449302 C69.2009388,89.7786936 67.8085506,91.4031904 67.154465,93.5945689 C67.1207782,93.7158421 67.0660371,93.8258341 67.0042779,93.9583885 C66.4231804,95.653393 65.328359,97.9350213 63.7240246,100.828656 C60.7666032,103.282323 57.7418082,105.63728 54.6538505,107.904806 C46.6925339,113.72169 43.1919127,121.267421 44.1561976,130.546231 C45.6594716,145.104655 53.6600895,152.888702 68.1608585,153.895552 C82.0664938,154.850226 91.3079092,149.260377 95.8879121,137.130237 C98.2305491,130.891718 100.495987,124.977535 102.543865,118.999894 C104.472435,117.242843 107.199663,116.374188 110.322711,115.253116 L110.343765,115.244655 C114.282315,113.831681 117.269212,112.71343 119.081282,111.232769 C119.086897,111.213026 119.065842,111.101624 119.078475,111.097394 C124.450118,106.714637 127.044002,102.001904 126.628532,97.1594369 C126.610285,97.1030308 126.747839,96.939453 126.726785,96.8830468 C126.71696,96.8534336 126.705731,96.8210001 126.691694,96.7772853 L126.521857,96.2992433 C126.440447,96.076439 126.170952,95.9551658 125.974446,95.8381231 C125.949181,95.8169708 125.86356,95.8310723 125.848121,95.8367129 C125.657229,95.7323616 125.429843,95.7210803 125.233336,95.7760763 C125.198246,95.7718459 125.151926,95.7803068 125.12245,95.7901779 C124.896468,95.8437637 124.711191,95.9495252 124.59469,96.0990015 L124.688733,95.9227323 C124.47819,96.2343762 123.666899,97.2835304 122.277318,99.0659644 C122.247842,99.0772456 122.236614,99.089937 122.242228,99.1026284 C121.510943,99.9741032 120.891948,100.562137 120.393664,100.869551 C120.187332,100.989414 119.965561,101.068382 119.735368,101.120558 C118.006111,102.207786 116.318964,103.2513 114.55181,103.884459 L114.511105,103.899971 C112.769216,104.526079 111.331912,104.464032 110.084096,103.410647 C109.10016,102.69852 108.314135,101.344772 107.723212,99.3338936 C107.638995,99.0518629 107.623555,98.768422 107.678296,98.483571 C108.563979,92.3902978 112.839397,88.4475087 120.501743,86.6509732 C126.723978,85.1364683 130.373382,83.9928339 131.449957,83.213019 C131.619794,83.0748239 131.807879,82.9690624 132.014211,82.8943243 C135.243934,80.7170473 137.046178,78.7555238 137.422348,77.0097538 C137.429366,76.9462969 137.440595,76.8870705 137.451824,76.8348948 C137.813957,75.0468202 137.540252,71.6539909 136.636322,66.6592273 C136.630708,66.6451258 136.641937,66.6592273 136.651762,66.6394851 C135.861525,62.18199 137.604818,57.6229638 142.420628,54.4853723 L142.399574,54.4938332 C147.427331,51.2815036 151.735032,48.4414545 156.058173,48.0296897 C156.323457,47.9972562 156.560668,47.8647017 156.767,47.6658701 C156.915783,47.4247338 156.990175,47.1553945 157,46.8719537 C156.943855,46.6279971 156.827355,46.4108335 156.656114,46.2373846 Z M93.7151127,102.495458 C91.154915,107.10807 89.6923459,110.51077 88.4389157,113.025074 C86.6787798,116.615324 85.2835843,119.933416 84.3473717,122.645141 C84.0891061,123.367139 83.5276593,123.46867 83.5571352,124.864722 L84.1157748,124.66166 C84.3922874,124.56436 84.687047,124.010169 85.226036,123.64494 C85.6092235,123.365729 85.9657423,122.725519 86.5187674,122.353239 C87.2374194,121.873787 88.5062894,121.679186 89.6502373,119.860088 L93.7642393,118.383657 L94.3579693,120.053279 C93.9495167,122.843972 93.0497981,125.592361 92.2132423,128.099614 C92.0083142,128.70457 91.6363556,129.3476 91.4159877,129.908841 C90.2636181,132.576852 88.7280609,135.081284 87.0016117,137.454573 C84.1803412,141.302881 80.870612,144.116138 77.1004962,145.469885 C76.7818751,145.584107 76.4857119,145.689869 76.2091993,145.78999 C75.3529929,146.098813 74.4785394,146.373793 73.5535556,146.533141 C68.3770155,147.610498 63.7815729,147.523068 59.7545953,146.231368 C55.7655153,144.908644 52.8923109,141.780923 51.1293677,136.828464 C49.1993941,131.402194 49.2232556,126.080275 51.1939341,120.851425 C51.3216633,120.335309 51.5069408,119.824834 51.7469593,119.315768 C52.8895037,116.793004 54.3197896,114.617137 56.0336061,112.779707 C57.1438673,111.913873 58.1881585,110.957789 59.1734977,109.915685 C59.5370346,109.582889 59.9370655,109.283937 60.3721868,109.018828 C60.309024,108.838328 60.913983,108.353235 62.1912747,107.56637 C62.9688786,107.082687 64.004748,106.507344 65.291865,105.841752 C65.8097997,105.54703 66.32212,105.27628 66.8274222,105.033734 C69.2963848,103.613709 71.0916111,102.70416 72.210294,102.300856 C76.4913264,100.763789 79.4655912,99.9092362 81.1316847,99.7315568 C81.0446605,100.844168 80.3849604,102.381235 79.2143437,104.521848 C77.8486242,106.858473 77.1482192,108.872172 76.5825615,109.075234 L84.1241966,106.367739 C84.8695173,106.10122 86.4822734,105.102831 88.7112175,103.881639 C90.9387579,102.613911 92.1206036,101.949728 93.2968348,101.32503 L93.7151127,102.495458 Z M61.6217195,117.323294 C59.5353321,118.632504 57.7560995,120.372815 56.2854371,122.547117 C53.2365373,127.033154 53.2379528,131.487364 56.2910989,135.908301 C60.9861781,142.733557 67.4067025,143.822879 75.552672,139.179158 C79.5598379,136.896358 81.3574715,133.543042 80.9413264,129.122104 C79.8485917,117.595262 73.4096663,113.66329 61.6217195,117.323294 Z M77.2979336,130.95934 C77.31775,131.465664 77.2738708,131.970542 77.1691268,132.47542 C76.0579911,133.522789 74.7628456,133.835264 73.279444,133.414291 C71.1605011,132.789341 70.4315395,131.380312 71.0925591,129.181417 C71.2680761,128.604207 71.5539989,128.209273 71.951743,128.000957 C73.177531,127.104039 74.3693479,127.010007 75.5314401,127.728988 C76.6524841,128.423376 77.2427307,129.501125 77.2979336,130.95934 Z" id="Combined-Shape" fill="#FFFFFF" fill-rule="nonzero"></path>
            </g>
            <g id="Fire-State" transform="translate(740.000000, 430.000000)">
                <rect id="Background-Copy" fill="#FFFFFF" x="0" y="0" width="120" height="120"></rect>
                <path d="M76.5365946,59.9152895 C73.4017316,53.0793803 74.4860534,47.4187478 74.4860534,47.4187478 C74.4860534,47.4187478 68.3463193,53.1434568 69.3006492,61.5464016 C69.6216655,64.373879 70.7797021,67.5825711 71.8164659,70.755575 C70.7495821,73.2756474 68.867079,75.8038307 65.6656349,75.235253 C59.5893114,74.1556855 61.6985075,69.185295 62.9762316,64.8881133 C64.2539558,60.5901206 61.0873875,57.1575662 61.0873875,57.1575662 C61.0873875,57.1575662 58.2331166,64.6155854 55.7989411,58.8073336 C53.3647656,52.9990818 65.9272038,46.9961673 64.4592477,38.3620603 C62.9920843,29.7279533 57.1646475,24 57.1646475,24 C57.1646475,24 60.9320315,29.367016 58.4962707,36.1485819 C56.06051,42.9301477 51.3205655,42.3169598 46.9119415,50.5544413 C42.5033176,58.7919228 49.0377828,66.2158759 45.9251136,68.0116404 C39.5103359,71.7134783 40.7183084,58.3133767 40.7183084,58.3133767 C40.7183084,58.3133767 32.7182649,68.2379359 40.1872443,83.801228 C48.2411868,100.584407 67.0741435,96.6700623 68.0427409,96.4559332 C73.7536606,95.7413585 79.176062,91.8408023 82.0881951,84.3543949 C87.6302841,70.1034546 79.6714575,66.7511987 76.5365946,59.9152895 Z" id="Shape-Copy-6" fill="#2E2E2E" fill-rule="nonzero"></path>
            </g>
            <g id="Sun-State" transform="translate(740.000000, 200.000000)">
                <rect id="Background-Copy" fill="#6F6F6F" x="0" y="0" width="120" height="120"></rect>
                <g id="noun_1174161" transform="translate(26.000000, 26.000000)" fill-rule="nonzero" fill="#FFFFFF">
                    <path d="M35.1509434,16.9245283 C25.0974843,16.9245283 16.9245283,25.0974843 16.9245283,35.1509434 C16.9245283,45.2044025 25.0974843,53.3773585 35.1509434,53.3773585 C45.2044025,53.3773585 53.3773585,45.2044025 53.3773585,35.1509434 C53.3773585,25.0974843 45.2044025,16.9245283 35.1509434,16.9245283 Z" id="Shape"></path>
                    <path d="M35.1509434,11.7169811 C36.5711835,11.7169811 37.754717,10.6951514 37.754717,9.46895568 L37.754717,2.24802545 C37.754717,1.02182975 36.5711835,0 35.1509434,0 C33.7307033,0 32.5471698,1.02182975 32.5471698,2.24802545 L32.5471698,9.46895568 C32.5471698,10.7632734 33.7307033,11.7169811 35.1509434,11.7169811 Z" id="Shape"></path>
                    <path d="M15.3956221,18.7883307 C15.8403948,19.2323134 16.5075539,19.5283019 17.1005842,19.5283019 C17.6936144,19.5283019 18.3607735,19.3063105 18.8055462,18.7883307 C19.7692204,17.8263682 19.7692204,16.3464258 18.8055462,15.3844633 L13.2458873,9.83467945 C12.2822131,8.87271691 10.7996374,8.87271691 9.8359632,9.83467945 C8.87228899,10.796642 8.87228899,12.2765843 9.8359632,13.2385469 L15.3956221,18.7883307 Z" id="Shape"></path>
                    <path d="M11.7169811,35.1509434 C11.7169811,33.7307033 10.6951514,32.5471698 9.46895568,32.5471698 L2.24802545,32.5471698 C1.02182975,32.5471698 0,33.7307033 0,35.1509434 C0,36.5711835 1.02182975,37.754717 2.24802545,37.754717 L9.46895568,37.754717 C10.7632734,37.754717 11.7169811,36.5711835 11.7169811,35.1509434 Z" id="Shape"></path>
                    <path d="M15.3956221,50.19317 L9.8359632,55.7429539 C8.87228899,56.7049164 8.87228899,58.1848587 9.8359632,59.1468213 C10.2807359,59.590804 10.947895,59.8867925 11.5409253,59.8867925 C12.1339555,59.8867925 12.8011146,59.6648011 13.2458873,59.1468213 L18.8055462,53.5970374 C19.7692204,52.6350749 19.7692204,51.1551325 18.8055462,50.19317 C17.9160008,49.2312075 16.3592963,49.2312075 15.3956221,50.19317 Z" id="Shape"></path>
                    <path d="M35.1509434,57.2830189 C33.7307033,57.2830189 32.5471698,58.3048486 32.5471698,59.5310443 L32.5471698,66.7519746 C32.5471698,67.9781703 33.7307033,69 35.1509434,69 C36.5711835,69 37.754717,67.9781703 37.754717,66.7519746 L37.754717,59.5310443 C37.754717,58.2367266 36.5711835,57.2830189 35.1509434,57.2830189 Z" id="Shape"></path>
                    <path d="M53.6043779,50.19317 C52.6407037,49.2312075 51.158128,49.2312075 50.1944538,50.19317 C49.2307796,51.1551325 49.2307796,52.6350749 50.1944538,53.5970374 L55.7541127,59.1468213 C56.1988854,59.590804 56.8660445,59.8867925 57.4590747,59.8867925 C58.052105,59.8867925 58.7192641,59.6648011 59.1640368,59.1468213 C60.127711,58.1848587 60.127711,56.7049164 59.1640368,55.7429539 L53.6043779,50.19317 Z" id="Shape"></path>
                    <path d="M66.7519746,32.5471698 L59.5310443,32.5471698 C58.3048486,32.5471698 57.2830189,33.7307033 57.2830189,35.1509434 C57.2830189,36.5711835 58.3048486,37.754717 59.5310443,37.754717 L66.7519746,37.754717 C67.9781703,37.754717 69,36.5711835 69,35.1509434 C69,33.7307033 67.9781703,32.5471698 66.7519746,32.5471698 Z" id="Shape"></path>
                    <path d="M51.8994158,19.5283019 C52.4924461,19.5283019 53.1596052,19.3063105 53.6043779,18.7883307 L59.1640368,13.2385469 C60.127711,12.2765843 60.127711,10.796642 59.1640368,9.83467945 C58.2003626,8.87271691 56.7177869,8.87271691 55.7541127,9.83467945 L50.1944538,15.3844633 C49.2307796,16.3464258 49.2307796,17.8263682 50.1944538,18.7883307 C50.6392265,19.3063105 51.2322568,19.5283019 51.8994158,19.5283019 Z" id="Shape"></path>
                </g>
            </g>
            <g id="Ground-On" transform="translate(690.000000, 200.000000)">
                <rect id="Rectangle-2" x="0" y="0" width="50" height="50"></rect>
                <path d="M25.6983292,24.0385448 C25.7015911,24.0025865 25.7032577,23.9661676 25.7032577,23.9293595 L25.7032577,14.1932495 C25.7032577,13.534236 25.1690217,13 24.5100082,13 C23.8509947,13 23.3167587,13.534236 23.3167587,14.1932495 L23.3167587,23.9293595 C23.3167587,23.9661676 23.3184253,24.0025865 23.3216871,24.0385448 L13.1932495,24.0385448 C12.534236,24.0385448 12,24.5727808 12,25.2317943 C12,25.8908078 12.534236,26.4250438 13.1932495,26.4250438 L35.8379547,26.4250438 C36.4969682,26.4250438 37.0312042,25.8908078 37.0312042,25.2317943 C37.0312042,24.5727808 36.4969682,24.0385448 35.8379547,24.0385448 L25.6983292,24.0385448 Z M16.1694417,30.2515164 C15.5104282,30.2515164 14.9761922,29.7172803 14.9761922,29.0582668 C14.9761922,28.3992533 15.5104282,27.8650173 16.1694417,27.8650173 L32.8642785,27.8650173 C33.523292,27.8650173 34.057528,28.3992533 34.057528,29.0582668 C34.057528,29.7172803 33.523292,30.2515164 32.8642785,30.2515164 L16.1694417,30.2515164 Z M19.207341,34.0656656 C18.5483275,34.0656656 18.0140915,33.5314296 18.0140915,32.8724161 C18.0140915,32.2134026 18.5483275,31.6791666 19.207341,31.6791666 L29.8120596,31.6791666 C30.4710731,31.6791666 31.0053091,32.2134026 31.0053091,32.8724161 C31.0053091,33.5314296 30.4710731,34.0656656 29.8120596,34.0656656 L19.207341,34.0656656 Z M22.3474236,37.8843647 C21.6884101,37.8843647 21.1541741,37.3501287 21.1541741,36.6911152 C21.1541741,36.0321017 21.6884101,35.4978657 22.3474236,35.4978657 L26.6662232,35.4978657 C27.3252367,35.4978657 27.8594727,36.0321017 27.8594727,36.6911152 C27.8594727,37.3501287 27.3252367,37.8843647 26.6662232,37.8843647 L22.3474236,37.8843647 Z" id="Combined-Shape" fill="#6F6F6F" fill-rule="nonzero"></path>
            </g>
            <polyline id="Path-10" stroke="#FFFFFF" stroke-width="5" points="860 490 1155 490 1155 825 1206 825"></polyline>
            <g id="Ground-Off" transform="translate(690.000000, 400.000000)">
                <rect id="Rectangle-2" x="0" y="0" width="50" height="50"></rect>
                <path d="M30.0682412,26.4930015 L28.6269374,27.9343053 L32.95855,27.9343053 C33.6176196,27.9343053 34.151901,28.4690348 34.151901,29.1286571 C34.151901,29.7882794 33.6176196,30.323009 32.95855,30.323009 L26.2382337,30.323009 L24.8092646,31.7519781 L29.9060714,31.7519781 C30.565141,31.7519781 31.0994224,32.2867076 31.0994224,32.9463299 C31.0994224,33.6059522 30.565141,34.1406818 29.9060714,34.1406818 L22.4205609,34.1406818 L19.4470742,37.1141685 C18.9810416,37.5802011 18.2251367,37.5798842 17.7587133,37.1134608 C17.2922898,36.6470374 17.291973,35.8911325 17.7580056,35.4250999 L33.7715926,19.4115129 C34.2376252,18.9454803 34.9935301,18.9457971 35.4599535,19.4122205 C35.926377,19.878644 35.9266938,20.6345489 35.4606612,21.1005814 L32.4569448,24.1042978 L35.9324792,24.1042978 C36.5915488,24.1042978 37.1258303,24.6390274 37.1258303,25.2986497 C37.1258303,25.958272 36.5915488,26.4930015 35.9324792,26.4930015 L30.0682412,26.4930015 Z M23.8315199,26.4930015 L13.2858472,26.4930015 C12.6267776,26.4930015 12.0924962,25.958272 12.0924962,25.2986497 C12.0924962,24.6390274 12.6267776,24.1042978 13.2858472,24.1042978 L23.4151466,24.1042978 C23.4118845,24.0683063 23.4102178,24.0318538 23.4102178,23.9950116 L23.4102178,14.2499074 C23.4102178,13.5902851 23.9444992,13.0555556 24.6035688,13.0555556 C25.2626384,13.0555556 25.7969198,13.5902851 25.7969198,14.2499074 L25.7969198,23.9950116 C25.7969198,24.0318538 25.7952531,24.0683063 25.7919909,24.1042978 L26.2202236,24.1042978 L23.8315199,26.4930015 Z M22.3902161,27.9343053 L20.0015124,30.323009 L16.2622926,30.323009 C15.6032231,30.323009 15.0689416,29.7882794 15.0689416,29.1286571 C15.0689416,28.4690348 15.6032231,27.9343053 16.2622926,27.9343053 L22.3902161,27.9343053 Z M22.4408002,37.9629086 C21.7817306,37.9629086 21.2474492,37.4281791 21.2474492,36.7685568 C21.2474492,36.1089345 21.7817306,35.574205 22.4408002,35.574205 L26.7599673,35.574205 C27.4190368,35.574205 27.9533183,36.1089345 27.9533183,36.7685568 C27.9533183,37.4281791 27.4190368,37.9629086 26.7599673,37.9629086 L22.4408002,37.9629086 Z" id="Combined-Shape" fill="#FFFFFF" fill-rule="nonzero"></path>
            </g>
            <rect id="Rectangle-7-Copy" fill="#4986FF" opacity="0.496150362" x="476" y="0" width="464" height="1080"></rect>
            <rect id="Rectangle-7-Copy-2" fill="#4986FF" opacity="0.496150362" x="1106" y="0" width="740" height="1080"></rect>
            <rect id="Rectangle-7" fill="#4986FF" opacity="0.496150362" x="90" y="0" width="313" height="1080"></rect>
            <path d="M560.3,81.28 L560.3,65.296 L554.648,65.296 L554.648,81.28 C554.648,83.2000096 554.264004,84.6099955 553.496,85.51 C552.727996,86.4100045 551.33601,86.86 549.32,86.86 C548.167994,86.86 547.250003,86.6980016 546.566,86.374 C545.881997,86.0499984 545.348002,85.6300026 544.964,85.114 C544.579998,84.5979974 544.328001,84.0040034 544.208,83.332 C544.087999,82.6599966 544.028,81.9760035 544.028,81.28 L544.028,65.296 L538.376,65.296 L538.376,81.28 C538.376,84.7840175 539.32999,87.3759916 541.238,89.056 C543.14601,90.7360084 545.839983,91.576 549.32,91.576 C552.752017,91.576 555.43999,90.7300085 557.384,89.038 C559.32801,87.3459915 560.3,84.7600174 560.3,81.28 Z M571.812,77.392 L576.204,77.392 C576.852003,77.392 577.475997,77.3440005 578.076,77.248 C578.676003,77.1519995 579.203998,76.9660014 579.66,76.69 C580.116002,76.4139986 580.481999,76.0240025 580.758,75.52 C581.034001,75.0159975 581.172,74.3560041 581.172,73.54 C581.172,72.7239959 581.034001,72.0640025 580.758,71.56 C580.481999,71.0559975 580.116002,70.6660014 579.66,70.39 C579.203998,70.1139986 578.676003,69.9280005 578.076,69.832 C577.475997,69.7359995 576.852003,69.688 576.204,69.688 L571.812,69.688 L571.812,77.392 Z M566.16,65.296 L577.752,65.296 C579.360008,65.296 580.727994,65.5299977 581.856,65.998 C582.984006,66.4660023 583.901996,67.0839962 584.61,67.852 C585.318004,68.6200038 585.833998,69.4959951 586.158,70.48 C586.482002,71.4640049 586.644,72.4839947 586.644,73.54 C586.644,74.5720052 586.482002,75.585995 586.158,76.582 C585.833998,77.578005 585.318004,78.4599962 584.61,79.228 C583.901996,79.9960038 582.984006,80.6139977 581.856,81.082 C580.727994,81.5500023 579.360008,81.784 577.752,81.784 L571.812,81.784 L571.812,91 L566.16,91 L566.16,65.296 Z M596.824,86.248 L601.864,86.248 C602.680004,86.248 603.471996,86.1160013 604.24,85.852 C605.008004,85.5879987 605.691997,85.1500031 606.292,84.538 C606.892003,83.9259969 607.371998,83.1280049 607.732,82.144 C608.092002,81.1599951 608.272,79.9600071 608.272,78.544 C608.272,77.2479935 608.146001,76.0780052 607.894,75.034 C607.641999,73.9899948 607.228003,73.0960037 606.652,72.352 C606.075997,71.6079963 605.314005,71.038002 604.366,70.642 C603.417995,70.245998 602.248007,70.048 600.856,70.048 L596.824,70.048 L596.824,86.248 Z M591.172,65.296 L602.26,65.296 C603.916008,65.296 605.457993,65.5599974 606.886,66.088 C608.314007,66.6160026 609.549995,67.4079947 610.594,68.464 C611.638005,69.5200053 612.453997,70.8399921 613.042,72.424 C613.630003,74.0080079 613.924,75.8679893 613.924,78.004 C613.924,79.8760094 613.684002,81.6039921 613.204,83.188 C612.723998,84.7720079 611.998005,86.1399942 611.026,87.292 C610.053995,88.4440058 608.842007,89.3499967 607.39,90.01 C605.937993,90.6700033 604.22801,91 602.26,91 L591.172,91 L591.172,65.296 Z M625.328,81.064 L631.988,81.064 L628.748,71.632 L628.676,71.632 L625.328,81.064 Z M625.868,65.296 L631.664,65.296 L641.276,91 L635.408,91 L633.464,85.276 L623.852,85.276 L621.836,91 L616.148,91 L625.868,65.296 Z M646.884,70.048 L639.18,70.048 L639.18,65.296 L660.24,65.296 L660.24,70.048 L652.536,70.048 L652.536,91 L646.884,91 L646.884,70.048 Z M664.192,65.296 L664.192,91 L683.704,91 L683.704,86.248 L669.844,86.248 L669.844,79.948 L682.3,79.948 L682.3,75.556 L669.844,75.556 L669.844,70.048 L683.416,70.048 L683.416,65.296 L664.192,65.296 Z M699.528,65.296 L699.528,91 L705.18,91 L705.18,80.38 L715.944,80.38 L715.944,75.988 L705.18,75.988 L705.18,70.048 L717.6,70.048 L717.6,65.296 L699.528,65.296 Z M743.692,81.28 L743.692,65.296 L738.04,65.296 L738.04,81.28 C738.04,83.2000096 737.656004,84.6099955 736.888,85.51 C736.119996,86.4100045 734.72801,86.86 732.712,86.86 C731.559994,86.86 730.642003,86.6980016 729.958,86.374 C729.273997,86.0499984 728.740002,85.6300026 728.356,85.114 C727.971998,84.5979974 727.720001,84.0040034 727.6,83.332 C727.479999,82.6599966 727.42,81.9760035 727.42,81.28 L727.42,65.296 L721.768,65.296 L721.768,81.28 C721.768,84.7840175 722.72199,87.3759916 724.63,89.056 C726.53801,90.7360084 729.231983,91.576 732.712,91.576 C736.144017,91.576 738.83199,90.7300085 740.776,89.038 C742.72001,87.3459915 743.692,84.7600174 743.692,81.28 Z M749.552,65.296 L749.552,91 L754.844,91 L754.844,73.792 L754.916,73.792 L765.608,91 L771.26,91 L771.26,65.296 L765.968,65.296 L765.968,82.54 L765.896,82.54 L755.168,65.296 L749.552,65.296 Z M794.364,73.936 L799.836,73.936 C799.667999,72.4479926 799.260003,71.1280058 798.612,69.976 C797.963997,68.8239942 797.142005,67.8580039 796.146,67.078 C795.149995,66.2979961 794.022006,65.704002 792.762,65.296 C791.501994,64.887998 790.164007,64.684 788.748,64.684 C786.77999,64.684 785.010008,65.0319965 783.438,65.728 C781.865992,66.4240035 780.540005,67.3839939 779.46,68.608 C778.379995,69.8320061 777.552003,71.2659918 776.976,72.91 C776.399997,74.5540082 776.112,76.3359904 776.112,78.256 C776.112,80.1280094 776.399997,81.8739919 776.976,83.494 C777.552003,85.1140081 778.379995,86.523994 779.46,87.724 C780.540005,88.924006 781.865992,89.8659966 783.438,90.55 C785.010008,91.2340034 786.77999,91.576 788.748,91.576 C790.332008,91.576 791.783993,91.3360024 793.104,90.856 C794.424007,90.3759976 795.575995,89.6800046 796.56,88.768 C797.544005,87.8559954 798.335997,86.7520065 798.936,85.456 C799.536003,84.1599935 799.907999,82.708008 800.052,81.1 L794.58,81.1 C794.363999,82.8280086 793.770005,84.2199947 792.798,85.276 C791.825995,86.3320053 790.476009,86.86 788.748,86.86 C787.475994,86.86 786.396004,86.6140025 785.508,86.122 C784.619996,85.6299975 783.900003,84.9760041 783.348,84.16 C782.795997,83.3439959 782.394001,82.4260051 782.142,81.406 C781.889999,80.3859949 781.764,79.3360054 781.764,78.256 C781.764,77.1279944 781.889999,76.0360053 782.142,74.98 C782.394001,73.9239947 782.795997,72.9820041 783.348,72.154 C783.900003,71.3259959 784.619996,70.6660025 785.508,70.174 C786.396004,69.6819975 787.475994,69.436 788.748,69.436 C789.444003,69.436 790.109997,69.5499989 790.746,69.778 C791.382003,70.0060011 791.951997,70.323998 792.456,70.732 C792.960003,71.140002 793.379998,71.6139973 793.716,72.154 C794.052002,72.6940027 794.268,73.2879968 794.364,73.936 Z M810.592,70.048 L810.592,91 L816.244,91 L816.244,70.048 L823.948,70.048 L823.948,65.296 L802.888,65.296 L802.888,70.048 L810.592,70.048 Z M827.9,65.296 L827.9,91 L833.552,91 L833.552,65.296 L827.9,65.296 Z M844.056,78.256 C844.056,79.3360054 844.181999,80.3859949 844.434,81.406 C844.686001,82.4260051 845.087997,83.3439959 845.64,84.16 C846.192003,84.9760041 846.911996,85.6299975 847.8,86.122 C848.688004,86.6140025 849.767994,86.86 851.04,86.86 C852.312006,86.86 853.391996,86.6140025 854.28,86.122 C855.168004,85.6299975 855.887997,84.9760041 856.44,84.16 C856.992003,83.3439959 857.393999,82.4260051 857.646,81.406 C857.898001,80.3859949 858.024,79.3360054 858.024,78.256 C858.024,77.1279944 857.898001,76.0360053 857.646,74.98 C857.393999,73.9239947 856.992003,72.9820041 856.44,72.154 C855.887997,71.3259959 855.168004,70.6660025 854.28,70.174 C853.391996,69.6819975 852.312006,69.436 851.04,69.436 C849.767994,69.436 848.688004,69.6819975 847.8,70.174 C846.911996,70.6660025 846.192003,71.3259959 845.64,72.154 C845.087997,72.9820041 844.686001,73.9239947 844.434,74.98 C844.181999,76.0360053 844.056,77.1279944 844.056,78.256 Z M838.404,78.256 C838.404,76.3359904 838.691997,74.5540082 839.268,72.91 C839.844003,71.2659918 840.671995,69.8320061 841.752,68.608 C842.832005,67.3839939 844.157992,66.4240035 845.73,65.728 C847.302008,65.0319965 849.07199,64.684 851.04,64.684 C853.03201,64.684 854.807992,65.0319965 856.368,65.728 C857.928008,66.4240035 859.247995,67.3839939 860.328,68.608 C861.408005,69.8320061 862.235997,71.2659918 862.812,72.91 C863.388003,74.5540082 863.676,76.3359904 863.676,78.256 C863.676,80.1280094 863.388003,81.8739919 862.812,83.494 C862.235997,85.1140081 861.408005,86.523994 860.328,87.724 C859.247995,88.924006 857.928008,89.8659966 856.368,90.55 C854.807992,91.2340034 853.03201,91.576 851.04,91.576 C849.07199,91.576 847.302008,91.2340034 845.73,90.55 C844.157992,89.8659966 842.832005,88.924006 841.752,87.724 C840.671995,86.523994 839.844003,85.1140081 839.268,83.494 C838.691997,81.8739919 838.404,80.1280094 838.404,78.256 Z M868.528,65.296 L868.528,91 L873.82,91 L873.82,73.792 L873.892,73.792 L884.584,91 L890.236,91 L890.236,65.296 L884.944,65.296 L884.944,82.54 L884.872,82.54 L874.144,65.296 L868.528,65.296 Z M548.744,122.984 L548.744,115.82 L544.892,115.82 L544.892,122.984 L537.728,122.984 L537.728,126.836 L544.892,126.836 L544.892,134 L548.744,134 L548.744,126.836 L555.908,126.836 L555.908,122.984 L548.744,122.984 Z M575.944,125.468 L570.472,125.468 C570.448,127.052008 570.735997,128.419994 571.336,129.572 C571.936003,130.724006 572.745995,131.671996 573.766,132.416 C574.786005,133.160004 575.961993,133.705998 577.294,134.054 C578.626007,134.402002 579.999993,134.576 581.416,134.576 C583.168009,134.576 584.709993,134.372002 586.042,133.964 C587.374007,133.555998 588.489995,132.986004 589.39,132.254 C590.290005,131.521996 590.967998,130.652005 591.424,129.644 C591.880002,128.635995 592.108,127.544006 592.108,126.368 C592.108,124.927993 591.802003,123.746005 591.19,122.822 C590.577997,121.897995 589.852004,121.160003 589.012,120.608 C588.171996,120.055997 587.326004,119.654001 586.474,119.402 C585.621996,119.149999 584.956002,118.976 584.476,118.88 C582.867992,118.471998 581.566005,118.136001 580.57,117.872 C579.573995,117.607999 578.794003,117.344001 578.23,117.08 C577.665997,116.815999 577.288001,116.528002 577.096,116.216 C576.903999,115.903998 576.808,115.496003 576.808,114.992 C576.808,114.439997 576.927999,113.984002 577.168,113.624 C577.408001,113.263998 577.713998,112.964001 578.086,112.724 C578.458002,112.483999 578.871998,112.316 579.328,112.22 C579.784002,112.124 580.239998,112.076 580.696,112.076 C581.392003,112.076 582.033997,112.135999 582.622,112.256 C583.210003,112.376001 583.731998,112.579999 584.188,112.868 C584.644002,113.156001 585.009999,113.551997 585.286,114.056 C585.562001,114.560003 585.724,115.195996 585.772,115.964 L591.244,115.964 C591.244,114.475993 590.962003,113.210005 590.398,112.166 C589.833997,111.121995 589.072005,110.264003 588.112,109.592 C587.151995,108.919997 586.054006,108.434001 584.818,108.134 C583.581994,107.833998 582.292007,107.684 580.948,107.684 C579.795994,107.684 578.644006,107.839998 577.492,108.152 C576.339994,108.464002 575.308005,108.943997 574.396,109.592 C573.483995,110.240003 572.746003,111.049995 572.182,112.022 C571.617997,112.994005 571.336,114.139993 571.336,115.46 C571.336,116.636006 571.557998,117.637996 572.002,118.466 C572.446002,119.294004 573.027996,119.983997 573.748,120.536 C574.468004,121.088003 575.283995,121.537998 576.196,121.886 C577.108005,122.234002 578.043995,122.527999 579.004,122.768 C579.940005,123.032001 580.863995,123.271999 581.776,123.488 C582.688005,123.704001 583.503996,123.955999 584.224,124.244 C584.944004,124.532001 585.525998,124.891998 585.97,125.324 C586.414002,125.756002 586.636,126.319997 586.636,127.016 C586.636,127.664003 586.468002,128.197998 586.132,128.618 C585.795998,129.038002 585.376003,129.367999 584.872,129.608 C584.367997,129.848001 583.828003,130.01 583.252,130.094 C582.675997,130.178 582.136003,130.22 581.632,130.22 C580.887996,130.22 580.168003,130.130001 579.472,129.95 C578.775997,129.769999 578.170003,129.494002 577.654,129.122 C577.137997,128.749998 576.724002,128.264003 576.412,127.664 C576.099998,127.063997 575.944,126.332004 575.944,125.468 Z M602.144,113.048 L594.44,113.048 L594.44,108.296 L615.5,108.296 L615.5,113.048 L607.796,113.048 L607.796,134 L602.144,134 L602.144,113.048 Z M622.62,124.064 L629.28,124.064 L626.04,114.632 L625.968,114.632 L622.62,124.064 Z M623.16,108.296 L628.956,108.296 L638.568,134 L632.7,134 L630.756,128.276 L621.144,128.276 L619.128,134 L613.44,134 L623.16,108.296 Z M644.176,113.048 L636.472,113.048 L636.472,108.296 L657.532,108.296 L657.532,113.048 L649.828,113.048 L649.828,134 L644.176,134 L644.176,113.048 Z M661.484,108.296 L661.484,134 L680.996,134 L680.996,129.248 L667.136,129.248 L667.136,122.948 L679.592,122.948 L679.592,118.556 L667.136,118.556 L667.136,113.048 L680.708,113.048 L680.708,108.296 L661.484,108.296 Z" id="UPDATE-FUNCTION-+-ST" fill="#FFFFFF"></path>
            <path d="M1168.484,65.296 L1168.484,91 L1187.996,91 L1187.996,86.248 L1174.136,86.248 L1174.136,79.948 L1186.592,79.948 L1186.592,75.556 L1174.136,75.556 L1174.136,70.048 L1187.708,70.048 L1187.708,65.296 L1168.484,65.296 Z M1192.812,65.296 L1192.812,91 L1198.464,91 L1198.464,80.38 L1209.228,80.38 L1209.228,75.988 L1198.464,75.988 L1198.464,70.048 L1210.884,70.048 L1210.884,65.296 L1192.812,65.296 Z M1215.16,65.296 L1215.16,91 L1220.812,91 L1220.812,80.38 L1231.576,80.38 L1231.576,75.988 L1220.812,75.988 L1220.812,70.048 L1233.232,70.048 L1233.232,65.296 L1215.16,65.296 Z M1237.508,65.296 L1237.508,91 L1257.02,91 L1257.02,86.248 L1243.16,86.248 L1243.16,79.948 L1255.616,79.948 L1255.616,75.556 L1243.16,75.556 L1243.16,70.048 L1256.732,70.048 L1256.732,65.296 L1237.508,65.296 Z M1278.972,73.936 L1284.444,73.936 C1284.276,72.4479926 1283.868,71.1280058 1283.22,69.976 C1282.572,68.8239942 1281.75,67.8580039 1280.754,67.078 C1279.758,66.2979961 1278.63001,65.704002 1277.37,65.296 C1276.10999,64.887998 1274.77201,64.684 1273.356,64.684 C1271.38799,64.684 1269.61801,65.0319965 1268.046,65.728 C1266.47399,66.4240035 1265.14801,67.3839939 1264.068,68.608 C1262.98799,69.8320061 1262.16,71.2659918 1261.584,72.91 C1261.008,74.5540082 1260.72,76.3359904 1260.72,78.256 C1260.72,80.1280094 1261.008,81.8739919 1261.584,83.494 C1262.16,85.1140081 1262.98799,86.523994 1264.068,87.724 C1265.14801,88.924006 1266.47399,89.8659966 1268.046,90.55 C1269.61801,91.2340034 1271.38799,91.576 1273.356,91.576 C1274.94001,91.576 1276.39199,91.3360024 1277.712,90.856 C1279.03201,90.3759976 1280.184,89.6800046 1281.168,88.768 C1282.152,87.8559954 1282.944,86.7520065 1283.544,85.456 C1284.144,84.1599935 1284.516,82.708008 1284.66,81.1 L1279.188,81.1 C1278.972,82.8280086 1278.378,84.2199947 1277.406,85.276 C1276.434,86.3320053 1275.08401,86.86 1273.356,86.86 C1272.08399,86.86 1271.004,86.6140025 1270.116,86.122 C1269.228,85.6299975 1268.508,84.9760041 1267.956,84.16 C1267.404,83.3439959 1267.002,82.4260051 1266.75,81.406 C1266.498,80.3859949 1266.372,79.3360054 1266.372,78.256 C1266.372,77.1279944 1266.498,76.0360053 1266.75,74.98 C1267.002,73.9239947 1267.404,72.9820041 1267.956,72.154 C1268.508,71.3259959 1269.228,70.6660025 1270.116,70.174 C1271.004,69.6819975 1272.08399,69.436 1273.356,69.436 C1274.052,69.436 1274.718,69.5499989 1275.354,69.778 C1275.99,70.0060011 1276.56,70.323998 1277.064,70.732 C1277.568,71.140002 1277.988,71.6139973 1278.324,72.154 C1278.66,72.6940027 1278.876,73.2879968 1278.972,73.936 Z M1295.2,70.048 L1295.2,91 L1300.852,91 L1300.852,70.048 L1308.556,70.048 L1308.556,65.296 L1287.496,65.296 L1287.496,70.048 L1295.2,70.048 Z M1316.36,82.468 L1310.888,82.468 C1310.864,84.0520079 1311.152,85.4199942 1311.752,86.572 C1312.352,87.7240058 1313.16199,88.6719963 1314.182,89.416 C1315.20201,90.1600037 1316.37799,90.7059983 1317.71,91.054 C1319.04201,91.4020017 1320.41599,91.576 1321.832,91.576 C1323.58401,91.576 1325.12599,91.372002 1326.458,90.964 C1327.79001,90.555998 1328.906,89.9860037 1329.806,89.254 C1330.706,88.5219963 1331.384,87.652005 1331.84,86.644 C1332.296,85.635995 1332.524,84.5440059 1332.524,83.368 C1332.524,81.9279928 1332.218,80.7460046 1331.606,79.822 C1330.994,78.8979954 1330.268,78.1600028 1329.428,77.608 C1328.588,77.0559972 1327.742,76.6540013 1326.89,76.402 C1326.038,76.1499987 1325.372,75.9760005 1324.892,75.88 C1323.28399,75.471998 1321.982,75.1360013 1320.986,74.872 C1319.99,74.6079987 1319.21,74.3440013 1318.646,74.08 C1318.082,73.8159987 1317.704,73.5280016 1317.512,73.216 C1317.32,72.9039984 1317.224,72.4960025 1317.224,71.992 C1317.224,71.4399972 1317.344,70.9840018 1317.584,70.624 C1317.824,70.2639982 1318.13,69.9640012 1318.502,69.724 C1318.874,69.4839988 1319.288,69.3160005 1319.744,69.22 C1320.2,69.1239995 1320.656,69.076 1321.112,69.076 C1321.808,69.076 1322.45,69.1359994 1323.038,69.256 C1323.626,69.3760006 1324.148,69.5799986 1324.604,69.868 C1325.06,70.1560014 1325.426,70.5519975 1325.702,71.056 C1325.978,71.5600025 1326.14,72.1959962 1326.188,72.964 L1331.66,72.964 C1331.66,71.4759926 1331.378,70.2100052 1330.814,69.166 C1330.25,68.1219948 1329.488,67.2640034 1328.528,66.592 C1327.568,65.9199966 1326.47001,65.4340015 1325.234,65.134 C1323.99799,64.8339985 1322.70801,64.684 1321.364,64.684 C1320.21199,64.684 1319.06001,64.8399984 1317.908,65.152 C1316.75599,65.4640016 1315.724,65.9439968 1314.812,66.592 C1313.9,67.2400032 1313.162,68.0499951 1312.598,69.022 C1312.034,69.9940049 1311.752,71.1399934 1311.752,72.46 C1311.752,73.6360059 1311.974,74.6379959 1312.418,75.466 C1312.862,76.2940041 1313.444,76.9839972 1314.164,77.536 C1314.884,78.0880028 1315.7,78.5379983 1316.612,78.886 C1317.524,79.2340017 1318.46,79.5279988 1319.42,79.768 C1320.356,80.0320013 1321.28,80.2719989 1322.192,80.488 C1323.104,80.7040011 1323.92,80.9559986 1324.64,81.244 C1325.36,81.5320014 1325.942,81.8919978 1326.386,82.324 C1326.83,82.7560022 1327.052,83.3199965 1327.052,84.016 C1327.052,84.6640032 1326.884,85.1979979 1326.548,85.618 C1326.212,86.0380021 1325.792,86.3679988 1325.288,86.608 C1324.784,86.8480012 1324.244,87.0099996 1323.668,87.094 C1323.092,87.1780004 1322.552,87.22 1322.048,87.22 C1321.304,87.22 1320.584,87.1300009 1319.888,86.95 C1319.192,86.7699991 1318.586,86.4940019 1318.07,86.122 C1317.554,85.7499981 1317.14,85.264003 1316.828,84.664 C1316.516,84.063997 1316.36,83.3320043 1316.36,82.468 Z" id="EFFECTS" fill="#FFFFFF"></path>
            <path d="M160.98929,81.0397144 L167.510933,81.0397144 L164.338242,71.8036591 L164.267738,71.8036591 L160.98929,81.0397144 Z M161.518072,65.599286 L167.193664,65.599286 L176.605979,90.7692994 L170.859884,90.7692994 L168.95627,85.1642124 L159.543954,85.1642124 L157.569835,90.7692994 L152,90.7692994 L161.518072,65.599286 Z M195.57162,74.0597947 L200.929942,74.0597947 C200.765431,72.6026998 200.365911,71.310135 199.73137,70.1820616 C199.096829,69.0539881 198.291913,68.1080657 197.3166,67.344266 C196.341286,66.5804662 195.236731,65.9988121 194.0029,65.599286 C192.76907,65.19976 191.458879,65 190.072289,65 C188.145164,65 186.411952,65.3407671 184.872602,66.0223115 C183.333251,66.7038559 182.034811,67.643903 180.977242,68.842481 C179.919673,70.0410591 179.108883,71.4452545 178.544846,73.0551093 C177.980809,74.6649642 177.698795,76.4099266 177.698795,78.2900491 C177.698795,80.1231685 177.980809,81.8328792 178.544846,83.4192325 C179.108883,85.0055858 179.919673,86.38628 180.977242,87.5613565 C182.034811,88.7364331 183.333251,89.6588543 184.872602,90.3286479 C186.411952,90.9984415 188.145164,91.3333333 190.072289,91.3333333 C191.62339,91.3333333 193.045211,91.0983216 194.337796,90.6282909 C195.63038,90.1582603 196.758436,89.4767262 197.721999,88.583668 C198.685562,87.6906098 199.461101,86.6095557 200.048639,85.340473 C200.636177,84.0713904 201.000446,82.6495691 201.141455,81.0749665 L195.783133,81.0749665 C195.571619,82.7670767 194.989965,84.1301451 194.038153,85.1642124 C193.086341,86.1982798 191.764399,86.7153057 190.072289,86.7153057 C188.826708,86.7153057 187.769155,86.4744186 186.899598,85.9926372 C186.030042,85.5108558 185.325006,84.8704487 184.784471,84.0713967 C184.243936,83.2723447 183.850291,82.3734246 183.603525,81.3746095 C183.356759,80.3757945 183.233378,79.347618 183.233378,78.2900491 C183.233378,77.1854771 183.356759,76.1161735 183.603525,75.0821062 C183.850291,74.0480389 184.243936,73.1256176 184.784471,72.3148148 C185.325006,71.504012 186.030042,70.8577296 186.899598,70.3759482 C187.769155,69.8941669 188.826708,69.6532798 190.072289,69.6532798 C190.753834,69.6532798 191.405991,69.7649104 192.028782,69.9881749 C192.651572,70.2114395 193.209725,70.5228301 193.703257,70.9223561 C194.19679,71.3218821 194.60806,71.7860304 194.937082,72.3148148 C195.266103,72.8435993 195.477614,73.4252534 195.57162,74.0597947 Z M210.483266,70.2525658 L210.483266,90.7692994 L216.017849,90.7692994 L216.017849,70.2525658 L223.561803,70.2525658 L223.561803,65.599286 L202.939313,65.599286 L202.939313,70.2525658 L210.483266,70.2525658 Z M226.452477,65.599286 L226.452477,90.7692994 L231.987059,90.7692994 L231.987059,65.599286 L226.452477,65.599286 Z M241.293619,78.2900491 C241.293619,79.347618 241.417,80.3757945 241.663766,81.3746095 C241.910532,82.3734246 242.304177,83.2723447 242.844712,84.0713967 C243.385247,84.8704487 244.090283,85.5108558 244.959839,85.9926372 C245.829396,86.4744186 246.886949,86.7153057 248.13253,86.7153057 C249.378111,86.7153057 250.435664,86.4744186 251.305221,85.9926372 C252.174778,85.5108558 252.879813,84.8704487 253.420348,84.0713967 C253.960883,83.2723447 254.354528,82.3734246 254.601294,81.3746095 C254.84806,80.3757945 254.971441,79.347618 254.971441,78.2900491 C254.971441,77.1854771 254.84806,76.1161735 254.601294,75.0821062 C254.354528,74.0480389 253.960883,73.1256176 253.420348,72.3148148 C252.879813,71.504012 252.174778,70.8577296 251.305221,70.3759482 C250.435664,69.8941669 249.378111,69.6532798 248.13253,69.6532798 C246.886949,69.6532798 245.829396,69.8941669 244.959839,70.3759482 C244.090283,70.8577296 243.385247,71.504012 242.844712,72.3148148 C242.304177,73.1256176 241.910532,74.0480389 241.663766,75.0821062 C241.417,76.1161735 241.293619,77.1854771 241.293619,78.2900491 Z M235.759036,78.2900491 C235.759036,76.4099266 236.04105,74.6649642 236.605087,73.0551093 C237.169124,71.4452545 237.979914,70.0410591 239.037483,68.842481 C240.095052,67.643903 241.393492,66.7038559 242.932842,66.0223115 C244.472193,65.3407671 246.205405,65 248.13253,65 C250.083157,65 251.822244,65.3407671 253.349844,66.0223115 C254.877443,66.7038559 256.170008,67.643903 257.227577,68.842481 C258.285146,70.0410591 259.095936,71.4452545 259.659973,73.0551093 C260.22401,74.6649642 260.506024,76.4099266 260.506024,78.2900491 C260.506024,80.1231685 260.22401,81.8328792 259.659973,83.4192325 C259.095936,85.0055858 258.285146,86.38628 257.227577,87.5613565 C256.170008,88.7364331 254.877443,89.6588543 253.349844,90.3286479 C251.822244,90.9984415 250.083157,91.3333333 248.13253,91.3333333 C246.205405,91.3333333 244.472193,90.9984415 242.932842,90.3286479 C241.393492,89.6588543 240.095052,88.7364331 239.037483,87.5613565 C237.979914,86.38628 237.169124,85.0055858 236.605087,83.4192325 C236.04105,81.8328792 235.759036,80.1231685 235.759036,78.2900491 Z M264.278001,65.599286 L264.278001,90.7692994 L269.460062,90.7692994 L269.460062,73.9187863 L269.530567,73.9187863 L280.000446,90.7692994 L285.535029,90.7692994 L285.535029,65.599286 L280.352967,65.599286 L280.352967,82.4850513 L280.282463,82.4850513 L269.777332,65.599286 L264.278001,65.599286 Z M294.171798,82.4145471 L288.813476,82.4145471 C288.789975,83.9656481 289.071989,85.3052152 289.659527,86.4332887 C290.247065,87.5613622 291.04023,88.4896587 292.039045,89.2182062 C293.03786,89.9467536 294.189418,90.4814054 295.493753,90.8221776 C296.798088,91.1629498 298.14353,91.3333333 299.53012,91.3333333 C301.245732,91.3333333 302.755683,91.1335733 304.060018,90.7340473 C305.364353,90.3345213 306.457158,89.7763683 307.338465,89.0595716 C308.219772,88.3427749 308.883681,87.4908572 309.33021,86.5037929 C309.776739,85.5167287 310,84.4474251 310,83.2958501 C310,81.8857582 309.70036,80.7283252 309.101071,79.8235163 C308.501782,78.9187074 307.790871,78.1960461 306.968318,77.6555109 C306.145764,77.1149757 305.317348,76.721331 304.483043,76.4745649 C303.648739,76.2277989 302.996581,76.0574153 302.526551,75.9634092 C300.951948,75.5638832 299.677009,75.2348667 298.701696,74.9763498 C297.726382,74.717833 296.962594,74.45932 296.410308,74.2008032 C295.858022,73.9422864 295.487878,73.6602722 295.299866,73.3547523 C295.111854,73.0492324 295.017849,72.6497124 295.017849,72.1561803 C295.017849,71.6156451 295.135355,71.1691227 295.37037,70.8165997 C295.605386,70.4640768 295.905026,70.170312 296.269299,69.9352967 C296.633573,69.7002814 297.038968,69.5357732 297.485498,69.4417671 C297.932027,69.3477609 298.378549,69.3007586 298.825078,69.3007586 C299.506622,69.3007586 300.135279,69.3595115 300.711066,69.4770192 C301.286854,69.5945268 301.798005,69.7942869 302.244534,70.0763052 C302.691063,70.3583236 303.049456,70.746093 303.319723,71.2396252 C303.589991,71.7331573 303.748624,72.3559385 303.795627,73.1079875 L309.153949,73.1079875 C309.153949,71.6508926 308.87781,70.4112055 308.325524,69.3888889 C307.773238,68.3665723 307.027076,67.5264052 306.087015,66.8683623 C305.146954,66.2103195 304.071775,65.7344206 302.861446,65.4406515 C301.651117,65.1468824 300.387929,65 299.071843,65 C297.943769,65 296.815713,65.1527577 295.687639,65.4582776 C294.559566,65.7637975 293.549015,66.233821 292.655957,66.8683623 C291.762899,67.5029037 291.040238,68.2960684 290.487952,69.2478804 C289.935666,70.1996924 289.659527,71.3218737 289.659527,72.6144578 C289.659527,73.7660328 289.876913,74.747207 290.311691,75.5580098 C290.74647,76.3688126 291.316373,77.0444715 292.021419,77.5850067 C292.726465,78.1255419 293.525505,78.566189 294.418563,78.9069612 C295.311621,79.2477334 296.228167,79.5356228 297.168228,79.7706381 C298.084788,80.0291549 298.989584,80.2641667 299.882642,80.4756805 C300.7757,80.6871943 301.57474,80.9339566 302.279786,81.215975 C302.984832,81.4979934 303.554735,81.850511 303.989514,82.2735386 C304.424292,82.6965661 304.641678,83.2488438 304.641678,83.9303882 C304.641678,84.5649295 304.47717,85.0878308 304.148148,85.4991075 C303.819127,85.9103843 303.407856,86.2335255 302.914324,86.4685408 C302.420792,86.7035561 301.892015,86.8621891 301.327979,86.9444444 C300.763942,87.0266998 300.235165,87.0678269 299.741633,87.0678269 C299.013086,87.0678269 298.30805,86.9796974 297.626506,86.803436 C296.944962,86.6271745 296.351557,86.3569109 295.846274,85.9926372 C295.340991,85.6283635 294.935596,85.1524646 294.630076,84.5649264 C294.324556,83.9773881 294.171798,83.2606022 294.171798,82.4145471 Z" id="ACTIONS" fill="#FFFFFF"></path>
        </g>
    </g>
</svg>