<?xml version="1.0" encoding="UTF-8"?>
<svg width="1920px" height="1080px" viewBox="0 0 1920 1080" version="1.1" xmlns="http://www.w3.org/2000/svg" xmlns:xlink="http://www.w3.org/1999/xlink">
    <!-- Generator: Sketch 46.2 (44496) - http://www.bohemiancoding.com/sketch -->
    <title>blueprintOverOriginalApproach</title>
    <desc>Created with Sketch.</desc>
    <defs>
        <rect id="path-1" x="0" y="0" width="702" height="538"></rect>
    </defs>
    <g id="Actual-Slides" stroke="none" stroke-width="1" fill="none" fill-rule="evenodd">
        <g id="blueprintOverOriginalApproach">
            <g id="Action" transform="translate(343.000000, 395.000000)">
                <rect id="Rectangle" fill="#FFFFFF" x="0" y="0" width="306" height="284"></rect>
                <g id="Group" transform="translate(58.000000, 52.000000)" fill-rule="nonzero" fill="#2E2E2E">
                    <path d="M130,32.197033 C120.800433,34.8563102 113.493601,40.3726619 109.952428,47.3175509 C107.617322,46.4604286 105.13476,45.9989011 102.537753,45.9989011 C89.8146204,45.9989011 79.5168281,57.1854471 79.5168281,70.9873152 C79.5168281,79.8002914 83.6984492,87.5363704 90.0369066,92 L26.7843841,92 C26.5642988,92 26.3442134,91.9538473 26.1241281,91.9538473 C11.6425137,91.7560498 0,79.5387592 0,64.4599986 C0,49.4933231 11.4004199,37.3617448 25.6619489,36.9002174 C29.5574592,15.8457753 46.7901402,0 67.4121352,0 C84.3587052,0 98.9943794,10.703041 105.839033,26.1971764 C107.575506,25.8675139 109.360398,25.7356489 111.187106,25.7356489 C118.225435,25.7356489 124.742162,28.1289984 130,32.197033 Z" id="Shape"></path>
                    <path d="M190,76.6145038 C190,85.0931298 180.442079,92 168.627426,92 C168.209267,92 167.811021,92 167.412774,91.9335878 C167.213651,92 166.965853,92 166.724692,92 L111.412649,92 C110.99449,92 110.569693,92 110.151534,91.9335878 C109.733375,91.9557252 109.286454,92 108.824045,92 L104.730954,92 C104.352619,92 104.000835,91.9535115 103.646838,91.9114504 C92.6286788,91.0923664 84,81.9938931 84,70.880916 C84,59.2587786 93.5136715,49.8061069 105.239825,49.8061069 C106.478814,49.8061069 107.695679,49.9167939 108.868295,50.1160305 C110.441369,50.3816794 111.945857,50.8244275 113.38397,51.4 C113.711417,50.6473282 114.114089,49.8946565 114.53446,49.1641221 C118.406303,42.4122137 125.484033,37.2541985 134.070674,35.1068702 C136.900438,34.3763359 139.909413,34 143.006888,34 C160.551868,34 174.780338,46.1755725 174.780338,61.2290076 C174.780338,61.4503817 174.780338,61.6717557 174.753788,61.8931298 C175.574619,62.070229 176.391025,62.2694656 177.169818,62.5351145 C184.709956,64.8816794 190,70.3252672 190,76.6145038 Z" id="Shape"></path>
                    <polygon id="Shape" points="84.8891332 144.5 87.6843467 138.969697 66 138.969697 79.6131953 108 109.564424 108 96.5252264 129.391212 117 129.391212 66 181"></polygon>
                </g>
            </g>
            <g id="Effect" transform="translate(914.000000, 268.000000)">
                <g id="Lines">
                    <mask id="mask-2" fill="white">
                        <use xlink:href="#path-1"></use>
                    </mask>
                    <use id="Mask" fill="#2E2E2E" xlink:href="#path-1"></use>
                    <g id="Group-2" mask="url(#mask-2)" fill="#FFDE10">
                        <g transform="translate(-516.000000, -83.000000)">
                            <rect id="Rectangle-3" transform="translate(846.534361, 426.534361) rotate(-45.000000) translate(-846.534361, -426.534361) " x="365.534361" y="375.034361" width="962" height="103"></rect>
                            <rect id="Rectangle-3-Copy" transform="translate(636.534361, 376.534361) rotate(-45.000000) translate(-636.534361, -376.534361) " x="155.534361" y="325.034361" width="962" height="103"></rect>
                            <rect id="Rectangle-3-Copy-2" transform="translate(376.534361, 376.534361) rotate(-45.000000) translate(-376.534361, -376.534361) " x="-104.465639" y="325.034361" width="962" height="103"></rect>
                            <rect id="Rectangle-3" transform="translate(1106.534361, 426.534361) rotate(-45.000000) translate(-1106.534361, -426.534361) " x="625.534361" y="375.034361" width="962" height="103"></rect>
                            <rect id="Rectangle-3-Copy" transform="translate(896.534361, 376.534361) rotate(-45.000000) translate(-896.534361, -376.534361) " x="415.534361" y="325.034361" width="962" height="103"></rect>
                            <rect id="Rectangle-3-Copy-2" transform="translate(636.534361, 376.534361) rotate(-45.000000) translate(-636.534361, -376.534361) " x="155.534361" y="325.034361" width="962" height="103"></rect>
                            <rect id="Rectangle-3" transform="translate(1366.534361, 426.534361) rotate(-45.000000) translate(-1366.534361, -426.534361) " x="885.534361" y="375.034361" width="962" height="103"></rect>
                            <rect id="Rectangle-3-Copy-3" transform="translate(1616.534361, 426.534361) rotate(-45.000000) translate(-1616.534361, -426.534361) " x="1135.53436" y="375.034361" width="962" height="103"></rect>
                            <rect id="Rectangle-3-Copy" transform="translate(1156.534361, 376.534361) rotate(-45.000000) translate(-1156.534361, -376.534361) " x="675.534361" y="325.034361" width="962" height="103"></rect>
                            <rect id="Rectangle-3-Copy-2" transform="translate(896.534361, 376.534361) rotate(-45.000000) translate(-896.534361, -376.534361) " x="415.534361" y="325.034361" width="962" height="103"></rect>
                        </g>
                    </g>
                </g>
                <g id="Fire-Deparment" transform="translate(252.000000, 103.000000)">
                    <circle id="Oval-Copy-2" fill="#494949" cx="166" cy="166" r="166"></circle>
                    <path d="M264,146.750556 L255.769913,146.750556 L255.769913,130.249444 L264,130.249444 L264,122 L157,122 L157,130.249444 L165.232305,130.249444 L165.232305,146.750556 L157,146.750556 L157,155 L264,155 L264,146.750556 Z M181.692478,146.750556 L173.462391,146.750556 L173.462391,130.249444 L181.692478,130.249444 L181.692478,146.750556 Z M198.152652,146.750556 L189.922565,146.750556 L189.922565,130.249444 L198.152652,130.249444 L198.152652,146.750556 Z M214.615043,146.750556 L206.384957,146.750556 L206.384957,130.249444 L214.615043,130.249444 L214.615043,146.750556 Z M231.077435,146.750556 L222.84513,146.750556 L222.84513,130.249444 L231.077435,130.249444 L231.077435,146.750556 Z M247.539826,146.750556 L239.307522,146.750556 L239.307522,130.249444 L247.539826,130.249444 L247.539826,146.750556 Z" id="Shape" fill="#FFFFFF" fill-rule="nonzero" transform="translate(210.500000, 138.500000) scale(-1, 1) translate(-210.500000, -138.500000) "></path>
                    <path d="M226.5,187 C215.176169,187 206,196.180588 206,207.5 C206,218.823831 215.176169,228 226.5,228 C237.823831,228 247,218.823831 247,207.5 C247,196.182798 237.823831,187 226.5,187 M226.5,216.726989 C221.413667,216.726989 217.273011,212.590752 217.273011,207.50221 C217.273011,202.418086 221.413667,198.27743 226.5,198.27743 C231.586333,198.27743 235.724779,202.418086 235.724779,207.50221 C235.724779,212.590752 231.586333,216.726989 226.5,216.726989" id="Shape" fill="#FFFFFF" fill-rule="nonzero" transform="translate(226.500000, 207.500000) scale(-1, 1) translate(-226.500000, -207.500000) "></path>
                    <path d="M102.5,187 C91.1761694,187 82,196.180588 82,207.5 C82,218.823831 91.1761694,228 102.5,228 C113.823831,228 123,218.823831 123,207.5 C123,196.182798 113.823831,187 102.5,187 M102.5,216.726989 C97.4136667,216.726989 93.275221,212.590752 93.275221,207.50221 C93.275221,202.418086 97.4136667,198.27743 102.5,198.27743 C107.586333,198.27743 111.726989,202.418086 111.726989,207.50221 C111.726989,212.590752 107.586333,216.726989 102.5,216.726989" id="Shape" fill="#FFFFFF" fill-rule="nonzero" transform="translate(102.500000, 207.500000) scale(-1, 1) translate(-102.500000, -207.500000) "></path>
                    <path d="M256.794567,121.459833 L240.381489,121.459833 L240.381489,105 L223.968411,105 L223.968411,121.459833 L195.246078,121.459833 C188.451333,121.459833 182.939033,126.990798 182.939033,133.805816 L182.939033,179.073682 L182.939033,195.535732 L174.731389,195.535732 L174.731389,179.073682 L174.731389,162.613849 L68.0519111,162.613849 L68.0519111,179.073682 L80.3611667,179.073682 C68.3968444,179.0759 66,212 66,212 L76.5868,212 C76.3944333,210.649416 76.2595556,209.283307 76.2595556,207.883933 C76.2595556,191.978528 89.1193778,179.0759 104.979678,179.0759 C120.839978,179.0759 133.6998,191.97631 133.6998,207.883933 C133.6998,209.283307 133.571556,210.649416 133.379189,212 L199.677144,212 C199.484778,210.649416 199.3499,209.283307 199.3499,207.883933 C199.3499,191.978528 212.209722,179.0759 228.070022,179.0759 C243.930322,179.0759 256.792356,191.97631 256.792356,207.883933 C256.792356,209.283307 256.6619,210.649416 256.469533,212 L265,212 L265,179.0759 L256.794567,121.459833 Z M207.557544,146.154017 L191.144467,146.154017 L191.144467,129.691967 L207.557544,129.691967 L207.557544,146.154017 Z M215.762978,162.616067 L215.762978,129.691967 L223.968411,129.691967 L240.381489,129.691967 L248.586922,129.691967 L252.688533,162.616067 L215.762978,162.616067 L215.762978,162.616067 Z" id="Shape" fill="#FFFFFF" fill-rule="nonzero" transform="translate(165.500000, 158.500000) scale(-1, 1) translate(-165.500000, -158.500000) "></path>
                </g>
            </g>
            <g id="Robot" transform="translate(80.000000, 699.000000)" fill-rule="nonzero" fill="#494949">
                <path d="M221.538673,99 L213.833624,111.741368 C216.564275,113.788352 218.195832,117.258086 218.195832,121.025677 C218.195832,127.138112 213.956062,132.112981 208.748177,132.112981 C203.528904,132.112981 199.283438,127.141281 199.283438,121.025677 C199.283438,117.258086 200.914995,113.788352 203.645647,111.738199 L195.93775,99 C189.39159,103.905157 185.482118,112.137456 185.482118,121.025677 C185.482118,132.87347 192.372812,142.927775 201.837551,146.280267 L201.837551,168.778081 C201.837551,172.87205 199.024326,176.20236 195.567589,176.20236 L156.803162,176.20236 C149.846977,161.987544 136.29338,152.284965 120.79786,152.284965 L114.758536,152.284965 C99.2658632,152.284965 85.7094185,161.987544 78.753234,176.20236 L36.4267164,176.20236 C32.9699796,176.20236 30.156754,172.87205 30.156754,168.778081 L30.156754,146.280267 C39.6214929,142.927775 46.5121873,132.87347 46.5121873,121.025677 C46.5121873,112.137456 42.6027148,103.905157 36.0565551,99 L28.3515059,111.741368 C31.0821571,113.785184 32.7137141,117.258086 32.7137141,121.025677 C32.7137141,127.138112 28.4682491,132.112981 23.2489752,132.112981 C18.0410908,132.112981 13.8013206,127.141281 13.8013206,121.025677 C13.8013206,117.258086 15.4328776,113.788352 18.1635288,111.741368 L10.4584796,99 C3.9094725,103.905157 0,112.140625 0,121.025677 C0,132.876639 6.89069442,142.934113 16.3554334,146.283435 L16.3554334,168.778081 C16.3554334,181.338833 25.3588944,191.557911 36.4267164,191.557911 L74.2401139,191.557911 C73.9781536,193.627076 73.7987678,195.721591 73.7987678,197.866805 L73.7987678,230.986123 L110.980044,230.986123 L110.980044,244 C113.124132,243.220498 115.404895,242.786385 117.779621,242.786385 C120.154348,242.786385 122.435111,243.220498 124.579199,244 L124.579199,230.986123 L161.760475,230.986123 L161.760475,197.866805 C161.760475,195.721591 161.578242,193.627076 161.319129,191.557911 L195.573284,191.557911 C206.638258,191.557911 215.644567,181.338833 215.644567,168.778081 L215.644567,146.283435 C225.109306,142.934113 232,132.879808 232,121.025677 C231.997153,112.140625 228.08768,103.905157 221.538673,99 Z M128.710769,194.698099 L108.508505,216.397399 C107.406564,217.579327 105.985714,218.168706 104.567712,218.168706 C103.081372,218.168706 101.597879,217.52229 100.484548,216.238964 C98.3091387,213.729349 98.3717813,209.730441 100.626918,207.306381 L110.718083,196.466237 L103.938437,196.466237 C101.703233,196.466237 99.675888,195.005463 98.7618744,192.73667 C97.8450134,190.467876 98.2123273,187.809331 99.6986671,185.952469 L116.962419,164.354567 C119.046712,161.746722 122.634429,161.515406 124.974987,163.834899 C127.318393,166.151224 127.526252,170.146962 125.44196,172.751639 L116.580868,183.835774 L124.769975,183.835774 C127.084906,183.835774 129.166352,185.401115 130.03196,187.78715 C130.897567,190.176355 130.373647,192.90778 128.710769,194.698099 Z" id="Shape"></path>
                <path d="M77.5604492,109 L156.439556,109 C157.827985,109 159,107.574359 159,105.88547 L159,94.1145299 C159,92.425641 157.827985,91 156.439556,91 L77.5604492,91 C76.1720196,91 75.000005,92.425641 75.000005,94.1145299 L75.000005,105.88547 C74.9971944,107.574359 76.1720196,109 77.5604492,109 Z" id="Shape"></path>
                <polygon id="Shape" points="121 0 118 0 115 0 115 12 121 12"></polygon>
                <polygon id="Shape" points="133 30 142 30 142 27 142 24 133 24"></polygon>
                <polygon id="Shape" points="102 24 93 24 93 27 93 30 102 30"></polygon>
                <rect id="Rectangle-path" transform="translate(133.000000, 12.000000) rotate(45.000000) translate(-133.000000, -12.000000) " x="130" y="6" width="6" height="12"></rect>
                <rect id="Rectangle-path" transform="translate(103.500000, 12.000000) rotate(45.000000) translate(-103.500000, -12.000000) " x="99" y="9" width="9" height="6"></rect>
                <path d="M174.646299,58.0931891 L131.28512,58.0931891 L131.28512,46.0425375 L122.355829,46.0425375 L122.355829,36.616179 C125.205423,35.0019671 127.181254,31.7000246 127.181254,27.8418982 C127.181254,22.4079174 123.297238,18 118.502818,18 C113.708397,18 109.824381,22.4047209 109.824381,27.8418982 C109.824381,31.7000246 111.800212,35.0051635 114.649806,36.616179 L114.649806,46.0425375 L105.717696,46.0425375 L105.717696,58.0931891 L62.3536996,58.0931891 C58.3090239,58.0931891 55,61.8458323 55,66.4327514 L55,139.660438 C55,144.247357 58.3090239,148 62.3536996,148 L174.646299,148 C178.690974,148 181.999998,144.247357 181.999998,139.660438 L181.999998,66.4359479 C182.002817,61.8458323 178.693793,58.0931891 174.646299,58.0931891 Z M170.897575,104.080649 C170.897575,112.113351 165.136378,118.646914 158.053263,118.646914 L78.9495536,118.646914 C71.8664386,118.646914 66.105242,112.113351 66.105242,104.080649 L66.105242,93.0752397 C66.105242,85.0425375 71.8664386,78.5089747 78.9495536,78.5089747 L158.053263,78.5089747 C165.136378,78.5089747 170.897575,85.0425375 170.897575,93.0752397 L170.897575,104.080649 Z" id="Shape"></path>
                <path d="M102,269 C102,278.939476 109.386008,287 118.5,287 C127.611187,287 135,278.942537 135,269 C135,259.057463 127.613992,251 118.5,251 C109.386008,251 102,259.060524 102,269 Z M123.341721,269 C123.341721,271.916355 121.173325,274.281877 118.5,274.281877 C115.823869,274.281877 113.658279,271.916355 113.658279,269 C113.658279,266.083645 115.826675,263.718123 118.5,263.718123 C121.173325,263.718123 123.341721,266.083645 123.341721,269 Z" id="Shape"></path>
            </g>
            <polyline id="Path-2" stroke="#FFFFFF" stroke-width="5" stroke-linejoin="bevel" points="650.621149 540.351457 775.541652 540.351457 775.541652 669.591431 914.245493 669.591431"></polyline>
            <path id="Path-2-decoration-1" d="M903.445493,672.591431 L914.245493,669.591431 L903.445493,666.591431" stroke="#FFFFFF" stroke-width="5" stroke-linejoin="bevel"></path>
            <g id="Call-box" transform="translate(914.000000, 600.000000)">
                <rect id="Rectangle" fill="#FFFFFF" x="0" y="0" width="152" height="148"></rect>
                <g id="noun_1142898" transform="translate(20.000000, 19.000000)" fill-rule="nonzero" fill="#2E2E2E">
                    <path d="M33.1966446,90.0937502 C55.2038912,112.101023 72.118547,117.623869 92.0541441,97.6882722 C95.1745939,94.4850016 98.0925897,90.4363512 93.9527545,86.2965161 L77.8144185,73.9554144 C72.7214518,71.2154117 70.7315223,73.1636286 68.3212725,75.8540516 C59.5111403,85.6882546 50.0055894,82.4248384 43.6390958,75.8540516 L34.1459498,66.3609058 C27.5751764,59.9944123 24.3117468,50.4888615 34.1459633,41.6787294 C36.8363729,39.2684796 38.7845764,37.2785636 36.0445871,32.1855836 L23.7034987,16.0472612 C19.56365,11.9074126 15.5149996,14.8253815 12.311729,17.9458716 C-7.62386813,37.8814684 -2.10102235,54.7960971 19.9062376,76.8033702 L33.1966446,90.0937502 Z" id="Shape"></path>
                    <path d="M49.0004472,2.81095178 C49.0766725,4.20652117 50.4136347,5.40674016 51.8067881,5.33025235 C82.695522,5.33025235 107.678632,30.3557577 107.678632,61.2969421 C107.658678,62.7049041 108.933489,64 110.3392,64 C111.745045,64 113.019723,62.7049041 112.999769,61.2969421 C112.999769,27.4752055 85.5712772,9.14157408e-05 51.8067881,9.14157408e-05 C50.2132806,-0.0132339866 48.9737883,1.43257217 49.0004472,2.81095178 Z M49.0004472,18.8014346 C49.0766725,20.197004 50.4136347,21.397223 51.8067881,21.3207351 C73.8791565,21.3207351 91.7152214,39.1870348 91.7152214,61.2969421 C91.6952671,62.7049041 92.9700785,64 94.3757898,64 C95.7816342,64 97.0563125,62.7049041 97.0363582,61.2969421 C97.0363582,36.3064826 76.7549117,15.9905742 51.8067881,15.9905742 C50.1452233,16.0038996 48.9737484,17.5163328 49.0004472,18.8014346 Z" id="Shape"></path>
                </g>
            </g>
            <rect id="Rectangle-7" fill="#4986FF" opacity="0.496150362" x="290" y="0" width="417" height="1080"></rect>
            <rect id="Rectangle-7-Copy" fill="#4986FF" opacity="0.496150362" x="860" y="0" width="816" height="1080"></rect>
            <path d="M922.484,65.296 L922.484,91 L941.996,91 L941.996,86.248 L928.136,86.248 L928.136,79.948 L940.592,79.948 L940.592,75.556 L928.136,75.556 L928.136,70.048 L941.708,70.048 L941.708,65.296 L922.484,65.296 Z M946.812,65.296 L946.812,91 L952.464,91 L952.464,80.38 L963.228,80.38 L963.228,75.988 L952.464,75.988 L952.464,70.048 L964.884,70.048 L964.884,65.296 L946.812,65.296 Z M969.16,65.296 L969.16,91 L974.812,91 L974.812,80.38 L985.576,80.38 L985.576,75.988 L974.812,75.988 L974.812,70.048 L987.232,70.048 L987.232,65.296 L969.16,65.296 Z M991.508,65.296 L991.508,91 L1011.02,91 L1011.02,86.248 L997.16,86.248 L997.16,79.948 L1009.616,79.948 L1009.616,75.556 L997.16,75.556 L997.16,70.048 L1010.732,70.048 L1010.732,65.296 L991.508,65.296 Z M1032.972,73.936 L1038.444,73.936 C1038.276,72.4479926 1037.868,71.1280058 1037.22,69.976 C1036.572,68.8239942 1035.75,67.8580039 1034.754,67.078 C1033.758,66.2979961 1032.63001,65.704002 1031.37,65.296 C1030.10999,64.887998 1028.77201,64.684 1027.356,64.684 C1025.38799,64.684 1023.61801,65.0319965 1022.046,65.728 C1020.47399,66.4240035 1019.14801,67.3839939 1018.068,68.608 C1016.98799,69.8320061 1016.16,71.2659918 1015.584,72.91 C1015.008,74.5540082 1014.72,76.3359904 1014.72,78.256 C1014.72,80.1280094 1015.008,81.8739919 1015.584,83.494 C1016.16,85.1140081 1016.98799,86.523994 1018.068,87.724 C1019.14801,88.924006 1020.47399,89.8659966 1022.046,90.55 C1023.61801,91.2340034 1025.38799,91.576 1027.356,91.576 C1028.94001,91.576 1030.39199,91.3360024 1031.712,90.856 C1033.03201,90.3759976 1034.184,89.6800046 1035.168,88.768 C1036.152,87.8559954 1036.944,86.7520065 1037.544,85.456 C1038.144,84.1599935 1038.516,82.708008 1038.66,81.1 L1033.188,81.1 C1032.972,82.8280086 1032.378,84.2199947 1031.406,85.276 C1030.434,86.3320053 1029.08401,86.86 1027.356,86.86 C1026.08399,86.86 1025.004,86.6140025 1024.116,86.122 C1023.228,85.6299975 1022.508,84.9760041 1021.956,84.16 C1021.404,83.3439959 1021.002,82.4260051 1020.75,81.406 C1020.498,80.3859949 1020.372,79.3360054 1020.372,78.256 C1020.372,77.1279944 1020.498,76.0360053 1020.75,74.98 C1021.002,73.9239947 1021.404,72.9820041 1021.956,72.154 C1022.508,71.3259959 1023.228,70.6660025 1024.116,70.174 C1025.004,69.6819975 1026.08399,69.436 1027.356,69.436 C1028.052,69.436 1028.718,69.5499989 1029.354,69.778 C1029.99,70.0060011 1030.56,70.323998 1031.064,70.732 C1031.568,71.140002 1031.988,71.6139973 1032.324,72.154 C1032.66,72.6940027 1032.876,73.2879968 1032.972,73.936 Z M1049.2,70.048 L1049.2,91 L1054.852,91 L1054.852,70.048 L1062.556,70.048 L1062.556,65.296 L1041.496,65.296 L1041.496,70.048 L1049.2,70.048 Z M1070.36,82.468 L1064.888,82.468 C1064.864,84.0520079 1065.152,85.4199942 1065.752,86.572 C1066.352,87.7240058 1067.16199,88.6719963 1068.182,89.416 C1069.20201,90.1600037 1070.37799,90.7059983 1071.71,91.054 C1073.04201,91.4020017 1074.41599,91.576 1075.832,91.576 C1077.58401,91.576 1079.12599,91.372002 1080.458,90.964 C1081.79001,90.555998 1082.906,89.9860037 1083.806,89.254 C1084.706,88.5219963 1085.384,87.652005 1085.84,86.644 C1086.296,85.635995 1086.524,84.5440059 1086.524,83.368 C1086.524,81.9279928 1086.218,80.7460046 1085.606,79.822 C1084.994,78.8979954 1084.268,78.1600028 1083.428,77.608 C1082.588,77.0559972 1081.742,76.6540013 1080.89,76.402 C1080.038,76.1499987 1079.372,75.9760005 1078.892,75.88 C1077.28399,75.471998 1075.982,75.1360013 1074.986,74.872 C1073.99,74.6079987 1073.21,74.3440013 1072.646,74.08 C1072.082,73.8159987 1071.704,73.5280016 1071.512,73.216 C1071.32,72.9039984 1071.224,72.4960025 1071.224,71.992 C1071.224,71.4399972 1071.344,70.9840018 1071.584,70.624 C1071.824,70.2639982 1072.13,69.9640012 1072.502,69.724 C1072.874,69.4839988 1073.288,69.3160005 1073.744,69.22 C1074.2,69.1239995 1074.656,69.076 1075.112,69.076 C1075.808,69.076 1076.45,69.1359994 1077.038,69.256 C1077.626,69.3760006 1078.148,69.5799986 1078.604,69.868 C1079.06,70.1560014 1079.426,70.5519975 1079.702,71.056 C1079.978,71.5600025 1080.14,72.1959962 1080.188,72.964 L1085.66,72.964 C1085.66,71.4759926 1085.378,70.2100052 1084.814,69.166 C1084.25,68.1219948 1083.488,67.2640034 1082.528,66.592 C1081.568,65.9199966 1080.47001,65.4340015 1079.234,65.134 C1077.99799,64.8339985 1076.70801,64.684 1075.364,64.684 C1074.21199,64.684 1073.06001,64.8399984 1071.908,65.152 C1070.75599,65.4640016 1069.724,65.9439968 1068.812,66.592 C1067.9,67.2400032 1067.162,68.0499951 1066.598,69.022 C1066.034,69.9940049 1065.752,71.1399934 1065.752,72.46 C1065.752,73.6360059 1065.974,74.6379959 1066.418,75.466 C1066.862,76.2940041 1067.444,76.9839972 1068.164,77.536 C1068.884,78.0880028 1069.7,78.5379983 1070.612,78.886 C1071.524,79.2340017 1072.46,79.5279988 1073.42,79.768 C1074.356,80.0320013 1075.28,80.2719989 1076.192,80.488 C1077.104,80.7040011 1077.92,80.9559986 1078.64,81.244 C1079.36,81.5320014 1079.942,81.8919978 1080.386,82.324 C1080.83,82.7560022 1081.052,83.3199965 1081.052,84.016 C1081.052,84.6640032 1080.884,85.1979979 1080.548,85.618 C1080.212,86.0380021 1079.792,86.3679988 1079.288,86.608 C1078.784,86.8480012 1078.244,87.0099996 1077.668,87.094 C1077.092,87.1780004 1076.552,87.22 1076.048,87.22 C1075.304,87.22 1074.584,87.1300009 1073.888,86.95 C1073.192,86.7699991 1072.586,86.4940019 1072.07,86.122 C1071.554,85.7499981 1071.14,85.264003 1070.828,84.664 C1070.516,84.063997 1070.36,83.3320043 1070.36,82.468 Z" id="EFFECTS" fill="#FFFFFF"></path>
            <path d="M350.98929,81.0397144 L357.510933,81.0397144 L354.338242,71.8036591 L354.267738,71.8036591 L350.98929,81.0397144 Z M351.518072,65.599286 L357.193664,65.599286 L366.605979,90.7692994 L360.859884,90.7692994 L358.95627,85.1642124 L349.543954,85.1642124 L347.569835,90.7692994 L342,90.7692994 L351.518072,65.599286 Z M385.57162,74.0597947 L390.929942,74.0597947 C390.765431,72.6026998 390.365911,71.310135 389.73137,70.1820616 C389.096829,69.0539881 388.291913,68.1080657 387.3166,67.344266 C386.341286,66.5804662 385.236731,65.9988121 384.0029,65.599286 C382.76907,65.19976 381.458879,65 380.072289,65 C378.145164,65 376.411952,65.3407671 374.872602,66.0223115 C373.333251,66.7038559 372.034811,67.643903 370.977242,68.842481 C369.919673,70.0410591 369.108883,71.4452545 368.544846,73.0551093 C367.980809,74.6649642 367.698795,76.4099266 367.698795,78.2900491 C367.698795,80.1231685 367.980809,81.8328792 368.544846,83.4192325 C369.108883,85.0055858 369.919673,86.38628 370.977242,87.5613565 C372.034811,88.7364331 373.333251,89.6588543 374.872602,90.3286479 C376.411952,90.9984415 378.145164,91.3333333 380.072289,91.3333333 C381.62339,91.3333333 383.045211,91.0983216 384.337796,90.6282909 C385.63038,90.1582603 386.758436,89.4767262 387.721999,88.583668 C388.685562,87.6906098 389.461101,86.6095557 390.048639,85.340473 C390.636177,84.0713904 391.000446,82.6495691 391.141455,81.0749665 L385.783133,81.0749665 C385.571619,82.7670767 384.989965,84.1301451 384.038153,85.1642124 C383.086341,86.1982798 381.764399,86.7153057 380.072289,86.7153057 C378.826708,86.7153057 377.769155,86.4744186 376.899598,85.9926372 C376.030042,85.5108558 375.325006,84.8704487 374.784471,84.0713967 C374.243936,83.2723447 373.850291,82.3734246 373.603525,81.3746095 C373.356759,80.3757945 373.233378,79.347618 373.233378,78.2900491 C373.233378,77.1854771 373.356759,76.1161735 373.603525,75.0821062 C373.850291,74.0480389 374.243936,73.1256176 374.784471,72.3148148 C375.325006,71.504012 376.030042,70.8577296 376.899598,70.3759482 C377.769155,69.8941669 378.826708,69.6532798 380.072289,69.6532798 C380.753834,69.6532798 381.405991,69.7649104 382.028782,69.9881749 C382.651572,70.2114395 383.209725,70.5228301 383.703257,70.9223561 C384.19679,71.3218821 384.60806,71.7860304 384.937082,72.3148148 C385.266103,72.8435993 385.477614,73.4252534 385.57162,74.0597947 Z M400.483266,70.2525658 L400.483266,90.7692994 L406.017849,90.7692994 L406.017849,70.2525658 L413.561803,70.2525658 L413.561803,65.599286 L392.939313,65.599286 L392.939313,70.2525658 L400.483266,70.2525658 Z M416.452477,65.599286 L416.452477,90.7692994 L421.987059,90.7692994 L421.987059,65.599286 L416.452477,65.599286 Z M431.293619,78.2900491 C431.293619,79.347618 431.417,80.3757945 431.663766,81.3746095 C431.910532,82.3734246 432.304177,83.2723447 432.844712,84.0713967 C433.385247,84.8704487 434.090283,85.5108558 434.959839,85.9926372 C435.829396,86.4744186 436.886949,86.7153057 438.13253,86.7153057 C439.378111,86.7153057 440.435664,86.4744186 441.305221,85.9926372 C442.174778,85.5108558 442.879813,84.8704487 443.420348,84.0713967 C443.960883,83.2723447 444.354528,82.3734246 444.601294,81.3746095 C444.84806,80.3757945 444.971441,79.347618 444.971441,78.2900491 C444.971441,77.1854771 444.84806,76.1161735 444.601294,75.0821062 C444.354528,74.0480389 443.960883,73.1256176 443.420348,72.3148148 C442.879813,71.504012 442.174778,70.8577296 441.305221,70.3759482 C440.435664,69.8941669 439.378111,69.6532798 438.13253,69.6532798 C436.886949,69.6532798 435.829396,69.8941669 434.959839,70.3759482 C434.090283,70.8577296 433.385247,71.504012 432.844712,72.3148148 C432.304177,73.1256176 431.910532,74.0480389 431.663766,75.0821062 C431.417,76.1161735 431.293619,77.1854771 431.293619,78.2900491 Z M425.759036,78.2900491 C425.759036,76.4099266 426.04105,74.6649642 426.605087,73.0551093 C427.169124,71.4452545 427.979914,70.0410591 429.037483,68.842481 C430.095052,67.643903 431.393492,66.7038559 432.932842,66.0223115 C434.472193,65.3407671 436.205405,65 438.13253,65 C440.083157,65 441.822244,65.3407671 443.349844,66.0223115 C444.877443,66.7038559 446.170008,67.643903 447.227577,68.842481 C448.285146,70.0410591 449.095936,71.4452545 449.659973,73.0551093 C450.22401,74.6649642 450.506024,76.4099266 450.506024,78.2900491 C450.506024,80.1231685 450.22401,81.8328792 449.659973,83.4192325 C449.095936,85.0055858 448.285146,86.38628 447.227577,87.5613565 C446.170008,88.7364331 444.877443,89.6588543 443.349844,90.3286479 C441.822244,90.9984415 440.083157,91.3333333 438.13253,91.3333333 C436.205405,91.3333333 434.472193,90.9984415 432.932842,90.3286479 C431.393492,89.6588543 430.095052,88.7364331 429.037483,87.5613565 C427.979914,86.38628 427.169124,85.0055858 426.605087,83.4192325 C426.04105,81.8328792 425.759036,80.1231685 425.759036,78.2900491 Z M454.278001,65.599286 L454.278001,90.7692994 L459.460062,90.7692994 L459.460062,73.9187863 L459.530567,73.9187863 L470.000446,90.7692994 L475.535029,90.7692994 L475.535029,65.599286 L470.352967,65.599286 L470.352967,82.4850513 L470.282463,82.4850513 L459.777332,65.599286 L454.278001,65.599286 Z M484.171798,82.4145471 L478.813476,82.4145471 C478.789975,83.9656481 479.071989,85.3052152 479.659527,86.4332887 C480.247065,87.5613622 481.04023,88.4896587 482.039045,89.2182062 C483.03786,89.9467536 484.189418,90.4814054 485.493753,90.8221776 C486.798088,91.1629498 488.14353,91.3333333 489.53012,91.3333333 C491.245732,91.3333333 492.755683,91.1335733 494.060018,90.7340473 C495.364353,90.3345213 496.457158,89.7763683 497.338465,89.0595716 C498.219772,88.3427749 498.883681,87.4908572 499.33021,86.5037929 C499.776739,85.5167287 500,84.4474251 500,83.2958501 C500,81.8857582 499.70036,80.7283252 499.101071,79.8235163 C498.501782,78.9187074 497.790871,78.1960461 496.968318,77.6555109 C496.145764,77.1149757 495.317348,76.721331 494.483043,76.4745649 C493.648739,76.2277989 492.996581,76.0574153 492.526551,75.9634092 C490.951948,75.5638832 489.677009,75.2348667 488.701696,74.9763498 C487.726382,74.717833 486.962594,74.45932 486.410308,74.2008032 C485.858022,73.9422864 485.487878,73.6602722 485.299866,73.3547523 C485.111854,73.0492324 485.017849,72.6497124 485.017849,72.1561803 C485.017849,71.6156451 485.135355,71.1691227 485.37037,70.8165997 C485.605386,70.4640768 485.905026,70.170312 486.269299,69.9352967 C486.633573,69.7002814 487.038968,69.5357732 487.485498,69.4417671 C487.932027,69.3477609 488.378549,69.3007586 488.825078,69.3007586 C489.506622,69.3007586 490.135279,69.3595115 490.711066,69.4770192 C491.286854,69.5945268 491.798005,69.7942869 492.244534,70.0763052 C492.691063,70.3583236 493.049456,70.746093 493.319723,71.2396252 C493.589991,71.7331573 493.748624,72.3559385 493.795627,73.1079875 L499.153949,73.1079875 C499.153949,71.6508926 498.87781,70.4112055 498.325524,69.3888889 C497.773238,68.3665723 497.027076,67.5264052 496.087015,66.8683623 C495.146954,66.2103195 494.071775,65.7344206 492.861446,65.4406515 C491.651117,65.1468824 490.387929,65 489.071843,65 C487.943769,65 486.815713,65.1527577 485.687639,65.4582776 C484.559566,65.7637975 483.549015,66.233821 482.655957,66.8683623 C481.762899,67.5029037 481.040238,68.2960684 480.487952,69.2478804 C479.935666,70.1996924 479.659527,71.3218737 479.659527,72.6144578 C479.659527,73.7660328 479.876913,74.747207 480.311691,75.5580098 C480.74647,76.3688126 481.316373,77.0444715 482.021419,77.5850067 C482.726465,78.1255419 483.525505,78.566189 484.418563,78.9069612 C485.311621,79.2477334 486.228167,79.5356228 487.168228,79.7706381 C488.084788,80.0291549 488.989584,80.2641667 489.882642,80.4756805 C490.7757,80.6871943 491.57474,80.9339566 492.279786,81.215975 C492.984832,81.4979934 493.554735,81.850511 493.989514,82.2735386 C494.424292,82.6965661 494.641678,83.2488438 494.641678,83.9303882 C494.641678,84.5649295 494.47717,85.0878308 494.148148,85.4991075 C493.819127,85.9103843 493.407856,86.2335255 492.914324,86.4685408 C492.420792,86.7035561 491.892015,86.8621891 491.327979,86.9444444 C490.763942,87.0266998 490.235165,87.0678269 489.741633,87.0678269 C489.013086,87.0678269 488.30805,86.9796974 487.626506,86.803436 C486.944962,86.6271745 486.351557,86.3569109 485.846274,85.9926372 C485.340991,85.6283635 484.935596,85.1524646 484.630076,84.5649264 C484.324556,83.9773881 484.171798,83.2606022 484.171798,82.4145471 Z" id="ACTIONS" fill="#FFFFFF"></path>
        </g>
    </g>
</svg>