<?xml version="1.0" encoding="UTF-8"?>
<svg width="1920px" height="1080px" viewBox="0 0 1920 1080" version="1.1" xmlns="http://www.w3.org/2000/svg" xmlns:xlink="http://www.w3.org/1999/xlink">
    <!-- Generator: Sketch 46.2 (44496) - http://www.bohemiancoding.com/sketch -->
    <title>blueprintTheUpdateFunction</title>
    <desc>Created with Sketch.</desc>
    <defs></defs>
    <g id="Actual-Slides" stroke="none" stroke-width="1" fill="none" fill-rule="evenodd">
        <g id="blueprintTheUpdateFunction">
            <g id="Update-Function-Definition" transform="translate(584.000000, 290.000000)">
                <g id="Connectors" transform="translate(193.910256, 94.551282)" stroke="#FFFFFF" stroke-width="5">
                    <polyline id="Path-4" points="365.689725 0 290.064103 0 129.807692 160.469557"></polyline>
                    <polyline id="Path-3" points="128.205128 160.25641 287.544446 322.063739 366.502028 322.063739"></polyline>
                    <path d="M130.926553,161.452073 L1.36071217,161.452073" id="Path-9"></path>
                    <circle id="Oval-3" fill="#4D70B8" cx="131.410256" cy="161.858974" r="12.8205128"></circle>
                </g>
                <g id="Fire-State" transform="translate(559.294872, 307.692308)" fill="#FFFFFF">
                    <rect id="Background-Copy" opacity="0" x="0" y="0" width="192.307692" height="192.307692"></rect>
                    <path d="M122.654799,96.0180921 C117.63098,85.0631094 119.368675,75.991583 119.368675,75.991583 C119.368675,75.991583 109.529358,85.1657961 111.058733,98.6320539 C111.573182,103.163268 113.42901,108.305402 115.09049,113.390345 C113.380741,117.428922 110.363909,121.480498 105.233389,120.569316 C95.4956914,118.83924 98.8758133,110.87387 100.923448,103.987361 C102.971083,97.0995522 97.8964544,91.5986639 97.8964544,91.5986639 C97.8964544,91.5986639 93.3223023,103.550618 89.42138,94.2425218 C85.5204577,84.934426 105.65257,75.3143706 103.300076,61.4776608 C100.948853,47.6409509 91.6100121,38.4615385 91.6100121,38.4615385 C91.6100121,38.4615385 97.6474864,47.0625257 93.7440236,57.9304197 C89.8405608,68.7983136 82.2444959,67.8156408 75.1793934,81.0167329 C68.114291,94.217825 78.5861904,106.115186 73.5979385,108.993013 C63.317846,114.925446 65.2536993,93.4509242 65.2536993,93.4509242 C65.2536993,93.4509242 52.4331169,109.355667 64.4026352,134.29684 C77.3095942,161.19296 107.490615,154.919972 109.042854,154.576816 C118.194969,153.431664 126.884715,147.180773 131.551595,135.183325 C140.433148,112.34528 127.678618,106.973075 122.654799,96.0180921 Z" id="Shape-Copy-6" fill-rule="nonzero"></path>
                </g>
                <g id="Sun-State" transform="translate(559.294872, 0.000000)">
                    <rect id="Background-Copy" fill="#C2C9D8" opacity="0" x="0" y="0" width="192.307692" height="192.307692"></rect>
                    <path d="M97.9983067,68.7893082 C114.109619,68.7893082 127.207305,81.886994 127.207305,97.9983067 C127.207305,114.109619 114.109619,127.207305 97.9983067,127.207305 C81.886994,127.207305 68.7893082,114.109619 68.7893082,97.9983067 C68.7893082,81.886994 81.886994,68.7893082 97.9983067,68.7893082 Z M97.9983067,60.44388 C95.7222809,60.44388 93.8255926,58.9155022 93.8255926,56.8412751 L93.8255926,45.2692716 C93.8255926,43.3042143 95.7222809,41.6666667 97.9983067,41.6666667 C100.274333,41.6666667 102.171021,43.3042143 102.171021,45.2692716 L102.171021,56.8412751 C102.171021,58.8063323 100.274333,60.44388 97.9983067,60.44388 Z M66.339138,71.776171 L57.4294282,62.8822866 C55.8850785,61.34068 55.8850785,58.9689775 57.4294282,57.4273709 C58.9737779,55.8857643 61.3497005,55.8857643 62.8940502,57.4273709 L71.80376,66.3212553 C73.3481097,67.8628619 73.3481097,70.2345644 71.80376,71.776171 C71.0909832,72.6062669 70.021818,72.9620223 69.071449,72.9620223 C68.1210799,72.9620223 67.0519148,72.4876818 66.339138,71.776171 Z M60.44388,97.9983067 C60.44388,100.274333 58.9155022,102.171021 56.8412751,102.171021 L45.2692716,102.171021 C43.3042143,102.171021 41.6666667,100.274333 41.6666667,97.9983067 C41.6666667,95.7222809 43.3042143,93.8255926 45.2692716,93.8255926 L56.8412751,93.8255926 C58.8063323,93.8255926 60.44388,95.7222809 60.44388,97.9983067 Z M66.339138,122.104439 C67.8834877,120.562833 70.3782064,120.562833 71.80376,122.104439 C73.3481097,123.646046 73.3481097,126.017748 71.80376,127.559355 L62.8940502,136.453239 C62.1812734,137.283335 61.1121083,137.63909 60.1617392,137.63909 C59.2113702,137.63909 58.142205,137.16475 57.4294282,136.453239 C55.8850785,134.911633 55.8850785,132.53993 57.4294282,130.998323 L66.339138,122.104439 Z M97.9983067,133.466376 C100.274333,133.466376 102.171021,134.994754 102.171021,137.068981 L102.171021,148.640985 C102.171021,150.606042 100.274333,152.24359 97.9983067,152.24359 C95.7222809,152.24359 93.8255926,150.606042 93.8255926,148.640985 L93.8255926,137.068981 C93.8255926,135.103924 95.7222809,133.466376 97.9983067,133.466376 Z M127.571118,122.104439 L136.480828,130.998323 C138.025178,132.53993 138.025178,134.911633 136.480828,136.453239 C135.768051,137.283335 134.698886,137.63909 133.748517,137.63909 C132.798148,137.63909 131.728983,137.16475 131.016206,136.453239 L122.106496,127.559355 C120.562147,126.017748 120.562147,123.646046 122.106496,122.104439 C123.650846,120.562833 126.026769,120.562833 127.571118,122.104439 Z M148.640985,93.8255926 C150.606042,93.8255926 152.24359,95.7222809 152.24359,97.9983067 C152.24359,100.274333 150.606042,102.171021 148.640985,102.171021 L137.068981,102.171021 C135.103924,102.171021 133.466376,100.274333 133.466376,97.9983067 C133.466376,95.7222809 135.103924,93.8255926 137.068981,93.8255926 L148.640985,93.8255926 Z M124.838807,72.9620223 C123.769642,72.9620223 122.819273,72.6062669 122.106496,71.776171 C120.562147,70.2345644 120.562147,67.8628619 122.106496,66.3212553 L131.016206,57.4273709 C132.560556,55.8857643 134.936479,55.8857643 136.480828,57.4273709 C138.025178,58.9689775 138.025178,61.34068 136.480828,62.8822866 L127.571118,71.776171 C126.858342,72.6062669 125.789176,72.9620223 124.838807,72.9620223 Z" id="Combined-Shape" fill="#FFFFFF" fill-rule="nonzero"></path>
                </g>
                <g id="Ground-Off" transform="translate(270.833333, 320.512821)">
                    <rect id="Rectangle-2" x="0" y="0" width="112.179487" height="112.179487"></rect>
                    <path d="M57.6565078,53.9326325 C57.6638261,53.8519569 57.6675653,53.7702478 57.6675653,53.6876655 L57.6675653,31.843829 C57.6675653,30.3652731 56.4689589,29.1666667 54.9904029,29.1666667 C53.511847,29.1666667 52.3132406,30.3652731 52.3132406,31.843829 L52.3132406,53.6876655 C52.3132406,53.7702478 52.3169798,53.8519569 52.324298,53.9326325 L29.6002393,53.9326325 C28.1216833,53.9326325 26.9230769,55.1312389 26.9230769,56.6097949 C26.9230769,58.0883508 28.1216833,59.2869572 29.6002393,59.2869572 L80.4056677,59.2869572 C81.8842236,59.2869572 83.08283,58.0883508 83.08283,56.6097949 C83.08283,55.1312389 81.8842236,53.9326325 80.4056677,53.9326325 L57.6565078,53.9326325 Z M36.2775935,67.8719918 C34.7990376,67.8719918 33.6004312,66.6733854 33.6004312,65.1948295 C33.6004312,63.7162735 34.7990376,62.5176671 36.2775935,62.5176671 L73.7339582,62.5176671 C75.2125141,62.5176671 76.4111206,63.7162735 76.4111206,65.1948295 C76.4111206,66.6733854 75.2125141,67.8719918 73.7339582,67.8719918 L36.2775935,67.8719918 Z M43.0933933,76.429378 C41.6148373,76.429378 40.4162309,75.2307716 40.4162309,73.7522156 C40.4162309,72.2736597 41.6148373,71.0750533 43.0933933,71.0750533 L66.8860312,71.0750533 C68.3645872,71.0750533 69.5631936,72.2736597 69.5631936,73.7522156 C69.5631936,75.2307716 68.3645872,76.429378 66.8860312,76.429378 L43.0933933,76.429378 Z M50.1384504,84.9969722 C48.6598945,84.9969722 47.4612881,83.7983658 47.4612881,82.3198098 C47.4612881,80.8412539 48.6598945,79.6426475 50.1384504,79.6426475 L59.8280648,79.6426475 C61.3066207,79.6426475 62.5052271,80.8412539 62.5052271,82.3198098 C62.5052271,83.7983658 61.3066207,84.9969722 59.8280648,84.9969722 L50.1384504,84.9969722 Z" id="Combined-Shape" fill="#FFFFFF" fill-rule="nonzero"></path>
                    <path d="M30.8822906,62.7261196 L81.687719,62.7261196 C83.1662749,62.7261196 84.3648813,61.5275132 84.3648813,60.0489572 C84.3648813,58.5704013 83.1662749,57.3717949 81.687719,57.3717949 L30.8822906,57.3717949 C29.4037346,57.3717949 28.2051282,58.5704013 28.2051282,60.0489572 C28.2051282,61.5275132 29.4037346,62.7261196 30.8822906,62.7261196 Z" id="Shape-Copy-5" fill="#4D70B8" transform="translate(56.285005, 60.048957) rotate(-45.000000) translate(-56.285005, -60.048957) "></path>
                    <path d="M34.0874188,65.9312478 L84.8928472,65.9312478 C86.3714031,65.9312478 87.5700095,64.7326414 87.5700095,63.2540854 C87.5700095,61.7755295 86.3714031,60.5769231 84.8928472,60.5769231 L34.0874188,60.5769231 C32.6088628,60.5769231 31.4102564,61.7755295 31.4102564,63.2540854 C31.4102564,64.7326414 32.6088628,65.9312478 34.0874188,65.9312478 Z" id="Shape-Copy" fill="#FFFFFF" transform="translate(59.490133, 63.254085) rotate(-45.000000) translate(-59.490133, -63.254085) "></path>
                </g>
                <g id="Ground-On" transform="translate(270.833333, 80.128205)">
                    <rect id="Rectangle-2" x="0" y="0" width="112.179487" height="112.179487"></rect>
                    <path d="M57.6565078,53.9326325 C57.6638261,53.8519569 57.6675653,53.7702478 57.6675653,53.6876655 L57.6675653,31.843829 C57.6675653,30.3652731 56.4689589,29.1666667 54.9904029,29.1666667 C53.511847,29.1666667 52.3132406,30.3652731 52.3132406,31.843829 L52.3132406,53.6876655 C52.3132406,53.7702478 52.3169798,53.8519569 52.324298,53.9326325 L29.6002393,53.9326325 C28.1216833,53.9326325 26.9230769,55.1312389 26.9230769,56.6097949 C26.9230769,58.0883508 28.1216833,59.2869572 29.6002393,59.2869572 L80.4056677,59.2869572 C81.8842236,59.2869572 83.08283,58.0883508 83.08283,56.6097949 C83.08283,55.1312389 81.8842236,53.9326325 80.4056677,53.9326325 L57.6565078,53.9326325 Z M36.2775935,67.8719918 C34.7990376,67.8719918 33.6004312,66.6733854 33.6004312,65.1948295 C33.6004312,63.7162735 34.7990376,62.5176671 36.2775935,62.5176671 L73.7339582,62.5176671 C75.2125141,62.5176671 76.4111206,63.7162735 76.4111206,65.1948295 C76.4111206,66.6733854 75.2125141,67.8719918 73.7339582,67.8719918 L36.2775935,67.8719918 Z M43.0933933,76.429378 C41.6148373,76.429378 40.4162309,75.2307716 40.4162309,73.7522156 C40.4162309,72.2736597 41.6148373,71.0750533 43.0933933,71.0750533 L66.8860312,71.0750533 C68.3645872,71.0750533 69.5631936,72.2736597 69.5631936,73.7522156 C69.5631936,75.2307716 68.3645872,76.429378 66.8860312,76.429378 L43.0933933,76.429378 Z M50.1384504,84.9969722 C48.6598945,84.9969722 47.4612881,83.7983658 47.4612881,82.3198098 C47.4612881,80.8412539 48.6598945,79.6426475 50.1384504,79.6426475 L59.8280648,79.6426475 C61.3066207,79.6426475 62.5052271,80.8412539 62.5052271,82.3198098 C62.5052271,83.7983658 61.3066207,84.9969722 59.8280648,84.9969722 L50.1384504,84.9969722 Z" id="Combined-Shape" fill="#FFFFFF" fill-rule="nonzero"></path>
                </g>
                <g id="Lightning-Strike-Action" transform="translate(0.000000, 184.294872)" fill-rule="nonzero" fill="#FFFFFF">
                    <path d="M101.973684,26.6444893 C94.757425,28.745889 89.0258507,33.1049907 86.2481088,38.5929436 C84.4164219,37.915633 82.4690678,37.5509272 80.431942,37.5509272 C70.4517519,37.5509272 62.3740301,46.3906994 62.3740301,57.2971373 C62.3740301,64.26128 65.6541479,70.3744427 70.626116,73.9016681 L21.0100179,73.9016681 C20.8373801,73.9016681 20.6647423,73.8651975 20.4921046,73.8651975 C9.13253859,73.7088951 0,64.0546134 0,52.1391563 C0,40.3122706 8.94263703,30.7257201 20.1295652,30.3610143 C23.1852539,13.7234864 36.7027921,1.20192308 52.8789522,1.20192308 C66.1720613,1.20192308 77.6524737,9.65962256 83.0215087,21.9033148 C84.3836208,21.6428107 85.7837132,21.5386091 87.2166067,21.5386091 C92.737563,21.5386091 97.8493676,23.4298688 101.973684,26.6444893 Z" id="Shape"></path>
                    <path d="M149.038462,61.7438241 C149.038462,68.4437583 141.541104,73.9016681 132.273538,73.9016681 C131.945529,73.9016681 131.633139,73.9016681 131.320749,73.8491882 C131.164554,73.9016681 130.970178,73.9016681 130.781009,73.9016681 L87.3935251,73.9016681 C87.0655157,73.9016681 86.7322998,73.9016681 86.4042904,73.8491882 C86.0762811,73.8666815 85.7257102,73.9016681 85.3629908,73.9016681 L82.1523171,73.9016681 C81.8555467,73.9016681 81.5796023,73.8649322 81.3019224,73.8316949 C72.6591357,73.1844428 65.8906883,65.9946961 65.8906883,57.2130592 C65.8906883,48.0290763 73.3533354,40.5594369 82.5514819,40.5594369 C83.5233615,40.5594369 84.4778862,40.6469034 85.3977008,40.8043431 C86.6316408,41.0142627 87.8117804,41.3641287 88.939855,41.8189545 C89.1967089,41.2241823 89.5125697,40.6294101 89.8423146,40.0521312 C92.8794385,34.7166744 98.4313008,30.6407354 105.166774,28.9438852 C107.386477,28.3666063 109.746757,28.0692201 112.176456,28.0692201 C125.938965,28.0692201 137.099962,37.6905356 137.099962,49.5859801 C137.099962,49.7609131 137.099962,49.9358461 137.079136,50.1107791 C137.723006,50.2507255 138.363405,50.4081652 138.974301,50.6180848 C144.888883,52.4723747 149.038462,56.7739773 149.038462,61.7438241 Z" id="Shape"></path>
                    <polygon id="Shape" points="66.5881359 115.387936 68.7807375 111.017809 51.7712551 111.017809 62.4496219 86.545102 85.9437539 86.545102 75.7156381 103.448751 91.7763158 103.448751 51.7712551 144.230769"></polygon>
                </g>
            </g>
        </g>
    </g>
</svg>