<?xml version="1.0" encoding="UTF-8"?>
<svg width="1920px" height="1080px" viewBox="0 0 1920 1080" version="1.1" xmlns="http://www.w3.org/2000/svg" xmlns:xlink="http://www.w3.org/1999/xlink">
    <!-- Generator: Sketch 46.2 (44496) - http://www.bohemiancoding.com/sketch -->
    <title>blueprintAllStates</title>
    <desc>Created with Sketch.</desc>
    <defs></defs>
    <g id="Actual-Slides" stroke="none" stroke-width="1" fill="none" fill-rule="evenodd">
        <g id="blueprintAllStates">
            <g id="Events-Block" transform="translate(163.000000, 220.000000)">
                <rect id="Rectangle-7" stroke="#FFFFFF" stroke-width="5" x="2.5" y="2.5" width="435" height="215"></rect>
                <text id="EVENTS" font-family="HelveticaNeue-Bold, Helvetica Neue" font-size="72" font-weight="bold" letter-spacing="2" fill="#FFFFFF">
                    <tspan x="73" y="137">EVENTS</tspan>
                </text>
            </g>
            <g id="State-Block" transform="translate(1317.000000, 220.000000)">
                <rect id="Rectangle-7-Copy" stroke="#FFFFFF" stroke-width="5" x="2.5" y="2.5" width="435" height="215"></rect>
                <text id="STATE" font-family="HelveticaNeue-Bold, Helvetica Neue" font-size="72" font-weight="bold" letter-spacing="2" fill="#FFFFFF">
                    <tspan x="106" y="137">STATE</tspan>
                </text>
            </g>
            <g id="Lightning-Strike-Action" transform="translate(163.000000, 490.000000)">
                <rect id="Rectangle" fill="#6F6F6F" opacity="0" x="0" y="0" width="150" height="150"></rect>
                <path d="M92.6315789,45.8761613 C88.1286332,47.1874347 84.5521308,49.9075142 82.8188199,53.3319968 C81.6758473,52.909355 80.4606983,52.6817786 79.1895318,52.6817786 C72.9618932,52.6817786 67.9213948,58.1977964 67.9213948,65.0034137 C67.9213948,69.3490387 69.9681883,73.1636522 73.0706964,75.3646409 L42.1102512,75.3646409 C42.0025252,75.3646409 41.8947992,75.3418832 41.7870732,75.3418832 C34.6987041,75.2443505 29,69.2200788 29,61.7848335 C29,54.4048569 34.5802055,48.4228493 41.5608487,48.1952729 C43.4675985,37.8134555 51.9025423,30 61.9964662,30 C70.2913662,30 77.4551436,35.2776045 80.8054214,42.9176685 C81.6553793,42.7551139 82.529037,42.6900921 83.4231626,42.6900921 C86.8682393,42.6900921 90.0580054,43.8702381 92.6315789,45.8761613 Z M122,67.7781462 C122,71.9589051 117.321649,75.3646409 111.538688,75.3646409 C111.33401,75.3646409 111.139079,75.3646409 110.944147,75.3318934 C110.846682,75.3646409 110.725391,75.3646409 110.607349,75.3646409 L83.5335596,75.3646409 C83.3288818,75.3646409 83.1209551,75.3646409 82.9162772,75.3318934 C82.7115994,75.3428092 82.4928432,75.3646409 82.2665063,75.3646409 L80.2630458,75.3646409 C80.0778611,75.3646409 79.9056718,75.3417177 79.7323996,75.3209776 C74.3393007,74.9170923 70.1157895,70.4306904 70.1157895,64.9509489 C70.1157895,59.2201436 74.7724813,54.5590886 80.5121247,54.5590886 C81.1185776,54.5590886 81.714201,54.6136677 82.2881653,54.7119101 C83.0581439,54.8428999 83.794551,55.0612163 84.4984695,55.3450276 C84.6587463,54.9738898 84.8558435,54.6027519 85.0616043,54.2425298 C86.9567696,50.9132048 90.4211317,48.3698189 94.6240668,47.3109844 C96.0091619,46.9507623 97.4819761,46.7651934 98.9981083,46.7651934 C107.585914,46.7651934 114.550376,52.7688942 114.550376,60.1916516 C114.550376,60.3008098 114.550376,60.4099679 114.537381,60.5191261 C114.939156,60.6064527 115.338765,60.7046951 115.719964,60.8356849 C119.410663,61.9927618 122,64.6769619 122,67.7781462 Z M70.5509968,101.252072 L71.9191802,98.525113 L61.3052632,98.525113 L67.968564,83.2541436 L82.6289024,83.2541436 L76.2465582,93.8020203 L86.2684211,93.8020203 L61.3052632,119.25 L70.5509968,101.252072 Z" id="Combined-Shape" fill="#FFFFFF" fill-rule="nonzero"></path>
            </g>
            <g id="Cellphone-Explosion-Action" transform="translate(313.000000, 490.000000)">
                <rect id="Rectangle" fill="#6F6F6F" opacity="0" x="0" y="0" width="150" height="150"></rect>
                <g id="Group" transform="translate(52.500000, 28.500000)" fill="#FFFFFF">
                    <g id="noun_1131411" transform="translate(0.000000, 6.750000)" fill-rule="nonzero">
                        <path d="M36.9782609,0 L10.2717391,0 C4.59881425,0 0,4.61706352 0,10.3125 L0,72.1875 C0,77.8829365 4.59881425,82.5 10.2717391,82.5 L36.9782609,82.5 C42.6511857,82.5 47.25,77.8829365 47.25,72.1875 L47.25,10.3125 C47.25,4.61706352 42.6511857,0 36.9782609,0 Z M28.7608696,75.28125 L18.4891304,75.28125 C17.3545455,75.28125 16.4347826,74.3578373 16.4347826,73.21875 C16.4347826,72.0796627 17.3545455,71.15625 18.4891304,71.15625 L28.7608696,71.15625 C29.8954545,71.15625 30.8152174,72.0796627 30.8152174,73.21875 C30.8152174,74.3578373 29.8954545,75.28125 28.7608696,75.28125 Z M43.1413043,64.96875 L4.10869565,64.96875 L4.10869565,13.40625 L43.1413043,13.40625 L43.1413043,64.96875 Z" id="Shape"></path>
                    </g>
                    <polygon id="Rectangle-2" points="27.554675 13.5 44.25 18.6798943 42.195325 25.5 25.5 20.3201057"></polygon>
                    <g id="noun_563989" transform="translate(19.500000, 0.000000)" fill-rule="nonzero">
                        <path d="M34.5,0.49122807 L19.6432432,6.20175439 L12.5567568,0 L11.127027,6.07894737 L0.559459459,3.92982456 L7.45945946,14.6754386 L0,17.377193 L7.08648649,20.754386 L6.34054054,31.5 L15.7891892,23.2719298 L23.2486486,29.9035088 L25.9837838,20.0789474 L32.5108108,20.8157895 L28.6567568,11.0526316 L34.5,0.49122807 Z M18.6486486,16.5789474 L20.7,24.1315789 L15.8513514,17.622807 L11.9972973,21.8596491 L13.9243243,16.5175439 L6.65135135,16.7631579 L13.3648649,14.3070175 L9.38648649,10.254386 L14.6702703,12.6491228 L17.2189189,7.36842105 L17.5297297,13.5087719 L23.1243243,9.94736842 L19.6432432,14.7982456 L25.1756757,15.7807018 L18.6486486,16.5789474 Z" id="Shape"></path>
                        <polygon id="Shape" points="28.8032407 23.9210526 29.2291667 23.3571429 27.7916667 22.7368421"></polygon>
                        <polygon id="Shape" points="2.63541667 21.7755418 2.84837963 22.5 4.07291667 21.5526316"></polygon>
                        <polygon id="Shape" points="13.65625 30.3588517 14.375 30.5526316 14.2644231 28.4210526"></polygon>
                        <polygon id="Shape" points="9.10416667 1.48374613 8.38541667 1.42105263 9.58333333 3.55263158"></polygon>
                        <polygon id="Shape" points="16.0520833 28.4210526 17.0104167 27.9637024 16.2317708 26.5263158"></polygon>
                        <polygon id="Shape" points="19.9775641 4.97368421 20.3645833 3.41729323 19.6458333 3.07894737"></polygon>
                        <path d="M24.6770833,2.13157895 C24.6770833,2.13157895 25.577847,1.22727273 25.6308331,1.22727273 C25.6838192,1.22727273 25.2599304,0.710526316 25.2599304,0.710526316 L24.6770833,2.13157895 Z" id="Shape"></path>
                        <polygon id="Shape" points="31.3854167 9.71052632 33.406901 8.76315789 33.5416667 9.47368421"></polygon>
                        <polygon id="Shape" points="1.078125 9.47368421 0.71875 9.97105263 1.67708333 10.1842105"></polygon>
                        <polygon id="Shape" points="4.79166667 13.7368421 3.71984649 13.0263158 3.59375 13.6421053"></polygon>
                    </g>
                </g>
            </g>
            <g id="Meteor-Action" transform="translate(163.000000, 640.000000)">
                <rect id="Rectangle" fill="#6F6F6F" opacity="0" x="0" y="0" width="150" height="150"></rect>
                <path d="M117.492085,34.6780385 L117.473137,34.6685199 C117.334178,34.5416061 117.175219,34.4876677 116.993099,34.5067048 C116.979414,34.4993015 116.966782,34.4982439 116.957307,34.5024744 C114.298154,34.6124663 112.27484,34.7224583 110.88947,34.8324503 C110.823149,34.844084 110.823149,35.0450309 110.758934,35.0566647 C108.222948,35.2153069 106.120681,35.8424727 104.296329,36.4971364 L104.264748,36.5087702 C100.382343,37.9027069 97.5937065,39.2088616 96.0662202,40.8947001 C96.0493767,40.9137371 96.0662202,41.0036344 96.0588512,41.018441 C94.4576749,42.7190861 93.4375961,44.6175053 93.3881186,47.8009267 L93.3723279,47.8062148 C93.1365202,50.0007662 92.5743715,51.9150495 91.6458788,53.4454186 C91.6174555,53.490896 91.5848214,53.5332006 91.5542928,53.5797357 C90.6573814,54.8404129 89.3151725,55.5934349 87.315018,55.2560556 L87.2992273,55.2613437 C85.0285256,55.0212651 82.9799464,54.9081003 81.1419097,54.8985817 C81.0324276,54.914446 80.8534664,54.7409971 80.7376679,54.7473428 C78.7111957,54.6997501 77.1215992,54.6955196 76.0857297,55.0667425 C76.0636228,55.0741458 76.0488848,55.0794339 76.0383577,55.0836644 C73.9666187,55.8271678 72.3096487,57.2591787 70.9642816,59.0920256 L70.8569049,59.228458 C69.9715734,60.4161598 69.2620449,62.1813194 68.0282654,64.6212374 L68.0230018,64.6053732 C67.7724562,66.8528053 66.4397217,68.6994013 66.0207419,69.4259829 C65.9996877,69.4333862 66.0523233,69.4206948 66.0565342,69.4302133 C65.1743608,70.8262653 64.1679673,71.7569666 62.9741909,72.2445271 C62.7299615,72.3450006 62.4888902,72.3724986 62.2204484,72.3397125 C61.9614811,72.302696 61.7404114,72.2001073 61.5435541,72.0372346 C61.4867076,72.0097366 61.4456518,71.9843538 61.4140704,71.9589711 C60.9087682,71.5898634 60.5740055,71.1520107 60.4066242,70.6485859 C60.3360924,70.4497543 60.3150381,70.2414041 60.341356,70.0203626 C60.3550412,69.6988476 60.4666288,69.3191638 60.6719078,68.8802535 C60.7329651,68.7522821 60.8045496,68.6380596 60.8971884,68.535471 C61.1793154,68.0468528 61.6456672,67.3445963 62.3625647,66.4064917 L62.3573011,66.3906275 C63.0215629,65.3076296 63.8363627,64.3177019 64.1384913,63.6566925 C64.1490184,63.6165031 64.1500711,63.5953508 64.1679673,63.5752561 C64.6995873,62.4108219 64.7722245,61.3701286 64.4385145,60.4330816 C64.4311455,60.4119293 64.4237765,60.390777 64.4164075,60.3696247 L64.1774417,59.6980391 C64.1216479,59.5425697 64.0153239,59.4167135 63.8637332,59.3183553 L63.8911038,59.3257586 C63.7553038,59.2358613 63.6173984,59.20096 63.4742295,59.2295156 C63.4510698,59.2263428 63.4300155,59.228458 63.4089613,59.2348037 C63.2321055,59.2633593 63.0741986,59.3426804 62.9341878,59.4759399 C62.8468126,59.5891047 62.7952297,59.7255371 62.7815444,59.8831217 C62.7783863,59.9074469 62.7762808,59.9328297 62.7731227,59.9560972 C62.6489026,60.9523706 62.1899198,61.8153846 61.3982797,62.5440814 C61.3298533,62.6159992 61.2930084,62.7894481 61.2108968,62.8550202 C60.4855776,63.4070953 59.4181268,64.2151132 57.8327412,64.7830525 C57.8127396,64.7904559 57.7969489,64.7968015 57.7864218,64.801032 C57.7758947,64.8042048 57.7653675,64.8073777 57.7548404,64.8105505 C55.475717,65.6291446 54.13035,66.2118906 53.6797889,66.4561996 C53.6103098,66.4911009 53.5313563,66.4667758 53.4797734,66.4836976 C51.9007041,67.3340202 50.8564129,68.5523928 50.3658487,70.1959267 C50.3405836,70.2868816 50.2995278,70.3693756 50.2532085,70.4687914 C49.8173853,71.7400447 48.9962693,73.451266 47.7930185,75.6214922 C45.5749524,77.4617425 43.3063562,79.2279597 40.9903878,80.9286048 C35.0194004,85.2912671 32.3939345,90.9505656 33.1171482,97.909673 C34.2446037,108.828491 40.2450671,114.666527 51.1206439,115.421664 C61.5498703,116.137669 68.4809319,111.945283 71.915934,102.847678 C73.6729118,98.1687887 75.3719904,93.7331509 76.9078985,89.2499205 C78.354326,87.9321321 80.3997471,87.2806412 82.7420333,86.4398371 L82.757824,86.4334914 C85.7117363,85.3737611 87.9519093,84.5350723 89.3109616,83.4245765 C89.3151725,83.4097699 89.2993818,83.3262183 89.3088562,83.3230454 C93.3375884,80.0359777 95.2830018,76.501428 94.9713988,72.8695777 C94.9577135,72.8272731 95.0608794,72.7045897 95.0450887,72.6622851 C95.0377197,72.6400752 95.029298,72.61575 95.0187708,72.582964 L94.8913926,72.2244325 C94.8303352,72.0573293 94.6282144,71.9663744 94.4808346,71.8785923 C94.4618857,71.8627281 94.3976702,71.8733042 94.3860904,71.8775347 C94.2429215,71.7992712 94.072382,71.7908103 93.9250022,71.8320573 C93.8986843,71.8288844 93.8639448,71.8352301 93.8418378,71.8426334 C93.6723511,71.8828228 93.533393,71.9621439 93.4460178,72.0742511 L93.5165496,71.9420492 C93.3586426,72.1757822 92.7501746,72.9626478 91.7079888,74.2994733 C91.6858819,74.3079342 91.6774602,74.3174528 91.681671,74.3269713 C91.1332076,74.9805774 90.6689612,75.4216029 90.2952482,75.652163 C90.1404994,75.7420603 89.9741707,75.8012868 89.8015258,75.8404185 C88.5045836,76.6558398 87.2392227,77.4384749 85.9138572,77.9133441 L85.8833285,77.9249779 C84.5769118,78.394559 83.4989338,78.3480239 82.5630721,77.5579855 C81.8251204,77.0238898 81.2356011,76.0085793 80.792409,74.5004202 C80.7292462,74.2888971 80.7176664,74.0763165 80.7587222,73.8626783 C81.422984,69.2927234 84.6295475,66.3356315 90.3763071,64.9882299 C95.0429832,63.8523513 97.7800367,62.9946254 98.5874675,62.4097642 C98.7148458,62.306118 98.8559093,62.2267968 99.0106581,62.1707432 C101.43295,60.5377855 102.784634,59.0666429 103.066761,57.7573154 C103.072024,57.7097227 103.080446,57.6653029 103.088868,57.6261711 C103.360468,56.2851151 103.155189,53.7404932 102.477242,49.9944205 C102.473031,49.9838443 102.481452,49.9944205 102.488821,49.9796139 C101.896144,46.6364925 103.203613,43.2172229 106.815471,40.8640292 L106.799681,40.8703749 C110.570498,38.4611277 113.801274,36.3310909 117.04363,36.0222673 C117.242592,35.9979421 117.420501,35.8985263 117.57525,35.7494026 C117.686837,35.5685504 117.742631,35.3665459 117.75,35.1539653 C117.707891,34.9709978 117.620516,34.8081251 117.492085,34.6780385 Z M70.2863345,76.8715932 C68.3661862,80.3310523 67.2692594,82.8830775 66.3291868,84.7688053 C65.0090849,87.4614933 63.9626883,89.9500617 63.2605288,91.9838555 C63.0668296,92.5253545 62.6457444,92.6015028 62.6678514,93.6485417 L63.0868311,93.4962451 C63.2942156,93.4232697 63.5152853,93.007627 63.919527,92.7337047 C64.2069176,92.5242969 64.4743067,92.0441396 64.8890756,91.7649292 C65.4280646,91.4053401 66.379717,91.2593892 67.237678,89.8950657 L70.3231795,88.7877427 L70.768477,90.039959 C70.4621376,92.1329793 69.7873486,94.1942711 69.1599317,96.0747108 C69.0062356,96.5284277 68.7272667,97.0107002 68.5619908,97.431631 C67.6977135,99.4326388 66.5460457,101.310963 65.2512088,103.090929 C63.1352559,105.977161 60.652959,108.087103 57.8253722,109.102414 C57.5864064,109.188081 57.3642839,109.267402 57.1568995,109.342492 C56.5147446,109.57411 55.8589045,109.780345 55.1651667,109.899855 C51.2827616,110.707873 47.8361797,110.642301 44.8159464,109.673526 C41.8241364,108.681483 39.6692332,106.335693 38.3470258,102.621348 C36.8995456,98.5516454 36.9174417,94.5602059 38.3954506,90.6385691 C38.4912475,90.251482 38.6302056,89.8686253 38.8102195,89.4868263 C39.6671278,87.5947528 40.7398422,85.9628527 42.0252046,84.5847802 C42.8579005,83.9354046 43.6411189,83.2183415 44.3801233,82.436764 C44.6527759,82.1871668 44.9527991,81.9629524 45.2791401,81.7641207 C45.231768,81.628746 45.6854873,81.2649264 46.643456,80.6747772 C47.2266589,80.3120152 48.003561,79.8805082 48.9688987,79.3813139 C49.3573498,79.1602723 49.74159,78.9572102 50.1205666,78.7753004 C51.9722886,77.710282 53.3187083,77.0281203 54.1577205,76.7256424 C57.3684948,75.5728419 59.5991934,74.9319271 60.8487636,74.7986676 C60.7834954,75.633126 60.2887203,76.7859264 59.4107578,78.3913862 C58.3864681,80.1438544 57.8611644,81.6541288 57.4369211,81.8064253 L63.0931474,79.7758043 C63.652138,79.5759151 64.861705,78.8271236 66.5334131,77.9112289 C68.2040684,76.9604329 69.0904527,76.4622962 69.9726261,75.9937727 L70.2863345,76.8715932 Z M46.2162896,87.9924702 C44.6514991,88.9743783 43.3170746,90.2796109 42.2140778,91.9103379 C39.927403,95.2748652 39.9284646,98.6155229 42.2183242,101.931226 C45.7396336,107.050168 50.5550269,107.867159 56.664504,104.384369 C59.6698784,102.672268 61.0181036,100.157281 60.7059948,96.8415783 C59.8864437,88.1964467 55.0572497,85.2474673 46.2162896,87.9924702 Z M57.9734502,98.2195046 C57.9883125,98.5992481 57.9554031,98.9779066 57.8768451,99.3565651 C57.0434933,100.142092 56.0721342,100.376448 54.959583,100.060718 C53.3703759,99.5920061 52.8236546,98.5352342 53.3194193,96.8860625 C53.4510571,96.453155 53.6654992,96.156955 53.9638073,96.0007177 C54.8831482,95.3280293 55.7770109,95.2575055 56.6485801,95.7967412 C57.4893631,96.3175323 57.932048,97.1258434 57.9734502,98.2195046 Z" id="Combined-Shape" fill="#FFFFFF" fill-rule="nonzero"></path>
            </g>
            <g id="Add-Ground-On-Action" transform="translate(313.000000, 640.000000)" fill="#FFFFFF">
                <rect id="Rectangle-2" opacity="0" x="0" y="0" width="150" height="150"></rect>
                <path d="M77.0949876,72.1156343 C77.1047732,72.0077595 77.109773,71.8985028 77.109773,71.7880784 L77.109773,42.5797485 C77.109773,40.602708 75.507065,39 73.5300245,39 C71.552984,39 69.950276,40.602708 69.950276,42.5797485 L69.950276,71.7880784 C69.950276,71.8985028 69.9552758,72.0077595 69.9650614,72.1156343 L39.5797485,72.1156343 C37.602708,72.1156343 36,73.7183423 36,75.6953829 C36,77.6724234 37.602708,79.2751314 39.5797485,79.2751314 L107.513864,79.2751314 C109.490905,79.2751314 111.093613,77.6724234 111.093613,75.6953829 C111.093613,73.7183423 109.490905,72.1156343 107.513864,72.1156343 L77.0949876,72.1156343 Z M48.5083251,90.7545491 C46.5312846,90.7545491 44.9285766,89.151841 44.9285766,87.1748005 C44.9285766,85.19776 46.5312846,83.595052 48.5083251,83.595052 L98.5928355,83.595052 C100.569876,83.595052 102.172584,85.19776 102.172584,87.1748005 C102.172584,89.151841 100.569876,90.7545491 98.5928355,90.7545491 L48.5083251,90.7545491 Z M57.622023,102.196997 C55.6449825,102.196997 54.0422744,100.594289 54.0422744,98.6172483 C54.0422744,96.6402078 55.6449825,95.0374998 57.622023,95.0374998 L89.4361789,95.0374998 C91.4132194,95.0374998 93.0159274,96.6402078 93.0159274,98.6172483 C93.0159274,100.594289 91.4132194,102.196997 89.4361789,102.196997 L57.622023,102.196997 Z M67.0422708,113.653094 C65.0652303,113.653094 63.4625223,112.050386 63.4625223,110.073346 C63.4625223,108.096305 65.0652303,106.493597 67.0422708,106.493597 L79.9986695,106.493597 C81.97571,106.493597 83.578418,108.096305 83.578418,110.073346 C83.578418,112.050386 81.97571,113.653094 79.9986695,113.653094 L67.0422708,113.653094 Z" id="Combined-Shape" fill-rule="nonzero"></path>
                <g id="PLUS" transform="translate(12.750000, 13.125000)">
                    <path d="M16.875,33.75 C7.55519485,33.75 0,26.1948052 0,16.875 C0,7.55519485 7.55519485,0 16.875,0 C26.1948052,0 33.75,7.55519485 33.75,16.875 C33.75,26.1948052 26.1948052,33.75 16.875,33.75 Z M19.2475248,14.8774752 L19.2475248,6.75 L14.8774752,6.75 L14.8774752,14.8774752 L6.75,14.8774752 L6.75,19.2475248 L14.8774752,19.2475248 L14.8774752,27.375 L19.2475248,27.375 L19.2475248,19.2475248 L27.375,19.2475248 L27.375,14.8774752 L19.2475248,14.8774752 Z" id="Combined-Shape"></path>
                </g>
            </g>
            <g id="Fire-Department-Coming" transform="translate(163.000000, 790.000000)" fill="#FFFFFF">
                <rect id="Rectangle-2" opacity="0" x="0" y="0" width="150" height="150"></rect>
                <path d="M125.316025,56.8839278 L118.697183,56.8839278 L118.697183,50.25 L112.078342,50.25 L112.078342,56.8839278 L100.495592,56.8839278 C97.7555,56.8839278 95.532575,59.1131135 95.532575,61.8598206 L95.532575,80.1044629 L95.532575,86.7392845 L92.2227083,86.7392845 L92.2227083,80.1044629 L92.2227083,73.470535 L49.2024667,73.470535 L49.2024667,80.1044629 L54.166375,80.1044629 C49.3415667,80.1053567 48.375,93.375 48.375,93.375 L52.6443,93.375 C52.566725,92.830664 52.5123333,92.2800712 52.5123333,91.7160711 C52.5123333,85.3055982 57.6982667,80.1053567 64.0941917,80.1053567 C70.4901167,80.1053567 75.67605,85.3047043 75.67605,91.7160711 C75.67605,92.2800712 75.6243333,92.830664 75.5467583,93.375 L102.282492,93.375 C102.204917,92.830664 102.150525,92.2800712 102.150525,91.7160711 C102.150525,85.3055982 107.336458,80.1053567 113.732383,80.1053567 C120.128308,80.1053567 125.315133,85.3047043 125.315133,91.7160711 C125.315133,92.2800712 125.262525,92.830664 125.18495,93.375 L128.625,93.375 L128.625,80.1053567 L125.316025,56.8839278 Z M63.75,83.25 C59.1928487,83.25 55.5,86.9446271 55.5,91.5 C55.5,96.0571513 59.1928487,99.75 63.75,99.75 C68.3071513,99.75 72,96.0571513 72,91.5 C72,86.9455163 68.3071513,83.25 63.75,83.25 M63.75,95.2133003 C61.703061,95.2133003 60.0366997,93.5487174 60.0366997,91.5008892 C60.0366997,89.4548394 61.703061,87.7884781 63.75,87.7884781 C65.796939,87.7884781 67.4624111,89.4548394 67.4624111,91.5008892 C67.4624111,93.5487174 65.796939,95.2133003 63.75,95.2133003 M114,83.25 C109.442849,83.25 105.75,86.9446271 105.75,91.5 C105.75,96.0571513 109.442849,99.75 114,99.75 C118.557151,99.75 122.25,96.0571513 122.25,91.5 C122.25,86.9455163 118.557151,83.25 114,83.25 M114,95.2133003 C111.953061,95.2133003 110.287589,93.5487174 110.287589,91.5008892 C110.287589,89.4548394 111.953061,87.7884781 114,87.7884781 C116.046939,87.7884781 117.7133,89.4548394 117.7133,91.5008892 C117.7133,93.5487174 116.046939,95.2133003 114,95.2133003 M91.875,66.843971 L88.5579673,66.843971 L88.5579673,60.281029 L91.875,60.281029 L91.875,57 L48.75,57 L48.75,60.281029 L52.0679265,60.281029 L52.0679265,66.843971 L48.75,66.843971 L48.75,70.125 L91.875,70.125 L91.875,66.843971 Z M58.7019918,66.843971 L55.3849592,66.843971 L55.3849592,60.281029 L58.7019918,60.281029 L58.7019918,66.843971 Z M65.3360572,66.843971 L62.0190245,66.843971 L62.0190245,60.281029 L65.3360572,60.281029 L65.3360572,66.843971 Z M71.9710163,66.843971 L68.6539837,66.843971 L68.6539837,60.281029 L71.9710163,60.281029 L71.9710163,66.843971 Z M78.6059755,66.843971 L75.288049,66.843971 L75.288049,60.281029 L78.6059755,60.281029 L78.6059755,66.843971 Z M85.2409347,66.843971 L81.9230082,66.843971 L81.9230082,60.281029 L85.2409347,60.281029 L85.2409347,66.843971 Z M105.460392,66.8366072 L98.84155,66.8366072 L98.84155,60.2017856 L105.460392,60.2017856 L105.460392,66.8366072 Z M108.769367,73.4714289 L108.769367,60.2017856 L112.078342,60.2017856 L118.697183,60.2017856 L122.006158,60.2017856 L123.6602,73.4714289 L108.769367,73.4714289 L108.769367,73.4714289 Z M40.5906424,57.093971 L40.5906424,60.375 L21.375,60.375 L21.375,57.093971 L40.5906424,57.093971 Z M40.5906424,64.593971 L40.5906424,67.875 L25.699809,67.875 L25.699809,64.593971 L40.5906424,64.593971 Z M40.5906424,72.093971 L40.5906424,75.375 L30.9828212,75.375 L30.9828212,72.093971 L40.5906424,72.093971 Z" id="Shape" fill-rule="nonzero" transform="translate(75.000000, 75.000000) scale(-1, 1) translate(-75.000000, -75.000000) "></path>
            </g>
            <g id="Sun-/-Fire-Switch" transform="translate(1523.000000, 505.000000)">
                <g id="Switch-Copy-2" transform="translate(114.500000, 52.000000) scale(-1, 1) translate(-114.500000, -52.000000) ">
                    <path d="M177.177419,2.5 L51.8225806,2.5 C24.6296282,2.5 2.5,24.705391 2.5,52 C2.5,79.294609 24.6296282,101.5 51.8225806,101.5 L177.177419,101.5 C204.370372,101.5 226.5,79.294609 226.5,52 C226.5,24.705391 204.370372,2.5 177.177419,2.5 Z" id="Shape-Copy-2" stroke="#FFFFFF" stroke-width="5" fill-rule="nonzero"></path>
                    <path d="M177.177419,91.7647059 C155.29,91.7647059 137.548387,73.9623529 137.548387,52 C137.548387,30.0376471 155.29,12.2352941 177.177419,12.2352941 C199.064839,12.2352941 216.806452,30.0376471 216.806452,52 C216.806452,73.9623529 199.064839,91.7647059 177.177419,91.7647059 Z" id="Path" fill="#FFFFFF"></path>
                </g>
                <g id="Sun-State" transform="translate(1.000000, 1.000000)">
                    <rect id="Background-Copy" fill="#000000" opacity="0" x="0" y="0" width="100" height="100"></rect>
                    <path d="M50.9591195,35.7704403 C59.3370021,35.7704403 66.1477987,42.5812369 66.1477987,50.9591195 C66.1477987,59.3370021 59.3370021,66.1477987 50.9591195,66.1477987 C42.5812369,66.1477987 35.7704403,59.3370021 35.7704403,50.9591195 C35.7704403,42.5812369 42.5812369,35.7704403 50.9591195,35.7704403 Z M50.9591195,31.4308176 C49.775586,31.4308176 48.7893082,30.6360611 48.7893082,29.5574631 L48.7893082,23.5400212 C48.7893082,22.5181915 49.775586,21.6666667 50.9591195,21.6666667 C52.1426529,21.6666667 53.1289308,22.5181915 53.1289308,23.5400212 L53.1289308,29.5574631 C53.1289308,30.5792928 52.1426529,31.4308176 50.9591195,31.4308176 Z M34.4963518,37.3236089 L29.8633027,32.6987891 C29.0602408,31.8971536 29.0602408,30.6638683 29.8633027,29.8622329 C30.6663645,29.0605974 31.9018443,29.0605974 32.7049061,29.8622329 L37.3379552,34.4870527 C38.141017,35.2886882 38.141017,36.5219735 37.3379552,37.3236089 C36.9673113,37.7552588 36.4113454,37.9402516 35.9171535,37.9402516 C35.4229616,37.9402516 34.8669957,37.6935945 34.4963518,37.3236089 Z M31.4308176,50.9591195 C31.4308176,52.1426529 30.6360611,53.1289308 29.5574631,53.1289308 L23.5400212,53.1289308 C22.5181915,53.1289308 21.6666667,52.1426529 21.6666667,50.9591195 C21.6666667,49.775586 22.5181915,48.7893082 23.5400212,48.7893082 L29.5574631,48.7893082 C30.5792928,48.7893082 31.4308176,49.775586 31.4308176,50.9591195 Z M34.4963518,63.4943083 C35.2994136,62.6926729 36.5966673,62.6926729 37.3379552,63.4943083 C38.141017,64.2959438 38.141017,65.5292291 37.3379552,66.3308645 L32.7049061,70.9556844 C32.3342622,71.3873342 31.7782963,71.572327 31.2841044,71.572327 C30.7899125,71.572327 30.2339466,71.32567 29.8633027,70.9556844 C29.0602408,70.154049 29.0602408,68.9207637 29.8633027,68.1191282 L34.4963518,63.4943083 Z M50.9591195,69.4025157 C52.1426529,69.4025157 53.1289308,70.1972722 53.1289308,71.2758703 L53.1289308,77.2933121 C53.1289308,78.3151419 52.1426529,79.1666667 50.9591195,79.1666667 C49.775586,79.1666667 48.7893082,78.3151419 48.7893082,77.2933121 L48.7893082,71.2758703 C48.7893082,70.2540405 49.775586,69.4025157 50.9591195,69.4025157 Z M66.3369816,63.4943083 L70.9700307,68.1191282 C71.7730925,68.9207637 71.7730925,70.154049 70.9700307,70.9556844 C70.5993867,71.3873342 70.0434208,71.572327 69.5492289,71.572327 C69.055037,71.572327 68.4990712,71.32567 68.1284272,70.9556844 L63.4953781,66.3308645 C62.6923163,65.5292291 62.6923163,64.2959438 63.4953781,63.4943083 C64.29844,62.6926729 65.5339197,62.6926729 66.3369816,63.4943083 Z M77.2933121,48.7893082 C78.3151419,48.7893082 79.1666667,49.775586 79.1666667,50.9591195 C79.1666667,52.1426529 78.3151419,53.1289308 77.2933121,53.1289308 L71.2758703,53.1289308 C70.2540405,53.1289308 69.4025157,52.1426529 69.4025157,50.9591195 C69.4025157,49.775586 70.2540405,48.7893082 71.2758703,48.7893082 L77.2933121,48.7893082 Z M64.9161799,37.9402516 C64.360214,37.9402516 63.8660221,37.7552588 63.4953781,37.3236089 C62.6923163,36.5219735 62.6923163,35.2886882 63.4953781,34.4870527 L68.1284272,29.8622329 C68.9314891,29.0605974 70.1669688,29.0605974 70.9700307,29.8622329 C71.7730925,30.6638683 71.7730925,31.8971536 70.9700307,32.6987891 L66.3369816,37.3236089 C65.9663377,37.7552588 65.4103718,37.9402516 64.9161799,37.9402516 Z" id="Combined-Shape" fill="#4D70B8" fill-rule="nonzero"></path>
                </g>
                <g id="Fire-State" transform="translate(131.000000, 0.000000)">
                    <rect id="Background-Copy" fill="#6F6F6F" opacity="0" x="0" y="0" width="100" height="100"></rect>
                    <path d="M62.7804955,48.9294079 C60.1681097,43.2328169 61.0717111,38.5156232 61.0717111,38.5156232 C61.0717111,38.5156232 55.955266,43.286214 56.750541,50.288668 C57.0180546,52.6448992 57.9830851,55.3188093 58.8470549,57.9629792 C57.9579851,60.0630395 56.3892325,62.1698589 53.7213624,61.6960442 C48.6577595,60.7964046 50.4154229,56.6544125 51.480193,53.0734278 C52.5449632,49.4917671 49.9061563,46.6313052 49.9061563,46.6313052 C49.9061563,46.6313052 47.5275972,52.8463211 45.4991176,48.0061113 C43.470638,43.1659015 53.9393365,38.1634727 52.7160398,30.9683836 C51.4934036,23.7732945 46.6372063,19 46.6372063,19 C46.6372063,19 49.7766929,23.4725134 47.7468923,29.1238182 C45.7170916,34.7751231 41.7671379,34.2641332 38.0932846,41.1287011 C34.4194313,47.993269 39.864819,54.1798966 37.270928,55.676367 C31.9252799,58.7612319 32.9319236,47.5944806 32.9319236,47.5944806 C32.9319236,47.5944806 26.2652208,55.8649466 32.4893703,68.8343567 C39.200989,82.8203393 54.8951196,79.5583853 55.7022841,79.3799444 C60.4613838,78.7844654 64.9800517,75.5340019 67.4068293,69.295329 C72.0252367,57.4195455 65.3928813,54.6259989 62.7804955,48.9294079 Z" id="Shape-Copy-6" fill="#FFFFFF" fill-rule="nonzero"></path>
                </g>
            </g>
            <g id="Fire-Truck-Coming-Switch" transform="translate(1518.000000, 665.000000)">
                <g id="Switch" transform="translate(5.000000, 0.000000)">
                    <path d="M177.177419,2.5 L51.8225806,2.5 C24.6296282,2.5 2.5,24.705391 2.5,52 C2.5,79.294609 24.6296282,101.5 51.8225806,101.5 L177.177419,101.5 C204.370372,101.5 226.5,79.294609 226.5,52 C226.5,24.705391 204.370372,2.5 177.177419,2.5 Z" id="Shape-Copy-2" stroke="#FFFFFF" stroke-width="5" fill-rule="nonzero"></path>
                    <path d="M177.177419,91.7647059 C155.29,91.7647059 137.548387,73.9623529 137.548387,52 C137.548387,30.0376471 155.29,12.2352941 177.177419,12.2352941 C199.064839,12.2352941 216.806452,30.0376471 216.806452,52 C216.806452,73.9623529 199.064839,91.7647059 177.177419,91.7647059 Z" id="Path" fill="#FFFFFF"></path>
                </g>
                <g id="Fire-Department-Coming" transform="translate(139.000000, 7.000000)">
                    <rect id="Rectangle-2" fill="#FFFFFF" opacity="0" x="0" y="0" width="90" height="90"></rect>
                    <path d="M75.189615,34.1303567 L71.21831,34.1303567 L71.21831,30.15 L67.247005,30.15 L67.247005,34.1303567 L60.297355,34.1303567 C58.6533,34.1303567 57.319545,35.4678681 57.319545,37.1158924 L57.319545,48.0626777 L57.319545,52.0435707 L55.333625,52.0435707 L55.333625,48.0626777 L55.333625,44.082321 L29.52148,44.082321 L29.52148,48.0626777 L32.499825,48.0626777 C29.60494,48.063214 29.025,56.025 29.025,56.025 L31.58658,56.025 C31.540035,55.6983984 31.5074,55.3680427 31.5074,55.0296427 C31.5074,51.1833589 34.61896,48.063214 38.456515,48.063214 C42.29407,48.063214 45.40563,51.1828226 45.40563,55.0296427 C45.40563,55.3680427 45.3746,55.6983984 45.328055,56.025 L61.369495,56.025 C61.32295,55.6983984 61.290315,55.3680427 61.290315,55.0296427 C61.290315,51.1833589 64.401875,48.063214 68.23943,48.063214 C72.076985,48.063214 75.18908,51.1828226 75.18908,55.0296427 C75.18908,55.3680427 75.157515,55.6983984 75.11097,56.025 L77.175,56.025 L77.175,48.063214 L75.189615,34.1303567 Z M38.25,49.95 C35.5157092,49.95 33.3,52.1667762 33.3,54.9 C33.3,57.6342908 35.5157092,59.85 38.25,59.85 C40.9842908,59.85 43.2,57.6342908 43.2,54.9 C43.2,52.1673098 40.9842908,49.95 38.25,49.95 M38.25,57.1279802 C37.0218366,57.1279802 36.0220198,56.1292304 36.0220198,54.9005335 C36.0220198,53.6729036 37.0218366,52.6730869 38.25,52.6730869 C39.4781634,52.6730869 40.4774466,53.6729036 40.4774466,54.9005335 C40.4774466,56.1292304 39.4781634,57.1279802 38.25,57.1279802 M68.4,49.95 C65.6657092,49.95 63.45,52.1667762 63.45,54.9 C63.45,57.6342908 65.6657092,59.85 68.4,59.85 C71.1342908,59.85 73.35,57.6342908 73.35,54.9 C73.35,52.1673098 71.1342908,49.95 68.4,49.95 M68.4,57.1279802 C67.1718366,57.1279802 66.1725534,56.1292304 66.1725534,54.9005335 C66.1725534,53.6729036 67.1718366,52.6730869 68.4,52.6730869 C69.6281634,52.6730869 70.6279802,53.6729036 70.6279802,54.9005335 C70.6279802,56.1292304 69.6281634,57.1279802 68.4,57.1279802 M55.125,40.1063826 L53.1347804,40.1063826 L53.1347804,36.1686174 L55.125,36.1686174 L55.125,34.2 L29.25,34.2 L29.25,36.1686174 L31.2407559,36.1686174 L31.2407559,40.1063826 L29.25,40.1063826 L29.25,42.075 L55.125,42.075 L55.125,40.1063826 Z M35.2211951,40.1063826 L33.2309755,40.1063826 L33.2309755,36.1686174 L35.2211951,36.1686174 L35.2211951,40.1063826 Z M39.2016343,40.1063826 L37.2114147,40.1063826 L37.2114147,36.1686174 L39.2016343,36.1686174 L39.2016343,40.1063826 Z M43.1826098,40.1063826 L41.1923902,40.1063826 L41.1923902,36.1686174 L43.1826098,36.1686174 L43.1826098,40.1063826 Z M47.1635853,40.1063826 L45.1728294,40.1063826 L45.1728294,36.1686174 L47.1635853,36.1686174 L47.1635853,40.1063826 Z M51.1445608,40.1063826 L49.1538049,40.1063826 L49.1538049,36.1686174 L51.1445608,36.1686174 L51.1445608,40.1063826 Z M63.276235,40.1019643 L59.30493,40.1019643 L59.30493,36.1210713 L63.276235,36.1210713 L63.276235,40.1019643 Z M65.26162,44.0828573 L65.26162,36.1210713 L67.247005,36.1210713 L71.21831,36.1210713 L73.203695,36.1210713 L74.19612,44.0828573 L65.26162,44.0828573 L65.26162,44.0828573 Z M24.3543854,34.2563826 L24.3543854,36.225 L12.825,36.225 L12.825,34.2563826 L24.3543854,34.2563826 Z M24.3543854,38.7563826 L24.3543854,40.725 L15.4198854,40.725 L15.4198854,38.7563826 L24.3543854,38.7563826 Z M24.3543854,43.2563826 L24.3543854,45.225 L18.5896927,45.225 L18.5896927,43.2563826 L24.3543854,43.2563826 Z" id="Shape" fill="#4D70B8" fill-rule="nonzero" transform="translate(45.000000, 45.000000) scale(-1, 1) translate(-45.000000, -45.000000) "></path>
                </g>
                <g id="Fire-Department-Static" transform="translate(0.000000, 7.000000)" fill="#FFFFFF">
                    <rect id="Rectangle-2" opacity="0" x="0" y="0" width="90" height="90"></rect>
                    <path d="M73.989615,34.1303567 L70.01831,34.1303567 L70.01831,30.15 L66.047005,30.15 L66.047005,34.1303567 L59.097355,34.1303567 C57.4533,34.1303567 56.119545,35.4678681 56.119545,37.1158924 L56.119545,48.0626777 L56.119545,52.0435707 L54.133625,52.0435707 L54.133625,48.0626777 L54.133625,44.082321 L28.32148,44.082321 L28.32148,48.0626777 L31.299825,48.0626777 C28.40494,48.063214 27.825,56.025 27.825,56.025 L30.38658,56.025 C30.340035,55.6983984 30.3074,55.3680427 30.3074,55.0296427 C30.3074,51.1833589 33.41896,48.063214 37.256515,48.063214 C41.09407,48.063214 44.20563,51.1828226 44.20563,55.0296427 C44.20563,55.3680427 44.1746,55.6983984 44.128055,56.025 L60.169495,56.025 C60.12295,55.6983984 60.090315,55.3680427 60.090315,55.0296427 C60.090315,51.1833589 63.201875,48.063214 67.03943,48.063214 C70.876985,48.063214 73.98908,51.1828226 73.98908,55.0296427 C73.98908,55.3680427 73.957515,55.6983984 73.91097,56.025 L75.975,56.025 L75.975,48.063214 L73.989615,34.1303567 Z M37.05,49.95 C34.3157092,49.95 32.1,52.1667762 32.1,54.9 C32.1,57.6342908 34.3157092,59.85 37.05,59.85 C39.7842908,59.85 42,57.6342908 42,54.9 C42,52.1673098 39.7842908,49.95 37.05,49.95 M37.05,57.1279802 C35.8218366,57.1279802 34.8220198,56.1292304 34.8220198,54.9005335 C34.8220198,53.6729036 35.8218366,52.6730869 37.05,52.6730869 C38.2781634,52.6730869 39.2774466,53.6729036 39.2774466,54.9005335 C39.2774466,56.1292304 38.2781634,57.1279802 37.05,57.1279802 M67.2,49.95 C64.4657092,49.95 62.25,52.1667762 62.25,54.9 C62.25,57.6342908 64.4657092,59.85 67.2,59.85 C69.9342908,59.85 72.15,57.6342908 72.15,54.9 C72.15,52.1673098 69.9342908,49.95 67.2,49.95 M67.2,57.1279802 C65.9718366,57.1279802 64.9725534,56.1292304 64.9725534,54.9005335 C64.9725534,53.6729036 65.9718366,52.6730869 67.2,52.6730869 C68.4281634,52.6730869 69.4279802,53.6729036 69.4279802,54.9005335 C69.4279802,56.1292304 68.4281634,57.1279802 67.2,57.1279802 M53.925,40.1063826 L51.9347804,40.1063826 L51.9347804,36.1686174 L53.925,36.1686174 L53.925,34.2 L28.05,34.2 L28.05,36.1686174 L30.0407559,36.1686174 L30.0407559,40.1063826 L28.05,40.1063826 L28.05,42.075 L53.925,42.075 L53.925,40.1063826 Z M34.0211951,40.1063826 L32.0309755,40.1063826 L32.0309755,36.1686174 L34.0211951,36.1686174 L34.0211951,40.1063826 Z M38.0016343,40.1063826 L36.0114147,40.1063826 L36.0114147,36.1686174 L38.0016343,36.1686174 L38.0016343,40.1063826 Z M41.9826098,40.1063826 L39.9923902,40.1063826 L39.9923902,36.1686174 L41.9826098,36.1686174 L41.9826098,40.1063826 Z M45.9635853,40.1063826 L43.9728294,40.1063826 L43.9728294,36.1686174 L45.9635853,36.1686174 L45.9635853,40.1063826 Z M49.9445608,40.1063826 L47.9538049,40.1063826 L47.9538049,36.1686174 L49.9445608,36.1686174 L49.9445608,40.1063826 Z M62.076235,40.1019643 L58.10493,40.1019643 L58.10493,36.1210713 L62.076235,36.1210713 L62.076235,40.1019643 Z M64.06162,44.0828573 L64.06162,36.1210713 L66.047005,36.1210713 L70.01831,36.1210713 L72.003695,36.1210713 L72.99612,44.0828573 L64.06162,44.0828573 L64.06162,44.0828573 Z" id="Shape" fill-rule="nonzero" transform="translate(51.900000, 45.000000) scale(-1, 1) translate(-51.900000, -45.000000) "></path>
                </g>
            </g>
            <g id="Rod-or-not-Rod-Switch" transform="translate(1523.000000, 825.000000)">
                <g id="Switch-Copy">
                    <path d="M177.177419,2.5 L51.8225806,2.5 C24.6296282,2.5 2.5,24.705391 2.5,52 C2.5,79.294609 24.6296282,101.5 51.8225806,101.5 L177.177419,101.5 C204.370372,101.5 226.5,79.294609 226.5,52 C226.5,24.705391 204.370372,2.5 177.177419,2.5 Z" id="Shape-Copy-2" stroke="#FFFFFF" stroke-width="5" fill-rule="nonzero"></path>
                    <path d="M177.177419,91.7647059 C155.29,91.7647059 137.548387,73.9623529 137.548387,52 C137.548387,30.0376471 155.29,12.2352941 177.177419,12.2352941 C199.064839,12.2352941 216.806452,30.0376471 216.806452,52 C216.806452,73.9623529 199.064839,91.7647059 177.177419,91.7647059 Z" id="Path" fill="#FFFFFF"></path>
                </g>
                <g id="Add-Ground-On-Action" transform="translate(133.000000, 5.000000)">
                    <rect id="Rectangle-2" fill="#FFFFFF" opacity="0" x="0" y="0" width="90" height="90"></rect>
                    <path d="M46.2569926,43.2693806 C46.2628639,43.2046557 46.2658638,43.1391017 46.2658638,43.072847 L46.2658638,25.5478491 C46.2658638,24.3616248 45.304239,23.4 44.1180147,23.4 C42.9317904,23.4 41.9701656,24.3616248 41.9701656,25.5478491 L41.9701656,43.072847 C41.9701656,43.1391017 41.9731655,43.2046557 41.9790368,43.2693806 L23.7478491,43.2693806 C22.5616248,43.2693806 21.6,44.2310054 21.6,45.4172297 C21.6,46.603454 22.5616248,47.5650788 23.7478491,47.5650788 L64.5083185,47.5650788 C65.6945428,47.5650788 66.6561676,46.603454 66.6561676,45.4172297 C66.6561676,44.2310054 65.6945428,43.2693806 64.5083185,43.2693806 L46.2569926,43.2693806 Z M29.1049951,54.4527294 C27.9187707,54.4527294 26.9571459,53.4911046 26.9571459,52.3048803 C26.9571459,51.118656 27.9187707,50.1570312 29.1049951,50.1570312 L59.1557013,50.1570312 C60.3419256,50.1570312 61.3035504,51.118656 61.3035504,52.3048803 C61.3035504,53.4911046 60.3419256,54.4527294 59.1557013,54.4527294 L29.1049951,54.4527294 Z M34.5732138,61.3181981 C33.3869895,61.3181981 32.4253647,60.3565733 32.4253647,59.170349 C32.4253647,57.9841247 33.3869895,57.0224999 34.5732138,57.0224999 L53.6617073,57.0224999 C54.8479316,57.0224999 55.8095564,57.9841247 55.8095564,59.170349 C55.8095564,60.3565733 54.8479316,61.3181981 53.6617073,61.3181981 L34.5732138,61.3181981 Z M40.2253625,68.1918565 C39.0391382,68.1918565 38.0775134,67.2302317 38.0775134,66.0440074 C38.0775134,64.8577831 39.0391382,63.8961583 40.2253625,63.8961583 L47.9992017,63.8961583 C49.185426,63.8961583 50.1470508,64.8577831 50.1470508,66.0440074 C50.1470508,67.2302317 49.185426,68.1918565 47.9992017,68.1918565 L40.2253625,68.1918565 Z" id="Combined-Shape" fill="#4D70B8" fill-rule="nonzero"></path>
                </g>
                <g id="Ground-Off" transform="translate(5.000000, 5.000000)">
                    <rect id="Rectangle-2" x="0" y="0" width="90" height="90"></rect>
                    <path d="M46.2569926,43.2693806 C46.2628639,43.2046557 46.2658638,43.1391017 46.2658638,43.072847 L46.2658638,25.5478491 C46.2658638,24.3616248 45.304239,23.4 44.1180147,23.4 C42.9317904,23.4 41.9701656,24.3616248 41.9701656,25.5478491 L41.9701656,43.072847 C41.9701656,43.1391017 41.9731655,43.2046557 41.9790368,43.2693806 L23.7478491,43.2693806 C22.5616248,43.2693806 21.6,44.2310054 21.6,45.4172297 C21.6,46.603454 22.5616248,47.5650788 23.7478491,47.5650788 L64.5083185,47.5650788 C65.6945428,47.5650788 66.6561676,46.603454 66.6561676,45.4172297 C66.6561676,44.2310054 65.6945428,43.2693806 64.5083185,43.2693806 L46.2569926,43.2693806 Z M29.1049951,54.4527294 C27.9187707,54.4527294 26.9571459,53.4911046 26.9571459,52.3048803 C26.9571459,51.118656 27.9187707,50.1570312 29.1049951,50.1570312 L59.1557013,50.1570312 C60.3419256,50.1570312 61.3035504,51.118656 61.3035504,52.3048803 C61.3035504,53.4911046 60.3419256,54.4527294 59.1557013,54.4527294 L29.1049951,54.4527294 Z M34.5732138,61.3181981 C33.3869895,61.3181981 32.4253647,60.3565733 32.4253647,59.170349 C32.4253647,57.9841247 33.3869895,57.0224999 34.5732138,57.0224999 L53.6617073,57.0224999 C54.8479316,57.0224999 55.8095564,57.9841247 55.8095564,59.170349 C55.8095564,60.3565733 54.8479316,61.3181981 53.6617073,61.3181981 L34.5732138,61.3181981 Z M40.2253625,68.1918565 C39.0391382,68.1918565 38.0775134,67.2302317 38.0775134,66.0440074 C38.0775134,64.8577831 39.0391382,63.8961583 40.2253625,63.8961583 L47.9992017,63.8961583 C49.185426,63.8961583 50.1470508,64.8577831 50.1470508,66.0440074 C50.1470508,67.2302317 49.185426,68.1918565 47.9992017,68.1918565 L40.2253625,68.1918565 Z" id="Combined-Shape" fill="#FFFFFF" fill-rule="nonzero"></path>
                    <path d="M27.3478491,52.8956982 L68.1083185,52.8956982 C69.2945428,52.8956982 70.2561676,51.9340734 70.2561676,50.7478491 C70.2561676,49.5616248 69.2945428,48.6 68.1083185,48.6 L27.3478491,48.6 C26.1616248,48.6 25.2,49.5616248 25.2,50.7478491 C25.2,51.9340734 26.1616248,52.8956982 27.3478491,52.8956982 Z" id="Shape-Copy" fill="#FFFFFF" transform="translate(47.728084, 50.747849) rotate(-45.000000) translate(-47.728084, -50.747849) "></path>
                </g>
            </g>
        </g>
    </g>
</svg>