<?xml version="1.0" encoding="UTF-8"?>
<svg width="1920px" height="1080px" viewBox="0 0 1920 1080" version="1.1" xmlns="http://www.w3.org/2000/svg" xmlns:xlink="http://www.w3.org/1999/xlink">
    <!-- Generator: Sketch 46.2 (44496) - http://www.bohemiancoding.com/sketch -->
    <title>blueprintOnlyEvents</title>
    <desc>Created with Sketch.</desc>
    <defs></defs>
    <g id="Actual-Slides" stroke="none" stroke-width="1" fill="none" fill-rule="evenodd">
        <g id="blueprintOnlyEvents">
            <g id="Events-Block" transform="translate(163.000000, 220.000000)">
                <rect id="Rectangle-7" stroke="#FFFFFF" stroke-width="5" x="2.5" y="2.5" width="435" height="215"></rect>
                <path d="M77,84.224 L77,135.632 L116.024,135.632 L116.024,126.128 L88.304,126.128 L88.304,113.528 L113.216,113.528 L113.216,104.744 L88.304,104.744 L88.304,93.728 L115.448,93.728 L115.448,84.224 L77,84.224 Z M149.56,135.632 L166.624,84.224 L154.96,84.224 L143.368,120.368 L143.224,120.368 L131.776,84.224 L120.184,84.224 L136.816,135.632 L149.56,135.632 Z M173.016,84.224 L173.016,135.632 L212.04,135.632 L212.04,126.128 L184.32,126.128 L184.32,113.528 L209.232,113.528 L209.232,104.744 L184.32,104.744 L184.32,93.728 L211.464,93.728 L211.464,84.224 L173.016,84.224 Z M221.672,84.224 L221.672,135.632 L232.256,135.632 L232.256,101.216 L232.4,101.216 L253.784,135.632 L265.088,135.632 L265.088,84.224 L254.504,84.224 L254.504,118.712 L254.36,118.712 L232.904,84.224 L221.672,84.224 Z M288.4,93.728 L288.4,135.632 L299.704,135.632 L299.704,93.728 L315.112,93.728 L315.112,84.224 L272.992,84.224 L272.992,93.728 L288.4,93.728 Z M330.72,118.568 L319.776,118.568 C319.728,121.736016 320.303994,124.471988 321.504,126.776 C322.704006,129.080012 324.32399,130.975993 326.364,132.464 C328.40401,133.952007 330.755987,135.043997 333.42,135.74 C336.084013,136.436003 338.831986,136.784 341.664,136.784 C345.168018,136.784 348.251987,136.376004 350.916,135.56 C353.580013,134.743996 355.811991,133.604007 357.612,132.14 C359.412009,130.675993 360.767995,128.93601 361.68,126.92 C362.592005,124.90399 363.048,122.720012 363.048,120.368 C363.048,117.487986 362.436006,115.124009 361.212,113.276 C359.987994,111.427991 358.536008,109.952006 356.856,108.848 C355.175992,107.743994 353.484009,106.940003 351.78,106.436 C350.075991,105.931997 348.744005,105.584001 347.784,105.392 C344.567984,104.575996 341.96401,103.904003 339.972,103.376 C337.97999,102.847997 336.420006,102.320003 335.292,101.792 C334.163994,101.263997 333.408002,100.688003 333.024,100.064 C332.639998,99.4399969 332.448,98.624005 332.448,97.616 C332.448,96.5119945 332.687998,95.6000036 333.168,94.88 C333.648002,94.1599964 334.259996,93.5600024 335.004,93.08 C335.748004,92.5999976 336.575995,92.264001 337.488,92.072 C338.400005,91.879999 339.311995,91.784 340.224,91.784 C341.616007,91.784 342.899994,91.9039988 344.076,92.144 C345.252006,92.3840012 346.295995,92.7919971 347.208,93.368 C348.120005,93.9440029 348.851997,94.735995 349.404,95.744 C349.956003,96.752005 350.28,98.0239923 350.376,99.56 L361.32,99.56 C361.32,96.5839851 360.756006,94.0520104 359.628,91.964 C358.499994,89.8759896 356.97601,88.1600067 355.056,86.816 C353.13599,85.4719933 350.940012,84.500003 348.468,83.9 C345.995988,83.299997 343.416013,83 340.728,83 C338.423988,83 336.120012,83.3119969 333.816,83.936 C331.511988,84.5600031 329.448009,85.5199935 327.624,86.816 C325.799991,88.1120065 324.324006,89.7319903 323.196,91.676 C322.067994,93.6200097 321.504,95.9119868 321.504,98.552 C321.504,100.904012 321.947996,102.907992 322.836,104.564 C323.724004,106.220008 324.887993,107.599994 326.328,108.704 C327.768007,109.808006 329.399991,110.707997 331.224,111.404 C333.048009,112.100003 334.91999,112.687998 336.84,113.168 C338.712009,113.696003 340.559991,114.175998 342.384,114.608 C344.208009,115.040002 345.839993,115.543997 347.28,116.12 C348.720007,116.696003 349.883996,117.415996 350.772,118.28 C351.660004,119.144004 352.104,120.271993 352.104,121.664 C352.104,122.960006 351.768003,124.027996 351.096,124.868 C350.423997,125.708004 349.584005,126.367998 348.576,126.848 C347.567995,127.328002 346.488006,127.651999 345.336,127.82 C344.183994,127.988001 343.104005,128.072 342.096,128.072 C340.607993,128.072 339.168007,127.892002 337.776,127.532 C336.383993,127.171998 335.172005,126.620004 334.14,125.876 C333.107995,125.131996 332.280003,124.160006 331.656,122.96 C331.031997,121.759994 330.72,120.296009 330.72,118.568 Z" id="EVENTS" fill="#FFFFFF"></path>
            </g>
        </g>
    </g>
</svg>