<?xml version="1.0" encoding="UTF-8"?>
<svg width="1920px" height="1080px" viewBox="0 0 1920 1080" version="1.1" xmlns="http://www.w3.org/2000/svg" xmlns:xlink="http://www.w3.org/1999/xlink">
    <!-- Generator: Sketch 46.2 (44496) - http://www.bohemiancoding.com/sketch -->
    <title>blueprintConnectingUpdate</title>
    <desc>Created with Sketch.</desc>
    <defs></defs>
    <g id="Actual-Slides" stroke="none" stroke-width="1" fill="none" fill-rule="evenodd">
        <g id="blueprintConnectingUpdate">
            <g id="Events-Block" transform="translate(163.000000, 220.000000)">
                <rect id="Rectangle-7" stroke="#FFFFFF" stroke-width="5" x="2.5" y="2.5" width="435" height="215"></rect>
                <path d="M77,84.224 L77,135.632 L116.024,135.632 L116.024,126.128 L88.304,126.128 L88.304,113.528 L113.216,113.528 L113.216,104.744 L88.304,104.744 L88.304,93.728 L115.448,93.728 L115.448,84.224 L77,84.224 Z M149.56,135.632 L166.624,84.224 L154.96,84.224 L143.368,120.368 L143.224,120.368 L131.776,84.224 L120.184,84.224 L136.816,135.632 L149.56,135.632 Z M173.016,84.224 L173.016,135.632 L212.04,135.632 L212.04,126.128 L184.32,126.128 L184.32,113.528 L209.232,113.528 L209.232,104.744 L184.32,104.744 L184.32,93.728 L211.464,93.728 L211.464,84.224 L173.016,84.224 Z M221.672,84.224 L221.672,135.632 L232.256,135.632 L232.256,101.216 L232.4,101.216 L253.784,135.632 L265.088,135.632 L265.088,84.224 L254.504,84.224 L254.504,118.712 L254.36,118.712 L232.904,84.224 L221.672,84.224 Z M288.4,93.728 L288.4,135.632 L299.704,135.632 L299.704,93.728 L315.112,93.728 L315.112,84.224 L272.992,84.224 L272.992,93.728 L288.4,93.728 Z M330.72,118.568 L319.776,118.568 C319.728,121.736016 320.303994,124.471988 321.504,126.776 C322.704006,129.080012 324.32399,130.975993 326.364,132.464 C328.40401,133.952007 330.755987,135.043997 333.42,135.74 C336.084013,136.436003 338.831986,136.784 341.664,136.784 C345.168018,136.784 348.251987,136.376004 350.916,135.56 C353.580013,134.743996 355.811991,133.604007 357.612,132.14 C359.412009,130.675993 360.767995,128.93601 361.68,126.92 C362.592005,124.90399 363.048,122.720012 363.048,120.368 C363.048,117.487986 362.436006,115.124009 361.212,113.276 C359.987994,111.427991 358.536008,109.952006 356.856,108.848 C355.175992,107.743994 353.484009,106.940003 351.78,106.436 C350.075991,105.931997 348.744005,105.584001 347.784,105.392 C344.567984,104.575996 341.96401,103.904003 339.972,103.376 C337.97999,102.847997 336.420006,102.320003 335.292,101.792 C334.163994,101.263997 333.408002,100.688003 333.024,100.064 C332.639998,99.4399969 332.448,98.624005 332.448,97.616 C332.448,96.5119945 332.687998,95.6000036 333.168,94.88 C333.648002,94.1599964 334.259996,93.5600024 335.004,93.08 C335.748004,92.5999976 336.575995,92.264001 337.488,92.072 C338.400005,91.879999 339.311995,91.784 340.224,91.784 C341.616007,91.784 342.899994,91.9039988 344.076,92.144 C345.252006,92.3840012 346.295995,92.7919971 347.208,93.368 C348.120005,93.9440029 348.851997,94.735995 349.404,95.744 C349.956003,96.752005 350.28,98.0239923 350.376,99.56 L361.32,99.56 C361.32,96.5839851 360.756006,94.0520104 359.628,91.964 C358.499994,89.8759896 356.97601,88.1600067 355.056,86.816 C353.13599,85.4719933 350.940012,84.500003 348.468,83.9 C345.995988,83.299997 343.416013,83 340.728,83 C338.423988,83 336.120012,83.3119969 333.816,83.936 C331.511988,84.5600031 329.448009,85.5199935 327.624,86.816 C325.799991,88.1120065 324.324006,89.7319903 323.196,91.676 C322.067994,93.6200097 321.504,95.9119868 321.504,98.552 C321.504,100.904012 321.947996,102.907992 322.836,104.564 C323.724004,106.220008 324.887993,107.599994 326.328,108.704 C327.768007,109.808006 329.399991,110.707997 331.224,111.404 C333.048009,112.100003 334.91999,112.687998 336.84,113.168 C338.712009,113.696003 340.559991,114.175998 342.384,114.608 C344.208009,115.040002 345.839993,115.543997 347.28,116.12 C348.720007,116.696003 349.883996,117.415996 350.772,118.28 C351.660004,119.144004 352.104,120.271993 352.104,121.664 C352.104,122.960006 351.768003,124.027996 351.096,124.868 C350.423997,125.708004 349.584005,126.367998 348.576,126.848 C347.567995,127.328002 346.488006,127.651999 345.336,127.82 C344.183994,127.988001 343.104005,128.072 342.096,128.072 C340.607993,128.072 339.168007,127.892002 337.776,127.532 C336.383993,127.171998 335.172005,126.620004 334.14,125.876 C333.107995,125.131996 332.280003,124.160006 331.656,122.96 C331.031997,121.759994 330.72,120.296009 330.72,118.568 Z" id="EVENTS" fill="#FFFFFF"></path>
            </g>
            <g id="State-Block" transform="translate(1317.000000, 220.000000)">
                <rect id="Rectangle-7-Copy" stroke="#FFFFFF" stroke-width="5" x="2.5" y="2.5" width="435" height="215"></rect>
                <path d="M119.946769,118.568 L109.002769,118.568 C108.954769,121.736016 109.530763,124.471988 110.730769,126.776 C111.930775,129.080012 113.550759,130.975993 115.590769,132.464 C117.630779,133.952007 119.982756,135.043997 122.646769,135.74 C125.310783,136.436003 128.058755,136.784 130.890769,136.784 C134.394787,136.784 137.478756,136.376004 140.142769,135.56 C142.806783,134.743996 145.03876,133.604007 146.838769,132.14 C148.638778,130.675993 149.994765,128.93601 150.906769,126.92 C151.818774,124.90399 152.274769,122.720012 152.274769,120.368 C152.274769,117.487986 151.662775,115.124009 150.438769,113.276 C149.214763,111.427991 147.762778,109.952006 146.082769,108.848 C144.402761,107.743994 142.710778,106.940003 141.006769,106.436 C139.302761,105.931997 137.970774,105.584001 137.010769,105.392 C133.794753,104.575996 131.190779,103.904003 129.198769,103.376 C127.206759,102.847997 125.646775,102.320003 124.518769,101.792 C123.390764,101.263997 122.634771,100.688003 122.250769,100.064 C121.866767,99.4399969 121.674769,98.624005 121.674769,97.616 C121.674769,96.5119945 121.914767,95.6000036 122.394769,94.88 C122.874772,94.1599964 123.486766,93.5600024 124.230769,93.08 C124.974773,92.5999976 125.802765,92.264001 126.714769,92.072 C127.626774,91.879999 128.538765,91.784 129.450769,91.784 C130.842776,91.784 132.126763,91.9039988 133.302769,92.144 C134.478775,92.3840012 135.522765,92.7919971 136.434769,93.368 C137.346774,93.9440029 138.078767,94.735995 138.630769,95.744 C139.182772,96.752005 139.506769,98.0239923 139.602769,99.56 L150.546769,99.56 C150.546769,96.5839851 149.982775,94.0520104 148.854769,91.964 C147.726764,89.8759896 146.202779,88.1600067 144.282769,86.816 C142.36276,85.4719933 140.166782,84.500003 137.694769,83.9 C135.222757,83.299997 132.642783,83 129.954769,83 C127.650758,83 125.346781,83.3119969 123.042769,83.936 C120.738758,84.5600031 118.674778,85.5199935 116.850769,86.816 C115.02676,88.1120065 113.550775,89.7319903 112.422769,91.676 C111.294764,93.6200097 110.730769,95.9119868 110.730769,98.552 C110.730769,100.904012 111.174765,102.907992 112.062769,104.564 C112.950774,106.220008 114.114762,107.599994 115.554769,108.704 C116.994776,109.808006 118.62676,110.707997 120.450769,111.404 C122.274778,112.100003 124.14676,112.687998 126.066769,113.168 C127.938779,113.696003 129.78676,114.175998 131.610769,114.608 C133.434778,115.040002 135.066762,115.543997 136.506769,116.12 C137.946776,116.696003 139.110765,117.415996 139.998769,118.28 C140.886774,119.144004 141.330769,120.271993 141.330769,121.664 C141.330769,122.960006 140.994773,124.027996 140.322769,124.868 C139.650766,125.708004 138.810774,126.367998 137.802769,126.848 C136.794764,127.328002 135.714775,127.651999 134.562769,127.82 C133.410764,127.988001 132.330774,128.072 131.322769,128.072 C129.834762,128.072 128.394776,127.892002 127.002769,127.532 C125.610762,127.171998 124.398774,126.620004 123.366769,125.876 C122.334764,125.131996 121.506772,124.160006 120.882769,122.96 C120.258766,121.759994 119.946769,120.296009 119.946769,118.568 Z M172.346769,93.728 L156.938769,93.728 L156.938769,84.224 L199.058769,84.224 L199.058769,93.728 L183.650769,93.728 L183.650769,135.632 L172.346769,135.632 L172.346769,93.728 Z M213.298769,115.76 L226.618769,115.76 L220.138769,96.896 L219.994769,96.896 L213.298769,115.76 Z M214.378769,84.224 L225.970769,84.224 L245.194769,135.632 L233.458769,135.632 L229.570769,124.184 L210.346769,124.184 L206.314769,135.632 L194.938769,135.632 L214.378769,84.224 Z M256.410769,93.728 L241.002769,93.728 L241.002769,84.224 L283.122769,84.224 L283.122769,93.728 L267.714769,93.728 L267.714769,135.632 L256.410769,135.632 L256.410769,93.728 Z M291.026769,84.224 L291.026769,135.632 L330.050769,135.632 L330.050769,126.128 L302.330769,126.128 L302.330769,113.528 L327.242769,113.528 L327.242769,104.744 L302.330769,104.744 L302.330769,93.728 L329.474769,93.728 L329.474769,84.224 L291.026769,84.224 Z" id="STATE" fill="#FFFFFF"></path>
            </g>
            <g id="Lightning-Strike-Action" transform="translate(163.000000, 490.000000)">
                <rect id="Rectangle" fill="#6F6F6F" opacity="0" x="0" y="0" width="150" height="150"></rect>
                <path d="M92.6315789,45.8761613 C88.1286332,47.1874347 84.5521308,49.9075142 82.8188199,53.3319968 C81.6758473,52.909355 80.4606983,52.6817786 79.1895318,52.6817786 C72.9618932,52.6817786 67.9213948,58.1977964 67.9213948,65.0034137 C67.9213948,69.3490387 69.9681883,73.1636522 73.0706964,75.3646409 L42.1102512,75.3646409 C42.0025252,75.3646409 41.8947992,75.3418832 41.7870732,75.3418832 C34.6987041,75.2443505 29,69.2200788 29,61.7848335 C29,54.4048569 34.5802055,48.4228493 41.5608487,48.1952729 C43.4675985,37.8134555 51.9025423,30 61.9964662,30 C70.2913662,30 77.4551436,35.2776045 80.8054214,42.9176685 C81.6553793,42.7551139 82.529037,42.6900921 83.4231626,42.6900921 C86.8682393,42.6900921 90.0580054,43.8702381 92.6315789,45.8761613 Z M122,67.7781462 C122,71.9589051 117.321649,75.3646409 111.538688,75.3646409 C111.33401,75.3646409 111.139079,75.3646409 110.944147,75.3318934 C110.846682,75.3646409 110.725391,75.3646409 110.607349,75.3646409 L83.5335596,75.3646409 C83.3288818,75.3646409 83.1209551,75.3646409 82.9162772,75.3318934 C82.7115994,75.3428092 82.4928432,75.3646409 82.2665063,75.3646409 L80.2630458,75.3646409 C80.0778611,75.3646409 79.9056718,75.3417177 79.7323996,75.3209776 C74.3393007,74.9170923 70.1157895,70.4306904 70.1157895,64.9509489 C70.1157895,59.2201436 74.7724813,54.5590886 80.5121247,54.5590886 C81.1185776,54.5590886 81.714201,54.6136677 82.2881653,54.7119101 C83.0581439,54.8428999 83.794551,55.0612163 84.4984695,55.3450276 C84.6587463,54.9738898 84.8558435,54.6027519 85.0616043,54.2425298 C86.9567696,50.9132048 90.4211317,48.3698189 94.6240668,47.3109844 C96.0091619,46.9507623 97.4819761,46.7651934 98.9981083,46.7651934 C107.585914,46.7651934 114.550376,52.7688942 114.550376,60.1916516 C114.550376,60.3008098 114.550376,60.4099679 114.537381,60.5191261 C114.939156,60.6064527 115.338765,60.7046951 115.719964,60.8356849 C119.410663,61.9927618 122,64.6769619 122,67.7781462 Z M70.5509968,101.252072 L71.9191802,98.525113 L61.3052632,98.525113 L67.968564,83.2541436 L82.6289024,83.2541436 L76.2465582,93.8020203 L86.2684211,93.8020203 L61.3052632,119.25 L70.5509968,101.252072 Z" id="Combined-Shape" fill="#FFFFFF" fill-rule="nonzero"></path>
            </g>
            <g id="Cellphone-Explosion-Action" transform="translate(313.000000, 490.000000)">
                <rect id="Rectangle" fill="#6F6F6F" opacity="0" x="0" y="0" width="150" height="150"></rect>
                <g id="Group" transform="translate(52.500000, 28.500000)" fill="#FFFFFF">
                    <g id="noun_1131411" transform="translate(0.000000, 6.750000)" fill-rule="nonzero">
                        <path d="M36.9782609,0 L10.2717391,0 C4.59881425,0 0,4.61706352 0,10.3125 L0,72.1875 C0,77.8829365 4.59881425,82.5 10.2717391,82.5 L36.9782609,82.5 C42.6511857,82.5 47.25,77.8829365 47.25,72.1875 L47.25,10.3125 C47.25,4.61706352 42.6511857,0 36.9782609,0 Z M28.7608696,75.28125 L18.4891304,75.28125 C17.3545455,75.28125 16.4347826,74.3578373 16.4347826,73.21875 C16.4347826,72.0796627 17.3545455,71.15625 18.4891304,71.15625 L28.7608696,71.15625 C29.8954545,71.15625 30.8152174,72.0796627 30.8152174,73.21875 C30.8152174,74.3578373 29.8954545,75.28125 28.7608696,75.28125 Z M43.1413043,64.96875 L4.10869565,64.96875 L4.10869565,13.40625 L43.1413043,13.40625 L43.1413043,64.96875 Z" id="Shape"></path>
                    </g>
                    <polygon id="Rectangle-2" points="27.554675 13.5 44.25 18.6798943 42.195325 25.5 25.5 20.3201057"></polygon>
                    <g id="noun_563989" transform="translate(19.500000, 0.000000)" fill-rule="nonzero">
                        <path d="M34.5,0.49122807 L19.6432432,6.20175439 L12.5567568,0 L11.127027,6.07894737 L0.559459459,3.92982456 L7.45945946,14.6754386 L0,17.377193 L7.08648649,20.754386 L6.34054054,31.5 L15.7891892,23.2719298 L23.2486486,29.9035088 L25.9837838,20.0789474 L32.5108108,20.8157895 L28.6567568,11.0526316 L34.5,0.49122807 Z M18.6486486,16.5789474 L20.7,24.1315789 L15.8513514,17.622807 L11.9972973,21.8596491 L13.9243243,16.5175439 L6.65135135,16.7631579 L13.3648649,14.3070175 L9.38648649,10.254386 L14.6702703,12.6491228 L17.2189189,7.36842105 L17.5297297,13.5087719 L23.1243243,9.94736842 L19.6432432,14.7982456 L25.1756757,15.7807018 L18.6486486,16.5789474 Z" id="Shape"></path>
                        <polygon id="Shape" points="28.8032407 23.9210526 29.2291667 23.3571429 27.7916667 22.7368421"></polygon>
                        <polygon id="Shape" points="2.63541667 21.7755418 2.84837963 22.5 4.07291667 21.5526316"></polygon>
                        <polygon id="Shape" points="13.65625 30.3588517 14.375 30.5526316 14.2644231 28.4210526"></polygon>
                        <polygon id="Shape" points="9.10416667 1.48374613 8.38541667 1.42105263 9.58333333 3.55263158"></polygon>
                        <polygon id="Shape" points="16.0520833 28.4210526 17.0104167 27.9637024 16.2317708 26.5263158"></polygon>
                        <polygon id="Shape" points="19.9775641 4.97368421 20.3645833 3.41729323 19.6458333 3.07894737"></polygon>
                        <path d="M24.6770833,2.13157895 C24.6770833,2.13157895 25.577847,1.22727273 25.6308331,1.22727273 C25.6838192,1.22727273 25.2599304,0.710526316 25.2599304,0.710526316 L24.6770833,2.13157895 Z" id="Shape"></path>
                        <polygon id="Shape" points="31.3854167 9.71052632 33.406901 8.76315789 33.5416667 9.47368421"></polygon>
                        <polygon id="Shape" points="1.078125 9.47368421 0.71875 9.97105263 1.67708333 10.1842105"></polygon>
                        <polygon id="Shape" points="4.79166667 13.7368421 3.71984649 13.0263158 3.59375 13.6421053"></polygon>
                    </g>
                </g>
            </g>
            <g id="Meteor-Action" transform="translate(163.000000, 640.000000)">
                <rect id="Rectangle" fill="#6F6F6F" opacity="0" x="0" y="0" width="150" height="150"></rect>
                <path d="M117.492085,34.6780385 L117.473137,34.6685199 C117.334178,34.5416061 117.175219,34.4876677 116.993099,34.5067048 C116.979414,34.4993015 116.966782,34.4982439 116.957307,34.5024744 C114.298154,34.6124663 112.27484,34.7224583 110.88947,34.8324503 C110.823149,34.844084 110.823149,35.0450309 110.758934,35.0566647 C108.222948,35.2153069 106.120681,35.8424727 104.296329,36.4971364 L104.264748,36.5087702 C100.382343,37.9027069 97.5937065,39.2088616 96.0662202,40.8947001 C96.0493767,40.9137371 96.0662202,41.0036344 96.0588512,41.018441 C94.4576749,42.7190861 93.4375961,44.6175053 93.3881186,47.8009267 L93.3723279,47.8062148 C93.1365202,50.0007662 92.5743715,51.9150495 91.6458788,53.4454186 C91.6174555,53.490896 91.5848214,53.5332006 91.5542928,53.5797357 C90.6573814,54.8404129 89.3151725,55.5934349 87.315018,55.2560556 L87.2992273,55.2613437 C85.0285256,55.0212651 82.9799464,54.9081003 81.1419097,54.8985817 C81.0324276,54.914446 80.8534664,54.7409971 80.7376679,54.7473428 C78.7111957,54.6997501 77.1215992,54.6955196 76.0857297,55.0667425 C76.0636228,55.0741458 76.0488848,55.0794339 76.0383577,55.0836644 C73.9666187,55.8271678 72.3096487,57.2591787 70.9642816,59.0920256 L70.8569049,59.228458 C69.9715734,60.4161598 69.2620449,62.1813194 68.0282654,64.6212374 L68.0230018,64.6053732 C67.7724562,66.8528053 66.4397217,68.6994013 66.0207419,69.4259829 C65.9996877,69.4333862 66.0523233,69.4206948 66.0565342,69.4302133 C65.1743608,70.8262653 64.1679673,71.7569666 62.9741909,72.2445271 C62.7299615,72.3450006 62.4888902,72.3724986 62.2204484,72.3397125 C61.9614811,72.302696 61.7404114,72.2001073 61.5435541,72.0372346 C61.4867076,72.0097366 61.4456518,71.9843538 61.4140704,71.9589711 C60.9087682,71.5898634 60.5740055,71.1520107 60.4066242,70.6485859 C60.3360924,70.4497543 60.3150381,70.2414041 60.341356,70.0203626 C60.3550412,69.6988476 60.4666288,69.3191638 60.6719078,68.8802535 C60.7329651,68.7522821 60.8045496,68.6380596 60.8971884,68.535471 C61.1793154,68.0468528 61.6456672,67.3445963 62.3625647,66.4064917 L62.3573011,66.3906275 C63.0215629,65.3076296 63.8363627,64.3177019 64.1384913,63.6566925 C64.1490184,63.6165031 64.1500711,63.5953508 64.1679673,63.5752561 C64.6995873,62.4108219 64.7722245,61.3701286 64.4385145,60.4330816 C64.4311455,60.4119293 64.4237765,60.390777 64.4164075,60.3696247 L64.1774417,59.6980391 C64.1216479,59.5425697 64.0153239,59.4167135 63.8637332,59.3183553 L63.8911038,59.3257586 C63.7553038,59.2358613 63.6173984,59.20096 63.4742295,59.2295156 C63.4510698,59.2263428 63.4300155,59.228458 63.4089613,59.2348037 C63.2321055,59.2633593 63.0741986,59.3426804 62.9341878,59.4759399 C62.8468126,59.5891047 62.7952297,59.7255371 62.7815444,59.8831217 C62.7783863,59.9074469 62.7762808,59.9328297 62.7731227,59.9560972 C62.6489026,60.9523706 62.1899198,61.8153846 61.3982797,62.5440814 C61.3298533,62.6159992 61.2930084,62.7894481 61.2108968,62.8550202 C60.4855776,63.4070953 59.4181268,64.2151132 57.8327412,64.7830525 C57.8127396,64.7904559 57.7969489,64.7968015 57.7864218,64.801032 C57.7758947,64.8042048 57.7653675,64.8073777 57.7548404,64.8105505 C55.475717,65.6291446 54.13035,66.2118906 53.6797889,66.4561996 C53.6103098,66.4911009 53.5313563,66.4667758 53.4797734,66.4836976 C51.9007041,67.3340202 50.8564129,68.5523928 50.3658487,70.1959267 C50.3405836,70.2868816 50.2995278,70.3693756 50.2532085,70.4687914 C49.8173853,71.7400447 48.9962693,73.451266 47.7930185,75.6214922 C45.5749524,77.4617425 43.3063562,79.2279597 40.9903878,80.9286048 C35.0194004,85.2912671 32.3939345,90.9505656 33.1171482,97.909673 C34.2446037,108.828491 40.2450671,114.666527 51.1206439,115.421664 C61.5498703,116.137669 68.4809319,111.945283 71.915934,102.847678 C73.6729118,98.1687887 75.3719904,93.7331509 76.9078985,89.2499205 C78.354326,87.9321321 80.3997471,87.2806412 82.7420333,86.4398371 L82.757824,86.4334914 C85.7117363,85.3737611 87.9519093,84.5350723 89.3109616,83.4245765 C89.3151725,83.4097699 89.2993818,83.3262183 89.3088562,83.3230454 C93.3375884,80.0359777 95.2830018,76.501428 94.9713988,72.8695777 C94.9577135,72.8272731 95.0608794,72.7045897 95.0450887,72.6622851 C95.0377197,72.6400752 95.029298,72.61575 95.0187708,72.582964 L94.8913926,72.2244325 C94.8303352,72.0573293 94.6282144,71.9663744 94.4808346,71.8785923 C94.4618857,71.8627281 94.3976702,71.8733042 94.3860904,71.8775347 C94.2429215,71.7992712 94.072382,71.7908103 93.9250022,71.8320573 C93.8986843,71.8288844 93.8639448,71.8352301 93.8418378,71.8426334 C93.6723511,71.8828228 93.533393,71.9621439 93.4460178,72.0742511 L93.5165496,71.9420492 C93.3586426,72.1757822 92.7501746,72.9626478 91.7079888,74.2994733 C91.6858819,74.3079342 91.6774602,74.3174528 91.681671,74.3269713 C91.1332076,74.9805774 90.6689612,75.4216029 90.2952482,75.652163 C90.1404994,75.7420603 89.9741707,75.8012868 89.8015258,75.8404185 C88.5045836,76.6558398 87.2392227,77.4384749 85.9138572,77.9133441 L85.8833285,77.9249779 C84.5769118,78.394559 83.4989338,78.3480239 82.5630721,77.5579855 C81.8251204,77.0238898 81.2356011,76.0085793 80.792409,74.5004202 C80.7292462,74.2888971 80.7176664,74.0763165 80.7587222,73.8626783 C81.422984,69.2927234 84.6295475,66.3356315 90.3763071,64.9882299 C95.0429832,63.8523513 97.7800367,62.9946254 98.5874675,62.4097642 C98.7148458,62.306118 98.8559093,62.2267968 99.0106581,62.1707432 C101.43295,60.5377855 102.784634,59.0666429 103.066761,57.7573154 C103.072024,57.7097227 103.080446,57.6653029 103.088868,57.6261711 C103.360468,56.2851151 103.155189,53.7404932 102.477242,49.9944205 C102.473031,49.9838443 102.481452,49.9944205 102.488821,49.9796139 C101.896144,46.6364925 103.203613,43.2172229 106.815471,40.8640292 L106.799681,40.8703749 C110.570498,38.4611277 113.801274,36.3310909 117.04363,36.0222673 C117.242592,35.9979421 117.420501,35.8985263 117.57525,35.7494026 C117.686837,35.5685504 117.742631,35.3665459 117.75,35.1539653 C117.707891,34.9709978 117.620516,34.8081251 117.492085,34.6780385 Z M70.2863345,76.8715932 C68.3661862,80.3310523 67.2692594,82.8830775 66.3291868,84.7688053 C65.0090849,87.4614933 63.9626883,89.9500617 63.2605288,91.9838555 C63.0668296,92.5253545 62.6457444,92.6015028 62.6678514,93.6485417 L63.0868311,93.4962451 C63.2942156,93.4232697 63.5152853,93.007627 63.919527,92.7337047 C64.2069176,92.5242969 64.4743067,92.0441396 64.8890756,91.7649292 C65.4280646,91.4053401 66.379717,91.2593892 67.237678,89.8950657 L70.3231795,88.7877427 L70.768477,90.039959 C70.4621376,92.1329793 69.7873486,94.1942711 69.1599317,96.0747108 C69.0062356,96.5284277 68.7272667,97.0107002 68.5619908,97.431631 C67.6977135,99.4326388 66.5460457,101.310963 65.2512088,103.090929 C63.1352559,105.977161 60.652959,108.087103 57.8253722,109.102414 C57.5864064,109.188081 57.3642839,109.267402 57.1568995,109.342492 C56.5147446,109.57411 55.8589045,109.780345 55.1651667,109.899855 C51.2827616,110.707873 47.8361797,110.642301 44.8159464,109.673526 C41.8241364,108.681483 39.6692332,106.335693 38.3470258,102.621348 C36.8995456,98.5516454 36.9174417,94.5602059 38.3954506,90.6385691 C38.4912475,90.251482 38.6302056,89.8686253 38.8102195,89.4868263 C39.6671278,87.5947528 40.7398422,85.9628527 42.0252046,84.5847802 C42.8579005,83.9354046 43.6411189,83.2183415 44.3801233,82.436764 C44.6527759,82.1871668 44.9527991,81.9629524 45.2791401,81.7641207 C45.231768,81.628746 45.6854873,81.2649264 46.643456,80.6747772 C47.2266589,80.3120152 48.003561,79.8805082 48.9688987,79.3813139 C49.3573498,79.1602723 49.74159,78.9572102 50.1205666,78.7753004 C51.9722886,77.710282 53.3187083,77.0281203 54.1577205,76.7256424 C57.3684948,75.5728419 59.5991934,74.9319271 60.8487636,74.7986676 C60.7834954,75.633126 60.2887203,76.7859264 59.4107578,78.3913862 C58.3864681,80.1438544 57.8611644,81.6541288 57.4369211,81.8064253 L63.0931474,79.7758043 C63.652138,79.5759151 64.861705,78.8271236 66.5334131,77.9112289 C68.2040684,76.9604329 69.0904527,76.4622962 69.9726261,75.9937727 L70.2863345,76.8715932 Z M46.2162896,87.9924702 C44.6514991,88.9743783 43.3170746,90.2796109 42.2140778,91.9103379 C39.927403,95.2748652 39.9284646,98.6155229 42.2183242,101.931226 C45.7396336,107.050168 50.5550269,107.867159 56.664504,104.384369 C59.6698784,102.672268 61.0181036,100.157281 60.7059948,96.8415783 C59.8864437,88.1964467 55.0572497,85.2474673 46.2162896,87.9924702 Z M57.9734502,98.2195046 C57.9883125,98.5992481 57.9554031,98.9779066 57.8768451,99.3565651 C57.0434933,100.142092 56.0721342,100.376448 54.959583,100.060718 C53.3703759,99.5920061 52.8236546,98.5352342 53.3194193,96.8860625 C53.4510571,96.453155 53.6654992,96.156955 53.9638073,96.0007177 C54.8831482,95.3280293 55.7770109,95.2575055 56.6485801,95.7967412 C57.4893631,96.3175323 57.932048,97.1258434 57.9734502,98.2195046 Z" id="Combined-Shape" fill="#FFFFFF" fill-rule="nonzero"></path>
            </g>
            <g id="Add-Ground-On-Action" transform="translate(313.000000, 640.000000)" fill="#FFFFFF">
                <rect id="Rectangle-2" opacity="0" x="0" y="0" width="150" height="150"></rect>
                <path d="M77.0949876,72.1156343 C77.1047732,72.0077595 77.109773,71.8985028 77.109773,71.7880784 L77.109773,42.5797485 C77.109773,40.602708 75.507065,39 73.5300245,39 C71.552984,39 69.950276,40.602708 69.950276,42.5797485 L69.950276,71.7880784 C69.950276,71.8985028 69.9552758,72.0077595 69.9650614,72.1156343 L39.5797485,72.1156343 C37.602708,72.1156343 36,73.7183423 36,75.6953829 C36,77.6724234 37.602708,79.2751314 39.5797485,79.2751314 L107.513864,79.2751314 C109.490905,79.2751314 111.093613,77.6724234 111.093613,75.6953829 C111.093613,73.7183423 109.490905,72.1156343 107.513864,72.1156343 L77.0949876,72.1156343 Z M48.5083251,90.7545491 C46.5312846,90.7545491 44.9285766,89.151841 44.9285766,87.1748005 C44.9285766,85.19776 46.5312846,83.595052 48.5083251,83.595052 L98.5928355,83.595052 C100.569876,83.595052 102.172584,85.19776 102.172584,87.1748005 C102.172584,89.151841 100.569876,90.7545491 98.5928355,90.7545491 L48.5083251,90.7545491 Z M57.622023,102.196997 C55.6449825,102.196997 54.0422744,100.594289 54.0422744,98.6172483 C54.0422744,96.6402078 55.6449825,95.0374998 57.622023,95.0374998 L89.4361789,95.0374998 C91.4132194,95.0374998 93.0159274,96.6402078 93.0159274,98.6172483 C93.0159274,100.594289 91.4132194,102.196997 89.4361789,102.196997 L57.622023,102.196997 Z M67.0422708,113.653094 C65.0652303,113.653094 63.4625223,112.050386 63.4625223,110.073346 C63.4625223,108.096305 65.0652303,106.493597 67.0422708,106.493597 L79.9986695,106.493597 C81.97571,106.493597 83.578418,108.096305 83.578418,110.073346 C83.578418,112.050386 81.97571,113.653094 79.9986695,113.653094 L67.0422708,113.653094 Z" id="Combined-Shape" fill-rule="nonzero"></path>
                <g id="PLUS" transform="translate(12.750000, 13.125000)">
                    <path d="M16.875,33.75 C7.55519485,33.75 0,26.1948052 0,16.875 C0,7.55519485 7.55519485,0 16.875,0 C26.1948052,0 33.75,7.55519485 33.75,16.875 C33.75,26.1948052 26.1948052,33.75 16.875,33.75 Z M19.2475248,14.8774752 L19.2475248,6.75 L14.8774752,6.75 L14.8774752,14.8774752 L6.75,14.8774752 L6.75,19.2475248 L14.8774752,19.2475248 L14.8774752,27.375 L19.2475248,27.375 L19.2475248,19.2475248 L27.375,19.2475248 L27.375,14.8774752 L19.2475248,14.8774752 Z" id="Combined-Shape"></path>
                </g>
            </g>
            <g id="Fire-Department-Coming" transform="translate(163.000000, 790.000000)" fill="#FFFFFF">
                <rect id="Rectangle-2" opacity="0" x="0" y="0" width="150" height="150"></rect>
                <path d="M125.316025,56.8839278 L118.697183,56.8839278 L118.697183,50.25 L112.078342,50.25 L112.078342,56.8839278 L100.495592,56.8839278 C97.7555,56.8839278 95.532575,59.1131135 95.532575,61.8598206 L95.532575,80.1044629 L95.532575,86.7392845 L92.2227083,86.7392845 L92.2227083,80.1044629 L92.2227083,73.470535 L49.2024667,73.470535 L49.2024667,80.1044629 L54.166375,80.1044629 C49.3415667,80.1053567 48.375,93.375 48.375,93.375 L52.6443,93.375 C52.566725,92.830664 52.5123333,92.2800712 52.5123333,91.7160711 C52.5123333,85.3055982 57.6982667,80.1053567 64.0941917,80.1053567 C70.4901167,80.1053567 75.67605,85.3047043 75.67605,91.7160711 C75.67605,92.2800712 75.6243333,92.830664 75.5467583,93.375 L102.282492,93.375 C102.204917,92.830664 102.150525,92.2800712 102.150525,91.7160711 C102.150525,85.3055982 107.336458,80.1053567 113.732383,80.1053567 C120.128308,80.1053567 125.315133,85.3047043 125.315133,91.7160711 C125.315133,92.2800712 125.262525,92.830664 125.18495,93.375 L128.625,93.375 L128.625,80.1053567 L125.316025,56.8839278 Z M63.75,83.25 C59.1928487,83.25 55.5,86.9446271 55.5,91.5 C55.5,96.0571513 59.1928487,99.75 63.75,99.75 C68.3071513,99.75 72,96.0571513 72,91.5 C72,86.9455163 68.3071513,83.25 63.75,83.25 M63.75,95.2133003 C61.703061,95.2133003 60.0366997,93.5487174 60.0366997,91.5008892 C60.0366997,89.4548394 61.703061,87.7884781 63.75,87.7884781 C65.796939,87.7884781 67.4624111,89.4548394 67.4624111,91.5008892 C67.4624111,93.5487174 65.796939,95.2133003 63.75,95.2133003 M114,83.25 C109.442849,83.25 105.75,86.9446271 105.75,91.5 C105.75,96.0571513 109.442849,99.75 114,99.75 C118.557151,99.75 122.25,96.0571513 122.25,91.5 C122.25,86.9455163 118.557151,83.25 114,83.25 M114,95.2133003 C111.953061,95.2133003 110.287589,93.5487174 110.287589,91.5008892 C110.287589,89.4548394 111.953061,87.7884781 114,87.7884781 C116.046939,87.7884781 117.7133,89.4548394 117.7133,91.5008892 C117.7133,93.5487174 116.046939,95.2133003 114,95.2133003 M91.875,66.843971 L88.5579673,66.843971 L88.5579673,60.281029 L91.875,60.281029 L91.875,57 L48.75,57 L48.75,60.281029 L52.0679265,60.281029 L52.0679265,66.843971 L48.75,66.843971 L48.75,70.125 L91.875,70.125 L91.875,66.843971 Z M58.7019918,66.843971 L55.3849592,66.843971 L55.3849592,60.281029 L58.7019918,60.281029 L58.7019918,66.843971 Z M65.3360572,66.843971 L62.0190245,66.843971 L62.0190245,60.281029 L65.3360572,60.281029 L65.3360572,66.843971 Z M71.9710163,66.843971 L68.6539837,66.843971 L68.6539837,60.281029 L71.9710163,60.281029 L71.9710163,66.843971 Z M78.6059755,66.843971 L75.288049,66.843971 L75.288049,60.281029 L78.6059755,60.281029 L78.6059755,66.843971 Z M85.2409347,66.843971 L81.9230082,66.843971 L81.9230082,60.281029 L85.2409347,60.281029 L85.2409347,66.843971 Z M105.460392,66.8366072 L98.84155,66.8366072 L98.84155,60.2017856 L105.460392,60.2017856 L105.460392,66.8366072 Z M108.769367,73.4714289 L108.769367,60.2017856 L112.078342,60.2017856 L118.697183,60.2017856 L122.006158,60.2017856 L123.6602,73.4714289 L108.769367,73.4714289 L108.769367,73.4714289 Z M40.5906424,57.093971 L40.5906424,60.375 L21.375,60.375 L21.375,57.093971 L40.5906424,57.093971 Z M40.5906424,64.593971 L40.5906424,67.875 L25.699809,67.875 L25.699809,64.593971 L40.5906424,64.593971 Z M40.5906424,72.093971 L40.5906424,75.375 L30.9828212,75.375 L30.9828212,72.093971 L40.5906424,72.093971 Z" id="Shape" fill-rule="nonzero" transform="translate(75.000000, 75.000000) scale(-1, 1) translate(-75.000000, -75.000000) "></path>
            </g>
            <g id="State-Block-Copy" transform="translate(740.000000, 220.000000)">
                <rect id="Rectangle-7-Copy" stroke="#FFFFFF" stroke-width="5" x="2.5" y="2.5" width="435" height="215"></rect>
                <path d="M118.848,115.968 L118.848,84 L107.544,84 L107.544,115.968 C107.544,119.808019 106.776008,122.627991 105.24,124.428 C103.703992,126.228009 100.92002,127.128 96.888,127.128 C94.5839885,127.128 92.7480068,126.804003 91.38,126.156 C90.0119932,125.507997 88.9440038,124.668005 88.176,123.636 C87.4079962,122.603995 86.9040012,121.416007 86.664,120.072 C86.4239988,118.727993 86.304,117.360007 86.304,115.968 L86.304,84 L75,84 L75,115.968 C75,122.976035 76.9079809,128.159983 80.724,131.52 C84.5400191,134.880017 89.9279652,136.56 96.888,136.56 C103.752034,136.56 109.127981,134.868017 113.016,131.484 C116.904019,128.099983 118.848,122.928035 118.848,115.968 Z M141.872,108.192 L150.656,108.192 C151.952006,108.192 153.199994,108.096001 154.4,107.904 C155.600006,107.711999 156.655995,107.340003 157.568,106.788 C158.480005,106.235997 159.211997,105.456005 159.764,104.448 C160.316003,103.439995 160.592,102.120008 160.592,100.488 C160.592,98.8559918 160.316003,97.536005 159.764,96.528 C159.211997,95.519995 158.480005,94.7400028 157.568,94.188 C156.655995,93.6359972 155.600006,93.264001 154.4,93.072 C153.199994,92.879999 151.952006,92.784 150.656,92.784 L141.872,92.784 L141.872,108.192 Z M130.568,84 L153.752,84 C156.968016,84 159.703989,84.4679953 161.96,85.404 C164.216011,86.3400047 166.051993,87.5759923 167.468,89.112 C168.884007,90.6480077 169.915997,92.3999902 170.564,94.368 C171.212003,96.3360098 171.536,98.3759894 171.536,100.488 C171.536,102.55201 171.212003,104.57999 170.564,106.572 C169.915997,108.56401 168.884007,110.327992 167.468,111.864 C166.051993,113.400008 164.216011,114.635995 161.96,115.572 C159.703989,116.508005 156.968016,116.976 153.752,116.976 L141.872,116.976 L141.872,135.408 L130.568,135.408 L130.568,84 Z M191.896,125.904 L201.976,125.904 C203.608008,125.904 205.191992,125.640003 206.728,125.112 C208.264008,124.583997 209.631994,123.708006 210.832,122.484 C212.032006,121.259994 212.991996,119.66401 213.712,117.696 C214.432004,115.72799 214.792,113.328014 214.792,110.496 C214.792,107.903987 214.540003,105.56401 214.036,103.476 C213.531997,101.38799 212.704006,99.6000074 211.552,98.112 C210.399994,96.6239926 208.876009,95.484004 206.98,94.692 C205.083991,93.899996 202.744014,93.504 199.96,93.504 L191.896,93.504 L191.896,125.904 Z M180.592,84 L202.768,84 C206.080017,84 209.163986,84.5279947 212.02,85.584 C214.876014,86.6400053 217.34799,88.2239894 219.436,90.336 C221.52401,92.4480106 223.155994,95.0879842 224.332,98.256 C225.508006,101.424016 226.096,105.143979 226.096,109.416 C226.096,113.160019 225.616005,116.615984 224.656,119.784 C223.695995,122.952016 222.24401,125.687988 220.3,127.992 C218.35599,130.296012 215.932015,132.107993 213.028,133.428 C210.123985,134.748007 206.70402,135.408 202.768,135.408 L180.592,135.408 L180.592,84 Z M248.904,115.536 L262.224,115.536 L255.744,96.672 L255.6,96.672 L248.904,115.536 Z M249.984,84 L261.576,84 L280.8,135.408 L269.064,135.408 L265.176,123.96 L245.952,123.96 L241.92,135.408 L230.544,135.408 L249.984,84 Z M292.016,93.504 L276.608,93.504 L276.608,84 L318.728,84 L318.728,93.504 L303.32,93.504 L303.32,135.408 L292.016,135.408 L292.016,93.504 Z M326.632,84 L326.632,135.408 L365.656,135.408 L365.656,125.904 L337.936,125.904 L337.936,113.304 L362.848,113.304 L362.848,104.52 L337.936,104.52 L337.936,93.504 L365.08,93.504 L365.08,84 L326.632,84 Z" id="UPDATE" fill="#FFFFFF"></path>
            </g>
            <g id="Arrows" transform="translate(601.000000, 140.000000)">
                <polygon id="Shape" fill="#FFFFFF" fill-rule="nonzero" transform="translate(69.484325, 189.937515) scale(-1, 1) rotate(90.000000) translate(-69.484325, -189.937515) " points="69.48431 259.42184 71.42181 257.73434 92.42184 239.73434 88.54684 235.20314 72.48434 248.98434 72.48434 120.45319 66.48431 120.45319 66.48431 248.98434 50.42181 235.20314 46.54681 239.73434 67.54681 257.73434"></polygon>
                <polygon id="Shape-Copy-3" fill="#FFFFFF" fill-rule="nonzero" transform="translate(646.484325, 189.937515) scale(-1, 1) rotate(90.000000) translate(-646.484325, -189.937515) " points="646.48431 259.42184 648.42181 257.73434 669.42184 239.73434 665.54684 235.20314 649.48434 248.98434 649.48434 120.45319 643.48431 120.45319 643.48431 248.98434 627.42181 235.20314 623.54681 239.73434 644.54681 257.73434"></polygon>
                <polygon id="Shape-Copy-4" fill="#FFFFFF" fill-rule="nonzero" transform="translate(358.937515, 39.984325) scale(-1, 1) translate(-358.937515, -39.984325) " points="358.9375 79.96865 360.875 78.28115 381.87503 60.28115 378.00003 55.74995 361.93753 69.53115 361.93753 0 355.9375 0 355.9375 69.53115 339.875 55.74995 336 60.28115 357 78.28115"></polygon>
                <polyline id="Path-11" stroke="#FFFFFF" stroke-width="6" points="358 3 948 3 948 82"></polyline>
            </g>
            <g id="Sun-/-Fire-Switch" transform="translate(1523.000000, 505.000000)">
                <g id="Switch-Copy-2">
                    <path d="M177.177419,2.5 L51.8225806,2.5 C24.6296282,2.5 2.5,24.705391 2.5,52 C2.5,79.294609 24.6296282,101.5 51.8225806,101.5 L177.177419,101.5 C204.370372,101.5 226.5,79.294609 226.5,52 C226.5,24.705391 204.370372,2.5 177.177419,2.5 Z" id="Shape-Copy-2" stroke="#FFFFFF" stroke-width="5" fill-rule="nonzero"></path>
                    <path d="M177.629032,91.5294118 C155.741613,91.5294118 138,73.7270588 138,51.7647059 C138,29.8023529 155.741613,12 177.629032,12 C199.516452,12 217.258065,29.8023529 217.258065,51.7647059 C217.258065,73.7270588 199.516452,91.5294118 177.629032,91.5294118 Z" id="Path" fill="#FFFFFF"></path>
                </g>
                <g id="Sun-State" transform="translate(1.000000, 1.000000)">
                    <rect id="Background-Copy" fill="#000000" opacity="0" x="0" y="0" width="100" height="100"></rect>
                    <path d="M48.9591195,35.7704403 C57.3370021,35.7704403 64.1477987,42.5812369 64.1477987,50.9591195 C64.1477987,59.3370021 57.3370021,66.1477987 48.9591195,66.1477987 C40.5812369,66.1477987 33.7704403,59.3370021 33.7704403,50.9591195 C33.7704403,42.5812369 40.5812369,35.7704403 48.9591195,35.7704403 Z M48.9591195,31.4308176 C47.775586,31.4308176 46.7893082,30.6360611 46.7893082,29.5574631 L46.7893082,23.5400212 C46.7893082,22.5181915 47.775586,21.6666667 48.9591195,21.6666667 C50.1426529,21.6666667 51.1289308,22.5181915 51.1289308,23.5400212 L51.1289308,29.5574631 C51.1289308,30.5792928 50.1426529,31.4308176 48.9591195,31.4308176 Z M32.4963518,37.3236089 L27.8633027,32.6987891 C27.0602408,31.8971536 27.0602408,30.6638683 27.8633027,29.8622329 C28.6663645,29.0605974 29.9018443,29.0605974 30.7049061,29.8622329 L35.3379552,34.4870527 C36.141017,35.2886882 36.141017,36.5219735 35.3379552,37.3236089 C34.9673113,37.7552588 34.4113454,37.9402516 33.9171535,37.9402516 C33.4229616,37.9402516 32.8669957,37.6935945 32.4963518,37.3236089 Z M29.4308176,50.9591195 C29.4308176,52.1426529 28.6360611,53.1289308 27.5574631,53.1289308 L21.5400212,53.1289308 C20.5181915,53.1289308 19.6666667,52.1426529 19.6666667,50.9591195 C19.6666667,49.775586 20.5181915,48.7893082 21.5400212,48.7893082 L27.5574631,48.7893082 C28.5792928,48.7893082 29.4308176,49.775586 29.4308176,50.9591195 Z M32.4963518,63.4943083 C33.2994136,62.6926729 34.5966673,62.6926729 35.3379552,63.4943083 C36.141017,64.2959438 36.141017,65.5292291 35.3379552,66.3308645 L30.7049061,70.9556844 C30.3342622,71.3873342 29.7782963,71.572327 29.2841044,71.572327 C28.7899125,71.572327 28.2339466,71.32567 27.8633027,70.9556844 C27.0602408,70.154049 27.0602408,68.9207637 27.8633027,68.1191282 L32.4963518,63.4943083 Z M48.9591195,69.4025157 C50.1426529,69.4025157 51.1289308,70.1972722 51.1289308,71.2758703 L51.1289308,77.2933121 C51.1289308,78.3151419 50.1426529,79.1666667 48.9591195,79.1666667 C47.775586,79.1666667 46.7893082,78.3151419 46.7893082,77.2933121 L46.7893082,71.2758703 C46.7893082,70.2540405 47.775586,69.4025157 48.9591195,69.4025157 Z M64.3369816,63.4943083 L68.9700307,68.1191282 C69.7730925,68.9207637 69.7730925,70.154049 68.9700307,70.9556844 C68.5993867,71.3873342 68.0434208,71.572327 67.5492289,71.572327 C67.055037,71.572327 66.4990712,71.32567 66.1284272,70.9556844 L61.4953781,66.3308645 C60.6923163,65.5292291 60.6923163,64.2959438 61.4953781,63.4943083 C62.29844,62.6926729 63.5339197,62.6926729 64.3369816,63.4943083 Z M75.2933121,48.7893082 C76.3151419,48.7893082 77.1666667,49.775586 77.1666667,50.9591195 C77.1666667,52.1426529 76.3151419,53.1289308 75.2933121,53.1289308 L69.2758703,53.1289308 C68.2540405,53.1289308 67.4025157,52.1426529 67.4025157,50.9591195 C67.4025157,49.775586 68.2540405,48.7893082 69.2758703,48.7893082 L75.2933121,48.7893082 Z M62.9161799,37.9402516 C62.360214,37.9402516 61.8660221,37.7552588 61.4953781,37.3236089 C60.6923163,36.5219735 60.6923163,35.2886882 61.4953781,34.4870527 L66.1284272,29.8622329 C66.9314891,29.0605974 68.1669688,29.0605974 68.9700307,29.8622329 C69.7730925,30.6638683 69.7730925,31.8971536 68.9700307,32.6987891 L64.3369816,37.3236089 C63.9663377,37.7552588 63.4103718,37.9402516 62.9161799,37.9402516 Z" id="Combined-Shape" fill="#FFFFFF" fill-rule="nonzero"></path>
                </g>
                <g id="Fire-State" transform="translate(158.000000, 19.000000)" fill-rule="nonzero" fill="#4D70B8">
                    <path d="M32.9471621,29.9294079 C30.3347763,24.2328169 31.2383778,19.5156232 31.2383778,19.5156232 C31.2383778,19.5156232 26.1219327,24.286214 26.9172077,31.288668 C27.1847213,33.6448992 28.1497518,36.3188093 29.0137216,38.9629792 C28.1246517,41.0630395 26.5558992,43.1698589 23.8880291,42.6960442 C18.8244262,41.7964046 20.5820896,37.6544125 21.6468597,34.0734278 C22.7116298,30.4917671 20.0728229,27.6313052 20.0728229,27.6313052 C20.0728229,27.6313052 17.6942638,33.8463211 15.6657843,29.0061113 C13.6373047,24.1659015 24.1060031,19.1634727 22.8827064,11.9683836 C21.6600702,4.77329446 16.8038729,0 16.8038729,0 C16.8038729,0 19.9433596,4.47251337 17.9135589,10.1238182 C15.8837583,15.7751231 11.9338046,15.2641332 8.25995126,22.1287011 C4.58609796,28.993269 10.0314857,35.1798966 7.43759467,36.676367 C2.09194657,39.7612319 3.0985903,28.5944806 3.0985903,28.5944806 C3.0985903,28.5944806 -3.56811256,36.8649466 2.65603695,49.8343567 C9.36765568,63.8203393 25.0617863,60.5583853 25.8689507,60.3799444 C30.6280505,59.7844654 35.1467183,56.5340019 37.5734959,50.295329 C42.1919034,38.4195455 35.5595479,35.6259989 32.9471621,29.9294079 Z" id="Shape-Copy-6"></path>
                </g>
            </g>
            <g id="Fire-Truck-Coming-Switch" transform="translate(1523.000000, 665.000000)">
                <g id="Switch" transform="translate(114.500000, 52.000000) scale(-1, 1) translate(-114.500000, -52.000000) ">
                    <path d="M177.177419,2.5 L51.8225806,2.5 C24.6296282,2.5 2.5,24.705391 2.5,52 C2.5,79.294609 24.6296282,101.5 51.8225806,101.5 L177.177419,101.5 C204.370372,101.5 226.5,79.294609 226.5,52 C226.5,24.705391 204.370372,2.5 177.177419,2.5 Z" id="Shape-Copy-2" stroke="#FFFFFF" stroke-width="5" fill-rule="nonzero"></path>
                    <path d="M177.177419,91.7647059 C155.29,91.7647059 137.548387,73.9623529 137.548387,52 C137.548387,30.0376471 155.29,12.2352941 177.177419,12.2352941 C199.064839,12.2352941 216.806452,30.0376471 216.806452,52 C216.806452,73.9623529 199.064839,91.7647059 177.177419,91.7647059 Z" id="Path" fill="#FFFFFF"></path>
                </g>
                <g id="Fire-Department-Coming" transform="translate(134.000000, 7.000000)" fill="#FFFFFF">
                    <rect id="Rectangle-2" opacity="0" x="0" y="0" width="90" height="90"></rect>
                    <path d="M75.189615,34.1303567 L71.21831,34.1303567 L71.21831,30.15 L67.247005,30.15 L67.247005,34.1303567 L60.297355,34.1303567 C58.6533,34.1303567 57.319545,35.4678681 57.319545,37.1158924 L57.319545,48.0626777 L57.319545,52.0435707 L55.333625,52.0435707 L55.333625,48.0626777 L55.333625,44.082321 L29.52148,44.082321 L29.52148,48.0626777 L32.499825,48.0626777 C29.60494,48.063214 29.025,56.025 29.025,56.025 L31.58658,56.025 C31.540035,55.6983984 31.5074,55.3680427 31.5074,55.0296427 C31.5074,51.1833589 34.61896,48.063214 38.456515,48.063214 C42.29407,48.063214 45.40563,51.1828226 45.40563,55.0296427 C45.40563,55.3680427 45.3746,55.6983984 45.328055,56.025 L61.369495,56.025 C61.32295,55.6983984 61.290315,55.3680427 61.290315,55.0296427 C61.290315,51.1833589 64.401875,48.063214 68.23943,48.063214 C72.076985,48.063214 75.18908,51.1828226 75.18908,55.0296427 C75.18908,55.3680427 75.157515,55.6983984 75.11097,56.025 L77.175,56.025 L77.175,48.063214 L75.189615,34.1303567 Z M38.25,49.95 C35.5157092,49.95 33.3,52.1667762 33.3,54.9 C33.3,57.6342908 35.5157092,59.85 38.25,59.85 C40.9842908,59.85 43.2,57.6342908 43.2,54.9 C43.2,52.1673098 40.9842908,49.95 38.25,49.95 M38.25,57.1279802 C37.0218366,57.1279802 36.0220198,56.1292304 36.0220198,54.9005335 C36.0220198,53.6729036 37.0218366,52.6730869 38.25,52.6730869 C39.4781634,52.6730869 40.4774466,53.6729036 40.4774466,54.9005335 C40.4774466,56.1292304 39.4781634,57.1279802 38.25,57.1279802 M68.4,49.95 C65.6657092,49.95 63.45,52.1667762 63.45,54.9 C63.45,57.6342908 65.6657092,59.85 68.4,59.85 C71.1342908,59.85 73.35,57.6342908 73.35,54.9 C73.35,52.1673098 71.1342908,49.95 68.4,49.95 M68.4,57.1279802 C67.1718366,57.1279802 66.1725534,56.1292304 66.1725534,54.9005335 C66.1725534,53.6729036 67.1718366,52.6730869 68.4,52.6730869 C69.6281634,52.6730869 70.6279802,53.6729036 70.6279802,54.9005335 C70.6279802,56.1292304 69.6281634,57.1279802 68.4,57.1279802 M55.125,40.1063826 L53.1347804,40.1063826 L53.1347804,36.1686174 L55.125,36.1686174 L55.125,34.2 L29.25,34.2 L29.25,36.1686174 L31.2407559,36.1686174 L31.2407559,40.1063826 L29.25,40.1063826 L29.25,42.075 L55.125,42.075 L55.125,40.1063826 Z M35.2211951,40.1063826 L33.2309755,40.1063826 L33.2309755,36.1686174 L35.2211951,36.1686174 L35.2211951,40.1063826 Z M39.2016343,40.1063826 L37.2114147,40.1063826 L37.2114147,36.1686174 L39.2016343,36.1686174 L39.2016343,40.1063826 Z M43.1826098,40.1063826 L41.1923902,40.1063826 L41.1923902,36.1686174 L43.1826098,36.1686174 L43.1826098,40.1063826 Z M47.1635853,40.1063826 L45.1728294,40.1063826 L45.1728294,36.1686174 L47.1635853,36.1686174 L47.1635853,40.1063826 Z M51.1445608,40.1063826 L49.1538049,40.1063826 L49.1538049,36.1686174 L51.1445608,36.1686174 L51.1445608,40.1063826 Z M63.276235,40.1019643 L59.30493,40.1019643 L59.30493,36.1210713 L63.276235,36.1210713 L63.276235,40.1019643 Z M65.26162,44.0828573 L65.26162,36.1210713 L67.247005,36.1210713 L71.21831,36.1210713 L73.203695,36.1210713 L74.19612,44.0828573 L65.26162,44.0828573 L65.26162,44.0828573 Z M24.3543854,34.2563826 L24.3543854,36.225 L12.825,36.225 L12.825,34.2563826 L24.3543854,34.2563826 Z M24.3543854,38.7563826 L24.3543854,40.725 L15.4198854,40.725 L15.4198854,38.7563826 L24.3543854,38.7563826 Z M24.3543854,43.2563826 L24.3543854,45.225 L18.5896927,45.225 L18.5896927,43.2563826 L24.3543854,43.2563826 Z" id="Shape" fill-rule="nonzero" transform="translate(45.000000, 45.000000) scale(-1, 1) translate(-45.000000, -45.000000) "></path>
                </g>
                <g id="Fire-Department-Static" transform="translate(0.000000, 7.000000)">
                    <rect id="Rectangle-2" fill="#FFFFFF" opacity="0" x="0" y="0" width="90" height="90"></rect>
                    <path d="M73.989615,34.1303567 L70.01831,34.1303567 L70.01831,30.15 L66.047005,30.15 L66.047005,34.1303567 L59.097355,34.1303567 C57.4533,34.1303567 56.119545,35.4678681 56.119545,37.1158924 L56.119545,48.0626777 L56.119545,52.0435707 L54.133625,52.0435707 L54.133625,48.0626777 L54.133625,44.082321 L28.32148,44.082321 L28.32148,48.0626777 L31.299825,48.0626777 C28.40494,48.063214 27.825,56.025 27.825,56.025 L30.38658,56.025 C30.340035,55.6983984 30.3074,55.3680427 30.3074,55.0296427 C30.3074,51.1833589 33.41896,48.063214 37.256515,48.063214 C41.09407,48.063214 44.20563,51.1828226 44.20563,55.0296427 C44.20563,55.3680427 44.1746,55.6983984 44.128055,56.025 L60.169495,56.025 C60.12295,55.6983984 60.090315,55.3680427 60.090315,55.0296427 C60.090315,51.1833589 63.201875,48.063214 67.03943,48.063214 C70.876985,48.063214 73.98908,51.1828226 73.98908,55.0296427 C73.98908,55.3680427 73.957515,55.6983984 73.91097,56.025 L75.975,56.025 L75.975,48.063214 L73.989615,34.1303567 Z M37.05,49.95 C34.3157092,49.95 32.1,52.1667762 32.1,54.9 C32.1,57.6342908 34.3157092,59.85 37.05,59.85 C39.7842908,59.85 42,57.6342908 42,54.9 C42,52.1673098 39.7842908,49.95 37.05,49.95 M37.05,57.1279802 C35.8218366,57.1279802 34.8220198,56.1292304 34.8220198,54.9005335 C34.8220198,53.6729036 35.8218366,52.6730869 37.05,52.6730869 C38.2781634,52.6730869 39.2774466,53.6729036 39.2774466,54.9005335 C39.2774466,56.1292304 38.2781634,57.1279802 37.05,57.1279802 M67.2,49.95 C64.4657092,49.95 62.25,52.1667762 62.25,54.9 C62.25,57.6342908 64.4657092,59.85 67.2,59.85 C69.9342908,59.85 72.15,57.6342908 72.15,54.9 C72.15,52.1673098 69.9342908,49.95 67.2,49.95 M67.2,57.1279802 C65.9718366,57.1279802 64.9725534,56.1292304 64.9725534,54.9005335 C64.9725534,53.6729036 65.9718366,52.6730869 67.2,52.6730869 C68.4281634,52.6730869 69.4279802,53.6729036 69.4279802,54.9005335 C69.4279802,56.1292304 68.4281634,57.1279802 67.2,57.1279802 M53.925,40.1063826 L51.9347804,40.1063826 L51.9347804,36.1686174 L53.925,36.1686174 L53.925,34.2 L28.05,34.2 L28.05,36.1686174 L30.0407559,36.1686174 L30.0407559,40.1063826 L28.05,40.1063826 L28.05,42.075 L53.925,42.075 L53.925,40.1063826 Z M34.0211951,40.1063826 L32.0309755,40.1063826 L32.0309755,36.1686174 L34.0211951,36.1686174 L34.0211951,40.1063826 Z M38.0016343,40.1063826 L36.0114147,40.1063826 L36.0114147,36.1686174 L38.0016343,36.1686174 L38.0016343,40.1063826 Z M41.9826098,40.1063826 L39.9923902,40.1063826 L39.9923902,36.1686174 L41.9826098,36.1686174 L41.9826098,40.1063826 Z M45.9635853,40.1063826 L43.9728294,40.1063826 L43.9728294,36.1686174 L45.9635853,36.1686174 L45.9635853,40.1063826 Z M49.9445608,40.1063826 L47.9538049,40.1063826 L47.9538049,36.1686174 L49.9445608,36.1686174 L49.9445608,40.1063826 Z M62.076235,40.1019643 L58.10493,40.1019643 L58.10493,36.1210713 L62.076235,36.1210713 L62.076235,40.1019643 Z M64.06162,44.0828573 L64.06162,36.1210713 L66.047005,36.1210713 L70.01831,36.1210713 L72.003695,36.1210713 L72.99612,44.0828573 L64.06162,44.0828573 L64.06162,44.0828573 Z" id="Shape" fill="#4D70B8" fill-rule="nonzero" transform="translate(51.900000, 45.000000) scale(-1, 1) translate(-51.900000, -45.000000) "></path>
                </g>
            </g>
            <g id="Rod-or-not-Rod-Switch" transform="translate(1523.000000, 825.000000)">
                <g id="Switch-Copy" transform="translate(114.500000, 52.000000) scale(-1, 1) translate(-114.500000, -52.000000) ">
                    <path d="M177.177419,2.5 L51.8225806,2.5 C24.6296282,2.5 2.5,24.705391 2.5,52 C2.5,79.294609 24.6296282,101.5 51.8225806,101.5 L177.177419,101.5 C204.370372,101.5 226.5,79.294609 226.5,52 C226.5,24.705391 204.370372,2.5 177.177419,2.5 Z" id="Shape-Copy-2" stroke="#FFFFFF" stroke-width="5" fill-rule="nonzero"></path>
                    <path d="M177.177419,91.7647059 C155.29,91.7647059 137.548387,73.9623529 137.548387,52 C137.548387,30.0376471 155.29,12.2352941 177.177419,12.2352941 C199.064839,12.2352941 216.806452,30.0376471 216.806452,52 C216.806452,73.9623529 199.064839,91.7647059 177.177419,91.7647059 Z" id="Path" fill="#FFFFFF"></path>
                </g>
                <g id="Add-Ground-On-Action" transform="translate(133.000000, 5.000000)" fill="#FFFFFF">
                    <rect id="Rectangle-2" opacity="0" x="0" y="0" width="90" height="90"></rect>
                    <path d="M46.2569926,43.2693806 C46.2628639,43.2046557 46.2658638,43.1391017 46.2658638,43.072847 L46.2658638,25.5478491 C46.2658638,24.3616248 45.304239,23.4 44.1180147,23.4 C42.9317904,23.4 41.9701656,24.3616248 41.9701656,25.5478491 L41.9701656,43.072847 C41.9701656,43.1391017 41.9731655,43.2046557 41.9790368,43.2693806 L23.7478491,43.2693806 C22.5616248,43.2693806 21.6,44.2310054 21.6,45.4172297 C21.6,46.603454 22.5616248,47.5650788 23.7478491,47.5650788 L64.5083185,47.5650788 C65.6945428,47.5650788 66.6561676,46.603454 66.6561676,45.4172297 C66.6561676,44.2310054 65.6945428,43.2693806 64.5083185,43.2693806 L46.2569926,43.2693806 Z M29.1049951,54.4527294 C27.9187707,54.4527294 26.9571459,53.4911046 26.9571459,52.3048803 C26.9571459,51.118656 27.9187707,50.1570312 29.1049951,50.1570312 L59.1557013,50.1570312 C60.3419256,50.1570312 61.3035504,51.118656 61.3035504,52.3048803 C61.3035504,53.4911046 60.3419256,54.4527294 59.1557013,54.4527294 L29.1049951,54.4527294 Z M34.5732138,61.3181981 C33.3869895,61.3181981 32.4253647,60.3565733 32.4253647,59.170349 C32.4253647,57.9841247 33.3869895,57.0224999 34.5732138,57.0224999 L53.6617073,57.0224999 C54.8479316,57.0224999 55.8095564,57.9841247 55.8095564,59.170349 C55.8095564,60.3565733 54.8479316,61.3181981 53.6617073,61.3181981 L34.5732138,61.3181981 Z M40.2253625,68.1918565 C39.0391382,68.1918565 38.0775134,67.2302317 38.0775134,66.0440074 C38.0775134,64.8577831 39.0391382,63.8961583 40.2253625,63.8961583 L47.9992017,63.8961583 C49.185426,63.8961583 50.1470508,64.8577831 50.1470508,66.0440074 C50.1470508,67.2302317 49.185426,68.1918565 47.9992017,68.1918565 L40.2253625,68.1918565 Z" id="Combined-Shape" fill-rule="nonzero"></path>
                </g>
                <g id="Ground-Off" transform="translate(5.000000, 5.000000)">
                    <rect id="Rectangle-2" x="0" y="0" width="90" height="90"></rect>
                    <path d="M55.1228341,47.6874027 L52.5284873,50.2817495 L60.32539,50.2817495 C61.5117152,50.2817495 62.4734218,51.2442627 62.4734218,52.4315828 C62.4734218,53.618903 61.5117152,54.5814162 60.32539,54.5814162 L48.2288206,54.5814162 L45.6566762,57.1535606 L54.8309285,57.1535606 C56.0172538,57.1535606 56.9789604,58.1160737 56.9789604,59.3033939 C56.9789604,60.490714 56.0172538,61.4532272 54.8309285,61.4532272 L41.3570096,61.4532272 L36.0047335,66.8055033 C35.1658748,67.644362 33.805246,67.6437916 32.9656839,66.8042295 C32.1261217,65.9646674 32.1255514,64.6040385 32.96441,63.7651799 L61.7888668,34.9407232 C62.6277254,34.1018645 63.9883543,34.1024348 64.8279164,34.941997 C65.6674785,35.7815591 65.6680488,37.142188 64.8291902,37.9810466 L59.4225007,43.3877361 L65.6784626,43.3877361 C66.8647879,43.3877361 67.8264945,44.3502492 67.8264945,45.5375694 C67.8264945,46.7248895 66.8647879,47.6874027 65.6784626,47.6874027 L55.1228341,47.6874027 Z M43.8967358,47.6874027 L24.914525,47.6874027 C23.7281997,47.6874027 22.7664931,46.7248895 22.7664931,45.5375694 C22.7664931,44.3502492 23.7281997,43.3877361 24.914525,43.3877361 L43.147264,43.3877361 C43.1413921,43.3229514 43.138392,43.2573368 43.138392,43.1910209 L43.138392,25.6498333 C43.138392,24.4625132 44.1000986,23.5 45.2864238,23.5 C46.4727491,23.5 47.4344557,24.4625132 47.4344557,25.6498333 L47.4344557,43.1910209 C47.4344557,43.2573368 47.4314556,43.3229514 47.4255837,43.3877361 L48.1964024,43.3877361 L43.8967358,47.6874027 Z M41.302389,50.2817495 L37.0027223,54.5814162 L30.2721268,54.5814162 C29.0858015,54.5814162 28.1240949,53.618903 28.1240949,52.4315828 C28.1240949,51.2442627 29.0858015,50.2817495 30.2721268,50.2817495 L41.302389,50.2817495 Z M41.3934404,68.3332356 C40.2071152,68.3332356 39.2454085,67.3707224 39.2454085,66.1834023 C39.2454085,64.9960821 40.2071152,64.0335689 41.3934404,64.0335689 L49.1679411,64.0335689 C50.3542663,64.0335689 51.3159729,64.9960821 51.3159729,66.1834023 C51.3159729,67.3707224 50.3542663,68.3332356 49.1679411,68.3332356 L41.3934404,68.3332356 Z" id="Combined-Shape" fill="#4D70B8" fill-rule="nonzero"></path>
                </g>
            </g>
        </g>
    </g>
</svg>