<?xml version="1.0" encoding="UTF-8"?>
<svg width="1920px" height="1080px" viewBox="0 0 1920 1080" version="1.1" xmlns="http://www.w3.org/2000/svg" xmlns:xlink="http://www.w3.org/1999/xlink">
    <!-- Generator: Sketch 46.2 (44496) - http://www.bohemiancoding.com/sketch -->
    <title>blueprintWhatOriginalApproachWasMissing</title>
    <desc>Created with Sketch.</desc>
    <defs></defs>
    <g id="Actual-Slides" stroke="none" stroke-width="1" fill="none" fill-rule="evenodd">
        <g id="blueprintWhatOriginalApproachWasMissing">
            <g id="Events-Block" transform="translate(187.000000, 312.000000)">
                <rect id="Rectangle-7" stroke="#FFFFFF" stroke-width="5" x="2.5" y="2.5" width="309" height="152.140909"></rect>
                <path d="M62,61.816 L62,96.088 L88.016,96.088 L88.016,89.752 L69.536,89.752 L69.536,81.352 L86.144,81.352 L86.144,75.496 L69.536,75.496 L69.536,68.152 L87.632,68.152 L87.632,61.816 L62,61.816 Z M110.373333,96.088 L121.749333,61.816 L113.973333,61.816 L106.245333,85.912 L106.149333,85.912 L98.5173334,61.816 L90.7893334,61.816 L101.877333,96.088 L110.373333,96.088 Z M126.010667,61.816 L126.010667,96.088 L152.026667,96.088 L152.026667,89.752 L133.546667,89.752 L133.546667,81.352 L150.154667,81.352 L150.154667,75.496 L133.546667,75.496 L133.546667,68.152 L151.642667,68.152 L151.642667,61.816 L126.010667,61.816 Z M158.448,61.816 L158.448,96.088 L165.504,96.088 L165.504,73.144 L165.6,73.144 L179.856,96.088 L187.392,96.088 L187.392,61.816 L180.336,61.816 L180.336,84.808 L180.24,84.808 L165.936,61.816 L158.448,61.816 Z M202.933333,68.152 L202.933333,96.088 L210.469333,96.088 L210.469333,68.152 L220.741333,68.152 L220.741333,61.816 L192.661333,61.816 L192.661333,68.152 L202.933333,68.152 Z M231.146667,84.712 L223.850667,84.712 C223.818667,86.8240106 224.202663,88.6479923 225.002667,90.184 C225.802671,91.7200077 226.88266,92.983995 228.242667,93.976 C229.602674,94.968005 231.170658,95.6959977 232.946667,96.16 C234.722676,96.6240023 236.554657,96.856 238.442667,96.856 C240.778679,96.856 242.834658,96.5840027 244.610667,96.04 C246.386676,95.4959973 247.874661,94.7360049 249.074667,93.76 C250.274673,92.7839951 251.178664,91.6240067 251.786667,90.28 C252.39467,88.9359933 252.698667,87.4800078 252.698667,85.912 C252.698667,83.9919904 252.290671,82.4160062 251.474667,81.184 C250.658663,79.9519938 249.690672,78.9680037 248.570667,78.232 C247.450661,77.4959963 246.322673,76.9600017 245.186667,76.624 C244.050661,76.2879983 243.16267,76.0560006 242.522667,75.928 C240.378656,75.3839973 238.642674,74.9360018 237.314667,74.584 C235.98666,74.2319982 234.946671,73.8800018 234.194667,73.528 C233.442663,73.1759982 232.938668,72.7920021 232.682667,72.376 C232.426666,71.9599979 232.298667,71.4160034 232.298667,70.744 C232.298667,70.0079963 232.458665,69.4000024 232.778667,68.92 C233.098668,68.4399976 233.506664,68.0400016 234.002667,67.72 C234.498669,67.3999984 235.050664,67.1760006 235.658667,67.048 C236.26667,66.9199994 236.874664,66.856 237.482667,66.856 C238.410672,66.856 239.266663,66.9359992 240.050667,67.096 C240.834671,67.2560008 241.530664,67.5279981 242.138667,67.912 C242.74667,68.2960019 243.234665,68.8239966 243.602667,69.496 C243.970669,70.1680034 244.186667,71.0159949 244.250667,72.04 L251.546667,72.04 C251.546667,70.0559901 251.170671,68.368007 250.418667,66.976 C249.666663,65.583993 248.650673,64.4400045 247.370667,63.544 C246.09066,62.6479955 244.626675,62.000002 242.978667,61.6 C241.330659,61.199998 239.610676,61 237.818667,61 C236.282659,61 234.746675,61.2079979 233.210667,61.624 C231.674659,62.0400021 230.298673,62.6799957 229.082667,63.544 C227.866661,64.4080043 226.882671,65.4879935 226.130667,66.784 C225.378663,68.0800065 225.002667,69.6079912 225.002667,71.368 C225.002667,72.9360078 225.298664,74.2719945 225.890667,75.376 C226.48267,76.4800055 227.258662,77.3999963 228.218667,78.136 C229.178672,78.8720037 230.266661,79.4719977 231.482667,79.936 C232.698673,80.4000023 233.94666,80.7919984 235.226667,81.112 C236.474673,81.4640018 237.706661,81.7839986 238.922667,82.072 C240.138673,82.3600014 241.226662,82.6959981 242.186667,83.08 C243.146672,83.4640019 243.922664,83.9439971 244.514667,84.52 C245.10667,85.0960029 245.402667,85.8479954 245.402667,86.776 C245.402667,87.6400043 245.178669,88.3519972 244.730667,88.912 C244.282665,89.4720028 243.72267,89.9119984 243.050667,90.232 C242.378664,90.5520016 241.658671,90.7679994 240.890667,90.88 C240.122663,90.9920006 239.40267,91.048 238.730667,91.048 C237.738662,91.048 236.778672,90.9280012 235.850667,90.688 C234.922662,90.4479988 234.11467,90.0800025 233.426667,89.584 C232.738663,89.0879975 232.186669,88.440004 231.770667,87.64 C231.354665,86.839996 231.146667,85.8640058 231.146667,84.712 Z" id="EVENTS" fill="#FFFFFF"></path>
            </g>
            <g id="State-Block" opacity="0.2" transform="translate(1010.000000, 312.000000)">
                <rect id="Rectangle-7-Copy" stroke="#FFFFFF" stroke-width="5" x="2.5" y="2.5" width="309" height="152.140909"></rect>
                <path d="M90.2978462,84.712 L83.0018462,84.712 C82.969846,86.8240106 83.3538422,88.6479923 84.1538462,90.184 C84.9538502,91.7200077 86.0338394,92.983995 87.3938462,93.976 C88.753853,94.968005 90.3218373,95.6959977 92.0978462,96.16 C93.8738551,96.6240023 95.7058367,96.856 97.5938462,96.856 C99.9298579,96.856 101.985837,96.5840027 103.761846,96.04 C105.537855,95.4959973 107.02584,94.7360049 108.225846,93.76 C109.425852,92.7839951 110.329843,91.6240067 110.937846,90.28 C111.545849,88.9359933 111.849846,87.4800078 111.849846,85.912 C111.849846,83.9919904 111.44185,82.4160062 110.625846,81.184 C109.809842,79.9519938 108.841852,78.9680037 107.721846,78.232 C106.601841,77.4959963 105.473852,76.9600017 104.337846,76.624 C103.201841,76.2879983 102.313849,76.0560006 101.673846,75.928 C99.5298355,75.3839973 97.7938528,74.9360018 96.4658462,74.584 C95.1378395,74.2319982 94.0978499,73.8800018 93.3458462,73.528 C92.5938424,73.1759982 92.0898475,72.7920021 91.8338462,72.376 C91.5778449,71.9599979 91.4498462,71.4160034 91.4498462,70.744 C91.4498462,70.0079963 91.6098446,69.4000024 91.9298462,68.92 C92.2498478,68.4399976 92.6578437,68.0400016 93.1538462,67.72 C93.6498487,67.3999984 94.2018431,67.1760006 94.8098462,67.048 C95.4178492,66.9199994 96.0258431,66.856 96.6338462,66.856 C97.5618508,66.856 98.4178423,66.9359992 99.2018462,67.096 C99.9858501,67.2560008 100.681843,67.5279981 101.289846,67.912 C101.897849,68.2960019 102.385844,68.8239966 102.753846,69.496 C103.121848,70.1680034 103.337846,71.0159949 103.401846,72.04 L110.697846,72.04 C110.697846,70.0559901 110.32185,68.368007 109.569846,66.976 C108.817842,65.583993 107.801853,64.4400045 106.521846,63.544 C105.24184,62.6479955 103.777854,62.000002 102.129846,61.6 C100.481838,61.199998 98.7618551,61 96.9698462,61 C95.4338385,61 93.8978539,61.2079979 92.3618462,61.624 C90.8258385,62.0400021 89.4498523,62.6799957 88.2338462,63.544 C87.0178401,64.4080043 86.0338499,65.4879935 85.2818462,66.784 C84.5298424,68.0800065 84.1538462,69.6079912 84.1538462,71.368 C84.1538462,72.9360078 84.4498432,74.2719945 85.0418462,75.376 C85.6338491,76.4800055 86.4098414,77.3999963 87.3698462,78.136 C88.329851,78.8720037 89.4178401,79.4719977 90.6338462,79.936 C91.8498523,80.4000023 93.0978398,80.7919984 94.3778462,81.112 C95.6258524,81.4640018 96.8578401,81.7839986 98.0738462,82.072 C99.2898523,82.3600014 100.377841,82.6959981 101.337846,83.08 C102.297851,83.4640019 103.073843,83.9439971 103.665846,84.52 C104.257849,85.0960029 104.553846,85.8479954 104.553846,86.776 C104.553846,87.6400043 104.329848,88.3519972 103.881846,88.912 C103.433844,89.4720028 102.87385,89.9119984 102.201846,90.232 C101.529843,90.5520016 100.80985,90.7679994 100.041846,90.88 C99.2738423,90.9920006 98.5538495,91.048 97.8818462,91.048 C96.8898412,91.048 95.9298508,90.9280012 95.0018462,90.688 C94.0738415,90.4479988 93.2658496,90.0800025 92.5778462,89.584 C91.8898427,89.0879975 91.3378483,88.440004 90.9218462,87.64 C90.5058441,86.839996 90.2978462,85.8640058 90.2978462,84.712 Z M125.23118,68.152 L114.95918,68.152 L114.95918,61.816 L143.03918,61.816 L143.03918,68.152 L132.76718,68.152 L132.76718,96.088 L125.23118,96.088 L125.23118,68.152 Z M152.532513,82.84 L161.412513,82.84 L157.092513,70.264 L156.996513,70.264 L152.532513,82.84 Z M153.252513,61.816 L160.980513,61.816 L173.796513,96.088 L165.972513,96.088 L163.380513,88.456 L150.564513,88.456 L147.876513,96.088 L140.292513,96.088 L153.252513,61.816 Z M181.273846,68.152 L171.001846,68.152 L171.001846,61.816 L199.081846,61.816 L199.081846,68.152 L188.809846,68.152 L188.809846,96.088 L181.273846,96.088 L181.273846,68.152 Z M204.35118,61.816 L204.35118,96.088 L230.36718,96.088 L230.36718,89.752 L211.88718,89.752 L211.88718,81.352 L228.49518,81.352 L228.49518,75.496 L211.88718,75.496 L211.88718,68.152 L229.98318,68.152 L229.98318,61.816 L204.35118,61.816 Z" id="STATE" fill="#FFFFFF"></path>
            </g>
            <g id="Lightning-Strike-Action" transform="translate(187.000000, 505.000000)">
                <rect id="Rectangle" fill="#6F6F6F" opacity="0" x="0" y="0" width="107" height="107"></rect>
                <path d="M66.077193,32.7249951 C62.8650917,33.6603701 60.3138533,35.6006935 59.0774248,38.0434911 C58.2621044,37.7420065 57.3952981,37.5796687 56.4885327,37.5796687 C52.0461505,37.5796687 48.4505949,41.5144281 48.4505949,46.3691018 C48.4505949,49.468981 49.910641,52.1900719 52.1237634,53.7601105 L30.0386458,53.7601105 C29.9618013,53.7601105 29.8849568,53.7438767 29.8081122,53.7438767 C24.7517422,53.6743034 20.6866667,49.3769895 20.6866667,44.0731813 C20.6866667,38.8087979 24.6672133,34.5416325 29.6467387,34.3792947 C31.0068869,26.9735983 37.0238135,21.4 44.2241459,21.4 C50.1411746,21.4 55.2513358,25.1646912 57.6412006,30.6146035 C58.2475039,30.4986479 58.8707131,30.4522657 59.5085227,30.4522657 C61.9660107,30.4522657 64.2413772,31.2941032 66.077193,32.7249951 Z M87.0266667,48.348411 C87.0266667,51.3306857 83.6894431,53.7601105 79.5642639,53.7601105 C79.4182603,53.7601105 79.2792094,53.7601105 79.1401584,53.7367506 C79.0706329,53.7601105 78.9841123,53.7601105 78.8999092,53.7601105 L59.5872725,53.7601105 C59.441269,53.7601105 59.292948,53.7601105 59.1469444,53.7367506 C59.0009409,53.7445373 58.8448948,53.7601105 58.6834411,53.7601105 L57.254306,53.7601105 C57.1222076,53.7601105 56.9993792,53.7437586 56.8757784,53.728964 C53.0287011,53.4408592 50.0159298,50.2405591 50.0159298,46.3316769 C50.0159298,42.2437024 53.3377033,38.9188165 57.4319823,38.9188165 C57.8645854,38.9188165 58.2894634,38.9577496 58.6988913,39.0278292 C59.2481426,39.1212686 59.7734464,39.277001 60.2755749,39.479453 C60.3899057,39.214708 60.5305017,38.949963 60.6772778,38.6930046 C62.0291623,36.3180861 64.5004073,34.5038041 67.498501,33.7485022 C68.4865355,33.4915438 69.5371429,33.3591713 70.6186506,33.3591713 C76.7446189,33.3591713 81.7126016,37.6418112 81.7126016,42.9367114 C81.7126016,43.0145776 81.7126016,43.0924438 81.7033315,43.17031 C81.989931,43.2326029 82.2749855,43.3026825 82.5469075,43.3961219 C85.1796061,44.2215034 87.0266667,46.1362328 87.0266667,48.348411 Z M50.3263777,72.2264779 L51.3023486,70.2812473 L43.7310877,70.2812473 L48.4842423,59.3879558 L58.9419504,59.3879558 L54.3892115,66.9121078 L61.5381404,66.9121078 L43.7310877,85.065 L50.3263777,72.2264779 Z" id="Combined-Shape" fill="#FFFFFF" fill-rule="nonzero"></path>
            </g>
            <g id="Cellphone-Explosion-Action" transform="translate(294.000000, 505.000000)">
                <rect id="Rectangle" fill="#6F6F6F" opacity="0" x="0" y="0" width="107" height="107"></rect>
                <g id="Group" transform="translate(37.450000, 20.330000)" fill="#FFFFFF">
                    <g id="noun_1131411" transform="translate(0.000000, 4.815000)" fill-rule="nonzero">
                        <path d="M26.3778261,0 L7.32717391,0 C3.2804875,0 0,3.29350531 0,7.35625 L0,51.49375 C0,55.5564947 3.2804875,58.85 7.32717391,58.85 L26.3778261,58.85 C30.4245125,58.85 33.705,55.5564947 33.705,51.49375 L33.705,7.35625 C33.705,3.29350531 30.4245125,0 26.3778261,0 Z M20.516087,53.700625 L13.188913,53.700625 C12.3795758,53.700625 11.7234783,53.0419239 11.7234783,52.229375 C11.7234783,51.4168261 12.3795758,50.758125 13.188913,50.758125 L20.516087,50.758125 C21.3254242,50.758125 21.9815217,51.4168261 21.9815217,52.229375 C21.9815217,53.0419239 21.3254242,53.700625 20.516087,53.700625 Z M30.7741304,46.344375 L2.93086957,46.344375 L2.93086957,9.563125 L30.7741304,9.563125 L30.7741304,46.344375 Z" id="Shape"></path>
                    </g>
                    <polygon id="Rectangle-2" points="19.6556682 9.63 31.565 13.3249912 30.0993318 18.19 18.19 14.4950088"></polygon>
                    <g id="noun_563989" transform="translate(13.910000, 0.000000)" fill-rule="nonzero">
                        <path d="M24.61,0.350409357 L14.0121802,4.42391813 L8.95715315,0 L7.93727928,4.33631579 L0.399081081,2.80327485 L5.32108108,10.4684795 L0,12.395731 L5.05502703,14.8047953 L4.52291892,22.47 L11.262955,16.6006433 L16.584036,21.3311696 L18.5350991,14.3229825 L23.191045,14.8485965 L20.4418198,7.88421053 L24.61,0.350409357 Z M13.3027027,11.8263158 L14.766,17.2138596 L11.3072973,12.5709357 L8.55807207,15.5932164 L9.93268468,11.7825146 L4.74463063,11.9577193 L9.5336036,10.2056725 L6.69569369,7.31479532 L10.4647928,9.02304094 L12.2828288,5.25614035 L12.5045405,9.63625731 L16.4953514,7.09578947 L14.0121802,10.5560819 L17.9586486,11.2569006 L13.3027027,11.8263158 Z" id="Shape"></path>
                        <polygon id="Shape" points="20.5463117 17.0636842 20.8501389 16.6614286 19.8247222 16.2189474"></polygon>
                        <polygon id="Shape" points="1.87993056 15.5332198 2.03184414 16.05 2.90534722 15.3742105"></polygon>
                        <polygon id="Shape" points="9.74145833 21.6559809 10.2541667 21.7942105 10.1752885 20.2736842"></polygon>
                        <polygon id="Shape" points="6.49430556 1.05840557 5.98159722 1.01368421 6.83611111 2.53421053"></polygon>
                        <polygon id="Shape" points="11.4504861 20.2736842 12.1340972 19.947441 11.5786632 18.9221053"></polygon>
                        <polygon id="Shape" points="14.2506624 3.54789474 14.5267361 2.43766917 14.0140278 2.19631579"></polygon>
                        <path d="M17.6029861,1.52052632 C17.6029861,1.52052632 18.2455309,0.875454545 18.2833276,0.875454545 C18.3211244,0.875454545 18.0187504,0.506842105 18.0187504,0.506842105 L17.6029861,1.52052632 Z" id="Shape"></path>
                        <polygon id="Shape" points="22.3882639 6.92684211 23.8302561 6.25105263 23.9263889 6.75789474"></polygon>
                        <polygon id="Shape" points="0.7690625 6.75789474 0.512708333 7.11268421 1.19631944 7.26473684"></polygon>
                        <polygon id="Shape" points="3.41805556 9.79894737 2.6534905 9.29210526 2.56354167 9.73136842"></polygon>
                    </g>
                </g>
            </g>
            <g id="Meteor-Action" transform="translate(187.000000, 612.000000)">
                <rect id="Rectangle" fill="#6F6F6F" opacity="0" x="0" y="0" width="107" height="107"></rect>
                <path d="M83.8110209,24.7370008 L83.797504,24.7302109 C83.6983806,24.639679 83.5849894,24.601203 83.4550776,24.6147828 C83.4453154,24.6095017 83.4363042,24.6087473 83.4295458,24.611765 C81.5326835,24.690226 80.0893861,24.7686869 79.1011554,24.8471479 C79.0538465,24.8554466 79.0538465,24.9987887 79.0080394,25.0070875 C77.1990366,25.1202523 75.699419,25.5676305 74.3980483,26.034624 L74.3755203,26.0429228 C71.6060713,27.0372643 69.616844,27.9689879 68.527237,29.1715527 C68.5152221,29.1851325 68.527237,29.2492592 68.5219805,29.2598213 C67.3798081,30.4729481 66.6521519,31.8271538 66.6168579,34.0979944 L66.6055939,34.1017666 C66.4373844,35.6672132 66.036385,37.0327353 65.3740602,38.1243986 C65.3537849,38.1568392 65.330506,38.1870164 65.3087288,38.2202115 C64.6689321,39.1194945 63.7114897,39.6566502 62.2847128,39.4159864 L62.2734488,39.4197585 C60.6536816,39.2485024 59.1923617,39.1677782 57.8812289,39.1609883 C57.8031317,39.1723048 57.6754727,39.0485779 57.5928698,39.0531045 C56.1473196,39.0191551 55.0134074,39.0161373 54.2744872,39.280943 C54.2587176,39.286224 54.2482045,39.2899962 54.2406951,39.2930139 C52.7628547,39.8233797 51.5808827,40.8448808 50.6211875,42.1523116 L50.5445922,42.2496334 C49.9130557,43.0968606 49.4069253,44.3560078 48.5268293,46.0964827 L48.5230746,46.0851662 C48.3443521,47.6883345 47.3936681,49.0055729 47.0947959,49.5238678 C47.0797772,49.5291488 47.117324,49.5200956 47.1203277,49.5268855 C46.491044,50.5227359 45.77315,51.1866362 44.9215895,51.5344294 C44.7473725,51.6061004 44.5754084,51.6257156 44.3839199,51.6023283 C44.1991898,51.5759231 44.0414934,51.5027432 43.9010686,51.3865607 C43.8605181,51.3669454 43.8312316,51.3488391 43.8087035,51.3307327 C43.4482546,51.0674359 43.2094573,50.755101 43.0900586,50.3959913 C43.0397459,50.2541581 43.0247272,50.1055349 43.0435006,49.9478586 C43.0532627,49.7185113 43.1328619,49.4476701 43.2792942,49.1345808 C43.3228485,49.0432945 43.3739121,48.9618159 43.4399944,48.8886359 C43.641245,48.5400883 43.9739093,48.0391454 44.4852961,47.3699641 L44.4815415,47.3586476 C44.9553816,46.5861091 45.5366054,45.8799607 45.7521238,45.4084406 C45.7596331,45.3797722 45.7603841,45.3646836 45.77315,45.3503493 C46.1523722,44.5197196 46.2041868,43.7773584 45.9661403,43.1089315 C45.9608838,43.0938429 45.9556272,43.0787543 45.9503707,43.0636656 L45.7799084,42.5846012 C45.7401088,42.4736997 45.6642644,42.3839223 45.5561297,42.3137601 L45.575654,42.3190411 C45.4787834,42.2549144 45.3804109,42.2300181 45.2782837,42.2503878 C45.2617631,42.2481245 45.2467444,42.2496334 45.2317257,42.25416 C45.1055686,42.2745296 44.9929283,42.331112 44.8930539,42.4261705 C44.8307263,42.5068947 44.7939305,42.6042165 44.7841683,42.7166268 C44.7819155,42.7339788 44.7804137,42.7520852 44.7781609,42.7686827 C44.6895505,43.4793577 44.3621428,44.0949743 43.7974395,44.614778 C43.7486287,44.6660794 43.722346,44.7898063 43.663773,44.8365811 C43.1463787,45.2303946 42.3849304,45.8067808 41.254022,46.2119108 C41.2397543,46.2171918 41.2284902,46.2217184 41.2209809,46.2247362 C41.2134715,46.2269995 41.2059622,46.2292628 41.1984528,46.2315261 C39.5726782,46.8154565 38.612983,47.2311486 38.2915827,47.4054224 C38.242021,47.4303187 38.1857009,47.4129667 38.148905,47.4250377 C37.0225023,48.0316011 36.2775746,48.9007069 35.9276388,50.0730944 C35.9096163,50.1379755 35.8803298,50.1968212 35.8472887,50.2677378 C35.5364015,51.1745652 34.9506721,52.3952364 34.0923532,53.9433311 C32.5101327,55.256043 30.8918674,56.5159446 29.23981,57.7290714 C24.9805056,60.8411039 23.1076733,64.8780701 23.6235657,69.8422334 C24.4278173,77.6309905 28.7081479,81.7954558 36.4660593,82.3341203 C43.9055742,82.8448708 48.8497314,79.854302 51.3000329,73.3646769 C52.5533438,70.0270693 53.7653532,66.862981 54.8609676,63.6649433 C55.8927525,62.7249209 57.3518196,62.2601907 59.0226504,61.6604172 L59.0339144,61.6558906 C61.1410386,60.8999496 62.7390286,60.3016849 63.708486,59.5095312 C63.7114897,59.4989692 63.7002257,59.439369 63.7069841,59.4371057 C66.580813,57.0923307 67.9685413,54.5710186 67.7462645,51.9802987 C67.7365023,51.9501215 67.8100939,51.8626073 67.7988299,51.83243 C67.7935734,51.816587 67.7875659,51.799235 67.7800565,51.7758476 L67.6891934,51.5200952 C67.6456391,51.4008949 67.5014596,51.3360137 67.3963287,51.2733959 C67.3828118,51.2620794 67.3370048,51.2696237 67.3287445,51.2726414 C67.2266173,51.2168134 67.1049658,51.210778 66.9998349,51.2402008 C66.9810615,51.2379375 66.9562806,51.2424641 66.940511,51.2477452 C66.8196104,51.2764136 66.720487,51.332996 66.6581594,51.4129658 L66.708472,51.3186618 C66.5958317,51.4853913 66.1617912,52.0466888 65.4183654,53.000291 C65.4025957,53.0063264 65.3965883,53.0131163 65.399592,53.0199062 C65.0083548,53.4861452 64.6771923,53.8007434 64.4106104,53.9652096 C64.3002229,54.0293364 64.1815751,54.0715846 64.0584218,54.0994985 C63.1332696,54.6811657 62.2306455,55.2394455 61.2852181,55.5781855 L61.263441,55.5864842 C60.3315304,55.9214521 59.5625728,55.8882571 58.8949914,55.3246963 C58.3685859,54.9437081 57.9480621,54.2194532 57.6319184,53.1436331 C57.5868623,52.9927466 57.578602,52.8411058 57.6078885,52.6887105 C58.0817286,49.4288093 60.3690772,47.3194172 64.4684324,46.3582706 C67.797328,45.5480106 69.7497595,44.9361661 70.3257268,44.5189652 C70.41659,44.4450308 70.5172153,44.3884484 70.6276028,44.3484635 C72.3555046,43.1836203 73.3197054,42.1342053 73.520956,41.2002183 C73.5247107,41.1662689 73.5307182,41.1345827 73.5367257,41.1066687 C73.7304669,40.1500488 73.5840346,38.3348851 73.1004323,35.6626866 C73.0974286,35.6551423 73.1034361,35.6626866 73.1086926,35.6521246 C72.6859161,33.2673647 73.6185776,30.8282856 76.1950362,29.1496742 L76.1837722,29.1542008 C78.873622,27.4356044 81.1782421,25.9161782 83.4911225,25.695884 C83.6330492,25.678532 83.7599573,25.6076154 83.8703448,25.5012405 C83.9499439,25.3722326 83.9897435,25.2281361 83.995,25.0764952 C83.9649626,24.9459785 83.902635,24.8297959 83.8110209,24.7370008 Z M50.1375853,54.8350698 C48.7678795,57.3028173 47.985405,59.123262 47.3148199,60.4684144 C46.3731472,62.3891986 45.6267176,64.1643773 45.1258438,65.6151503 C44.9876718,66.0014195 44.6872977,66.0557386 44.7030673,66.8026264 L45.0019395,66.6939882 C45.1498738,66.6419324 45.3075702,66.3454406 45.5959293,66.1500427 C45.8009346,66.0006651 45.9916721,65.6581529 46.2875406,65.4589828 C46.6720194,65.2024759 47.3508648,65.0983643 47.962877,64.1251469 L50.163868,63.3352564 L50.4815136,64.2285041 C50.2629915,65.7215252 49.781642,67.1919134 49.3340846,68.5332937 C49.2244481,68.8569451 49.0254503,69.2009661 48.9075534,69.5012301 C48.2910357,70.9286156 47.4695126,72.2684871 46.5458623,73.5381963 C45.0364826,75.5970416 43.2657774,77.1021336 41.2487655,77.8263884 C41.0783032,77.8874974 40.9198559,77.9440798 40.7719216,77.9976445 C40.3138512,78.1628652 39.8460186,78.3099794 39.3511523,78.3952303 C36.5817033,78.9716164 34.1231415,78.9248416 31.9687085,78.2337818 C29.8345507,77.5261245 28.2973863,75.852794 27.3542117,73.2032285 C26.3216759,70.3001737 26.3344418,67.4529469 27.3887548,64.6555126 C27.4570899,64.3793905 27.5562133,64.1062861 27.6846232,63.8339361 C28.2958845,62.484257 29.0610874,61.3201683 29.9779793,60.3371432 C30.571969,59.8739219 31.1306648,59.3624169 31.6578213,58.8048916 C31.8523135,58.6268456 32.06633,58.466906 32.2991199,58.3250728 C32.2653279,58.2285055 32.5889809,57.9689808 33.2723319,57.5480077 C33.68835,57.2892375 34.2425402,56.9814292 34.9311478,56.6253372 C35.2082429,56.4676609 35.4823342,56.32281 35.7526709,56.1930476 C37.0735659,55.4333345 38.034012,54.9467258 38.6325073,54.7309582 C40.9228596,53.9086272 42.5140913,53.4514414 43.4054513,53.3563829 C43.3588934,53.9516298 43.0059538,54.7739608 42.3796739,55.9191888 C41.6490139,57.1692828 41.2742973,58.2466119 40.9716704,58.3552501 L45.0064452,56.9067404 C45.4051917,56.7641528 46.2680163,56.2300148 47.4605013,55.5766766 C48.6522355,54.8984421 49.2845229,54.5431046 49.9138066,54.2088912 L50.1375853,54.8350698 Z M32.9676199,62.7679621 C31.8514027,63.4683899 30.8995132,64.3994558 30.1127088,65.5627077 C28.4815475,67.9627372 28.4823047,70.3457396 30.1157379,72.7109412 C32.6276053,76.3624532 36.0625858,76.9452401 40.4206795,74.4608498 C42.5645133,73.2395513 43.5262473,71.4455274 43.3036096,69.0803259 C42.7189965,62.9134653 39.2741715,60.80986 32.9676199,62.7679621 Z M41.3543945,70.0632466 C41.3649963,70.3341303 41.3415209,70.6042401 41.2854828,70.8743498 C40.6910252,71.434692 39.9981224,71.601866 39.2045026,71.3766455 C38.0708681,71.0422977 37.6808736,70.2884671 38.0345191,69.1120579 C38.1284207,68.8032505 38.2813894,68.5919613 38.4941825,68.480512 C39.1499791,68.0006609 39.7876011,67.9503539 40.4093205,68.3350087 C41.009079,68.7065064 41.3248609,69.2831016 41.3543945,70.0632466 Z" id="Combined-Shape" fill="#FFFFFF" fill-rule="nonzero"></path>
            </g>
            <g id="Add-Ground-On-Action" transform="translate(294.000000, 612.000000)" fill="#FFFFFF">
                <rect id="Rectangle-2" opacity="0" x="0" y="0" width="107" height="107"></rect>
                <path d="M54.9944245,51.4424858 C55.0014049,51.3655351 55.0049714,51.2875987 55.0049714,51.2088293 L55.0049714,30.373554 C55.0049714,28.963265 53.8617064,27.82 52.4514175,27.82 C51.0411286,27.82 49.8978635,28.963265 49.8978635,30.373554 L49.8978635,51.2088293 C49.8978635,51.2875987 49.9014301,51.3655351 49.9084104,51.4424858 L28.233554,51.4424858 C26.823265,51.4424858 25.68,52.5857509 25.68,53.9960398 C25.68,55.4063287 26.823265,56.5495937 28.233554,56.5495937 L76.6932231,56.5495937 C78.103512,56.5495937 79.2467771,55.4063287 79.2467771,53.9960398 C79.2467771,52.5857509 78.103512,51.4424858 76.6932231,51.4424858 L54.9944245,51.4424858 Z M34.6026052,64.738245 C33.1923163,64.738245 32.0490513,63.5949799 32.0490513,62.184691 C32.0490513,60.7744021 33.1923163,59.6311371 34.6026052,59.6311371 L70.329556,59.6311371 C71.7398449,59.6311371 72.88311,60.7744021 72.88311,62.184691 C72.88311,63.5949799 71.7398449,64.738245 70.329556,64.738245 L34.6026052,64.738245 Z M41.1037097,72.9005244 C39.6934208,72.9005244 38.5501558,71.7572594 38.5501558,70.3469705 C38.5501558,68.9366816 39.6934208,67.7934165 41.1037097,67.7934165 L63.7978076,67.7934165 C65.2080965,67.7934165 66.3513616,68.9366816 66.3513616,70.3469705 C66.3513616,71.7572594 65.2080965,72.9005244 63.7978076,72.9005244 L41.1037097,72.9005244 Z M47.8234865,81.0725406 C46.4131976,81.0725406 45.2699326,79.9292755 45.2699326,78.5189866 C45.2699326,77.1086977 46.4131976,75.9654327 47.8234865,75.9654327 L57.0657176,75.9654327 C58.4760065,75.9654327 59.6192715,77.1086977 59.6192715,78.5189866 C59.6192715,79.9292755 58.4760065,81.0725406 57.0657176,81.0725406 L47.8234865,81.0725406 Z" id="Combined-Shape" fill-rule="nonzero"></path>
                <g id="PLUS" transform="translate(9.095000, 9.362500)">
                    <path d="M12.0375,24.075 C5.38937232,24.075 0,18.6856277 0,12.0375 C0,5.38937232 5.38937232,0 12.0375,0 C18.6856277,0 24.075,5.38937232 24.075,12.0375 C24.075,18.6856277 18.6856277,24.075 12.0375,24.075 Z M13.729901,10.612599 L13.729901,4.815 L10.612599,4.815 L10.612599,10.612599 L4.815,10.612599 L4.815,13.729901 L10.612599,13.729901 L10.612599,19.5275 L13.729901,19.5275 L13.729901,13.729901 L19.5275,13.729901 L19.5275,10.612599 L13.729901,10.612599 Z" id="Combined-Shape"></path>
                </g>
            </g>
            <g id="Fire-Department-Coming" transform="translate(187.000000, 719.000000)" fill="#FFFFFF">
                <rect id="Rectangle-2" opacity="0" x="0" y="0" width="107" height="107"></rect>
                <path d="M89.3920978,40.5772019 L84.6706574,40.5772019 L84.6706574,35.845 L79.9492171,35.845 L79.9492171,40.5772019 L71.6868554,40.5772019 C69.7322567,40.5772019 68.1465702,42.1673543 68.1465702,44.126672 L68.1465702,57.1411835 L68.1465702,61.874023 L65.7855319,61.874023 L65.7855319,57.1411835 L65.7855319,52.4089817 L35.0977596,52.4089817 L35.0977596,57.1411835 L38.6386808,57.1411835 C35.1969842,57.1418211 34.5075,66.6075 34.5075,66.6075 L37.552934,66.6075 C37.4975972,66.219207 37.4587978,65.8264508 37.4587978,65.4241307 C37.4587978,60.8513267 41.1580969,57.1418211 45.7205234,57.1418211 C50.2829499,57.1418211 53.982249,60.8506891 53.982249,65.4241307 C53.982249,65.8264508 53.9453578,66.219207 53.8900209,66.6075 L72.9615107,66.6075 C72.9061739,66.219207 72.8673745,65.8264508 72.8673745,65.4241307 C72.8673745,60.8513267 76.5666736,57.1418211 81.1291001,57.1418211 C85.6915266,57.1418211 89.3914618,60.8506891 89.3914618,65.4241307 C89.3914618,65.8264508 89.3539345,66.219207 89.2985977,66.6075 L91.7525,66.6075 L91.7525,57.1418211 L89.3920978,40.5772019 Z M45.475,59.385 C42.2242321,59.385 39.59,62.0205006 39.59,65.27 C39.59,68.5207679 42.2242321,71.155 45.475,71.155 C48.7257679,71.155 51.36,68.5207679 51.36,65.27 C51.36,62.0211349 48.7257679,59.385 45.475,59.385 M45.475,67.9188209 C44.0148502,67.9188209 42.8261791,66.7314184 42.8261791,65.2706343 C42.8261791,63.8111188 44.0148502,62.6224477 45.475,62.6224477 C46.9351498,62.6224477 48.1231866,63.8111188 48.1231866,65.2706343 C48.1231866,66.7314184 46.9351498,67.9188209 45.475,67.9188209 M81.32,59.385 C78.0692321,59.385 75.435,62.0205006 75.435,65.27 C75.435,68.5207679 78.0692321,71.155 81.32,71.155 C84.5707679,71.155 87.205,68.5207679 87.205,65.27 C87.205,62.0211349 84.5707679,59.385 81.32,59.385 M81.32,67.9188209 C79.8598502,67.9188209 78.6718134,66.7314184 78.6718134,65.2706343 C78.6718134,63.8111188 79.8598502,62.6224477 81.32,62.6224477 C82.7801498,62.6224477 83.9688209,63.8111188 83.9688209,65.2706343 C83.9688209,66.7314184 82.7801498,67.9188209 81.32,67.9188209 M65.5375,47.6820327 L63.17135,47.6820327 L63.17135,43.0004673 L65.5375,43.0004673 L65.5375,40.66 L34.775,40.66 L34.775,43.0004673 L37.1417876,43.0004673 L37.1417876,47.6820327 L34.775,47.6820327 L34.775,50.0225 L65.5375,50.0225 L65.5375,47.6820327 Z M41.8740875,47.6820327 L39.5079375,47.6820327 L39.5079375,43.0004673 L41.8740875,43.0004673 L41.8740875,47.6820327 Z M46.6063874,47.6820327 L44.2402375,47.6820327 L44.2402375,43.0004673 L46.6063874,43.0004673 L46.6063874,47.6820327 Z M51.339325,47.6820327 L48.973175,47.6820327 L48.973175,43.0004673 L51.339325,43.0004673 L51.339325,47.6820327 Z M56.0722625,47.6820327 L53.705475,47.6820327 L53.705475,43.0004673 L56.0722625,43.0004673 L56.0722625,47.6820327 Z M60.8052001,47.6820327 L58.4384125,47.6820327 L58.4384125,43.0004673 L60.8052001,43.0004673 L60.8052001,47.6820327 Z M75.2284127,47.6767798 L70.5069723,47.6767798 L70.5069723,42.9439404 L75.2284127,42.9439404 L75.2284127,47.6767798 Z M77.5888149,52.4096193 L77.5888149,42.9439404 L79.9492171,42.9439404 L84.6706574,42.9439404 L87.0310596,42.9439404 L88.2109427,52.4096193 L77.5888149,52.4096193 L77.5888149,52.4096193 Z M28.9546582,40.7270327 L28.9546582,43.0675 L15.2475,43.0675 L15.2475,40.7270327 L28.9546582,40.7270327 Z M28.9546582,46.0770327 L28.9546582,48.4175 L18.3325305,48.4175 L18.3325305,46.0770327 L28.9546582,46.0770327 Z M28.9546582,51.4270327 L28.9546582,53.7675 L22.1010791,53.7675 L22.1010791,51.4270327 L28.9546582,51.4270327 Z" id="Shape" fill-rule="nonzero" transform="translate(53.500000, 53.500000) scale(-1, 1) translate(-53.500000, -53.500000) "></path>
            </g>
            <g id="State-Block-Copy" opacity="0.2" transform="translate(599.000000, 312.000000)">
                <rect id="Rectangle-7-Copy" stroke="#FFFFFF" stroke-width="5" x="2.5" y="2.5" width="309" height="152.140909"></rect>
                <path d="M89.232,82.312 L89.232,61 L81.696,61 L81.696,82.312 C81.696,84.8720128 81.1840051,86.751994 80.16,87.952 C79.1359949,89.152006 77.2800134,89.752 74.592,89.752 C73.0559923,89.752 71.8320046,89.5360022 70.92,89.104 C70.0079954,88.6719978 69.2960026,88.1120034 68.784,87.424 C68.2719974,86.7359966 67.9360008,85.9440045 67.776,85.048 C67.6159992,84.1519955 67.536,83.2400046 67.536,82.312 L67.536,61 L60,61 L60,82.312 C60,86.9840234 61.2719873,90.4399888 63.816,92.68 C66.3600127,94.9200112 69.9519768,96.04 74.592,96.04 C79.1680229,96.04 82.751987,94.9120113 85.344,92.656 C87.936013,90.3999887 89.232,86.9520232 89.232,82.312 Z M104.581333,77.128 L110.437333,77.128 C111.301338,77.128 112.133329,77.0640006 112.933333,76.936 C113.733337,76.8079994 114.43733,76.5600018 115.045333,76.192 C115.653336,75.8239982 116.141332,75.3040034 116.509333,74.632 C116.877335,73.9599966 117.061333,73.0800054 117.061333,71.992 C117.061333,70.9039946 116.877335,70.0240034 116.509333,69.352 C116.141332,68.6799966 115.653336,68.1600018 115.045333,67.792 C114.43733,67.4239982 113.733337,67.1760006 112.933333,67.048 C112.133329,66.9199994 111.301338,66.856 110.437333,66.856 L104.581333,66.856 L104.581333,77.128 Z M97.0453334,61 L112.501333,61 C114.645344,61 116.469326,61.3119969 117.973333,61.936 C119.477341,62.5600031 120.701329,63.3839949 121.645333,64.408 C122.589338,65.4320051 123.277331,66.5999934 123.709333,67.912 C124.141336,69.2240066 124.357333,70.583993 124.357333,71.992 C124.357333,73.3680069 124.141336,74.7199934 123.709333,76.048 C123.277331,77.3760066 122.589338,78.5519949 121.645333,79.576 C120.701329,80.6000051 119.477341,81.4239969 117.973333,82.048 C116.469326,82.6720031 114.645344,82.984 112.501333,82.984 L104.581333,82.984 L104.581333,95.272 L97.0453334,95.272 L97.0453334,61 Z M137.930667,88.936 L144.650667,88.936 C145.738672,88.936 146.794662,88.7600018 147.818667,88.408 C148.842672,88.0559982 149.754663,87.4720041 150.554667,86.656 C151.354671,85.8399959 151.994664,84.7760066 152.474667,83.464 C152.954669,82.1519934 153.194667,80.5520094 153.194667,78.664 C153.194667,76.9359914 153.026668,75.376007 152.690667,73.984 C152.354665,72.591993 151.802671,71.400005 151.034667,70.408 C150.266663,69.415995 149.250673,68.6560026 147.986667,68.128 C146.72266,67.5999974 145.162676,67.336 143.306667,67.336 L137.930667,67.336 L137.930667,88.936 Z M130.394667,61 L145.178667,61 C147.386678,61 149.442657,61.3519965 151.346667,62.056 C153.250676,62.7600035 154.89866,63.815993 156.290667,65.224 C157.682674,66.632007 158.770663,68.3919894 159.554667,70.504 C160.338671,72.6160106 160.730667,75.0959858 160.730667,77.944 C160.730667,80.4400125 160.41067,82.7439894 159.770667,84.856 C159.130664,86.9680106 158.162673,88.7919923 156.866667,90.328 C155.57066,91.8640077 153.954676,93.0719956 152.018667,93.952 C150.082657,94.8320044 147.80268,95.272 145.178667,95.272 L130.394667,95.272 L130.394667,61 Z M175.936,82.024 L184.816,82.024 L180.496,69.448 L180.4,69.448 L175.936,82.024 Z M176.656,61 L184.384,61 L197.2,95.272 L189.376,95.272 L186.784,87.64 L173.968,87.64 L171.28,95.272 L163.696,95.272 L176.656,61 Z M204.677333,67.336 L194.405333,67.336 L194.405333,61 L222.485333,61 L222.485333,67.336 L212.213333,67.336 L212.213333,95.272 L204.677333,95.272 L204.677333,67.336 Z M227.754667,61 L227.754667,95.272 L253.770667,95.272 L253.770667,88.936 L235.290667,88.936 L235.290667,80.536 L251.898667,80.536 L251.898667,74.68 L235.290667,74.68 L235.290667,67.336 L253.386667,67.336 L253.386667,61 L227.754667,61 Z" id="UPDATE" fill="#FFFFFF"></path>
            </g>
            <g id="Arrows" opacity="0.2" transform="translate(738.000000, 255.000000)">
                <polygon id="Shape-Copy-3" fill="#FFFFFF" fill-rule="nonzero" transform="translate(221.995152, 135.542264) scale(-1, 1) rotate(90.000000) translate(-221.995152, -135.542264) " points="221.995141 185.127322 223.376734 183.923097 238.351439 171.078027 235.588253 167.844494 224.134403 177.678966 224.134403 85.957206 219.8559 85.957206 219.8559 177.678966 208.40205 167.844494 205.638865 171.078027 220.613548 183.923097"></polygon>
                <polygon id="Shape-Copy-4" fill="#FFFFFF" fill-rule="nonzero" transform="translate(16.951224, 28.533415) scale(-1, 1) translate(-16.951224, -28.533415) " points="16.9512131 57.06683 18.3328059 55.8626047 33.3075108 43.0175343 30.5443252 39.7840019 19.090475 49.6184732 19.090475 0 14.8119726 0 14.8119726 49.6184732 3.35812236 39.7840019 0.594936709 43.0175343 15.5696203 55.8626047"></polygon>
                <polyline id="Path-11" stroke="#FFFFFF" stroke-width="6" points="16.2827004 2.14084507 437 2.14084507 437 58.5164319"></polyline>
            </g>
            <g id="Update-Function-Definition" opacity="0.2" transform="translate(596.000000, 503.000000)">
                <g id="Connectors" transform="translate(86.462571, 42.194792)" stroke="#FFFFFF" stroke-width="5">
                    <polyline id="Path-4" points="163.057253 0 129.336573 0 57.8799028 71.6117168"></polyline>
                    <polyline id="Path-3" points="57.1653361 71.5165971 128.213084 143.725313 163.419451 143.725313"></polyline>
                    <path d="M58.378791,72.050178 L0.606727436,72.050178" id="Path-9"></path>
                    <ellipse id="Oval-3" fill="#4D70B8" cx="58.5944695" cy="72.2317631" rx="5.71653361" ry="5.72132777"></ellipse>
                </g>
                <g id="Fire-State" transform="translate(249.383779, 137.311866)" fill="#FFFFFF">
                    <rect id="Background-Copy" opacity="0" x="0" y="0" width="85.7480042" height="85.8199165"></rect>
                    <path d="M54.6905019,42.8493762 C52.4504332,37.9605665 53.2252535,33.9122748 53.2252535,33.9122748 C53.2252535,33.9122748 48.8380039,38.0063919 49.5199363,44.0158921 C49.7493239,46.0380077 50.5768183,48.3327551 51.3176551,50.6019795 C50.5552955,52.4042495 49.2101215,54.2123202 46.9224761,53.8056928 C42.5805377,53.0336228 44.087699,49.4789686 45.0007181,46.4057706 C45.9137373,43.3319924 43.651013,40.8771464 43.651013,40.8771464 C43.651013,40.8771464 41.6114461,46.2108678 39.8720653,42.0570038 C38.1326845,37.9031398 47.1093845,33.6100596 46.060432,27.4352401 C45.0120459,21.2604206 40.8479536,17.1639833 40.8479536,17.1639833 C40.8479536,17.1639833 43.5400008,21.0022905 41.7994872,25.8522357 C40.0589737,30.7021808 36.6719672,30.2636497 33.5217113,36.1548161 C30.3714554,42.0459826 35.0407667,47.3553412 32.8165569,48.6396108 C28.2327704,51.2870393 29.0959473,41.7037427 29.0959473,41.7037427 C29.0959473,41.7037427 23.3793826,48.8014497 28.7164666,59.9317866 C34.4715457,71.9345452 47.9289495,69.135139 48.6210769,68.9820011 C52.70191,68.4709616 56.5765774,65.6814166 58.6574908,60.3273927 C62.617683,50.1356052 56.9305706,47.7381858 54.6905019,42.8493762 Z" id="Shape-Copy-6" fill-rule="nonzero"></path>
                </g>
                <g id="Sun-State" transform="translate(249.383779, 0.000000)">
                    <rect id="Background-Copy" fill="#C2C9D8" opacity="0" x="0" y="0" width="85.7480042" height="85.8199165"></rect>
                    <path d="M43.6964279,30.698162 C50.880295,30.698162 56.7204172,36.543182 56.7204172,43.7330738 C56.7204172,50.9229657 50.880295,56.7679857 43.6964279,56.7679857 C36.5125608,56.7679857 30.6724386,50.9229657 30.6724386,43.7330738 C30.6724386,36.543182 36.5125608,30.698162 43.6964279,30.698162 Z M43.6964279,26.9739014 C42.6815716,26.9739014 41.835858,26.2918421 41.835858,25.3661901 L41.835858,20.2020265 C41.835858,19.3250931 42.6815716,18.5943152 43.6964279,18.5943152 C44.7112842,18.5943152 45.5569978,19.3250931 45.5569978,20.2020265 L45.5569978,25.3661901 C45.5569978,26.2431236 44.7112842,26.9739014 43.6964279,26.9739014 Z M29.5799331,32.03109 L25.607186,28.0620735 C24.9185765,27.3741106 24.9185765,26.3157062 25.607186,25.6277433 C26.2957955,24.9397805 27.3551948,24.9397805 28.0438043,25.6277433 L32.0165514,29.5967599 C32.7051609,30.2847227 32.7051609,31.3431272 32.0165514,32.03109 C31.6987316,32.4015316 31.2220019,32.5602922 30.7982423,32.5602922 C30.3744826,32.5602922 29.8977529,32.3486113 29.5799331,32.03109 Z M26.9512988,43.7330738 C26.9512988,44.7487812 26.269811,45.5952041 25.3449347,45.5952041 L20.1850984,45.5952041 C19.3088997,45.5952041 18.5787342,44.7487812 18.5787342,43.7330738 C18.5787342,42.7173664 19.3088997,41.8709435 20.1850984,41.8709435 L25.3449347,41.8709435 C26.2211333,41.8709435 26.9512988,42.7173664 26.9512988,43.7330738 Z M29.5799331,54.4907624 C30.2685426,53.8027995 31.3809118,53.8027995 32.0165514,54.4907624 C32.7051609,55.1787253 32.7051609,56.2371297 32.0165514,56.9250926 L28.0438043,60.8941091 C27.7259845,61.2645507 27.2492548,61.4233113 26.8254951,61.4233113 C26.4017354,61.4233113 25.9250058,61.2116304 25.607186,60.8941091 C24.9185765,60.2061462 24.9185765,59.1477418 25.607186,58.459779 L29.5799331,54.4907624 Z M43.6964279,59.5611811 C44.7112842,59.5611811 45.5569978,60.2432404 45.5569978,61.1688924 L45.5569978,66.3330559 C45.5569978,67.2099894 44.7112842,67.9407672 43.6964279,67.9407672 C42.6815716,67.9407672 41.835858,67.2099894 41.835858,66.3330559 L41.835858,61.1688924 C41.835858,60.2919589 42.6815716,59.5611811 43.6964279,59.5611811 Z M56.8826377,54.4907624 L60.8553848,58.459779 C61.5439944,59.1477418 61.5439944,60.2061462 60.8553848,60.8941091 C60.5375651,61.2645507 60.0608354,61.4233113 59.6370757,61.4233113 C59.213316,61.4233113 58.7365864,61.2116304 58.4187666,60.8941091 L54.4460195,56.9250926 C53.75741,56.2371297 53.75741,55.1787253 54.4460195,54.4907624 C55.134629,53.8027995 56.1940282,53.8027995 56.8826377,54.4907624 Z M66.2774725,41.8709435 C67.1536711,41.8709435 67.8838366,42.7173664 67.8838366,43.7330738 C67.8838366,44.7487812 67.1536711,45.5952041 66.2774725,45.5952041 L61.1176362,45.5952041 C60.2414376,45.5952041 59.5112721,44.7487812 59.5112721,43.7330738 C59.5112721,42.7173664 60.2414376,41.8709435 61.1176362,41.8709435 L66.2774725,41.8709435 Z M55.6643286,32.5602922 C55.187599,32.5602922 54.7638393,32.4015316 54.4460195,32.03109 C53.75741,31.3431272 53.75741,30.2847227 54.4460195,29.5967599 L58.4187666,25.6277433 C59.1073761,24.9397805 60.1667753,24.9397805 60.8553848,25.6277433 C61.5439944,26.3157062 61.5439944,27.3741106 60.8553848,28.0620735 L56.8826377,32.03109 C56.564818,32.4015316 56.0880883,32.5602922 55.6643286,32.5602922 Z" id="Combined-Shape" fill="#FFFFFF" fill-rule="nonzero"></path>
                </g>
                <g id="Ground-Off" transform="translate(120.761773, 143.033194)">
                    <rect id="Rectangle-2" x="0" y="0" width="50.0196691" height="50.061618"></rect>
                    <path d="M29.9860069,26.4576089 L28.5442588,27.899357 L32.8772067,27.899357 C33.5364795,27.899357 34.0709256,28.4342514 34.0709256,29.0940771 C34.0709256,29.7539027 33.5364795,30.2887971 32.8772067,30.2887971 L26.1548188,30.2887971 L24.7254091,31.7182067 L29.8237872,31.7182067 C30.4830599,31.7182067 31.0175061,32.2531011 31.0175061,32.9129267 C31.0175061,33.5727524 30.4830599,34.1076468 29.8237872,34.1076468 L22.3359691,34.1076468 L19.3615657,37.0820501 C18.8953895,37.5482264 18.1392516,37.5479094 17.6726844,37.0813422 C17.2061172,36.614775 17.2058002,35.8586371 17.6719765,35.3924609 L33.6905,19.3739373 C34.1566763,18.9077611 34.9128142,18.908078 35.3793814,19.3746452 C35.8459486,19.8412124 35.8462655,20.5973504 35.3800893,21.0635266 L32.375447,24.0681689 L35.8520527,24.0681689 C36.5113255,24.0681689 37.0457716,24.6030633 37.0457716,25.2628889 C37.0457716,25.9227146 36.5113255,26.4576089 35.8520527,26.4576089 L29.9860069,26.4576089 Z M23.7473631,26.4576089 L13.1984395,26.4576089 C12.5391667,26.4576089 12.0047206,25.9227146 12.0047206,25.2628889 C12.0047206,24.6030633 12.5391667,24.0681689 13.1984395,24.0681689 L23.3308615,24.0681689 C23.3275983,24.0321663 23.325931,23.9957025 23.325931,23.958849 L23.325931,14.2107407 C23.325931,13.550915 23.8603772,13.0160207 24.51965,13.0160207 C25.1789227,13.0160207 25.7133689,13.550915 25.7133689,14.2107407 L25.7133689,23.958849 C25.7133689,23.9957025 25.7117016,24.0321663 25.7084385,24.0681689 L26.1368031,24.0681689 L23.7473631,26.4576089 Z M22.305615,27.899357 L19.9161749,30.2887971 L16.1758025,30.2887971 C15.5165297,30.2887971 14.9820836,29.7539027 14.9820836,29.0940771 C14.9820836,28.4342514 15.5165297,27.899357 16.1758025,27.899357 L22.305615,27.899357 Z M22.3562147,37.9310519 C21.6969419,37.9310519 21.1624958,37.3961575 21.1624958,36.7363319 C21.1624958,36.0765062 21.6969419,35.5416119 22.3562147,35.5416119 L26.6767132,35.5416119 C27.3359859,35.5416119 27.8704321,36.0765062 27.8704321,36.7363319 C27.8704321,37.3961575 27.3359859,37.9310519 26.6767132,37.9310519 L22.3562147,37.9310519 Z" id="Combined-Shape" fill="#FFFFFF" fill-rule="nonzero"></path>
                </g>
                <g id="Ground-On" transform="translate(120.761773, 35.758299)">
                    <rect id="Rectangle-2" x="0" y="0" width="50.0196691" height="50.061618"></rect>
                    <path d="M25.7084385,24.0681689 C25.7117016,24.0321663 25.7133689,23.9957025 25.7133689,23.958849 L25.7133689,14.2107407 C25.7133689,13.550915 25.1789227,13.0160207 24.51965,13.0160207 C23.8603772,13.0160207 23.325931,13.550915 23.325931,14.2107407 L23.325931,23.958849 C23.325931,23.9957025 23.3275983,24.0321663 23.3308615,24.0681689 L13.1984395,24.0681689 C12.5391667,24.0681689 12.0047206,24.6030633 12.0047206,25.2628889 C12.0047206,25.9227146 12.5391667,26.4576089 13.1984395,26.4576089 L35.8520527,26.4576089 C36.5113255,26.4576089 37.0457716,25.9227146 37.0457716,25.2628889 C37.0457716,24.6030633 36.5113255,24.0681689 35.8520527,24.0681689 L25.7084385,24.0681689 Z M16.1758025,30.2887971 C15.5165297,30.2887971 14.9820836,29.7539027 14.9820836,29.0940771 C14.9820836,28.4342514 15.5165297,27.899357 16.1758025,27.899357 L32.8772067,27.899357 C33.5364795,27.899357 34.0709256,28.4342514 34.0709256,29.0940771 C34.0709256,29.7539027 33.5364795,30.2887971 32.8772067,30.2887971 L16.1758025,30.2887971 Z M19.2148968,34.1076468 C18.5556241,34.1076468 18.0211779,33.5727524 18.0211779,32.9129267 C18.0211779,32.2531011 18.5556241,31.7182067 19.2148968,31.7182067 L29.8237872,31.7182067 C30.4830599,31.7182067 31.0175061,32.2531011 31.0175061,32.9129267 C31.0175061,33.5727524 30.4830599,34.1076468 29.8237872,34.1076468 L19.2148968,34.1076468 Z M22.3562147,37.9310519 C21.6969419,37.9310519 21.1624958,37.3961575 21.1624958,36.7363319 C21.1624958,36.0765062 21.6969419,35.5416119 22.3562147,35.5416119 L26.6767132,35.5416119 C27.3359859,35.5416119 27.8704321,36.0765062 27.8704321,36.7363319 C27.8704321,37.3961575 27.3359859,37.9310519 26.6767132,37.9310519 L22.3562147,37.9310519 Z" id="Combined-Shape" fill="#FFFFFF" fill-rule="nonzero"></path>
                </g>
                <g id="Lightning-Strike-Action" transform="translate(0.000000, 82.244087)" fill-rule="nonzero" fill="#FFFFFF">
                    <path d="M45.4690075,11.8904648 C42.2513524,12.8282429 39.6957029,14.7735512 38.4571366,17.2226246 C37.6404064,16.9203656 36.7721014,16.7576107 35.8637682,16.7576107 C31.413705,16.7576107 27.8119327,20.7024789 27.8119327,25.5696248 C27.8119327,28.677468 29.2745032,31.4055497 31.4914522,32.9796219 L9.36814893,32.9796219 C9.29117153,32.9796219 9.21419414,32.9633464 9.13721674,32.9633464 C4.07210418,32.8935943 0,28.5852402 0,23.2678058 C0,17.9898976 3.98742904,13.7117694 8.97556422,13.5490145 C10.3380641,6.12429197 16.3653941,0.536374478 23.578176,0.536374478 C29.5054354,0.536374478 34.6244321,4.31073761 37.0184291,9.77465138 C37.6257807,9.6583979 38.2500674,9.61189651 38.8889798,9.61189651 C41.3507169,9.61189651 43.6300175,10.4558968 45.4690075,11.8904648 Z" id="Shape"></path>
                    <path d="M66.4547032,27.5540191 C66.4547032,30.5439556 63.1117095,32.9796219 58.9793978,32.9796219 C58.8331418,32.9796219 58.6938504,32.9796219 58.554559,32.9562021 C58.4849133,32.9796219 58.3982431,32.9796219 58.3138944,32.9796219 L38.9678658,32.9796219 C38.8216098,32.9796219 38.6730323,32.9796219 38.5267764,32.9562021 C38.3805204,32.9640087 38.2242045,32.9796219 38.0624717,32.9796219 L36.6308656,32.9796219 C36.4985387,32.9796219 36.375498,32.963228 36.2516834,32.9483954 C32.3979545,32.6595504 29.3799741,29.4510284 29.3799741,25.5321038 C29.3799741,21.4336269 32.707491,18.1001989 36.808849,18.1001989 C37.2422001,18.1001989 37.6678127,18.139232 38.0779485,18.2094916 C38.6281496,18.3031711 39.1543615,18.4593036 39.6573583,18.6622758 C39.7718868,18.3968506 39.9127259,18.1314254 40.0597557,17.8738069 C41.4139777,15.4927869 43.8894955,13.6738438 46.892773,12.9166014 C47.8825158,12.6589829 48.9349397,12.5262703 50.0183173,12.5262703 C56.1548776,12.5262703 61.13145,16.8199128 61.13145,22.1284163 C61.13145,22.2064825 61.13145,22.2845487 61.1221639,22.362615 C61.409259,22.4250679 61.6948064,22.4953275 61.9671984,22.589007 C64.6044491,23.416509 66.4547032,25.3361576 66.4547032,27.5540191 Z" id="Shape"></path>
                    <polygon id="Shape" points="29.6909587 51.4934316 30.668617 49.5432035 23.0842653 49.5432035 27.8456383 38.6219258 38.3214279 38.6219258 33.7608172 46.1654083 40.9221067 46.1654083 23.0842653 64.3649374"></polygon>
                </g>
            </g>
            <rect id="Rectangle-7-Copy" stroke="#FFFFFF" stroke-width="5" x="1422.5" y="314.5" width="309" height="152.140909"></rect>
            <path d="M1468,373.816 L1468,408.088 L1494.016,408.088 L1494.016,401.752 L1475.536,401.752 L1475.536,393.352 L1492.144,393.352 L1492.144,387.496 L1475.536,387.496 L1475.536,380.152 L1493.632,380.152 L1493.632,373.816 L1468,373.816 Z M1500.43733,373.816 L1500.43733,408.088 L1507.97333,408.088 L1507.97333,393.928 L1522.32533,393.928 L1522.32533,388.072 L1507.97333,388.072 L1507.97333,380.152 L1524.53333,380.152 L1524.53333,373.816 L1500.43733,373.816 Z M1530.23467,373.816 L1530.23467,408.088 L1537.77067,408.088 L1537.77067,393.928 L1552.12267,393.928 L1552.12267,388.072 L1537.77067,388.072 L1537.77067,380.152 L1554.33067,380.152 L1554.33067,373.816 L1530.23467,373.816 Z M1560.032,373.816 L1560.032,408.088 L1586.048,408.088 L1586.048,401.752 L1567.568,401.752 L1567.568,393.352 L1584.176,393.352 L1584.176,387.496 L1567.568,387.496 L1567.568,380.152 L1585.664,380.152 L1585.664,373.816 L1560.032,373.816 Z M1615.31733,385.336 L1622.61333,385.336 C1622.38933,383.35199 1621.84534,381.592008 1620.98133,380.056 C1620.11733,378.519992 1619.02134,377.232005 1617.69333,376.192 C1616.36533,375.151995 1614.86134,374.360003 1613.18133,373.816 C1611.50133,373.271997 1609.71734,373 1607.82933,373 C1605.20532,373 1602.84534,373.463995 1600.74933,374.392 C1598.65332,375.320005 1596.88534,376.599992 1595.44533,378.232 C1594.00533,379.864008 1592.90134,381.775989 1592.13333,383.968 C1591.36533,386.160011 1590.98133,388.535987 1590.98133,391.096 C1590.98133,393.592012 1591.36533,395.919989 1592.13333,398.08 C1592.90134,400.240011 1594.00533,402.119992 1595.44533,403.72 C1596.88534,405.320008 1598.65332,406.575995 1600.74933,407.488 C1602.84534,408.400005 1605.20532,408.856 1607.82933,408.856 C1609.94134,408.856 1611.87732,408.536003 1613.63733,407.896 C1615.39734,407.255997 1616.93333,406.328006 1618.24533,405.112 C1619.55734,403.895994 1620.61333,402.424009 1621.41333,400.696 C1622.21334,398.967991 1622.70933,397.032011 1622.90133,394.888 L1615.60533,394.888 C1615.31733,397.192012 1614.52534,399.047993 1613.22933,400.456 C1611.93333,401.864007 1610.13335,402.568 1607.82933,402.568 C1606.13333,402.568 1604.69334,402.240003 1603.50933,401.584 C1602.32533,400.927997 1601.36534,400.056005 1600.62933,398.968 C1599.89333,397.879995 1599.35734,396.656007 1599.02133,395.296 C1598.68533,393.935993 1598.51733,392.536007 1598.51733,391.096 C1598.51733,389.591992 1598.68533,388.136007 1599.02133,386.728 C1599.35734,385.319993 1599.89333,384.064006 1600.62933,382.96 C1601.36534,381.855994 1602.32533,380.976003 1603.50933,380.32 C1604.69334,379.663997 1606.13333,379.336 1607.82933,379.336 C1608.75734,379.336 1609.64533,379.487998 1610.49333,379.792 C1611.34134,380.096002 1612.10133,380.519997 1612.77333,381.064 C1613.44534,381.608003 1614.00533,382.239996 1614.45333,382.96 C1614.90134,383.680004 1615.18933,384.471996 1615.31733,385.336 Z M1636.95467,380.152 L1636.95467,408.088 L1644.49067,408.088 L1644.49067,380.152 L1654.76267,380.152 L1654.76267,373.816 L1626.68267,373.816 L1626.68267,380.152 L1636.95467,380.152 Z M1665.168,396.712 L1657.872,396.712 C1657.84,398.824011 1658.224,400.647992 1659.024,402.184 C1659.824,403.720008 1660.90399,404.983995 1662.264,405.976 C1663.62401,406.968005 1665.19199,407.695998 1666.968,408.16 C1668.74401,408.624002 1670.57599,408.856 1672.464,408.856 C1674.80001,408.856 1676.85599,408.584003 1678.632,408.04 C1680.40801,407.495997 1681.89599,406.736005 1683.096,405.76 C1684.29601,404.783995 1685.2,403.624007 1685.808,402.28 C1686.416,400.935993 1686.72,399.480008 1686.72,397.912 C1686.72,395.99199 1686.312,394.416006 1685.496,393.184 C1684.68,391.951994 1683.71201,390.968004 1682.592,390.232 C1681.47199,389.495996 1680.34401,388.960002 1679.208,388.624 C1678.07199,388.287998 1677.184,388.056001 1676.544,387.928 C1674.39999,387.383997 1672.66401,386.936002 1671.336,386.584 C1670.00799,386.231998 1668.968,385.880002 1668.216,385.528 C1667.464,385.175998 1666.96,384.792002 1666.704,384.376 C1666.448,383.959998 1666.32,383.416003 1666.32,382.744 C1666.32,382.007996 1666.48,381.400002 1666.8,380.92 C1667.12,380.439998 1667.528,380.040002 1668.024,379.72 C1668.52,379.399998 1669.072,379.176001 1669.68,379.048 C1670.288,378.919999 1670.896,378.856 1671.504,378.856 C1672.432,378.856 1673.288,378.935999 1674.072,379.096 C1674.856,379.256001 1675.552,379.527998 1676.16,379.912 C1676.768,380.296002 1677.256,380.823997 1677.624,381.496 C1677.992,382.168003 1678.208,383.015995 1678.272,384.04 L1685.568,384.04 C1685.568,382.05599 1685.192,380.368007 1684.44,378.976 C1683.688,377.583993 1682.67201,376.440004 1681.392,375.544 C1680.11199,374.647996 1678.64801,374.000002 1677,373.6 C1675.35199,373.199998 1673.63201,373 1671.84,373 C1670.30399,373 1668.76801,373.207998 1667.232,373.624 C1665.69599,374.040002 1664.32001,374.679996 1663.104,375.544 C1661.88799,376.408004 1660.904,377.487994 1660.152,378.784 C1659.4,380.080006 1659.024,381.607991 1659.024,383.368 C1659.024,384.936008 1659.32,386.271994 1659.912,387.376 C1660.504,388.480006 1661.28,389.399996 1662.24,390.136 C1663.20001,390.872004 1664.28799,391.471998 1665.504,391.936 C1666.72001,392.400002 1667.96799,392.791998 1669.248,393.112 C1670.49601,393.464002 1671.72799,393.783999 1672.944,394.072 C1674.16001,394.360001 1675.248,394.695998 1676.208,395.08 C1677.16801,395.464002 1677.944,395.943997 1678.536,396.52 C1679.128,397.096003 1679.424,397.847995 1679.424,398.776 C1679.424,399.640004 1679.2,400.351997 1678.752,400.912 C1678.304,401.472003 1677.744,401.911998 1677.072,402.232 C1676.4,402.552002 1675.68,402.767999 1674.912,402.88 C1674.144,402.992001 1673.424,403.048 1672.752,403.048 C1671.76,403.048 1670.8,402.928001 1669.872,402.688 C1668.944,402.447999 1668.136,402.080002 1667.448,401.584 C1666.76,401.087998 1666.208,400.440004 1665.792,399.64 C1665.376,398.839996 1665.168,397.864006 1665.168,396.712 Z" id="EFFECTS" fill="#FFFFFF"></path>
            <polygon id="Shape-Copy-3" fill="#FFFFFF" fill-rule="nonzero" transform="translate(1371.790105, 390.542264) scale(-1, 1) rotate(90.000000) translate(-1371.790105, -390.542264) " points="1371.79009 438.332369 1373.17169 437.128144 1388.14639 424.283073 1385.38321 421.049541 1373.92936 430.884012 1373.92936 342.752159 1369.65085 342.752159 1369.65085 430.884012 1358.197 421.049541 1355.43382 424.283073 1370.4085 437.128144"></polygon>
            <g id="Effect" transform="translate(1452.000000, 505.000000)">
                <g id="Fire-Deparment" transform="translate(107.000000, 0.000000)">
                    <circle id="Oval-Copy-2" fill="#FFFFFF" cx="53.5" cy="53.5" r="53.5"></circle>
                    <path d="M85.0843373,47.2961128 L82.4318696,47.2961128 L82.4318696,41.9779835 L85.0843373,41.9779835 L85.0843373,39.3192771 L50.5993976,39.3192771 L50.5993976,41.9779835 L53.2525801,41.9779835 L53.2525801,47.2961128 L50.5993976,47.2961128 L50.5993976,49.9548193 L85.0843373,49.9548193 L85.0843373,47.2961128 Z M58.5575156,47.2961128 L55.9050478,47.2961128 L55.9050478,41.9779835 L58.5575156,41.9779835 L58.5575156,47.2961128 Z M63.8624511,47.2961128 L61.2099833,47.2961128 L61.2099833,41.9779835 L63.8624511,41.9779835 L63.8624511,47.2961128 Z M69.1681013,47.2961128 L66.5156336,47.2961128 L66.5156336,41.9779835 L69.1681013,41.9779835 L69.1681013,47.2961128 Z M74.4737516,47.2961128 L71.8205691,47.2961128 L71.8205691,41.9779835 L74.4737516,41.9779835 L74.4737516,47.2961128 Z M79.7794019,47.2961128 L77.1262193,47.2961128 L77.1262193,41.9779835 L79.7794019,41.9779835 L79.7794019,47.2961128 Z" id="Shape" fill="#4D70B8" fill-rule="nonzero" transform="translate(67.841867, 44.637048) scale(-1, 1) translate(-67.841867, -44.637048) "></path>
                    <path d="M72.998494,60.2680723 C69.3489462,60.2680723 66.3915663,63.2268764 66.3915663,66.875 C66.3915663,70.5245478 69.3489462,73.4819277 72.998494,73.4819277 C76.6480418,73.4819277 79.6054217,70.5245478 79.6054217,66.875 C79.6054217,63.2275885 76.6480418,60.2680723 72.998494,60.2680723 M72.998494,69.8487584 C71.3592239,69.8487584 70.0247356,68.5156943 70.0247356,66.8757121 C70.0247356,65.2371542 71.3592239,63.9026658 72.998494,63.9026658 C74.637764,63.9026658 75.9715402,65.2371542 75.9715402,66.8757121 C75.9715402,68.5156943 74.637764,69.8487584 72.998494,69.8487584" id="Shape" fill="#4D70B8" fill-rule="nonzero" transform="translate(72.998494, 66.875000) scale(-1, 1) translate(-72.998494, -66.875000) "></path>
                    <path d="M33.0346386,60.2680723 C29.3850908,60.2680723 26.4277108,63.2268764 26.4277108,66.875 C26.4277108,70.5245478 29.3850908,73.4819277 33.0346386,73.4819277 C36.6841864,73.4819277 39.6415663,70.5245478 39.6415663,66.875 C39.6415663,63.2275885 36.6841864,60.2680723 33.0346386,60.2680723 M33.0346386,69.8487584 C31.3953685,69.8487584 30.0615923,68.5156943 30.0615923,66.8757121 C30.0615923,65.2371542 31.3953685,63.9026658 33.0346386,63.9026658 C34.6739086,63.9026658 36.0083969,65.2371542 36.0083969,66.8757121 C36.0083969,68.5156943 34.6739086,69.8487584 33.0346386,69.8487584" id="Shape" fill="#4D70B8" fill-rule="nonzero" transform="translate(33.034639, 66.875000) scale(-1, 1) translate(-33.034639, -66.875000) "></path>
                    <path d="M82.7621043,39.145187 L77.4723473,39.145187 L77.4723473,33.8403614 L72.1825903,33.8403614 L72.1825903,39.145187 L62.9256937,39.145187 C60.7358213,39.145187 58.9592668,40.927757 58.9592668,43.1241635 L58.9592668,57.7135059 L58.9592668,63.0190462 L56.314032,63.0190462 L56.314032,57.7135059 L56.314032,52.4086803 L21.932393,52.4086803 L21.932393,57.7135059 L25.8995326,57.7135059 C22.0435613,57.7142206 21.2710843,68.3253012 21.2710843,68.3253012 L24.6830952,68.3253012 C24.6210975,67.8900225 24.5776278,67.4497405 24.5776278,66.9987374 C24.5776278,61.8725978 28.7222091,57.7142206 33.8338118,57.7142206 C38.9454145,57.7142206 43.0899958,61.871883 43.0899958,66.9987374 C43.0899958,67.4497405 43.048664,67.8900225 42.9866663,68.3253012 L64.3537785,68.3253012 C64.2917808,67.8900225 64.2483111,67.4497405 64.2483111,66.9987374 C64.2483111,61.8725978 68.3928924,57.7142206 73.5044951,57.7142206 C78.6160978,57.7142206 82.7613917,61.871883 82.7613917,66.9987374 C82.7613917,67.4497405 82.7193473,67.8900225 82.6573496,68.3253012 L85.4066265,68.3253012 L85.4066265,57.7142206 L82.7621043,39.145187 Z M66.893546,47.1038548 L61.603789,47.1038548 L61.603789,41.7983145 L66.893546,41.7983145 L66.893546,47.1038548 Z M69.5380681,52.4093951 L69.5380681,41.7983145 L72.1825903,41.7983145 L77.4723473,41.7983145 L80.1168695,41.7983145 L81.4387743,52.4093951 L69.5380681,52.4093951 L69.5380681,52.4093951 Z" id="Shape" fill="#4D70B8" fill-rule="nonzero" transform="translate(53.338855, 51.082831) scale(-1, 1) translate(-53.338855, -51.082831) "></path>
                </g>
                <g id="Call-box" fill="#FFFFFF">
                    <rect id="Rectangle" opacity="0" x="0" y="0" width="107" height="107"></rect>
                    <path d="M40.4065351,73.7873748 L32.7971941,66.1645637 C20.1970726,53.5421038 17.0350011,43.8405737 28.4490048,32.4063416 C30.2830178,30.6165578 32.6010477,28.9429317 34.9712926,31.3173773 L42.037107,40.5736503 C43.6058711,43.4947725 42.4904391,44.6361059 40.9500616,46.0185253 C35.3195413,51.0716519 37.1879979,56.523642 40.9500539,60.1751988 L46.3852963,65.6200738 C50.0303932,69.3888049 55.472738,71.2605651 60.5169251,65.6200738 C61.8968988,64.0769587 63.0362207,62.9595422 65.9521675,64.5310942 L75.1920727,71.6094387 C77.5623099,73.9838766 75.8916293,76.3060146 74.105035,78.1432779 C62.6910313,89.5775101 53.0066489,86.4098347 40.4065351,73.7873748 Z M49.4549052,23.7255788 C49.4396418,22.9349974 50.1493055,22.1057429 51.0616584,22.1133858 C70.3933093,22.1133858 86.0973238,37.8719726 86.0973238,57.2707191 C86.1087485,58.0782678 85.3789392,58.8210811 84.5740317,58.8210811 C83.7692003,58.8210811 83.0393148,58.0782678 83.0507395,57.2707191 C83.0507395,39.524138 68.7468133,25.1705452 51.0616584,25.1705452 C50.264017,25.2144154 49.4985475,24.5260196 49.4549052,23.7255788 Z M49.4549052,32.8970571 C49.4396189,32.1599759 50.1103397,31.2925069 51.0616584,31.284864 C65.3455534,31.284864 76.9575711,42.9372272 76.9575711,57.2707191 C76.9689958,58.0782678 76.2391865,58.8210811 75.434279,58.8210811 C74.6294476,58.8210811 73.8995622,58.0782678 73.9109868,57.2707191 C73.9109868,44.5893925 63.6990574,34.3420235 51.0616584,34.3420235 C50.264017,34.3858937 49.4985475,33.6974978 49.4549052,32.8970571 Z" id="Combined-Shape" fill-rule="nonzero"></path>
                </g>
            </g>
            <g id="Sun-/-Fire-Switch" opacity="0.2" transform="translate(1077.000000, 515.000000)">
                <g id="Switch-Copy-2">
                    <path d="M126.886885,2.5 L37.1131145,2.5 C18.027513,2.5 2.5,17.9801878 2.5,37 C2.5,56.0198122 18.027513,71.5 37.1131145,71.5 L126.886885,71.5 C145.972487,71.5 161.5,56.0198122 161.5,37 C161.5,17.9801878 145.972487,2.5 126.886885,2.5 Z" id="Shape-Copy-2" stroke="#FFFFFF" stroke-width="5" fill-rule="nonzero"></path>
                    <path d="M127.210311,65.1266968 C111.535478,65.1266968 98.8296943,52.459638 98.8296943,36.8325792 C98.8296943,21.2055204 111.535478,8.53846154 127.210311,8.53846154 C142.885144,8.53846154 155.590928,21.2055204 155.590928,36.8325792 C155.590928,52.459638 142.885144,65.1266968 127.210311,65.1266968 Z" id="Path" fill="#FFFFFF"></path>
                </g>
                <g id="Sun-State" transform="translate(0.716157, 0.711538)">
                    <rect id="Background-Copy" fill="#000000" opacity="0" x="0" y="0" width="71.6157205" height="71.1538462"></rect>
                    <path d="M35.0624262,25.452044 C41.0623072,25.452044 45.9399083,30.2981878 45.9399083,36.2593735 C45.9399083,42.2205592 41.0623072,47.066703 35.0624262,47.066703 C29.0625452,47.066703 24.1849441,42.2205592 24.1849441,36.2593735 C24.1849441,30.2981878 29.0625452,25.452044 35.0624262,25.452044 Z M35.0624262,22.3642356 C34.2148302,22.3642356 33.5085002,21.7987358 33.5085002,21.0312718 L33.5085002,16.7496305 C33.5085002,16.0225593 34.2148302,15.4166667 35.0624262,15.4166667 C35.9100222,15.4166667 36.6163522,16.0225593 36.6163522,16.7496305 L36.6163522,21.0312718 C36.6163522,21.758343 35.9100222,22.3642356 35.0624262,22.3642356 Z M23.2724965,26.5571833 L19.954505,23.2664461 C19.3793864,22.6960516 19.3793864,21.8185217 19.954505,21.2481272 C20.5296235,20.6777328 21.4144212,20.6777328 21.9895397,21.2481272 L25.3075312,24.5388644 C25.8826498,25.1092589 25.8826498,25.9867888 25.3075312,26.5571833 C25.0420919,26.8643187 24.6439329,26.9959482 24.2900138,26.9959482 C23.9360947,26.9959482 23.5379358,26.8204422 23.2724965,26.5571833 Z M21.0770921,36.2593735 C21.0770921,37.1015031 20.5079215,37.8032777 19.7354757,37.8032777 L15.4260414,37.8032777 C14.6942507,37.8032777 14.084425,37.1015031 14.084425,36.2593735 C14.084425,35.4172439 14.6942507,34.7154693 15.4260414,34.7154693 L19.7354757,34.7154693 C20.4672665,34.7154693 21.0770921,35.4172439 21.0770921,36.2593735 Z M23.2724965,45.1786425 C23.847615,44.608248 24.7766526,44.608248 25.3075312,45.1786425 C25.8826498,45.7490369 25.8826498,46.6265668 25.3075312,47.1969613 L21.9895397,50.4876985 C21.7241004,50.794834 21.3259414,50.9264635 20.9720224,50.9264635 C20.6181033,50.9264635 20.2199443,50.7509575 19.954505,50.4876985 C19.3793864,49.9173041 19.3793864,49.0397741 19.954505,48.4693797 L23.2724965,45.1786425 Z M35.0624262,49.3825593 C35.9100222,49.3825593 36.6163522,49.9480591 36.6163522,50.7155231 L36.6163522,54.9971644 C36.6163522,55.7242356 35.9100222,56.3301282 35.0624262,56.3301282 C34.2148302,56.3301282 33.5085002,55.7242356 33.5085002,54.9971644 L33.5085002,50.7155231 C33.5085002,49.9884519 34.2148302,49.3825593 35.0624262,49.3825593 Z M46.0753929,45.1786425 L49.3933844,48.4693797 C49.9685029,49.0397741 49.9685029,49.9173041 49.3933844,50.4876985 C49.1279451,50.794834 48.7297861,50.9264635 48.375867,50.9264635 C48.0219479,50.9264635 47.6237889,50.7509575 47.3583496,50.4876985 L44.0403581,47.1969613 C43.4652396,46.6265668 43.4652396,45.7490369 44.0403581,45.1786425 C44.6154767,44.608248 45.5002744,44.608248 46.0753929,45.1786425 Z M53.921848,34.7154693 C54.6536387,34.7154693 55.2634643,35.4172439 55.2634643,36.2593735 C55.2634643,37.1015031 54.6536387,37.8032777 53.921848,37.8032777 L49.6124136,37.8032777 C48.8806229,37.8032777 48.2707973,37.1015031 48.2707973,36.2593735 C48.2707973,35.4172439 48.8806229,34.7154693 49.6124136,34.7154693 L53.921848,34.7154693 Z M45.0578755,26.9959482 C44.6597166,26.9959482 44.3057975,26.8643187 44.0403581,26.5571833 C43.4652396,25.9867888 43.4652396,25.1092589 44.0403581,24.5388644 L47.3583496,21.2481272 C47.9334682,20.6777328 48.8182659,20.6777328 49.3933844,21.2481272 C49.9685029,21.8185217 49.9685029,22.6960516 49.3933844,23.2664461 L46.0753929,26.5571833 C45.8099536,26.8643187 45.4117946,26.9959482 45.0578755,26.9959482 Z" id="Combined-Shape" fill="#FFFFFF" fill-rule="nonzero"></path>
                </g>
                <g id="Fire-State" transform="translate(113.152838, 13.519231)" fill-rule="nonzero" fill="#4D70B8">
                    <path d="M23.5953476,21.2959248 C21.7244687,17.2425812 22.3715893,13.8861165 22.3715893,13.8861165 C22.3715893,13.8861165 18.7074103,17.2805753 19.2769522,22.2630907 C19.468534,23.9396398 20.1596476,25.8422297 20.7783858,27.7236583 C20.141672,29.2179319 19.0181986,30.717015 17.1075842,30.3798776 C13.4812485,29.7397494 14.7400117,26.7925627 15.5025545,24.2445544 C16.2650974,21.6960651 14.3752968,19.6607364 14.3752968,19.6607364 C14.3752968,19.6607364 12.6718745,24.0829593 11.2191643,20.6389638 C9.766454,17.1949684 17.2636878,13.6355479 16.3876151,8.51596525 C15.5120154,3.39638259 12.0342147,0 12.0342147,0 C12.0342147,0 14.2825807,3.18236528 12.8289243,7.20348605 C11.3752679,11.2246068 8.54648012,10.8610179 5.91542361,15.7454219 C3.2843671,20.629826 7.18412076,25.0318495 5.32648701,26.0966458 C1.49816261,28.2916458 2.21907777,20.3460727 2.21907777,20.3460727 C2.21907777,20.3460727 -2.55532952,26.2308274 1.90214,35.4590615 C6.70871411,45.410626 17.9481788,43.0896203 18.5262355,42.9626527 C21.9344991,42.5389465 25.1705756,40.2261168 26.9085298,35.7870611 C30.2160356,27.3369843 25.4662265,25.3492684 23.5953476,21.2959248 Z" id="Shape-Copy-6"></path>
                </g>
            </g>
            <g id="Fire-Truck-Coming-Switch" opacity="0.2" transform="translate(1077.000000, 629.000000)">
                <g id="Switch" transform="translate(82.000000, 37.000000) scale(-1, 1) translate(-82.000000, -37.000000) ">
                    <path d="M126.886885,2.5 L37.1131145,2.5 C18.027513,2.5 2.5,17.9801878 2.5,37 C2.5,56.0198122 18.027513,71.5 37.1131145,71.5 L126.886885,71.5 C145.972487,71.5 161.5,56.0198122 161.5,37 C161.5,17.9801878 145.972487,2.5 126.886885,2.5 Z" id="Shape-Copy-2" stroke="#FFFFFF" stroke-width="5" fill-rule="nonzero"></path>
                    <path d="M126.886885,65.2941176 C111.212052,65.2941176 98.5062685,52.6270588 98.5062685,37 C98.5062685,21.3729412 111.212052,8.70588235 126.886885,8.70588235 C142.561719,8.70588235 155.267502,21.3729412 155.267502,37 C155.267502,52.6270588 142.561719,65.2941176 126.886885,65.2941176 Z" id="Path" fill="#FFFFFF"></path>
                </g>
                <g id="Fire-Department-Coming" transform="translate(95.965066, 4.980769)" fill="#FFFFFF">
                    <rect id="Rectangle-2" opacity="0" x="0" y="0" width="64.4541485" height="64.0384615"></rect>
                    <path d="M53.8475845,24.2850615 L51.0035059,24.2850615 L51.0035059,21.4528846 L48.1594272,21.4528846 L48.1594272,24.2850615 L43.1823852,24.2850615 C42.0049834,24.2850615 41.0498052,25.2367523 41.0498052,26.409385 L41.0498052,34.1984438 L41.0498052,37.0310022 L39.6275742,37.0310022 L39.6275742,34.1984438 L39.6275742,31.3662669 L21.1420206,31.3662669 L21.1420206,34.1984438 L23.2749838,34.1984438 C21.2017911,34.1988254 20.7864629,39.8639423 20.7864629,39.8639423 L22.6209569,39.8639423 C22.5876233,39.6315527 22.5642515,39.3964919 22.5642515,39.1557073 C22.5642515,36.4189284 24.7926176,34.1988254 27.5409103,34.1988254 C30.289203,34.1988254 32.5175691,36.4185469 32.5175691,39.1557073 C32.5175691,39.3964919 32.4953467,39.6315527 32.4620132,39.8639423 L43.950206,39.8639423 C43.9168725,39.6315527 43.8935007,39.3964919 43.8935007,39.1557073 C43.8935007,36.4189284 46.1218668,34.1988254 48.8701595,34.1988254 C51.6184521,34.1988254 53.8472014,36.4185469 53.8472014,39.1557073 C53.8472014,39.3964919 53.8245959,39.6315527 53.7912624,39.8639423 L55.2694323,39.8639423 L55.2694323,34.1988254 L53.8475845,24.2850615 Z M27.3930131,35.5413462 C25.434831,35.5413462 23.8480349,37.1186677 23.8480349,39.0634615 C23.8480349,41.0090146 25.434831,42.5855769 27.3930131,42.5855769 C29.3511952,42.5855769 30.9379913,41.0090146 30.9379913,39.0634615 C30.9379913,37.1190473 29.3511952,35.5413462 27.3930131,35.5413462 M27.3930131,40.6487551 C26.513455,40.6487551 25.797429,39.9381063 25.797429,39.0638412 C25.797429,38.1903353 26.513455,37.4789272 27.3930131,37.4789272 C28.2725712,37.4789272 28.9882151,38.1903353 28.9882151,39.0638412 C28.9882151,39.9381063 28.2725712,40.6487551 27.3930131,40.6487551 M48.9851528,35.5413462 C47.0269708,35.5413462 45.4401747,37.1186677 45.4401747,39.0634615 C45.4401747,41.0090146 47.0269708,42.5855769 48.9851528,42.5855769 C50.9433349,42.5855769 52.530131,41.0090146 52.530131,39.0634615 C52.530131,37.1190473 50.9433349,35.5413462 48.9851528,35.5413462 M48.9851528,40.6487551 C48.1055948,40.6487551 47.3899509,39.9381063 47.3899509,39.0638412 C47.3899509,38.1903353 48.1055948,37.4789272 48.9851528,37.4789272 C49.8647109,37.4789272 50.5807369,38.1903353 50.5807369,39.0638412 C50.5807369,39.9381063 49.8647109,40.6487551 48.9851528,40.6487551 M39.4781659,28.5372338 L38.0528558,28.5372338 L38.0528558,25.7353624 L39.4781659,25.7353624 L39.4781659,24.3346154 L20.9475983,24.3346154 L20.9475983,25.7353624 L22.3732924,25.7353624 L22.3732924,28.5372338 L20.9475983,28.5372338 L20.9475983,29.9379808 L39.4781659,29.9379808 L39.4781659,28.5372338 Z M25.2239126,28.5372338 L23.7986025,28.5372338 L23.7986025,25.7353624 L25.2239126,25.7353624 L25.2239126,28.5372338 Z M28.0745329,28.5372338 L26.6492228,28.5372338 L26.6492228,25.7353624 L28.0745329,25.7353624 L28.0745329,28.5372338 Z M30.9255371,28.5372338 L29.500227,28.5372338 L29.500227,25.7353624 L30.9255371,25.7353624 L30.9255371,28.5372338 Z M33.7765414,28.5372338 L32.3508473,28.5372338 L32.3508473,25.7353624 L33.7765414,25.7353624 L33.7765414,28.5372338 Z M36.6275457,28.5372338 L35.2018515,28.5372338 L35.2018515,25.7353624 L36.6275457,25.7353624 L36.6275457,28.5372338 Z M45.3157316,28.53409 L42.4716529,28.53409 L42.4716529,25.7015315 L45.3157316,25.7015315 L45.3157316,28.53409 Z M46.7375794,31.3666485 L46.7375794,25.7015315 L48.1594272,25.7015315 L51.0035059,25.7015315 L52.4253536,25.7015315 L53.1360859,31.3666485 L46.7375794,31.3666485 L46.7375794,31.3666485 Z M17.4415686,24.3747338 L17.4415686,25.7754808 L9.18471616,25.7754808 L9.18471616,24.3747338 L17.4415686,24.3747338 Z M17.4415686,27.5766569 L17.4415686,28.9774038 L11.0430621,28.9774038 L11.0430621,27.5766569 L17.4415686,27.5766569 Z M17.4415686,30.7785799 L17.4415686,32.1793269 L13.3131424,32.1793269 L13.3131424,30.7785799 L17.4415686,30.7785799 Z" id="Shape" fill-rule="nonzero" transform="translate(32.227074, 32.019231) scale(-1, 1) translate(-32.227074, -32.019231) "></path>
                </g>
                <g id="Fire-Department-Static" transform="translate(0.000000, 4.980769)">
                    <rect id="Rectangle-2" fill="#FFFFFF" opacity="0" x="0" y="0" width="64.4541485" height="64.0384615"></rect>
                    <path d="M52.9881959,24.2850615 L50.1441172,24.2850615 L50.1441172,21.4528846 L47.3000385,21.4528846 L47.3000385,24.2850615 L42.3229966,24.2850615 C41.1455948,24.2850615 40.1904165,25.2367523 40.1904165,26.409385 L40.1904165,34.1984438 L40.1904165,37.0310022 L38.7681856,37.0310022 L38.7681856,34.1984438 L38.7681856,31.3662669 L20.282632,31.3662669 L20.282632,34.1984438 L22.4155952,34.1984438 C20.3424024,34.1988254 19.9270742,39.8639423 19.9270742,39.8639423 L21.7615682,39.8639423 C21.7282347,39.6315527 21.7048629,39.3964919 21.7048629,39.1557073 C21.7048629,36.4189284 23.933229,34.1988254 26.6815217,34.1988254 C29.4298143,34.1988254 31.6581804,36.4185469 31.6581804,39.1557073 C31.6581804,39.3964919 31.6359581,39.6315527 31.6026245,39.8639423 L43.0908174,39.8639423 C43.0574838,39.6315527 43.0341121,39.3964919 43.0341121,39.1557073 C43.0341121,36.4189284 45.2624782,34.1988254 48.0107708,34.1988254 C50.7590635,34.1988254 52.9878128,36.4185469 52.9878128,39.1557073 C52.9878128,39.3964919 52.9652072,39.6315527 52.9318737,39.8639423 L54.4100437,39.8639423 L54.4100437,34.1988254 L52.9881959,24.2850615 Z M26.5336245,35.5413462 C24.5754424,35.5413462 22.9886463,37.1186677 22.9886463,39.0634615 C22.9886463,41.0090146 24.5754424,42.5855769 26.5336245,42.5855769 C28.4918065,42.5855769 30.0786026,41.0090146 30.0786026,39.0634615 C30.0786026,37.1190473 28.4918065,35.5413462 26.5336245,35.5413462 M26.5336245,40.6487551 C25.6540664,40.6487551 24.9380404,39.9381063 24.9380404,39.0638412 C24.9380404,38.1903353 25.6540664,37.4789272 26.5336245,37.4789272 C27.4131825,37.4789272 28.1288264,38.1903353 28.1288264,39.0638412 C28.1288264,39.9381063 27.4131825,40.6487551 26.5336245,40.6487551 M48.1257642,35.5413462 C46.1675821,35.5413462 44.580786,37.1186677 44.580786,39.0634615 C44.580786,41.0090146 46.1675821,42.5855769 48.1257642,42.5855769 C50.0839462,42.5855769 51.6707424,41.0090146 51.6707424,39.0634615 C51.6707424,37.1190473 50.0839462,35.5413462 48.1257642,35.5413462 M48.1257642,40.6487551 C47.2462061,40.6487551 46.5305622,39.9381063 46.5305622,39.0638412 C46.5305622,38.1903353 47.2462061,37.4789272 48.1257642,37.4789272 C49.0053223,37.4789272 49.7213482,38.1903353 49.7213482,39.0638412 C49.7213482,39.9381063 49.0053223,40.6487551 48.1257642,40.6487551 M38.6187773,28.5372338 L37.1934672,28.5372338 L37.1934672,25.7353624 L38.6187773,25.7353624 L38.6187773,24.3346154 L20.0882096,24.3346154 L20.0882096,25.7353624 L21.5139038,25.7353624 L21.5139038,28.5372338 L20.0882096,28.5372338 L20.0882096,29.9379808 L38.6187773,29.9379808 L38.6187773,28.5372338 Z M24.364524,28.5372338 L22.9392139,28.5372338 L22.9392139,25.7353624 L24.364524,25.7353624 L24.364524,28.5372338 Z M27.2151442,28.5372338 L25.7898341,28.5372338 L25.7898341,25.7353624 L27.2151442,25.7353624 L27.2151442,28.5372338 Z M30.0661485,28.5372338 L28.6408384,28.5372338 L28.6408384,25.7353624 L30.0661485,25.7353624 L30.0661485,28.5372338 Z M32.9171528,28.5372338 L31.4914586,28.5372338 L31.4914586,25.7353624 L32.9171528,25.7353624 L32.9171528,28.5372338 Z M35.7681571,28.5372338 L34.3424629,28.5372338 L34.3424629,25.7353624 L35.7681571,25.7353624 L35.7681571,28.5372338 Z M44.456343,28.53409 L41.6122643,28.53409 L41.6122643,25.7015315 L44.456343,25.7015315 L44.456343,28.53409 Z M45.8781907,31.3666485 L45.8781907,25.7015315 L47.3000385,25.7015315 L50.1441172,25.7015315 L51.565965,25.7015315 L52.2766973,31.3666485 L45.8781907,31.3666485 L45.8781907,31.3666485 Z" id="Shape" fill="#4D70B8" fill-rule="nonzero" transform="translate(37.168559, 32.019231) scale(-1, 1) translate(-37.168559, -32.019231) "></path>
                </g>
            </g>
            <g id="Rod-or-not-Rod-Switch" opacity="0.2" transform="translate(1077.000000, 745.000000)">
                <g id="Switch-Copy" transform="translate(82.000000, 37.000000) scale(-1, 1) translate(-82.000000, -37.000000) ">
                    <path d="M126.886885,2.5 L37.1131145,2.5 C18.027513,2.5 2.5,17.9801878 2.5,37 C2.5,56.0198122 18.027513,71.5 37.1131145,71.5 L126.886885,71.5 C145.972487,71.5 161.5,56.0198122 161.5,37 C161.5,17.9801878 145.972487,2.5 126.886885,2.5 Z" id="Shape-Copy-2" stroke="#FFFFFF" stroke-width="5" fill-rule="nonzero"></path>
                    <path d="M126.886885,65.2941176 C111.212052,65.2941176 98.5062685,52.6270588 98.5062685,37 C98.5062685,21.3729412 111.212052,8.70588235 126.886885,8.70588235 C142.561719,8.70588235 155.267502,21.3729412 155.267502,37 C155.267502,52.6270588 142.561719,65.2941176 126.886885,65.2941176 Z" id="Path" fill="#FFFFFF"></path>
                </g>
                <g id="Add-Ground-On-Action" transform="translate(95.248908, 3.557692)" fill="#FFFFFF">
                    <rect id="Rectangle-2" opacity="0" x="0" y="0" width="64.4541485" height="64.0384615"></rect>
                    <path d="M33.1272785,30.7878285 C33.1314833,30.7417742 33.1336317,30.6951301 33.1336317,30.6479873 L33.1336317,18.1782773 C33.1336317,17.334233 32.4449572,16.65 31.5954341,16.65 C30.745911,16.65 30.0572365,17.334233 30.0572365,18.1782773 L30.0572365,30.6479873 C30.0572365,30.6951301 30.0593849,30.7417742 30.0635897,30.7878285 L17.0071933,30.7878285 C16.1576702,30.7878285 15.4689956,31.4720615 15.4689956,32.3161058 C15.4689956,33.16015 16.1576702,33.844383 17.0071933,33.844383 L46.1980971,33.844383 C47.0476202,33.844383 47.7362947,33.16015 47.7362947,32.3161058 C47.7362947,31.4720615 47.0476202,30.7878285 46.1980971,30.7878285 L33.1272785,30.7878285 Z M20.8437519,38.7452113 C19.9942288,38.7452113 19.3055543,38.0609783 19.3055543,37.2169341 C19.3055543,36.3728898 19.9942288,35.6886568 20.8437519,35.6886568 L42.3647817,35.6886568 C43.2143048,35.6886568 43.9029794,36.3728898 43.9029794,37.2169341 C43.9029794,38.0609783 43.2143048,38.7452113 42.3647817,38.7452113 L20.8437519,38.7452113 Z M24.7598562,43.6302564 C23.9103331,43.6302564 23.2216585,42.9460233 23.2216585,42.1019791 C23.2216585,41.2579349 23.9103331,40.5737018 24.7598562,40.5737018 L38.4302183,40.5737018 C39.2797414,40.5737018 39.968416,41.2579349 39.968416,42.1019791 C39.968416,42.9460233 39.2797414,43.6302564 38.4302183,43.6302564 L24.7598562,43.6302564 Z M28.8076832,48.5211287 C27.9581601,48.5211287 27.2694856,47.8368957 27.2694856,46.9928514 C27.2694856,46.1488072 27.9581601,45.4645742 28.8076832,45.4645742 L34.3749741,45.4645742 C35.2244972,45.4645742 35.9131718,46.1488072 35.9131718,46.9928514 C35.9131718,47.8368957 35.2244972,48.5211287 34.3749741,48.5211287 L28.8076832,48.5211287 Z" id="Combined-Shape" fill-rule="nonzero"></path>
                </g>
                <g id="Ground-Off" transform="translate(3.580786, 3.557692)">
                    <rect id="Rectangle-2" x="0" y="0" width="64.4541485" height="64.0384615"></rect>
                    <path d="M39.4478584,33.9314212 L37.6018808,35.7773987 L43.2024627,35.7773987 C44.0520581,35.7773987 44.7407912,36.4622638 44.7407912,37.3070878 C44.7407912,38.1519117 44.0520581,38.8367769 43.2024627,38.8367769 L34.5425026,38.8367769 L32.7123229,40.6669566 L39.2675645,40.6669566 C40.1171599,40.6669566 40.805893,41.3518217 40.805893,42.1966457 C40.805893,43.0414696 40.1171599,43.7263347 39.2675645,43.7263347 L29.6529448,43.7263347 L25.7780281,47.6012514 C25.1772734,48.2020061 24.2059928,48.2047412 23.608612,47.6073604 C23.0112313,47.0099797 23.0139664,46.038699 23.614721,45.4379444 L44.2575634,24.795102 C44.858318,24.1943474 45.8295987,24.1916123 46.4269794,24.788993 C47.0243602,25.3863738 47.0216251,26.3576544 46.4208704,26.9584091 L42.5072365,30.872043 L47.0361042,30.872043 C47.8856996,30.872043 48.5744327,31.5569081 48.5744327,32.4017321 C48.5744327,33.246556 47.8856996,33.9314212 47.0361042,33.9314212 L39.4478584,33.9314212 Z M31.4481799,33.9314212 L17.8427166,33.9314212 C16.9931212,33.9314212 16.3043881,33.246556 16.3043881,32.4017321 C16.3043881,31.5569081 16.9931212,30.872043 17.8427166,30.872043 L30.900224,30.872043 C30.8960188,30.8259462 30.8938702,30.7792589 30.8938702,30.7320726 L30.8938702,18.2508429 C30.8938702,17.406019 31.5826034,16.7211538 32.4321987,16.7211538 C33.2817941,16.7211538 33.9705272,17.406019 33.9705272,18.2508429 L33.9705272,30.7320726 C33.9705272,30.7792589 33.9683787,30.8259462 33.9641735,30.872043 L34.507558,30.872043 L31.4481799,33.9314212 Z M29.6022023,35.7773987 L26.5428241,38.8367769 L21.6796017,38.8367769 C20.8300063,38.8367769 20.1412732,38.1519117 20.1412732,37.3070878 C20.1412732,36.4622638 20.8300063,35.7773987 21.6796017,35.7773987 L29.6022023,35.7773987 Z M29.6442106,48.6217253 C28.7946152,48.6217253 28.1058821,47.9368602 28.1058821,47.0920362 C28.1058821,46.2472123 28.7946152,45.5623471 29.6442106,45.5623471 L35.2119753,45.5623471 C36.0615706,45.5623471 36.7503038,46.2472123 36.7503038,47.0920362 C36.7503038,47.9368602 36.0615706,48.6217253 35.2119753,48.6217253 L29.6442106,48.6217253 Z" id="Combined-Shape" fill="#4D70B8" fill-rule="nonzero"></path>
                </g>
            </g>
            <polygon id="Shape" fill="#FFFFFF" fill-rule="nonzero" transform="translate(548.547894, 390.542264) scale(-1, 1) rotate(90.000000) translate(-548.547894, -390.542264) " points="548.547884 440.127322 549.929476 438.923097 564.904181 426.078027 562.140996 422.844494 550.687145 432.678966 550.687145 340.957206 546.408643 340.957206 546.408643 432.678966 534.954793 422.844494 532.191607 426.078027 547.166291 438.923097"></polygon>
        </g>
    </g>
</svg>