<?xml version="1.0" encoding="UTF-8"?>
<svg width="1920px" height="1080px" viewBox="0 0 1920 1080" version="1.1" xmlns="http://www.w3.org/2000/svg" xmlns:xlink="http://www.w3.org/1999/xlink">
    <!-- Generator: Sketch 46.2 (44496) - http://www.bohemiancoding.com/sketch -->
    <title>blueprintOverOriginalApproach</title>
    <desc>Created with Sketch.</desc>
    <defs>
        <rect id="path-1" x="0" y="0" width="702" height="538"></rect>
    </defs>
    <g id="Actual-Slides" stroke="none" stroke-width="1" fill="none" fill-rule="evenodd">
        <g id="blueprintOverOriginalApproach">
            <g id="Action" transform="translate(343.000000, 395.000000)">
                <rect id="Rectangle" fill="#FFFFFF" x="0" y="0" width="306" height="284"></rect>
                <g id="Group" transform="translate(58.000000, 52.000000)" fill-rule="nonzero" fill="#2E2E2E">
                    <path d="M130,32.197033 C120.800433,34.8563102 113.493601,40.3726619 109.952428,47.3175509 C107.617322,46.4604286 105.13476,45.9989011 102.537753,45.9989011 C89.8146204,45.9989011 79.5168281,57.1854471 79.5168281,70.9873152 C79.5168281,79.8002914 83.6984492,87.5363704 90.0369066,92 L26.7843841,92 C26.5642988,92 26.3442134,91.9538473 26.1241281,91.9538473 C11.6425137,91.7560498 0,79.5387592 0,64.4599986 C0,49.4933231 11.4004199,37.3617448 25.6619489,36.9002174 C29.5574592,15.8457753 46.7901402,0 67.4121352,0 C84.3587052,0 98.9943794,10.703041 105.839033,26.1971764 C107.575506,25.8675139 109.360398,25.7356489 111.187106,25.7356489 C118.225435,25.7356489 124.742162,28.1289984 130,32.197033 Z" id="Shape"></path>
                    <path d="M190,76.6145038 C190,85.0931298 180.442079,92 168.627426,92 C168.209267,92 167.811021,92 167.412774,91.9335878 C167.213651,92 166.965853,92 166.724692,92 L111.412649,92 C110.99449,92 110.569693,92 110.151534,91.9335878 C109.733375,91.9557252 109.286454,92 108.824045,92 L104.730954,92 C104.352619,92 104.000835,91.9535115 103.646838,91.9114504 C92.6286788,91.0923664 84,81.9938931 84,70.880916 C84,59.2587786 93.5136715,49.8061069 105.239825,49.8061069 C106.478814,49.8061069 107.695679,49.9167939 108.868295,50.1160305 C110.441369,50.3816794 111.945857,50.8244275 113.38397,51.4 C113.711417,50.6473282 114.114089,49.8946565 114.53446,49.1641221 C118.406303,42.4122137 125.484033,37.2541985 134.070674,35.1068702 C136.900438,34.3763359 139.909413,34 143.006888,34 C160.551868,34 174.780338,46.1755725 174.780338,61.2290076 C174.780338,61.4503817 174.780338,61.6717557 174.753788,61.8931298 C175.574619,62.070229 176.391025,62.2694656 177.169818,62.5351145 C184.709956,64.8816794 190,70.3252672 190,76.6145038 Z" id="Shape"></path>
                    <polygon id="Shape" points="84.8891332 144.5 87.6843467 138.969697 66 138.969697 79.6131953 108 109.564424 108 96.5252264 129.391212 117 129.391212 66 181"></polygon>
                </g>
            </g>
            <g id="Effect" transform="translate(914.000000, 268.000000)">
                <g id="Lines">
                    <mask id="mask-2" fill="white">
                        <use xlink:href="#path-1"></use>
                    </mask>
                    <use id="Mask" fill="#2E2E2E" xlink:href="#path-1"></use>
                    <g id="Group-2" mask="url(#mask-2)" fill="#FFDE10">
                        <g transform="translate(-516.000000, -83.000000)">
                            <rect id="Rectangle-3" transform="translate(846.534361, 426.534361) rotate(-45.000000) translate(-846.534361, -426.534361) " x="365.534361" y="375.034361" width="962" height="103"></rect>
                            <rect id="Rectangle-3-Copy" transform="translate(636.534361, 376.534361) rotate(-45.000000) translate(-636.534361, -376.534361) " x="155.534361" y="325.034361" width="962" height="103"></rect>
                            <rect id="Rectangle-3-Copy-2" transform="translate(376.534361, 376.534361) rotate(-45.000000) translate(-376.534361, -376.534361) " x="-104.465639" y="325.034361" width="962" height="103"></rect>
                            <rect id="Rectangle-3" transform="translate(1106.534361, 426.534361) rotate(-45.000000) translate(-1106.534361, -426.534361) " x="625.534361" y="375.034361" width="962" height="103"></rect>
                            <rect id="Rectangle-3-Copy" transform="translate(896.534361, 376.534361) rotate(-45.000000) translate(-896.534361, -376.534361) " x="415.534361" y="325.034361" width="962" height="103"></rect>
                            <rect id="Rectangle-3-Copy-2" transform="translate(636.534361, 376.534361) rotate(-45.000000) translate(-636.534361, -376.534361) " x="155.534361" y="325.034361" width="962" height="103"></rect>
                            <rect id="Rectangle-3" transform="translate(1366.534361, 426.534361) rotate(-45.000000) translate(-1366.534361, -426.534361) " x="885.534361" y="375.034361" width="962" height="103"></rect>
                            <rect id="Rectangle-3-Copy-3" transform="translate(1616.534361, 426.534361) rotate(-45.000000) translate(-1616.534361, -426.534361) " x="1135.53436" y="375.034361" width="962" height="103"></rect>
                            <rect id="Rectangle-3-Copy" transform="translate(1156.534361, 376.534361) rotate(-45.000000) translate(-1156.534361, -376.534361) " x="675.534361" y="325.034361" width="962" height="103"></rect>
                            <rect id="Rectangle-3-Copy-2" transform="translate(896.534361, 376.534361) rotate(-45.000000) translate(-896.534361, -376.534361) " x="415.534361" y="325.034361" width="962" height="103"></rect>
                        </g>
                    </g>
                </g>
                <g id="Fire-Deparment" transform="translate(252.000000, 103.000000)">
                    <circle id="Oval-Copy-2" fill="#494949" cx="166" cy="166" r="166"></circle>
                    <path d="M264,146.750556 L255.769913,146.750556 L255.769913,130.249444 L264,130.249444 L264,122 L157,122 L157,130.249444 L165.232305,130.249444 L165.232305,146.750556 L157,146.750556 L157,155 L264,155 L264,146.750556 Z M181.692478,146.750556 L173.462391,146.750556 L173.462391,130.249444 L181.692478,130.249444 L181.692478,146.750556 Z M198.152652,146.750556 L189.922565,146.750556 L189.922565,130.249444 L198.152652,130.249444 L198.152652,146.750556 Z M214.615043,146.750556 L206.384957,146.750556 L206.384957,130.249444 L214.615043,130.249444 L214.615043,146.750556 Z M231.077435,146.750556 L222.84513,146.750556 L222.84513,130.249444 L231.077435,130.249444 L231.077435,146.750556 Z M247.539826,146.750556 L239.307522,146.750556 L239.307522,130.249444 L247.539826,130.249444 L247.539826,146.750556 Z" id="Shape" fill="#FFFFFF" fill-rule="nonzero" transform="translate(210.500000, 138.500000) scale(-1, 1) translate(-210.500000, -138.500000) "></path>
                    <path d="M226.5,187 C215.176169,187 206,196.180588 206,207.5 C206,218.823831 215.176169,228 226.5,228 C237.823831,228 247,218.823831 247,207.5 C247,196.182798 237.823831,187 226.5,187 M226.5,216.726989 C221.413667,216.726989 217.273011,212.590752 217.273011,207.50221 C217.273011,202.418086 221.413667,198.27743 226.5,198.27743 C231.586333,198.27743 235.724779,202.418086 235.724779,207.50221 C235.724779,212.590752 231.586333,216.726989 226.5,216.726989" id="Shape" fill="#FFFFFF" fill-rule="nonzero" transform="translate(226.500000, 207.500000) scale(-1, 1) translate(-226.500000, -207.500000) "></path>
                    <path d="M102.5,187 C91.1761694,187 82,196.180588 82,207.5 C82,218.823831 91.1761694,228 102.5,228 C113.823831,228 123,218.823831 123,207.5 C123,196.182798 113.823831,187 102.5,187 M102.5,216.726989 C97.4136667,216.726989 93.275221,212.590752 93.275221,207.50221 C93.275221,202.418086 97.4136667,198.27743 102.5,198.27743 C107.586333,198.27743 111.726989,202.418086 111.726989,207.50221 C111.726989,212.590752 107.586333,216.726989 102.5,216.726989" id="Shape" fill="#FFFFFF" fill-rule="nonzero" transform="translate(102.500000, 207.500000) scale(-1, 1) translate(-102.500000, -207.500000) "></path>
                    <path d="M256.794567,121.459833 L240.381489,121.459833 L240.381489,105 L223.968411,105 L223.968411,121.459833 L195.246078,121.459833 C188.451333,121.459833 182.939033,126.990798 182.939033,133.805816 L182.939033,179.073682 L182.939033,195.535732 L174.731389,195.535732 L174.731389,179.073682 L174.731389,162.613849 L68.0519111,162.613849 L68.0519111,179.073682 L80.3611667,179.073682 C68.3968444,179.0759 66,212 66,212 L76.5868,212 C76.3944333,210.649416 76.2595556,209.283307 76.2595556,207.883933 C76.2595556,191.978528 89.1193778,179.0759 104.979678,179.0759 C120.839978,179.0759 133.6998,191.97631 133.6998,207.883933 C133.6998,209.283307 133.571556,210.649416 133.379189,212 L199.677144,212 C199.484778,210.649416 199.3499,209.283307 199.3499,207.883933 C199.3499,191.978528 212.209722,179.0759 228.070022,179.0759 C243.930322,179.0759 256.792356,191.97631 256.792356,207.883933 C256.792356,209.283307 256.6619,210.649416 256.469533,212 L265,212 L265,179.0759 L256.794567,121.459833 Z M207.557544,146.154017 L191.144467,146.154017 L191.144467,129.691967 L207.557544,129.691967 L207.557544,146.154017 Z M215.762978,162.616067 L215.762978,129.691967 L223.968411,129.691967 L240.381489,129.691967 L248.586922,129.691967 L252.688533,162.616067 L215.762978,162.616067 L215.762978,162.616067 Z" id="Shape" fill="#FFFFFF" fill-rule="nonzero" transform="translate(165.500000, 158.500000) scale(-1, 1) translate(-165.500000, -158.500000) "></path>
                </g>
            </g>
            <g id="Robot" transform="translate(80.000000, 699.000000)" fill-rule="nonzero" fill="#494949">
                <path d="M221.538673,99 L213.833624,111.741368 C216.564275,113.788352 218.195832,117.258086 218.195832,121.025677 C218.195832,127.138112 213.956062,132.112981 208.748177,132.112981 C203.528904,132.112981 199.283438,127.141281 199.283438,121.025677 C199.283438,117.258086 200.914995,113.788352 203.645647,111.738199 L195.93775,99 C189.39159,103.905157 185.482118,112.137456 185.482118,121.025677 C185.482118,132.87347 192.372812,142.927775 201.837551,146.280267 L201.837551,168.778081 C201.837551,172.87205 199.024326,176.20236 195.567589,176.20236 L156.803162,176.20236 C149.846977,161.987544 136.29338,152.284965 120.79786,152.284965 L114.758536,152.284965 C99.2658632,152.284965 85.7094185,161.987544 78.753234,176.20236 L36.4267164,176.20236 C32.9699796,176.20236 30.156754,172.87205 30.156754,168.778081 L30.156754,146.280267 C39.6214929,142.927775 46.5121873,132.87347 46.5121873,121.025677 C46.5121873,112.137456 42.6027148,103.905157 36.0565551,99 L28.3515059,111.741368 C31.0821571,113.785184 32.7137141,117.258086 32.7137141,121.025677 C32.7137141,127.138112 28.4682491,132.112981 23.2489752,132.112981 C18.0410908,132.112981 13.8013206,127.141281 13.8013206,121.025677 C13.8013206,117.258086 15.4328776,113.788352 18.1635288,111.741368 L10.4584796,99 C3.9094725,103.905157 0,112.140625 0,121.025677 C0,132.876639 6.89069442,142.934113 16.3554334,146.283435 L16.3554334,168.778081 C16.3554334,181.338833 25.3588944,191.557911 36.4267164,191.557911 L74.2401139,191.557911 C73.9781536,193.627076 73.7987678,195.721591 73.7987678,197.866805 L73.7987678,230.986123 L110.980044,230.986123 L110.980044,244 C113.124132,243.220498 115.404895,242.786385 117.779621,242.786385 C120.154348,242.786385 122.435111,243.220498 124.579199,244 L124.579199,230.986123 L161.760475,230.986123 L161.760475,197.866805 C161.760475,195.721591 161.578242,193.627076 161.319129,191.557911 L195.573284,191.557911 C206.638258,191.557911 215.644567,181.338833 215.644567,168.778081 L215.644567,146.283435 C225.109306,142.934113 232,132.879808 232,121.025677 C231.997153,112.140625 228.08768,103.905157 221.538673,99 Z M128.710769,194.698099 L108.508505,216.397399 C107.406564,217.579327 105.985714,218.168706 104.567712,218.168706 C103.081372,218.168706 101.597879,217.52229 100.484548,216.238964 C98.3091387,213.729349 98.3717813,209.730441 100.626918,207.306381 L110.718083,196.466237 L103.938437,196.466237 C101.703233,196.466237 99.675888,195.005463 98.7618744,192.73667 C97.8450134,190.467876 98.2123273,187.809331 99.6986671,185.952469 L116.962419,164.354567 C119.046712,161.746722 122.634429,161.515406 124.974987,163.834899 C127.318393,166.151224 127.526252,170.146962 125.44196,172.751639 L116.580868,183.835774 L124.769975,183.835774 C127.084906,183.835774 129.166352,185.401115 130.03196,187.78715 C130.897567,190.176355 130.373647,192.90778 128.710769,194.698099 Z" id="Shape"></path>
                <path d="M77.5604492,109 L156.439556,109 C157.827985,109 159,107.574359 159,105.88547 L159,94.1145299 C159,92.425641 157.827985,91 156.439556,91 L77.5604492,91 C76.1720196,91 75.000005,92.425641 75.000005,94.1145299 L75.000005,105.88547 C74.9971944,107.574359 76.1720196,109 77.5604492,109 Z" id="Shape"></path>
                <polygon id="Shape" points="121 0 118 0 115 0 115 12 121 12"></polygon>
                <polygon id="Shape" points="133 30 142 30 142 27 142 24 133 24"></polygon>
                <polygon id="Shape" points="102 24 93 24 93 27 93 30 102 30"></polygon>
                <rect id="Rectangle-path" transform="translate(133.000000, 12.000000) rotate(45.000000) translate(-133.000000, -12.000000) " x="130" y="6" width="6" height="12"></rect>
                <rect id="Rectangle-path" transform="translate(103.500000, 12.000000) rotate(45.000000) translate(-103.500000, -12.000000) " x="99" y="9" width="9" height="6"></rect>
                <path d="M174.646299,58.0931891 L131.28512,58.0931891 L131.28512,46.0425375 L122.355829,46.0425375 L122.355829,36.616179 C125.205423,35.0019671 127.181254,31.7000246 127.181254,27.8418982 C127.181254,22.4079174 123.297238,18 118.502818,18 C113.708397,18 109.824381,22.4047209 109.824381,27.8418982 C109.824381,31.7000246 111.800212,35.0051635 114.649806,36.616179 L114.649806,46.0425375 L105.717696,46.0425375 L105.717696,58.0931891 L62.3536996,58.0931891 C58.3090239,58.0931891 55,61.8458323 55,66.4327514 L55,139.660438 C55,144.247357 58.3090239,148 62.3536996,148 L174.646299,148 C178.690974,148 181.999998,144.247357 181.999998,139.660438 L181.999998,66.4359479 C182.002817,61.8458323 178.693793,58.0931891 174.646299,58.0931891 Z M170.897575,104.080649 C170.897575,112.113351 165.136378,118.646914 158.053263,118.646914 L78.9495536,118.646914 C71.8664386,118.646914 66.105242,112.113351 66.105242,104.080649 L66.105242,93.0752397 C66.105242,85.0425375 71.8664386,78.5089747 78.9495536,78.5089747 L158.053263,78.5089747 C165.136378,78.5089747 170.897575,85.0425375 170.897575,93.0752397 L170.897575,104.080649 Z" id="Shape"></path>
                <path d="M102,269 C102,278.939476 109.386008,287 118.5,287 C127.611187,287 135,278.942537 135,269 C135,259.057463 127.613992,251 118.5,251 C109.386008,251 102,259.060524 102,269 Z M123.341721,269 C123.341721,271.916355 121.173325,274.281877 118.5,274.281877 C115.823869,274.281877 113.658279,271.916355 113.658279,269 C113.658279,266.083645 115.826675,263.718123 118.5,263.718123 C121.173325,263.718123 123.341721,266.083645 123.341721,269 Z" id="Shape"></path>
            </g>
            <polyline id="Path-2" stroke="#FFFFFF" stroke-width="5" stroke-linejoin="bevel" points="650.621149 540.351457 775.541652 540.351457 775.541652 669.591431 914.245493 669.591431"></polyline>
            <path id="Path-2-decoration-1" d="M903.445493,672.591431 L914.245493,669.591431 L903.445493,666.591431" stroke="#FFFFFF" stroke-width="5" stroke-linejoin="bevel"></path>
            <g id="Call-box" transform="translate(914.000000, 600.000000)">
                <rect id="Rectangle" fill="#FFFFFF" x="0" y="0" width="152" height="148"></rect>
                <g id="noun_1142898" transform="translate(20.000000, 19.000000)" fill-rule="nonzero" fill="#2E2E2E">
                    <path d="M33.1966446,90.0937502 C55.2038912,112.101023 72.118547,117.623869 92.0541441,97.6882722 C95.1745939,94.4850016 98.0925897,90.4363512 93.9527545,86.2965161 L77.8144185,73.9554144 C72.7214518,71.2154117 70.7315223,73.1636286 68.3212725,75.8540516 C59.5111403,85.6882546 50.0055894,82.4248384 43.6390958,75.8540516 L34.1459498,66.3609058 C27.5751764,59.9944123 24.3117468,50.4888615 34.1459633,41.6787294 C36.8363729,39.2684796 38.7845764,37.2785636 36.0445871,32.1855836 L23.7034987,16.0472612 C19.56365,11.9074126 15.5149996,14.8253815 12.311729,17.9458716 C-7.62386813,37.8814684 -2.10102235,54.7960971 19.9062376,76.8033702 L33.1966446,90.0937502 Z" id="Shape"></path>
                    <path d="M49.0004472,2.81095178 C49.0766725,4.20652117 50.4136347,5.40674016 51.8067881,5.33025235 C82.695522,5.33025235 107.678632,30.3557577 107.678632,61.2969421 C107.658678,62.7049041 108.933489,64 110.3392,64 C111.745045,64 113.019723,62.7049041 112.999769,61.2969421 C112.999769,27.4752055 85.5712772,9.14157408e-05 51.8067881,9.14157408e-05 C50.2132806,-0.0132339866 48.9737883,1.43257217 49.0004472,2.81095178 Z M49.0004472,18.8014346 C49.0766725,20.197004 50.4136347,21.397223 51.8067881,21.3207351 C73.8791565,21.3207351 91.7152214,39.1870348 91.7152214,61.2969421 C91.6952671,62.7049041 92.9700785,64 94.3757898,64 C95.7816342,64 97.0563125,62.7049041 97.0363582,61.2969421 C97.0363582,36.3064826 76.7549117,15.9905742 51.8067881,15.9905742 C50.1452233,16.0038996 48.9737484,17.5163328 49.0004472,18.8014346 Z" id="Shape"></path>
                </g>
            </g>
            <rect id="Rectangle-7" fill="#4986FF" opacity="0.496150362" x="290" y="0" width="417" height="1080"></rect>
            <path d="M352.484,65.296 L352.484,91 L371.996,91 L371.996,86.248 L358.136,86.248 L358.136,79.948 L370.592,79.948 L370.592,75.556 L358.136,75.556 L358.136,70.048 L371.708,70.048 L371.708,65.296 L352.484,65.296 Z M388.764,91 L397.296,65.296 L391.464,65.296 L385.668,83.368 L385.596,83.368 L379.872,65.296 L374.076,65.296 L382.392,91 L388.764,91 Z M400.492,65.296 L400.492,91 L420.004,91 L420.004,86.248 L406.144,86.248 L406.144,79.948 L418.6,79.948 L418.6,75.556 L406.144,75.556 L406.144,70.048 L419.716,70.048 L419.716,65.296 L400.492,65.296 Z M424.82,65.296 L424.82,91 L430.112,91 L430.112,73.792 L430.184,73.792 L440.876,91 L446.528,91 L446.528,65.296 L441.236,65.296 L441.236,82.54 L441.164,82.54 L430.436,65.296 L424.82,65.296 Z M458.184,70.048 L458.184,91 L463.836,91 L463.836,70.048 L471.54,70.048 L471.54,65.296 L450.48,65.296 L450.48,70.048 L458.184,70.048 Z M479.344,82.468 L473.872,82.468 C473.848,84.0520079 474.135997,85.4199942 474.736,86.572 C475.336003,87.7240058 476.145995,88.6719963 477.166,89.416 C478.186005,90.1600037 479.361993,90.7059983 480.694,91.054 C482.026007,91.4020017 483.399993,91.576 484.816,91.576 C486.568009,91.576 488.109993,91.372002 489.442,90.964 C490.774007,90.555998 491.889996,89.9860037 492.79,89.254 C493.690004,88.5219963 494.367998,87.652005 494.824,86.644 C495.280002,85.635995 495.508,84.5440059 495.508,83.368 C495.508,81.9279928 495.202003,80.7460046 494.59,79.822 C493.977997,78.8979954 493.252004,78.1600028 492.412,77.608 C491.571996,77.0559972 490.726004,76.6540013 489.874,76.402 C489.021996,76.1499987 488.356002,75.9760005 487.876,75.88 C486.267992,75.471998 484.966005,75.1360013 483.97,74.872 C482.973995,74.6079987 482.194003,74.3440013 481.63,74.08 C481.065997,73.8159987 480.688001,73.5280016 480.496,73.216 C480.303999,72.9039984 480.208,72.4960025 480.208,71.992 C480.208,71.4399972 480.327999,70.9840018 480.568,70.624 C480.808001,70.2639982 481.113998,69.9640012 481.486,69.724 C481.858002,69.4839988 482.271998,69.3160005 482.728,69.22 C483.184002,69.1239995 483.639998,69.076 484.096,69.076 C484.792003,69.076 485.433997,69.1359994 486.022,69.256 C486.610003,69.3760006 487.131998,69.5799986 487.588,69.868 C488.044002,70.1560014 488.409999,70.5519975 488.686,71.056 C488.962001,71.5600025 489.124,72.1959962 489.172,72.964 L494.644,72.964 C494.644,71.4759926 494.362003,70.2100052 493.798,69.166 C493.233997,68.1219948 492.472005,67.2640034 491.512,66.592 C490.551995,65.9199966 489.454006,65.4340015 488.218,65.134 C486.981994,64.8339985 485.692007,64.684 484.348,64.684 C483.195994,64.684 482.044006,64.8399984 480.892,65.152 C479.739994,65.4640016 478.708005,65.9439968 477.796,66.592 C476.883995,67.2400032 476.146003,68.0499951 475.582,69.022 C475.017997,69.9940049 474.736,71.1399934 474.736,72.46 C474.736,73.6360059 474.957998,74.6379959 475.402,75.466 C475.846002,76.2940041 476.427996,76.9839972 477.148,77.536 C477.868004,78.0880028 478.683995,78.5379983 479.596,78.886 C480.508005,79.2340017 481.443995,79.5279988 482.404,79.768 C483.340005,80.0320013 484.263995,80.2719989 485.176,80.488 C486.088005,80.7040011 486.903996,80.9559986 487.624,81.244 C488.344004,81.5320014 488.925998,81.8919978 489.37,82.324 C489.814002,82.7560022 490.036,83.3199965 490.036,84.016 C490.036,84.6640032 489.868002,85.1979979 489.532,85.618 C489.195998,86.0380021 488.776003,86.3679988 488.272,86.608 C487.767997,86.8480012 487.228003,87.0099996 486.652,87.094 C486.075997,87.1780004 485.536003,87.22 485.032,87.22 C484.287996,87.22 483.568003,87.1300009 482.872,86.95 C482.175997,86.7699991 481.570003,86.4940019 481.054,86.122 C480.537997,85.7499981 480.124002,85.264003 479.812,84.664 C479.499998,84.063997 479.344,83.3320043 479.344,82.468 Z" id="EVENTS" fill="#FFFFFF"></path>
            <rect id="Rectangle-7-Copy" fill="#4986FF" opacity="0.496150362" x="860" y="0" width="816" height="1080"></rect>
            <path d="M922.484,65.296 L922.484,91 L941.996,91 L941.996,86.248 L928.136,86.248 L928.136,79.948 L940.592,79.948 L940.592,75.556 L928.136,75.556 L928.136,70.048 L941.708,70.048 L941.708,65.296 L922.484,65.296 Z M946.812,65.296 L946.812,91 L952.464,91 L952.464,80.38 L963.228,80.38 L963.228,75.988 L952.464,75.988 L952.464,70.048 L964.884,70.048 L964.884,65.296 L946.812,65.296 Z M969.16,65.296 L969.16,91 L974.812,91 L974.812,80.38 L985.576,80.38 L985.576,75.988 L974.812,75.988 L974.812,70.048 L987.232,70.048 L987.232,65.296 L969.16,65.296 Z M991.508,65.296 L991.508,91 L1011.02,91 L1011.02,86.248 L997.16,86.248 L997.16,79.948 L1009.616,79.948 L1009.616,75.556 L997.16,75.556 L997.16,70.048 L1010.732,70.048 L1010.732,65.296 L991.508,65.296 Z M1032.972,73.936 L1038.444,73.936 C1038.276,72.4479926 1037.868,71.1280058 1037.22,69.976 C1036.572,68.8239942 1035.75,67.8580039 1034.754,67.078 C1033.758,66.2979961 1032.63001,65.704002 1031.37,65.296 C1030.10999,64.887998 1028.77201,64.684 1027.356,64.684 C1025.38799,64.684 1023.61801,65.0319965 1022.046,65.728 C1020.47399,66.4240035 1019.14801,67.3839939 1018.068,68.608 C1016.98799,69.8320061 1016.16,71.2659918 1015.584,72.91 C1015.008,74.5540082 1014.72,76.3359904 1014.72,78.256 C1014.72,80.1280094 1015.008,81.8739919 1015.584,83.494 C1016.16,85.1140081 1016.98799,86.523994 1018.068,87.724 C1019.14801,88.924006 1020.47399,89.8659966 1022.046,90.55 C1023.61801,91.2340034 1025.38799,91.576 1027.356,91.576 C1028.94001,91.576 1030.39199,91.3360024 1031.712,90.856 C1033.03201,90.3759976 1034.184,89.6800046 1035.168,88.768 C1036.152,87.8559954 1036.944,86.7520065 1037.544,85.456 C1038.144,84.1599935 1038.516,82.708008 1038.66,81.1 L1033.188,81.1 C1032.972,82.8280086 1032.378,84.2199947 1031.406,85.276 C1030.434,86.3320053 1029.08401,86.86 1027.356,86.86 C1026.08399,86.86 1025.004,86.6140025 1024.116,86.122 C1023.228,85.6299975 1022.508,84.9760041 1021.956,84.16 C1021.404,83.3439959 1021.002,82.4260051 1020.75,81.406 C1020.498,80.3859949 1020.372,79.3360054 1020.372,78.256 C1020.372,77.1279944 1020.498,76.0360053 1020.75,74.98 C1021.002,73.9239947 1021.404,72.9820041 1021.956,72.154 C1022.508,71.3259959 1023.228,70.6660025 1024.116,70.174 C1025.004,69.6819975 1026.08399,69.436 1027.356,69.436 C1028.052,69.436 1028.718,69.5499989 1029.354,69.778 C1029.99,70.0060011 1030.56,70.323998 1031.064,70.732 C1031.568,71.140002 1031.988,71.6139973 1032.324,72.154 C1032.66,72.6940027 1032.876,73.2879968 1032.972,73.936 Z M1049.2,70.048 L1049.2,91 L1054.852,91 L1054.852,70.048 L1062.556,70.048 L1062.556,65.296 L1041.496,65.296 L1041.496,70.048 L1049.2,70.048 Z M1070.36,82.468 L1064.888,82.468 C1064.864,84.0520079 1065.152,85.4199942 1065.752,86.572 C1066.352,87.7240058 1067.16199,88.6719963 1068.182,89.416 C1069.20201,90.1600037 1070.37799,90.7059983 1071.71,91.054 C1073.04201,91.4020017 1074.41599,91.576 1075.832,91.576 C1077.58401,91.576 1079.12599,91.372002 1080.458,90.964 C1081.79001,90.555998 1082.906,89.9860037 1083.806,89.254 C1084.706,88.5219963 1085.384,87.652005 1085.84,86.644 C1086.296,85.635995 1086.524,84.5440059 1086.524,83.368 C1086.524,81.9279928 1086.218,80.7460046 1085.606,79.822 C1084.994,78.8979954 1084.268,78.1600028 1083.428,77.608 C1082.588,77.0559972 1081.742,76.6540013 1080.89,76.402 C1080.038,76.1499987 1079.372,75.9760005 1078.892,75.88 C1077.28399,75.471998 1075.982,75.1360013 1074.986,74.872 C1073.99,74.6079987 1073.21,74.3440013 1072.646,74.08 C1072.082,73.8159987 1071.704,73.5280016 1071.512,73.216 C1071.32,72.9039984 1071.224,72.4960025 1071.224,71.992 C1071.224,71.4399972 1071.344,70.9840018 1071.584,70.624 C1071.824,70.2639982 1072.13,69.9640012 1072.502,69.724 C1072.874,69.4839988 1073.288,69.3160005 1073.744,69.22 C1074.2,69.1239995 1074.656,69.076 1075.112,69.076 C1075.808,69.076 1076.45,69.1359994 1077.038,69.256 C1077.626,69.3760006 1078.148,69.5799986 1078.604,69.868 C1079.06,70.1560014 1079.426,70.5519975 1079.702,71.056 C1079.978,71.5600025 1080.14,72.1959962 1080.188,72.964 L1085.66,72.964 C1085.66,71.4759926 1085.378,70.2100052 1084.814,69.166 C1084.25,68.1219948 1083.488,67.2640034 1082.528,66.592 C1081.568,65.9199966 1080.47001,65.4340015 1079.234,65.134 C1077.99799,64.8339985 1076.70801,64.684 1075.364,64.684 C1074.21199,64.684 1073.06001,64.8399984 1071.908,65.152 C1070.75599,65.4640016 1069.724,65.9439968 1068.812,66.592 C1067.9,67.2400032 1067.162,68.0499951 1066.598,69.022 C1066.034,69.9940049 1065.752,71.1399934 1065.752,72.46 C1065.752,73.6360059 1065.974,74.6379959 1066.418,75.466 C1066.862,76.2940041 1067.444,76.9839972 1068.164,77.536 C1068.884,78.0880028 1069.7,78.5379983 1070.612,78.886 C1071.524,79.2340017 1072.46,79.5279988 1073.42,79.768 C1074.356,80.0320013 1075.28,80.2719989 1076.192,80.488 C1077.104,80.7040011 1077.92,80.9559986 1078.64,81.244 C1079.36,81.5320014 1079.942,81.8919978 1080.386,82.324 C1080.83,82.7560022 1081.052,83.3199965 1081.052,84.016 C1081.052,84.6640032 1080.884,85.1979979 1080.548,85.618 C1080.212,86.0380021 1079.792,86.3679988 1079.288,86.608 C1078.784,86.8480012 1078.244,87.0099996 1077.668,87.094 C1077.092,87.1780004 1076.552,87.22 1076.048,87.22 C1075.304,87.22 1074.584,87.1300009 1073.888,86.95 C1073.192,86.7699991 1072.586,86.4940019 1072.07,86.122 C1071.554,85.7499981 1071.14,85.264003 1070.828,84.664 C1070.516,84.063997 1070.36,83.3320043 1070.36,82.468 Z" id="EFFECTS" fill="#FFFFFF"></path>
        </g>
    </g>
</svg>