<?xml version="1.0" encoding="UTF-8"?>
<svg width="1920px" height="1080px" viewBox="0 0 1920 1080" version="1.1" xmlns="http://www.w3.org/2000/svg" xmlns:xlink="http://www.w3.org/1999/xlink">
    <!-- Generator: Sketch 46.2 (44496) - http://www.bohemiancoding.com/sketch -->
    <title>blueprintOnlyEvents</title>
    <desc>Created with Sketch.</desc>
    <defs></defs>
    <g id="Actual-Slides" stroke="none" stroke-width="1" fill="none" fill-rule="evenodd">
        <g id="blueprintOnlyEvents">
            <g id="Events-Block" transform="translate(163.000000, 220.000000)" stroke="#FFFFFF" stroke-width="5">
                <rect id="Rectangle-7" x="2.5" y="2.5" width="435" height="215"></rect>
            </g>
            <path d="M240.36,335.76 L253.68,335.76 L247.2,316.896 L247.056,316.896 L240.36,335.76 Z M241.44,304.224 L253.032,304.224 L272.256,355.632 L260.52,355.632 L256.632,344.184 L237.408,344.184 L233.376,355.632 L222,355.632 L241.44,304.224 Z M310.992,321.504 L321.936,321.504 C321.599998,318.527985 320.784006,315.888012 319.488,313.584 C318.191994,311.279988 316.54801,309.348008 314.556,307.788 C312.56399,306.227992 310.308013,305.040004 307.788,304.224 C305.267987,303.407996 302.592014,303 299.76,303 C295.82398,303 292.284016,303.695993 289.14,305.088 C285.995984,306.480007 283.344011,308.399988 281.184,310.848 C279.023989,313.296012 277.368006,316.163984 276.216,319.452 C275.063994,322.740016 274.488,326.303981 274.488,330.144 C274.488,333.888019 275.063994,337.379984 276.216,340.62 C277.368006,343.860016 279.023989,346.679988 281.184,349.08 C283.344011,351.480012 285.995984,353.363993 289.14,354.732 C292.284016,356.100007 295.82398,356.784 299.76,356.784 C302.928016,356.784 305.831987,356.304005 308.472,355.344 C311.112013,354.383995 313.41599,352.992009 315.384,351.168 C317.35201,349.343991 318.935994,347.136013 320.136,344.544 C321.336006,341.951987 322.079999,339.048016 322.368,335.832 L311.424,335.832 C310.991998,339.288017 309.80401,342.071989 307.86,344.184 C305.91599,346.296011 303.216017,347.352 299.76,347.352 C297.215987,347.352 295.056009,346.860005 293.28,345.876 C291.503991,344.891995 290.064006,343.584008 288.96,341.952 C287.855994,340.319992 287.052003,338.48401 286.548,336.444 C286.043997,334.40399 285.792,332.304011 285.792,330.144 C285.792,327.887989 286.043997,325.704011 286.548,323.592 C287.052003,321.479989 287.855994,319.596008 288.96,317.94 C290.064006,316.283992 291.503991,314.964005 293.28,313.98 C295.056009,312.995995 297.215987,312.504 299.76,312.504 C301.152007,312.504 302.483994,312.731998 303.756,313.188 C305.028006,313.644002 306.167995,314.279996 307.176,315.096 C308.184005,315.912004 309.023997,316.859995 309.696,317.94 C310.368003,319.020005 310.799999,320.207994 310.992,321.504 Z M341.448,313.728 L341.448,355.632 L352.752,355.632 L352.752,313.728 L368.16,313.728 L368.16,304.224 L326.04,304.224 L326.04,313.728 L341.448,313.728 Z M374.064,304.224 L374.064,355.632 L385.368,355.632 L385.368,304.224 L374.064,304.224 Z M404.376,330.144 C404.376,332.304011 404.627997,334.40399 405.132,336.444 C405.636003,338.48401 406.439994,340.319992 407.544,341.952 C408.648006,343.584008 410.087991,344.891995 411.864,345.876 C413.640009,346.860005 415.799987,347.352 418.344,347.352 C420.888013,347.352 423.047991,346.860005 424.824,345.876 C426.600009,344.891995 428.039994,343.584008 429.144,341.952 C430.248006,340.319992 431.051997,338.48401 431.556,336.444 C432.060003,334.40399 432.312,332.304011 432.312,330.144 C432.312,327.887989 432.060003,325.704011 431.556,323.592 C431.051997,321.479989 430.248006,319.596008 429.144,317.94 C428.039994,316.283992 426.600009,314.964005 424.824,313.98 C423.047991,312.995995 420.888013,312.504 418.344,312.504 C415.799987,312.504 413.640009,312.995995 411.864,313.98 C410.087991,314.964005 408.648006,316.283992 407.544,317.94 C406.439994,319.596008 405.636003,321.479989 405.132,323.592 C404.627997,325.704011 404.376,327.887989 404.376,330.144 Z M393.072,330.144 C393.072,326.303981 393.647994,322.740016 394.8,319.452 C395.952006,316.163984 397.607989,313.296012 399.768,310.848 C401.928011,308.399988 404.579984,306.480007 407.724,305.088 C410.868016,303.695993 414.40798,303 418.344,303 C422.32802,303 425.879984,303.695993 429,305.088 C432.120016,306.480007 434.759989,308.399988 436.92,310.848 C439.080011,313.296012 440.735994,316.163984 441.888,319.452 C443.040006,322.740016 443.616,326.303981 443.616,330.144 C443.616,333.888019 443.040006,337.379984 441.888,340.62 C440.735994,343.860016 439.080011,346.679988 436.92,349.08 C434.759989,351.480012 432.120016,353.363993 429,354.732 C425.879984,356.100007 422.32802,356.784 418.344,356.784 C414.40798,356.784 410.868016,356.100007 407.724,354.732 C404.579984,353.363993 401.928011,351.480012 399.768,349.08 C397.607989,346.679988 395.952006,343.860016 394.8,340.62 C393.647994,337.379984 393.072,333.888019 393.072,330.144 Z M451.32,304.224 L451.32,355.632 L461.904,355.632 L461.904,321.216 L462.048,321.216 L483.432,355.632 L494.736,355.632 L494.736,304.224 L484.152,304.224 L484.152,338.712 L484.008,338.712 L462.552,304.224 L451.32,304.224 Z M512.376,338.568 L501.432,338.568 C501.384,341.736016 501.959994,344.471988 503.16,346.776 C504.360006,349.080012 505.97999,350.975993 508.02,352.464 C510.06001,353.952007 512.411987,355.043997 515.076,355.74 C517.740013,356.436003 520.487986,356.784 523.32,356.784 C526.824018,356.784 529.907987,356.376004 532.572,355.56 C535.236013,354.743996 537.467991,353.604007 539.268,352.14 C541.068009,350.675993 542.423995,348.93601 543.336,346.92 C544.248005,344.90399 544.704,342.720012 544.704,340.368 C544.704,337.487986 544.092006,335.124009 542.868,333.276 C541.643994,331.427991 540.192008,329.952006 538.512,328.848 C536.831992,327.743994 535.140009,326.940003 533.436,326.436 C531.731991,325.931997 530.400005,325.584001 529.44,325.392 C526.223984,324.575996 523.62001,323.904003 521.628,323.376 C519.63599,322.847997 518.076006,322.320003 516.948,321.792 C515.819994,321.263997 515.064002,320.688003 514.68,320.064 C514.295998,319.439997 514.104,318.624005 514.104,317.616 C514.104,316.511994 514.343998,315.600004 514.824,314.88 C515.304002,314.159996 515.915996,313.560002 516.66,313.08 C517.404004,312.599998 518.231995,312.264001 519.144,312.072 C520.056005,311.879999 520.967995,311.784 521.88,311.784 C523.272007,311.784 524.555994,311.903999 525.732,312.144 C526.908006,312.384001 527.951995,312.791997 528.864,313.368 C529.776005,313.944003 530.507997,314.735995 531.06,315.744 C531.612003,316.752005 531.936,318.023992 532.032,319.56 L542.976,319.56 C542.976,316.583985 542.412006,314.05201 541.284,311.964 C540.155994,309.87599 538.63201,308.160007 536.712,306.816 C534.79199,305.471993 532.596012,304.500003 530.124,303.9 C527.651988,303.299997 525.072013,303 522.384,303 C520.079988,303 517.776012,303.311997 515.472,303.936 C513.167988,304.560003 511.104009,305.519994 509.28,306.816 C507.455991,308.112006 505.980006,309.73199 504.852,311.676 C503.723994,313.62001 503.16,315.911987 503.16,318.552 C503.16,320.904012 503.603996,322.907992 504.492,324.564 C505.380004,326.220008 506.543993,327.599994 507.984,328.704 C509.424007,329.808006 511.055991,330.707997 512.88,331.404 C514.704009,332.100003 516.57599,332.687998 518.496,333.168 C520.368009,333.696003 522.215991,334.175998 524.04,334.608 C525.864009,335.040002 527.495993,335.543997 528.936,336.12 C530.376007,336.696003 531.539996,337.415996 532.428,338.28 C533.316004,339.144004 533.76,340.271993 533.76,341.664 C533.76,342.960006 533.424003,344.027996 532.752,344.868 C532.079997,345.708004 531.240005,346.367998 530.232,346.848 C529.223995,347.328002 528.144006,347.651999 526.992,347.82 C525.839994,347.988001 524.760005,348.072 523.752,348.072 C522.263993,348.072 520.824007,347.892002 519.432,347.532 C518.039993,347.171998 516.828005,346.620004 515.796,345.876 C514.763995,345.131996 513.936003,344.160006 513.312,342.96 C512.687997,341.759994 512.376,340.296009 512.376,338.568 Z" id="ACTIONS" fill="#FFFFFF"></path>
        </g>
    </g>
</svg>