<?xml version="1.0" encoding="UTF-8"?>
<svg width="1920px" height="1080px" viewBox="0 0 1920 1080" version="1.1" xmlns="http://www.w3.org/2000/svg" xmlns:xlink="http://www.w3.org/1999/xlink">
    <!-- Generator: Sketch 46.2 (44496) - http://www.bohemiancoding.com/sketch -->
    <title>brokenGameConsole</title>
    <desc>Created with Sketch.</desc>
    <defs></defs>
    <g id="Actual-Slides" stroke="none" stroke-width="1" fill="none" fill-rule="evenodd">
        <g id="brokenGameConsole" fill-rule="nonzero" fill="#FFFFFF">
            <g id="Group" transform="translate(634.000000, 324.000000)">
                <path d="M377.54497,310.76963 L384.011978,295.503559 L343.338417,218.70328 L394.266009,158.249822 L327,75.307541 L346.722346,29.2088637 C376.998117,28.6548114 407.066846,22.0869647 438.416387,10.9729495 C507.702664,-13.6438069 566.996522,13.2033267 594.08341,81.518956 C626.125216,162.142964 644.953906,246.814693 651.725628,333.716799 C652.551448,343.712194 651.3953,354.120621 649.826243,364.198622 C645.449398,391.541395 636.943455,417.810282 608.287509,428.053497 C578.805744,438.627137 553.700824,426.814398 531.8166,406.162757 C517.034427,392.284854 499.60963,380.802541 486.148768,365.68554 C455.78777,331.704626 419.036655,315.389842 377.54497,310.76963 Z M499.279302,76.5625621 C487.387498,76.5625621 477.725407,86.2275303 477.725407,98.1228756 C477.725407,110.018221 487.387498,119.683189 499.279302,119.683189 C511.171107,119.683189 520.833198,110.018221 520.833198,98.1228756 C520.833198,86.2275303 511.171107,76.5625621 499.279302,76.5625621 Z M396.547326,236.323659 C397.538309,235.33238 398.116383,234.010675 398.116383,232.523757 C398.116383,229.549921 395.721506,227.15433 392.748555,227.15433 L360.459002,227.15433 C358.972527,227.15433 357.651215,227.732576 356.660232,228.723855 C355.669248,229.715134 355.091174,231.036839 355.091174,232.523757 C355.091174,235.497593 357.486051,237.893184 360.459002,237.893184 L392.748555,237.893184 C394.23503,237.893184 395.556342,237.314938 396.547326,236.323659 Z M457.988315,160.903865 C469.880119,160.903865 479.54221,151.238897 479.54221,139.343552 C479.54221,127.448206 469.880119,117.783238 457.988315,117.783238 C446.09651,117.783238 436.434419,127.448206 436.434419,139.343552 C436.434419,151.238897 446.09651,160.903865 457.988315,160.903865 Z M499.279302,202.124541 C511.171107,202.124541 520.750616,192.459573 520.833198,180.564228 C520.833198,168.668882 511.171107,159.003914 499.279302,159.003914 C487.387498,159.003914 477.725407,168.668882 477.725407,180.564228 C477.725407,192.459573 487.387498,202.124541 499.279302,202.124541 Z M540.487708,160.903865 C552.379512,160.903865 562.041603,151.238897 562.041603,139.343552 C562.041603,127.448206 552.379512,117.783238 540.487708,117.783238 C528.595903,117.783238 518.933812,127.448206 518.933812,139.343552 C518.933812,151.238897 528.595903,160.903865 540.487708,160.903865 Z" id="Combined-Shape"></path>
                <path d="M342.339061,312.16531 C333.381375,311.519361 324.214869,311.382623 314.855346,311.697886 C251.012952,309.547199 194.530626,325.263757 151.362582,377.128399 C135.153891,396.5673 116.464278,414.351827 92.5647285,425.270699 C51.8776065,443.799693 19.7083169,428.41401 6.80752214,385.565709 C-6.34136486,342.055659 2.259165,299.12464 10.0327208,256.85537 C20.1218039,201.681979 35.338126,147.501213 55.5162922,94.9748209 C87.933674,10.7671567 144.002513,-20.1696473 227.113402,13.1659998 C256.132197,24.8286761 283.775032,30.4154261 311.130346,30.9998493 L290.803724,78.5090588 L357,160.129051 L306.81075,219.703687 L348.312568,298.064765 L342.339061,312.16531 Z M197.673127,157.758335 C199.988654,177.693548 180.637462,197.132449 159.880414,197.71148 C138.875274,198.290511 122.418491,180.671422 122.666583,157.923772 C122.831978,137.244091 138.709879,121.610251 163.5191,121.279376 C182.126015,123.264626 195.109508,135.920591 197.673127,157.758335 Z M158.557256,230.302659 C196.846153,230.716252 230.503996,197.215168 230.752088,158.337366 C230.917483,122.933751 198.830891,90.1771348 162.609428,89.0190726 C122.335793,87.6955729 90.8280831,118.218783 90.4145961,159.081834 C90.001109,198.125074 120.351056,229.806346 158.557256,230.302659 Z M309.562713,238.409094 C310.555081,237.416469 311.133963,236.092969 311.133963,234.604032 C311.133963,231.626158 308.735739,229.227315 305.758632,229.227315 L273.423948,229.227315 C271.935395,229.227315 270.612236,229.806346 269.619867,230.798971 C268.627498,231.791596 268.048617,233.115095 268.048617,234.604032 C268.048617,237.581907 270.446841,239.98075 273.423948,239.98075 L305.758632,239.98075 C307.247185,239.98075 308.570344,239.401719 309.562713,238.409094 Z" id="Combined-Shape-Copy-2"></path>
            </g>
        </g>
    </g>
</svg>