<?xml version="1.0" encoding="UTF-8"?>
<svg width="1920px" height="1080px" viewBox="0 0 1920 1080" version="1.1" xmlns="http://www.w3.org/2000/svg" xmlns:xlink="http://www.w3.org/1999/xlink">
    <!-- Generator: Sketch 46.2 (44496) - http://www.bohemiancoding.com/sketch -->
    <title>brokenGameConsole</title>
    <desc>Created with Sketch.</desc>
    <defs></defs>
    <g id="Actual-Slides" stroke="none" stroke-width="1" fill="none" fill-rule="evenodd">
        <g id="brokenGameConsole" fill-rule="nonzero" fill="#FFFFFF">
            <g id="Group" transform="translate(732.000000, 388.000000)">
                <path d="M264.459241,218.85681 L268.996095,208.135058 L240.462028,154.196257 L276.189692,111.738247 L229,53.4857613 L242.835984,21.109481 C264.075602,20.7203559 285.169972,16.1075891 307.162881,8.30193196 C355.769869,-8.98704579 397.366791,9.86838296 416.369284,57.848197 C438.847844,114.4725 452.056894,173.939621 456.807518,234.973194 C457.386862,241.993215 456.57578,249.30332 455.475026,256.381358 C452.404501,275.584887 446.437254,294.034198 426.334006,301.22827 C405.651414,308.654408 388.039347,300.358019 372.686723,285.853843 C362.31646,276.107037 350.092294,268.042715 340.648982,257.425658 C319.349574,233.559993 293.567254,222.101703 264.459241,218.85681 Z M349.860557,54.3671948 C341.517999,54.3671948 334.73967,61.1551492 334.73967,69.5095545 C334.73967,77.8639599 341.517999,84.6519142 349.860557,84.6519142 C358.203115,84.6519142 364.981443,77.8639599 364.981443,69.5095545 C364.981443,61.1551492 358.203115,54.3671948 349.860557,54.3671948 Z M277.790124,166.5715 C278.485337,165.8753 278.890878,164.947032 278.890878,163.902732 C278.890878,161.81413 277.210779,160.131646 275.12514,160.131646 L252.472777,160.131646 C251.429957,160.131646 250.503006,160.537763 249.807793,161.233963 C249.11258,161.930164 248.707039,162.858431 248.707039,163.902732 C248.707039,165.991333 250.387138,167.673817 252.472777,167.673817 L275.12514,167.673817 C276.16796,167.673817 277.094911,167.2677 277.790124,166.5715 Z M320.893341,113.602249 C329.235899,113.602249 336.014228,106.814295 336.014228,98.4598897 C336.014228,90.1054844 329.235899,83.31753 320.893341,83.31753 C312.550783,83.31753 305.772454,90.1054844 305.772454,98.4598897 C305.772454,106.814295 312.550783,113.602249 320.893341,113.602249 Z M349.860557,142.552585 C358.203115,142.552585 364.923509,135.76463 364.981443,127.410225 C364.981443,119.05582 358.203115,112.267865 349.860557,112.267865 C341.517999,112.267865 334.73967,119.05582 334.73967,127.410225 C334.73967,135.76463 341.517999,142.552585 349.860557,142.552585 Z M378.769838,113.602249 C387.112396,113.602249 393.890725,106.814295 393.890725,98.4598897 C393.890725,90.1054844 387.112396,83.31753 378.769838,83.31753 C370.42728,83.31753 363.648951,90.1054844 363.648951,98.4598897 C363.648951,106.814295 370.42728,113.602249 378.769838,113.602249 Z" id="Combined-Shape"></path>
                <path d="M239.733236,219.164559 C233.460347,218.711053 227.041224,218.615052 220.486937,218.836391 C175.779378,217.32644 136.225928,228.360698 105.996206,264.773749 C94.6455818,278.421384 81.5576175,290.907518 64.8212385,298.573423 C36.3288561,311.582233 13.8013424,300.780275 4.76717236,270.697403 C-4.4407317,240.149931 1.58204832,210.008985 7.02571487,180.332639 C14.0908991,141.596586 24.7465868,103.557433 38.8769553,66.6797819 C61.5782031,7.55938944 100.842096,-14.1606762 159.042999,9.24356565 C179.364284,17.4316802 198.722011,21.3540174 217.878394,21.7643284 L203.644064,55.119524 L250,112.423168 L214.853466,154.24924 L243.916364,209.26487 L239.733236,219.164559 Z M138.42656,110.758739 C140.048077,124.754824 126.496822,138.402458 111.961074,138.808984 C97.2515924,139.215509 85.7272345,126.845525 85.9009685,110.874889 C86.0167912,96.3561282 97.1357697,85.3799453 114.509174,85.1476452 C127.539226,86.5414462 136.631308,95.4269275 138.42656,110.758739 Z M111.034493,161.69055 C137.847446,161.980925 161.417364,138.460533 161.591098,111.165264 C161.706921,86.309146 139.237318,63.3114295 113.872149,62.4983789 C85.6693231,61.5691782 63.6051002,82.9988686 63.3155435,111.687939 C63.0259867,139.099359 84.2794508,161.3421 111.034493,161.69055 Z M216.780611,167.381904 C217.475547,166.685004 217.880927,165.755803 217.880927,164.710452 C217.880927,162.619751 216.201498,160.935575 214.116689,160.935575 L191.473353,160.935575 C190.430949,160.935575 189.504367,161.3421 188.809431,162.039 C188.114495,162.735901 187.709115,163.665102 187.709115,164.710452 C187.709115,166.801154 189.388544,168.48533 191.473353,168.48533 L214.116689,168.48533 C215.159093,168.48533 216.085675,168.078805 216.780611,167.381904 Z" id="Combined-Shape-Copy-2"></path>
            </g>
        </g>
    </g>
</svg>