<?xml version="1.0" encoding="UTF-8"?>
<svg width="1920px" height="1080px" viewBox="0 0 1920 1080" version="1.1" xmlns="http://www.w3.org/2000/svg" xmlns:xlink="http://www.w3.org/1999/xlink">
    <!-- Generator: Sketch 46.2 (44496) - http://www.bohemiancoding.com/sketch -->
    <title>brokenGameConsole</title>
    <desc>Created with Sketch.</desc>
    <defs></defs>
    <g id="Actual-Slides" stroke="none" stroke-width="1" fill="none" fill-rule="evenodd">
        <g id="brokenGameConsole" fill-rule="nonzero" fill="#FFFFFF">
            <g id="Group" transform="translate(679.000000, 353.000000)">
                <path d="M325.701959,268.403564 L331.293433,255.23214 L296.126447,188.969574 L340.159226,136.810893 L282,65.2490644 L299.052243,25.4755545 C325.229141,24.9975233 351.227027,19.3308463 378.332322,9.74177734 C438.238303,-11.4973311 489.504685,11.6661261 512.924425,70.6082156 C540.628264,140.169859 556.907839,213.22384 562.762774,288.202169 C563.47679,296.826102 562.477167,305.806396 561.120536,314.501602 C557.336249,338.092692 549.981879,360.757244 525.205508,369.594993 C499.71512,378.717832 478.00902,368.525911 459.087584,350.707867 C446.306689,338.734141 431.240942,328.827309 419.602474,315.784501 C393.351887,286.466084 361.576308,272.389841 325.701959,268.403564 Z M430.955335,66.331885 C420.673498,66.331885 412.319506,74.6707296 412.319506,84.9339229 C412.319506,95.1971163 420.673498,103.535961 430.955335,103.535961 C441.237172,103.535961 449.591165,95.1971163 449.591165,84.9339229 C449.591165,74.6707296 441.237172,66.331885 430.955335,66.331885 Z M342.131688,204.172273 C342.988507,203.317007 343.488319,202.176652 343.488319,200.893753 C343.488319,198.327955 341.417671,196.261062 338.847212,196.261062 L310.929168,196.261062 C309.643939,196.261062 308.501512,196.759967 307.644693,197.615233 C306.787873,198.470499 306.288061,199.610854 306.288061,200.893753 C306.288061,203.459551 308.358709,205.526445 310.929168,205.526445 L338.847212,205.526445 C340.132441,205.526445 341.274868,205.027539 342.131688,204.172273 Z M395.254512,139.100777 C405.536349,139.100777 413.890342,130.761932 413.890342,120.498739 C413.890342,110.235545 405.536349,101.896701 395.254512,101.896701 C384.972675,101.896701 376.618683,110.235545 376.618683,120.498739 C376.618683,130.761932 384.972675,139.100777 395.254512,139.100777 Z M430.955335,174.665592 C441.237172,174.665592 449.519763,166.326748 449.591165,156.063554 C449.591165,145.800361 441.237172,137.461517 430.955335,137.461517 C420.673498,137.461517 412.319506,145.800361 412.319506,156.063554 C412.319506,166.326748 420.673498,174.665592 430.955335,174.665592 Z M466.584757,139.100777 C476.866594,139.100777 485.220586,130.761932 485.220586,120.498739 C485.220586,110.235545 476.866594,101.896701 466.584757,101.896701 C456.30292,101.896701 447.948927,110.235545 447.948927,120.498739 C447.948927,130.761932 456.30292,139.100777 466.584757,139.100777 Z" id="Combined-Shape"></path>
                <path d="M295.351347,269.630083 C287.623147,269.07215 279.714789,268.954044 271.639907,269.22635 C216.560194,267.368712 167.830344,280.943753 130.587325,325.741389 C116.603357,342.531571 100.478985,357.892802 79.8597658,367.323883 C44.7571507,383.328142 17.0032538,370.038891 5.87315635,333.029042 C-5.47098145,295.447613 1.94908353,258.366317 8.65568072,221.856601 C17.3599877,174.201063 30.487795,127.402895 47.896409,82.033679 C75.8643462,9.30003832 124.237462,-17.4213582 195.940975,11.3720183 C220.976797,21.445554 244.825518,26.2710609 268.426181,26.7758514 L250.889487,67.8115196 L308,138.310081 L264.69947,189.767157 L300.50496,257.45086 L295.351347,269.630083 Z M170.541521,136.262395 C172.539231,153.481263 155.844085,170.271446 137.936044,170.771579 C119.813962,171.271712 105.615953,156.053376 105.829993,136.405291 C105.972687,118.543395 119.671268,105.039801 141.075302,104.754011 C157.128327,106.468753 168.329771,117.400233 170.541521,136.262395 Z M136.794495,198.921927 C169.828054,199.279165 198.866193,170.342893 199.080233,136.762529 C199.222926,106.182963 171.540376,77.8897192 140.290487,76.889453 C105.544606,75.7462916 78.3614834,102.11045 78.0047495,137.405557 C77.6480156,171.128817 103.832283,198.493241 136.794495,198.921927 Z M267.073713,205.92379 C267.929874,205.066419 268.429302,203.923258 268.429302,202.637201 C268.429302,200.065088 266.360245,197.993108 263.791761,197.993108 L235.895171,197.993108 C234.610929,197.993108 233.46938,198.493241 232.613219,199.350612 C231.757057,200.207983 231.25763,201.351145 231.25763,202.637201 C231.25763,205.209314 233.326687,207.281294 235.895171,207.281294 L263.791761,207.281294 C265.076003,207.281294 266.217552,206.781161 267.073713,205.92379 Z" id="Combined-Shape-Copy-2"></path>
            </g>
        </g>
    </g>
</svg>