<?xml version="1.0" encoding="UTF-8"?>
<svg width="1920px" height="1080px" viewBox="0 0 1920 1080" version="1.1" xmlns="http://www.w3.org/2000/svg" xmlns:xlink="http://www.w3.org/1999/xlink">
    <!-- Generator: Sketch 46.2 (44496) - http://www.bohemiancoding.com/sketch -->
    <title>chapter2EffectsAreAFunctionOfState</title>
    <desc>Created with Sketch.</desc>
    <defs></defs>
    <g id="Actual-Slides" stroke="none" stroke-width="1" fill="none" fill-rule="evenodd">
        <g id="chapter2EffectsAreAFunctionOfState">
            <path d="M962,485.06 L959,485.06 C959.535897,485.06 960.051282,485.018 960.538462,485 C961.023077,485.06 961.515385,485.06 962,485.06 Z" id="Shape" fill="#FFFFFF" fill-rule="nonzero"></path>
            <path d="M618.281181,483.93183 C613.57664,490.681823 603.144832,497.431817 588.417573,497.431817 C564.076687,497.431817 549.758519,480.45456 549.758519,458.977308 C549.758519,435.659148 562.440325,418.477347 585.96303,418.477347 C607.644827,418.477347 620.326633,433.00006 620.326633,455.704584 L620.326633,465.318211 L572.872133,465.318211 C574.71304,474.420475 580.900535,479.022743 589.84939,479.022743 C596.599383,479.022743 600.485743,476.772746 604.985739,471.250024 L618.281181,483.93183 Z M585.758484,436.681875 C578.036901,436.681875 574.201677,442.102324 572.872133,450.590952 L598.440291,450.590952 C598.440291,444.045504 594.553931,436.681875 585.758484,436.681875 Z M673.661885,436.272784 L673.661885,419.909163 L658.730081,419.909163 L658.730081,417.04553 C658.730081,411.113717 662.820986,408.045538 669.775525,408.045538 C672.230068,408.045538 674.070975,408.250084 675.707337,408.659174 L675.707337,391.272827 C672.434613,390.454646 668.752798,389.84101 664.866438,389.84101 C647.275546,389.84101 636.025557,399.250092 636.025557,417.04553 L636.025557,419.909163 L624.980113,419.909163 L624.980113,436.272784 L636.025557,436.272784 L636.025557,496 L658.730081,496 L658.730081,436.272784 L673.661885,436.272784 Z M726.690294,436.272784 L726.690294,419.909163 L711.75849,419.909163 L711.75849,417.04553 C711.75849,411.113717 715.849395,408.045538 722.803934,408.045538 C725.258477,408.045538 727.099384,408.250084 728.735746,408.659174 L728.735746,391.272827 C725.463022,390.454646 721.781207,389.84101 717.894848,389.84101 C700.303955,389.84101 689.053966,399.250092 689.053966,417.04553 L689.053966,419.909163 L678.008522,419.909163 L678.008522,436.272784 L689.053966,436.272784 L689.053966,496 L711.75849,496 L711.75849,436.272784 L726.690294,436.272784 Z M799.457317,483.93183 C794.752776,490.681823 784.320968,497.431817 769.593709,497.431817 C745.252823,497.431817 730.934655,480.45456 730.934655,458.977308 C730.934655,435.659148 743.616461,418.477347 767.139166,418.477347 C788.820964,418.477347 801.50277,433.00006 801.50277,455.704584 L801.50277,465.318211 L754.04827,465.318211 C755.889177,474.420475 762.076671,479.022743 771.025526,479.022743 C777.77552,479.022743 781.66188,476.772746 786.161875,471.250024 L799.457317,483.93183 Z M766.934621,436.681875 C759.213037,436.681875 755.377814,442.102324 754.04827,450.590952 L779.616427,450.590952 C779.616427,444.045504 775.730067,436.681875 766.934621,436.681875 Z M879.997088,448.95459 C879.587997,432.181879 865.269829,418.477347 846.24712,418.477347 C822.724415,418.477347 809.428973,435.250058 809.428973,457.954582 C809.428973,480.863651 822.724415,497.431817 846.451665,497.431817 C864.451648,497.431817 879.587997,486.590918 879.997088,468.79548 L858.724381,468.79548 C858.31529,474.113657 854.42893,479.022743 846.042575,479.022743 C835.406221,479.022743 831.724407,470.022752 831.724407,457.954582 C831.724407,446.090957 835.406221,436.681875 845.83803,436.681875 C854.838021,436.681875 858.110745,443.022778 858.724381,448.95459 L879.997088,448.95459 Z M934.048248,495.386364 L934.048248,478.409108 C932.411886,478.613653 930.570979,478.818198 928.116436,478.818198 C922.389168,478.818198 920.343716,477.181836 920.343716,471.250024 L920.343716,436.272784 L933.025522,436.272784 L933.025522,419.909163 L920.343716,419.909163 L920.343716,400.886454 L897.639192,400.886454 L897.639192,419.909163 L887.616474,419.909163 L887.616474,436.272784 L897.639192,436.272784 L897.639192,474.113657 C897.639192,490.681823 906.434638,497.431817 920.957352,497.431817 C925.866438,497.431817 930.161888,496.818181 934.048248,495.386364 Z M942.89488,441.18187 C942.89488,453.454586 950.463055,459.795489 962.122134,463.681849 L965.803949,464.909121 C974.599395,467.772754 979.303936,469.613662 979.303936,473.500021 C979.303936,476.363655 975.622121,478.409108 970.91758,478.409108 C962.73577,478.409108 958.84941,472.886386 957.213048,470.636388 L940.235792,482.704558 C948.008511,493.750002 959.667591,497.431817 972.144852,497.431817 C986.667565,497.431817 1001.80391,489.454552 1001.80391,473.704567 C1001.80391,461.636396 994.440285,454.681858 980.122117,449.772771 L976.031212,448.340955 C969.894854,446.295502 966.008494,445.681866 966.008494,441.795506 C966.008494,439.545508 968.258492,437.500056 973.781214,437.500056 C980.531208,437.500056 984.213022,442.204597 985.440294,443.840959 L1002.41755,431.772789 C996.485738,422.977342 985.440294,418.681892 972.553943,418.681892 C954.96305,418.681892 942.89488,429.727336 942.89488,441.18187 Z M1104.58801,496 L1104.58801,486.181828 L1103.97438,486.181828 C1100.29256,491.70455 1092.51984,497.840907 1082.08804,497.840907 C1065.11078,497.840907 1053.86079,489.250006 1053.86079,475.340929 C1053.86079,453.454586 1071.45168,450.795498 1098.24711,450.181862 L1104.58801,449.977317 L1104.58801,448.5455 C1104.58801,431.159153 1095.99711,427.068248 1085.97439,427.068248 C1079.01986,427.068248 1070.6335,429.522791 1065.92896,439.954599 L1054.88352,435.659148 C1060.20169,421.34098 1074.72441,416.431894 1086.17894,416.431894 C1101.92893,416.431894 1116.65618,425.22734 1116.65618,447.522774 L1116.65618,496 L1104.58801,496 Z M1104.58801,460.20458 L1098.24711,460.409125 C1085.36076,461.022761 1065.92896,460.409125 1065.92896,473.704567 C1065.92896,481.886377 1071.65623,487.000009 1083.7244,487.000009 C1096.20166,487.000009 1104.58801,475.750019 1104.58801,468.79548 L1104.58801,460.20458 Z M1175.10507,416.636439 C1174.28688,416.431894 1172.03689,416.227349 1169.17325,416.227349 C1159.96872,416.227349 1150.76418,423.386433 1148.51418,430.954607 L1147.696,430.954607 L1147.696,417.45462 L1135.62783,417.45462 L1135.62783,496 L1147.696,496 L1147.696,451.000043 C1147.90055,440.77278 1155.67327,428.70461 1168.76416,428.70461 C1171.83234,428.70461 1173.87779,428.909155 1175.10507,429.1137 L1175.10507,416.636439 Z M1249.91754,479.840925 C1245.41755,490.272733 1235.19028,497.636362 1219.4403,497.636362 C1196.94032,497.636362 1183.44033,480.863651 1183.44033,456.72731 C1183.44033,433.204605 1197.14487,416.431894 1218.21303,416.431894 C1236.6221,416.431894 1252.16754,426.863702 1252.16754,456.72731 L1252.16754,461.840942 L1195.76419,461.840942 C1197.34941,476.823882 1205.99145,486.795463 1219.4403,486.795463 C1229.05393,486.795463 1235.59938,482.295468 1238.8721,474.931838 L1249.91754,479.840925 Z M1218.41757,427.272793 C1206.19599,427.272793 1197.50282,437.090965 1195.81532,451.409133 L1240.50846,451.409133 C1240.50846,435.863694 1232.12211,427.272793 1218.41757,427.272793 Z M1354.7471,496 L1354.7471,486.181828 L1354.13347,486.181828 C1350.45165,491.70455 1342.67893,497.840907 1332.24713,497.840907 C1315.26987,497.840907 1304.01988,489.250006 1304.01988,475.340929 C1304.01988,453.454586 1321.61077,450.795498 1348.4062,450.181862 L1354.7471,449.977317 L1354.7471,448.5455 C1354.7471,431.159153 1346.1562,427.068248 1336.13349,427.068248 C1329.17895,427.068248 1320.79259,429.522791 1316.08805,439.954599 L1305.04261,435.659148 C1310.36078,421.34098 1324.8835,416.431894 1336.33803,416.431894 C1352.08802,416.431894 1366.81527,425.22734 1366.81527,447.522774 L1366.81527,496 L1354.7471,496 Z M1354.7471,460.20458 L1348.4062,460.409125 C1335.51985,461.022761 1316.08805,460.409125 1316.08805,473.704567 C1316.08805,481.886377 1321.81532,487.000009 1333.88349,487.000009 C1346.36075,487.000009 1354.7471,475.750019 1354.7471,468.79548 L1354.7471,460.20458 Z M455.002798,598.70461 L455.207343,587.45462 L437.616451,587.45462 L437.616451,582.136444 C437.616451,572.931907 446.002806,570.886454 449.889166,570.886454 C453.570981,570.886454 453.775526,571.091 455.411888,571.295545 L455.411888,560.659191 C454.184617,560.250101 451.934619,559.84101 449.070985,559.84101 C436.184634,559.84101 425.54828,567.818275 425.54828,582.136444 L425.54828,587.45462 L412.866474,587.45462 L412.866474,598.70461 L425.54828,598.70461 L425.54828,666 L437.616451,666 L437.616451,598.70461 L455.002798,598.70461 Z M521.224374,634.909121 C521.224374,649.636379 509.974384,655.363647 500.974393,655.363647 C490.951675,655.363647 483.792591,648.818198 483.792591,637.363664 L483.792591,587.45462 L471.724421,587.45462 L471.724421,637.363664 C471.724421,657.409099 485.633499,667.022726 497.088033,667.022726 C508.951658,667.022726 516.519833,660.886369 520.406193,654.954556 L521.224374,654.954556 L521.224374,666 L533.292544,666 L533.292544,587.45462 L521.224374,587.45462 L521.224374,634.909121 Z M567.196,619.568226 C567.196,604.840967 578.44599,598.090974 587.445981,598.090974 C597.468699,598.090974 604.627783,605.454603 604.627783,616.909138 L604.627783,666 L616.695953,666 L616.695953,616.090957 C616.695953,596.045521 606.0596,586.431894 591.332341,586.431894 C579.468716,586.431894 571.695996,592.772797 568.014181,600.750062 L567.196,600.750062 L567.196,587.45462 L555.12783,587.45462 L555.12783,666 L567.196,666 L567.196,619.568226 Z M700.099362,610.977325 C698.053909,597.477338 686.80392,586.431894 668.394847,586.431894 C647.12214,586.431894 633.622152,603.204605 633.622152,626.72731 C633.622152,650.863651 647.326685,667.636362 668.394847,667.636362 C686.599375,667.636362 698.053909,657.000009 700.099362,643.090931 L688.031191,643.090931 C685.781194,651.681832 678.62211,656.795463 668.394847,656.795463 C655.30395,656.795463 645.690323,644.727293 645.690323,626.72731 C645.690323,609.545508 654.894859,597.272793 668.599392,597.272793 C679.440291,597.272793 685.985739,603.409151 688.031191,610.977325 L700.099362,610.977325 Z M753.588025,665.795455 L753.588025,654.750011 C751.542573,654.954556 750.928937,655.159101 748.883484,655.159101 C744.383489,655.159101 736.610769,654.954556 736.610769,643.500021 L736.610769,598.70461 L753.38348,598.70461 L753.38348,587.45462 L736.610769,587.45462 L736.610769,570.681909 L724.542598,570.681909 L724.542598,587.45462 L711.860792,587.45462 L711.860792,598.70461 L724.542598,598.70461 L724.542598,646.772746 C724.542598,660.477278 736.610769,666.613636 745.815305,666.613636 C750.724392,666.613636 751.542573,666.409091 753.588025,665.795455 Z M769.491468,567.818275 C769.491468,572.318271 772.764192,576.000086 778.082368,576.000086 C783.400545,576.000086 786.673269,572.318271 786.673269,567.818275 C786.673269,563.72737 783.400545,559.636465 778.082368,559.636465 C772.764192,559.636465 769.491468,563.72737 769.491468,567.818275 Z M784.014181,587.45462 L771.946011,587.45462 L771.946011,666 L784.014181,666 L784.014181,587.45462 Z M838.985755,667.636362 C817.099413,667.636362 803.803971,650.863651 803.803971,626.72731 C803.803971,603.409151 817.099413,586.431894 838.985755,586.431894 C861.281189,586.431894 874.985721,601.772789 874.985721,626.72731 C874.985721,651.886377 861.281189,667.636362 838.985755,667.636362 Z M838.985755,656.795463 C853.713014,656.795463 862.917551,645.545474 862.917551,626.72731 C862.917551,608.113692 853.713014,597.272793 838.985755,597.272793 C824.872132,597.272793 815.872141,609.750054 815.872141,626.72731 C815.872141,643.500021 824.053951,656.795463 838.985755,656.795463 Z M905.411909,619.568226 C905.411909,604.840967 916.661899,598.090974 925.66189,598.090974 C935.684608,598.090974 942.843692,605.454603 942.843692,616.909138 L942.843692,666 L954.911862,666 L954.911862,616.090957 C954.911862,596.045521 944.275509,586.431894 929.54825,586.431894 C917.684625,586.431894 909.911905,592.772797 906.23009,600.750062 L905.411909,600.750062 L905.411909,587.45462 L893.343739,587.45462 L893.343739,666 L905.411909,666 L905.411909,619.568226 Z M1046.65053,667.636362 C1024.76419,667.636362 1011.46874,650.863651 1011.46874,626.72731 C1011.46874,603.409151 1024.76419,586.431894 1046.65053,586.431894 C1068.94596,586.431894 1082.65049,601.772789 1082.65049,626.72731 C1082.65049,651.886377 1068.94596,667.636362 1046.65053,667.636362 Z M1046.65053,656.795463 C1061.37779,656.795463 1070.58232,645.545474 1070.58232,626.72731 C1070.58232,608.113692 1061.37779,597.272793 1046.65053,597.272793 C1032.53691,597.272793 1023.53691,609.750054 1023.53691,626.72731 C1023.53691,643.500021 1031.71872,656.795463 1046.65053,656.795463 Z M1134.96302,598.70461 L1135.16757,587.45462 L1117.57668,587.45462 L1117.57668,582.136444 C1117.57668,572.931907 1125.96303,570.886454 1129.84939,570.886454 C1133.53121,570.886454 1133.73575,571.091 1135.37212,571.295545 L1135.37212,560.659191 C1134.14484,560.250101 1131.89485,559.84101 1129.03121,559.84101 C1116.14486,559.84101 1105.50851,567.818275 1105.50851,582.136444 L1105.50851,587.45462 L1092.8267,587.45462 L1092.8267,598.70461 L1105.50851,598.70461 L1105.50851,666 L1117.57668,666 L1117.57668,598.70461 L1134.96302,598.70461 Z M1186.2017,611.18187 C1186.2017,623.454586 1193.76987,629.795489 1205.42895,633.681849 L1209.11077,634.909121 C1217.90621,637.772754 1222.61075,639.613662 1222.61075,643.500021 C1222.61075,646.363655 1218.92894,648.409108 1214.2244,648.409108 C1206.04259,648.409108 1202.15623,642.886386 1200.51987,640.636388 L1183.54261,652.704558 C1191.31533,663.750002 1202.97441,667.431817 1215.45167,667.431817 C1229.97438,667.431817 1245.11073,659.454552 1245.11073,643.704567 C1245.11073,631.636396 1237.7471,624.681858 1223.42894,619.772771 L1219.33803,618.340955 C1213.20167,616.295502 1209.31531,615.681866 1209.31531,611.795506 C1209.31531,609.545508 1211.56531,607.500056 1217.08803,607.500056 C1223.83803,607.500056 1227.51984,612.204597 1228.74711,613.840959 L1245.72437,601.772789 C1239.79256,592.977342 1228.74711,588.681892 1215.86076,588.681892 C1198.26987,588.681892 1186.2017,599.727336 1186.2017,611.18187 Z M1299.67325,665.386364 L1299.67325,648.409108 C1298.03689,648.613653 1296.19598,648.818198 1293.74144,648.818198 C1288.01417,648.818198 1285.96872,647.181836 1285.96872,641.250024 L1285.96872,606.272784 L1298.65052,606.272784 L1298.65052,589.909163 L1285.96872,589.909163 L1285.96872,570.886454 L1263.26419,570.886454 L1263.26419,589.909163 L1253.24147,589.909163 L1253.24147,606.272784 L1263.26419,606.272784 L1263.26419,644.113657 C1263.26419,660.681823 1272.05964,667.431817 1286.58235,667.431817 C1291.49144,667.431817 1295.78689,666.818181 1299.67325,665.386364 Z M1351.7812,666 L1351.7812,659.250006 L1351.16757,659.250006 C1348.09939,663.340912 1342.78121,667.431817 1332.96304,667.431817 C1318.84942,667.431817 1307.19034,658.022735 1307.19034,644.522748 C1307.19034,628.772763 1318.64487,619.568226 1342.57667,619.568226 L1350.55393,619.568226 L1350.55393,615.477321 C1350.55393,609.136418 1347.6903,605.045513 1340.73576,605.045513 C1335.00849,605.045513 1331.53122,607.704601 1331.53122,613.227323 L1308.8267,613.227323 C1308.8267,599.1137 1321.9176,588.477347 1341.96303,588.477347 C1359.96301,588.477347 1373.25846,597.477338 1373.25846,615.681866 L1373.25846,666 L1351.7812,666 Z M1350.55393,632.250032 L1342.78121,632.250032 C1333.37213,632.250032 1329.89486,637.568209 1329.89486,643.295476 C1329.89486,647.590927 1333.16758,650.45456 1338.28122,650.45456 C1344.41757,650.45456 1348.91757,647.386381 1350.55393,644.113657 L1350.55393,632.250032 Z M1429.66188,665.386364 L1429.66188,648.409108 C1428.02552,648.613653 1426.18462,648.818198 1423.73007,648.818198 C1418.0028,648.818198 1415.95735,647.181836 1415.95735,641.250024 L1415.95735,606.272784 L1428.63916,606.272784 L1428.63916,589.909163 L1415.95735,589.909163 L1415.95735,570.886454 L1393.25283,570.886454 L1393.25283,589.909163 L1383.23011,589.909163 L1383.23011,606.272784 L1393.25283,606.272784 L1393.25283,644.113657 C1393.25283,660.681823 1402.04827,667.431817 1416.57099,667.431817 C1421.48007,667.431817 1425.77552,666.818181 1429.66188,665.386364 Z M1504.5255,653.93183 C1499.82096,660.681823 1489.38915,667.431817 1474.66189,667.431817 C1450.32101,667.431817 1436.00284,650.45456 1436.00284,628.977308 C1436.00284,605.659148 1448.68464,588.477347 1472.20735,588.477347 C1493.88915,588.477347 1506.57095,603.00006 1506.57095,625.704584 L1506.57095,635.318211 L1459.11645,635.318211 C1460.95736,644.420475 1467.14485,649.022743 1476.09371,649.022743 C1482.8437,649.022743 1486.73006,646.772746 1491.23006,641.250024 L1504.5255,653.93183 Z M1472.0028,606.681875 C1464.28122,606.681875 1460.446,612.102324 1459.11645,620.590952 L1484.68461,620.590952 C1484.68461,614.045504 1480.79825,606.681875 1472.0028,606.681875 Z" id="effects-are-a-functi" fill="#494949"></path>
            <path d="M879.519863,945.596608 C879.042591,940.704567 874.93464,936.715934 868.713055,936.715934 C861.366471,936.715934 856.883521,942.306838 856.883521,950.045467 C856.883521,957.95455 861.417607,963.528409 868.747146,963.528409 C874.781231,963.528409 879.042591,959.948867 879.519863,954.869326 L874.423277,954.869326 C873.894868,957.340914 871.883507,959.028413 868.69601,959.028413 C864.62215,959.028413 862.099425,955.363644 862.099425,950.045467 C862.099425,944.948881 864.536923,941.181839 868.713055,941.181839 C872.122143,941.181839 873.911914,943.261382 874.423277,945.596608 L879.519863,945.596608 Z M890.173287,947.965923 C890.173287,943.534109 893.00283,941.369339 895.849418,941.369339 C898.866461,941.369339 900.843732,943.039792 900.843732,946.585243 L900.843732,963 L906.144863,963 L906.144863,946.602288 C906.144863,939.68184 901.985776,936.715934 897.86078,936.715934 C894.247147,936.715934 891.724422,938.454569 890.360787,940.397749 L890.08806,940.397749 L890.08806,928.090942 L884.906247,928.090942 L884.906247,963 L890.173287,963 L890.173287,947.965923 Z M927.161915,963 L927.161915,960.08523 L926.957369,960.08523 C925.815325,961.755683 923.497145,963.562499 920.105103,963.562499 C914.769881,963.562499 910.968748,960.613639 910.968748,956.01137 C910.968748,949.431831 916.11647,947.795469 924.724417,947.659106 L927.025551,947.607969 L927.025551,946.823879 C927.025551,942.323883 924.826689,940.960248 921.843738,940.960248 C919.678967,940.960248 917.446015,941.795475 916.423288,944.693199 L911.394884,943.772746 C912.536928,939.017068 917.207379,936.715934 922.031238,936.715934 C927.55396,936.715934 932.292591,939.664795 932.292591,946.619334 L932.292591,963 L927.161915,963 Z M927.025551,951.306829 L924.741462,951.357966 C920.855102,951.477284 916.235789,951.971601 916.235789,955.517053 C916.235789,957.801141 917.855105,959.232958 921.076693,959.232958 C924.485781,959.232958 926.838051,956.437506 927.025551,954.545463 L927.025551,951.306829 Z M949.985781,963.477272 C946.866466,963.477272 944.633513,962.21591 943.065333,960.204548 L943.065333,972.818172 L937.798293,972.818172 L937.798293,937.107979 L942.605106,937.107979 L942.911924,940.227294 C944.49715,938.062524 946.730102,936.715934 949.917599,936.715934 C956.139184,936.715934 960.025544,942.18752 960.025544,949.892058 C960.025544,957.750005 956.088048,963.477272 949.985781,963.477272 Z M954.707367,949.892058 C954.707367,945.340926 952.781233,941.369339 948.451692,941.369339 C944.599422,941.369339 942.894879,944.948881 942.673288,948.034105 C942.451697,949.261377 942.451697,951.34092 942.673288,952.431828 C942.980106,955.312507 944.821013,958.977277 948.656237,958.977277 C952.67896,958.977277 954.707367,954.886371 954.707367,949.892058 Z M977.565326,962.880682 L977.565326,958.51705 C976.934645,958.585231 976.576691,958.653413 975.843737,958.653413 C974.207375,958.653413 972.28124,958.414777 972.28124,955.244326 L972.28124,941.454566 L977.394872,941.454566 L977.394872,937.107979 L972.28124,937.107979 L972.28124,931.244348 L967.0142,931.244348 L967.0142,937.107979 L963.110794,937.107979 L963.110794,941.454566 L967.0142,941.454566 L967.0142,956.284097 C967.0142,961.176138 970.661924,963.306818 974.343738,963.306818 C975.9801,963.306818 976.661918,963.1875 977.565326,962.880682 Z M1003.20168,958.090914 C1001.68464,961.142047 998.258504,963.528409 993.127827,963.528409 C985.406244,963.528409 980.803975,957.903414 980.803975,950.164785 C980.803975,942.357974 985.252835,936.715934 992.565328,936.715934 C999.093731,936.715934 1003.93464,940.670476 1003.93464,949.789785 L1003.93464,952.022738 L986.173288,952.022738 C986.735788,956.352279 989.326695,959.028413 993.281236,959.028413 C996.161915,959.028413 998.036913,957.784096 999.264185,955.551143 L1003.20168,958.090914 Z M992.582373,941.181839 C989.036922,941.181839 986.769879,943.926155 986.190334,948.034105 L998.855095,948.034105 C998.855095,943.909109 996.588051,941.181839 992.582373,941.181839 Z M1022.56532,936.835252 C1022.27555,936.73298 1021.55964,936.698889 1020.84374,936.698889 C1018.09942,936.698889 1015.33806,938.914796 1014.58806,941.181839 L1014.33238,941.181839 L1014.33238,937.107979 L1009.06534,937.107979 L1009.06534,963 L1014.33238,963 L1014.33238,948.221605 C1014.38351,944.965926 1016.8551,941.982975 1020.63919,941.982975 C1021.45737,941.982975 1022.17328,942.017065 1022.56532,942.085247 L1022.56532,936.835252 Z M1062.62213,958.278414 L1048.59374,958.278414 C1047.74147,958.278414 1047.24715,958.278414 1046.56533,958.551141 L1046.37783,958.159096 C1047.05965,957.869323 1047.36647,957.579551 1047.89488,957.034097 L1054.49146,950.215921 C1058.49714,946.005698 1061.70168,941.931838 1061.70168,937.568206 C1061.70168,931.636394 1057.49146,927.61367 1050.72442,927.61367 C1043.30965,927.61367 1039.67897,933.204574 1039.67897,939.119341 L1045.03124,939.119341 C1045.03124,935.437526 1046.56533,932.045484 1050.6051,932.045484 C1054.21873,932.045484 1056.40055,934.619345 1056.40055,937.909115 C1056.40055,940.500021 1054.78123,942.852292 1050.91192,946.840925 L1038.98011,958.994322 L1038.98011,963 L1062.62213,963 L1062.62213,958.278414 Z" id="chapter-2" fill="#494949"></path>
        </g>
    </g>
</svg>