<?xml version="1.0" encoding="UTF-8"?>
<svg width="1920px" height="1080px" viewBox="0 0 1920 1080" version="1.1" xmlns="http://www.w3.org/2000/svg" xmlns:xlink="http://www.w3.org/1999/xlink">
    <!-- Generator: Sketch 46.2 (44496) - http://www.bohemiancoding.com/sketch -->
    <title>chapter3PracticalExamples</title>
    <desc>Created with Sketch.</desc>
    <defs></defs>
    <g id="Actual-Slides" stroke="none" stroke-width="1" fill="none" fill-rule="evenodd">
        <g id="chapter3PracticalExamples">
            <path d="M962,485.06 L959,485.06 C959.535897,485.06 960.051282,485.018 960.538462,485 C961.023077,485.06 961.515385,485.06 962,485.06 Z" id="Shape" fill="#FFFFFF" fill-rule="nonzero"></path>
            <path d="M404.687456,597.431817 C394.204512,597.431817 387.045427,593.187503 382.187478,586.488645 L382.187478,625.454517 L370.119307,625.454517 L370.119307,517.45462 L380.960206,517.45462 L381.982932,528.039838 C386.840882,520.983026 393.999966,516.431894 404.482911,516.431894 C422.687439,516.431894 435.1647,533.409151 435.1647,556.522765 C435.1647,580.04547 422.482894,597.431817 404.687456,597.431817 Z M422.687439,556.522765 C422.687439,541.795506 415.7329,528.090974 400.801096,528.090974 C388.528381,528.090974 382.596568,541.18187 381.573842,548.750045 C380.551115,553.659131 380.551115,561.431851 381.573842,565.931847 C383.005659,573.500021 389.551107,586.590918 401.619277,586.590918 C415.119264,586.590918 422.687439,572.68184 422.687439,556.522765 Z M492.999951,516.636439 C492.18177,516.431894 489.931773,516.227349 487.068139,516.227349 C477.863602,516.227349 468.659066,523.386433 466.409068,530.954607 L465.590887,530.954607 L465.590887,517.45462 L453.522716,517.45462 L453.522716,596 L465.590887,596 L465.590887,551.000043 C465.795432,540.77278 473.568152,528.70461 486.659048,528.70461 C489.727227,528.70461 491.77268,528.909155 492.999951,529.1137 L492.999951,516.636439 Z M554.1079,596 L554.1079,586.181828 L553.494264,586.181828 C549.812449,591.70455 542.03973,597.840907 531.607921,597.840907 C514.630665,597.840907 503.380676,589.250006 503.380676,575.340929 C503.380676,553.454586 520.971568,550.795498 547.766997,550.181862 L554.1079,549.977317 L554.1079,548.5455 C554.1079,531.159153 545.516999,527.068248 535.494281,527.068248 C528.539742,527.068248 520.153387,529.522791 515.448846,539.954599 L504.403402,535.659148 C509.721579,521.34098 524.244292,516.431894 535.698827,516.431894 C551.448812,516.431894 566.17607,525.22734 566.17607,547.522774 L566.17607,596 L554.1079,596 Z M554.1079,560.20458 L547.766997,560.409125 C534.880646,561.022761 515.448846,560.409125 515.448846,573.704567 C515.448846,581.886377 521.176113,587.000009 533.244283,587.000009 C545.721544,587.000009 554.1079,575.750019 554.1079,568.79548 L554.1079,560.20458 Z M646.715839,540.977325 C644.670386,527.477338 633.420397,516.431894 615.011324,516.431894 C593.738617,516.431894 580.23863,533.204605 580.23863,556.72731 C580.23863,580.863651 593.943162,597.636362 615.011324,597.636362 C633.215852,597.636362 644.670386,587.000009 646.715839,573.090931 L634.647669,573.090931 C632.397671,581.681832 625.238587,586.795463 615.011324,586.795463 C601.920427,586.795463 592.3068,574.727293 592.3068,556.72731 C592.3068,539.545508 601.511337,527.272793 615.215869,527.272793 C626.056768,527.272793 632.602216,533.409151 634.647669,540.977325 L646.715839,540.977325 Z M700.204503,595.795455 L700.204503,584.750011 C698.15905,584.954556 697.545414,585.159101 695.499962,585.159101 C690.999966,585.159101 683.227246,584.954556 683.227246,573.500021 L683.227246,528.70461 L699.999957,528.70461 L699.999957,517.45462 L683.227246,517.45462 L683.227246,500.681909 L671.159076,500.681909 L671.159076,517.45462 L658.47727,517.45462 L658.47727,528.70461 L671.159076,528.70461 L671.159076,576.772746 C671.159076,590.477278 683.227246,596.613636 692.431783,596.613636 C697.340869,596.613636 698.15905,596.409091 700.204503,595.795455 Z M716.107945,497.818275 C716.107945,502.318271 719.380669,506.000086 724.698846,506.000086 C730.017022,506.000086 733.289747,502.318271 733.289747,497.818275 C733.289747,493.72737 730.017022,489.636465 724.698846,489.636465 C719.380669,489.636465 716.107945,493.72737 716.107945,497.818275 Z M730.630658,517.45462 L718.562488,517.45462 L718.562488,596 L730.630658,596 L730.630658,517.45462 Z M816.897657,540.977325 C814.852205,527.477338 803.602215,516.431894 785.193142,516.431894 C763.920435,516.431894 750.420448,533.204605 750.420448,556.72731 C750.420448,580.863651 764.12498,597.636362 785.193142,597.636362 C803.39767,597.636362 814.852205,587.000009 816.897657,573.090931 L804.829487,573.090931 C802.579489,581.681832 795.420405,586.795463 785.193142,586.795463 C772.102245,586.795463 762.488618,574.727293 762.488618,556.72731 C762.488618,539.545508 771.693155,527.272793 785.397687,527.272793 C796.238586,527.272793 802.784034,533.409151 804.829487,540.977325 L816.897657,540.977325 Z M882.505627,596 L882.505627,586.181828 L881.891991,586.181828 C878.210177,591.70455 870.437457,597.840907 860.005649,597.840907 C843.028392,597.840907 831.778403,589.250006 831.778403,575.340929 C831.778403,553.454586 849.369295,550.795498 876.164724,550.181862 L882.505627,549.977317 L882.505627,548.5455 C882.505627,531.159153 873.914726,527.068248 863.892009,527.068248 C856.93747,527.068248 848.551114,529.522791 843.846573,539.954599 L832.801129,535.659148 C838.119306,521.34098 852.642019,516.431894 864.096554,516.431894 C879.846539,516.431894 894.573798,525.22734 894.573798,547.522774 L894.573798,596 L882.505627,596 Z M882.505627,560.20458 L876.164724,560.409125 C863.278373,561.022761 843.846573,560.409125 843.846573,573.704567 C843.846573,581.886377 849.57384,587.000009 861.642011,587.000009 C874.119272,587.000009 882.505627,575.750019 882.505627,568.79548 L882.505627,560.20458 Z M926.840885,491.272827 L914.772715,491.272827 L914.772715,596 L926.840885,596 L926.840885,491.272827 Z M1051.51129,583.93183 C1046.80675,590.681823 1036.37495,597.431817 1021.64769,597.431817 C997.306801,597.431817 982.988632,580.45456 982.988632,558.977308 C982.988632,535.659148 995.670439,518.477347 1019.19314,518.477347 C1040.87494,518.477347 1053.55675,533.00006 1053.55675,555.704584 L1053.55675,565.318211 L1006.10225,565.318211 C1007.94315,574.420475 1014.13065,579.022743 1023.0795,579.022743 C1029.8295,579.022743 1033.71586,576.772746 1038.21585,571.250024 L1051.51129,583.93183 Z M1018.9886,536.681875 C1011.26701,536.681875 1007.43179,542.102324 1006.10225,550.590952 L1031.6704,550.590952 C1031.6704,544.045504 1027.78404,536.681875 1018.9886,536.681875 Z M1082.19316,519.909163 L1058.26136,519.909163 L1078.71589,556.931855 L1057.23863,596 L1081.17043,596 L1093.44314,573.500021 L1105.92041,596 L1129.64766,596 L1108.1704,556.931855 L1128.82947,519.909163 L1105.10222,519.909163 L1093.44314,540.77278 L1082.19316,519.909163 Z M1180.88632,596 L1180.88632,589.250006 L1180.27268,589.250006 C1177.2045,593.340912 1171.88633,597.431817 1162.06815,597.431817 C1147.95453,597.431817 1136.29545,588.022735 1136.29545,574.522748 C1136.29545,558.772763 1147.74998,549.568226 1171.68178,549.568226 L1179.65905,549.568226 L1179.65905,545.477321 C1179.65905,539.136418 1176.79541,535.045513 1169.84087,535.045513 C1164.11361,535.045513 1160.63634,537.704601 1160.63634,543.227323 L1137.93181,543.227323 C1137.93181,529.1137 1151.02271,518.477347 1171.06814,518.477347 C1189.06813,518.477347 1202.36357,527.477338 1202.36357,545.681866 L1202.36357,596 L1180.88632,596 Z M1179.65905,562.250032 L1171.88633,562.250032 C1162.47724,562.250032 1158.99997,567.568209 1158.99997,573.295476 C1158.99997,577.590927 1162.2727,580.45456 1167.38633,580.45456 C1173.52269,580.45456 1178.02268,577.386381 1179.65905,574.113657 L1179.65905,562.250032 Z M1282.90334,548.5455 C1282.90334,540.159144 1287.60788,536.681875 1293.94878,536.681875 C1300.08514,536.681875 1304.17605,538.727327 1304.17605,548.136409 L1304.17605,596 L1326.88057,596 L1326.88057,548.136409 C1326.88057,526.045521 1317.0624,518.477347 1302.94878,518.477347 C1292.92606,518.477347 1285.15334,522.772797 1280.85789,529.1137 L1280.03971,529.1137 C1276.76698,522.159161 1269.81244,518.477347 1260.81245,518.477347 C1251.19882,518.477347 1244.85792,522.159161 1240.35793,527.681883 L1239.74429,527.681883 L1239.74429,519.909163 L1217.6534,519.909163 L1217.6534,596 L1240.35793,596 L1240.35793,547.727319 C1240.35793,539.545508 1244.85792,536.681875 1249.76701,536.681875 C1256.10791,536.681875 1261.017,538.522782 1261.017,548.136409 L1261.017,596 L1282.90334,596 L1282.90334,548.5455 Z M1378.98859,597.431817 C1371.42042,597.431817 1365.74429,594.465911 1361.3977,589.505688 L1361.3977,625.454517 L1338.69318,625.454517 L1338.69318,519.909163 L1359.76134,519.909163 L1360.57952,527.068248 C1364.92611,521.647798 1370.85792,518.477347 1378.78405,518.477347 C1398.21585,518.477347 1408.44311,533.818241 1408.44311,556.931855 C1408.44311,580.659106 1398.21585,597.431817 1378.98859,597.431817 Z M1385.94313,556.931855 C1385.94313,545.272776 1382.46586,536.681875 1373.05678,536.681875 C1362.82952,536.681875 1359.1477,543.022778 1359.1477,555.500039 L1359.1477,561.227306 C1359.1477,571.863659 1362.82952,579.022743 1373.26133,579.022743 C1382.67041,579.022743 1385.94313,569.818207 1385.94313,556.931855 Z M1443.77838,491.272827 L1421.07386,491.272827 L1421.07386,596 L1443.77838,596 L1443.77838,491.272827 Z M1524.7272,583.93183 C1520.02266,590.681823 1509.59085,597.431817 1494.8636,597.431817 C1470.52271,597.431817 1456.20454,580.45456 1456.20454,558.977308 C1456.20454,535.659148 1468.88635,518.477347 1492.40905,518.477347 C1514.09085,518.477347 1526.77266,533.00006 1526.77266,555.704584 L1526.77266,565.318211 L1479.31816,565.318211 C1481.15906,574.420475 1487.34656,579.022743 1496.29541,579.022743 C1503.04541,579.022743 1506.93177,576.772746 1511.43176,571.250024 L1524.7272,583.93183 Z M1492.20451,536.681875 C1484.48292,536.681875 1480.6477,542.102324 1479.31816,550.590952 L1504.88631,550.590952 C1504.88631,544.045504 1500.99995,536.681875 1492.20451,536.681875 Z M1537.35795,541.18187 C1537.35795,553.454586 1544.92612,559.795489 1556.5852,563.681849 L1560.26702,564.909121 C1569.06246,567.772754 1573.767,569.613662 1573.767,573.500021 C1573.767,576.363655 1570.08519,578.409108 1565.38065,578.409108 C1557.19884,578.409108 1553.31248,572.886386 1551.67612,570.636388 L1534.69886,582.704558 C1542.47158,593.750002 1554.13066,597.431817 1566.60792,597.431817 C1581.13063,597.431817 1596.26698,589.454552 1596.26698,573.704567 C1596.26698,561.636396 1588.90335,554.681858 1574.58519,549.772771 L1570.49428,548.340955 C1564.35792,546.295502 1560.47156,545.681866 1560.47156,541.795506 C1560.47156,539.545508 1562.72156,537.500056 1568.24428,537.500056 C1574.99428,537.500056 1578.67609,542.204597 1579.90336,543.840959 L1596.88062,531.772789 C1590.94881,522.977342 1579.90336,518.681892 1567.01701,518.681892 C1549.42612,518.681892 1537.35795,529.727336 1537.35795,541.18187 Z" id="practical-examples" fill="#494949"></path>
        </g>
    </g>
</svg>