<?xml version="1.0" encoding="UTF-8"?>
<svg width="1920px" height="1080px" viewBox="0 0 1920 1080" version="1.1" xmlns="http://www.w3.org/2000/svg" xmlns:xlink="http://www.w3.org/1999/xlink">
    <!-- Generator: Sketch 46.2 (44496) - http://www.bohemiancoding.com/sketch -->
    <title>chapter2EffectsFState</title>
    <desc>Created with Sketch.</desc>
    <defs></defs>
    <g id="Actual-Slides" stroke="none" stroke-width="1" fill="none" fill-rule="evenodd">
        <g id="chapter2EffectsFState">
            <path d="M962,485.06 L959,485.06 C959.535897,485.06 960.051282,485.018 960.538462,485 C961.023077,485.06 961.515385,485.06 962,485.06 Z" id="Shape" fill="#FFFFFF" fill-rule="nonzero"></path>
            <path d="M478.258453,583.93183 C473.553913,590.681823 463.122104,597.431817 448.394846,597.431817 C424.05396,597.431817 409.735792,580.45456 409.735792,558.977308 C409.735792,535.659148 422.417598,518.477347 445.940302,518.477347 C467.6221,518.477347 480.303906,533.00006 480.303906,555.704584 L480.303906,565.318211 L432.849406,565.318211 C434.690313,574.420475 440.877807,579.022743 449.826662,579.022743 C456.576656,579.022743 460.463016,576.772746 464.963012,571.250024 L478.258453,583.93183 Z M445.735757,536.681875 C438.014174,536.681875 434.17895,542.102324 432.849406,550.590952 L458.417563,550.590952 C458.417563,544.045504 454.531203,536.681875 445.735757,536.681875 Z M533.639157,536.272784 L533.639157,519.909163 L518.707353,519.909163 L518.707353,517.04553 C518.707353,511.113717 522.798259,508.045538 529.752797,508.045538 C532.207341,508.045538 534.048248,508.250084 535.68461,508.659174 L535.68461,491.272827 C532.411886,490.454646 528.730071,489.84101 524.843711,489.84101 C507.252819,489.84101 496.00283,499.250092 496.00283,517.04553 L496.00283,519.909163 L484.957386,519.909163 L484.957386,536.272784 L496.00283,536.272784 L496.00283,596 L518.707353,596 L518.707353,536.272784 L533.639157,536.272784 Z M586.667566,536.272784 L586.667566,519.909163 L571.735762,519.909163 L571.735762,517.04553 C571.735762,511.113717 575.826668,508.045538 582.781206,508.045538 C585.23575,508.045538 587.076657,508.250084 588.713019,508.659174 L588.713019,491.272827 C585.440295,490.454646 581.75848,489.84101 577.87212,489.84101 C560.281228,489.84101 549.031239,499.250092 549.031239,517.04553 L549.031239,519.909163 L537.985795,519.909163 L537.985795,536.272784 L549.031239,536.272784 L549.031239,596 L571.735762,596 L571.735762,536.272784 L586.667566,536.272784 Z M659.43459,583.93183 C654.730049,590.681823 644.298241,597.431817 629.570982,597.431817 C605.230096,597.431817 590.911928,580.45456 590.911928,558.977308 C590.911928,535.659148 603.593734,518.477347 627.116439,518.477347 C648.798236,518.477347 661.480042,533.00006 661.480042,555.704584 L661.480042,565.318211 L614.025542,565.318211 C615.86645,574.420475 622.053944,579.022743 631.002799,579.022743 C637.752792,579.022743 641.639152,576.772746 646.139148,571.250024 L659.43459,583.93183 Z M626.911894,536.681875 C619.19031,536.681875 615.355086,542.102324 614.025542,550.590952 L639.5937,550.590952 C639.5937,544.045504 635.70734,536.681875 626.911894,536.681875 Z M739.974361,548.95459 C739.56527,532.181879 725.247102,518.477347 706.224393,518.477347 C682.701688,518.477347 669.406246,535.250058 669.406246,557.954582 C669.406246,580.863651 682.701688,597.431817 706.428938,597.431817 C724.428921,597.431817 739.56527,586.590918 739.974361,568.79548 L718.701654,568.79548 C718.292563,574.113657 714.406203,579.022743 706.019848,579.022743 C695.383494,579.022743 691.701679,570.022752 691.701679,557.954582 C691.701679,546.090957 695.383494,536.681875 705.815302,536.681875 C714.815294,536.681875 718.088018,543.022778 718.701654,548.95459 L739.974361,548.95459 Z M794.025521,595.386364 L794.025521,578.409108 C792.389159,578.613653 790.548252,578.818198 788.093708,578.818198 C782.366441,578.818198 780.320989,577.181836 780.320989,571.250024 L780.320989,536.272784 L793.002795,536.272784 L793.002795,519.909163 L780.320989,519.909163 L780.320989,500.886454 L757.616465,500.886454 L757.616465,519.909163 L747.593747,519.909163 L747.593747,536.272784 L757.616465,536.272784 L757.616465,574.113657 C757.616465,590.681823 766.411911,597.431817 780.934624,597.431817 C785.843711,597.431817 790.139161,596.818181 794.025521,595.386364 Z M802.872153,541.18187 C802.872153,553.454586 810.440327,559.795489 822.099407,563.681849 L825.781222,564.909121 C834.576668,567.772754 839.281209,569.613662 839.281209,573.500021 C839.281209,576.363655 835.599394,578.409108 830.894853,578.409108 C822.713043,578.409108 818.826683,572.886386 817.190321,570.636388 L800.213064,582.704558 C807.985784,593.750002 819.644864,597.431817 832.122125,597.431817 C846.644838,597.431817 861.781187,589.454552 861.781187,573.704567 C861.781187,561.636396 854.417558,554.681858 840.09939,549.772771 L836.008485,548.340955 C829.872127,546.295502 825.985767,545.681866 825.985767,541.795506 C825.985767,539.545508 828.235765,537.500056 833.758487,537.500056 C840.50848,537.500056 844.190295,542.204597 845.417567,543.840959 L862.394823,531.772789 C856.463011,522.977342 845.417567,518.681892 832.531215,518.681892 C814.940323,518.681892 802.872153,529.727336 802.872153,541.18187 Z M920.38351,532.386424 L920.38351,543.636414 L979.292545,543.636414 L979.292545,532.386424 L920.38351,532.386424 Z M920.38351,558.568218 L920.38351,569.818207 L979.292545,569.818207 L979.292545,558.568218 L920.38351,558.568218 Z M1083.09938,536.323921 L1085.0937,519.858027 L1070.57099,520.011436 L1071.28689,516.943257 C1072.76985,510.602354 1078.08802,507.840993 1084.37779,507.943266 C1086.26983,507.943266 1088.11074,508.198947 1089.90051,508.659174 L1092.04824,491.221691 C1088.4687,490.40351 1084.83802,489.738738 1081.1562,489.738738 C1063.56531,489.534192 1052.11078,499.966001 1049.14487,516.994394 L1048.58237,519.9603 L1037.79261,519.858027 L1035.79829,536.323921 L1046.48578,536.170512 L1036.15625,596 L1058.24713,596 L1068.57667,536.170512 L1083.09938,536.323921 Z M1125.79826,615.636345 C1113.73009,594.772728 1108.61645,575.340929 1108.61645,553.454586 C1108.61645,530.750062 1113.73009,512.136444 1126.0028,491.272827 L1114.75281,491.272827 C1103.50282,506.409176 1096.13919,529.318245 1096.13919,553.454586 C1096.13919,577.590927 1103.50282,600.499996 1113.73009,615.636345 L1125.79826,615.636345 Z M1140.88352,541.18187 C1140.88352,553.454586 1148.45169,559.795489 1160.11077,563.681849 L1163.79259,564.909121 C1172.58803,567.772754 1177.29257,569.613662 1177.29257,573.500021 C1177.29257,576.363655 1173.61076,578.409108 1168.90622,578.409108 C1160.72441,578.409108 1156.83805,572.886386 1155.20168,570.636388 L1138.22443,582.704558 C1145.99715,593.750002 1157.65623,597.431817 1170.13349,597.431817 C1184.6562,597.431817 1199.79255,589.454552 1199.79255,573.704567 C1199.79255,561.636396 1192.42892,554.681858 1178.11075,549.772771 L1174.01985,548.340955 C1167.88349,546.295502 1163.99713,545.681866 1163.99713,541.795506 C1163.99713,539.545508 1166.24713,537.500056 1171.76985,537.500056 C1178.51984,537.500056 1182.20166,542.204597 1183.42893,543.840959 L1200.40619,531.772789 C1194.47437,522.977342 1183.42893,518.681892 1170.54258,518.681892 C1152.95169,518.681892 1140.88352,529.727336 1140.88352,541.18187 Z M1254.35507,595.386364 L1254.35507,578.409108 C1252.7187,578.613653 1250.8778,578.818198 1248.42325,578.818198 C1242.69599,578.818198 1240.65053,577.181836 1240.65053,571.250024 L1240.65053,536.272784 L1253.33234,536.272784 L1253.33234,519.909163 L1240.65053,519.909163 L1240.65053,500.886454 L1217.94601,500.886454 L1217.94601,519.909163 L1207.92329,519.909163 L1207.92329,536.272784 L1217.94601,536.272784 L1217.94601,574.113657 C1217.94601,590.681823 1226.74146,597.431817 1241.26417,597.431817 C1246.17326,597.431817 1250.46871,596.818181 1254.35507,595.386364 Z M1306.46302,596 L1306.46302,589.250006 L1305.84939,589.250006 C1302.78121,593.340912 1297.46303,597.431817 1287.64486,597.431817 C1273.53123,597.431817 1261.87215,588.022735 1261.87215,574.522748 C1261.87215,558.772763 1273.32669,549.568226 1297.25848,549.568226 L1305.23575,549.568226 L1305.23575,545.477321 C1305.23575,539.136418 1302.37212,535.045513 1295.41758,535.045513 C1289.69031,535.045513 1286.21304,537.704601 1286.21304,543.227323 L1263.50852,543.227323 C1263.50852,529.1137 1276.59941,518.477347 1296.64485,518.477347 C1314.64483,518.477347 1327.94027,527.477338 1327.94027,545.681866 L1327.94027,596 L1306.46302,596 Z M1305.23575,562.250032 L1297.46303,562.250032 C1288.05395,562.250032 1284.57668,567.568209 1284.57668,573.295476 C1284.57668,577.590927 1287.8494,580.45456 1292.96303,580.45456 C1299.09939,580.45456 1303.59939,577.386381 1305.23575,574.113657 L1305.23575,562.250032 Z M1384.3437,595.386364 L1384.3437,578.409108 C1382.70734,578.613653 1380.86643,578.818198 1378.41189,578.818198 C1372.68462,578.818198 1370.63917,577.181836 1370.63917,571.250024 L1370.63917,536.272784 L1383.32098,536.272784 L1383.32098,519.909163 L1370.63917,519.909163 L1370.63917,500.886454 L1347.93465,500.886454 L1347.93465,519.909163 L1337.91193,519.909163 L1337.91193,536.272784 L1347.93465,536.272784 L1347.93465,574.113657 C1347.93465,590.681823 1356.73009,597.431817 1371.25281,597.431817 C1376.16189,597.431817 1380.45734,596.818181 1384.3437,595.386364 Z M1459.20732,583.93183 C1454.50278,590.681823 1444.07097,597.431817 1429.34371,597.431817 C1405.00282,597.431817 1390.68466,580.45456 1390.68466,558.977308 C1390.68466,535.659148 1403.36646,518.477347 1426.88917,518.477347 C1448.57096,518.477347 1461.25277,533.00006 1461.25277,555.704584 L1461.25277,565.318211 L1413.79827,565.318211 C1415.63918,574.420475 1421.82667,579.022743 1430.77553,579.022743 C1437.52552,579.022743 1441.41188,576.772746 1445.91188,571.250024 L1459.20732,583.93183 Z M1426.68462,536.681875 C1418.96304,536.681875 1415.12781,542.102324 1413.79827,550.590952 L1439.36643,550.590952 C1439.36643,544.045504 1435.48007,536.681875 1426.68462,536.681875 Z M1473.47442,615.636345 C1485.54259,594.772728 1490.65623,575.340929 1490.65623,553.454586 C1490.65623,530.750062 1485.54259,512.136444 1473.26988,491.272827 L1484.51987,491.272827 C1495.76986,506.409176 1503.13349,529.318245 1503.13349,553.454586 C1503.13349,577.590927 1495.76986,600.499996 1485.54259,615.636345 L1473.47442,615.636345 Z" id="effects-=-f(state)" fill="#494949"></path>
        </g>
    </g>
</svg>