<?xml version="1.0" encoding="UTF-8"?>
<svg width="1920px" height="1080px" viewBox="0 0 1920 1080" version="1.1" xmlns="http://www.w3.org/2000/svg" xmlns:xlink="http://www.w3.org/1999/xlink">
    <!-- Generator: Sketch 46.2 (44496) - http://www.bohemiancoding.com/sketch -->
    <title>effectsAreAFunctionOfState</title>
    <desc>Created with Sketch.</desc>
    <defs></defs>
    <g id="Actual-Slides" stroke="none" stroke-width="1" fill="none" fill-rule="evenodd">
        <g id="effectsAreAFunctionOfState">
            <g id="Group" transform="translate(452.000000, 184.000000)">
                <g id="Events-Block">
                    <rect id="Rectangle-7" stroke="#FFFFFF" stroke-width="5" x="2.5" y="2.5" width="435" height="213"></rect>
                    <text id="STATE" font-family="HelveticaNeue-Bold, Helvetica Neue" font-size="72" font-weight="bold" letter-spacing="2" fill="#FFFFFF">
                        <tspan x="106" y="136">STATE</tspan>
                    </text>
                </g>
                <g id="State-Block-Copy" transform="translate(577.000000, 0.000000)">
                    <rect id="Rectangle-7-Copy" stroke="#FFFFFF" stroke-width="5" x="2.5" y="2.5" width="435" height="213"></rect>
                    <text id="EFFECTS" font-family="HelveticaNeue-Bold, Helvetica Neue" font-size="72" font-weight="bold" letter-spacing="2" fill="#FFFFFF">
                        <tspan x="52" y="136">EFFECTS</tspan>
                    </text>
                </g>
                <g id="Arrows" transform="translate(438.000000, 87.000000)" fill-rule="nonzero" fill="#FFFFFF">
                    <polygon id="Shape" transform="translate(69.484325, 22.937515) scale(-1, 1) rotate(90.000000) translate(-69.484325, -22.937515) " points="69.48431 92.42184 71.42181 90.73434 92.42184 72.73434 88.54684 68.20314 72.48434 81.98434 72.48434 -46.54681 66.48431 -46.54681 66.48431 81.98434 50.42181 68.20314 46.54681 72.73434 67.54681 90.73434"></polygon>
                </g>
            </g>
            <g id="Sun-/-Fire-Switch" transform="translate(557.000000, 472.000000)">
                <g id="Switch-Copy-2" transform="translate(114.500000, 52.000000) scale(-1, 1) translate(-114.500000, -52.000000) ">
                    <path d="M177.177419,2.5 L51.8225806,2.5 C24.6296282,2.5 2.5,24.705391 2.5,52 C2.5,79.294609 24.6296282,101.5 51.8225806,101.5 L177.177419,101.5 C204.370372,101.5 226.5,79.294609 226.5,52 C226.5,24.705391 204.370372,2.5 177.177419,2.5 Z" id="Shape-Copy-2" stroke="#FFFFFF" stroke-width="5" fill-rule="nonzero"></path>
                    <path d="M177.177419,91.7647059 C155.29,91.7647059 137.548387,73.9623529 137.548387,52 C137.548387,30.0376471 155.29,12.2352941 177.177419,12.2352941 C199.064839,12.2352941 216.806452,30.0376471 216.806452,52 C216.806452,73.9623529 199.064839,91.7647059 177.177419,91.7647059 Z" id="Path" fill="#FFFFFF"></path>
                </g>
                <g id="Sun-State" transform="translate(1.000000, 1.000000)">
                    <rect id="Background-Copy" fill="#000000" opacity="0" x="0" y="0" width="100" height="100"></rect>
                    <path d="M50.9591195,35.7704403 C59.3370021,35.7704403 66.1477987,42.5812369 66.1477987,50.9591195 C66.1477987,59.3370021 59.3370021,66.1477987 50.9591195,66.1477987 C42.5812369,66.1477987 35.7704403,59.3370021 35.7704403,50.9591195 C35.7704403,42.5812369 42.5812369,35.7704403 50.9591195,35.7704403 Z M50.9591195,31.4308176 C49.775586,31.4308176 48.7893082,30.6360611 48.7893082,29.5574631 L48.7893082,23.5400212 C48.7893082,22.5181915 49.775586,21.6666667 50.9591195,21.6666667 C52.1426529,21.6666667 53.1289308,22.5181915 53.1289308,23.5400212 L53.1289308,29.5574631 C53.1289308,30.5792928 52.1426529,31.4308176 50.9591195,31.4308176 Z M34.4963518,37.3236089 L29.8633027,32.6987891 C29.0602408,31.8971536 29.0602408,30.6638683 29.8633027,29.8622329 C30.6663645,29.0605974 31.9018443,29.0605974 32.7049061,29.8622329 L37.3379552,34.4870527 C38.141017,35.2886882 38.141017,36.5219735 37.3379552,37.3236089 C36.9673113,37.7552588 36.4113454,37.9402516 35.9171535,37.9402516 C35.4229616,37.9402516 34.8669957,37.6935945 34.4963518,37.3236089 Z M31.4308176,50.9591195 C31.4308176,52.1426529 30.6360611,53.1289308 29.5574631,53.1289308 L23.5400212,53.1289308 C22.5181915,53.1289308 21.6666667,52.1426529 21.6666667,50.9591195 C21.6666667,49.775586 22.5181915,48.7893082 23.5400212,48.7893082 L29.5574631,48.7893082 C30.5792928,48.7893082 31.4308176,49.775586 31.4308176,50.9591195 Z M34.4963518,63.4943083 C35.2994136,62.6926729 36.5966673,62.6926729 37.3379552,63.4943083 C38.141017,64.2959438 38.141017,65.5292291 37.3379552,66.3308645 L32.7049061,70.9556844 C32.3342622,71.3873342 31.7782963,71.572327 31.2841044,71.572327 C30.7899125,71.572327 30.2339466,71.32567 29.8633027,70.9556844 C29.0602408,70.154049 29.0602408,68.9207637 29.8633027,68.1191282 L34.4963518,63.4943083 Z M50.9591195,69.4025157 C52.1426529,69.4025157 53.1289308,70.1972722 53.1289308,71.2758703 L53.1289308,77.2933121 C53.1289308,78.3151419 52.1426529,79.1666667 50.9591195,79.1666667 C49.775586,79.1666667 48.7893082,78.3151419 48.7893082,77.2933121 L48.7893082,71.2758703 C48.7893082,70.2540405 49.775586,69.4025157 50.9591195,69.4025157 Z M66.3369816,63.4943083 L70.9700307,68.1191282 C71.7730925,68.9207637 71.7730925,70.154049 70.9700307,70.9556844 C70.5993867,71.3873342 70.0434208,71.572327 69.5492289,71.572327 C69.055037,71.572327 68.4990712,71.32567 68.1284272,70.9556844 L63.4953781,66.3308645 C62.6923163,65.5292291 62.6923163,64.2959438 63.4953781,63.4943083 C64.29844,62.6926729 65.5339197,62.6926729 66.3369816,63.4943083 Z M77.2933121,48.7893082 C78.3151419,48.7893082 79.1666667,49.775586 79.1666667,50.9591195 C79.1666667,52.1426529 78.3151419,53.1289308 77.2933121,53.1289308 L71.2758703,53.1289308 C70.2540405,53.1289308 69.4025157,52.1426529 69.4025157,50.9591195 C69.4025157,49.775586 70.2540405,48.7893082 71.2758703,48.7893082 L77.2933121,48.7893082 Z M64.9161799,37.9402516 C64.360214,37.9402516 63.8660221,37.7552588 63.4953781,37.3236089 C62.6923163,36.5219735 62.6923163,35.2886882 63.4953781,34.4870527 L68.1284272,29.8622329 C68.9314891,29.0605974 70.1669688,29.0605974 70.9700307,29.8622329 C71.7730925,30.6638683 71.7730925,31.8971536 70.9700307,32.6987891 L66.3369816,37.3236089 C65.9663377,37.7552588 65.4103718,37.9402516 64.9161799,37.9402516 Z" id="Combined-Shape" fill="#4D70B8" fill-rule="nonzero"></path>
                </g>
                <g id="Fire-State" transform="translate(131.000000, 0.000000)">
                    <rect id="Background-Copy" fill="#6F6F6F" opacity="0" x="0" y="0" width="100" height="100"></rect>
                    <path d="M62.7804955,48.9294079 C60.1681097,43.2328169 61.0717111,38.5156232 61.0717111,38.5156232 C61.0717111,38.5156232 55.955266,43.286214 56.750541,50.288668 C57.0180546,52.6448992 57.9830851,55.3188093 58.8470549,57.9629792 C57.9579851,60.0630395 56.3892325,62.1698589 53.7213624,61.6960442 C48.6577595,60.7964046 50.4154229,56.6544125 51.480193,53.0734278 C52.5449632,49.4917671 49.9061563,46.6313052 49.9061563,46.6313052 C49.9061563,46.6313052 47.5275972,52.8463211 45.4991176,48.0061113 C43.470638,43.1659015 53.9393365,38.1634727 52.7160398,30.9683836 C51.4934036,23.7732945 46.6372063,19 46.6372063,19 C46.6372063,19 49.7766929,23.4725134 47.7468923,29.1238182 C45.7170916,34.7751231 41.7671379,34.2641332 38.0932846,41.1287011 C34.4194313,47.993269 39.864819,54.1798966 37.270928,55.676367 C31.9252799,58.7612319 32.9319236,47.5944806 32.9319236,47.5944806 C32.9319236,47.5944806 26.2652208,55.8649466 32.4893703,68.8343567 C39.200989,82.8203393 54.8951196,79.5583853 55.7022841,79.3799444 C60.4613838,78.7844654 64.9800517,75.5340019 67.4068293,69.295329 C72.0252367,57.4195455 65.3928813,54.6259989 62.7804955,48.9294079 Z" id="Shape-Copy-6" fill="#FFFFFF" fill-rule="nonzero"></path>
                </g>
            </g>
            <g id="Fire-Truck-Coming-Switch" transform="translate(555.000000, 632.000000)">
                <g id="Switch" transform="translate(5.000000, 0.000000)">
                    <path d="M177.177419,2.5 L51.8225806,2.5 C24.6296282,2.5 2.5,24.705391 2.5,52 C2.5,79.294609 24.6296282,101.5 51.8225806,101.5 L177.177419,101.5 C204.370372,101.5 226.5,79.294609 226.5,52 C226.5,24.705391 204.370372,2.5 177.177419,2.5 Z" id="Shape-Copy-2" stroke="#FFFFFF" stroke-width="5" fill-rule="nonzero"></path>
                    <path d="M177.177419,91.7647059 C155.29,91.7647059 137.548387,73.9623529 137.548387,52 C137.548387,30.0376471 155.29,12.2352941 177.177419,12.2352941 C199.064839,12.2352941 216.806452,30.0376471 216.806452,52 C216.806452,73.9623529 199.064839,91.7647059 177.177419,91.7647059 Z" id="Path" fill="#FFFFFF"></path>
                </g>
                <g id="Fire-Department-Coming" transform="translate(139.000000, 7.000000)">
                    <rect id="Rectangle-2" fill="#FFFFFF" opacity="0" x="0" y="0" width="90" height="90"></rect>
                    <path d="M75.189615,34.1303567 L71.21831,34.1303567 L71.21831,30.15 L67.247005,30.15 L67.247005,34.1303567 L60.297355,34.1303567 C58.6533,34.1303567 57.319545,35.4678681 57.319545,37.1158924 L57.319545,48.0626777 L57.319545,52.0435707 L55.333625,52.0435707 L55.333625,48.0626777 L55.333625,44.082321 L29.52148,44.082321 L29.52148,48.0626777 L32.499825,48.0626777 C29.60494,48.063214 29.025,56.025 29.025,56.025 L31.58658,56.025 C31.540035,55.6983984 31.5074,55.3680427 31.5074,55.0296427 C31.5074,51.1833589 34.61896,48.063214 38.456515,48.063214 C42.29407,48.063214 45.40563,51.1828226 45.40563,55.0296427 C45.40563,55.3680427 45.3746,55.6983984 45.328055,56.025 L61.369495,56.025 C61.32295,55.6983984 61.290315,55.3680427 61.290315,55.0296427 C61.290315,51.1833589 64.401875,48.063214 68.23943,48.063214 C72.076985,48.063214 75.18908,51.1828226 75.18908,55.0296427 C75.18908,55.3680427 75.157515,55.6983984 75.11097,56.025 L77.175,56.025 L77.175,48.063214 L75.189615,34.1303567 Z M38.25,49.95 C35.5157092,49.95 33.3,52.1667762 33.3,54.9 C33.3,57.6342908 35.5157092,59.85 38.25,59.85 C40.9842908,59.85 43.2,57.6342908 43.2,54.9 C43.2,52.1673098 40.9842908,49.95 38.25,49.95 M38.25,57.1279802 C37.0218366,57.1279802 36.0220198,56.1292304 36.0220198,54.9005335 C36.0220198,53.6729036 37.0218366,52.6730869 38.25,52.6730869 C39.4781634,52.6730869 40.4774466,53.6729036 40.4774466,54.9005335 C40.4774466,56.1292304 39.4781634,57.1279802 38.25,57.1279802 M68.4,49.95 C65.6657092,49.95 63.45,52.1667762 63.45,54.9 C63.45,57.6342908 65.6657092,59.85 68.4,59.85 C71.1342908,59.85 73.35,57.6342908 73.35,54.9 C73.35,52.1673098 71.1342908,49.95 68.4,49.95 M68.4,57.1279802 C67.1718366,57.1279802 66.1725534,56.1292304 66.1725534,54.9005335 C66.1725534,53.6729036 67.1718366,52.6730869 68.4,52.6730869 C69.6281634,52.6730869 70.6279802,53.6729036 70.6279802,54.9005335 C70.6279802,56.1292304 69.6281634,57.1279802 68.4,57.1279802 M55.125,40.1063826 L53.1347804,40.1063826 L53.1347804,36.1686174 L55.125,36.1686174 L55.125,34.2 L29.25,34.2 L29.25,36.1686174 L31.2407559,36.1686174 L31.2407559,40.1063826 L29.25,40.1063826 L29.25,42.075 L55.125,42.075 L55.125,40.1063826 Z M35.2211951,40.1063826 L33.2309755,40.1063826 L33.2309755,36.1686174 L35.2211951,36.1686174 L35.2211951,40.1063826 Z M39.2016343,40.1063826 L37.2114147,40.1063826 L37.2114147,36.1686174 L39.2016343,36.1686174 L39.2016343,40.1063826 Z M43.1826098,40.1063826 L41.1923902,40.1063826 L41.1923902,36.1686174 L43.1826098,36.1686174 L43.1826098,40.1063826 Z M47.1635853,40.1063826 L45.1728294,40.1063826 L45.1728294,36.1686174 L47.1635853,36.1686174 L47.1635853,40.1063826 Z M51.1445608,40.1063826 L49.1538049,40.1063826 L49.1538049,36.1686174 L51.1445608,36.1686174 L51.1445608,40.1063826 Z M63.276235,40.1019643 L59.30493,40.1019643 L59.30493,36.1210713 L63.276235,36.1210713 L63.276235,40.1019643 Z M65.26162,44.0828573 L65.26162,36.1210713 L67.247005,36.1210713 L71.21831,36.1210713 L73.203695,36.1210713 L74.19612,44.0828573 L65.26162,44.0828573 L65.26162,44.0828573 Z M24.3543854,34.2563826 L24.3543854,36.225 L12.825,36.225 L12.825,34.2563826 L24.3543854,34.2563826 Z M24.3543854,38.7563826 L24.3543854,40.725 L15.4198854,40.725 L15.4198854,38.7563826 L24.3543854,38.7563826 Z M24.3543854,43.2563826 L24.3543854,45.225 L18.5896927,45.225 L18.5896927,43.2563826 L24.3543854,43.2563826 Z" id="Shape" fill="#4D70B8" fill-rule="nonzero" transform="translate(45.000000, 45.000000) scale(-1, 1) translate(-45.000000, -45.000000) "></path>
                </g>
                <g id="Fire-Department-Static" transform="translate(0.000000, 7.000000)" fill="#FFFFFF">
                    <rect id="Rectangle-2" opacity="0" x="0" y="0" width="90" height="90"></rect>
                    <path d="M73.989615,34.1303567 L70.01831,34.1303567 L70.01831,30.15 L66.047005,30.15 L66.047005,34.1303567 L59.097355,34.1303567 C57.4533,34.1303567 56.119545,35.4678681 56.119545,37.1158924 L56.119545,48.0626777 L56.119545,52.0435707 L54.133625,52.0435707 L54.133625,48.0626777 L54.133625,44.082321 L28.32148,44.082321 L28.32148,48.0626777 L31.299825,48.0626777 C28.40494,48.063214 27.825,56.025 27.825,56.025 L30.38658,56.025 C30.340035,55.6983984 30.3074,55.3680427 30.3074,55.0296427 C30.3074,51.1833589 33.41896,48.063214 37.256515,48.063214 C41.09407,48.063214 44.20563,51.1828226 44.20563,55.0296427 C44.20563,55.3680427 44.1746,55.6983984 44.128055,56.025 L60.169495,56.025 C60.12295,55.6983984 60.090315,55.3680427 60.090315,55.0296427 C60.090315,51.1833589 63.201875,48.063214 67.03943,48.063214 C70.876985,48.063214 73.98908,51.1828226 73.98908,55.0296427 C73.98908,55.3680427 73.957515,55.6983984 73.91097,56.025 L75.975,56.025 L75.975,48.063214 L73.989615,34.1303567 Z M37.05,49.95 C34.3157092,49.95 32.1,52.1667762 32.1,54.9 C32.1,57.6342908 34.3157092,59.85 37.05,59.85 C39.7842908,59.85 42,57.6342908 42,54.9 C42,52.1673098 39.7842908,49.95 37.05,49.95 M37.05,57.1279802 C35.8218366,57.1279802 34.8220198,56.1292304 34.8220198,54.9005335 C34.8220198,53.6729036 35.8218366,52.6730869 37.05,52.6730869 C38.2781634,52.6730869 39.2774466,53.6729036 39.2774466,54.9005335 C39.2774466,56.1292304 38.2781634,57.1279802 37.05,57.1279802 M67.2,49.95 C64.4657092,49.95 62.25,52.1667762 62.25,54.9 C62.25,57.6342908 64.4657092,59.85 67.2,59.85 C69.9342908,59.85 72.15,57.6342908 72.15,54.9 C72.15,52.1673098 69.9342908,49.95 67.2,49.95 M67.2,57.1279802 C65.9718366,57.1279802 64.9725534,56.1292304 64.9725534,54.9005335 C64.9725534,53.6729036 65.9718366,52.6730869 67.2,52.6730869 C68.4281634,52.6730869 69.4279802,53.6729036 69.4279802,54.9005335 C69.4279802,56.1292304 68.4281634,57.1279802 67.2,57.1279802 M53.925,40.1063826 L51.9347804,40.1063826 L51.9347804,36.1686174 L53.925,36.1686174 L53.925,34.2 L28.05,34.2 L28.05,36.1686174 L30.0407559,36.1686174 L30.0407559,40.1063826 L28.05,40.1063826 L28.05,42.075 L53.925,42.075 L53.925,40.1063826 Z M34.0211951,40.1063826 L32.0309755,40.1063826 L32.0309755,36.1686174 L34.0211951,36.1686174 L34.0211951,40.1063826 Z M38.0016343,40.1063826 L36.0114147,40.1063826 L36.0114147,36.1686174 L38.0016343,36.1686174 L38.0016343,40.1063826 Z M41.9826098,40.1063826 L39.9923902,40.1063826 L39.9923902,36.1686174 L41.9826098,36.1686174 L41.9826098,40.1063826 Z M45.9635853,40.1063826 L43.9728294,40.1063826 L43.9728294,36.1686174 L45.9635853,36.1686174 L45.9635853,40.1063826 Z M49.9445608,40.1063826 L47.9538049,40.1063826 L47.9538049,36.1686174 L49.9445608,36.1686174 L49.9445608,40.1063826 Z M62.076235,40.1019643 L58.10493,40.1019643 L58.10493,36.1210713 L62.076235,36.1210713 L62.076235,40.1019643 Z M64.06162,44.0828573 L64.06162,36.1210713 L66.047005,36.1210713 L70.01831,36.1210713 L72.003695,36.1210713 L72.99612,44.0828573 L64.06162,44.0828573 L64.06162,44.0828573 Z" id="Shape" fill-rule="nonzero" transform="translate(51.900000, 45.000000) scale(-1, 1) translate(-51.900000, -45.000000) "></path>
                </g>
            </g>
            <g id="Rod-or-not-Rod-Switch" transform="translate(558.000000, 792.000000)">
                <g id="Switch-Copy">
                    <path d="M177.177419,2.5 L51.8225806,2.5 C24.6296282,2.5 2.5,24.705391 2.5,52 C2.5,79.294609 24.6296282,101.5 51.8225806,101.5 L177.177419,101.5 C204.370372,101.5 226.5,79.294609 226.5,52 C226.5,24.705391 204.370372,2.5 177.177419,2.5 Z" id="Shape-Copy-2" stroke="#FFFFFF" stroke-width="5" fill-rule="nonzero"></path>
                    <path d="M177.177419,91.7647059 C155.29,91.7647059 137.548387,73.9623529 137.548387,52 C137.548387,30.0376471 155.29,12.2352941 177.177419,12.2352941 C199.064839,12.2352941 216.806452,30.0376471 216.806452,52 C216.806452,73.9623529 199.064839,91.7647059 177.177419,91.7647059 Z" id="Path" fill="#FFFFFF"></path>
                </g>
                <g id="Add-Ground-On-Action" transform="translate(133.000000, 5.000000)">
                    <rect id="Rectangle-2" fill="#FFFFFF" opacity="0" x="0" y="0" width="90" height="90"></rect>
                    <path d="M46.2569926,43.2693806 C46.2628639,43.2046557 46.2658638,43.1391017 46.2658638,43.072847 L46.2658638,25.5478491 C46.2658638,24.3616248 45.304239,23.4 44.1180147,23.4 C42.9317904,23.4 41.9701656,24.3616248 41.9701656,25.5478491 L41.9701656,43.072847 C41.9701656,43.1391017 41.9731655,43.2046557 41.9790368,43.2693806 L23.7478491,43.2693806 C22.5616248,43.2693806 21.6,44.2310054 21.6,45.4172297 C21.6,46.603454 22.5616248,47.5650788 23.7478491,47.5650788 L64.5083185,47.5650788 C65.6945428,47.5650788 66.6561676,46.603454 66.6561676,45.4172297 C66.6561676,44.2310054 65.6945428,43.2693806 64.5083185,43.2693806 L46.2569926,43.2693806 Z M29.1049951,54.4527294 C27.9187707,54.4527294 26.9571459,53.4911046 26.9571459,52.3048803 C26.9571459,51.118656 27.9187707,50.1570312 29.1049951,50.1570312 L59.1557013,50.1570312 C60.3419256,50.1570312 61.3035504,51.118656 61.3035504,52.3048803 C61.3035504,53.4911046 60.3419256,54.4527294 59.1557013,54.4527294 L29.1049951,54.4527294 Z M34.5732138,61.3181981 C33.3869895,61.3181981 32.4253647,60.3565733 32.4253647,59.170349 C32.4253647,57.9841247 33.3869895,57.0224999 34.5732138,57.0224999 L53.6617073,57.0224999 C54.8479316,57.0224999 55.8095564,57.9841247 55.8095564,59.170349 C55.8095564,60.3565733 54.8479316,61.3181981 53.6617073,61.3181981 L34.5732138,61.3181981 Z M40.2253625,68.1918565 C39.0391382,68.1918565 38.0775134,67.2302317 38.0775134,66.0440074 C38.0775134,64.8577831 39.0391382,63.8961583 40.2253625,63.8961583 L47.9992017,63.8961583 C49.185426,63.8961583 50.1470508,64.8577831 50.1470508,66.0440074 C50.1470508,67.2302317 49.185426,68.1918565 47.9992017,68.1918565 L40.2253625,68.1918565 Z" id="Combined-Shape" fill="#4D70B8" fill-rule="nonzero"></path>
                </g>
                <g id="Ground-Off" transform="translate(5.000000, 5.000000)">
                    <rect id="Rectangle-2" x="0" y="0" width="90" height="90"></rect>
                    <path d="M46.2569926,43.2693806 C46.2628639,43.2046557 46.2658638,43.1391017 46.2658638,43.072847 L46.2658638,25.5478491 C46.2658638,24.3616248 45.304239,23.4 44.1180147,23.4 C42.9317904,23.4 41.9701656,24.3616248 41.9701656,25.5478491 L41.9701656,43.072847 C41.9701656,43.1391017 41.9731655,43.2046557 41.9790368,43.2693806 L23.7478491,43.2693806 C22.5616248,43.2693806 21.6,44.2310054 21.6,45.4172297 C21.6,46.603454 22.5616248,47.5650788 23.7478491,47.5650788 L64.5083185,47.5650788 C65.6945428,47.5650788 66.6561676,46.603454 66.6561676,45.4172297 C66.6561676,44.2310054 65.6945428,43.2693806 64.5083185,43.2693806 L46.2569926,43.2693806 Z M29.1049951,54.4527294 C27.9187707,54.4527294 26.9571459,53.4911046 26.9571459,52.3048803 C26.9571459,51.118656 27.9187707,50.1570312 29.1049951,50.1570312 L59.1557013,50.1570312 C60.3419256,50.1570312 61.3035504,51.118656 61.3035504,52.3048803 C61.3035504,53.4911046 60.3419256,54.4527294 59.1557013,54.4527294 L29.1049951,54.4527294 Z M34.5732138,61.3181981 C33.3869895,61.3181981 32.4253647,60.3565733 32.4253647,59.170349 C32.4253647,57.9841247 33.3869895,57.0224999 34.5732138,57.0224999 L53.6617073,57.0224999 C54.8479316,57.0224999 55.8095564,57.9841247 55.8095564,59.170349 C55.8095564,60.3565733 54.8479316,61.3181981 53.6617073,61.3181981 L34.5732138,61.3181981 Z M40.2253625,68.1918565 C39.0391382,68.1918565 38.0775134,67.2302317 38.0775134,66.0440074 C38.0775134,64.8577831 39.0391382,63.8961583 40.2253625,63.8961583 L47.9992017,63.8961583 C49.185426,63.8961583 50.1470508,64.8577831 50.1470508,66.0440074 C50.1470508,67.2302317 49.185426,68.1918565 47.9992017,68.1918565 L40.2253625,68.1918565 Z" id="Combined-Shape" fill="#FFFFFF" fill-rule="nonzero"></path>
                    <path d="M27.3478491,52.8956982 L68.1083185,52.8956982 C69.2945428,52.8956982 70.2561676,51.9340734 70.2561676,50.7478491 C70.2561676,49.5616248 69.2945428,48.6 68.1083185,48.6 L27.3478491,48.6 C26.1616248,48.6 25.2,49.5616248 25.2,50.7478491 C25.2,51.9340734 26.1616248,52.8956982 27.3478491,52.8956982 Z" id="Shape-Copy" fill="#FFFFFF" transform="translate(47.728084, 50.747849) rotate(-45.000000) translate(-47.728084, -50.747849) "></path>
                </g>
            </g>
            <g id="Effect" transform="translate(1099.000000, 462.000000)">
                <g id="Fire-Deparment" transform="translate(150.000000, 0.000000)">
                    <circle id="Oval-Copy-2" fill="#FFFFFF" cx="75" cy="75" r="75"></circle>
                    <path d="M119.277108,66.3029619 L115.558696,66.3029619 L115.558696,58.8476405 L119.277108,58.8476405 L119.277108,55.1204819 L70.9337349,55.1204819 L70.9337349,58.8476405 L74.6531497,58.8476405 L74.6531497,66.3029619 L70.9337349,66.3029619 L70.9337349,70.0301205 L119.277108,70.0301205 L119.277108,66.3029619 Z M82.0899751,66.3029619 L78.3715624,66.3029619 L78.3715624,58.8476405 L82.0899751,58.8476405 L82.0899751,66.3029619 Z M89.5268006,66.3029619 L85.8083879,66.3029619 L85.8083879,58.8476405 L89.5268006,58.8476405 L89.5268006,66.3029619 Z M96.9646281,66.3029619 L93.2462153,66.3029619 L93.2462153,58.8476405 L96.9646281,58.8476405 L96.9646281,66.3029619 Z M104.402456,66.3029619 L100.683041,66.3029619 L100.683041,58.8476405 L104.402456,58.8476405 L104.402456,66.3029619 Z M111.840283,66.3029619 L108.120868,66.3029619 L108.120868,58.8476405 L111.840283,58.8476405 L111.840283,66.3029619 Z" id="Shape" fill="#4D70B8" fill-rule="nonzero" transform="translate(95.105422, 62.575301) scale(-1, 1) translate(-95.105422, -62.575301) "></path>
                    <path d="M102.334337,84.4879518 C97.2181488,84.4879518 93.0722892,88.6358081 93.0722892,93.75 C93.0722892,98.8661885 97.2181488,103.012048 102.334337,103.012048 C107.450526,103.012048 111.596386,98.8661885 111.596386,93.75 C111.596386,88.6368063 107.450526,84.4879518 102.334337,84.4879518 M102.334337,97.9188201 C100.036295,97.9188201 98.1655172,96.0500387 98.1655172,93.7509983 C98.1655172,91.4539544 100.036295,89.5831764 102.334337,89.5831764 C104.632379,89.5831764 106.502159,91.4539544 106.502159,93.7509983 C106.502159,96.0500387 104.632379,97.9188201 102.334337,97.9188201" id="Shape" fill="#4D70B8" fill-rule="nonzero" transform="translate(102.334337, 93.750000) scale(-1, 1) translate(-102.334337, -93.750000) "></path>
                    <path d="M46.310241,84.4879518 C41.1940525,84.4879518 37.0481928,88.6358081 37.0481928,93.75 C37.0481928,98.8661885 41.1940525,103.012048 46.310241,103.012048 C51.4264295,103.012048 55.5722892,98.8661885 55.5722892,93.75 C55.5722892,88.6368063 51.4264295,84.4879518 46.310241,84.4879518 M46.310241,97.9188201 C44.0121988,97.9188201 42.1424191,96.0500387 42.1424191,93.7509983 C42.1424191,91.4539544 44.0121988,89.5831764 46.310241,89.5831764 C48.6082831,89.5831764 50.4790611,91.4539544 50.4790611,93.7509983 C50.4790611,96.0500387 48.6082831,97.9188201 46.310241,97.9188201" id="Shape" fill="#4D70B8" fill-rule="nonzero" transform="translate(46.310241, 93.750000) scale(-1, 1) translate(-46.310241, -93.750000) "></path>
                    <path d="M116.021642,54.8764304 L108.606094,54.8764304 L108.606094,47.439759 L101.190547,47.439759 L101.190547,54.8764304 L88.2135894,54.8764304 C85.1436747,54.8764304 82.6531777,57.3753603 82.6531777,60.4544348 L82.6531777,80.906784 L82.6531777,88.3444573 L78.9449046,88.3444573 L78.9449046,80.906784 L78.9449046,73.4701126 L30.7463454,73.4701126 L30.7463454,80.906784 L36.307756,80.906784 C30.9021888,80.9077859 29.8192771,95.7831325 29.8192771,95.7831325 L34.6024699,95.7831325 C34.5155572,95.1729287 34.4546185,94.555711 34.4546185,93.9234637 C34.4546185,86.7372866 40.2647791,80.9077859 47.4305773,80.9077859 C54.5963755,80.9077859 60.4065361,86.7362846 60.4065361,93.9234637 C60.4065361,94.555711 60.3485944,95.1729287 60.2616817,95.7831325 L90.2155773,95.7831325 C90.1286647,95.1729287 90.0677259,94.555711 90.0677259,93.9234637 C90.0677259,86.7372866 95.8778865,80.9077859 103.043685,80.9077859 C110.209483,80.9077859 116.020643,86.7362846 116.020643,93.9234637 C116.020643,94.555711 115.961702,95.1729287 115.874789,95.7831325 L119.728916,95.7831325 L119.728916,80.9077859 L116.021642,54.8764304 Z M93.775999,66.0334413 L86.3604518,66.0334413 L86.3604518,58.595768 L93.775999,58.595768 L93.775999,66.0334413 Z M97.4832731,73.4711146 L97.4832731,58.595768 L101.190547,58.595768 L108.606094,58.595768 L112.313368,58.595768 L114.166506,73.4711146 L97.4832731,73.4711146 L97.4832731,73.4711146 Z" id="Shape" fill="#4D70B8" fill-rule="nonzero" transform="translate(74.774096, 71.611446) scale(-1, 1) translate(-74.774096, -71.611446) "></path>
                </g>
                <g id="Call-box" fill="#FFFFFF">
                    <rect id="Rectangle" opacity="0" x="0" y="0" width="150" height="150"></rect>
                    <path d="M56.6446753,103.440245 L45.977375,92.7540612 C28.3136531,75.059024 23.8808427,61.4587482 39.8817824,45.4294508 C42.4528287,42.9204081 45.7024033,40.5742034 49.0251766,43.9028654 L58.9305238,56.878949 C61.1297258,60.9739802 59.5660361,62.5739803 57.4066284,64.5119513 C49.5133757,71.5957738 52.1327074,79.2387504 57.4066176,84.3577554 L65.0261164,91.9907577 C70.1360652,97.2740255 77.7655205,99.8979885 84.8368109,91.9907577 C86.7713534,89.8275122 88.3685337,88.2610405 92.4563096,90.4641508 L105.409448,100.387064 C108.73221,103.715715 106.390135,106.971049 103.885563,109.546651 C87.8846233,125.575949 74.3083864,121.135282 56.6446753,103.440245 Z M69.3293063,33.2601572 C69.307909,32.1518655 70.3027647,30.9893592 71.5817642,31.0000735 C98.6822093,31.0000735 120.697183,53.0915503 120.697183,80.2860548 C120.713199,81.4181324 119.690102,82.4594595 118.561727,82.4594595 C117.433458,82.4594595 116.410254,81.4181324 116.42627,80.2860548 C116.42627,55.40767 96.3740374,35.285811 71.5817642,35.285811 C70.4635752,35.3473113 69.3904871,34.3822704 69.3293063,33.2601572 Z M69.3293063,46.1173697 C69.307877,45.0840784 70.2481397,43.8680004 71.5817642,43.857286 C91.6059159,43.857286 107.884445,60.1923745 107.884445,80.2860548 C107.900461,81.4181324 106.877364,82.4594595 105.748989,82.4594595 C104.620721,82.4594595 103.597517,81.4181324 103.613533,80.2860548 C103.613533,62.5084942 89.297744,48.1430235 71.5817642,48.1430235 C70.4635752,48.2045239 69.3904871,47.2394829 69.3293063,46.1173697 Z" id="Combined-Shape" fill-rule="nonzero"></path>
                </g>
            </g>
        </g>
    </g>
</svg>