<?xml version="1.0" encoding="UTF-8"?>
<svg width="1920px" height="1080px" viewBox="0 0 1920 1080" version="1.1" xmlns="http://www.w3.org/2000/svg" xmlns:xlink="http://www.w3.org/1999/xlink">
    <!-- Generator: Sketch 46.2 (44496) - http://www.bohemiancoding.com/sketch -->
    <title>explodingPhone</title>
    <desc>Created with Sketch.</desc>
    <defs></defs>
    <g id="Actual-Slides" stroke="none" stroke-width="1" fill="none" fill-rule="evenodd">
        <g id="explodingPhone">
            <g id="noun_1131411" transform="translate(860.000000, 367.000000)">
                <rect id="Rectangle-4" fill="#4ABAEB" x="8" y="44" width="178" height="247"></rect>
                <path d="M156.521739,0 L43.4782609,0 C19.4658804,0 0,19.419649 0,43.375 L0,303.625 C0,327.580351 19.4658804,347 43.4782609,347 L156.521739,347 C180.53412,347 200,327.580351 200,303.625 L200,43.375 C200,19.419649 180.53412,0 156.521739,0 Z M121.73913,316.6375 L78.2608696,316.6375 C73.4583935,316.6375 69.5652174,312.75357 69.5652174,307.9625 C69.5652174,303.17143 73.4583935,299.2875 78.2608696,299.2875 L121.73913,299.2875 C126.541607,299.2875 130.434783,303.17143 130.434783,307.9625 C130.434783,312.75357 126.541607,316.6375 121.73913,316.6375 Z M182.608696,273.2625 L17.3913043,273.2625 L17.3913043,56.3875 L182.608696,56.3875 L182.608696,273.2625 Z" id="Shape" fill="#FFFFFF" fill-rule="nonzero"></path>
            </g>
            <rect id="Rectangle-2" fill="#FFFFFF" transform="translate(1007.753270, 419.514311) rotate(17.000000) translate(-1007.753270, -419.514311) " x="970.519917" y="404.52639" width="74.4667072" height="29.9758418"></rect>
            <g id="noun_563989" transform="translate(942.000000, 338.000000)" fill-rule="nonzero" fill="#FDA066">
                <path d="M144,2.07407407 L81.9891892,26.1851852 L52.4108108,0 L46.4432432,25.6666667 L2.33513514,16.5925926 L31.1351351,61.962963 L0,73.3703704 L29.5783784,87.6296296 L26.4648649,133 L65.9027027,98.2592593 L97.0378378,126.259259 L108.454054,84.7777778 L135.697297,87.8888889 L119.610811,46.6666667 L144,2.07407407 Z M77.8378378,70 L86.4,101.888889 L66.1621622,74.4074074 L50.0756757,92.2962963 L58.1189189,69.7407407 L27.7621622,70.7777778 L55.7837838,60.4074074 L39.1783784,43.2962963 L61.2324324,53.4074074 L71.8702703,31.1111111 L73.1675676,57.037037 L96.5189189,42 L81.9891892,62.4814815 L105.081081,66.6296296 L77.8378378,70 Z" id="Shape"></path>
                <polygon id="Shape" points="120.222222 101 122 98.6190476 116 96"></polygon>
                <polygon id="Shape" points="11 91.9411765 11.8888889 95 17 91"></polygon>
                <polygon id="Shape" points="57 128.181818 60 129 59.5384615 120"></polygon>
                <polygon id="Shape" points="38 6.26470588 35 6 40 15"></polygon>
                <polygon id="Shape" points="67 120 71 118.068966 67.75 112"></polygon>
                <polygon id="Shape" points="83.3846154 21 85 14.4285714 82 13"></polygon>
                <path d="M103,9 C103,9 106.759709,5.18181818 106.980869,5.18181818 C107.202028,5.18181818 105.432753,3 105.432753,3 L103,9 Z" id="Shape"></path>
                <polygon id="Shape" points="131 41 139.4375 37 140 40"></polygon>
                <polygon id="Shape" points="4.5 40 3 42.1 7 43"></polygon>
                <polygon id="Shape" points="20 58 15.5263158 55 15 57.6"></polygon>
            </g>
        </g>
    </g>
</svg>