<?xml version="1.0" encoding="UTF-8"?>
<svg width="1920px" height="1080px" viewBox="0 0 1920 1080" version="1.1" xmlns="http://www.w3.org/2000/svg" xmlns:xlink="http://www.w3.org/1999/xlink">
    <!-- Generator: Sketch 46.2 (44496) - http://www.bohemiancoding.com/sketch -->
    <title>fireDepartmentComesAndThereIsNoFire</title>
    <desc>Created with Sketch.</desc>
    <defs></defs>
    <g id="Actual-Slides" stroke="none" stroke-width="1" fill="none" fill-rule="evenodd">
        <g id="fireDepartmentComesAndThereIsNoFire">
            <path d="M1098,395.06 L1095,395.06 C1095.5359,395.06 1096.05128,395.018 1096.53846,395 C1097.02308,395.06 1097.51538,395.06 1098,395.06 Z" id="Shape" fill="#FFFFFF" fill-rule="nonzero"></path>
            <g id="Group" transform="translate(725.000000, 511.000000)" fill-rule="nonzero">
                <path d="M142.5,40 L24,151.645223 L24,290 L104.031906,290 L104.031906,200.763854 C104.031906,179.570459 121.256274,162.38375 142.5,162.38375 C163.743726,162.38375 180.963019,179.575524 180.963019,200.763854 L180.963019,290 L261,290 L261,151.645223 L142.5,40 Z" id="Shape" fill="#FFFFFF"></path>
                <polygon id="Shape" fill="#FF5858" points="194 39 286.867797 127 449 127 353.894915 39"></polygon>
                <polygon id="Shape" fill="#FF5858" points="449 132.593598 449 149.595245 293.26794 149.595245 285.203898 149.595245 270.971142 149.595245 270.778052 149.595245 270.778052 149.422999 142.60703 28.780202 0 163 0 134.2046 142.60703 0 283.491495 132.593598"></polygon>
                <path d="M271,156 L271,272 L437,272 L437,156 L271,156 Z M405.505465,240.187207 L304.21733,240.187207 L304.21733,184.626977 L405.505465,184.626977 L405.505465,240.187207 Z" id="Shape" fill="#FFFFFF"></path>
            </g>
            <g id="noun_634617" transform="translate(506.000000, 763.000000)"></g>
            <g id="Group" transform="translate(1256.000000, 462.000000)" stroke="#FFFFFF" stroke-width="7">
                <path d="M45.3333333,0.47770266 L45.3333333,330" id="Shape"></path>
                <path d="M0,331 L91,331" id="Shape"></path>
                <path d="M13,347 L79,347" id="Shape"></path>
                <path d="M25,362 L66,362" id="Shape"></path>
                <path d="M38,377 L54,377" id="Shape"></path>
            </g>
            <g id="Firetruck" transform="translate(612.500000, 373.000000) scale(-1, 1) translate(-612.500000, -373.000000) translate(469.000000, 284.000000)" fill-rule="nonzero">
                <path d="M287,61.0008084 L275.077912,61.0008084 L275.077912,36.9991916 L287,36.9991916 L287,25 L132,25 L132,36.9991916 L143.925301,36.9991916 L143.925301,61.0008084 L132,61.0008084 L132,73 L287,73 L287,61.0008084 Z M167.769478,61.0008084 L155.847389,61.0008084 L155.847389,36.9991916 L167.769478,36.9991916 L167.769478,61.0008084 Z M191.613655,61.0008084 L179.691566,61.0008084 L179.691566,36.9991916 L191.613655,36.9991916 L191.613655,61.0008084 Z M215.461044,61.0008084 L203.538956,61.0008084 L203.538956,36.9991916 L215.461044,36.9991916 L215.461044,61.0008084 Z M239.308434,61.0008084 L227.383133,61.0008084 L227.383133,36.9991916 L239.308434,36.9991916 L239.308434,61.0008084 Z M263.155823,61.0008084 L251.230522,61.0008084 L251.230522,36.9991916 L263.155823,36.9991916 L263.155823,61.0008084 Z" id="Shape" fill="#FFFFFF" transform="translate(209.500000, 49.000000) scale(-1, 1) translate(-209.500000, -49.000000) "></path>
                <path d="M231.5,119 C215.204732,119 202,132.211091 202,148.5 C202,164.795268 215.204732,178 231.5,178 C247.795268,178 261,164.795268 261,148.5 C261,132.21427 247.795268,119 231.5,119 M231.5,161.777862 C224.180642,161.777862 218.222138,155.825717 218.222138,148.50318 C218.222138,141.187002 224.180642,135.228498 231.5,135.228498 C238.819358,135.228498 244.774682,141.187002 244.774682,148.50318 C244.774682,155.825717 238.819358,161.777862 231.5,161.777862" id="Shape" fill="#ACACAC" transform="translate(231.500000, 148.500000) scale(-1, 1) translate(-231.500000, -148.500000) "></path>
                <path d="M52.5,119 C36.2047316,119 23,132.211091 23,148.5 C23,164.795268 36.2047316,178 52.5,178 C68.7952684,178 82,164.795268 82,148.5 C82,132.21427 68.7952684,119 52.5,119 M52.5,161.777862 C45.1806424,161.777862 39.225318,155.825717 39.225318,148.50318 C39.225318,141.187002 45.1806424,135.228498 52.5,135.228498 C59.8193576,135.228498 65.7778616,141.187002 65.7778616,148.50318 C65.7778616,155.825717 59.8193576,161.777862 52.5,161.777862" id="Shape" fill="#ACACAC" transform="translate(52.500000, 148.500000) scale(-1, 1) translate(-52.500000, -148.500000) "></path>
                <path d="M275.166033,23.8436826 L251.494911,23.8436826 L251.494911,0 L227.823789,0 L227.823789,23.8436826 L186.400122,23.8436826 C176.600667,23.8436826 168.650767,31.8558282 168.650767,41.7280509 L168.650767,107.302997 L168.650767,131.149892 L156.813611,131.149892 L156.813611,107.302997 L156.813611,83.4593144 L2.95928889,83.4593144 L2.95928889,107.302997 L20.7118333,107.302997 C3.45675556,107.30621 0,155 0,155 L15.2684,155 C14.9909667,153.043546 14.7964444,151.064604 14.7964444,149.037473 C14.7964444,125.996933 33.3430222,107.30621 56.2169222,107.30621 C79.0908222,107.30621 97.6374,125.99372 97.6374,149.037473 C97.6374,151.064604 97.4524444,153.043546 97.1750111,155 L192.790656,155 C192.513222,153.043546 192.3187,151.064604 192.3187,149.037473 C192.3187,125.996933 210.865278,107.30621 233.739178,107.30621 C256.613078,107.30621 275.162844,125.99372 275.162844,149.037473 C275.162844,151.064604 274.9747,153.043546 274.697267,155 L287,155 L287,107.30621 L275.166033,23.8436826 Z M204.155856,59.6156317 L180.484733,59.6156317 L180.484733,35.7687365 L204.155856,35.7687365 L204.155856,59.6156317 Z M215.989822,83.4625269 L215.989822,35.7687365 L227.823789,35.7687365 L251.494911,35.7687365 L263.328878,35.7687365 L269.244267,83.4625269 L215.989822,83.4625269 L215.989822,83.4625269 Z" id="Shape" fill="#FF5858" transform="translate(143.500000, 77.500000) scale(-1, 1) translate(-143.500000, -77.500000) "></path>
            </g>
        </g>
    </g>
</svg>