<?xml version="1.0" encoding="UTF-8"?>
<svg width="1920px" height="1080px" viewBox="0 0 1920 1080" version="1.1" xmlns="http://www.w3.org/2000/svg" xmlns:xlink="http://www.w3.org/1999/xlink">
    <!-- Generator: Sketch 46.2 (44496) - http://www.bohemiancoding.com/sketch -->
    <title>happyHouse</title>
    <desc>Created with Sketch.</desc>
    <defs></defs>
    <g id="Actual-Slides" stroke="none" stroke-width="1" fill="none" fill-rule="evenodd">
        <g id="happyHouse" fill-rule="nonzero">
            <g id="Group" transform="translate(724.000000, 511.000000)">
                <path d="M142.5,40 L24,151.645223 L24,290 L104.031906,290 L104.031906,200.763854 C104.031906,179.570459 121.256274,162.38375 142.5,162.38375 C163.743726,162.38375 180.963019,179.575524 180.963019,200.763854 L180.963019,290 L261,290 L261,151.645223 L142.5,40 Z" id="Shape" fill="#FFFFFF"></path>
                <polygon id="Shape" fill="#FF5858" points="194 39 286.867797 127 449 127 353.894915 39"></polygon>
                <polygon id="Shape" fill="#FF5858" points="449 132.593598 449 149.595245 293.26794 149.595245 285.203898 149.595245 270.971142 149.595245 270.778052 149.595245 270.778052 149.422999 142.60703 28.780202 0 163 0 134.2046 142.60703 0 283.491495 132.593598"></polygon>
                <path d="M271,156 L271,272 L437,272 L437,156 L271,156 Z M405.505465,240.187207 L304.21733,240.187207 L304.21733,184.626977 L405.505465,184.626977 L405.505465,240.187207 Z" id="Shape" fill="#FFFFFF"></path>
            </g>
            <g id="noun_1174161" transform="translate(960.000000, 240.000000)" fill="#F8E71C">
                <path d="M110.5,52 C78.2321429,52 52,78.2321429 52,110.5 C52,142.767857 78.2321429,169 110.5,169 C142.767857,169 169,142.767857 169,110.5 C169,78.2321429 142.767857,52 110.5,52 Z" id="Shape"></path>
                <path d="M109.5,40 C113.590909,40 117,36.5116279 117,32.3255814 L117,7.6744186 C117,3.48837209 113.590909,0 109.5,0 C105.409091,0 102,3.48837209 102,7.6744186 L102,32.3255814 C102,36.744186 105.409091,40 109.5,40 Z" id="Shape"></path>
                <path d="M49.3024911,60.6554174 C50.6690391,62.062167 52.7188612,63 54.5409253,63 C56.3629893,63 58.4128114,62.2966252 59.7793594,60.6554174 C62.7402135,57.60746 62.7402135,52.9182948 59.7793594,49.8703375 L42.6975089,32.285968 C39.7366548,29.2380107 35.1814947,29.2380107 32.2206406,32.285968 C29.2597865,35.3339254 29.2597865,40.0230906 32.2206406,43.071048 L49.3024911,60.6554174 Z" id="Shape"></path>
                <path d="M40,109.5 C40,105.409091 36.5116279,102 32.3255814,102 L7.6744186,102 C3.48837209,102 0,105.409091 0,109.5 C0,113.590909 3.48837209,117 7.6744186,117 L32.3255814,117 C36.744186,117 40,113.590909 40,109.5 Z" id="Shape"></path>
                <path d="M49.3024911,159.285968 L32.2206406,176.870337 C29.2597865,179.918295 29.2597865,184.60746 32.2206406,187.655417 C33.5871886,189.062167 35.6370107,190 37.4590747,190 C39.2811388,190 41.3309609,189.296625 42.6975089,187.655417 L59.7793594,170.071048 C62.7402135,167.023091 62.7402135,162.333925 59.7793594,159.285968 C57.0462633,156.238011 52.2633452,156.238011 49.3024911,159.285968 Z" id="Shape"></path>
                <path d="M109.5,180 C105.409091,180 102,183.488372 102,187.674419 L102,212.325581 C102,216.511628 105.409091,220 109.5,220 C113.590909,220 117,216.511628 117,212.325581 L117,187.674419 C117,183.255814 113.590909,180 109.5,180 Z" id="Shape"></path>
                <path d="M169.697509,159.285968 C166.736655,156.238011 162.181495,156.238011 159.220641,159.285968 C156.259786,162.333925 156.259786,167.023091 159.220641,170.071048 L176.302491,187.655417 C177.669039,189.062167 179.718861,190 181.540925,190 C183.362989,190 185.412811,189.296625 186.779359,187.655417 C189.740214,184.60746 189.740214,179.918295 186.779359,176.870337 L169.697509,159.285968 Z" id="Shape"></path>
                <path d="M212.325581,102 L187.674419,102 C183.488372,102 180,105.409091 180,109.5 C180,113.590909 183.488372,117 187.674419,117 L212.325581,117 C216.511628,117 220,113.590909 220,109.5 C220,105.409091 216.511628,102 212.325581,102 Z" id="Shape"></path>
                <path d="M164.459075,63 C166.281139,63 168.330961,62.2966252 169.697509,60.6554174 L186.779359,43.071048 C189.740214,40.0230906 189.740214,35.3339254 186.779359,32.285968 C183.818505,29.2380107 179.263345,29.2380107 176.302491,32.285968 L159.220641,49.8703375 C156.259786,52.9182948 156.259786,57.60746 159.220641,60.6554174 C160.587189,62.2966252 162.409253,63 164.459075,63 Z" id="Shape"></path>
            </g>
        </g>
    </g>
</svg>