<?xml version="1.0" encoding="UTF-8"?>
<svg width="1920px" height="1080px" viewBox="0 0 1920 1080" version="1.1" xmlns="http://www.w3.org/2000/svg" xmlns:xlink="http://www.w3.org/1999/xlink">
    <!-- Generator: Sketch 46.2 (44496) - http://www.bohemiancoding.com/sketch -->
    <title>houseOnFire</title>
    <desc>Created with Sketch.</desc>
    <defs></defs>
    <g id="Page-1" stroke="none" stroke-width="1" fill="none" fill-rule="evenodd">
        <g id="houseOnFire" fill-rule="nonzero">
            <path d="M1098,395.06 L1095,395.06 C1095.5359,395.06 1096.05128,395.018 1096.53846,395 C1097.02308,395.06 1097.51538,395.06 1098,395.06 Z" id="Shape" fill="#FFFFFF"></path>
            <g id="Group" transform="translate(748.000000, 551.000000)">
                <path d="M118.5,0 L0,111.645223 L0,250 L80.0319058,250 L80.0319058,160.763854 C80.0319058,139.570459 97.2562741,122.38375 118.5,122.38375 C139.743726,122.38375 156.963019,139.575524 156.963019,160.763854 L156.963019,250 L237,250 L237,111.645223 L118.5,0 Z" id="Shape" fill="#FFFFFF"></path>
                <g id="Group-2" transform="translate(696.500000, 173.500000) rotate(-180.000000) translate(-696.500000, -173.500000) translate(472.000000, 92.000000)" fill="#FF5858">
                    <polygon id="Shape" points="194 39 286.867797 127 449 127 353.894915 39"></polygon>
                    <polygon id="Shape" points="449 132.593598 449 149.595245 293.26794 149.595245 285.203898 149.595245 270.971142 149.595245 270.778052 149.595245 270.778052 149.422999 142.60703 28.780202 0 163 0 134.2046 142.60703 0 283.491495 132.593598"></polygon>
                </g>
                <path d="M247,116 L247,232 L413,232 L413,116 L247,116 Z M381.505465,200.187207 L280.21733,200.187207 L280.21733,144.626977 L381.505465,144.626977 L381.505465,200.187207 Z" id="Shape" fill="#FFFFFF"></path>
            </g>
            <g id="noun_977308" transform="translate(778.000000, 405.000000)" fill="#FDA066">
                <path d="M112.721355,100.366014 C103.78366,81.2629257 106.875131,65.4441719 106.875131,65.4441719 C106.875131,65.4441719 89.370357,81.4419888 92.0912126,104.924191 C93.0064506,112.825635 96.3080869,121.792391 99.2639666,130.659415 C96.2222127,137.701809 90.8550764,144.766869 81.7275549,143.177967 C64.4035688,140.161094 70.4170213,126.271235 74.0598945,114.262673 C77.7027676,102.251844 68.6746794,92.6595002 68.6746794,92.6595002 C68.6746794,92.6595002 60.5369708,113.501088 53.596981,97.269809 C46.6569913,81.0385301 82.4733044,64.263262 78.288068,40.1350726 C74.1050914,16.0068833 57.4906972,0 57.4906972,0 C57.4906972,0 68.2317494,14.9982366 61.2872399,33.9494617 C54.3427305,52.9006868 40.8288462,51.1871207 28.2595779,74.2069319 C15.6903096,97.2267432 34.3204872,117.973133 25.4460686,122.991433 C7.15712783,133.336295 10.6011345,95.8894363 10.6011345,95.8894363 C10.6011345,95.8894363 -12.2075,123.623821 9.08703706,167.115761 C32.0493411,214.016699 85.7433028,203.077982 88.5048357,202.479594 C104.787032,200.4827 120.246645,189.582516 128.549322,168.661597 C144.350172,128.837051 121.659049,119.469103 112.721355,100.366014 Z" id="Shape"></path>
                <path d="M384.978739,203.498783 C379.509404,191.793459 381.401199,182.100596 381.401199,182.100596 C381.401199,182.100596 370.689323,191.903179 372.354324,206.291784 C372.914395,211.133355 374.934799,216.62769 376.743621,222.060916 C374.88225,226.376109 371.597883,230.70519 366.012384,229.731598 C355.411139,227.883023 359.091013,219.37208 361.320234,212.013893 C363.549455,204.654316 358.024804,198.776655 358.024804,198.776655 C358.024804,198.776655 353.045012,211.547235 348.798153,201.601599 C344.551293,191.655962 366.468738,181.376999 363.907624,166.592569 C361.347892,151.808139 351.180874,142 351.180874,142 C351.180874,142 357.753757,151.190096 353.504132,162.802366 C349.254507,174.414636 340.984816,173.364657 333.293175,187.469934 C325.601533,201.57521 337.002089,214.287459 331.571475,217.362398 C320.379735,223.701161 322.487261,200.755782 322.487261,200.755782 C322.487261,200.755782 308.529739,217.74989 321.560724,244.399363 C335.612283,273.137683 368.469782,266.435038 370.159676,266.068379 C380.123408,264.844792 389.583768,258.165757 394.664511,245.346567 C404.333687,220.944272 390.448075,215.204107 384.978739,203.498783 Z" id="Shape"></path>
            </g>
        </g>
    </g>
</svg>