<?xml version="1.0" encoding="UTF-8"?>
<svg width="1920px" height="1080px" viewBox="0 0 1920 1080" version="1.1" xmlns="http://www.w3.org/2000/svg" xmlns:xlink="http://www.w3.org/1999/xlink">
    <!-- Generator: Sketch 46.2 (44496) - http://www.bohemiancoding.com/sketch -->
    <title>houseSavedByTheRod</title>
    <desc>Created with Sketch.</desc>
    <defs></defs>
    <g id="Actual-Slides" stroke="none" stroke-width="1" fill="none" fill-rule="evenodd">
        <g id="houseSavedByTheRod">
            <g id="Group-2" transform="translate(1117.000000, 226.000000)" fill-rule="nonzero">
                <path d="M251,40.2462913 C239.535925,43.5703877 230.430487,50.4658274 226.017641,59.1469387 C223.10774,58.0755357 220.014085,57.4986264 216.777815,57.4986264 C200.922835,57.4986264 188.090201,71.4818088 188.090201,88.734144 C188.090201,99.7503643 193.301144,109.420463 201.199837,115 L122.377463,115 C122.103203,115 121.828943,114.942309 121.554683,114.942309 C103.508363,114.695062 89,99.423449 89,80.5749982 C89,61.8666539 103.206677,46.702181 120.978736,46.1252717 C125.833141,19.8072191 147.307713,0 173.005892,0 C194.123925,0 212.362227,13.3788013 220.891718,32.7464705 C223.055631,32.3343924 225.279881,32.1695612 227.55624,32.1695612 C236.327081,32.1695612 244.447924,35.1612479 251,40.2462913 Z" id="Shape" fill="#FFFFFF"></path>
                <path d="M325,95.9007634 C325,106.425954 313.187852,115 298.586725,115 C298.069944,115 297.577771,115 297.085598,114.917557 C296.839512,115 296.533271,115 296.235233,115 L227.877896,115 C227.361115,115 226.83613,115 226.319349,114.917557 C225.802567,114.945038 225.25024,115 224.678773,115 L219.62033,115 C219.152766,115 218.718013,114.94229 218.280526,114.890076 C204.663745,113.873282 194,102.578626 194,88.7832061 C194,74.3557252 205.757462,62.621374 220.249217,62.621374 C221.780422,62.621374 223.284283,62.7587786 224.733459,63.0061069 C226.677541,63.3358779 228.536861,63.8854962 230.314152,64.6 C230.718827,63.6656489 231.216468,62.7312977 231.735984,61.8244275 C236.520998,53.4427481 245.268003,47.0396947 255.879795,44.3740458 C259.376957,43.4671756 263.095596,43 266.923607,43 C288.606554,43 306.190795,58.1145038 306.190795,76.8015267 C306.190795,77.0763359 306.190795,77.351145 306.157984,77.6259542 C307.172407,77.8458015 308.181361,78.0931298 309.143832,78.4229008 C318.462304,81.3358779 325,88.0934351 325,95.9007634 Z" id="Shape" fill="#FFFFFF"></path>
                <path d="M3,169.06 L0,169.06 C0.535897436,169.06 1.05128205,169.018 1.53846154,169 C2.02307692,169.06 2.51538462,169.06 3,169.06 Z" id="Shape" fill="#FFFFFF"></path>
                <polygon id="Shape" fill="#F8E71C" points="194.333635 179.5 197.786546 172.606061 171 172.606061 187.8163 134 224.814877 134 208.707633 160.665758 234 160.665758 171 225"></polygon>
            </g>
            <g id="Group" transform="translate(724.000000, 511.000000)" fill-rule="nonzero">
                <path d="M142.5,40 L24,151.645223 L24,290 L104.031906,290 L104.031906,200.763854 C104.031906,179.570459 121.256274,162.38375 142.5,162.38375 C163.743726,162.38375 180.963019,179.575524 180.963019,200.763854 L180.963019,290 L261,290 L261,151.645223 L142.5,40 Z" id="Shape" fill="#FFFFFF"></path>
                <polygon id="Shape" fill="#FF5858" points="194 39 286.867797 127 449 127 353.894915 39"></polygon>
                <polygon id="Shape" fill="#FF5858" points="449 132.593598 449 149.595245 293.26794 149.595245 285.203898 149.595245 270.971142 149.595245 270.778052 149.595245 270.778052 149.422999 142.60703 28.780202 0 163 0 134.2046 142.60703 0 283.491495 132.593598"></polygon>
                <path d="M271,156 L271,272 L437,272 L437,156 L271,156 Z M405.505465,240.187207 L304.21733,240.187207 L304.21733,184.626977 L405.505465,184.626977 L405.505465,240.187207 Z" id="Shape" fill="#FFFFFF"></path>
            </g>
            <g id="Group" transform="translate(1256.000000, 462.000000)" stroke="#FFFFFF" stroke-width="7">
                <path d="M45.3333333,0.47770266 L45.3333333,330" id="Shape"></path>
                <path d="M0,331 L91,331" id="Shape"></path>
                <path d="M13,347 L79,347" id="Shape"></path>
                <path d="M25,362 L66,362" id="Shape"></path>
                <path d="M38,377 L54,377" id="Shape"></path>
            </g>
        </g>
    </g>
</svg>