<?xml version="1.0" encoding="UTF-8"?>
<svg width="1920px" height="1080px" viewBox="0 0 1920 1080" version="1.1" xmlns="http://www.w3.org/2000/svg" xmlns:xlink="http://www.w3.org/1999/xlink">
    <!-- Generator: Sketch 46.2 (44496) - http://www.bohemiancoding.com/sketch -->
    <title>houseOnStartingFire</title>
    <desc>Created with Sketch.</desc>
    <defs></defs>
    <g id="Actual-Slides" stroke="none" stroke-width="1" fill="none" fill-rule="evenodd">
        <g id="houseOnStartingFire" fill-rule="nonzero">
            <g id="Group" transform="translate(724.000000, 511.000000)">
                <path d="M142.5,40 L24,151.645223 L24,290 L104.031906,290 L104.031906,200.763854 C104.031906,179.570459 121.256274,162.38375 142.5,162.38375 C163.743726,162.38375 180.963019,179.575524 180.963019,200.763854 L180.963019,290 L261,290 L261,151.645223 L142.5,40 Z" id="Shape" fill="#FFFFFF"></path>
                <polygon id="Shape" fill="#FF5858" points="194 39 286.867797 127 449 127 353.894915 39"></polygon>
                <polygon id="Shape" fill="#FF5858" points="449 132.593598 449 149.595245 293.26794 149.595245 285.203898 149.595245 270.971142 149.595245 270.778052 149.595245 270.778052 149.422999 142.60703 28.780202 0 163 0 134.2046 142.60703 0 283.491495 132.593598"></polygon>
                <path d="M271,156 L271,272 L437,272 L437,156 L271,156 Z M405.505465,240.187207 L304.21733,240.187207 L304.21733,184.626977 L405.505465,184.626977 L405.505465,240.187207 Z" id="Shape" fill="#FFFFFF"></path>
            </g>
            <path d="M1068.48937,539.995387 C1065.7547,534.095904 1066.7006,529.2107 1066.7006,529.2107 C1066.7006,529.2107 1061.34466,534.151202 1062.17716,541.403059 C1062.4572,543.843211 1063.4674,546.612356 1064.37181,549.350702 C1063.44112,551.525559 1061.79894,553.707416 1059.00619,553.216725 C1053.70557,552.285044 1055.54551,547.995529 1056.66012,544.287002 C1057.77473,540.577775 1055.0124,537.615434 1055.0124,537.615434 C1055.0124,537.615434 1052.52251,544.051807 1050.39908,539.039206 C1048.27565,534.026605 1059.23437,528.846007 1057.95381,521.394655 C1056.67395,513.943302 1051.59044,509 1051.59044,509 C1051.59044,509 1054.87688,513.631808 1052.75207,519.484393 C1050.62725,525.336977 1046.49241,524.807787 1042.64659,531.916847 C1038.80077,539.025906 1044.50104,545.432879 1041.78574,546.982649 C1036.18987,550.177385 1037.24363,538.612914 1037.24363,538.612914 C1037.24363,538.612914 1030.26487,547.177945 1036.78036,560.609279 C1043.80614,575.093392 1060.23489,571.715259 1061.07984,571.530463 C1066.0617,570.913775 1070.79188,567.547542 1073.33226,561.08667 C1078.16684,548.787913 1071.22404,545.89487 1068.48937,539.995387 Z" id="Shape" fill="#FDA066"></path>
        </g>
    </g>
</svg>