<?xml version="1.0" encoding="UTF-8"?>
<svg width="1920px" height="1080px" viewBox="0 0 1920 1080" version="1.1" xmlns="http://www.w3.org/2000/svg" xmlns:xlink="http://www.w3.org/1999/xlink">
    <!-- Generator: Sketch 46.2 (44496) - http://www.bohemiancoding.com/sketch -->
    <title>houseWithRod</title>
    <desc>Created with Sketch.</desc>
    <defs></defs>
    <g id="Actual-Slides" stroke="none" stroke-width="1" fill="none" fill-rule="evenodd">
        <g id="houseWithRod">
            <path d="M1098,395.06 L1095,395.06 C1095.5359,395.06 1096.05128,395.018 1096.53846,395 C1097.02308,395.06 1097.51538,395.06 1098,395.06 Z" id="Shape" fill="#FFFFFF" fill-rule="nonzero"></path>
            <g id="Group" transform="translate(725.000000, 511.000000)" fill-rule="nonzero">
                <path d="M142.5,40 L24,151.645223 L24,290 L104.031906,290 L104.031906,200.763854 C104.031906,179.570459 121.256274,162.38375 142.5,162.38375 C163.743726,162.38375 180.963019,179.575524 180.963019,200.763854 L180.963019,290 L261,290 L261,151.645223 L142.5,40 Z" id="Shape" fill="#FFFFFF"></path>
                <polygon id="Shape" fill="#FF5858" points="194 39 286.867797 127 449 127 353.894915 39"></polygon>
                <polygon id="Shape" fill="#FF5858" points="449 132.593598 449 149.595245 293.26794 149.595245 285.203898 149.595245 270.971142 149.595245 270.778052 149.595245 270.778052 149.422999 142.60703 28.780202 0 163 0 134.2046 142.60703 0 283.491495 132.593598"></polygon>
                <path d="M271,156 L271,272 L437,272 L437,156 L271,156 Z M405.505465,240.187207 L304.21733,240.187207 L304.21733,184.626977 L405.505465,184.626977 L405.505465,240.187207 Z" id="Shape" fill="#FFFFFF"></path>
            </g>
            <g id="noun_634617" transform="translate(506.000000, 763.000000)"></g>
            <g id="Group" transform="translate(1256.000000, 462.000000)" stroke="#FFFFFF" stroke-width="7">
                <path d="M45.3333333,0.47770266 L45.3333333,330" id="Shape"></path>
                <path d="M0,331 L91,331" id="Shape"></path>
                <path d="M13,347 L79,347" id="Shape"></path>
                <path d="M25,362 L66,362" id="Shape"></path>
                <path d="M38,377 L54,377" id="Shape"></path>
            </g>
        </g>
    </g>
</svg>