<?xml version="1.0" encoding="UTF-8"?>
<svg width="1920px" height="1080px" viewBox="0 0 1920 1080" version="1.1" xmlns="http://www.w3.org/2000/svg" xmlns:xlink="http://www.w3.org/1999/xlink">
    <!-- Generator: Sketch 46.2 (44496) - http://www.bohemiancoding.com/sketch -->
    <title>houseOnStartingFire</title>
    <desc>Created with Sketch.</desc>
    <defs></defs>
    <g id="Actual-Slides" stroke="none" stroke-width="1" fill="none" fill-rule="evenodd">
        <g id="houseOnStartingFire" fill-rule="nonzero">
            <g id="Group" transform="translate(724.000000, 511.000000)">
                <path d="M142.5,40 L24,151.645223 L24,290 L104.031906,290 L104.031906,200.763854 C104.031906,179.570459 121.256274,162.38375 142.5,162.38375 C163.743726,162.38375 180.963019,179.575524 180.963019,200.763854 L180.963019,290 L261,290 L261,151.645223 L142.5,40 Z" id="Shape" fill="#FFFFFF"></path>
                <polygon id="Shape" fill="#FF5858" points="194 39 286.867797 127 449 127 353.894915 39"></polygon>
                <polygon id="Shape" fill="#FF5858" points="449 132.593598 449 149.595245 293.26794 149.595245 285.203898 149.595245 270.971142 149.595245 270.778052 149.595245 270.778052 149.422999 142.60703 28.780202 0 163 0 134.2046 142.60703 0 283.491495 132.593598"></polygon>
                <path d="M271,156 L271,272 L437,272 L437,156 L271,156 Z M405.505465,240.187207 L304.21733,240.187207 L304.21733,184.626977 L405.505465,184.626977 L405.505465,240.187207 Z" id="Shape" fill="#FFFFFF"></path>
            </g>
            <path d="M1060.13754,510.514803 C1054.7349,498.996764 1056.60362,489.458986 1056.60362,489.458986 C1056.60362,489.458986 1046.02238,499.104729 1047.66708,513.263115 C1048.22032,518.027221 1050.21608,523.433647 1052.00285,528.779941 C1050.16417,533.026091 1046.91986,537.285907 1041.40248,536.327892 C1030.93052,534.508895 1034.56551,526.134127 1036.76755,518.89367 C1038.96958,511.651847 1033.51231,505.868228 1033.51231,505.868228 C1033.51231,505.868228 1028.59324,518.434479 1024.39818,508.647973 C1020.20311,498.861467 1041.85327,488.746967 1039.32338,474.199088 C1036.79487,459.651209 1026.75184,450 1026.75184,450 C1026.75184,450 1033.24456,459.043054 1029.04676,470.469528 C1024.84896,481.896002 1016.68012,480.862823 1009.08228,494.742415 C1001.48444,508.622007 1012.74597,521.130859 1007.38158,524.1566 C996.326324,530.393943 998.408148,507.81569 998.408148,507.81569 C998.408148,507.81569 984.62084,524.537892 997.49291,550.760973 C1011.37311,579.03948 1043.82991,572.444078 1045.49919,572.083285 C1055.34142,570.879275 1064.6864,564.307105 1069.70519,551.693021 C1079.25645,527.681163 1065.54017,522.032842 1060.13754,510.514803 Z" id="Shape" fill="#FDA066"></path>
        </g>
    </g>
</svg>