<?xml version="1.0" encoding="UTF-8"?>
<svg width="1920px" height="1080px" viewBox="0 0 1920 1080" version="1.1" xmlns="http://www.w3.org/2000/svg" xmlns:xlink="http://www.w3.org/1999/xlink">
    <!-- Generator: Sketch 46.2 (44496) - http://www.bohemiancoding.com/sketch -->
    <title>humanCallFireDepartment</title>
    <desc>Created with Sketch.</desc>
    <defs></defs>
    <g id="Actual-Slides" stroke="none" stroke-width="1" fill="none" fill-rule="evenodd">
        <g id="humanCallFireDepartment" fill-rule="nonzero">
            <g id="noun_253798" transform="translate(960.000000, 202.000000)" fill="#292929">
                <path d="M241.498605,0 C108.121122,0 0,81.8042635 0,182.720025 C0,197.740545 2.46319157,212.315001 6.9793971,226.277533 C18.0218312,260.423273 41.6804641,290.818751 74.0811329,314.404692 C74.5773009,318.436083 74.8021202,322.556654 74.8021202,326.703663 C74.8021202,380.020653 36.7484396,441 36.7484396,441 C105.58252,435.229087 178.99553,359.576257 178.99553,359.576257 C178.99553,359.576257 178.843301,359.430666 178.595915,359.202433 C198.64397,363.286864 219.737222,365.462787 241.4986,365.462787 C329.521633,365.462787 406.51558,329.825658 448.722511,276.584814 C470.469812,249.145985 483,217.047476 483,182.720025 C483.000005,81.8042635 374.876078,0 241.498605,0 Z" id="Shape"></path>
            </g>
            <g id="noun_1142898" transform="translate(588.000000, 471.000000)">
                <path d="M109.618087,299.060548 C182.287849,371.95964 238.141452,390.254066 303.970455,324.217402 C314.27444,313.606568 323.909906,300.195413 310.239825,286.482209 L256.949694,245.60231 C240.132294,236.526051 233.561381,242.97952 225.602535,251.891546 C196.510745,284.467343 165.122623,273.657277 144.099931,251.891546 L112.752772,220.445501 C91.0555303,199.356491 80.2794139,167.869354 112.752816,138.685791 C121.636773,130.701839 128.069903,124.110242 119.02223,107.239746 L78.270928,53.7815528 C64.6008027,40.0683042 51.2318217,49.7340763 40.654355,60.0706996 C-25.1746479,126.107364 -6.93775087,182.137072 65.7320556,255.036164 L109.618087,299.060548 Z" id="Shape" fill="#FFFFFF"></path>
                <path d="M159.001488,9.3551989 C159.255176,13.9998283 163.704753,17.9943071 168.341342,17.7397461 C271.142909,17.7397461 354.289822,101.027756 354.289822,204.003886 C354.223412,208.689759 358.466143,213 363.144526,213 C367.823352,213 372.065641,208.689759 371.999231,204.003886 C371.999231,91.4409182 280.713782,0.000304243012 168.341342,0.000304243012 C163.037949,-0.0440443616 158.912764,4.76777924 159.001488,9.3551989 Z M159.001488,62.5735245 C159.255176,67.2181538 163.704753,71.2126326 168.341342,70.9580717 C241.800943,70.9580717 301.161596,130.41935 301.161596,204.003886 C301.095186,208.689759 305.337917,213 310.016301,213 C314.695126,213 318.937415,208.689759 318.871005,204.003886 C318.871005,120.832512 251.371815,53.2186298 168.341342,53.2186298 C162.811446,53.2629784 158.912631,58.296545 159.001488,62.5735245 Z" id="Shape" fill="#3AB1EB"></path>
            </g>
            <g id="Firetruck" transform="translate(1061.000000, 293.000000)">
                <path d="M287,61.0008084 L275.077912,61.0008084 L275.077912,36.9991916 L287,36.9991916 L287,25 L132,25 L132,36.9991916 L143.925301,36.9991916 L143.925301,61.0008084 L132,61.0008084 L132,73 L287,73 L287,61.0008084 Z M167.769478,61.0008084 L155.847389,61.0008084 L155.847389,36.9991916 L167.769478,36.9991916 L167.769478,61.0008084 Z M191.613655,61.0008084 L179.691566,61.0008084 L179.691566,36.9991916 L191.613655,36.9991916 L191.613655,61.0008084 Z M215.461044,61.0008084 L203.538956,61.0008084 L203.538956,36.9991916 L215.461044,36.9991916 L215.461044,61.0008084 Z M239.308434,61.0008084 L227.383133,61.0008084 L227.383133,36.9991916 L239.308434,36.9991916 L239.308434,61.0008084 Z M263.155823,61.0008084 L251.230522,61.0008084 L251.230522,36.9991916 L263.155823,36.9991916 L263.155823,61.0008084 Z" id="Shape" fill="#FFFFFF" transform="translate(209.500000, 49.000000) scale(-1, 1) translate(-209.500000, -49.000000) "></path>
                <path d="M231.5,119 C215.204732,119 202,132.211091 202,148.5 C202,164.795268 215.204732,178 231.5,178 C247.795268,178 261,164.795268 261,148.5 C261,132.21427 247.795268,119 231.5,119 M231.5,161.777862 C224.180642,161.777862 218.222138,155.825717 218.222138,148.50318 C218.222138,141.187002 224.180642,135.228498 231.5,135.228498 C238.819358,135.228498 244.774682,141.187002 244.774682,148.50318 C244.774682,155.825717 238.819358,161.777862 231.5,161.777862" id="Shape" fill="#ACACAC" transform="translate(231.500000, 148.500000) scale(-1, 1) translate(-231.500000, -148.500000) "></path>
                <path d="M52.5,119 C36.2047316,119 23,132.211091 23,148.5 C23,164.795268 36.2047316,178 52.5,178 C68.7952684,178 82,164.795268 82,148.5 C82,132.21427 68.7952684,119 52.5,119 M52.5,161.777862 C45.1806424,161.777862 39.225318,155.825717 39.225318,148.50318 C39.225318,141.187002 45.1806424,135.228498 52.5,135.228498 C59.8193576,135.228498 65.7778616,141.187002 65.7778616,148.50318 C65.7778616,155.825717 59.8193576,161.777862 52.5,161.777862" id="Shape" fill="#ACACAC" transform="translate(52.500000, 148.500000) scale(-1, 1) translate(-52.500000, -148.500000) "></path>
                <path d="M275.166033,23.8436826 L251.494911,23.8436826 L251.494911,0 L227.823789,0 L227.823789,23.8436826 L186.400122,23.8436826 C176.600667,23.8436826 168.650767,31.8558282 168.650767,41.7280509 L168.650767,107.302997 L168.650767,131.149892 L156.813611,131.149892 L156.813611,107.302997 L156.813611,83.4593144 L2.95928889,83.4593144 L2.95928889,107.302997 L20.7118333,107.302997 C3.45675556,107.30621 0,155 0,155 L15.2684,155 C14.9909667,153.043546 14.7964444,151.064604 14.7964444,149.037473 C14.7964444,125.996933 33.3430222,107.30621 56.2169222,107.30621 C79.0908222,107.30621 97.6374,125.99372 97.6374,149.037473 C97.6374,151.064604 97.4524444,153.043546 97.1750111,155 L192.790656,155 C192.513222,153.043546 192.3187,151.064604 192.3187,149.037473 C192.3187,125.996933 210.865278,107.30621 233.739178,107.30621 C256.613078,107.30621 275.162844,125.99372 275.162844,149.037473 C275.162844,151.064604 274.9747,153.043546 274.697267,155 L287,155 L287,107.30621 L275.166033,23.8436826 Z M204.155856,59.6156317 L180.484733,59.6156317 L180.484733,35.7687365 L204.155856,35.7687365 L204.155856,59.6156317 Z M215.989822,83.4625269 L215.989822,35.7687365 L227.823789,35.7687365 L251.494911,35.7687365 L263.328878,35.7687365 L269.244267,83.4625269 L215.989822,83.4625269 L215.989822,83.4625269 Z" id="Shape" fill="#FF5858" transform="translate(143.500000, 77.500000) scale(-1, 1) translate(-143.500000, -77.500000) "></path>
            </g>
        </g>
    </g>
</svg>