<?xml version="1.0" encoding="UTF-8"?>
<svg width="1920px" height="1080px" viewBox="0 0 1920 1080" version="1.1" xmlns="http://www.w3.org/2000/svg" xmlns:xlink="http://www.w3.org/1999/xlink">
    <!-- Generator: Sketch 46.2 (44496) - http://www.bohemiancoding.com/sketch -->
    <title>kafka00</title>
    <desc>Created with Sketch.</desc>
    <defs></defs>
    <g id="Actual-Slides" stroke="none" stroke-width="1" fill="none" fill-rule="evenodd">
        <g id="kafka00">
            <g id="Group-2" transform="translate(307.000000, 455.000000)">
                <g id="Group">
                    <rect id="Rectangle-10" fill="#FFFFFF" x="34" y="0" width="340" height="170"></rect>
                    <ellipse id="Oval-5" stroke="#ACACAC" stroke-width="5" fill="#FFFFFF" cx="365.5" cy="85" rx="34" ry="85"></ellipse>
                    <ellipse id="Oval-5-Copy" fill="#FFFFFF" cx="34" cy="85" rx="34" ry="85"></ellipse>
                    <g id="Basket" transform="translate(123.000000, 43.000000)" fill-rule="nonzero" fill="#1E1E1E">
                        <path d="M98.3208955,29.9135899 L88.745709,29.9135899 C89.1675373,29.9135899 89.4149254,31.4262739 89.4149254,32.419774 C89.4149254,34.1279532 88.7552239,35.5829501 87.5563433,36.7943792 L83.9977612,40.3164973 C82.7988806,41.5279264 81.2067164,42.15287 79.5130597,42.15287 C77.819403,42.15287 76.2272388,41.7779038 75.0283582,40.5664747 L64.2003731,29.9135899 L34.1205224,29.9135899 L23.2925373,40.5472457 C22.0936567,41.7618796 20.5014925,42.271449 18.8078358,42.271449 C17.1141791,42.271449 15.5220149,41.5311312 14.3231343,40.3197021 L10.7645522,36.6822099 C9.56567164,35.4707807 8.90597015,34.1535919 8.90597015,32.4422079 C8.90597015,31.445503 9.15335821,29.9167948 9.57518657,29.9167948 L3.17164179,29.9167948 C1.41772388,29.9167948 0,30.7340287 0,32.5063047 L0,38.9159826 C0,40.6882586 1.41772388,42.7361507 3.17164179,42.7361507 L6.34328358,42.7361507 L14.6085821,78.9348069 C15.3380597,82.1332362 18.1576493,84.3990573 21.4085821,84.3990573 L76.9123134,84.3990573 C80.1600746,84.3990573 82.9796642,82.1332362 83.7123134,78.9348069 L91.9776119,42.7329458 L98.3208955,42.7329458 C100.074813,42.7329458 101.492537,40.6818489 101.492537,38.9127778 L101.492537,32.5030998 C101.492537,30.7308239 100.074813,29.9135899 98.3208955,29.9135899 Z M25.3731343,64.5514896 L19.0298507,64.5514896 L19.0298507,58.1418116 L25.3731343,58.1418116 L25.3731343,64.5514896 Z M25.3731343,51.7321337 L19.0298507,51.7321337 L19.0298507,45.3224557 L25.3731343,45.3224557 L25.3731343,51.7321337 Z M38.0597015,77.3708455 L31.7164179,77.3708455 L31.7164179,70.9611675 L38.0597015,70.9611675 L38.0597015,77.3708455 Z M38.0597015,64.5514896 L31.7164179,64.5514896 L31.7164179,58.1418116 L38.0597015,58.1418116 L38.0597015,64.5514896 Z M38.0597015,51.7321337 L31.7164179,51.7321337 L31.7164179,45.3224557 L38.0597015,45.3224557 L38.0597015,51.7321337 Z M50.7462687,77.3708455 L44.4029851,77.3708455 L44.4029851,70.9611675 L50.7462687,70.9611675 L50.7462687,77.3708455 Z M50.7462687,64.5514896 L44.4029851,64.5514896 L44.4029851,58.1418116 L50.7462687,58.1418116 L50.7462687,64.5514896 Z M50.7462687,51.7321337 L44.4029851,51.7321337 L44.4029851,45.3224557 L50.7462687,45.3224557 L50.7462687,51.7321337 Z M63.4328358,77.3708455 L57.0895522,77.3708455 L57.0895522,70.9611675 L63.4328358,70.9611675 L63.4328358,77.3708455 Z M63.4328358,64.5514896 L57.0895522,64.5514896 L57.0895522,58.1418116 L63.4328358,58.1418116 L63.4328358,64.5514896 Z M63.4328358,51.7321337 L57.0895522,51.7321337 L57.0895522,45.3224557 L63.4328358,45.3224557 L63.4328358,51.7321337 Z M76.119403,64.5514896 L69.7761194,64.5514896 L69.7761194,58.1418116 L76.119403,58.1418116 L76.119403,64.5514896 Z M76.119403,51.7321337 L69.7761194,51.7321337 L69.7761194,45.3224557 L76.119403,45.3224557 L76.119403,51.7321337 Z" id="Shape"></path>
                        <path d="M17.2807506,37.5360644 C17.8702487,38.1291085 18.6709573,38.4603299 19.5094947,38.4603299 C20.3480321,38.4603299 21.1487407,38.1291085 21.7382388,37.5360644 L49.6779262,9.57466558 L77.6176135,37.5360644 C78.210264,38.1291085 79.0109726,38.4603299 79.8463576,38.4603299 C80.6817426,38.4603299 81.4856037,38.1291085 82.0751017,37.5360644 L85.6120903,33.9967267 C86.2047407,33.4036826 86.5357423,32.6055966 86.5357423,31.7665023 C86.5357423,30.927408 86.2047407,30.1261675 85.6120903,29.5362779 L57.0167045,0.925054174 C55.7841176,-0.308351391 53.7918032,-0.308351391 52.5592163,0.925054174 L49.6779262,3.80825798 L46.796636,0.925054174 C45.5640491,-0.308351391 43.5717348,-0.308351391 42.3391478,0.925054174 L13.7437621,29.5362779 C13.1511116,30.1261675 12.82011,30.927408 12.82011,31.7665023 C12.82011,32.6055966 13.1511116,33.4068371 13.7437621,33.9967267 L17.2807506,37.5360644 Z M79.6256899,28.9968601 C81.368965,28.9968601 82.7780861,30.4069171 82.7780861,32.1513501 C82.7780861,33.895783 81.368965,35.30584 79.6256899,35.30584 C77.8824148,35.30584 76.4732937,33.895783 76.4732937,32.1513501 C76.4732937,30.4069171 77.8824148,28.9968601 79.6256899,28.9968601 Z M19.7301624,28.9968601 C21.4734375,28.9968601 22.8825586,30.4069171 22.8825586,32.1513501 C22.8825586,33.895783 21.4734375,35.30584 19.7301624,35.30584 C17.9868873,35.30584 16.5777662,33.895783 16.5777662,32.1513501 C16.5777662,30.4069171 17.9868873,28.9968601 19.7301624,28.9968601 Z" id="Shape"></path>
                    </g>
                </g>
                <g id="Group-Copy" transform="translate(907.000000, 0.000000)">
                    <rect id="Rectangle-10" fill="#FFFFFF" x="34" y="0" width="340" height="170"></rect>
                    <ellipse id="Oval-5" stroke="#ACACAC" stroke-width="5" fill="#FFFFFF" cx="365.5" cy="85" rx="34" ry="85"></ellipse>
                    <ellipse id="Oval-5-Copy" fill="#FFFFFF" cx="34" cy="85" rx="34" ry="85"></ellipse>
                    <g id="Ship" transform="translate(106.000000, 41.000000)" fill-rule="nonzero" fill="#2E2E2E">
                        <path d="M131.244805,47.3763078 L117.426822,47.3763078 C116.605951,47.3763078 115.921893,48.0531122 115.921893,48.8652774 L115.921893,49.8128036 C115.921893,51.1664124 114.827399,52.2492994 113.459282,52.2492994 L45.4638572,52.2492994 C44.09574,52.2492994 43.0012463,51.1664124 43.0012463,49.8128036 L43.0012463,48.4591948 L43.0012463,29.2379499 L28.7728274,29.2379499 L28.7728274,24.63568 L43.0012463,24.63568 L43.0012463,22.0638233 L43.0012463,20.3041319 C43.0012463,19.2212449 42.0435642,18.2737187 40.9490705,18.2737187 L40.2650119,18.2737187 C39.4441416,18.2737187 38.760083,17.5969143 38.760083,16.784749 L38.760083,13.9421706 C38.760083,12.8592835 37.9392126,12.0471183 36.8447189,12.0471183 L33.5612376,12.0471183 C32.4667439,12.0471183 31.6458735,12.8592835 31.6458735,13.9421706 L31.6458735,16.784749 C31.6458735,17.5969143 30.9618149,18.2737187 30.1409446,18.2737187 L29.456886,18.2737187 C28.6360157,18.2737187 27.9519571,17.5969143 27.9519571,16.784749 L27.9519571,1.89505231 C27.9519571,0.812165276 27.1310868,0 26.036593,0 L23.0267352,0 C21.9322414,0 21.1113711,0.812165276 21.1113711,1.89505231 L21.1113711,16.784749 C21.1113711,17.5969143 20.4273125,18.2737187 19.6064422,18.2737187 L18.1015133,18.2737187 C17.0070195,18.2737187 16.0493375,19.2212449 16.0493375,20.3041319 L16.0493375,44.8044511 C16.0493375,46.1580599 14.9548437,47.2409469 13.5867265,47.2409469 L2.0945421,47.2409469 C0.863236622,47.2409469 -0.231257135,48.3238339 0.0423663039,49.6774427 L5.78845853,85.8187975 C6.06208197,87.5784889 7.56701088,88.7967368 9.20875152,88.7967368 L104.156085,88.7967368 C105.38739,88.7967368 106.481884,88.2552933 107.029131,87.3077672 L132.339299,49.6774427 C133.16017,48.7299166 132.339299,47.3763078 131.244805,47.3763078 Z M24.5316641,69.3047702 C22.4794883,69.3047702 20.700936,67.5450788 20.700936,65.5146656 C20.700936,63.4842524 22.4794883,61.724561 24.5316641,61.724561 C26.5838399,61.724561 28.3623923,63.4842524 28.3623923,65.5146656 C28.3623923,67.5450788 26.7206516,69.3047702 24.5316641,69.3047702 Z M49.1577737,69.3047702 C47.1055979,69.3047702 45.3270455,67.5450788 45.3270455,65.5146656 C45.3270455,63.4842524 47.1055979,61.724561 49.1577737,61.724561 C51.2099494,61.724561 52.9885018,63.4842524 52.9885018,65.5146656 C52.8516901,67.5450788 51.2099494,69.3047702 49.1577737,69.3047702 Z M70.2267785,69.3047702 C68.1746027,69.3047702 66.3960503,67.5450788 66.3960503,65.5146656 C66.3960503,63.4842524 68.1746027,61.724561 70.2267785,61.724561 C72.2789543,61.724561 74.0575066,63.4842524 74.0575066,65.5146656 C74.0575066,67.5450788 72.2789543,69.3047702 70.2267785,69.3047702 Z M91.2957833,69.3047702 C89.2436075,69.3047702 87.4650552,67.5450788 87.4650552,65.5146656 C87.4650552,63.4842524 89.2436075,61.724561 91.2957833,61.724561 C93.3479591,61.724561 95.1265115,63.4842524 95.1265115,65.5146656 C95.1265115,67.5450788 93.3479591,69.3047702 91.2957833,69.3047702 Z" id="Shape"></path>
                        <path d="M75.1173295,35.852459 L55.139531,35.852459 C54.05965,35.852459 53.1147541,36.827482 53.1147541,37.941794 L53.1147541,48.3884689 C53.1147541,49.5027809 54.05965,50.4778039 55.139531,50.4778039 L75.1173295,50.4778039 C76.1972105,50.4778039 77.1421064,49.5027809 77.1421064,48.3884689 L77.1421064,37.941794 C77.1421064,36.827482 76.3321957,35.852459 75.1173295,35.852459 Z" id="Shape"></path>
                        <path d="M101.797817,35.852459 L81.6958219,35.852459 C80.6165202,35.852459 79.6721311,36.827482 79.6721311,37.941794 L79.6721311,48.3884689 C79.6721311,49.5027809 80.6165202,50.4778039 81.6958219,50.4778039 L101.662904,50.4778039 C102.742206,50.4778039 103.686595,49.5027809 103.686595,48.3884689 L103.686595,37.941794 C103.821508,36.827482 102.877119,35.852459 101.797817,35.852459 Z" id="Shape"></path>
                        <path d="M75.1173295,18.5901639 L55.139531,18.5901639 C54.05965,18.5901639 53.1147541,19.5651869 53.1147541,20.6794989 L53.1147541,31.1261738 C53.1147541,32.2404858 54.05965,33.2155088 55.139531,33.2155088 L75.1173295,33.2155088 C76.1972105,33.2155088 77.1421064,32.2404858 77.1421064,31.1261738 L77.1421064,20.6794989 C77.1421064,19.4258979 76.3321957,18.5901639 75.1173295,18.5901639 Z" id="Shape"></path>
                        <path d="M101.797817,18.5901639 L81.6958219,18.5901639 C80.6165202,18.5901639 79.6721311,19.5651869 79.6721311,20.6794989 L79.6721311,31.1261738 C79.6721311,32.2404858 80.6165202,33.2155088 81.6958219,33.2155088 L101.662904,33.2155088 C102.742206,33.2155088 103.686595,32.2404858 103.686595,31.1261738 L103.686595,20.6794989 C103.821508,19.4258979 102.877119,18.5901639 101.797817,18.5901639 Z" id="Shape"></path>
                    </g>
                </g>
                <g id="cog-circle" transform="translate(567.000000, 0.000000)" fill-rule="nonzero">
                    <circle id="Oval-3" fill="#FFFFFF" cx="85" cy="85" r="85"></circle>
                    <path d="M41.5390784,125.019176 C39.3540798,126.205687 36.5742485,125.418192 35.3179383,123.239071 L26.1320514,107.305783 C24.881209,105.136147 25.5890813,102.322269 27.7043628,101.026181 L34.0724911,97.1242629 C36.1916972,95.8257704 37.9085596,92.7465987 37.9072244,90.2725643 L37.9008895,78.5323279 C37.8995484,76.0467319 36.1765344,72.9766886 34.0611957,71.6805656 L27.6928952,67.7785423 C25.5736321,66.4800147 24.8652472,63.6786415 26.1228996,61.5003237 L35.3185994,45.5729047 C36.5707777,43.4040675 39.3605494,42.6095756 41.540694,43.7934513 L48.1040957,47.3575492 C50.2882854,48.5436213 53.8144987,48.4928018 55.9577424,47.2569407 L66.1282533,41.3923089 C68.2815132,40.1506721 70.0798273,37.1254146 70.1446316,34.6454833 L70.3397273,27.1795631 C70.4046522,24.6950306 72.4765377,22.6796638 74.9918669,22.6781002 L93.3834424,22.6666676 C95.8878234,22.6651107 97.9707985,24.6833636 98.0356284,27.1642807 L98.230802,34.6331682 C98.2957522,37.1186881 100.103787,40.1470703 102.246792,41.3843349 L112.416167,47.2556265 C114.569187,48.498673 118.089891,48.5423064 120.270844,47.3579924 L126.836677,43.7925738 C129.021676,42.6060625 131.801507,43.3935578 133.057817,45.5726784 L142.243704,61.5059667 C143.494546,63.6756025 142.786674,66.4894809 140.671393,67.7855686 L134.303264,71.6874868 C132.184058,72.9859796 130.467196,76.0651512 130.468531,78.5391853 L130.474866,90.2794221 C130.476207,92.7650181 132.199221,95.8350608 134.31456,97.131184 L140.68286,101.033207 C142.802123,102.331735 143.510508,105.133108 142.252856,107.311426 L133.057156,123.238845 C131.804978,125.407682 129.015206,126.202174 126.835061,125.018299 L120.27166,121.4542 C118.08747,120.268128 114.561257,120.318948 112.418013,121.554809 L102.247502,127.419441 C100.094242,128.661078 98.2959284,131.686335 98.2311238,134.166267 L98.0360278,141.632187 C97.9711032,144.116719 95.8992177,146.132086 93.3838884,146.133649 L74.992313,146.145082 C72.487932,146.146639 70.4049572,144.128386 70.340127,141.647469 L70.1449534,134.178581 C70.0800032,131.693062 68.2719682,128.664679 66.1289633,127.427415 L55.9595883,121.556123 C53.8065686,120.313077 50.285864,120.269444 48.1049114,121.453757 L41.5390784,125.019176 Z M70.6378789,107.875161 C83.5996077,115.358619 100.173706,110.917602 107.657164,97.9558735 C115.140622,84.9941447 110.699605,68.4200463 97.7378762,60.9365885 C84.7761477,53.453131 68.202049,57.8941473 60.7185915,70.8558762 C53.2351337,83.817605 57.67615,100.391703 70.6378789,107.875161 Z" id="Shape" fill="#2E2E2E"></path>
                </g>
                <polygon id="Shape-Copy-2" fill="#FFFFFF" fill-rule="nonzero" transform="translate(481.500000, 84.937515) scale(-1, 1) rotate(-270.000000) translate(-481.500000, -84.937515) " points="481.499985 160.437515 483.437485 158.750015 504.437515 140.750015 500.562515 136.218815 484.500015 150.000015 484.562485 9.437515 478.562455 9.437515 478.499985 150.000015 462.437485 136.218815 458.562485 140.750015 479.562485 158.750015"></polygon>
                <polygon id="Shape-Copy-3" fill="#FFFFFF" fill-rule="nonzero" transform="translate(822.500000, 84.937515) scale(-1, 1) rotate(-270.000000) translate(-822.500000, -84.937515) " points="822.499985 160.437515 824.437485 158.750015 845.437515 140.750015 841.562515 136.218815 825.500015 150.000015 825.562485 9.437515 819.562455 9.437515 819.499985 150.000015 803.437485 136.218815 799.562485 140.750015 820.562485 158.750015"></polygon>
            </g>
        </g>
    </g>
</svg>