<?xml version="1.0" encoding="UTF-8"?>
<svg width="1920px" height="1080px" viewBox="0 0 1920 1080" version="1.1" xmlns="http://www.w3.org/2000/svg" xmlns:xlink="http://www.w3.org/1999/xlink">
    <!-- Generator: Sketch 46.2 (44496) - http://www.bohemiancoding.com/sketch -->
    <title>kafka08</title>
    <desc>Created with Sketch.</desc>
    <defs>
        <rect id="path-1" x="0" y="0" width="50" height="270"></rect>
        <rect id="path-3" x="0" y="0" width="50" height="270"></rect>
        <rect id="path-5" x="0" y="0" width="50" height="270"></rect>
        <rect id="path-7" x="0" y="0" width="50" height="270"></rect>
        <rect id="path-9" x="0" y="0" width="50" height="270"></rect>
        <rect id="path-11" x="0" y="0" width="50" height="270"></rect>
        <rect id="path-13" x="0" y="0" width="50" height="270"></rect>
        <rect id="path-15" x="0" y="0" width="50" height="270"></rect>
        <rect id="path-17" x="0" y="0" width="50" height="270"></rect>
        <rect id="path-19" x="0" y="0" width="50" height="270"></rect>
        <filter x="-5.3%" y="-4.0%" width="110.7%" height="110.7%" filterUnits="objectBoundingBox" id="filter-21">
            <feOffset dx="0" dy="2" in="SourceAlpha" result="shadowOffsetOuter1"></feOffset>
            <feGaussianBlur stdDeviation="2" in="shadowOffsetOuter1" result="shadowBlurOuter1"></feGaussianBlur>
            <feColorMatrix values="0 0 0 0 0   0 0 0 0 0   0 0 0 0 0  0 0 0 0.5 0" type="matrix" in="shadowBlurOuter1" result="shadowMatrixOuter1"></feColorMatrix>
            <feMerge>
                <feMergeNode in="shadowMatrixOuter1"></feMergeNode>
                <feMergeNode in="SourceGraphic"></feMergeNode>
            </feMerge>
        </filter>
        <filter x="-5.3%" y="-4.0%" width="110.7%" height="110.7%" filterUnits="objectBoundingBox" id="filter-22">
            <feOffset dx="0" dy="2" in="SourceAlpha" result="shadowOffsetOuter1"></feOffset>
            <feGaussianBlur stdDeviation="2" in="shadowOffsetOuter1" result="shadowBlurOuter1"></feGaussianBlur>
            <feColorMatrix values="0 0 0 0 0   0 0 0 0 0   0 0 0 0 0  0 0 0 0.5 0" type="matrix" in="shadowBlurOuter1" result="shadowMatrixOuter1"></feColorMatrix>
            <feMerge>
                <feMergeNode in="shadowMatrixOuter1"></feMergeNode>
                <feMergeNode in="SourceGraphic"></feMergeNode>
            </feMerge>
        </filter>
    </defs>
    <g id="Actual-Slides" stroke="none" stroke-width="1" fill="none" fill-rule="evenodd">
        <g id="kafka08">
            <g id="Borders" transform="translate(590.000000, 0.000000)">
                <g id="Borders-Copy" transform="translate(690.000000, 0.000000)">
                    <g id="Lines-Copy">
                        <mask id="mask-2" fill="white">
                            <use xlink:href="#path-1"></use>
                        </mask>
                        <use id="Mask" fill="#1E1E1E" xlink:href="#path-1"></use>
                        <g id="Group-2" mask="url(#mask-2)" fill="#FFE859">
                            <g transform="translate(-224.000000, -36.000000)">
                                <rect id="Rectangle-3" transform="translate(367.265677, 185.487836) rotate(-45.000000) translate(-367.265677, -185.487836) " x="158.585677" y="163.15713" width="417.36" height="44.6614126"></rect>
                                <rect id="Rectangle-3-Copy" transform="translate(276.157984, 163.807539) rotate(-45.000000) translate(-276.157984, -163.807539) " x="67.4779843" y="141.476832" width="417.36" height="44.6614126"></rect>
                                <rect id="Rectangle-3-Copy-2" transform="translate(163.357984, 163.807539) rotate(-45.000000) translate(-163.357984, -163.807539) " x="-45.3220157" y="141.476832" width="417.36" height="44.6614126"></rect>
                                <rect id="Rectangle-3" transform="translate(480.065677, 185.487836) rotate(-45.000000) translate(-480.065677, -185.487836) " x="271.385677" y="163.15713" width="417.36" height="44.6614126"></rect>
                                <rect id="Rectangle-3-Copy" transform="translate(388.957984, 163.807539) rotate(-45.000000) translate(-388.957984, -163.807539) " x="180.277984" y="141.476832" width="417.36" height="44.6614126"></rect>
                                <rect id="Rectangle-3-Copy-2" transform="translate(276.157984, 163.807539) rotate(-45.000000) translate(-276.157984, -163.807539) " x="67.4779843" y="141.476832" width="417.36" height="44.6614126"></rect>
                                <rect id="Rectangle-3" transform="translate(592.865677, 185.487836) rotate(-45.000000) translate(-592.865677, -185.487836) " x="384.185677" y="163.15713" width="417.36" height="44.6614126"></rect>
                                <rect id="Rectangle-3-Copy-3" transform="translate(701.327215, 185.487836) rotate(-45.000000) translate(-701.327215, -185.487836) " x="492.647215" y="163.15713" width="417.36" height="44.6614126"></rect>
                                <rect id="Rectangle-3-Copy" transform="translate(501.757984, 163.807539) rotate(-45.000000) translate(-501.757984, -163.807539) " x="293.077984" y="141.476832" width="417.36" height="44.6614126"></rect>
                                <rect id="Rectangle-3-Copy-2" transform="translate(388.957984, 163.807539) rotate(-45.000000) translate(-388.957984, -163.807539) " x="180.277984" y="141.476832" width="417.36" height="44.6614126"></rect>
                            </g>
                        </g>
                    </g>
                    <g id="Lines-Copy-2" transform="translate(0.000000, 226.000000)">
                        <mask id="mask-4" fill="white">
                            <use xlink:href="#path-3"></use>
                        </mask>
                        <use id="Mask" fill="#1E1E1E" xlink:href="#path-3"></use>
                        <g id="Group-2" mask="url(#mask-4)" fill="#FFE859">
                            <g transform="translate(-223.864615, -36.529294)">
                                <rect id="Rectangle-3" transform="translate(367.265677, 185.487836) rotate(-45.000000) translate(-367.265677, -185.487836) " x="158.585677" y="163.15713" width="417.36" height="44.6614126"></rect>
                                <rect id="Rectangle-3-Copy" transform="translate(276.157984, 163.807539) rotate(-45.000000) translate(-276.157984, -163.807539) " x="67.4779843" y="141.476832" width="417.36" height="44.6614126"></rect>
                                <rect id="Rectangle-3-Copy-2" transform="translate(163.357984, 163.807539) rotate(-45.000000) translate(-163.357984, -163.807539) " x="-45.3220157" y="141.476832" width="417.36" height="44.6614126"></rect>
                                <rect id="Rectangle-3" transform="translate(480.065677, 185.487836) rotate(-45.000000) translate(-480.065677, -185.487836) " x="271.385677" y="163.15713" width="417.36" height="44.6614126"></rect>
                                <rect id="Rectangle-3-Copy" transform="translate(388.957984, 163.807539) rotate(-45.000000) translate(-388.957984, -163.807539) " x="180.277984" y="141.476832" width="417.36" height="44.6614126"></rect>
                                <rect id="Rectangle-3-Copy-2" transform="translate(276.157984, 163.807539) rotate(-45.000000) translate(-276.157984, -163.807539) " x="67.4779843" y="141.476832" width="417.36" height="44.6614126"></rect>
                                <rect id="Rectangle-3" transform="translate(592.865677, 185.487836) rotate(-45.000000) translate(-592.865677, -185.487836) " x="384.185677" y="163.15713" width="417.36" height="44.6614126"></rect>
                                <rect id="Rectangle-3-Copy-3" transform="translate(701.327215, 185.487836) rotate(-45.000000) translate(-701.327215, -185.487836) " x="492.647215" y="163.15713" width="417.36" height="44.6614126"></rect>
                                <rect id="Rectangle-3-Copy" transform="translate(501.757984, 163.807539) rotate(-45.000000) translate(-501.757984, -163.807539) " x="293.077984" y="141.476832" width="417.36" height="44.6614126"></rect>
                                <rect id="Rectangle-3-Copy-2" transform="translate(388.957984, 163.807539) rotate(-45.000000) translate(-388.957984, -163.807539) " x="180.277984" y="141.476832" width="417.36" height="44.6614126"></rect>
                            </g>
                        </g>
                    </g>
                    <g id="Lines-Copy-4" transform="translate(0.000000, 451.000000)">
                        <mask id="mask-6" fill="white">
                            <use xlink:href="#path-5"></use>
                        </mask>
                        <use id="Mask" fill="#1E1E1E" xlink:href="#path-5"></use>
                        <g id="Group-2" mask="url(#mask-6)" fill="#FFE859">
                            <g transform="translate(-224.000000, -36.000000)">
                                <rect id="Rectangle-3" transform="translate(367.265677, 185.487836) rotate(-45.000000) translate(-367.265677, -185.487836) " x="158.585677" y="163.15713" width="417.36" height="44.6614126"></rect>
                                <rect id="Rectangle-3-Copy" transform="translate(276.157984, 163.807539) rotate(-45.000000) translate(-276.157984, -163.807539) " x="67.4779843" y="141.476832" width="417.36" height="44.6614126"></rect>
                                <rect id="Rectangle-3-Copy-2" transform="translate(163.357984, 163.807539) rotate(-45.000000) translate(-163.357984, -163.807539) " x="-45.3220157" y="141.476832" width="417.36" height="44.6614126"></rect>
                                <rect id="Rectangle-3" transform="translate(480.065677, 185.487836) rotate(-45.000000) translate(-480.065677, -185.487836) " x="271.385677" y="163.15713" width="417.36" height="44.6614126"></rect>
                                <rect id="Rectangle-3-Copy" transform="translate(388.957984, 163.807539) rotate(-45.000000) translate(-388.957984, -163.807539) " x="180.277984" y="141.476832" width="417.36" height="44.6614126"></rect>
                                <rect id="Rectangle-3-Copy-2" transform="translate(276.157984, 163.807539) rotate(-45.000000) translate(-276.157984, -163.807539) " x="67.4779843" y="141.476832" width="417.36" height="44.6614126"></rect>
                                <rect id="Rectangle-3" transform="translate(592.865677, 185.487836) rotate(-45.000000) translate(-592.865677, -185.487836) " x="384.185677" y="163.15713" width="417.36" height="44.6614126"></rect>
                                <rect id="Rectangle-3-Copy-3" transform="translate(701.327215, 185.487836) rotate(-45.000000) translate(-701.327215, -185.487836) " x="492.647215" y="163.15713" width="417.36" height="44.6614126"></rect>
                                <rect id="Rectangle-3-Copy" transform="translate(501.757984, 163.807539) rotate(-45.000000) translate(-501.757984, -163.807539) " x="293.077984" y="141.476832" width="417.36" height="44.6614126"></rect>
                                <rect id="Rectangle-3-Copy-2" transform="translate(388.957984, 163.807539) rotate(-45.000000) translate(-388.957984, -163.807539) " x="180.277984" y="141.476832" width="417.36" height="44.6614126"></rect>
                            </g>
                        </g>
                    </g>
                    <g id="Lines-Copy-3" transform="translate(0.000000, 677.000000)">
                        <mask id="mask-8" fill="white">
                            <use xlink:href="#path-7"></use>
                        </mask>
                        <use id="Mask" fill="#1E1E1E" xlink:href="#path-7"></use>
                        <g id="Group-2" mask="url(#mask-8)" fill="#FFE859">
                            <g transform="translate(-223.864615, -36.529294)">
                                <rect id="Rectangle-3" transform="translate(367.265677, 185.487836) rotate(-45.000000) translate(-367.265677, -185.487836) " x="158.585677" y="163.15713" width="417.36" height="44.6614126"></rect>
                                <rect id="Rectangle-3-Copy" transform="translate(276.157984, 163.807539) rotate(-45.000000) translate(-276.157984, -163.807539) " x="67.4779843" y="141.476832" width="417.36" height="44.6614126"></rect>
                                <rect id="Rectangle-3-Copy-2" transform="translate(163.357984, 163.807539) rotate(-45.000000) translate(-163.357984, -163.807539) " x="-45.3220157" y="141.476832" width="417.36" height="44.6614126"></rect>
                                <rect id="Rectangle-3" transform="translate(480.065677, 185.487836) rotate(-45.000000) translate(-480.065677, -185.487836) " x="271.385677" y="163.15713" width="417.36" height="44.6614126"></rect>
                                <rect id="Rectangle-3-Copy" transform="translate(388.957984, 163.807539) rotate(-45.000000) translate(-388.957984, -163.807539) " x="180.277984" y="141.476832" width="417.36" height="44.6614126"></rect>
                                <rect id="Rectangle-3-Copy-2" transform="translate(276.157984, 163.807539) rotate(-45.000000) translate(-276.157984, -163.807539) " x="67.4779843" y="141.476832" width="417.36" height="44.6614126"></rect>
                                <rect id="Rectangle-3" transform="translate(592.865677, 185.487836) rotate(-45.000000) translate(-592.865677, -185.487836) " x="384.185677" y="163.15713" width="417.36" height="44.6614126"></rect>
                                <rect id="Rectangle-3-Copy-3" transform="translate(701.327215, 185.487836) rotate(-45.000000) translate(-701.327215, -185.487836) " x="492.647215" y="163.15713" width="417.36" height="44.6614126"></rect>
                                <rect id="Rectangle-3-Copy" transform="translate(501.757984, 163.807539) rotate(-45.000000) translate(-501.757984, -163.807539) " x="293.077984" y="141.476832" width="417.36" height="44.6614126"></rect>
                                <rect id="Rectangle-3-Copy-2" transform="translate(388.957984, 163.807539) rotate(-45.000000) translate(-388.957984, -163.807539) " x="180.277984" y="141.476832" width="417.36" height="44.6614126"></rect>
                            </g>
                        </g>
                    </g>
                    <g id="Lines-Copy-6" transform="translate(0.000000, 902.000000)">
                        <mask id="mask-10" fill="white">
                            <use xlink:href="#path-9"></use>
                        </mask>
                        <use id="Mask" fill="#1E1E1E" xlink:href="#path-9"></use>
                        <g id="Group-2" mask="url(#mask-10)" fill="#FFE859">
                            <g transform="translate(-224.000000, -36.000000)">
                                <rect id="Rectangle-3" transform="translate(367.265677, 185.487836) rotate(-45.000000) translate(-367.265677, -185.487836) " x="158.585677" y="163.15713" width="417.36" height="44.6614126"></rect>
                                <rect id="Rectangle-3-Copy" transform="translate(276.157984, 163.807539) rotate(-45.000000) translate(-276.157984, -163.807539) " x="67.4779843" y="141.476832" width="417.36" height="44.6614126"></rect>
                                <rect id="Rectangle-3-Copy-2" transform="translate(163.357984, 163.807539) rotate(-45.000000) translate(-163.357984, -163.807539) " x="-45.3220157" y="141.476832" width="417.36" height="44.6614126"></rect>
                                <rect id="Rectangle-3" transform="translate(480.065677, 185.487836) rotate(-45.000000) translate(-480.065677, -185.487836) " x="271.385677" y="163.15713" width="417.36" height="44.6614126"></rect>
                                <rect id="Rectangle-3-Copy" transform="translate(388.957984, 163.807539) rotate(-45.000000) translate(-388.957984, -163.807539) " x="180.277984" y="141.476832" width="417.36" height="44.6614126"></rect>
                                <rect id="Rectangle-3-Copy-2" transform="translate(276.157984, 163.807539) rotate(-45.000000) translate(-276.157984, -163.807539) " x="67.4779843" y="141.476832" width="417.36" height="44.6614126"></rect>
                                <rect id="Rectangle-3" transform="translate(592.865677, 185.487836) rotate(-45.000000) translate(-592.865677, -185.487836) " x="384.185677" y="163.15713" width="417.36" height="44.6614126"></rect>
                                <rect id="Rectangle-3-Copy-3" transform="translate(701.327215, 185.487836) rotate(-45.000000) translate(-701.327215, -185.487836) " x="492.647215" y="163.15713" width="417.36" height="44.6614126"></rect>
                                <rect id="Rectangle-3-Copy" transform="translate(501.757984, 163.807539) rotate(-45.000000) translate(-501.757984, -163.807539) " x="293.077984" y="141.476832" width="417.36" height="44.6614126"></rect>
                                <rect id="Rectangle-3-Copy-2" transform="translate(388.957984, 163.807539) rotate(-45.000000) translate(-388.957984, -163.807539) " x="180.277984" y="141.476832" width="417.36" height="44.6614126"></rect>
                            </g>
                        </g>
                    </g>
                </g>
                <g>
                    <g id="Lines-Copy">
                        <mask id="mask-12" fill="white">
                            <use xlink:href="#path-11"></use>
                        </mask>
                        <use id="Mask" fill="#1E1E1E" xlink:href="#path-11"></use>
                        <g id="Group-2" mask="url(#mask-12)" fill="#FFE859">
                            <g transform="translate(-224.000000, -36.000000)">
                                <rect id="Rectangle-3" transform="translate(367.265677, 185.487836) rotate(-45.000000) translate(-367.265677, -185.487836) " x="158.585677" y="163.15713" width="417.36" height="44.6614126"></rect>
                                <rect id="Rectangle-3-Copy" transform="translate(276.157984, 163.807539) rotate(-45.000000) translate(-276.157984, -163.807539) " x="67.4779843" y="141.476832" width="417.36" height="44.6614126"></rect>
                                <rect id="Rectangle-3-Copy-2" transform="translate(163.357984, 163.807539) rotate(-45.000000) translate(-163.357984, -163.807539) " x="-45.3220157" y="141.476832" width="417.36" height="44.6614126"></rect>
                                <rect id="Rectangle-3" transform="translate(480.065677, 185.487836) rotate(-45.000000) translate(-480.065677, -185.487836) " x="271.385677" y="163.15713" width="417.36" height="44.6614126"></rect>
                                <rect id="Rectangle-3-Copy" transform="translate(388.957984, 163.807539) rotate(-45.000000) translate(-388.957984, -163.807539) " x="180.277984" y="141.476832" width="417.36" height="44.6614126"></rect>
                                <rect id="Rectangle-3-Copy-2" transform="translate(276.157984, 163.807539) rotate(-45.000000) translate(-276.157984, -163.807539) " x="67.4779843" y="141.476832" width="417.36" height="44.6614126"></rect>
                                <rect id="Rectangle-3" transform="translate(592.865677, 185.487836) rotate(-45.000000) translate(-592.865677, -185.487836) " x="384.185677" y="163.15713" width="417.36" height="44.6614126"></rect>
                                <rect id="Rectangle-3-Copy-3" transform="translate(701.327215, 185.487836) rotate(-45.000000) translate(-701.327215, -185.487836) " x="492.647215" y="163.15713" width="417.36" height="44.6614126"></rect>
                                <rect id="Rectangle-3-Copy" transform="translate(501.757984, 163.807539) rotate(-45.000000) translate(-501.757984, -163.807539) " x="293.077984" y="141.476832" width="417.36" height="44.6614126"></rect>
                                <rect id="Rectangle-3-Copy-2" transform="translate(388.957984, 163.807539) rotate(-45.000000) translate(-388.957984, -163.807539) " x="180.277984" y="141.476832" width="417.36" height="44.6614126"></rect>
                            </g>
                        </g>
                    </g>
                    <g id="Lines-Copy-2" transform="translate(0.000000, 226.000000)">
                        <mask id="mask-14" fill="white">
                            <use xlink:href="#path-13"></use>
                        </mask>
                        <use id="Mask" fill="#1E1E1E" xlink:href="#path-13"></use>
                        <g id="Group-2" mask="url(#mask-14)" fill="#FFE859">
                            <g transform="translate(-223.864615, -36.529294)">
                                <rect id="Rectangle-3" transform="translate(367.265677, 185.487836) rotate(-45.000000) translate(-367.265677, -185.487836) " x="158.585677" y="163.15713" width="417.36" height="44.6614126"></rect>
                                <rect id="Rectangle-3-Copy" transform="translate(276.157984, 163.807539) rotate(-45.000000) translate(-276.157984, -163.807539) " x="67.4779843" y="141.476832" width="417.36" height="44.6614126"></rect>
                                <rect id="Rectangle-3-Copy-2" transform="translate(163.357984, 163.807539) rotate(-45.000000) translate(-163.357984, -163.807539) " x="-45.3220157" y="141.476832" width="417.36" height="44.6614126"></rect>
                                <rect id="Rectangle-3" transform="translate(480.065677, 185.487836) rotate(-45.000000) translate(-480.065677, -185.487836) " x="271.385677" y="163.15713" width="417.36" height="44.6614126"></rect>
                                <rect id="Rectangle-3-Copy" transform="translate(388.957984, 163.807539) rotate(-45.000000) translate(-388.957984, -163.807539) " x="180.277984" y="141.476832" width="417.36" height="44.6614126"></rect>
                                <rect id="Rectangle-3-Copy-2" transform="translate(276.157984, 163.807539) rotate(-45.000000) translate(-276.157984, -163.807539) " x="67.4779843" y="141.476832" width="417.36" height="44.6614126"></rect>
                                <rect id="Rectangle-3" transform="translate(592.865677, 185.487836) rotate(-45.000000) translate(-592.865677, -185.487836) " x="384.185677" y="163.15713" width="417.36" height="44.6614126"></rect>
                                <rect id="Rectangle-3-Copy-3" transform="translate(701.327215, 185.487836) rotate(-45.000000) translate(-701.327215, -185.487836) " x="492.647215" y="163.15713" width="417.36" height="44.6614126"></rect>
                                <rect id="Rectangle-3-Copy" transform="translate(501.757984, 163.807539) rotate(-45.000000) translate(-501.757984, -163.807539) " x="293.077984" y="141.476832" width="417.36" height="44.6614126"></rect>
                                <rect id="Rectangle-3-Copy-2" transform="translate(388.957984, 163.807539) rotate(-45.000000) translate(-388.957984, -163.807539) " x="180.277984" y="141.476832" width="417.36" height="44.6614126"></rect>
                            </g>
                        </g>
                    </g>
                    <g id="Lines-Copy-4" transform="translate(0.000000, 451.000000)">
                        <mask id="mask-16" fill="white">
                            <use xlink:href="#path-15"></use>
                        </mask>
                        <use id="Mask" fill="#1E1E1E" xlink:href="#path-15"></use>
                        <g id="Group-2" mask="url(#mask-16)" fill="#FFE859">
                            <g transform="translate(-224.000000, -36.000000)">
                                <rect id="Rectangle-3" transform="translate(367.265677, 185.487836) rotate(-45.000000) translate(-367.265677, -185.487836) " x="158.585677" y="163.15713" width="417.36" height="44.6614126"></rect>
                                <rect id="Rectangle-3-Copy" transform="translate(276.157984, 163.807539) rotate(-45.000000) translate(-276.157984, -163.807539) " x="67.4779843" y="141.476832" width="417.36" height="44.6614126"></rect>
                                <rect id="Rectangle-3-Copy-2" transform="translate(163.357984, 163.807539) rotate(-45.000000) translate(-163.357984, -163.807539) " x="-45.3220157" y="141.476832" width="417.36" height="44.6614126"></rect>
                                <rect id="Rectangle-3" transform="translate(480.065677, 185.487836) rotate(-45.000000) translate(-480.065677, -185.487836) " x="271.385677" y="163.15713" width="417.36" height="44.6614126"></rect>
                                <rect id="Rectangle-3-Copy" transform="translate(388.957984, 163.807539) rotate(-45.000000) translate(-388.957984, -163.807539) " x="180.277984" y="141.476832" width="417.36" height="44.6614126"></rect>
                                <rect id="Rectangle-3-Copy-2" transform="translate(276.157984, 163.807539) rotate(-45.000000) translate(-276.157984, -163.807539) " x="67.4779843" y="141.476832" width="417.36" height="44.6614126"></rect>
                                <rect id="Rectangle-3" transform="translate(592.865677, 185.487836) rotate(-45.000000) translate(-592.865677, -185.487836) " x="384.185677" y="163.15713" width="417.36" height="44.6614126"></rect>
                                <rect id="Rectangle-3-Copy-3" transform="translate(701.327215, 185.487836) rotate(-45.000000) translate(-701.327215, -185.487836) " x="492.647215" y="163.15713" width="417.36" height="44.6614126"></rect>
                                <rect id="Rectangle-3-Copy" transform="translate(501.757984, 163.807539) rotate(-45.000000) translate(-501.757984, -163.807539) " x="293.077984" y="141.476832" width="417.36" height="44.6614126"></rect>
                                <rect id="Rectangle-3-Copy-2" transform="translate(388.957984, 163.807539) rotate(-45.000000) translate(-388.957984, -163.807539) " x="180.277984" y="141.476832" width="417.36" height="44.6614126"></rect>
                            </g>
                        </g>
                    </g>
                    <g id="Lines-Copy-3" transform="translate(0.000000, 677.000000)">
                        <mask id="mask-18" fill="white">
                            <use xlink:href="#path-17"></use>
                        </mask>
                        <use id="Mask" fill="#1E1E1E" xlink:href="#path-17"></use>
                        <g id="Group-2" mask="url(#mask-18)" fill="#FFE859">
                            <g transform="translate(-223.864615, -36.529294)">
                                <rect id="Rectangle-3" transform="translate(367.265677, 185.487836) rotate(-45.000000) translate(-367.265677, -185.487836) " x="158.585677" y="163.15713" width="417.36" height="44.6614126"></rect>
                                <rect id="Rectangle-3-Copy" transform="translate(276.157984, 163.807539) rotate(-45.000000) translate(-276.157984, -163.807539) " x="67.4779843" y="141.476832" width="417.36" height="44.6614126"></rect>
                                <rect id="Rectangle-3-Copy-2" transform="translate(163.357984, 163.807539) rotate(-45.000000) translate(-163.357984, -163.807539) " x="-45.3220157" y="141.476832" width="417.36" height="44.6614126"></rect>
                                <rect id="Rectangle-3" transform="translate(480.065677, 185.487836) rotate(-45.000000) translate(-480.065677, -185.487836) " x="271.385677" y="163.15713" width="417.36" height="44.6614126"></rect>
                                <rect id="Rectangle-3-Copy" transform="translate(388.957984, 163.807539) rotate(-45.000000) translate(-388.957984, -163.807539) " x="180.277984" y="141.476832" width="417.36" height="44.6614126"></rect>
                                <rect id="Rectangle-3-Copy-2" transform="translate(276.157984, 163.807539) rotate(-45.000000) translate(-276.157984, -163.807539) " x="67.4779843" y="141.476832" width="417.36" height="44.6614126"></rect>
                                <rect id="Rectangle-3" transform="translate(592.865677, 185.487836) rotate(-45.000000) translate(-592.865677, -185.487836) " x="384.185677" y="163.15713" width="417.36" height="44.6614126"></rect>
                                <rect id="Rectangle-3-Copy-3" transform="translate(701.327215, 185.487836) rotate(-45.000000) translate(-701.327215, -185.487836) " x="492.647215" y="163.15713" width="417.36" height="44.6614126"></rect>
                                <rect id="Rectangle-3-Copy" transform="translate(501.757984, 163.807539) rotate(-45.000000) translate(-501.757984, -163.807539) " x="293.077984" y="141.476832" width="417.36" height="44.6614126"></rect>
                                <rect id="Rectangle-3-Copy-2" transform="translate(388.957984, 163.807539) rotate(-45.000000) translate(-388.957984, -163.807539) " x="180.277984" y="141.476832" width="417.36" height="44.6614126"></rect>
                            </g>
                        </g>
                    </g>
                    <g id="Lines-Copy-6" transform="translate(0.000000, 902.000000)">
                        <mask id="mask-20" fill="white">
                            <use xlink:href="#path-19"></use>
                        </mask>
                        <use id="Mask" fill="#1E1E1E" xlink:href="#path-19"></use>
                        <g id="Group-2" mask="url(#mask-20)" fill="#FFE859">
                            <g transform="translate(-224.000000, -36.000000)">
                                <rect id="Rectangle-3" transform="translate(367.265677, 185.487836) rotate(-45.000000) translate(-367.265677, -185.487836) " x="158.585677" y="163.15713" width="417.36" height="44.6614126"></rect>
                                <rect id="Rectangle-3-Copy" transform="translate(276.157984, 163.807539) rotate(-45.000000) translate(-276.157984, -163.807539) " x="67.4779843" y="141.476832" width="417.36" height="44.6614126"></rect>
                                <rect id="Rectangle-3-Copy-2" transform="translate(163.357984, 163.807539) rotate(-45.000000) translate(-163.357984, -163.807539) " x="-45.3220157" y="141.476832" width="417.36" height="44.6614126"></rect>
                                <rect id="Rectangle-3" transform="translate(480.065677, 185.487836) rotate(-45.000000) translate(-480.065677, -185.487836) " x="271.385677" y="163.15713" width="417.36" height="44.6614126"></rect>
                                <rect id="Rectangle-3-Copy" transform="translate(388.957984, 163.807539) rotate(-45.000000) translate(-388.957984, -163.807539) " x="180.277984" y="141.476832" width="417.36" height="44.6614126"></rect>
                                <rect id="Rectangle-3-Copy-2" transform="translate(276.157984, 163.807539) rotate(-45.000000) translate(-276.157984, -163.807539) " x="67.4779843" y="141.476832" width="417.36" height="44.6614126"></rect>
                                <rect id="Rectangle-3" transform="translate(592.865677, 185.487836) rotate(-45.000000) translate(-592.865677, -185.487836) " x="384.185677" y="163.15713" width="417.36" height="44.6614126"></rect>
                                <rect id="Rectangle-3-Copy-3" transform="translate(701.327215, 185.487836) rotate(-45.000000) translate(-701.327215, -185.487836) " x="492.647215" y="163.15713" width="417.36" height="44.6614126"></rect>
                                <rect id="Rectangle-3-Copy" transform="translate(501.757984, 163.807539) rotate(-45.000000) translate(-501.757984, -163.807539) " x="293.077984" y="141.476832" width="417.36" height="44.6614126"></rect>
                                <rect id="Rectangle-3-Copy-2" transform="translate(388.957984, 163.807539) rotate(-45.000000) translate(-388.957984, -163.807539) " x="180.277984" y="141.476832" width="417.36" height="44.6614126"></rect>
                            </g>
                        </g>
                    </g>
                </g>
            </g>
            <g id="Outgoing-Messages-Copy" transform="translate(1330.000000, 0.000000)">
                <rect id="Background" fill="#494949" x="0" y="0" width="590" height="1080"></rect>
                <path d="M469.000157,261 L270,261 L270,221 L469,221 L469,220.625 C469,217.842 471.258667,215.583333 474.041667,215.583333 L489.166667,215.583333 C491.954708,215.583333 494.208333,217.842 494.208333,220.625 L523.767625,220.625 C537.415417,220.625 544.625,213.168375 544.625,199.066833 L544.625,170.208333 C541.842,170.208333 539.583333,167.949667 539.583333,165.166667 L539.583333,150.041667 C539.583333,147.258667 541.842,145 544.625,145 L584.958333,145 C587.746375,145 590,147.258667 590,150.041667 L590,165.166667 C590,167.949667 587.746375,170.208333 584.958333,170.208333 L584.958333,199.066833 C584.958333,232.614083 556.93675,260.958333 523.767625,260.958333 L494.208333,260.958333 C494.208333,263.741333 491.954708,266 489.166667,266 L474.041667,266 C471.272569,266 469.022579,263.763843 469.000169,261 Z M479,255 L484,255 L484,225 L479,225 L479,255 Z M549,160 L579,160 L579,155 L549,155 L549,160 Z" id="Top-Pipe" fill="#ACACAC" fill-rule="nonzero" transform="translate(430.000000, 205.500000) rotate(-180.000000) translate(-430.000000, -205.500000) "></path>
                <path d="M199.000157,930 L0,930 L0,890 L199,890 L199,889.625 C199,886.842 201.258667,884.583333 204.041667,884.583333 L219.166667,884.583333 C221.954708,884.583333 224.208333,886.842 224.208333,889.625 L253.767625,889.625 C267.415417,889.625 274.625,882.168375 274.625,868.066833 L274.625,839.208333 C271.842,839.208333 269.583333,836.949667 269.583333,834.166667 L269.583333,819.041667 C269.583333,816.258667 271.842,814 274.625,814 L314.958333,814 C317.746375,814 320,816.258667 320,819.041667 L320,834.166667 C320,836.949667 317.746375,839.208333 314.958333,839.208333 L314.958333,868.066833 C314.958333,901.614083 286.93675,929.958333 253.767625,929.958333 L224.208333,929.958333 C224.208333,932.741333 221.954708,935 219.166667,935 L204.041667,935 C201.272569,935 199.022579,932.763843 199.000169,930 Z M209,924 L214,924 L214,894 L209,894 L209,924 Z M279,829 L309,829 L309,824 L279,824 L279,829 Z" id="Bottom-Pipe" fill="#ACACAC" fill-rule="nonzero"></path>
                <g id="Item" transform="translate(70.000000, 315.000000)">
                    <circle id="Oval" fill="#1E1E1E" cx="225" cy="225" r="225"></circle>
                    <circle id="Oval-Copy" fill="#494949" cx="225" cy="225" r="150"></circle>
                </g>
                <g id="Label" filter="url(#filter-21)" transform="translate(370.000000, 615.000000)">
                    <circle id="Background" stroke="#979797" fill="#FFFFFF" cx="75" cy="75" r="75"></circle>
                    <g id="Ship" transform="translate(33.000000, 42.000000)" fill-rule="nonzero" fill="#1E1E1E">
                        <path d="M88.9548126,32.1106086 L79.5892903,32.1106086 C79.0329226,32.1106086 78.5692829,32.5693316 78.5692829,33.1197992 L78.5692829,33.7620113 C78.5692829,34.6794573 77.8274594,35.4134141 76.9001799,35.4134141 L30.8143921,35.4134141 C29.8871127,35.4134141 29.1452891,34.6794573 29.1452891,33.7620113 L29.1452891,32.8445654 L29.1452891,19.8168327 L19.501583,19.8168327 L19.501583,16.6975165 L29.1452891,16.6975165 L29.1452891,14.9543691 L29.1452891,13.7616894 C29.1452891,13.0277326 28.4961935,12.3855205 27.75437,12.3855205 L27.2907303,12.3855205 C26.7343626,12.3855205 26.2707229,11.9267975 26.2707229,11.3763299 L26.2707229,9.44969339 C26.2707229,8.71573662 25.7143552,8.16526904 24.9725317,8.16526904 L22.7470611,8.16526904 C22.0052375,8.16526904 21.4488698,8.71573662 21.4488698,9.44969339 L21.4488698,11.3763299 C21.4488698,11.9267975 20.9852301,12.3855205 20.4288625,12.3855205 L19.9652228,12.3855205 C19.4088551,12.3855205 18.9452154,11.9267975 18.9452154,11.3763299 L18.9452154,1.28442434 C18.9452154,0.550467576 18.3888477,0 17.6470242,0 L15.6070094,0 C14.8651859,0 14.3088182,0.550467576 14.3088182,1.28442434 L14.3088182,11.3763299 C14.3088182,11.9267975 13.8451785,12.3855205 13.2888108,12.3855205 L12.2688035,12.3855205 C11.5269799,12.3855205 10.8778843,13.0277326 10.8778843,13.7616894 L10.8778843,30.3674613 C10.8778843,31.2849072 10.1360608,32.018864 9.20878133,32.018864 L1.41963409,32.018864 C0.585082599,32.018864 -0.156740947,32.7528208 0.0287149393,33.6702667 L3.92328856,58.1660739 C4.10874445,59.3587536 5.12875182,60.184455 6.24148714,60.184455 L70.5946798,60.184455 C71.4292313,60.184455 72.1710548,59.8174766 72.5419666,59.1752644 L89.6966361,33.6702667 C90.2530038,33.0280546 89.6966361,32.1106086 88.9548126,32.1106086 Z M16.6270168,46.9732331 C15.2360976,46.9732331 14.0306344,45.7805534 14.0306344,44.4043845 C14.0306344,43.0282155 15.2360976,41.8355358 16.6270168,41.8355358 C18.0179359,41.8355358 19.2233992,43.0282155 19.2233992,44.4043845 C19.2233992,45.7805534 18.1106639,46.9732331 16.6270168,46.9732331 Z M33.3180466,46.9732331 C31.9271274,46.9732331 30.7216642,45.7805534 30.7216642,44.4043845 C30.7216642,43.0282155 31.9271274,41.8355358 33.3180466,41.8355358 C34.7089657,41.8355358 35.914429,43.0282155 35.914429,44.4043845 C35.8217011,45.7805534 34.7089657,46.9732331 33.3180466,46.9732331 Z M47.5981499,46.9732331 C46.2072307,46.9732331 45.0017674,45.7805534 45.0017674,44.4043845 C45.0017674,43.0282155 46.2072307,41.8355358 47.5981499,41.8355358 C48.989069,41.8355358 50.1945323,43.0282155 50.1945323,44.4043845 C50.1945323,45.7805534 48.989069,46.9732331 47.5981499,46.9732331 Z M61.8782531,46.9732331 C60.487334,46.9732331 59.2818707,45.7805534 59.2818707,44.4043845 C59.2818707,43.0282155 60.487334,41.8355358 61.8782531,41.8355358 C63.2691723,41.8355358 64.4746355,43.0282155 64.4746355,44.4043845 C64.4746355,45.7805534 63.2691723,46.9732331 61.8782531,46.9732331 Z" id="Shape"></path>
                        <path d="M50.9128567,24.3 L37.3723488,24.3 C36.6404294,24.3 36,24.9608489 36,25.7161048 L36,32.7966289 C36,33.5518848 36.6404294,34.2127338 37.3723488,34.2127338 L50.9128567,34.2127338 C51.644776,34.2127338 52.2852055,33.5518848 52.2852055,32.7966289 L52.2852055,25.7161048 C52.2852055,24.9608489 51.736266,24.3 50.9128567,24.3 Z" id="Shape"></path>
                        <path d="M68.996298,24.3 L55.3716126,24.3 C54.6400859,24.3 54,24.9608489 54,25.7161048 L54,32.7966289 C54,33.5518848 54.6400859,34.2127338 55.3716126,34.2127338 L68.9048572,34.2127338 C69.6363839,34.2127338 70.2764698,33.5518848 70.2764698,32.7966289 L70.2764698,25.7161048 C70.3679107,24.9608489 69.7278248,24.3 68.996298,24.3 Z" id="Shape"></path>
                        <path d="M50.9128567,12.6 L37.3723488,12.6 C36.6404294,12.6 36,13.2608489 36,14.0161048 L36,21.0966289 C36,21.8518848 36.6404294,22.5127338 37.3723488,22.5127338 L50.9128567,22.5127338 C51.644776,22.5127338 52.2852055,21.8518848 52.2852055,21.0966289 L52.2852055,14.0161048 C52.2852055,13.1664419 51.736266,12.6 50.9128567,12.6 Z" id="Shape"></path>
                        <path d="M68.996298,12.6 L55.3716126,12.6 C54.6400859,12.6 54,13.2608489 54,14.0161048 L54,21.0966289 C54,21.8518848 54.6400859,22.5127338 55.3716126,22.5127338 L68.9048572,22.5127338 C69.6363839,22.5127338 70.2764698,21.8518848 70.2764698,21.0966289 L70.2764698,14.0161048 C70.3679107,13.1664419 69.7278248,12.6 68.996298,12.6 Z" id="Shape"></path>
                    </g>
                </g>
            </g>
            <g id="Incoming-Message">
                <rect id="Rectangle-2" fill="#494949" x="0" y="0" width="590" height="1080"></rect>
                <path d="M469.000157,261 L270,261 L270,221 L469,221 L469,220.625 C469,217.842 471.258667,215.583333 474.041667,215.583333 L489.166667,215.583333 C491.954708,215.583333 494.208333,217.842 494.208333,220.625 L523.767625,220.625 C537.415417,220.625 544.625,213.168375 544.625,199.066833 L544.625,170.208333 C541.842,170.208333 539.583333,167.949667 539.583333,165.166667 L539.583333,150.041667 C539.583333,147.258667 541.842,145 544.625,145 L584.958333,145 C587.746375,145 590,147.258667 590,150.041667 L590,165.166667 C590,167.949667 587.746375,170.208333 584.958333,170.208333 L584.958333,199.066833 C584.958333,232.614083 556.93675,260.958333 523.767625,260.958333 L494.208333,260.958333 C494.208333,263.741333 491.954708,266 489.166667,266 L474.041667,266 C471.272569,266 469.022579,263.763843 469.000169,261 Z M479,255 L484,255 L484,225 L479,225 L479,255 Z M549,160 L579,160 L579,155 L549,155 L549,160 Z" id="Top-Pipe" fill="#ACACAC" fill-rule="nonzero" transform="translate(430.000000, 205.500000) rotate(-180.000000) translate(-430.000000, -205.500000) "></path>
                <path d="M199.000157,930 L0,930 L0,890 L199,890 L199,889.625 C199,886.842 201.258667,884.583333 204.041667,884.583333 L219.166667,884.583333 C221.954708,884.583333 224.208333,886.842 224.208333,889.625 L253.767625,889.625 C267.415417,889.625 274.625,882.168375 274.625,868.066833 L274.625,839.208333 C271.842,839.208333 269.583333,836.949667 269.583333,834.166667 L269.583333,819.041667 C269.583333,816.258667 271.842,814 274.625,814 L314.958333,814 C317.746375,814 320,816.258667 320,819.041667 L320,834.166667 C320,836.949667 317.746375,839.208333 314.958333,839.208333 L314.958333,868.066833 C314.958333,901.614083 286.93675,929.958333 253.767625,929.958333 L224.208333,929.958333 C224.208333,932.741333 221.954708,935 219.166667,935 L204.041667,935 C201.272569,935 199.022579,932.763843 199.000169,930 Z M209,924 L214,924 L214,894 L209,894 L209,924 Z M279,829 L309,829 L309,824 L279,824 L279,829 Z" id="Bottom-Pipe" fill="#ACACAC" fill-rule="nonzero"></path>
                <g id="Item" transform="translate(70.000000, 315.000000)">
                    <circle id="Oval" fill="#1E1E1E" cx="225" cy="225" r="225"></circle>
                    <circle id="Oval-Copy" fill="#494949" cx="225" cy="225" r="150"></circle>
                    <path d="M200.552,413.648 C200.528,415.016007 200.887996,416.095996 201.632,416.888 C202.376004,417.680004 203.299994,418.183999 204.404,418.4 L204.404,410.876 C204.283999,410.828 204.122001,410.774 203.918,410.714 C203.713999,410.654 203.492001,410.6 203.252,410.552 C202.363996,410.311999 201.488004,410.030002 200.624,409.706 C199.759996,409.381998 198.986003,408.950003 198.302,408.41 C197.617997,407.869997 197.072002,407.198004 196.664,406.394 C196.255998,405.589996 196.052,404.588006 196.052,403.388 C196.052,402.163994 196.285998,401.084005 196.754,400.148 C197.222002,399.211995 197.839996,398.426003 198.608,397.79 C199.376004,397.153997 200.263995,396.662002 201.272,396.314 C202.280005,395.965998 203.323995,395.756 204.404,395.684 L204.404,392.912 L206.528,392.912 L206.528,395.684 C207.608005,395.804001 208.621995,396.037998 209.57,396.386 C210.518005,396.734002 211.351996,397.213997 212.072,397.826 C212.792004,398.438003 213.379998,399.199995 213.836,400.112 C214.292002,401.024005 214.556,402.103994 214.628,403.352 L209.516,403.352 C209.492,402.391995 209.192003,401.576003 208.616,400.904 C208.039997,400.231997 207.344004,399.896 206.528,399.896 L206.528,406.268 C206.816001,406.34 207.109998,406.412 207.41,406.484 C207.710002,406.556 208.027998,406.64 208.364,406.736 C210.140009,407.216002 211.507995,407.809996 212.468,408.518 C213.428005,409.226004 214.135998,409.963996 214.592,410.732 C215.048002,411.500004 215.318,412.267996 215.402,413.036 C215.486,413.804004 215.528,414.487997 215.528,415.088 C215.528,415.616003 215.396001,416.281996 215.132,417.086 C214.867999,417.890004 214.394003,418.675996 213.71,419.444 C213.025997,420.212004 212.108006,420.895997 210.956,421.496 C209.803994,422.096003 208.328009,422.455999 206.528,422.576 L206.528,425.636 L204.404,425.636 L204.404,422.576 C201.715987,422.383999 199.616008,421.556007 198.104,420.092 C196.591992,418.627993 195.716001,416.480014 195.476,413.648 L200.552,413.648 Z M206.528,418.4 C206.960002,418.352 207.409998,418.250001 207.878,418.094 C208.346002,417.937999 208.765998,417.716001 209.138,417.428 C209.510002,417.139999 209.815999,416.786002 210.056,416.366 C210.296001,415.945998 210.416,415.448003 210.416,414.872 C210.416,413.935995 210.122003,413.234002 209.534,412.766 C208.945997,412.297998 207.944007,411.872002 206.528,411.488 L206.528,418.4 Z M204.404,399.896 C203.995998,399.896 203.600002,399.955999 203.216,400.076 C202.831998,400.196001 202.484002,400.381999 202.172,400.634 C201.859998,400.886001 201.614001,401.197998 201.434,401.57 C201.253999,401.942002 201.164,402.379997 201.164,402.884 C201.164,403.676004 201.415997,404.287998 201.92,404.72 C202.424003,405.152002 203.251994,405.499999 204.404,405.764 L204.404,399.896 Z M223.7,406.988 L223.7,410.588 C224.324003,410.588 224.977997,410.606 225.662,410.642 C226.346003,410.678 226.975997,410.809999 227.552,411.038 C228.128003,411.266001 228.601998,411.631997 228.974,412.136 C229.346002,412.640003 229.532,413.371995 229.532,414.332 C229.532,415.556006 229.136004,416.521996 228.344,417.23 C227.551996,417.938004 226.580006,418.292 225.428,418.292 C224.683996,418.292 224.042003,418.160001 223.502,417.896 C222.961997,417.631999 222.512002,417.278002 222.152,416.834 C221.791998,416.389998 221.516001,415.862003 221.324,415.25 C221.131999,414.637997 221.024,413.996003 221,413.324 L216.14,413.324 C216.116,414.788007 216.325998,416.083994 216.77,417.212 C217.214002,418.340006 217.843996,419.293996 218.66,420.074 C219.476004,420.854004 220.465994,421.447998 221.63,421.856 C222.794006,422.264002 224.083993,422.468 225.5,422.468 C226.724006,422.468 227.899994,422.288002 229.028,421.928 C230.156006,421.567998 231.151996,421.040003 232.016,420.344 C232.880004,419.647997 233.569997,418.784005 234.086,417.752 C234.602003,416.719995 234.86,415.544007 234.86,414.224 C234.86,412.783993 234.464004,411.548005 233.672,410.516 C232.879996,409.483995 231.788007,408.812002 230.396,408.5 L230.396,408.428 C231.572006,408.091998 232.453997,407.456005 233.042,406.52 C233.630003,405.583995 233.924,404.504006 233.924,403.28 C233.924,402.151994 233.672003,401.156004 233.168,400.292 C232.663997,399.427996 232.010004,398.696003 231.206,398.096 C230.401996,397.495997 229.496005,397.046001 228.488,396.746 C227.479995,396.445998 226.472005,396.296 225.464,396.296 C224.167994,396.296 222.992005,396.505998 221.936,396.926 C220.879995,397.346002 219.974004,397.939996 219.218,398.708 C218.461996,399.476004 217.874002,400.393995 217.454,401.462 C217.033998,402.530005 216.8,403.711994 216.752,405.008 L221.612,405.008 C221.588,403.711994 221.905997,402.638004 222.566,401.786 C223.226003,400.933996 224.203994,400.508 225.5,400.508 C226.436005,400.508 227.263996,400.795997 227.984,401.372 C228.704004,401.948003 229.064,402.775995 229.064,403.856 C229.064,404.576004 228.890002,405.151998 228.542,405.584 C228.193998,406.016002 227.750003,406.345999 227.21,406.574 C226.669997,406.802001 226.088003,406.94 225.464,406.988 C224.839997,407.036 224.252003,407.036 223.7,406.988 Z M241.376,409.292 C241.376,410.012004 241.4,410.881995 241.448,411.902 C241.496,412.922005 241.645999,413.905995 241.898,414.854 C242.150001,415.802005 242.551997,416.611997 243.104,417.284 C243.656003,417.956003 244.447995,418.292 245.48,418.292 C246.536005,418.292 247.345997,417.956003 247.91,417.284 C248.474003,416.611997 248.881999,415.802005 249.134,414.854 C249.386001,413.905995 249.536,412.922005 249.584,411.902 C249.632,410.881995 249.656,410.012004 249.656,409.292 C249.656,408.859998 249.65,408.338003 249.638,407.726 C249.626,407.113997 249.578,406.484003 249.494,405.836 C249.41,405.187997 249.290001,404.546003 249.134,403.91 C248.977999,403.273997 248.744002,402.704003 248.432,402.2 C248.119998,401.695997 247.724002,401.288002 247.244,400.976 C246.763998,400.663998 246.176003,400.508 245.48,400.508 C244.783997,400.508 244.202002,400.663998 243.734,400.976 C243.265998,401.288002 242.882002,401.695997 242.582,402.2 C242.281998,402.704003 242.048001,403.273997 241.88,403.91 C241.711999,404.546003 241.592,405.187997 241.52,405.836 C241.448,406.484003 241.406,407.113997 241.394,407.726 C241.382,408.338003 241.376,408.859998 241.376,409.292 Z M236.264,409.292 C236.264,406.843988 236.509998,404.786008 237.002,403.118 C237.494002,401.449992 238.159996,400.112005 239,399.104 C239.840004,398.095995 240.817994,397.376002 241.934,396.944 C243.050006,396.511998 244.231994,396.296 245.48,396.296 C246.752006,396.296 247.945994,396.511998 249.062,396.944 C250.178006,397.376002 251.161996,398.095995 252.014,399.104 C252.866004,400.112005 253.537998,401.449992 254.03,403.118 C254.522002,404.786008 254.768,406.843988 254.768,409.292 C254.768,411.812013 254.522002,413.917992 254.03,415.61 C253.537998,417.302008 252.866004,418.651995 252.014,419.66 C251.161996,420.668005 250.178006,421.387998 249.062,421.82 C247.945994,422.252002 246.752006,422.468 245.48,422.468 C244.231994,422.468 243.050006,422.252002 241.934,421.82 C240.817994,421.387998 239.840004,420.668005 239,419.66 C238.159996,418.651995 237.494002,417.302008 237.002,415.61 C236.509998,413.917992 236.264,411.812013 236.264,409.292 Z" id="$30" fill="#FFFFFF"></path>
                    <path d="M184.868,40.292 C184.868,41.0120036 184.892,41.8819949 184.94,42.902 C184.988,43.9220051 185.137999,44.9059953 185.39,45.854 C185.642001,46.8020047 186.043997,47.6119966 186.596,48.284 C187.148003,48.9560034 187.939995,49.292 188.972,49.292 C190.028005,49.292 190.837997,48.9560034 191.402,48.284 C191.966003,47.6119966 192.373999,46.8020047 192.626,45.854 C192.878001,44.9059953 193.028,43.9220051 193.076,42.902 C193.124,41.8819949 193.148,41.0120036 193.148,40.292 C193.148,39.8599978 193.142,39.3380031 193.13,38.726 C193.118,38.1139969 193.07,37.4840032 192.986,36.836 C192.902,36.1879968 192.782001,35.5460032 192.626,34.91 C192.469999,34.2739968 192.236002,33.7040025 191.924,33.2 C191.611998,32.6959975 191.216002,32.2880016 190.736,31.976 C190.255998,31.6639984 189.668003,31.508 188.972,31.508 C188.275997,31.508 187.694002,31.6639984 187.226,31.976 C186.757998,32.2880016 186.374001,32.6959975 186.074,33.2 C185.773999,33.7040025 185.540001,34.2739968 185.372,34.91 C185.203999,35.5460032 185.084,36.1879968 185.012,36.836 C184.94,37.4840032 184.898,38.1139969 184.886,38.726 C184.874,39.3380031 184.868,39.8599978 184.868,40.292 Z M179.756,40.292 C179.756,37.8439878 180.001998,35.7860083 180.494,34.118 C180.986002,32.4499917 181.651996,31.112005 182.492,30.104 C183.332004,29.095995 184.309994,28.3760022 185.426,27.944 C186.542006,27.5119978 187.723994,27.296 188.972,27.296 C190.244006,27.296 191.437994,27.5119978 192.554,27.944 C193.670006,28.3760022 194.653996,29.095995 195.506,30.104 C196.358004,31.112005 197.029998,32.4499917 197.522,34.118 C198.014002,35.7860083 198.26,37.8439878 198.26,40.292 C198.26,42.8120126 198.014002,44.9179915 197.522,46.61 C197.029998,48.3020085 196.358004,49.651995 195.506,50.66 C194.653996,51.668005 193.670006,52.3879978 192.554,52.82 C191.437994,53.2520022 190.244006,53.468 188.972,53.468 C187.723994,53.468 186.542006,53.2520022 185.426,52.82 C184.309994,52.3879978 183.332004,51.668005 182.492,50.66 C181.651996,49.651995 180.986002,48.3020085 180.494,46.61 C180.001998,44.9179915 179.756,42.8120126 179.756,40.292 Z M201.176,47.456 L201.176,53 L206.828,53 L206.828,47.456 L201.176,47.456 Z M210.356,37.484 L215.252,37.484 C215.252,36.8119966 215.317999,36.1340034 215.45,35.45 C215.582001,34.7659966 215.803998,34.1420028 216.116,33.578 C216.428002,33.0139972 216.841997,32.5580017 217.358,32.21 C217.874003,31.8619983 218.503996,31.688 219.248,31.688 C220.352006,31.688 221.257996,32.0299966 221.966,32.714 C222.674004,33.3980034 223.028,34.3519939 223.028,35.576 C223.028,36.3440038 222.854002,37.027997 222.506,37.628 C222.157998,38.228003 221.726003,38.7679976 221.21,39.248 C220.693997,39.7280024 220.124003,40.165998 219.5,40.562 C218.875997,40.958002 218.288003,41.3479981 217.736,41.732 C216.655995,42.4760037 215.630005,43.2079964 214.658,43.928 C213.685995,44.6480036 212.840004,45.4339957 212.12,46.286 C211.399996,47.1380043 210.830002,48.1039946 210.41,49.184 C209.989998,50.2640054 209.78,51.5359927 209.78,53 L228.284,53 L228.284,48.608 L216.368,48.608 C216.992003,47.7439957 217.711996,46.9880032 218.528,46.34 C219.344004,45.6919968 220.183996,45.0860028 221.048,44.522 C221.912004,43.9579972 222.769996,43.3880029 223.622,42.812 C224.474004,42.2359971 225.235997,41.5940035 225.908,40.886 C226.580003,40.1779965 227.119998,39.3680046 227.528,38.456 C227.936002,37.5439954 228.14,36.4520064 228.14,35.18 C228.14,33.9559939 227.906002,32.8520049 227.438,31.868 C226.969998,30.8839951 226.340004,30.0560034 225.548,29.384 C224.755996,28.7119966 223.838005,28.1960018 222.794,27.836 C221.749995,27.4759982 220.652006,27.296 219.5,27.296 C217.987992,27.296 216.650006,27.5539974 215.486,28.07 C214.321994,28.5860026 213.356004,29.3059954 212.588,30.23 C211.819996,31.1540046 211.244002,32.2339938 210.86,33.47 C210.475998,34.7060062 210.308,36.0439928 210.356,37.484 Z M231.452,27.296 L231.452,53 L236.564,53 L236.564,46.592 L238.544,44.684 L243.656,53 L249.848,53 L242.036,41.228 L249.056,34.388 L243.008,34.388 L236.564,41.084 L236.564,27.296 L231.452,27.296 Z M260.324,48.608 C261.044004,48.608 261.679997,48.4640014 262.232,48.176 C262.784003,47.8879986 263.239998,47.5040024 263.6,47.024 C263.960002,46.5439976 264.229999,45.9980031 264.41,45.386 C264.590001,44.7739969 264.68,44.1320034 264.68,43.46 C264.68,42.6919962 264.608001,41.9660034 264.464,41.282 C264.319999,40.5979966 264.080002,39.9920026 263.744,39.464 C263.407998,38.9359974 262.964003,38.5160016 262.412,38.204 C261.859997,37.8919984 261.164004,37.736 260.324,37.736 C259.603996,37.736 258.986003,37.8799986 258.47,38.168 C257.953997,38.4560014 257.522002,38.8459975 257.174,39.338 C256.825998,39.8300025 256.574001,40.3939968 256.418,41.03 C256.261999,41.6660032 256.184,42.3319965 256.184,43.028 C256.184,43.7000034 256.249999,44.3659967 256.382,45.026 C256.514001,45.6860033 256.741998,46.2799974 257.066,46.808 C257.390002,47.3360026 257.815997,47.7679983 258.344,48.104 C258.872003,48.4400017 259.531996,48.608 260.324,48.608 Z M269.54,51.812 C269.54,52.5560037 269.438001,53.4079952 269.234,54.368 C269.029999,55.3280048 268.592003,56.2219959 267.92,57.05 C267.247997,57.8780041 266.276006,58.5799971 265.004,59.156 C263.731994,59.7320029 262.028011,60.02 259.892,60.02 C258.979995,60.02 258.050005,59.9060011 257.102,59.678 C256.153995,59.4499989 255.290004,59.0960024 254.51,58.616 C253.729996,58.1359976 253.082003,57.5180038 252.566,56.762 C252.049997,56.0059962 251.756,55.1000053 251.684,54.044 L256.76,54.044 C257.000001,55.0040048 257.467997,55.6699981 258.164,56.042 C258.860003,56.4140019 259.663995,56.6 260.576,56.6 C262.016007,56.6 263.065997,56.1680043 263.726,55.304 C264.386003,54.4399957 264.704,53.3480066 264.68,52.028 L264.68,49.58 L264.608,49.58 C264.055997,50.5640049 263.270005,51.2899977 262.25,51.758 C261.229995,52.2260023 260.156006,52.46 259.028,52.46 C257.635993,52.46 256.436005,52.2140025 255.428,51.722 C254.419995,51.2299975 253.592003,50.5580043 252.944,49.706 C252.295997,48.8539957 251.822001,47.8580057 251.522,46.718 C251.221998,45.5779943 251.072,44.3720064 251.072,43.1 C251.072,41.899994 251.245998,40.7420056 251.594,39.626 C251.942002,38.5099944 252.451997,37.5260043 253.124,36.674 C253.796003,35.8219957 254.629995,35.1440025 255.626,34.64 C256.622005,34.1359975 257.767994,33.884 259.064,33.884 C260.288006,33.884 261.361995,34.1119977 262.286,34.568 C263.210005,35.0240023 263.983997,35.7919946 264.608,36.872 L264.68,36.872 L264.68,34.388 L269.54,34.388 L269.54,51.812 Z" id="0.2kg" fill="#FFFFFF"></path>
                </g>
                <g id="Label" filter="url(#filter-22)" transform="translate(370.000000, 615.000000)">
                    <circle id="Oval-2" stroke="#979797" fill="#FFFFFF" cx="75" cy="75" r="75"></circle>
                    <g id="Basket" transform="translate(35.000000, 42.000000)" fill-rule="nonzero" fill="#1E1E1E">
                        <path d="M77.5,23.5789474 L69.9525,23.5789474 C70.285,23.5789474 70.48,24.7712983 70.48,25.5544101 C70.48,26.9008572 69.96,28.0477371 69.015,29.0026283 L66.21,31.7788861 C65.265,32.7337773 64.01,33.2263799 62.675,33.2263799 C61.34,33.2263799 60.085,32.9308183 59.14,31.9759271 L50.605,23.5789474 L26.895,23.5789474 L18.36,31.9607701 C17.415,32.9181875 16.16,33.3198481 14.825,33.3198481 C13.49,33.3198481 12.235,32.7363034 11.29,31.7814122 L8.485,28.9142125 C7.54,27.9593213 7.02,26.9210666 7.02,25.5720933 C7.02,24.7864553 7.215,23.5814735 7.5475,23.5814735 L2.5,23.5814735 C1.1175,23.5814735 0,24.2256462 0,25.6226166 L0,30.674951 C0,32.0719215 1.1175,33.6861423 2.5,33.6861423 L5,33.6861423 L11.515,62.2192007 C12.09,64.7403156 14.3125,66.5263158 16.875,66.5263158 L60.625,66.5263158 C63.185,66.5263158 65.4075,64.7403156 65.985,62.2192007 L72.5,33.6836161 L77.5,33.6836161 C78.8825,33.6836161 80,32.0668691 80,30.6724248 L80,25.6200905 C80,24.22312 78.8825,23.5789474 77.5,23.5789474 Z M20,50.8817624 L15,50.8817624 L15,45.829428 L20,45.829428 L20,50.8817624 Z M20,40.7770936 L15,40.7770936 L15,35.7247592 L20,35.7247592 L20,40.7770936 Z M30,60.9864311 L25,60.9864311 L25,55.9340968 L30,55.9340968 L30,60.9864311 Z M30,50.8817624 L25,50.8817624 L25,45.829428 L30,45.829428 L30,50.8817624 Z M30,40.7770936 L25,40.7770936 L25,35.7247592 L30,35.7247592 L30,40.7770936 Z M40,60.9864311 L35,60.9864311 L35,55.9340968 L40,55.9340968 L40,60.9864311 Z M40,50.8817624 L35,50.8817624 L35,45.829428 L40,45.829428 L40,50.8817624 Z M40,40.7770936 L35,40.7770936 L35,35.7247592 L40,35.7247592 L40,40.7770936 Z M50,60.9864311 L45,60.9864311 L45,55.9340968 L50,55.9340968 L50,60.9864311 Z M50,50.8817624 L45,50.8817624 L45,45.829428 L50,45.829428 L50,50.8817624 Z M50,40.7770936 L45,40.7770936 L45,35.7247592 L50,35.7247592 L50,40.7770936 Z M60,50.8817624 L55,50.8817624 L55,45.829428 L60,45.829428 L60,50.8817624 Z M60,40.7770936 L55,40.7770936 L55,35.7247592 L60,35.7247592 L60,40.7770936 Z" id="Shape"></path>
                        <path d="M13.6212975,29.5872507 C14.0859607,30.054709 14.7171075,30.3157895 15.3780723,30.3157895 C16.039037,30.3157895 16.6701838,30.054709 17.134847,29.5872507 L39.1578947,7.54708934 L61.1809424,29.5872507 C61.6480905,30.054709 62.2792373,30.3157895 62.9377172,30.3157895 C63.5961971,30.3157895 64.2298288,30.054709 64.694492,29.5872507 L67.4824711,26.7974198 C67.9496192,26.3299615 68.2105263,25.700882 68.2105263,25.0394783 C68.2105263,24.3780745 67.9496192,23.7465085 67.4824711,23.2815367 L44.9425788,0.729160349 C43.9710103,-0.24305345 42.4005978,-0.24305345 41.4290293,0.729160349 L39.1578947,3.00180335 L36.8867602,0.729160349 C35.9151917,-0.24305345 34.3447792,-0.24305345 33.3732107,0.729160349 L10.8333183,23.2815367 C10.3661703,23.7465085 10.1052632,24.3780745 10.1052632,25.0394783 C10.1052632,25.700882 10.3661703,26.332448 10.8333183,26.7974198 L13.6212975,29.5872507 Z M62.7637791,22.8563486 C64.1378901,22.8563486 65.248609,23.9678053 65.248609,25.3428289 C65.248609,26.7178525 64.1378901,27.8293092 62.7637791,27.8293092 C61.3896681,27.8293092 60.2789492,26.7178525 60.2789492,25.3428289 C60.2789492,23.9678053 61.3896681,22.8563486 62.7637791,22.8563486 Z M15.5520104,22.8563486 C16.9261213,22.8563486 18.0368403,23.9678053 18.0368403,25.3428289 C18.0368403,26.7178525 16.9261213,27.8293092 15.5520104,27.8293092 C14.1778994,27.8293092 13.0671804,26.7178525 13.0671804,25.3428289 C13.0671804,23.9678053 14.1778994,22.8563486 15.5520104,22.8563486 Z" id="Shape"></path>
                    </g>
                </g>
            </g>
            <g id="Blueprint" transform="translate(640.000000, 170.000000)">
                <g id="Top-Arrow">
                    <polyline id="Path-12" stroke="#FFFFFF" stroke-width="6" points="0.0200195312 0.162597656 319.920898 0.162597656 319.920898 91.3686523"></polyline>
                    <polygon id="Shape" fill="#FFFFFF" fill-rule="nonzero" transform="translate(319.937515, 82.195018) scale(-1, 1) translate(-319.937515, -82.195018) " points="319.9375 99.3900367 321.875 97.7025367 342.87503 79.7025367 339.00003 75.1713367 322.93753 88.9525367 322.93753 65 316.9375 65 316.9375 88.9525367 300.875 75.1713367 297 79.7025367 318 97.7025367"></polygon>
                </g>
                <g id="Add-to-Cart" transform="translate(244.500000, 99.500000)">
                    <rect id="Rectangle" fill="#FFFFFF" x="0.5" y="0.5" width="150" height="150"></rect>
                    <path d="M100,91 L97.5,91 L97.5,88.5 C97.5,87.1175 96.3825,86 95,86 C93.6175,86 92.5,87.1175 92.5,88.5 L92.5,91 L90,91 C88.6175,91 87.5,92.1175 87.5,93.5 C87.5,94.8825 88.6175,96 90,96 L92.5,96 L92.5,98.5 C92.5,99.8825 93.6175,101 95,101 C96.3825,101 97.5,99.8825 97.5,98.5 L97.5,96 L100,96 C101.3825,96 102.5,94.8825 102.5,93.5 C102.5,92.1175 101.3825,91 100,91 Z" id="Shape" fill="#4D70B8" fill-rule="nonzero"></path>
                    <path d="M113.46875,70.5 C114.868531,70.5 116,69.3825 116,68 L116,63 C116,61.6175 114.868531,60.5 113.46875,60.5 L105.826906,60.5 C106.163562,61.1775 106.361,61.9175 106.361,62.695 C106.361,64.03 105.8345,65.285 104.877687,66.23 L102.037625,69.035 C101.080812,69.98 99.810125,70.5 98.4584375,70.5 C97.10675,70.5 95.8360625,69.98 94.87925,69.035 L86.2375625,60.5 L62.2311875,60.5 L53.5895,69.035 C52.6326875,69.98 51.362,70.5 50.0103125,70.5 C48.658625,70.5 47.3879375,69.98 46.431125,69.035 L43.5910625,66.23 C42.63425,65.285 42.10775,64.03 42.10775,62.695 C42.10775,61.9175 42.3051875,61.1775 42.6418437,60.5 L37.53125,60.5 C36.1314687,60.5 35,61.6175 35,63 L35,68 C35,69.3825 36.1314687,70.5 37.53125,70.5 L40.0625,70.5 L46.6589375,98.7375 C47.241125,101.2325 49.4914062,103 52.0859375,103 L78.2312187,103 C81.7344687,108.9725 88.2600312,113 95.75,113 C106.933062,113 116,104.045 116,93 C116,86.0775 112.438531,79.9825 107.02925,76.39 L108.40625,70.5 L113.46875,70.5 Z M55.25,88 L50.1875,88 L50.1875,83 L55.25,83 L55.25,88 Z M55.25,78 L50.1875,78 L50.1875,73 L55.25,73 L55.25,78 Z M65.375,98 L60.3125,98 L60.3125,93 L65.375,93 L65.375,98 Z M65.375,88 L60.3125,88 L60.3125,83 L65.375,83 L65.375,88 Z M65.375,78 L60.3125,78 L60.3125,73 L65.375,73 L65.375,78 Z M75.5,98 L70.4375,98 L70.4375,93 L75.5,93 L75.5,98 Z M75.5,88 L70.4375,88 L70.4375,83 L75.5,83 L75.5,88 Z M75.5,78 L70.4375,78 L70.4375,73 L75.5,73 L75.5,78 Z M80.5625,78 L80.5625,73 L85.625,73 L85.625,75.6975 C84.4682188,76.36 83.3848438,77.13 82.3875312,78 L80.5625,78 Z M108.40625,93 C108.40625,99.8925 102.728656,105.5 95.75,105.5 C88.7713437,105.5 83.09375,99.8925 83.09375,93 C83.09375,86.1075 88.7713437,80.5 95.75,80.5 C102.728656,80.5 108.40625,86.11 108.40625,93 Z" id="Shape" fill="#4D70B8" fill-rule="nonzero"></path>
                    <path d="M47.5399205,67.2790502 C48.010242,67.7416392 48.6431748,68 49.3086298,68 C49.9740848,68 50.6095193,67.7416392 51.0773392,67.2790502 L73.25,45.4684738 L95.4226608,67.2790502 C95.8929824,67.7416392 96.5259152,68 97.1913702,68 C97.8568252,68 98.4922597,67.7416392 98.9600795,67.2790502 L101.766999,64.5182801 C102.23732,64.0556911 102.5,63.4331645 102.5,62.7786504 C102.5,62.1241362 102.23732,61.499149 101.766999,61.0390207 L79.0739822,38.7215649 C78.0958134,37.7594784 76.5147323,37.7594784 75.5365635,38.7215649 L73.25,40.9705346 L70.9634365,38.7215649 C69.9852677,37.7594784 68.4041866,37.7594784 67.4260178,38.7215649 L44.7330012,61.0390207 C44.2626796,61.5016096 44,62.1265968 44,62.7786504 C44,63.4307039 44.2626796,64.0581517 44.7330012,64.5182801 L47.5399205,67.2790502 Z M97.0162504,60.6182616 C98.3996964,60.6182616 99.517961,61.7181406 99.517961,63.0788411 C99.517961,64.4395415 98.3996964,65.5394205 97.0162504,65.5394205 C95.6328045,65.5394205 94.5145399,64.4395415 94.5145399,63.0788411 C94.5145399,61.7181406 95.6328045,60.6182616 97.0162504,60.6182616 Z M49.4837496,60.6182616 C50.8671955,60.6182616 51.9854601,61.7181406 51.9854601,63.0788411 C51.9854601,64.4395415 50.8671955,65.5394205 49.4837496,65.5394205 C48.1003036,65.5394205 46.982039,64.4395415 46.982039,63.0788411 C46.982039,61.7181406 48.1003036,60.6182616 49.4837496,60.6182616 Z" id="Shape" fill="#4D70B8" fill-rule="nonzero"></path>
                </g>
                <g id="State" transform="translate(55.000000, 380.000000)">
                    <g id="Item-list" transform="translate(65.000000, 0.000000)">
                        <path d="M40.010577,150 L380,150 C391.045695,150 400,141.045695 400,130 L400,130 L400,20 C400,8.954305 391.045695,2.74025825e-14 380,0 L20,0 L20,-7.10542736e-15 C8.954305,-5.0763661e-15 -1.3527075e-15,8.954305 0,20 L0,20 L0,130 C1.3527075e-15,141.045695 8.954305,150 20,150 L20.0843821,150 L20.0843821,169.967766 L40.010577,150 Z" id="Speech-bubble" fill="#FFFFFF"></path>
                        <path d="M49.2884667,92.1476686 L95.8262874,92.1476686 C96.4421664,92.1403165 97.0145719,92.4511315 97.3247463,92.9613287 C97.6349206,93.4715258 97.6349206,94.1022447 97.3247463,94.6124418 C97.0145719,95.122639 96.4421664,95.433454 95.8262874,95.4261019 L49.2884667,95.4261019 C48.6725877,95.433454 48.1001822,95.122639 47.7900078,94.6124418 C47.4798335,94.1022447 47.4798335,93.4715258 47.7900078,92.9613287 C48.1001822,92.4511315 48.6725877,92.1403165 49.2884667,92.1476686 Z M49.2914388,98.2952507 L49.2914388,98.2952507 L95.8233153,98.2952507 C96.4398617,98.2867852 97.0133898,98.5973456 97.3242396,99.107988 C97.6350895,99.6186305 97.6350895,100.250222 97.3242396,100.760864 C97.0133898,101.271507 96.4398617,101.582067 95.8233153,101.573602 L49.2914388,101.573602 C48.6748924,101.582067 48.1013643,101.271507 47.7905145,100.760864 C47.4796646,100.250222 47.4796646,99.6186305 47.7905145,99.107988 C48.1013643,98.5973456 48.6748924,98.2867852 49.2914388,98.2952507 Z M73.4367715,37.1280223 C100.648634,36.3762023 114.257113,36.0002507 114.262208,36.0001675 C114.812267,35.9924626 115.33222,36.2509993 115.658423,36.6944091 C115.984627,37.137819 116.076966,37.7115738 115.906378,38.2350974 L100.006563,87.0146001 C99.9333947,87.4799858 99.6712346,87.8943697 99.2822213,88.1595325 C98.9183186,88.418909 98.4672287,88.5248955 98.0260423,88.4546798 L51.2812037,88.4546798 C48.9966299,88.4546798 47.4487543,89.4221826 46.275832,91.0238255 C45.1028245,92.6255537 44.4294426,94.9151626 44.408735,97.217055 C44.3881125,99.5190328 45.0201643,101.795676 46.1743389,103.384779 C47.3285135,104.973797 48.8858482,105.948636 51.2812037,105.948636 L96.9895519,105.948636 L112.66627,57.8453702 C112.846983,57.2558214 113.33146,56.8097816 113.933445,56.6787321 C114.535429,56.5476827 115.161207,56.7520244 115.570196,57.2131975 C115.979186,57.6743706 116.107718,58.320583 115.906378,58.9033962 L100.028634,107.623725 C100.036986,108.085637 99.8578401,108.531193 99.5321536,108.858526 C99.206467,109.18586 98.7620873,109.366983 98.3006104,109.360487 L51.2812037,109.360487 C47.8652082,109.360487 45.1105792,107.721993 43.4175798,105.391183 C41.7246654,103.060458 40.9744179,100.110948 41.0006646,97.1864314 C41.0198383,95.0400457 41.4577668,92.887177 42.3603818,90.976909 L55.0768395,58.0882183 C56.3310585,53.6910194 58.3264921,48.683676 61.2616951,44.6093306 C64.2141972,40.5108872 68.2741751,37.2575288 73.4367715,37.1280223 Z" id="Book" fill="#4D70B8"></path>
                    </g>
                    <path d="M126.552,220.648 C126.528,222.016007 126.887996,223.095996 127.632,223.888 C128.376004,224.680004 129.299994,225.183999 130.404,225.4 L130.404,217.876 C130.283999,217.828 130.122001,217.774 129.918,217.714 C129.713999,217.654 129.492001,217.6 129.252,217.552 C128.363996,217.311999 127.488004,217.030002 126.624,216.706 C125.759996,216.381998 124.986003,215.950003 124.302,215.41 C123.617997,214.869997 123.072002,214.198004 122.664,213.394 C122.255998,212.589996 122.052,211.588006 122.052,210.388 C122.052,209.163994 122.285998,208.084005 122.754,207.148 C123.222002,206.211995 123.839996,205.426003 124.608,204.79 C125.376004,204.153997 126.263995,203.662002 127.272,203.314 C128.280005,202.965998 129.323995,202.756 130.404,202.684 L130.404,199.912 L132.528,199.912 L132.528,202.684 C133.608005,202.804001 134.621995,203.037998 135.57,203.386 C136.518005,203.734002 137.351996,204.213997 138.072,204.826 C138.792004,205.438003 139.379998,206.199995 139.836,207.112 C140.292002,208.024005 140.556,209.103994 140.628,210.352 L135.516,210.352 C135.492,209.391995 135.192003,208.576003 134.616,207.904 C134.039997,207.231997 133.344004,206.896 132.528,206.896 L132.528,213.268 C132.816001,213.34 133.109998,213.412 133.41,213.484 C133.710002,213.556 134.027998,213.64 134.364,213.736 C136.140009,214.216002 137.507995,214.809996 138.468,215.518 C139.428005,216.226004 140.135998,216.963996 140.592,217.732 C141.048002,218.500004 141.318,219.267996 141.402,220.036 C141.486,220.804004 141.528,221.487997 141.528,222.088 C141.528,222.616003 141.396001,223.281996 141.132,224.086 C140.867999,224.890004 140.394003,225.675996 139.71,226.444 C139.025997,227.212004 138.108006,227.895997 136.956,228.496 C135.803994,229.096003 134.328009,229.455999 132.528,229.576 L132.528,232.636 L130.404,232.636 L130.404,229.576 C127.715987,229.383999 125.616008,228.556007 124.104,227.092 C122.591992,225.627993 121.716001,223.480014 121.476,220.648 L126.552,220.648 Z M132.528,225.4 C132.960002,225.352 133.409998,225.250001 133.878,225.094 C134.346002,224.937999 134.765998,224.716001 135.138,224.428 C135.510002,224.139999 135.815999,223.786002 136.056,223.366 C136.296001,222.945998 136.416,222.448003 136.416,221.872 C136.416,220.935995 136.122003,220.234002 135.534,219.766 C134.945997,219.297998 133.944007,218.872002 132.528,218.488 L132.528,225.4 Z M130.404,206.896 C129.995998,206.896 129.600002,206.955999 129.216,207.076 C128.831998,207.196001 128.484002,207.381999 128.172,207.634 C127.859998,207.886001 127.614001,208.197998 127.434,208.57 C127.253999,208.942002 127.164,209.379997 127.164,209.884 C127.164,210.676004 127.415997,211.287998 127.92,211.72 C128.424003,212.152002 129.251994,212.499999 130.404,212.764 L130.404,206.896 Z M142.824,213.484 L147.72,213.484 C147.72,212.811997 147.785999,212.134003 147.918,211.45 C148.050001,210.765997 148.271998,210.142003 148.584,209.578 C148.896002,209.013997 149.309997,208.558002 149.826,208.21 C150.342003,207.861998 150.971996,207.688 151.716,207.688 C152.820006,207.688 153.725996,208.029997 154.434,208.714 C155.142004,209.398003 155.496,210.351994 155.496,211.576 C155.496,212.344004 155.322002,213.027997 154.974,213.628 C154.625998,214.228003 154.194003,214.767998 153.678,215.248 C153.161997,215.728002 152.592003,216.165998 151.968,216.562 C151.343997,216.958002 150.756003,217.347998 150.204,217.732 C149.123995,218.476004 148.098005,219.207996 147.126,219.928 C146.153995,220.648004 145.308004,221.433996 144.588,222.286 C143.867996,223.138004 143.298002,224.103995 142.878,225.184 C142.457998,226.264005 142.248,227.535993 142.248,229 L160.752,229 L160.752,224.608 L148.836,224.608 C149.460003,223.743996 150.179996,222.988003 150.996,222.34 C151.812004,221.691997 152.651996,221.086003 153.516,220.522 C154.380004,219.957997 155.237996,219.388003 156.09,218.812 C156.942004,218.235997 157.703997,217.594004 158.376,216.886 C159.048003,216.177996 159.587998,215.368005 159.996,214.456 C160.404002,213.543995 160.608,212.452006 160.608,211.18 C160.608,209.955994 160.374002,208.852005 159.906,207.868 C159.437998,206.883995 158.808004,206.056003 158.016,205.384 C157.223996,204.711997 156.306005,204.196002 155.262,203.836 C154.217995,203.475998 153.120006,203.296 151.968,203.296 C150.455992,203.296 149.118006,203.553997 147.954,204.07 C146.789994,204.586003 145.824004,205.305995 145.056,206.23 C144.287996,207.154005 143.712002,208.233994 143.328,209.47 C142.943998,210.706006 142.776,212.043993 142.824,213.484 Z M179.508,208.012 L179.508,203.8 L165.432,203.8 L162.948,217.732 L167.556,217.732 C168.060003,217.035997 168.599997,216.526002 169.176,216.202 C169.752003,215.877998 170.495995,215.716 171.408,215.716 C172.104003,215.716 172.715997,215.835999 173.244,216.076 C173.772003,216.316001 174.227998,216.651998 174.612,217.084 C174.996002,217.516002 175.283999,218.019997 175.476,218.596 C175.668001,219.172003 175.764,219.783997 175.764,220.432 C175.764,221.056003 175.662001,221.661997 175.458,222.25 C175.253999,222.838003 174.966002,223.353998 174.594,223.798 C174.221998,224.242002 173.766003,224.601999 173.226,224.878 C172.685997,225.154001 172.080003,225.292 171.408,225.292 C170.255994,225.292 169.308004,224.950003 168.564,224.266 C167.819996,223.581997 167.388001,222.664006 167.268,221.512 L162.156,221.512 C162.18,222.832007 162.449997,223.989995 162.966,224.986 C163.482003,225.982005 164.171996,226.815997 165.036,227.488 C165.900004,228.160003 166.889994,228.657998 168.006,228.982 C169.122006,229.306002 170.291994,229.468 171.516,229.468 C172.788006,229.492 173.987994,229.282002 175.116,228.838 C176.244006,228.393998 177.233996,227.764004 178.086,226.948 C178.938004,226.131996 179.615997,225.166006 180.12,224.05 C180.624003,222.933994 180.876,221.728006 180.876,220.432 C180.876,219.255994 180.702002,218.146005 180.354,217.102 C180.005998,216.057995 179.502003,215.152004 178.842,214.384 C178.181997,213.615996 177.372005,213.004002 176.412,212.548 C175.451995,212.091998 174.348006,211.864 173.1,211.864 C172.091995,211.864 171.192004,212.013998 170.4,212.314 C169.607996,212.614002 168.864003,213.111997 168.168,213.808 L168.096,213.736 L169.104,208.012 L179.508,208.012 Z" id="$25" fill="#FFFFFF"></path>
                    <path d="M211.018,216.292 C211.018,217.012004 211.042,217.881995 211.09,218.902 C211.138,219.922005 211.287999,220.905995 211.54,221.854 C211.792001,222.802005 212.193997,223.611997 212.746,224.284 C213.298003,224.956003 214.089995,225.292 215.122,225.292 C216.178005,225.292 216.987997,224.956003 217.552,224.284 C218.116003,223.611997 218.523999,222.802005 218.776,221.854 C219.028001,220.905995 219.178,219.922005 219.226,218.902 C219.274,217.881995 219.298,217.012004 219.298,216.292 C219.298,215.859998 219.292,215.338003 219.28,214.726 C219.268,214.113997 219.22,213.484003 219.136,212.836 C219.052,212.187997 218.932001,211.546003 218.776,210.91 C218.619999,210.273997 218.386002,209.704003 218.074,209.2 C217.761998,208.695997 217.366002,208.288002 216.886,207.976 C216.405998,207.663998 215.818003,207.508 215.122,207.508 C214.425997,207.508 213.844002,207.663998 213.376,207.976 C212.907998,208.288002 212.524001,208.695997 212.224,209.2 C211.923998,209.704003 211.690001,210.273997 211.522,210.91 C211.353999,211.546003 211.234,212.187997 211.162,212.836 C211.09,213.484003 211.048,214.113997 211.036,214.726 C211.024,215.338003 211.018,215.859998 211.018,216.292 Z M205.906,216.292 C205.906,213.843988 206.151998,211.786008 206.644,210.118 C207.136002,208.449992 207.801996,207.112005 208.642,206.104 C209.482004,205.095995 210.459994,204.376002 211.576,203.944 C212.692006,203.511998 213.873994,203.296 215.122,203.296 C216.394006,203.296 217.587994,203.511998 218.704,203.944 C219.820006,204.376002 220.803996,205.095995 221.656,206.104 C222.508004,207.112005 223.179998,208.449992 223.672,210.118 C224.164002,211.786008 224.41,213.843988 224.41,216.292 C224.41,218.812013 224.164002,220.917992 223.672,222.61 C223.179998,224.302008 222.508004,225.651995 221.656,226.66 C220.803996,227.668005 219.820006,228.387998 218.704,228.82 C217.587994,229.252002 216.394006,229.468 215.122,229.468 C213.873994,229.468 212.692006,229.252002 211.576,228.82 C210.459994,228.387998 209.482004,227.668005 208.642,226.66 C207.801996,225.651995 207.136002,224.302008 206.644,222.61 C206.151998,220.917992 205.906,218.812013 205.906,216.292 Z M227.326,223.456 L227.326,229 L232.978,229 L232.978,223.456 L227.326,223.456 Z M253.174,208.012 L253.174,203.8 L239.098,203.8 L236.614,217.732 L241.222,217.732 C241.726003,217.035997 242.265997,216.526002 242.842,216.202 C243.418003,215.877998 244.161995,215.716 245.074,215.716 C245.770003,215.716 246.381997,215.835999 246.91,216.076 C247.438003,216.316001 247.893998,216.651998 248.278,217.084 C248.662002,217.516002 248.949999,218.019997 249.142,218.596 C249.334001,219.172003 249.43,219.783997 249.43,220.432 C249.43,221.056003 249.328001,221.661997 249.124,222.25 C248.919999,222.838003 248.632002,223.353998 248.26,223.798 C247.887998,224.242002 247.432003,224.601999 246.892,224.878 C246.351997,225.154001 245.746003,225.292 245.074,225.292 C243.921994,225.292 242.974004,224.950003 242.23,224.266 C241.485996,223.581997 241.054001,222.664006 240.934,221.512 L235.822,221.512 C235.846,222.832007 236.115997,223.989995 236.632,224.986 C237.148003,225.982005 237.837996,226.815997 238.702,227.488 C239.566004,228.160003 240.555994,228.657998 241.672,228.982 C242.788006,229.306002 243.957994,229.468 245.182,229.468 C246.454006,229.492 247.653994,229.282002 248.782,228.838 C249.910006,228.393998 250.899996,227.764004 251.752,226.948 C252.604004,226.131996 253.281997,225.166006 253.786,224.05 C254.290003,222.933994 254.542,221.728006 254.542,220.432 C254.542,219.255994 254.368002,218.146005 254.02,217.102 C253.671998,216.057995 253.168003,215.152004 252.508,214.384 C251.847997,213.615996 251.038005,213.004002 250.078,212.548 C249.117995,212.091998 248.014006,211.864 246.766,211.864 C245.757995,211.864 244.858004,212.013998 244.066,212.314 C243.273996,212.614002 242.530003,213.111997 241.834,213.808 L241.762,213.736 L242.77,208.012 L253.174,208.012 Z M257.602,203.296 L257.602,229 L262.714,229 L262.714,222.592 L264.694,220.684 L269.806,229 L275.998,229 L268.186,217.228 L275.206,210.388 L269.158,210.388 L262.714,217.084 L262.714,203.296 L257.602,203.296 Z M286.474,224.608 C287.194004,224.608 287.829997,224.464001 288.382,224.176 C288.934003,223.887999 289.389998,223.504002 289.75,223.024 C290.110002,222.543998 290.379999,221.998003 290.56,221.386 C290.740001,220.773997 290.83,220.132003 290.83,219.46 C290.83,218.691996 290.758001,217.966003 290.614,217.282 C290.469999,216.597997 290.230002,215.992003 289.894,215.464 C289.557998,214.935997 289.114003,214.516002 288.562,214.204 C288.009997,213.891998 287.314004,213.736 286.474,213.736 C285.753996,213.736 285.136003,213.879999 284.62,214.168 C284.103997,214.456001 283.672002,214.845998 283.324,215.338 C282.975998,215.830002 282.724001,216.393997 282.568,217.03 C282.411999,217.666003 282.334,218.331997 282.334,219.028 C282.334,219.700003 282.399999,220.365997 282.532,221.026 C282.664001,221.686003 282.891998,222.279997 283.216,222.808 C283.540002,223.336003 283.965997,223.767998 284.494,224.104 C285.022003,224.440002 285.681996,224.608 286.474,224.608 Z M295.69,227.812 C295.69,228.556004 295.588001,229.407995 295.384,230.368 C295.179999,231.328005 294.742003,232.221996 294.07,233.05 C293.397997,233.878004 292.426006,234.579997 291.154,235.156 C289.881994,235.732003 288.178011,236.02 286.042,236.02 C285.129995,236.02 284.200005,235.906001 283.252,235.678 C282.303995,235.449999 281.440004,235.096002 280.66,234.616 C279.879996,234.135998 279.232003,233.518004 278.716,232.762 C278.199997,232.005996 277.906,231.100005 277.834,230.044 L282.91,230.044 C283.150001,231.004005 283.617997,231.669998 284.314,232.042 C285.010003,232.414002 285.813995,232.6 286.726,232.6 C288.166007,232.6 289.215997,232.168004 289.876,231.304 C290.536003,230.439996 290.854,229.348007 290.83,228.028 L290.83,225.58 L290.758,225.58 C290.205997,226.564005 289.420005,227.289998 288.4,227.758 C287.379995,228.226002 286.306006,228.46 285.178,228.46 C283.785993,228.46 282.586005,228.214002 281.578,227.722 C280.569995,227.229998 279.742003,226.558004 279.094,225.706 C278.445997,224.853996 277.972002,223.858006 277.672,222.718 C277.371999,221.577994 277.222,220.372006 277.222,219.1 C277.222,217.899994 277.395998,216.742006 277.744,215.626 C278.092002,214.509994 278.601997,213.526004 279.274,212.674 C279.946003,211.821996 280.779995,211.144003 281.776,210.64 C282.772005,210.135997 283.917994,209.884 285.214,209.884 C286.438006,209.884 287.511995,210.111998 288.436,210.568 C289.360005,211.024002 290.133997,211.791995 290.758,212.872 L290.83,212.872 L290.83,210.388 L295.69,210.388 L295.69,227.812 Z" id="0.5kg" fill="#FFFFFF"></path>
                    <g id="Basket" transform="translate(0.000000, 170.000000)">
                        <rect id="Rectangle-4" fill="#D8D8D8" opacity="0" x="0" y="0" width="90" height="90"></rect>
                        <path d="M82.5,35.5789474 L74.9525,35.5789474 C75.285,35.5789474 75.48,36.7712983 75.48,37.5544101 C75.48,38.9008572 74.96,40.0477371 74.015,41.0026283 L71.21,43.7788861 C70.265,44.7337773 69.01,45.2263799 67.675,45.2263799 C66.34,45.2263799 65.085,44.9308183 64.14,43.9759271 L55.605,35.5789474 L31.895,35.5789474 L23.36,43.9607701 C22.415,44.9181875 21.16,45.3198481 19.825,45.3198481 C18.49,45.3198481 17.235,44.7363034 16.29,43.7814122 L13.485,40.9142125 C12.54,39.9593213 12.02,38.9210666 12.02,37.5720933 C12.02,36.7864553 12.215,35.5814735 12.5475,35.5814735 L7.5,35.5814735 C6.1175,35.5814735 5,36.2256462 5,37.6226166 L5,42.674951 C5,44.0719215 6.1175,45.6861423 7.5,45.6861423 L10,45.6861423 L16.515,74.2192007 C17.09,76.7403156 19.3125,78.5263158 21.875,78.5263158 L65.625,78.5263158 C68.185,78.5263158 70.4075,76.7403156 70.985,74.2192007 L77.5,45.6836161 L82.5,45.6836161 C83.8825,45.6836161 85,44.0668691 85,42.6724248 L85,37.6200905 C85,36.22312 83.8825,35.5789474 82.5,35.5789474 Z M25,62.8817624 L20,62.8817624 L20,57.829428 L25,57.829428 L25,62.8817624 Z M25,52.7770936 L20,52.7770936 L20,47.7247592 L25,47.7247592 L25,52.7770936 Z M35,72.9864311 L30,72.9864311 L30,67.9340968 L35,67.9340968 L35,72.9864311 Z M35,62.8817624 L30,62.8817624 L30,57.829428 L35,57.829428 L35,62.8817624 Z M35,52.7770936 L30,52.7770936 L30,47.7247592 L35,47.7247592 L35,52.7770936 Z M45,72.9864311 L40,72.9864311 L40,67.9340968 L45,67.9340968 L45,72.9864311 Z M45,62.8817624 L40,62.8817624 L40,57.829428 L45,57.829428 L45,62.8817624 Z M45,52.7770936 L40,52.7770936 L40,47.7247592 L45,47.7247592 L45,52.7770936 Z M55,72.9864311 L50,72.9864311 L50,67.9340968 L55,67.9340968 L55,72.9864311 Z M55,62.8817624 L50,62.8817624 L50,57.829428 L55,57.829428 L55,62.8817624 Z M55,52.7770936 L50,52.7770936 L50,47.7247592 L55,47.7247592 L55,52.7770936 Z M65,62.8817624 L60,62.8817624 L60,57.829428 L65,57.829428 L65,62.8817624 Z M65,52.7770936 L60,52.7770936 L60,47.7247592 L65,47.7247592 L65,52.7770936 Z" id="Shape" fill="#FFFFFF" fill-rule="nonzero"></path>
                        <path d="M18.6212975,41.5872507 C19.0859607,42.054709 19.7171075,42.3157895 20.3780723,42.3157895 C21.039037,42.3157895 21.6701838,42.054709 22.134847,41.5872507 L44.1578947,19.5470893 L66.1809424,41.5872507 C66.6480905,42.054709 67.2792373,42.3157895 67.9377172,42.3157895 C68.5961971,42.3157895 69.2298288,42.054709 69.694492,41.5872507 L72.4824711,38.7974198 C72.9496192,38.3299615 73.2105263,37.700882 73.2105263,37.0394783 C73.2105263,36.3780745 72.9496192,35.7465085 72.4824711,35.2815367 L49.9425788,12.7291603 C48.9710103,11.7569466 47.4005978,11.7569466 46.4290293,12.7291603 L44.1578947,15.0018033 L41.8867602,12.7291603 C40.9151917,11.7569466 39.3447792,11.7569466 38.3732107,12.7291603 L15.8333183,35.2815367 C15.3661703,35.7465085 15.1052632,36.3780745 15.1052632,37.0394783 C15.1052632,37.700882 15.3661703,38.332448 15.8333183,38.7974198 L18.6212975,41.5872507 Z M67.7637791,34.8563486 C69.1378901,34.8563486 70.248609,35.9678053 70.248609,37.3428289 C70.248609,38.7178525 69.1378901,39.8293092 67.7637791,39.8293092 C66.3896681,39.8293092 65.2789492,38.7178525 65.2789492,37.3428289 C65.2789492,35.9678053 66.3896681,34.8563486 67.7637791,34.8563486 Z M20.5520104,34.8563486 C21.9261213,34.8563486 23.0368403,35.9678053 23.0368403,37.3428289 C23.0368403,38.7178525 21.9261213,39.8293092 20.5520104,39.8293092 C19.1778994,39.8293092 18.0671804,38.7178525 18.0671804,37.3428289 C18.0671804,35.9678053 19.1778994,34.8563486 20.5520104,34.8563486 Z" id="Shape" fill="#FFFFFF" fill-rule="nonzero"></path>
                    </g>
                </g>
            </g>
            <g id="Weight" transform="translate(1605.000000, 704.000000)" fill="#FFFFFF">
                <path d="M5.56,26.648 C5.53599988,28.0160068 5.89599628,29.095996 6.64,29.888 C7.38400372,30.680004 8.30799448,31.1839989 9.412,31.4 L9.412,23.876 C9.2919994,23.8279998 9.13000102,23.7740003 8.926,23.714 C8.72199898,23.6539997 8.5000012,23.6000002 8.26,23.552 C7.37199556,23.3119988 6.49600432,23.0300016 5.632,22.706 C4.76799568,22.3819984 3.99400342,21.9500027 3.31,21.41 C2.62599658,20.8699973 2.08000204,20.198004 1.672,19.394 C1.26399796,18.589996 1.06,17.588006 1.06,16.388 C1.06,15.1639939 1.29399766,14.0840047 1.762,13.148 C2.23000234,12.2119953 2.84799616,11.4260032 3.616,10.79 C4.38400384,10.1539968 5.27199496,9.66200174 6.28,9.314 C7.28800504,8.96599826 8.3319946,8.75600036 9.412,8.684 L9.412,5.912 L11.536,5.912 L11.536,8.684 C12.6160054,8.8040006 13.6299953,9.03799826 14.578,9.386 C15.5260047,9.73400174 16.3599964,10.2139969 17.08,10.826 C17.8000036,11.4380031 18.3879977,12.1999954 18.844,13.112 C19.3000023,14.0240046 19.5639996,15.1039938 19.636,16.352 L14.524,16.352 C14.4999999,15.3919952 14.2000029,14.5760034 13.624,13.904 C13.0479971,13.2319966 12.3520041,12.896 11.536,12.896 L11.536,19.268 C11.8240014,19.3400004 12.1179985,19.4119996 12.418,19.484 C12.7180015,19.5560004 13.0359983,19.6399995 13.372,19.736 C15.1480089,20.2160024 16.5159952,20.8099965 17.476,21.518 C18.4360048,22.2260035 19.1439977,22.9639962 19.6,23.732 C20.0560023,24.5000038 20.3259996,25.2679962 20.41,26.036 C20.4940004,26.8040038 20.536,27.487997 20.536,28.088 C20.536,28.6160026 20.4040013,29.281996 20.14,30.086 C19.8759987,30.890004 19.4020034,31.6759962 18.718,32.444 C18.0339966,33.2120038 17.1160058,33.895997 15.964,34.496 C14.8119942,35.096003 13.336009,35.4559994 11.536,35.576 L11.536,38.636 L9.412,38.636 L9.412,35.576 C6.72398656,35.383999 4.62400756,34.5560073 3.112,33.092 C1.59999244,31.6279927 0.7240012,29.4800142 0.484,26.648 L5.56,26.648 Z M11.536,31.4 C11.9680022,31.3519998 12.4179977,31.2500008 12.886,31.094 C13.3540023,30.9379992 13.7739981,30.7160014 14.146,30.428 C14.5180019,30.1399986 14.8239988,29.7860021 15.064,29.366 C15.3040012,28.9459979 15.424,28.4480029 15.424,27.872 C15.424,26.9359953 15.1300029,26.2340023 14.542,25.766 C13.9539971,25.2979977 12.9520071,24.8720019 11.536,24.488 L11.536,31.4 Z M9.412,12.896 C9.00399796,12.896 8.60800192,12.9559994 8.224,13.076 C7.83999808,13.1960006 7.49200156,13.3819987 7.18,13.634 C6.86799844,13.8860013 6.6220009,14.1979981 6.442,14.57 C6.2619991,14.9420019 6.172,15.3799975 6.172,15.884 C6.172,16.676004 6.42399748,17.2879978 6.928,17.72 C7.43200252,18.1520022 8.25999424,18.4999987 9.412,18.764 L9.412,12.896 Z M38.5,14.012 L38.5,9.8 L24.424,9.8 L21.94,23.732 L26.548,23.732 C27.0520025,23.0359965 27.5919971,22.5260016 28.168,22.202 C28.7440029,21.8779984 29.4879954,21.716 30.4,21.716 C31.0960035,21.716 31.7079974,21.8359988 32.236,22.076 C32.7640026,22.3160012 33.2199981,22.6519978 33.604,23.084 C33.9880019,23.5160022 34.275999,24.0199971 34.468,24.596 C34.660001,25.1720029 34.756,25.7839968 34.756,26.432 C34.756,27.0560031 34.654001,27.6619971 34.45,28.25 C34.245999,28.8380029 33.9580019,29.3539978 33.586,29.798 C33.2139981,30.2420022 32.7580027,30.6019986 32.218,30.878 C31.6779973,31.1540014 31.0720034,31.292 30.4,31.292 C29.2479942,31.292 28.3000037,30.9500034 27.556,30.266 C26.8119963,29.5819966 26.3800006,28.6640058 26.26,27.512 L21.148,27.512 C21.1720001,28.8320066 21.4419974,29.989995 21.958,30.986 C22.4740026,31.982005 23.1639957,32.8159966 24.028,33.488 C24.8920043,34.1600034 25.8819944,34.6579984 26.998,34.982 C28.1140056,35.3060016 29.2839939,35.468 30.508,35.468 C31.7800064,35.4920001 32.9799944,35.2820022 34.108,34.838 C35.2360056,34.3939978 36.2259957,33.7640041 37.078,32.948 C37.9300043,32.1319959 38.6079975,31.1660056 39.112,30.05 C39.6160025,28.9339944 39.868,27.7280065 39.868,26.432 C39.868,25.2559941 39.6940017,24.1460052 39.346,23.102 C38.9979983,22.0579948 38.4940033,21.1520038 37.834,20.384 C37.1739967,19.6159962 36.3640048,19.0040023 35.404,18.548 C34.4439952,18.0919977 33.3400062,17.864 32.092,17.864 C31.083995,17.864 30.184004,18.0139985 29.392,18.314 C28.599996,18.6140015 27.8560035,19.1119965 27.16,19.808 L27.088,19.736 L28.096,14.012 L38.5,14.012 Z" id="$5"></path>
            </g>
            <g id="Earth" transform="translate(1515.000000, 429.000000)" fill-rule="nonzero">
                <path d="M186.321937,117.853933 C185.011396,116.54073 183.438746,116.015449 181.866097,116.015449 C180.293447,116.015449 178.720798,116.54073 177.410256,117.853933 L163.25641,132.036517 C161.945869,133.349719 160.373219,133.875 158.80057,133.875 C157.22792,133.875 155.655271,133.349719 154.344729,132.036517 L143.860399,121.530899 C142.549858,120.217697 140.977208,119.692416 139.404558,119.692416 C137.831909,119.692416 136.259259,120.217697 134.948718,121.530899 L115.552707,141.491573 C114.242165,142.804775 113.717949,144.380618 113.717949,145.956461 L113.717949,161.977528 C113.717949,163.553371 113.193732,165.129213 111.883191,166.442416 L100.612536,177.735955 C99.3019943,179.049157 97.7293447,179.574438 96.1566952,179.574438 C94.5840456,179.574438 93.011396,179.049157 91.7008547,177.735955 L85.1481481,171.169944 C83.8376068,169.856742 83.0512821,167.755618 83.0512821,165.917135 L83.0512821,150.683989 C83.0512821,143.592697 77.2849003,138.077247 70.4700855,138.077247 C60.2478632,138.077247 51.8603989,129.672753 51.8603989,119.429775 C51.8603989,109.186798 60.2478632,100.782303 70.4700855,100.782303 C73.3532764,100.782303 76.2364672,101.832865 78.5954416,104.196629 C80.4301994,106.035112 81.7407407,107.085674 85.1481481,107.085674 L103.495726,107.085674 C106.903134,107.085674 109.786325,104.196629 109.786325,100.782303 C109.786325,97.3679775 106.903134,94.4789326 103.495726,94.4789326 L93.5356125,94.4789326 C91.962963,94.4789326 90.3903134,93.9536517 89.0797721,92.6404494 L83.3133903,86.8623596 C82.002849,85.5491573 80.4301994,85.0238764 78.8575499,85.0238764 C77.2849003,85.0238764 75.7122507,85.5491573 74.4017094,86.8623596 L66.8005698,94.4789326 C65.4900285,95.7921348 63.9173789,96.3174157 62.3447293,96.3174157 C60.7720798,96.3174157 59.1994302,95.7921348 57.8888889,94.4789326 C56.5783476,93.1657303 56.0541311,91.5898876 56.0541311,90.0140449 C56.0541311,88.4382022 56.5783476,86.8623596 57.8888889,85.5491573 C59.1994302,84.2359551 60.7720798,83.7106742 62.3447293,83.7106742 L66.014245,83.7106742 L66.014245,80.0337079 C66.014245,78.4578652 66.5384615,76.8820225 67.8490028,75.5688202 L77.5470085,65.8511236 C78.8575499,64.5379213 79.3817664,62.9620787 79.3817664,61.386236 L79.3817664,50.880618 C79.3817664,49.3047753 79.9059829,47.7289326 81.2165242,46.4157303 L96.1566952,31.4452247 C97.4672365,30.1320225 99.039886,29.6067416 100.612536,29.6067416 C102.185185,29.6067416 103.757835,30.1320225 105.068376,31.4452247 L109,35.3848315 C110.310541,36.6980337 111.883191,37.2233146 113.45584,37.2233146 C115.02849,37.2233146 116.60114,36.6980337 117.911681,35.3848315 L133.376068,19.8890449 C126.037037,17.7879213 118.173789,17 110.310541,17 C58.6752137,17 17,59.0224719 17,110.5 C17,162.240169 58.9373219,204 110.310541,204 C154.344729,204 191.301994,173.533708 201,132.299157 L186.321937,117.853933 Z M53.4330484,61.9115169 C54.7435897,60.5983146 56.3162393,60.0730337 57.8888889,60.0730337 C59.4615385,60.0730337 61.034188,60.5983146 62.3447293,61.9115169 C63.6552707,63.2247191 64.1794872,64.8005618 64.1794872,66.3764045 C64.1794872,67.9522472 63.6552707,69.5280899 62.3447293,70.8412921 C61.034188,72.1544944 59.4615385,72.6797753 57.8888889,72.6797753 C56.3162393,72.6797753 54.7435897,72.1544944 53.4330484,70.8412921 C52.1225071,69.5280899 51.5982906,67.9522472 51.5982906,66.3764045 C51.5982906,64.8005618 52.1225071,63.2247191 53.4330484,61.9115169 Z M137.307692,160.139045 C137.307692,161.714888 136.783476,163.29073 135.472934,164.603933 C134.162393,165.917135 132.589744,166.442416 131.017094,166.442416 C129.444444,166.442416 127.871795,165.917135 126.561254,164.603933 C125.250712,163.29073 124.726496,161.714888 124.726496,160.139045 L124.726496,154.623596 C124.726496,153.047753 125.250712,151.47191 126.561254,150.158708 C127.871795,148.845506 129.444444,148.320225 131.017094,148.320225 C132.589744,148.320225 134.162393,148.845506 135.472934,150.158708 C136.783476,151.47191 137.307692,153.047753 137.307692,154.623596 L137.307692,160.139045 Z" id="Shape" fill="#4ABAEB"></path>
                <path d="M111,222 C49.858156,222 0,172.141844 0,111 C0,49.858156 49.858156,0 111,0 C172.141844,0 222,49.858156 222,111 C222,172.141844 172.141844,222 111,222 Z M111,7.87234043 C54.0567376,7.87234043 7.87234043,54.0567376 7.87234043,111 C7.87234043,167.943262 54.0567376,214.12766 111,214.12766 C167.943262,214.12766 214.12766,167.943262 214.12766,111 C214.12766,54.0567376 167.943262,7.87234043 111,7.87234043 Z" id="Shape" fill="#FFFFFF"></path>
            </g>
            <g id="Group-3" transform="translate(205.000000, 450.000000)">
                <path d="M153.653044,26.3469558 C118.52377,-8.7823186 61.4762302,-8.7823186 26.3469558,26.3469558 C-8.7823186,61.4762302 -8.7823186,118.52377 26.3469558,153.653044 C61.4762302,188.782319 118.52377,188.782319 153.653044,153.653044 C188.782319,118.52377 188.782319,61.4762302 153.653044,26.3469558 Z M111.017515,111.017515 C102.910759,119.12427 90.9007506,121.526272 80.6922435,118.22352 L64.7789825,165.062552 C53.6697248,161.159299 42.8607173,154.854045 34.1534612,146.146789 C25.145955,137.139283 18.8407006,126.630525 15.2376981,115.521268 L62.3769808,99.6080067 C59.0742285,89.3994996 61.17598,77.3894912 69.5829858,69.2827356 C77.6897415,61.17598 89.6997498,58.7739783 99.9082569,62.0767306 L115.221018,14.9374479 C126.330275,18.8407006 137.139283,25.145955 145.846539,33.853211 C154.854045,42.8607173 161.159299,53.3694746 164.762302,64.4787323 L117.623019,80.3919933 C121.526272,90.9007506 119.12427,102.610509 111.017515,111.017515 Z" id="Game" fill="#FF8DE8" fill-rule="nonzero"></path>
                <path d="M73.4862385,73.4862385 C82.4937448,64.1784821 97.5062552,64.1784821 106.814012,73.4862385 C116.121768,82.793995 116.121768,97.5062552 106.814012,106.814012 C97.5062552,116.121768 82.793995,116.121768 73.4862385,106.814012 C64.1784821,97.5062552 64.1784821,82.793995 73.4862385,73.4862385 Z M99.6080067,99.6080067 C104.71226,94.2035029 104.71226,85.7964971 99.6080067,80.3919933 C94.2035029,74.9874896 85.7964971,74.9874896 80.3919933,80.3919933 C74.9874896,85.7964971 74.9874896,94.2035029 80.3919933,99.6080067 C85.7964971,105.01251 94.2035029,105.01251 99.6080067,99.6080067 Z" id="Combined-Shape" fill="#FFFFFF"></path>
            </g>
        </g>
    </g>
</svg>