<?xml version="1.0" encoding="UTF-8"?>
<svg width="1920px" height="1080px" viewBox="0 0 1920 1080" version="1.1" xmlns="http://www.w3.org/2000/svg" xmlns:xlink="http://www.w3.org/1999/xlink">
    <!-- Generator: Sketch 46.2 (44496) - http://www.bohemiancoding.com/sketch -->
    <title>kafka13</title>
    <desc>Created with Sketch.</desc>
    <defs>
        <rect id="path-1" x="0" y="0" width="50" height="270"></rect>
        <rect id="path-3" x="0" y="0" width="50" height="270"></rect>
        <rect id="path-5" x="0" y="0" width="50" height="270"></rect>
        <rect id="path-7" x="0" y="0" width="50" height="270"></rect>
        <rect id="path-9" x="0" y="0" width="50" height="270"></rect>
        <rect id="path-11" x="0" y="0" width="50" height="270"></rect>
        <rect id="path-13" x="0" y="0" width="50" height="270"></rect>
        <rect id="path-15" x="0" y="0" width="50" height="270"></rect>
        <rect id="path-17" x="0" y="0" width="50" height="270"></rect>
        <rect id="path-19" x="0" y="0" width="50" height="270"></rect>
        <filter x="-5.3%" y="-4.0%" width="110.7%" height="110.7%" filterUnits="objectBoundingBox" id="filter-21">
            <feOffset dx="0" dy="2" in="SourceAlpha" result="shadowOffsetOuter1"></feOffset>
            <feGaussianBlur stdDeviation="2" in="shadowOffsetOuter1" result="shadowBlurOuter1"></feGaussianBlur>
            <feColorMatrix values="0 0 0 0 0   0 0 0 0 0   0 0 0 0 0  0 0 0 0.5 0" type="matrix" in="shadowBlurOuter1" result="shadowMatrixOuter1"></feColorMatrix>
            <feMerge>
                <feMergeNode in="shadowMatrixOuter1"></feMergeNode>
                <feMergeNode in="SourceGraphic"></feMergeNode>
            </feMerge>
        </filter>
        <filter x="-5.3%" y="-4.0%" width="110.7%" height="110.7%" filterUnits="objectBoundingBox" id="filter-22">
            <feOffset dx="0" dy="2" in="SourceAlpha" result="shadowOffsetOuter1"></feOffset>
            <feGaussianBlur stdDeviation="2" in="shadowOffsetOuter1" result="shadowBlurOuter1"></feGaussianBlur>
            <feColorMatrix values="0 0 0 0 0   0 0 0 0 0   0 0 0 0 0  0 0 0 0.5 0" type="matrix" in="shadowBlurOuter1" result="shadowMatrixOuter1"></feColorMatrix>
            <feMerge>
                <feMergeNode in="shadowMatrixOuter1"></feMergeNode>
                <feMergeNode in="SourceGraphic"></feMergeNode>
            </feMerge>
        </filter>
    </defs>
    <g id="Actual-Slides" stroke="none" stroke-width="1" fill="none" fill-rule="evenodd">
        <g id="kafka13">
            <g id="Borders" transform="translate(590.000000, 0.000000)">
                <g id="Borders-Copy" transform="translate(690.000000, 0.000000)">
                    <g id="Lines-Copy">
                        <mask id="mask-2" fill="white">
                            <use xlink:href="#path-1"></use>
                        </mask>
                        <use id="Mask" fill="#1E1E1E" xlink:href="#path-1"></use>
                        <g id="Group-2" mask="url(#mask-2)" fill="#FFE859">
                            <g transform="translate(-224.000000, -36.000000)">
                                <rect id="Rectangle-3" transform="translate(367.265677, 185.487836) rotate(-45.000000) translate(-367.265677, -185.487836) " x="158.585677" y="163.15713" width="417.36" height="44.6614126"></rect>
                                <rect id="Rectangle-3-Copy" transform="translate(276.157984, 163.807539) rotate(-45.000000) translate(-276.157984, -163.807539) " x="67.4779843" y="141.476832" width="417.36" height="44.6614126"></rect>
                                <rect id="Rectangle-3-Copy-2" transform="translate(163.357984, 163.807539) rotate(-45.000000) translate(-163.357984, -163.807539) " x="-45.3220157" y="141.476832" width="417.36" height="44.6614126"></rect>
                                <rect id="Rectangle-3" transform="translate(480.065677, 185.487836) rotate(-45.000000) translate(-480.065677, -185.487836) " x="271.385677" y="163.15713" width="417.36" height="44.6614126"></rect>
                                <rect id="Rectangle-3-Copy" transform="translate(388.957984, 163.807539) rotate(-45.000000) translate(-388.957984, -163.807539) " x="180.277984" y="141.476832" width="417.36" height="44.6614126"></rect>
                                <rect id="Rectangle-3-Copy-2" transform="translate(276.157984, 163.807539) rotate(-45.000000) translate(-276.157984, -163.807539) " x="67.4779843" y="141.476832" width="417.36" height="44.6614126"></rect>
                                <rect id="Rectangle-3" transform="translate(592.865677, 185.487836) rotate(-45.000000) translate(-592.865677, -185.487836) " x="384.185677" y="163.15713" width="417.36" height="44.6614126"></rect>
                                <rect id="Rectangle-3-Copy-3" transform="translate(701.327215, 185.487836) rotate(-45.000000) translate(-701.327215, -185.487836) " x="492.647215" y="163.15713" width="417.36" height="44.6614126"></rect>
                                <rect id="Rectangle-3-Copy" transform="translate(501.757984, 163.807539) rotate(-45.000000) translate(-501.757984, -163.807539) " x="293.077984" y="141.476832" width="417.36" height="44.6614126"></rect>
                                <rect id="Rectangle-3-Copy-2" transform="translate(388.957984, 163.807539) rotate(-45.000000) translate(-388.957984, -163.807539) " x="180.277984" y="141.476832" width="417.36" height="44.6614126"></rect>
                            </g>
                        </g>
                    </g>
                    <g id="Lines-Copy-2" transform="translate(0.000000, 226.000000)">
                        <mask id="mask-4" fill="white">
                            <use xlink:href="#path-3"></use>
                        </mask>
                        <use id="Mask" fill="#1E1E1E" xlink:href="#path-3"></use>
                        <g id="Group-2" mask="url(#mask-4)" fill="#FFE859">
                            <g transform="translate(-223.864615, -36.529294)">
                                <rect id="Rectangle-3" transform="translate(367.265677, 185.487836) rotate(-45.000000) translate(-367.265677, -185.487836) " x="158.585677" y="163.15713" width="417.36" height="44.6614126"></rect>
                                <rect id="Rectangle-3-Copy" transform="translate(276.157984, 163.807539) rotate(-45.000000) translate(-276.157984, -163.807539) " x="67.4779843" y="141.476832" width="417.36" height="44.6614126"></rect>
                                <rect id="Rectangle-3-Copy-2" transform="translate(163.357984, 163.807539) rotate(-45.000000) translate(-163.357984, -163.807539) " x="-45.3220157" y="141.476832" width="417.36" height="44.6614126"></rect>
                                <rect id="Rectangle-3" transform="translate(480.065677, 185.487836) rotate(-45.000000) translate(-480.065677, -185.487836) " x="271.385677" y="163.15713" width="417.36" height="44.6614126"></rect>
                                <rect id="Rectangle-3-Copy" transform="translate(388.957984, 163.807539) rotate(-45.000000) translate(-388.957984, -163.807539) " x="180.277984" y="141.476832" width="417.36" height="44.6614126"></rect>
                                <rect id="Rectangle-3-Copy-2" transform="translate(276.157984, 163.807539) rotate(-45.000000) translate(-276.157984, -163.807539) " x="67.4779843" y="141.476832" width="417.36" height="44.6614126"></rect>
                                <rect id="Rectangle-3" transform="translate(592.865677, 185.487836) rotate(-45.000000) translate(-592.865677, -185.487836) " x="384.185677" y="163.15713" width="417.36" height="44.6614126"></rect>
                                <rect id="Rectangle-3-Copy-3" transform="translate(701.327215, 185.487836) rotate(-45.000000) translate(-701.327215, -185.487836) " x="492.647215" y="163.15713" width="417.36" height="44.6614126"></rect>
                                <rect id="Rectangle-3-Copy" transform="translate(501.757984, 163.807539) rotate(-45.000000) translate(-501.757984, -163.807539) " x="293.077984" y="141.476832" width="417.36" height="44.6614126"></rect>
                                <rect id="Rectangle-3-Copy-2" transform="translate(388.957984, 163.807539) rotate(-45.000000) translate(-388.957984, -163.807539) " x="180.277984" y="141.476832" width="417.36" height="44.6614126"></rect>
                            </g>
                        </g>
                    </g>
                    <g id="Lines-Copy-4" transform="translate(0.000000, 451.000000)">
                        <mask id="mask-6" fill="white">
                            <use xlink:href="#path-5"></use>
                        </mask>
                        <use id="Mask" fill="#1E1E1E" xlink:href="#path-5"></use>
                        <g id="Group-2" mask="url(#mask-6)" fill="#FFE859">
                            <g transform="translate(-224.000000, -36.000000)">
                                <rect id="Rectangle-3" transform="translate(367.265677, 185.487836) rotate(-45.000000) translate(-367.265677, -185.487836) " x="158.585677" y="163.15713" width="417.36" height="44.6614126"></rect>
                                <rect id="Rectangle-3-Copy" transform="translate(276.157984, 163.807539) rotate(-45.000000) translate(-276.157984, -163.807539) " x="67.4779843" y="141.476832" width="417.36" height="44.6614126"></rect>
                                <rect id="Rectangle-3-Copy-2" transform="translate(163.357984, 163.807539) rotate(-45.000000) translate(-163.357984, -163.807539) " x="-45.3220157" y="141.476832" width="417.36" height="44.6614126"></rect>
                                <rect id="Rectangle-3" transform="translate(480.065677, 185.487836) rotate(-45.000000) translate(-480.065677, -185.487836) " x="271.385677" y="163.15713" width="417.36" height="44.6614126"></rect>
                                <rect id="Rectangle-3-Copy" transform="translate(388.957984, 163.807539) rotate(-45.000000) translate(-388.957984, -163.807539) " x="180.277984" y="141.476832" width="417.36" height="44.6614126"></rect>
                                <rect id="Rectangle-3-Copy-2" transform="translate(276.157984, 163.807539) rotate(-45.000000) translate(-276.157984, -163.807539) " x="67.4779843" y="141.476832" width="417.36" height="44.6614126"></rect>
                                <rect id="Rectangle-3" transform="translate(592.865677, 185.487836) rotate(-45.000000) translate(-592.865677, -185.487836) " x="384.185677" y="163.15713" width="417.36" height="44.6614126"></rect>
                                <rect id="Rectangle-3-Copy-3" transform="translate(701.327215, 185.487836) rotate(-45.000000) translate(-701.327215, -185.487836) " x="492.647215" y="163.15713" width="417.36" height="44.6614126"></rect>
                                <rect id="Rectangle-3-Copy" transform="translate(501.757984, 163.807539) rotate(-45.000000) translate(-501.757984, -163.807539) " x="293.077984" y="141.476832" width="417.36" height="44.6614126"></rect>
                                <rect id="Rectangle-3-Copy-2" transform="translate(388.957984, 163.807539) rotate(-45.000000) translate(-388.957984, -163.807539) " x="180.277984" y="141.476832" width="417.36" height="44.6614126"></rect>
                            </g>
                        </g>
                    </g>
                    <g id="Lines-Copy-3" transform="translate(0.000000, 677.000000)">
                        <mask id="mask-8" fill="white">
                            <use xlink:href="#path-7"></use>
                        </mask>
                        <use id="Mask" fill="#1E1E1E" xlink:href="#path-7"></use>
                        <g id="Group-2" mask="url(#mask-8)" fill="#FFE859">
                            <g transform="translate(-223.864615, -36.529294)">
                                <rect id="Rectangle-3" transform="translate(367.265677, 185.487836) rotate(-45.000000) translate(-367.265677, -185.487836) " x="158.585677" y="163.15713" width="417.36" height="44.6614126"></rect>
                                <rect id="Rectangle-3-Copy" transform="translate(276.157984, 163.807539) rotate(-45.000000) translate(-276.157984, -163.807539) " x="67.4779843" y="141.476832" width="417.36" height="44.6614126"></rect>
                                <rect id="Rectangle-3-Copy-2" transform="translate(163.357984, 163.807539) rotate(-45.000000) translate(-163.357984, -163.807539) " x="-45.3220157" y="141.476832" width="417.36" height="44.6614126"></rect>
                                <rect id="Rectangle-3" transform="translate(480.065677, 185.487836) rotate(-45.000000) translate(-480.065677, -185.487836) " x="271.385677" y="163.15713" width="417.36" height="44.6614126"></rect>
                                <rect id="Rectangle-3-Copy" transform="translate(388.957984, 163.807539) rotate(-45.000000) translate(-388.957984, -163.807539) " x="180.277984" y="141.476832" width="417.36" height="44.6614126"></rect>
                                <rect id="Rectangle-3-Copy-2" transform="translate(276.157984, 163.807539) rotate(-45.000000) translate(-276.157984, -163.807539) " x="67.4779843" y="141.476832" width="417.36" height="44.6614126"></rect>
                                <rect id="Rectangle-3" transform="translate(592.865677, 185.487836) rotate(-45.000000) translate(-592.865677, -185.487836) " x="384.185677" y="163.15713" width="417.36" height="44.6614126"></rect>
                                <rect id="Rectangle-3-Copy-3" transform="translate(701.327215, 185.487836) rotate(-45.000000) translate(-701.327215, -185.487836) " x="492.647215" y="163.15713" width="417.36" height="44.6614126"></rect>
                                <rect id="Rectangle-3-Copy" transform="translate(501.757984, 163.807539) rotate(-45.000000) translate(-501.757984, -163.807539) " x="293.077984" y="141.476832" width="417.36" height="44.6614126"></rect>
                                <rect id="Rectangle-3-Copy-2" transform="translate(388.957984, 163.807539) rotate(-45.000000) translate(-388.957984, -163.807539) " x="180.277984" y="141.476832" width="417.36" height="44.6614126"></rect>
                            </g>
                        </g>
                    </g>
                    <g id="Lines-Copy-6" transform="translate(0.000000, 902.000000)">
                        <mask id="mask-10" fill="white">
                            <use xlink:href="#path-9"></use>
                        </mask>
                        <use id="Mask" fill="#1E1E1E" xlink:href="#path-9"></use>
                        <g id="Group-2" mask="url(#mask-10)" fill="#FFE859">
                            <g transform="translate(-224.000000, -36.000000)">
                                <rect id="Rectangle-3" transform="translate(367.265677, 185.487836) rotate(-45.000000) translate(-367.265677, -185.487836) " x="158.585677" y="163.15713" width="417.36" height="44.6614126"></rect>
                                <rect id="Rectangle-3-Copy" transform="translate(276.157984, 163.807539) rotate(-45.000000) translate(-276.157984, -163.807539) " x="67.4779843" y="141.476832" width="417.36" height="44.6614126"></rect>
                                <rect id="Rectangle-3-Copy-2" transform="translate(163.357984, 163.807539) rotate(-45.000000) translate(-163.357984, -163.807539) " x="-45.3220157" y="141.476832" width="417.36" height="44.6614126"></rect>
                                <rect id="Rectangle-3" transform="translate(480.065677, 185.487836) rotate(-45.000000) translate(-480.065677, -185.487836) " x="271.385677" y="163.15713" width="417.36" height="44.6614126"></rect>
                                <rect id="Rectangle-3-Copy" transform="translate(388.957984, 163.807539) rotate(-45.000000) translate(-388.957984, -163.807539) " x="180.277984" y="141.476832" width="417.36" height="44.6614126"></rect>
                                <rect id="Rectangle-3-Copy-2" transform="translate(276.157984, 163.807539) rotate(-45.000000) translate(-276.157984, -163.807539) " x="67.4779843" y="141.476832" width="417.36" height="44.6614126"></rect>
                                <rect id="Rectangle-3" transform="translate(592.865677, 185.487836) rotate(-45.000000) translate(-592.865677, -185.487836) " x="384.185677" y="163.15713" width="417.36" height="44.6614126"></rect>
                                <rect id="Rectangle-3-Copy-3" transform="translate(701.327215, 185.487836) rotate(-45.000000) translate(-701.327215, -185.487836) " x="492.647215" y="163.15713" width="417.36" height="44.6614126"></rect>
                                <rect id="Rectangle-3-Copy" transform="translate(501.757984, 163.807539) rotate(-45.000000) translate(-501.757984, -163.807539) " x="293.077984" y="141.476832" width="417.36" height="44.6614126"></rect>
                                <rect id="Rectangle-3-Copy-2" transform="translate(388.957984, 163.807539) rotate(-45.000000) translate(-388.957984, -163.807539) " x="180.277984" y="141.476832" width="417.36" height="44.6614126"></rect>
                            </g>
                        </g>
                    </g>
                </g>
                <g>
                    <g id="Lines-Copy">
                        <mask id="mask-12" fill="white">
                            <use xlink:href="#path-11"></use>
                        </mask>
                        <use id="Mask" fill="#1E1E1E" xlink:href="#path-11"></use>
                        <g id="Group-2" mask="url(#mask-12)" fill="#FFE859">
                            <g transform="translate(-224.000000, -36.000000)">
                                <rect id="Rectangle-3" transform="translate(367.265677, 185.487836) rotate(-45.000000) translate(-367.265677, -185.487836) " x="158.585677" y="163.15713" width="417.36" height="44.6614126"></rect>
                                <rect id="Rectangle-3-Copy" transform="translate(276.157984, 163.807539) rotate(-45.000000) translate(-276.157984, -163.807539) " x="67.4779843" y="141.476832" width="417.36" height="44.6614126"></rect>
                                <rect id="Rectangle-3-Copy-2" transform="translate(163.357984, 163.807539) rotate(-45.000000) translate(-163.357984, -163.807539) " x="-45.3220157" y="141.476832" width="417.36" height="44.6614126"></rect>
                                <rect id="Rectangle-3" transform="translate(480.065677, 185.487836) rotate(-45.000000) translate(-480.065677, -185.487836) " x="271.385677" y="163.15713" width="417.36" height="44.6614126"></rect>
                                <rect id="Rectangle-3-Copy" transform="translate(388.957984, 163.807539) rotate(-45.000000) translate(-388.957984, -163.807539) " x="180.277984" y="141.476832" width="417.36" height="44.6614126"></rect>
                                <rect id="Rectangle-3-Copy-2" transform="translate(276.157984, 163.807539) rotate(-45.000000) translate(-276.157984, -163.807539) " x="67.4779843" y="141.476832" width="417.36" height="44.6614126"></rect>
                                <rect id="Rectangle-3" transform="translate(592.865677, 185.487836) rotate(-45.000000) translate(-592.865677, -185.487836) " x="384.185677" y="163.15713" width="417.36" height="44.6614126"></rect>
                                <rect id="Rectangle-3-Copy-3" transform="translate(701.327215, 185.487836) rotate(-45.000000) translate(-701.327215, -185.487836) " x="492.647215" y="163.15713" width="417.36" height="44.6614126"></rect>
                                <rect id="Rectangle-3-Copy" transform="translate(501.757984, 163.807539) rotate(-45.000000) translate(-501.757984, -163.807539) " x="293.077984" y="141.476832" width="417.36" height="44.6614126"></rect>
                                <rect id="Rectangle-3-Copy-2" transform="translate(388.957984, 163.807539) rotate(-45.000000) translate(-388.957984, -163.807539) " x="180.277984" y="141.476832" width="417.36" height="44.6614126"></rect>
                            </g>
                        </g>
                    </g>
                    <g id="Lines-Copy-2" transform="translate(0.000000, 226.000000)">
                        <mask id="mask-14" fill="white">
                            <use xlink:href="#path-13"></use>
                        </mask>
                        <use id="Mask" fill="#1E1E1E" xlink:href="#path-13"></use>
                        <g id="Group-2" mask="url(#mask-14)" fill="#FFE859">
                            <g transform="translate(-223.864615, -36.529294)">
                                <rect id="Rectangle-3" transform="translate(367.265677, 185.487836) rotate(-45.000000) translate(-367.265677, -185.487836) " x="158.585677" y="163.15713" width="417.36" height="44.6614126"></rect>
                                <rect id="Rectangle-3-Copy" transform="translate(276.157984, 163.807539) rotate(-45.000000) translate(-276.157984, -163.807539) " x="67.4779843" y="141.476832" width="417.36" height="44.6614126"></rect>
                                <rect id="Rectangle-3-Copy-2" transform="translate(163.357984, 163.807539) rotate(-45.000000) translate(-163.357984, -163.807539) " x="-45.3220157" y="141.476832" width="417.36" height="44.6614126"></rect>
                                <rect id="Rectangle-3" transform="translate(480.065677, 185.487836) rotate(-45.000000) translate(-480.065677, -185.487836) " x="271.385677" y="163.15713" width="417.36" height="44.6614126"></rect>
                                <rect id="Rectangle-3-Copy" transform="translate(388.957984, 163.807539) rotate(-45.000000) translate(-388.957984, -163.807539) " x="180.277984" y="141.476832" width="417.36" height="44.6614126"></rect>
                                <rect id="Rectangle-3-Copy-2" transform="translate(276.157984, 163.807539) rotate(-45.000000) translate(-276.157984, -163.807539) " x="67.4779843" y="141.476832" width="417.36" height="44.6614126"></rect>
                                <rect id="Rectangle-3" transform="translate(592.865677, 185.487836) rotate(-45.000000) translate(-592.865677, -185.487836) " x="384.185677" y="163.15713" width="417.36" height="44.6614126"></rect>
                                <rect id="Rectangle-3-Copy-3" transform="translate(701.327215, 185.487836) rotate(-45.000000) translate(-701.327215, -185.487836) " x="492.647215" y="163.15713" width="417.36" height="44.6614126"></rect>
                                <rect id="Rectangle-3-Copy" transform="translate(501.757984, 163.807539) rotate(-45.000000) translate(-501.757984, -163.807539) " x="293.077984" y="141.476832" width="417.36" height="44.6614126"></rect>
                                <rect id="Rectangle-3-Copy-2" transform="translate(388.957984, 163.807539) rotate(-45.000000) translate(-388.957984, -163.807539) " x="180.277984" y="141.476832" width="417.36" height="44.6614126"></rect>
                            </g>
                        </g>
                    </g>
                    <g id="Lines-Copy-4" transform="translate(0.000000, 451.000000)">
                        <mask id="mask-16" fill="white">
                            <use xlink:href="#path-15"></use>
                        </mask>
                        <use id="Mask" fill="#1E1E1E" xlink:href="#path-15"></use>
                        <g id="Group-2" mask="url(#mask-16)" fill="#FFE859">
                            <g transform="translate(-224.000000, -36.000000)">
                                <rect id="Rectangle-3" transform="translate(367.265677, 185.487836) rotate(-45.000000) translate(-367.265677, -185.487836) " x="158.585677" y="163.15713" width="417.36" height="44.6614126"></rect>
                                <rect id="Rectangle-3-Copy" transform="translate(276.157984, 163.807539) rotate(-45.000000) translate(-276.157984, -163.807539) " x="67.4779843" y="141.476832" width="417.36" height="44.6614126"></rect>
                                <rect id="Rectangle-3-Copy-2" transform="translate(163.357984, 163.807539) rotate(-45.000000) translate(-163.357984, -163.807539) " x="-45.3220157" y="141.476832" width="417.36" height="44.6614126"></rect>
                                <rect id="Rectangle-3" transform="translate(480.065677, 185.487836) rotate(-45.000000) translate(-480.065677, -185.487836) " x="271.385677" y="163.15713" width="417.36" height="44.6614126"></rect>
                                <rect id="Rectangle-3-Copy" transform="translate(388.957984, 163.807539) rotate(-45.000000) translate(-388.957984, -163.807539) " x="180.277984" y="141.476832" width="417.36" height="44.6614126"></rect>
                                <rect id="Rectangle-3-Copy-2" transform="translate(276.157984, 163.807539) rotate(-45.000000) translate(-276.157984, -163.807539) " x="67.4779843" y="141.476832" width="417.36" height="44.6614126"></rect>
                                <rect id="Rectangle-3" transform="translate(592.865677, 185.487836) rotate(-45.000000) translate(-592.865677, -185.487836) " x="384.185677" y="163.15713" width="417.36" height="44.6614126"></rect>
                                <rect id="Rectangle-3-Copy-3" transform="translate(701.327215, 185.487836) rotate(-45.000000) translate(-701.327215, -185.487836) " x="492.647215" y="163.15713" width="417.36" height="44.6614126"></rect>
                                <rect id="Rectangle-3-Copy" transform="translate(501.757984, 163.807539) rotate(-45.000000) translate(-501.757984, -163.807539) " x="293.077984" y="141.476832" width="417.36" height="44.6614126"></rect>
                                <rect id="Rectangle-3-Copy-2" transform="translate(388.957984, 163.807539) rotate(-45.000000) translate(-388.957984, -163.807539) " x="180.277984" y="141.476832" width="417.36" height="44.6614126"></rect>
                            </g>
                        </g>
                    </g>
                    <g id="Lines-Copy-3" transform="translate(0.000000, 677.000000)">
                        <mask id="mask-18" fill="white">
                            <use xlink:href="#path-17"></use>
                        </mask>
                        <use id="Mask" fill="#1E1E1E" xlink:href="#path-17"></use>
                        <g id="Group-2" mask="url(#mask-18)" fill="#FFE859">
                            <g transform="translate(-223.864615, -36.529294)">
                                <rect id="Rectangle-3" transform="translate(367.265677, 185.487836) rotate(-45.000000) translate(-367.265677, -185.487836) " x="158.585677" y="163.15713" width="417.36" height="44.6614126"></rect>
                                <rect id="Rectangle-3-Copy" transform="translate(276.157984, 163.807539) rotate(-45.000000) translate(-276.157984, -163.807539) " x="67.4779843" y="141.476832" width="417.36" height="44.6614126"></rect>
                                <rect id="Rectangle-3-Copy-2" transform="translate(163.357984, 163.807539) rotate(-45.000000) translate(-163.357984, -163.807539) " x="-45.3220157" y="141.476832" width="417.36" height="44.6614126"></rect>
                                <rect id="Rectangle-3" transform="translate(480.065677, 185.487836) rotate(-45.000000) translate(-480.065677, -185.487836) " x="271.385677" y="163.15713" width="417.36" height="44.6614126"></rect>
                                <rect id="Rectangle-3-Copy" transform="translate(388.957984, 163.807539) rotate(-45.000000) translate(-388.957984, -163.807539) " x="180.277984" y="141.476832" width="417.36" height="44.6614126"></rect>
                                <rect id="Rectangle-3-Copy-2" transform="translate(276.157984, 163.807539) rotate(-45.000000) translate(-276.157984, -163.807539) " x="67.4779843" y="141.476832" width="417.36" height="44.6614126"></rect>
                                <rect id="Rectangle-3" transform="translate(592.865677, 185.487836) rotate(-45.000000) translate(-592.865677, -185.487836) " x="384.185677" y="163.15713" width="417.36" height="44.6614126"></rect>
                                <rect id="Rectangle-3-Copy-3" transform="translate(701.327215, 185.487836) rotate(-45.000000) translate(-701.327215, -185.487836) " x="492.647215" y="163.15713" width="417.36" height="44.6614126"></rect>
                                <rect id="Rectangle-3-Copy" transform="translate(501.757984, 163.807539) rotate(-45.000000) translate(-501.757984, -163.807539) " x="293.077984" y="141.476832" width="417.36" height="44.6614126"></rect>
                                <rect id="Rectangle-3-Copy-2" transform="translate(388.957984, 163.807539) rotate(-45.000000) translate(-388.957984, -163.807539) " x="180.277984" y="141.476832" width="417.36" height="44.6614126"></rect>
                            </g>
                        </g>
                    </g>
                    <g id="Lines-Copy-6" transform="translate(0.000000, 902.000000)">
                        <mask id="mask-20" fill="white">
                            <use xlink:href="#path-19"></use>
                        </mask>
                        <use id="Mask" fill="#1E1E1E" xlink:href="#path-19"></use>
                        <g id="Group-2" mask="url(#mask-20)" fill="#FFE859">
                            <g transform="translate(-224.000000, -36.000000)">
                                <rect id="Rectangle-3" transform="translate(367.265677, 185.487836) rotate(-45.000000) translate(-367.265677, -185.487836) " x="158.585677" y="163.15713" width="417.36" height="44.6614126"></rect>
                                <rect id="Rectangle-3-Copy" transform="translate(276.157984, 163.807539) rotate(-45.000000) translate(-276.157984, -163.807539) " x="67.4779843" y="141.476832" width="417.36" height="44.6614126"></rect>
                                <rect id="Rectangle-3-Copy-2" transform="translate(163.357984, 163.807539) rotate(-45.000000) translate(-163.357984, -163.807539) " x="-45.3220157" y="141.476832" width="417.36" height="44.6614126"></rect>
                                <rect id="Rectangle-3" transform="translate(480.065677, 185.487836) rotate(-45.000000) translate(-480.065677, -185.487836) " x="271.385677" y="163.15713" width="417.36" height="44.6614126"></rect>
                                <rect id="Rectangle-3-Copy" transform="translate(388.957984, 163.807539) rotate(-45.000000) translate(-388.957984, -163.807539) " x="180.277984" y="141.476832" width="417.36" height="44.6614126"></rect>
                                <rect id="Rectangle-3-Copy-2" transform="translate(276.157984, 163.807539) rotate(-45.000000) translate(-276.157984, -163.807539) " x="67.4779843" y="141.476832" width="417.36" height="44.6614126"></rect>
                                <rect id="Rectangle-3" transform="translate(592.865677, 185.487836) rotate(-45.000000) translate(-592.865677, -185.487836) " x="384.185677" y="163.15713" width="417.36" height="44.6614126"></rect>
                                <rect id="Rectangle-3-Copy-3" transform="translate(701.327215, 185.487836) rotate(-45.000000) translate(-701.327215, -185.487836) " x="492.647215" y="163.15713" width="417.36" height="44.6614126"></rect>
                                <rect id="Rectangle-3-Copy" transform="translate(501.757984, 163.807539) rotate(-45.000000) translate(-501.757984, -163.807539) " x="293.077984" y="141.476832" width="417.36" height="44.6614126"></rect>
                                <rect id="Rectangle-3-Copy-2" transform="translate(388.957984, 163.807539) rotate(-45.000000) translate(-388.957984, -163.807539) " x="180.277984" y="141.476832" width="417.36" height="44.6614126"></rect>
                            </g>
                        </g>
                    </g>
                </g>
            </g>
            <g id="Outgoing-Messages-Copy" transform="translate(1330.000000, 0.000000)">
                <rect id="Background" fill="#494949" x="0" y="0" width="590" height="1080"></rect>
                <path d="M469.000157,261 L270,261 L270,221 L469,221 L469,220.625 C469,217.842 471.258667,215.583333 474.041667,215.583333 L489.166667,215.583333 C491.954708,215.583333 494.208333,217.842 494.208333,220.625 L523.767625,220.625 C537.415417,220.625 544.625,213.168375 544.625,199.066833 L544.625,170.208333 C541.842,170.208333 539.583333,167.949667 539.583333,165.166667 L539.583333,150.041667 C539.583333,147.258667 541.842,145 544.625,145 L584.958333,145 C587.746375,145 590,147.258667 590,150.041667 L590,165.166667 C590,167.949667 587.746375,170.208333 584.958333,170.208333 L584.958333,199.066833 C584.958333,232.614083 556.93675,260.958333 523.767625,260.958333 L494.208333,260.958333 C494.208333,263.741333 491.954708,266 489.166667,266 L474.041667,266 C471.272569,266 469.022579,263.763843 469.000169,261 Z M479,255 L484,255 L484,225 L479,225 L479,255 Z M549,160 L579,160 L579,155 L549,155 L549,160 Z" id="Top-Pipe" fill="#ACACAC" fill-rule="nonzero" transform="translate(430.000000, 205.500000) rotate(-180.000000) translate(-430.000000, -205.500000) "></path>
                <path d="M199.000157,930 L0,930 L0,890 L199,890 L199,889.625 C199,886.842 201.258667,884.583333 204.041667,884.583333 L219.166667,884.583333 C221.954708,884.583333 224.208333,886.842 224.208333,889.625 L253.767625,889.625 C267.415417,889.625 274.625,882.168375 274.625,868.066833 L274.625,839.208333 C271.842,839.208333 269.583333,836.949667 269.583333,834.166667 L269.583333,819.041667 C269.583333,816.258667 271.842,814 274.625,814 L314.958333,814 C317.746375,814 320,816.258667 320,819.041667 L320,834.166667 C320,836.949667 317.746375,839.208333 314.958333,839.208333 L314.958333,868.066833 C314.958333,901.614083 286.93675,929.958333 253.767625,929.958333 L224.208333,929.958333 C224.208333,932.741333 221.954708,935 219.166667,935 L204.041667,935 C201.272569,935 199.022579,932.763843 199.000169,930 Z M209,924 L214,924 L214,894 L209,894 L209,924 Z M279,829 L309,829 L309,824 L279,824 L279,829 Z" id="Bottom-Pipe" fill="#ACACAC" fill-rule="nonzero"></path>
                <g id="Item" transform="translate(70.000000, 315.000000)">
                    <circle id="Oval" fill="#1E1E1E" cx="225" cy="225" r="225"></circle>
                    <circle id="Oval-Copy" fill="#494949" cx="225" cy="225" r="150"></circle>
                </g>
                <g id="Label" filter="url(#filter-21)" transform="translate(370.000000, 615.000000)">
                    <circle id="Background" stroke="#979797" fill="#FFFFFF" cx="75" cy="75" r="75"></circle>
                    <g id="Ship" transform="translate(33.000000, 42.000000)" fill-rule="nonzero" fill="#1E1E1E">
                        <path d="M88.9548126,32.1106086 L79.5892903,32.1106086 C79.0329226,32.1106086 78.5692829,32.5693316 78.5692829,33.1197992 L78.5692829,33.7620113 C78.5692829,34.6794573 77.8274594,35.4134141 76.9001799,35.4134141 L30.8143921,35.4134141 C29.8871127,35.4134141 29.1452891,34.6794573 29.1452891,33.7620113 L29.1452891,32.8445654 L29.1452891,19.8168327 L19.501583,19.8168327 L19.501583,16.6975165 L29.1452891,16.6975165 L29.1452891,14.9543691 L29.1452891,13.7616894 C29.1452891,13.0277326 28.4961935,12.3855205 27.75437,12.3855205 L27.2907303,12.3855205 C26.7343626,12.3855205 26.2707229,11.9267975 26.2707229,11.3763299 L26.2707229,9.44969339 C26.2707229,8.71573662 25.7143552,8.16526904 24.9725317,8.16526904 L22.7470611,8.16526904 C22.0052375,8.16526904 21.4488698,8.71573662 21.4488698,9.44969339 L21.4488698,11.3763299 C21.4488698,11.9267975 20.9852301,12.3855205 20.4288625,12.3855205 L19.9652228,12.3855205 C19.4088551,12.3855205 18.9452154,11.9267975 18.9452154,11.3763299 L18.9452154,1.28442434 C18.9452154,0.550467576 18.3888477,0 17.6470242,0 L15.6070094,0 C14.8651859,0 14.3088182,0.550467576 14.3088182,1.28442434 L14.3088182,11.3763299 C14.3088182,11.9267975 13.8451785,12.3855205 13.2888108,12.3855205 L12.2688035,12.3855205 C11.5269799,12.3855205 10.8778843,13.0277326 10.8778843,13.7616894 L10.8778843,30.3674613 C10.8778843,31.2849072 10.1360608,32.018864 9.20878133,32.018864 L1.41963409,32.018864 C0.585082599,32.018864 -0.156740947,32.7528208 0.0287149393,33.6702667 L3.92328856,58.1660739 C4.10874445,59.3587536 5.12875182,60.184455 6.24148714,60.184455 L70.5946798,60.184455 C71.4292313,60.184455 72.1710548,59.8174766 72.5419666,59.1752644 L89.6966361,33.6702667 C90.2530038,33.0280546 89.6966361,32.1106086 88.9548126,32.1106086 Z M16.6270168,46.9732331 C15.2360976,46.9732331 14.0306344,45.7805534 14.0306344,44.4043845 C14.0306344,43.0282155 15.2360976,41.8355358 16.6270168,41.8355358 C18.0179359,41.8355358 19.2233992,43.0282155 19.2233992,44.4043845 C19.2233992,45.7805534 18.1106639,46.9732331 16.6270168,46.9732331 Z M33.3180466,46.9732331 C31.9271274,46.9732331 30.7216642,45.7805534 30.7216642,44.4043845 C30.7216642,43.0282155 31.9271274,41.8355358 33.3180466,41.8355358 C34.7089657,41.8355358 35.914429,43.0282155 35.914429,44.4043845 C35.8217011,45.7805534 34.7089657,46.9732331 33.3180466,46.9732331 Z M47.5981499,46.9732331 C46.2072307,46.9732331 45.0017674,45.7805534 45.0017674,44.4043845 C45.0017674,43.0282155 46.2072307,41.8355358 47.5981499,41.8355358 C48.989069,41.8355358 50.1945323,43.0282155 50.1945323,44.4043845 C50.1945323,45.7805534 48.989069,46.9732331 47.5981499,46.9732331 Z M61.8782531,46.9732331 C60.487334,46.9732331 59.2818707,45.7805534 59.2818707,44.4043845 C59.2818707,43.0282155 60.487334,41.8355358 61.8782531,41.8355358 C63.2691723,41.8355358 64.4746355,43.0282155 64.4746355,44.4043845 C64.4746355,45.7805534 63.2691723,46.9732331 61.8782531,46.9732331 Z" id="Shape"></path>
                        <path d="M50.9128567,24.3 L37.3723488,24.3 C36.6404294,24.3 36,24.9608489 36,25.7161048 L36,32.7966289 C36,33.5518848 36.6404294,34.2127338 37.3723488,34.2127338 L50.9128567,34.2127338 C51.644776,34.2127338 52.2852055,33.5518848 52.2852055,32.7966289 L52.2852055,25.7161048 C52.2852055,24.9608489 51.736266,24.3 50.9128567,24.3 Z" id="Shape"></path>
                        <path d="M68.996298,24.3 L55.3716126,24.3 C54.6400859,24.3 54,24.9608489 54,25.7161048 L54,32.7966289 C54,33.5518848 54.6400859,34.2127338 55.3716126,34.2127338 L68.9048572,34.2127338 C69.6363839,34.2127338 70.2764698,33.5518848 70.2764698,32.7966289 L70.2764698,25.7161048 C70.3679107,24.9608489 69.7278248,24.3 68.996298,24.3 Z" id="Shape"></path>
                        <path d="M50.9128567,12.6 L37.3723488,12.6 C36.6404294,12.6 36,13.2608489 36,14.0161048 L36,21.0966289 C36,21.8518848 36.6404294,22.5127338 37.3723488,22.5127338 L50.9128567,22.5127338 C51.644776,22.5127338 52.2852055,21.8518848 52.2852055,21.0966289 L52.2852055,14.0161048 C52.2852055,13.1664419 51.736266,12.6 50.9128567,12.6 Z" id="Shape"></path>
                        <path d="M68.996298,12.6 L55.3716126,12.6 C54.6400859,12.6 54,13.2608489 54,14.0161048 L54,21.0966289 C54,21.8518848 54.6400859,22.5127338 55.3716126,22.5127338 L68.9048572,22.5127338 C69.6363839,22.5127338 70.2764698,21.8518848 70.2764698,21.0966289 L70.2764698,14.0161048 C70.3679107,13.1664419 69.7278248,12.6 68.996298,12.6 Z" id="Shape"></path>
                    </g>
                </g>
            </g>
            <g id="Incoming-Message">
                <rect id="Rectangle-2" fill="#494949" x="0" y="0" width="590" height="1080"></rect>
                <path d="M469.000157,261 L270,261 L270,221 L469,221 L469,220.625 C469,217.842 471.258667,215.583333 474.041667,215.583333 L489.166667,215.583333 C491.954708,215.583333 494.208333,217.842 494.208333,220.625 L523.767625,220.625 C537.415417,220.625 544.625,213.168375 544.625,199.066833 L544.625,170.208333 C541.842,170.208333 539.583333,167.949667 539.583333,165.166667 L539.583333,150.041667 C539.583333,147.258667 541.842,145 544.625,145 L584.958333,145 C587.746375,145 590,147.258667 590,150.041667 L590,165.166667 C590,167.949667 587.746375,170.208333 584.958333,170.208333 L584.958333,199.066833 C584.958333,232.614083 556.93675,260.958333 523.767625,260.958333 L494.208333,260.958333 C494.208333,263.741333 491.954708,266 489.166667,266 L474.041667,266 C471.272569,266 469.022579,263.763843 469.000169,261 Z M479,255 L484,255 L484,225 L479,225 L479,255 Z M549,160 L579,160 L579,155 L549,155 L549,160 Z" id="Top-Pipe" fill="#ACACAC" fill-rule="nonzero" transform="translate(430.000000, 205.500000) rotate(-180.000000) translate(-430.000000, -205.500000) "></path>
                <path d="M199.000157,930 L0,930 L0,890 L199,890 L199,889.625 C199,886.842 201.258667,884.583333 204.041667,884.583333 L219.166667,884.583333 C221.954708,884.583333 224.208333,886.842 224.208333,889.625 L253.767625,889.625 C267.415417,889.625 274.625,882.168375 274.625,868.066833 L274.625,839.208333 C271.842,839.208333 269.583333,836.949667 269.583333,834.166667 L269.583333,819.041667 C269.583333,816.258667 271.842,814 274.625,814 L314.958333,814 C317.746375,814 320,816.258667 320,819.041667 L320,834.166667 C320,836.949667 317.746375,839.208333 314.958333,839.208333 L314.958333,868.066833 C314.958333,901.614083 286.93675,929.958333 253.767625,929.958333 L224.208333,929.958333 C224.208333,932.741333 221.954708,935 219.166667,935 L204.041667,935 C201.272569,935 199.022579,932.763843 199.000169,930 Z M209,924 L214,924 L214,894 L209,894 L209,924 Z M279,829 L309,829 L309,824 L279,824 L279,829 Z" id="Bottom-Pipe" fill="#ACACAC" fill-rule="nonzero"></path>
                <g id="Item" transform="translate(70.000000, 315.000000)">
                    <circle id="Oval" fill="#1E1E1E" cx="225" cy="225" r="225"></circle>
                    <circle id="Oval-Copy" fill="#494949" cx="225" cy="225" r="150"></circle>
                    <text id="$6500" font-family="HelveticaNeue-Bold, Helvetica Neue" font-size="36" font-weight="bold" fill="#FFFFFF">
                        <tspan x="175.46" y="422">$6500</tspan>
                    </text>
                    <text id="220kg" font-family="HelveticaNeue-Bold, Helvetica Neue" font-size="36" font-weight="bold" fill="#FFFFFF">
                        <tspan x="179" y="53">220kg</tspan>
                    </text>
                </g>
                <g id="Label" filter="url(#filter-22)" transform="translate(370.000000, 615.000000)">
                    <circle id="Oval-2" stroke="#979797" fill="#FFFFFF" cx="75" cy="75" r="75"></circle>
                    <g id="Basket" transform="translate(35.000000, 42.000000)" fill-rule="nonzero" fill="#1E1E1E">
                        <path d="M77.5,23.5789474 L69.9525,23.5789474 C70.285,23.5789474 70.48,24.7712983 70.48,25.5544101 C70.48,26.9008572 69.96,28.0477371 69.015,29.0026283 L66.21,31.7788861 C65.265,32.7337773 64.01,33.2263799 62.675,33.2263799 C61.34,33.2263799 60.085,32.9308183 59.14,31.9759271 L50.605,23.5789474 L26.895,23.5789474 L18.36,31.9607701 C17.415,32.9181875 16.16,33.3198481 14.825,33.3198481 C13.49,33.3198481 12.235,32.7363034 11.29,31.7814122 L8.485,28.9142125 C7.54,27.9593213 7.02,26.9210666 7.02,25.5720933 C7.02,24.7864553 7.215,23.5814735 7.5475,23.5814735 L2.5,23.5814735 C1.1175,23.5814735 0,24.2256462 0,25.6226166 L0,30.674951 C0,32.0719215 1.1175,33.6861423 2.5,33.6861423 L5,33.6861423 L11.515,62.2192007 C12.09,64.7403156 14.3125,66.5263158 16.875,66.5263158 L60.625,66.5263158 C63.185,66.5263158 65.4075,64.7403156 65.985,62.2192007 L72.5,33.6836161 L77.5,33.6836161 C78.8825,33.6836161 80,32.0668691 80,30.6724248 L80,25.6200905 C80,24.22312 78.8825,23.5789474 77.5,23.5789474 Z M20,50.8817624 L15,50.8817624 L15,45.829428 L20,45.829428 L20,50.8817624 Z M20,40.7770936 L15,40.7770936 L15,35.7247592 L20,35.7247592 L20,40.7770936 Z M30,60.9864311 L25,60.9864311 L25,55.9340968 L30,55.9340968 L30,60.9864311 Z M30,50.8817624 L25,50.8817624 L25,45.829428 L30,45.829428 L30,50.8817624 Z M30,40.7770936 L25,40.7770936 L25,35.7247592 L30,35.7247592 L30,40.7770936 Z M40,60.9864311 L35,60.9864311 L35,55.9340968 L40,55.9340968 L40,60.9864311 Z M40,50.8817624 L35,50.8817624 L35,45.829428 L40,45.829428 L40,50.8817624 Z M40,40.7770936 L35,40.7770936 L35,35.7247592 L40,35.7247592 L40,40.7770936 Z M50,60.9864311 L45,60.9864311 L45,55.9340968 L50,55.9340968 L50,60.9864311 Z M50,50.8817624 L45,50.8817624 L45,45.829428 L50,45.829428 L50,50.8817624 Z M50,40.7770936 L45,40.7770936 L45,35.7247592 L50,35.7247592 L50,40.7770936 Z M60,50.8817624 L55,50.8817624 L55,45.829428 L60,45.829428 L60,50.8817624 Z M60,40.7770936 L55,40.7770936 L55,35.7247592 L60,35.7247592 L60,40.7770936 Z" id="Shape"></path>
                        <path d="M13.6212975,29.5872507 C14.0859607,30.054709 14.7171075,30.3157895 15.3780723,30.3157895 C16.039037,30.3157895 16.6701838,30.054709 17.134847,29.5872507 L39.1578947,7.54708934 L61.1809424,29.5872507 C61.6480905,30.054709 62.2792373,30.3157895 62.9377172,30.3157895 C63.5961971,30.3157895 64.2298288,30.054709 64.694492,29.5872507 L67.4824711,26.7974198 C67.9496192,26.3299615 68.2105263,25.700882 68.2105263,25.0394783 C68.2105263,24.3780745 67.9496192,23.7465085 67.4824711,23.2815367 L44.9425788,0.729160349 C43.9710103,-0.24305345 42.4005978,-0.24305345 41.4290293,0.729160349 L39.1578947,3.00180335 L36.8867602,0.729160349 C35.9151917,-0.24305345 34.3447792,-0.24305345 33.3732107,0.729160349 L10.8333183,23.2815367 C10.3661703,23.7465085 10.1052632,24.3780745 10.1052632,25.0394783 C10.1052632,25.700882 10.3661703,26.332448 10.8333183,26.7974198 L13.6212975,29.5872507 Z M62.7637791,22.8563486 C64.1378901,22.8563486 65.248609,23.9678053 65.248609,25.3428289 C65.248609,26.7178525 64.1378901,27.8293092 62.7637791,27.8293092 C61.3896681,27.8293092 60.2789492,26.7178525 60.2789492,25.3428289 C60.2789492,23.9678053 61.3896681,22.8563486 62.7637791,22.8563486 Z M15.5520104,22.8563486 C16.9261213,22.8563486 18.0368403,23.9678053 18.0368403,25.3428289 C18.0368403,26.7178525 16.9261213,27.8293092 15.5520104,27.8293092 C14.1778994,27.8293092 13.0671804,26.7178525 13.0671804,25.3428289 C13.0671804,23.9678053 14.1778994,22.8563486 15.5520104,22.8563486 Z" id="Shape"></path>
                    </g>
                </g>
            </g>
            <g id="Blueprint" transform="translate(640.000000, 170.000000)">
                <g id="Top-Arrow">
                    <polyline id="Path-12" stroke="#FFFFFF" stroke-width="6" points="0.0200195312 0.162597656 319.920898 0.162597656 319.920898 91.3686523"></polyline>
                    <polygon id="Shape" fill="#FFFFFF" fill-rule="nonzero" transform="translate(319.937515, 82.195018) scale(-1, 1) translate(-319.937515, -82.195018) " points="319.9375 99.3900367 321.875 97.7025367 342.87503 79.7025367 339.00003 75.1713367 322.93753 88.9525367 322.93753 65 316.9375 65 316.9375 88.9525367 300.875 75.1713367 297 79.7025367 318 97.7025367"></polygon>
                </g>
                <g id="Add-to-Cart" transform="translate(244.500000, 99.500000)">
                    <rect id="Rectangle" fill="#FFFFFF" x="0.5" y="0.5" width="150" height="150"></rect>
                    <path d="M100,91 L97.5,91 L97.5,88.5 C97.5,87.1175 96.3825,86 95,86 C93.6175,86 92.5,87.1175 92.5,88.5 L92.5,91 L90,91 C88.6175,91 87.5,92.1175 87.5,93.5 C87.5,94.8825 88.6175,96 90,96 L92.5,96 L92.5,98.5 C92.5,99.8825 93.6175,101 95,101 C96.3825,101 97.5,99.8825 97.5,98.5 L97.5,96 L100,96 C101.3825,96 102.5,94.8825 102.5,93.5 C102.5,92.1175 101.3825,91 100,91 Z" id="Shape" fill="#4D70B8" fill-rule="nonzero"></path>
                    <path d="M113.46875,70.5 C114.868531,70.5 116,69.3825 116,68 L116,63 C116,61.6175 114.868531,60.5 113.46875,60.5 L105.826906,60.5 C106.163562,61.1775 106.361,61.9175 106.361,62.695 C106.361,64.03 105.8345,65.285 104.877687,66.23 L102.037625,69.035 C101.080812,69.98 99.810125,70.5 98.4584375,70.5 C97.10675,70.5 95.8360625,69.98 94.87925,69.035 L86.2375625,60.5 L62.2311875,60.5 L53.5895,69.035 C52.6326875,69.98 51.362,70.5 50.0103125,70.5 C48.658625,70.5 47.3879375,69.98 46.431125,69.035 L43.5910625,66.23 C42.63425,65.285 42.10775,64.03 42.10775,62.695 C42.10775,61.9175 42.3051875,61.1775 42.6418437,60.5 L37.53125,60.5 C36.1314687,60.5 35,61.6175 35,63 L35,68 C35,69.3825 36.1314687,70.5 37.53125,70.5 L40.0625,70.5 L46.6589375,98.7375 C47.241125,101.2325 49.4914062,103 52.0859375,103 L78.2312187,103 C81.7344687,108.9725 88.2600312,113 95.75,113 C106.933062,113 116,104.045 116,93 C116,86.0775 112.438531,79.9825 107.02925,76.39 L108.40625,70.5 L113.46875,70.5 Z M55.25,88 L50.1875,88 L50.1875,83 L55.25,83 L55.25,88 Z M55.25,78 L50.1875,78 L50.1875,73 L55.25,73 L55.25,78 Z M65.375,98 L60.3125,98 L60.3125,93 L65.375,93 L65.375,98 Z M65.375,88 L60.3125,88 L60.3125,83 L65.375,83 L65.375,88 Z M65.375,78 L60.3125,78 L60.3125,73 L65.375,73 L65.375,78 Z M75.5,98 L70.4375,98 L70.4375,93 L75.5,93 L75.5,98 Z M75.5,88 L70.4375,88 L70.4375,83 L75.5,83 L75.5,88 Z M75.5,78 L70.4375,78 L70.4375,73 L75.5,73 L75.5,78 Z M80.5625,78 L80.5625,73 L85.625,73 L85.625,75.6975 C84.4682188,76.36 83.3848438,77.13 82.3875312,78 L80.5625,78 Z M108.40625,93 C108.40625,99.8925 102.728656,105.5 95.75,105.5 C88.7713437,105.5 83.09375,99.8925 83.09375,93 C83.09375,86.1075 88.7713437,80.5 95.75,80.5 C102.728656,80.5 108.40625,86.11 108.40625,93 Z" id="Shape" fill="#4D70B8" fill-rule="nonzero"></path>
                    <path d="M47.5399205,67.2790502 C48.010242,67.7416392 48.6431748,68 49.3086298,68 C49.9740848,68 50.6095193,67.7416392 51.0773392,67.2790502 L73.25,45.4684738 L95.4226608,67.2790502 C95.8929824,67.7416392 96.5259152,68 97.1913702,68 C97.8568252,68 98.4922597,67.7416392 98.9600795,67.2790502 L101.766999,64.5182801 C102.23732,64.0556911 102.5,63.4331645 102.5,62.7786504 C102.5,62.1241362 102.23732,61.499149 101.766999,61.0390207 L79.0739822,38.7215649 C78.0958134,37.7594784 76.5147323,37.7594784 75.5365635,38.7215649 L73.25,40.9705346 L70.9634365,38.7215649 C69.9852677,37.7594784 68.4041866,37.7594784 67.4260178,38.7215649 L44.7330012,61.0390207 C44.2626796,61.5016096 44,62.1265968 44,62.7786504 C44,63.4307039 44.2626796,64.0581517 44.7330012,64.5182801 L47.5399205,67.2790502 Z M97.0162504,60.6182616 C98.3996964,60.6182616 99.517961,61.7181406 99.517961,63.0788411 C99.517961,64.4395415 98.3996964,65.5394205 97.0162504,65.5394205 C95.6328045,65.5394205 94.5145399,64.4395415 94.5145399,63.0788411 C94.5145399,61.7181406 95.6328045,60.6182616 97.0162504,60.6182616 Z M49.4837496,60.6182616 C50.8671955,60.6182616 51.9854601,61.7181406 51.9854601,63.0788411 C51.9854601,64.4395415 50.8671955,65.5394205 49.4837496,65.5394205 C48.1003036,65.5394205 46.982039,64.4395415 46.982039,63.0788411 C46.982039,61.7181406 48.1003036,60.6182616 49.4837496,60.6182616 Z" id="Shape" fill="#4D70B8" fill-rule="nonzero"></path>
                </g>
                <g id="Center-Arrow" transform="translate(290.000000, 249.000000)">
                    <polygon id="Shape-Copy" fill="#FFFFFF" fill-rule="nonzero" transform="translate(29.937515, 113.195018) scale(-1, 1) translate(-29.937515, -113.195018) " points="29.9375 130.390037 31.875 128.702537 52.87503 110.702537 49.00003 106.171337 32.93753 119.952537 32.93753 96 26.9375 96 26.9375 119.952537 10.875 106.171337 7 110.702537 28 128.702537"></polygon>
                    <path d="M30,0.288085938 L30,102.964844" id="Path-14" stroke="#FFFFFF" stroke-width="6"></path>
                    <g id="cog-circle" transform="translate(0.000000, 31.000000)" fill-rule="nonzero">
                        <circle id="Oval-3" fill="#FFFFFF" cx="30" cy="30" r="30"></circle>
                        <path d="M14.6608512,44.124415 C13.8896752,44.5431837 12.9085583,44.2652442 12.4651547,43.4961427 L9.22307698,37.8726294 C8.78160319,37.1068755 9.03144047,36.1137419 9.7780104,35.6562992 L12.0255851,34.2791516 C12.7735402,33.8208601 13.3794916,32.7340937 13.3790204,31.8609051 L13.3767845,27.7172922 C13.3763112,26.840023 12.7681886,25.7564783 12.0215985,25.2990232 L9.77396302,23.9218385 C9.02598779,23.4635346 8.77596959,22.4748147 9.2198469,21.7059966 L12.465388,16.0845546 C12.9073333,15.3190827 13.8919586,15.0386737 14.6614214,15.4565122 L16.9779161,16.7144291 C17.7488066,17.1330428 18.9933525,17.1151065 19.7497915,16.6789203 L23.3393835,14.6090502 C24.0993576,14.1708255 24.7340567,13.1030875 24.7569288,12.2278176 L24.8257861,9.59278697 C24.8487008,8.71589314 25.5799545,8.00458723 26.4677177,8.00403535 L32.958862,8.00000032 C33.8427612,7.99945083 34.5779289,8.71177538 34.60081,9.58739319 L34.6696948,12.2234711 C34.6926184,13.1007135 35.3307483,14.1695542 36.0871031,14.6062359 L39.6762943,16.6784564 C40.4361836,17.1171787 41.6787852,17.1325787 42.4485332,16.7145856 L44.765886,15.4562025 C45.537062,15.0374338 46.5181788,15.3153733 46.9615825,16.0844747 L50.2036603,21.7079883 C50.645134,22.4737421 50.3952968,23.4668756 49.6487268,23.9243183 L47.401152,25.3014659 C46.653197,25.7597575 46.0472457,26.846524 46.0477167,27.7197125 L46.0499527,31.8633255 C46.050426,32.7405946 46.6585486,33.8241391 47.4051387,34.2815944 L49.6527742,35.6587791 C50.4007495,36.1170831 50.6507676,37.1058029 50.2068902,37.8746209 L46.9613492,43.4960631 C46.5194039,44.2615349 45.5347786,44.5419438 44.7653158,44.1241054 L42.4488211,42.8661883 C41.6779307,42.4475747 40.4333847,42.465511 39.6769456,42.9016973 L36.0873537,44.9715675 C35.3273796,45.4097921 34.6926806,46.47753 34.6698084,47.3528 L34.600951,49.9878306 C34.5780364,50.8647245 33.8467827,51.5760304 32.9590195,51.5765821 L26.4678752,51.5806173 C25.583976,51.5811667 24.8488084,50.8688422 24.8259272,49.9932244 L24.7570424,47.3571464 C24.7341188,46.4799041 24.0959888,45.4110633 23.3396341,44.9743818 L19.7504429,42.9021611 C18.9905536,42.4634389 17.747952,42.4480389 16.978204,42.866032 L14.6608512,44.124415 Z M24.9310161,38.0735863 C29.5057439,40.7148067 35.3554258,39.1473891 37.9966461,34.5726612 C40.6378665,29.9979334 39.0704489,24.1482516 34.495721,21.5070312 C29.9209933,18.8658109 24.0713114,20.4332285 21.4300911,25.0079563 C18.7888707,29.5826841 20.3562883,35.4323659 24.9310161,38.0735863 Z" id="Shape" fill="#4D70B8"></path>
                    </g>
                </g>
                <g id="State" transform="translate(55.000000, 380.000000)">
                    <g id="Item-list" transform="translate(65.000000, 0.000000)">
                        <path d="M40.010577,150 L380,150 C391.045695,150 400,141.045695 400,130 L400,130 L400,20 C400,8.954305 391.045695,2.74025825e-14 380,0 L20,0 L20,-7.10542736e-15 C8.954305,-5.0763661e-15 -1.3527075e-15,8.954305 0,20 L0,20 L0,130 C1.3527075e-15,141.045695 8.954305,150 20,150 L20.0843821,150 L20.0843821,169.967766 L40.010577,150 Z" id="Speech-bubble" fill="#FFFFFF"></path>
                        <path d="M49.2884667,92.1476686 L95.8262874,92.1476686 C96.4421664,92.1403165 97.0145719,92.4511315 97.3247463,92.9613287 C97.6349206,93.4715258 97.6349206,94.1022447 97.3247463,94.6124418 C97.0145719,95.122639 96.4421664,95.433454 95.8262874,95.4261019 L49.2884667,95.4261019 C48.6725877,95.433454 48.1001822,95.122639 47.7900078,94.6124418 C47.4798335,94.1022447 47.4798335,93.4715258 47.7900078,92.9613287 C48.1001822,92.4511315 48.6725877,92.1403165 49.2884667,92.1476686 Z M49.2914388,98.2952507 L49.2914388,98.2952507 L95.8233153,98.2952507 C96.4398617,98.2867852 97.0133898,98.5973456 97.3242396,99.107988 C97.6350895,99.6186305 97.6350895,100.250222 97.3242396,100.760864 C97.0133898,101.271507 96.4398617,101.582067 95.8233153,101.573602 L49.2914388,101.573602 C48.6748924,101.582067 48.1013643,101.271507 47.7905145,100.760864 C47.4796646,100.250222 47.4796646,99.6186305 47.7905145,99.107988 C48.1013643,98.5973456 48.6748924,98.2867852 49.2914388,98.2952507 Z M73.4367715,37.1280223 C100.648634,36.3762023 114.257113,36.0002507 114.262208,36.0001675 C114.812267,35.9924626 115.33222,36.2509993 115.658423,36.6944091 C115.984627,37.137819 116.076966,37.7115738 115.906378,38.2350974 L100.006563,87.0146001 C99.9333947,87.4799858 99.6712346,87.8943697 99.2822213,88.1595325 C98.9183186,88.418909 98.4672287,88.5248955 98.0260423,88.4546798 L51.2812037,88.4546798 C48.9966299,88.4546798 47.4487543,89.4221826 46.275832,91.0238255 C45.1028245,92.6255537 44.4294426,94.9151626 44.408735,97.217055 C44.3881125,99.5190328 45.0201643,101.795676 46.1743389,103.384779 C47.3285135,104.973797 48.8858482,105.948636 51.2812037,105.948636 L96.9895519,105.948636 L112.66627,57.8453702 C112.846983,57.2558214 113.33146,56.8097816 113.933445,56.6787321 C114.535429,56.5476827 115.161207,56.7520244 115.570196,57.2131975 C115.979186,57.6743706 116.107718,58.320583 115.906378,58.9033962 L100.028634,107.623725 C100.036986,108.085637 99.8578401,108.531193 99.5321536,108.858526 C99.206467,109.18586 98.7620873,109.366983 98.3006104,109.360487 L51.2812037,109.360487 C47.8652082,109.360487 45.1105792,107.721993 43.4175798,105.391183 C41.7246654,103.060458 40.9744179,100.110948 41.0006646,97.1864314 C41.0198383,95.0400457 41.4577668,92.887177 42.3603818,90.976909 L55.0768395,58.0882183 C56.3310585,53.6910194 58.3264921,48.683676 61.2616951,44.6093306 C64.2141972,40.5108872 68.2741751,37.2575288 73.4367715,37.1280223 Z" id="Book" fill="#4D70B8"></path>
                        <path d="M229.266667,44.7333333 C213.666667,29.1333333 188.333333,29.1333333 172.733333,44.7333333 C157.133333,60.3333333 157.133333,85.6666667 172.733333,101.266667 C188.333333,116.866667 213.666667,116.866667 229.266667,101.266667 C244.866667,85.6666667 244.866667,60.3333333 229.266667,44.7333333 Z M210.333333,82.3333333 C206.733333,85.9333333 201.4,87 196.866667,85.5333333 L189.8,106.333333 C184.866667,104.6 180.066667,101.8 176.2,97.9333333 C172.2,93.9333333 169.4,89.2666667 167.8,84.3333333 L188.733333,77.2666667 C187.266667,72.7333333 188.2,67.4 191.933333,63.8 C195.533333,60.2 200.866667,59.1333333 205.4,60.6 L212.2,39.6666667 C217.133333,41.4 221.933333,44.2 225.8,48.0666667 C229.8,52.0666667 232.6,56.7333333 234.2,61.6666667 L213.266667,68.7333333 C215,73.4 213.933333,78.6 210.333333,82.3333333 Z M193.666667,65.6666667 C189.533333,69.8 189.533333,76.3333333 193.666667,80.4666667 C197.8,84.6 204.333333,84.6 208.466667,80.4666667 C212.6,76.3333333 212.6,69.8 208.466667,65.6666667 C204.333333,61.5333333 197.666667,61.5333333 193.666667,65.6666667 Z M205.266667,77.2666667 C202.866667,79.6666667 199.133333,79.6666667 196.733333,77.2666667 C194.333333,74.8666667 194.333333,71.1333333 196.733333,68.7333333 C199.133333,66.3333333 202.866667,66.3333333 205.266667,68.7333333 C207.533333,71.1333333 207.533333,74.8666667 205.266667,77.2666667 Z" id="Game" fill="#4D70B8" fill-rule="nonzero"></path>
                        <path d="M349.038889,82.6444444 C349.038889,82.6444444 352.816667,78.5833333 356.783333,77.6388889 L355.744444,95.6777778 L352.911111,97.85 L350.077778,95.6777778 L349.038889,82.6444444 Z M292.466667,99.2666667 L291.522222,85.4777778 L298.888889,88.2166667 L297.944444,100.305556 L295.205556,101.061111 L292.466667,99.2666667 Z M311.45,92.9388889 L311.355556,92.9388889 L311.355556,101.722222 L307.672222,103.044444 C307.577778,103.044444 307.483333,103.044444 307.388889,103.044444 L304.838889,102.1 C304.366667,101.911111 304.461111,101.25 304.933333,101.155556 L309.561111,100.4 L309.561111,92.3722222 L311.45,92.9388889 Z M313.716667,102.005556 L313.716667,102.005556 L313.716667,93.9777778 L315.605556,94.5444444 L315.605556,103.327778 L312.3,105.783333 C312.205556,105.783333 312.111111,105.783333 312.016667,105.783333 L309.844444,104.744444 C309.372222,104.555556 309.466667,103.894444 309.938889,103.8 L313.716667,102.005556 Z M357.727778,55.9166667 C360.655556,56.4833333 362.733333,59.0333333 362.922222,62.0555556 L362.922222,66.4 C362.922222,70.2722222 360.655556,73.6722222 357.161111,75.1833333 C352.627778,77.1666667 349.133333,80.0944444 346.961111,82.4555556 C344.694444,84.8166667 341.861111,86.5166667 338.65,87.2722222 C337.988889,87.7444444 337.233333,88.3111111 336.572222,88.8777778 C335.344444,89.9166667 333.927778,91.4277778 333.833333,93.0333333 L332.511111,111.922222 L328.733333,113.716667 L325.9,111.638889 L324.577778,93.0333333 C324.294444,91.1444444 320.988889,91.2388889 320.988889,91.2388889 L315.605556,92.4666667 L280.377778,79.5277778 L280.377778,69.7055556 C280.377778,67.9111111 281.983333,66.4 283.777778,66.4944444 L286.988889,66.6833333 C290.388889,66.3055556 291.994444,62.4333333 292.655556,60.1666667 C292.938889,59.2222222 293.694444,58.5611111 294.733333,58.3722222 C295.866667,58.2777778 297.566667,57.9944444 299.738889,57.7111111 L325.238889,30.5111111 C325.9,29.85 326.75,29.3777778 327.694444,29.2833333 C330.716667,28.9055556 337.327778,28.4333333 338.838889,32.1166667 C340.822222,36.9333333 340.255556,36.3666667 344.222222,38.7277778 C347.811111,40.8055556 347.15,50.9111111 337.611111,53.9333333 C346.394444,53.9333333 353.383333,54.9722222 357.727778,55.9166667 Z M289.444444,75.1833333 C289.444444,74.8055556 289.727778,74.4277778 290.2,74.3333333 L291.711111,73.9555556 L288.783333,72.9166667 C287.272222,72.9166667 285.477778,72.9166667 285.477778,74.4277778 L285.477778,75.4666667 L289.444444,76.9777778 L289.444444,75.1833333 Z M294.922222,78.0166667 C294.922222,77.6388889 295.3,77.2611111 295.677778,77.1666667 L298.794444,76.4111111 L295.111111,75.0888889 L291.238889,75.8444444 L291.238889,77.5444444 C291.238889,77.6388889 291.238889,77.6388889 291.238889,77.6388889 L294.922222,79.0555556 L294.922222,78.0166667 Z M300.683333,80.0944444 C300.683333,79.6222222 300.966667,79.2444444 301.438889,79.2444444 L304.744444,78.5833333 L302.005556,77.6388889 L296.811111,78.8666667 L296.811111,79.8111111 L300.683333,81.2277778 L300.683333,80.0944444 Z M302.477778,80.85 L302.477778,81.8888889 L306.727778,83.4944444 L306.727778,82.4555556 C306.727778,82.0777778 307.011111,81.7 307.483333,81.6055556 L311.261111,80.85 L307.766667,79.6222222 C307.672222,79.8111111 307.483333,79.9055556 307.294444,79.9055556 L302.477778,80.85 Z M312.866667,84.1555556 C312.866667,82.9277778 314.755556,83.0222222 315.888889,82.4555556 L314.661111,82.0777778 L308.616667,83.2111111 L308.616667,84.1555556 L312.866667,85.7611111 L312.866667,84.1555556 Z M349.511111,61.3944444 C353.383333,60.7333333 355.555556,58.0888889 349.511111,57.4277778 C347.15,57.2388889 343.183333,57.1444444 337.988889,57.3333333 L330.244444,39.0111111 C329.772222,37.7833333 328.544444,36.9333333 327.222222,36.9333333 C326.938889,36.9333333 326.655556,36.9333333 326.372222,37.0277778 C325.522222,37.2166667 324.766667,37.8777778 324.388889,38.6333333 C323.916667,39.3888889 323.916667,40.3333333 324.2,41.2777778 L330.433333,57.8055556 C323.633333,58.2777778 315.322222,59.2222222 305.594444,60.9222222 L326.372222,66.5888889 L335.25,65.6444444 L334.305556,62.9055556 L325.9,40.6166667 C325.616667,39.8611111 325.994444,38.9166667 326.844444,38.7277778 C326.938889,38.6333333 327.127778,38.6333333 327.222222,38.6333333 C327.883333,38.6333333 328.45,39.0111111 328.638889,39.5777778 L338.177778,62.6222222 L338.366667,63 L339.311111,65.0777778 L341.388889,64.8888889 C342.616667,64.7 343.75,64.1333333 344.788889,63.3777778 C345.733333,62.6222222 347.338889,61.7722222 349.511111,61.3944444 Z" id="Grand-Piano" fill="#4D70B8" fill-rule="nonzero"></path>
                    </g>
                    <text id="$6555" font-family="HelveticaNeue-Bold, Helvetica Neue" font-size="36" font-weight="bold" fill="#FFFFFF">
                        <tspan x="124.46" y="229">$6555</tspan>
                    </text>
                    <text id="220.7kg" font-family="HelveticaNeue-Bold, Helvetica Neue" font-size="36" font-weight="bold" fill="#FFFFFF">
                        <tspan x="256.134" y="229">220.7kg</tspan>
                    </text>
                    <g id="Basket" transform="translate(0.000000, 170.000000)">
                        <rect id="Rectangle-4" fill="#D8D8D8" opacity="0" x="0" y="0" width="90" height="90"></rect>
                        <path d="M82.5,35.5789474 L74.9525,35.5789474 C75.285,35.5789474 75.48,36.7712983 75.48,37.5544101 C75.48,38.9008572 74.96,40.0477371 74.015,41.0026283 L71.21,43.7788861 C70.265,44.7337773 69.01,45.2263799 67.675,45.2263799 C66.34,45.2263799 65.085,44.9308183 64.14,43.9759271 L55.605,35.5789474 L31.895,35.5789474 L23.36,43.9607701 C22.415,44.9181875 21.16,45.3198481 19.825,45.3198481 C18.49,45.3198481 17.235,44.7363034 16.29,43.7814122 L13.485,40.9142125 C12.54,39.9593213 12.02,38.9210666 12.02,37.5720933 C12.02,36.7864553 12.215,35.5814735 12.5475,35.5814735 L7.5,35.5814735 C6.1175,35.5814735 5,36.2256462 5,37.6226166 L5,42.674951 C5,44.0719215 6.1175,45.6861423 7.5,45.6861423 L10,45.6861423 L16.515,74.2192007 C17.09,76.7403156 19.3125,78.5263158 21.875,78.5263158 L65.625,78.5263158 C68.185,78.5263158 70.4075,76.7403156 70.985,74.2192007 L77.5,45.6836161 L82.5,45.6836161 C83.8825,45.6836161 85,44.0668691 85,42.6724248 L85,37.6200905 C85,36.22312 83.8825,35.5789474 82.5,35.5789474 Z M25,62.8817624 L20,62.8817624 L20,57.829428 L25,57.829428 L25,62.8817624 Z M25,52.7770936 L20,52.7770936 L20,47.7247592 L25,47.7247592 L25,52.7770936 Z M35,72.9864311 L30,72.9864311 L30,67.9340968 L35,67.9340968 L35,72.9864311 Z M35,62.8817624 L30,62.8817624 L30,57.829428 L35,57.829428 L35,62.8817624 Z M35,52.7770936 L30,52.7770936 L30,47.7247592 L35,47.7247592 L35,52.7770936 Z M45,72.9864311 L40,72.9864311 L40,67.9340968 L45,67.9340968 L45,72.9864311 Z M45,62.8817624 L40,62.8817624 L40,57.829428 L45,57.829428 L45,62.8817624 Z M45,52.7770936 L40,52.7770936 L40,47.7247592 L45,47.7247592 L45,52.7770936 Z M55,72.9864311 L50,72.9864311 L50,67.9340968 L55,67.9340968 L55,72.9864311 Z M55,62.8817624 L50,62.8817624 L50,57.829428 L55,57.829428 L55,62.8817624 Z M55,52.7770936 L50,52.7770936 L50,47.7247592 L55,47.7247592 L55,52.7770936 Z M65,62.8817624 L60,62.8817624 L60,57.829428 L65,57.829428 L65,62.8817624 Z M65,52.7770936 L60,52.7770936 L60,47.7247592 L65,47.7247592 L65,52.7770936 Z" id="Shape" fill="#FFFFFF" fill-rule="nonzero"></path>
                        <path d="M18.6212975,41.5872507 C19.0859607,42.054709 19.7171075,42.3157895 20.3780723,42.3157895 C21.039037,42.3157895 21.6701838,42.054709 22.134847,41.5872507 L44.1578947,19.5470893 L66.1809424,41.5872507 C66.6480905,42.054709 67.2792373,42.3157895 67.9377172,42.3157895 C68.5961971,42.3157895 69.2298288,42.054709 69.694492,41.5872507 L72.4824711,38.7974198 C72.9496192,38.3299615 73.2105263,37.700882 73.2105263,37.0394783 C73.2105263,36.3780745 72.9496192,35.7465085 72.4824711,35.2815367 L49.9425788,12.7291603 C48.9710103,11.7569466 47.4005978,11.7569466 46.4290293,12.7291603 L44.1578947,15.0018033 L41.8867602,12.7291603 C40.9151917,11.7569466 39.3447792,11.7569466 38.3732107,12.7291603 L15.8333183,35.2815367 C15.3661703,35.7465085 15.1052632,36.3780745 15.1052632,37.0394783 C15.1052632,37.700882 15.3661703,38.332448 15.8333183,38.7974198 L18.6212975,41.5872507 Z M67.7637791,34.8563486 C69.1378901,34.8563486 70.248609,35.9678053 70.248609,37.3428289 C70.248609,38.7178525 69.1378901,39.8293092 67.7637791,39.8293092 C66.3896681,39.8293092 65.2789492,38.7178525 65.2789492,37.3428289 C65.2789492,35.9678053 66.3896681,34.8563486 67.7637791,34.8563486 Z M20.5520104,34.8563486 C21.9261213,34.8563486 23.0368403,35.9678053 23.0368403,37.3428289 C23.0368403,38.7178525 21.9261213,39.8293092 20.5520104,39.8293092 C19.1778994,39.8293092 18.0671804,38.7178525 18.0671804,37.3428289 C18.0671804,35.9678053 19.1778994,34.8563486 20.5520104,34.8563486 Z" id="Shape" fill="#FFFFFF" fill-rule="nonzero"></path>
                    </g>
                </g>
            </g>
            <g id="Weight" transform="translate(1585.000000, 704.000000)" font-size="36" font-family="HelveticaNeue-Bold, Helvetica Neue" fill="#FFFFFF" font-weight="bold">
                <text id="$150">
                    <tspan x="0.468" y="35">$150</tspan>
                </text>
            </g>
            <g id="noun_361717" transform="translate(200.000000, 449.000000)">
                <path d="M154.322222,119.911111 L156.644444,149.044444 L162.977778,153.9 L169.311111,149.044444 L171.633333,108.722222 C162.766667,110.833333 154.322222,119.911111 154.322222,119.911111 Z" id="Shape" fill="#000000" fill-rule="nonzero"></path>
                <polygon id="Shape" fill="#000000" fill-rule="nonzero" points="27.8666667 157.066667 33.9888889 161.077778 40.1111111 159.388889 42.2222222 132.366667 25.7555556 126.244444"></polygon>
                <path d="M70.3,142.922222 L66.0777778,141.655556 L66.0777778,159.6 L55.7333333,161.288889 C54.6777778,161.5 54.4666667,162.977778 55.5222222,163.4 L61.2222222,165.511111 C61.4333333,165.511111 61.6444444,165.511111 61.8555556,165.511111 L70.0888889,162.555556 L70.0888889,142.922222 L70.3,142.922222 Z" id="Shape" fill="#000000" fill-rule="nonzero"></path>
                <path d="M75.3666667,163.188889 L66.9222222,167.2 C65.8666667,167.411111 65.6555556,168.888889 66.7111111,169.311111 L71.5666667,171.633333 C71.7777778,171.633333 71.9888889,171.633333 72.2,171.633333 L79.5888889,166.144444 L79.5888889,146.511111 L75.3666667,145.244444 L75.3666667,163.188889 L75.3666667,163.188889 Z" id="Shape" fill="#000000" fill-rule="nonzero"></path>
                <polygon id="Rectangle-9" fill="#FFFFFF" points="6 86 96 102 85 135 4 109"></polygon>
                <path d="M173.744444,60.1666667 C164.033333,58.0555556 148.411111,55.7333333 128.777778,55.7333333 C150.1,48.9777778 151.577778,26.3888889 143.555556,21.7444444 C134.688889,16.4666667 135.955556,17.7333333 131.522222,6.96666667 C128.144444,-1.26666667 113.366667,-0.211111111 106.611111,0.633333333 C104.5,0.844444444 102.6,1.9 101.122222,3.37777778 L44.1222222,64.1777778 C39.2666667,64.8111111 35.4666667,65.4444444 32.9333333,65.6555556 C30.6111111,66.0777778 28.9222222,67.5555556 28.2888889,69.6666667 C26.8111111,74.7333333 23.2222222,83.3888889 15.6222222,84.2333333 L8.44444444,83.8111111 C4.43333333,83.6 0.844444444,86.9777778 0.844444444,90.9888889 L0.844444444,112.944444 L79.5888889,141.866667 L91.6222222,139.122222 C91.6222222,139.122222 99.0111111,138.911111 99.6444444,143.133333 L102.6,184.722222 L108.933333,189.366667 L117.377778,185.355556 L120.333333,143.133333 C120.544444,139.544444 123.711111,136.166667 126.455556,133.844444 C127.933333,132.577778 129.622222,131.311111 131.1,130.255556 C138.277778,128.566667 144.611111,124.766667 149.677778,119.488889 C154.533333,114.211111 162.344444,107.666667 172.477778,103.233333 C180.288889,99.8555556 185.355556,92.2555556 185.355556,83.6 L185.355556,73.8888889 C184.933333,67.1333333 180.288889,61.4333333 173.744444,60.1666667 Z M21.1111111,103.233333 L21.1111111,107.244444 L12.2444444,103.866667 L12.2444444,101.544444 C12.2444444,98.1666667 16.2555556,98.1666667 19.6333333,98.1666667 L26.1777778,100.488889 L22.8,101.333333 C21.7444444,101.544444 21.1111111,102.388889 21.1111111,103.233333 Z M33.3555556,109.566667 L33.3555556,111.888889 L25.1222222,108.722222 C25.1222222,108.722222 25.1222222,108.722222 25.1222222,108.511111 L25.1222222,104.711111 L33.7777778,103.022222 L42.0111111,105.977778 L35.0444444,107.666667 C34.2,107.877778 33.3555556,108.722222 33.3555556,109.566667 Z M46.2333333,114.211111 L46.2333333,116.744444 L37.5777778,113.577778 L37.5777778,111.466667 L49.1888889,108.722222 L55.3111111,110.833333 L47.9222222,112.311111 C46.8666667,112.311111 46.2333333,113.155556 46.2333333,114.211111 Z M50.2444444,115.9 L61.0111111,113.788889 C61.4333333,113.788889 61.8555556,113.577778 62.0666667,113.155556 L69.8777778,115.9 L61.4333333,117.588889 C60.3777778,117.8 59.7444444,118.644444 59.7444444,119.488889 L59.7444444,121.811111 L50.2444444,118.222222 L50.2444444,115.9 Z M73.4666667,123.288889 L73.4666667,126.877778 L63.9666667,123.288889 L63.9666667,121.177778 L77.4777778,118.644444 L80.2222222,119.488889 C77.6888889,120.755556 73.4666667,120.544444 73.4666667,123.288889 Z M155.377778,72.4111111 C150.522222,73.2555556 146.933333,75.1555556 144.822222,76.8444444 C142.5,78.5333333 139.966667,79.8 137.222222,80.2222222 L132.577778,80.6444444 L130.466667,76 L130.466667,76 L130.044444,75.1555556 L130.044444,75.1555556 L108.722222,23.6444444 C108.3,22.3777778 107.033333,21.5333333 105.555556,21.5333333 C105.344444,21.5333333 104.922222,21.5333333 104.711111,21.7444444 C102.811111,22.1666667 101.966667,24.2777778 102.6,25.9666667 L121.388889,75.7888889 L123.5,81.9111111 L103.655556,84.0222222 L57.2111111,71.3555556 C78.9555556,67.5555556 97.5333333,65.4444444 112.733333,64.3888889 L98.8,27.4444444 C98.8,27.4444444 98.8,27.4444444 98.8,27.4444444 C98.1666667,25.3333333 98.1666667,23.2222222 99.2222222,21.5333333 C100.066667,19.8444444 101.755556,18.3666667 103.655556,17.9444444 C104.288889,17.7333333 104.922222,17.7333333 105.555556,17.7333333 C108.511111,17.7333333 111.255556,19.6333333 112.311111,22.3777778 L129.622222,63.3333333 C141.233333,62.9111111 150.1,63.1222222 155.377778,63.5444444 C168.888889,65.0222222 164.033333,70.9333333 155.377778,72.4111111 Z" id="Shape" fill="#000000" fill-rule="nonzero"></path>
            </g>
            <g id="Bottom-Arrow" transform="translate(960.000000, 810.000000)">
                <polyline id="Path-12-Copy" stroke="#FFFFFF" stroke-width="6" transform="translate(155.388916, 49.915527) scale(-1, -1) translate(-155.388916, -49.915527) " points="0.0200195312 0 310.757812 0 310.757812 99.8310547"></polyline>
                <polygon id="Shape-Copy" fill="#FFFFFF" fill-rule="nonzero" transform="translate(303.195018, 99.937515) scale(-1, 1) rotate(-270.000000) translate(-303.195018, -99.937515) " points="303.195003 117.132533 305.132503 115.445033 326.132533 97.4450334 322.257533 92.9138334 306.195033 106.695033 306.195033 82.7424966 300.195003 82.7424966 300.195003 106.695033 284.132503 92.9138334 280.257503 97.4450334 301.257503 115.445033"></polygon>
            </g>
            <g id="noun_979358" transform="translate(1549.000000, 424.000000)" fill-rule="nonzero" fill="#FFFFFF">
                <path d="M134.766283,201.720042 L137.417582,200.494505 L135.452429,202.248702 L135.660398,203.017553 L135.753986,203.341991 L132.759558,205 L131.335058,204.471395 L130.659341,202.825345 L132.042189,202.681175 L132.250047,202.657146 L132.66597,201.659934 L134.766283,201.720042 Z M64.2032967,109.86583 L68.8326159,108.131868 L69.8351648,110.743248 L67.9427599,114.89011 L64.6425715,112.00715 L64.2032967,109.86583 Z M13.0473995,112.34616 L12.8668372,107.040536 L11.2637363,104.177707 L12.4152283,98.2530709 L14.8763048,93.489011 L17.4050932,93.9532892 L21.1984399,93.5001148 L17.8115636,99.8337729 L21.0403431,99.0379291 L24.5061557,99.0710714 L23.6819776,103.735586 L20.8371081,108.74283 L24.1110173,109.096561 L24.3593995,109.671318 L27.1817001,116.071277 L29.3492601,116.922378 L31.3023567,122.902313 L32.2054794,124.936131 L36.043956,125.908823 L35.6600547,129.14753 L34.0457212,130.617584 L35.3100634,133.193033 L32.4651852,135.768474 L28.2316825,135.724228 L22.8465713,137.061696 L21.3677652,136.100048 L19.2792449,138.377057 L16.3553269,137.824389 L14.1312875,139.67033 L12.4491338,138.708682 L17.0891156,133.579855 L19.9226531,132.507669 L19.9001877,132.507669 L14.9553532,131.678666 L14.0635713,129.689095 L17.3712955,128.130541 L15.6327665,125.389254 L16.23114,122.006916 L20.9388293,122.471135 L21.4016753,119.442571 L19.2792449,116.181774 L19.2341066,116.104377 L15.3957337,115.164836 L14.6393756,113.705725 L15.7907595,111.273974 L14.7521179,109.759666 L13.0473995,112.34616 Z M110.946327,202.008833 L110.865342,202.759748 L112.637363,202.246591 L112.232065,203.510645 L107.552868,203.873626 L107.587543,203.17275 L103.626374,202.33427 L104.228422,200.494505 L106.000656,201.946279 L108.525628,201.708462 L110.946327,202.008833 Z M48.2712063,93.299455 L47.1654388,86.8589707 L46.1813187,72.2853659 L49.0342558,68.0210029 L57.2169396,62.3278953 L63.3429503,55.0850453 L69.01561,44.8637463 L76.4685519,29.7406728 L81.6657629,23.5089772 L90.1912495,12.6392262 L96.9917831,8.69362359 L102.089453,9.17717832 L106.811105,1.49476495 L112.461659,1.91240148 L118.023381,0 L127.721055,6.85817641 L123.729153,9.30906676 L127.123857,14.9252682 L121.849338,18.4313127 L118.885972,25.157551 L123.640728,30.6419163 L120.776675,36.6647682 L124.38157,45.4132732 L122.291682,51.7438976 L125.089206,57.0853352 L123.817578,61.6354523 L128.406593,66.3174519 L127.234499,69.7245614 L124.359557,73.5163536 L117.724782,81.6604052 L112.096445,82.1549984 L106.644957,84.429998 L101.602591,85.7269106 L99.8001097,82.3528055 L96.8035205,80.297526 L97.4891432,74.0108963 L95.9852607,68.0649548 L97.4669439,64.1303318 L100.27566,59.8000528 L107.363786,52.0845774 L109.442464,50.556904 L109.110761,47.4355907 L104.798348,43.8965861 L99.4684913,46.0287676 L96.4607092,51.1833842 L96.9472658,55.6016102 L92.0155579,61.2398384 L86.0331827,67.1088232 L83.7664454,76.3519217 L85.9779637,80.825082 L88.9415502,84.2761438 L86.0996112,91.1233336 L82.8707501,92.5081343 L81.6875643,102.223846 L79.9293884,107.455423 L76.1697498,106.916886 L74.411574,111.258206 L70.8177953,111.510989 L69.8336752,106.334346 L67.2350232,99.9487955 L64.8798526,91.7058151 L64.8890219,91.6825302 L62.8233825,88.0239923 L56.6973718,94.9150754 L52.5617158,96.2779545 L48.2712063,93.299455 Z M59.7215124,177.967033 L58.2157428,177.131834 L57.4450549,174.351674 L58.1209264,172.802252 L60.2670521,171.208791 L60.8241758,174.791217 L59.7215124,177.967033 Z M4.43477357,131.785714 L0,131.040258 L2.53576057,125.800275 L0.904791101,120.571289 L5.1609006,116.460444 L7.52900907,113.972045 L7.54022643,113.983007 L10.1653149,113.763736 L13.5164835,117.041472 L11.841004,120.648047 L12.3547633,124.331329 L9.98665485,128.847787 L4.43477357,131.785714 Z M75.5034139,190.703381 L77.7197802,190.357143 L76.6688272,193.676555 L77.1058673,194.978056 L76.4918585,197.115385 L74.2651431,195.551188 L72.7772458,195.097455 L68.7087912,192.960126 L69.114585,190.786997 L72.5275155,191.169109 L75.5034139,190.703381 Z M58.2000211,180.337752 L59.8982375,179.093407 L61.9505495,181.904006 L61.4741041,187.063846 L59.9225485,186.817109 L58.5298052,188.104396 L57.2349795,187.085284 L57.1005907,182.386703 L56.3186813,180.133972 L58.2000211,180.337752 Z M154.313187,142.999623 L153.068675,145.462504 L153.740405,148.035737 L153.255796,149.570824 L150.2712,149.913208 L148.685249,151.194277 L148.586216,153.215332 L146.119117,153.579786 L144.05962,155.037603 L141.174058,155.269534 L138.508791,156.948188 L137.054963,158.085742 L138.696098,159.709195 L140.20494,160.769427 L143.354715,160.504364 L142.748945,162.072583 L139.367828,162.823595 L135.171709,165.330583 L133.464597,164.458092 L134.136429,162.414967 L130.766359,161.133898 L131.316928,160.283477 L134.797281,158.483276 L134.356707,157.588697 L133.861136,158.041534 L133.376526,157.798559 L128.574637,156.672099 L128.365423,155.004421 L125.501786,155.556616 L124.356408,158.019464 L121.966519,161.277464 L122.03258,162.414967 L120.5347,163.342659 L119.598555,162.945074 L118.739534,168.146791 L117.131658,169.902834 L116.008206,172.917808 L116.998337,175.300814 L117.010312,175.3033 L117.37376,176.893639 L120.072117,178.218933 L119.510484,179.223947 L115.842807,179.444802 L114.521389,180.714776 L111.944193,182.901518 L110.974975,181.013054 L109.124794,180.052146 L107.516732,179.665639 L103.77215,180.725871 L105.908755,183.000876 L104.34483,183.65248 L102.626772,183.65248 L100.996786,181.57619 L100.413042,182.459725 L101.106883,184.867304 L102.648782,186.744776 L101.481395,187.617284 L103.199453,189.439555 L104.730406,190.577058 L104.774441,192.785819 L103.276578,191.515794 L101.910905,191.747675 L102.825041,193.735599 L101.811771,193.945409 L100.710446,193.183404 L102.032167,197.545793 L101.393324,197.545793 L100.897752,196.165265 L100.269872,196.143195 L99.9835146,197.601045 L99.4879429,197.269705 L99.59804,196.452499 L98.9813243,195.303868 L98.2764195,195.303868 L98.408526,196.231611 L98.1332495,196.529787 L97.4504722,195.933384 L97.0319077,194.817901 L97.6045879,194.188384 L97.2081676,193.371195 L96.7566312,192.951523 L96.2941324,192.852114 L95.7544241,191.81397 L96.3931658,191.239705 L96.7897043,190.70953 L97.4064369,190.820033 L97.6818144,190.367197 L98.3316198,190.190517 L99.0804589,190.698503 L99.6862122,190.886277 L100.11584,190.20156 L99.0804589,190.113229 L98.4637263,189.903384 L97.087108,190.212587 L95.7434616,190.267788 L94.5430019,188.456561 L94.3447327,188.180506 L94.5319382,187.473667 L92.9679963,186.203625 L92.2410824,184.734833 L92.1859834,183.851297 L90.4678245,182.49289 L90.203595,180.560217 L90.4678245,177.766097 L90.8863891,176.484977 L90.3687911,175.833425 L89.7189855,175.513111 L88.8599653,174.154669 L87.5163187,173.32642 L84.6196928,171.780255 L82.8245268,170.256143 L80.0050261,168.997212 L77.4058126,165.849647 L78.0337015,165.518357 L76.6239006,163.707079 L76.5579401,162.227243 L74.5754591,161.542458 L73.6282498,163.430974 L72.7141219,161.962181 L72.7912388,160.438086 L72.9014285,160.371842 L73.5843154,159.974206 L71.1281706,159.333646 L68.6172386,160.901949 L68.7933891,163.077597 L68.4189696,164.314508 L69.4322321,166.512243 L72.3287483,168.665821 L73.8816181,172.166796 L77.3178429,175.535198 L79.7407966,175.513111 L80.4896356,176.429776 L79.6196444,177.247016 L82.3840457,178.737896 L84.6528839,179.974858 L87.2961247,182.095305 L87.6155545,182.846267 L87.0427563,184.29304 L85.3245975,182.415568 L82.6373128,181.752921 L81.3377103,184.359284 L83.5735597,185.839171 L83.2101028,187.91546 L81.9215555,188.147392 L80.2694498,191.526787 L78.9810037,191.825013 L78.9919661,190.632259 L79.6197454,188.522856 L80.2915688,187.672485 L79.0909995,185.364298 L78.1438914,183.34326 L76.8664077,182.835223 L75.9521787,181.090291 L73.9697903,180.350373 L72.6372073,178.704782 L70.3573224,178.439771 L67.9453142,176.584386 L65.1259148,173.878564 L63.0223826,171.459941 L62.0642108,167.263255 L60.5223034,166.766262 L58.0111692,165.341576 L56.5904059,165.926935 L54.8062866,167.914859 L50.6981459,170.598476 L44.6076083,169.449947 L40.1141869,170.81933 L39.9380451,175.778173 L37.0083461,178.528136 L33.0545318,179.38955 L32.7792469,180.759035 L30.8738828,183.000927 L29.68447,186.26992 L30.8848368,188.533933 L29.1006165,190.30102 L28.4398567,192.841122 L26.1050752,193.61417 L23.9133623,196.584988 L20.0035835,196.640239 L17.051867,196.573995 L15.1245777,197.921359 L13.9461274,199.368132 L12.4262337,199.047818 L11.2918187,197.755655 L10.4107724,195.546894 L7.52521421,194.950542 L6.29176612,195.955505 L4.66172885,195.414354 L3.06472246,195.834026 L3.53832283,192.808008 L3.25198285,190.400429 L1.86430083,190.035907 L1.12637363,188.544976 L1.37968715,185.93863 L2.60217719,184.491908 L2.82246425,182.868404 L3.47226969,180.427695 L3.39520346,178.693789 L2.77842868,177.213902 L2.64626758,175.82233 L2.80044647,172.862557 L1.54492975,171.029293 L5.90619025,167.970111 L9.68385409,168.743142 L13.8359377,168.710028 L17.1180298,169.438954 L19.6841621,169.218049 L24.6733577,169.350588 L24.6733577,169.339443 L26.270263,166.777255 L26.8539057,158.074597 L23.6710492,153.369824 L21.3912656,151.061704 L16.6664934,149.294634 L16.358026,145.904094 L20.3670406,144.888037 L25.554303,146.091869 L24.574122,140.746535 L27.492757,142.789711 L34.6845184,139.067932 L35.609609,135.081006 L38.3079572,134.087121 L38.3132276,134.107212 L40.7860102,133.137392 L42.3719612,131.767949 L45.0812635,124.324299 L49.2995015,122.17073 L51.8656337,122.314296 L52.4714038,121.209915 L55.0484986,120.922774 L55.6211788,122.071321 L57.7248206,119.498088 L57.0199245,117.521208 L56.8767459,114.484096 L55.6211788,111.480165 L55.5331078,105.825612 L56.0507986,104.301568 L56.931845,102.600776 L59.6521099,102.247357 L60.7315268,100.668053 L63.2205506,99.0446 L63.1103523,102.004424 L62.1963257,103.859767 L62.570745,105.43902 L64.2447672,106.278449 L63.4847718,108.376816 L62.570745,107.769379 L60.346052,111.734175 L61.1830632,114.373702 L61.238061,116.449941 L64.3659194,117.686853 L64.3328381,119.564324 L67.4717602,118.570388 L69.2008815,117.123623 L72.6921041,119.210897 L74.1459405,120.878566 L76.2604352,119.343479 L81.0733879,116.891734 L84.9720945,115.080448 L88.0449635,115.98612 L88.2762044,117.289319 L91.2609012,117.355555 L95.0604818,117.963001 L100.743518,117.874576 L100.490251,116.527271 L100.820627,115.05842 L99.454971,114.208007 L96.2279696,113.258227 L95.5672185,108.663949 L95.6773156,104.45622 L97.1972051,100.877965 L100.104675,98.9121198 L102.549748,103.197179 L105.027708,103.086735 L105.622516,98.6801881 L105.985981,95.234456 L104.851566,95.9744247 L102.891187,93.8760568 L102.61581,90.4413596 L106.525589,88.7516705 L110.413442,87.8571429 L113.761487,88.8731581 L116.955415,88.6853754 L117.417998,89.7456073 L115.226294,93.2134096 L116.140312,98.6912232 L114.818793,100.524538 L116.305508,101.838779 L116.558877,104.5887 L117.561067,107.890816 L120.810095,109.28243 L121.250669,110.640838 L122.869693,109.989234 L125.887361,111.292433 L126.184664,113.843586 L125.523896,115.301344 L127.462249,118.780198 L128.717807,119.741064 L128.530501,120.690843 L130.612125,121.607449 L131.504235,122.987978 L130.303759,124.114437 L127.81465,123.937757 L127.220045,124.423657 L127.946858,126.12444 L128.706761,129.36037 L129.852121,129.570172 L130.634151,128.421626 L131.570196,128.675645 L134.775272,128.189694 L136.746698,131.028031 L135.975732,132.044046 L136.228999,133.579134 L138.696098,133.811066 L139.79744,135.942556 L139.731277,136.903379 L143.652119,138.60412 L146.019982,137.842165 L147.925347,140.095084 L149.731593,140.050927 L154.280114,141.597058 L154.313187,142.999623 Z" id="Combined-Shape"></path>
            </g>
        </g>
    </g>
</svg>