<?xml version="1.0" encoding="UTF-8"?>
<svg width="1920px" height="1080px" viewBox="0 0 1920 1080" version="1.1" xmlns="http://www.w3.org/2000/svg" xmlns:xlink="http://www.w3.org/1999/xlink">
    <!-- Generator: Sketch 46.2 (44496) - http://www.bohemiancoding.com/sketch -->
    <title>kafka02</title>
    <desc>Created with Sketch.</desc>
    <defs>
        <rect id="path-1" x="0" y="0" width="50" height="270"></rect>
        <rect id="path-3" x="0" y="0" width="50" height="270"></rect>
        <rect id="path-5" x="0" y="0" width="50" height="270"></rect>
        <rect id="path-7" x="0" y="0" width="50" height="270"></rect>
        <rect id="path-9" x="0" y="0" width="50" height="270"></rect>
        <rect id="path-11" x="0" y="0" width="50" height="270"></rect>
        <rect id="path-13" x="0" y="0" width="50" height="270"></rect>
        <rect id="path-15" x="0" y="0" width="50" height="270"></rect>
        <rect id="path-17" x="0" y="0" width="50" height="270"></rect>
        <rect id="path-19" x="0" y="0" width="50" height="270"></rect>
        <filter x="-5.3%" y="-4.0%" width="110.7%" height="110.7%" filterUnits="objectBoundingBox" id="filter-21">
            <feOffset dx="0" dy="2" in="SourceAlpha" result="shadowOffsetOuter1"></feOffset>
            <feGaussianBlur stdDeviation="2" in="shadowOffsetOuter1" result="shadowBlurOuter1"></feGaussianBlur>
            <feColorMatrix values="0 0 0 0 0   0 0 0 0 0   0 0 0 0 0  0 0 0 0.5 0" type="matrix" in="shadowBlurOuter1" result="shadowMatrixOuter1"></feColorMatrix>
            <feMerge>
                <feMergeNode in="shadowMatrixOuter1"></feMergeNode>
                <feMergeNode in="SourceGraphic"></feMergeNode>
            </feMerge>
        </filter>
        <filter x="-5.3%" y="-4.0%" width="110.7%" height="110.7%" filterUnits="objectBoundingBox" id="filter-22">
            <feOffset dx="0" dy="2" in="SourceAlpha" result="shadowOffsetOuter1"></feOffset>
            <feGaussianBlur stdDeviation="2" in="shadowOffsetOuter1" result="shadowBlurOuter1"></feGaussianBlur>
            <feColorMatrix values="0 0 0 0 0   0 0 0 0 0   0 0 0 0 0  0 0 0 0.5 0" type="matrix" in="shadowBlurOuter1" result="shadowMatrixOuter1"></feColorMatrix>
            <feMerge>
                <feMergeNode in="shadowMatrixOuter1"></feMergeNode>
                <feMergeNode in="SourceGraphic"></feMergeNode>
            </feMerge>
        </filter>
    </defs>
    <g id="Actual-Slides" stroke="none" stroke-width="1" fill="none" fill-rule="evenodd">
        <g id="kafka02">
            <g id="Borders" transform="translate(590.000000, 0.000000)">
                <g id="Borders-Copy" transform="translate(690.000000, 0.000000)">
                    <g id="Lines-Copy">
                        <mask id="mask-2" fill="white">
                            <use xlink:href="#path-1"></use>
                        </mask>
                        <use id="Mask" fill="#1E1E1E" xlink:href="#path-1"></use>
                        <g id="Group-2" mask="url(#mask-2)" fill="#FFE859">
                            <g transform="translate(-224.000000, -36.000000)">
                                <rect id="Rectangle-3" transform="translate(367.265677, 185.487836) rotate(-45.000000) translate(-367.265677, -185.487836) " x="158.585677" y="163.15713" width="417.36" height="44.6614126"></rect>
                                <rect id="Rectangle-3-Copy" transform="translate(276.157984, 163.807539) rotate(-45.000000) translate(-276.157984, -163.807539) " x="67.4779843" y="141.476832" width="417.36" height="44.6614126"></rect>
                                <rect id="Rectangle-3-Copy-2" transform="translate(163.357984, 163.807539) rotate(-45.000000) translate(-163.357984, -163.807539) " x="-45.3220157" y="141.476832" width="417.36" height="44.6614126"></rect>
                                <rect id="Rectangle-3" transform="translate(480.065677, 185.487836) rotate(-45.000000) translate(-480.065677, -185.487836) " x="271.385677" y="163.15713" width="417.36" height="44.6614126"></rect>
                                <rect id="Rectangle-3-Copy" transform="translate(388.957984, 163.807539) rotate(-45.000000) translate(-388.957984, -163.807539) " x="180.277984" y="141.476832" width="417.36" height="44.6614126"></rect>
                                <rect id="Rectangle-3-Copy-2" transform="translate(276.157984, 163.807539) rotate(-45.000000) translate(-276.157984, -163.807539) " x="67.4779843" y="141.476832" width="417.36" height="44.6614126"></rect>
                                <rect id="Rectangle-3" transform="translate(592.865677, 185.487836) rotate(-45.000000) translate(-592.865677, -185.487836) " x="384.185677" y="163.15713" width="417.36" height="44.6614126"></rect>
                                <rect id="Rectangle-3-Copy-3" transform="translate(701.327215, 185.487836) rotate(-45.000000) translate(-701.327215, -185.487836) " x="492.647215" y="163.15713" width="417.36" height="44.6614126"></rect>
                                <rect id="Rectangle-3-Copy" transform="translate(501.757984, 163.807539) rotate(-45.000000) translate(-501.757984, -163.807539) " x="293.077984" y="141.476832" width="417.36" height="44.6614126"></rect>
                                <rect id="Rectangle-3-Copy-2" transform="translate(388.957984, 163.807539) rotate(-45.000000) translate(-388.957984, -163.807539) " x="180.277984" y="141.476832" width="417.36" height="44.6614126"></rect>
                            </g>
                        </g>
                    </g>
                    <g id="Lines-Copy-2" transform="translate(0.000000, 226.000000)">
                        <mask id="mask-4" fill="white">
                            <use xlink:href="#path-3"></use>
                        </mask>
                        <use id="Mask" fill="#1E1E1E" xlink:href="#path-3"></use>
                        <g id="Group-2" mask="url(#mask-4)" fill="#FFE859">
                            <g transform="translate(-223.864615, -36.529294)">
                                <rect id="Rectangle-3" transform="translate(367.265677, 185.487836) rotate(-45.000000) translate(-367.265677, -185.487836) " x="158.585677" y="163.15713" width="417.36" height="44.6614126"></rect>
                                <rect id="Rectangle-3-Copy" transform="translate(276.157984, 163.807539) rotate(-45.000000) translate(-276.157984, -163.807539) " x="67.4779843" y="141.476832" width="417.36" height="44.6614126"></rect>
                                <rect id="Rectangle-3-Copy-2" transform="translate(163.357984, 163.807539) rotate(-45.000000) translate(-163.357984, -163.807539) " x="-45.3220157" y="141.476832" width="417.36" height="44.6614126"></rect>
                                <rect id="Rectangle-3" transform="translate(480.065677, 185.487836) rotate(-45.000000) translate(-480.065677, -185.487836) " x="271.385677" y="163.15713" width="417.36" height="44.6614126"></rect>
                                <rect id="Rectangle-3-Copy" transform="translate(388.957984, 163.807539) rotate(-45.000000) translate(-388.957984, -163.807539) " x="180.277984" y="141.476832" width="417.36" height="44.6614126"></rect>
                                <rect id="Rectangle-3-Copy-2" transform="translate(276.157984, 163.807539) rotate(-45.000000) translate(-276.157984, -163.807539) " x="67.4779843" y="141.476832" width="417.36" height="44.6614126"></rect>
                                <rect id="Rectangle-3" transform="translate(592.865677, 185.487836) rotate(-45.000000) translate(-592.865677, -185.487836) " x="384.185677" y="163.15713" width="417.36" height="44.6614126"></rect>
                                <rect id="Rectangle-3-Copy-3" transform="translate(701.327215, 185.487836) rotate(-45.000000) translate(-701.327215, -185.487836) " x="492.647215" y="163.15713" width="417.36" height="44.6614126"></rect>
                                <rect id="Rectangle-3-Copy" transform="translate(501.757984, 163.807539) rotate(-45.000000) translate(-501.757984, -163.807539) " x="293.077984" y="141.476832" width="417.36" height="44.6614126"></rect>
                                <rect id="Rectangle-3-Copy-2" transform="translate(388.957984, 163.807539) rotate(-45.000000) translate(-388.957984, -163.807539) " x="180.277984" y="141.476832" width="417.36" height="44.6614126"></rect>
                            </g>
                        </g>
                    </g>
                    <g id="Lines-Copy-4" transform="translate(0.000000, 451.000000)">
                        <mask id="mask-6" fill="white">
                            <use xlink:href="#path-5"></use>
                        </mask>
                        <use id="Mask" fill="#1E1E1E" xlink:href="#path-5"></use>
                        <g id="Group-2" mask="url(#mask-6)" fill="#FFE859">
                            <g transform="translate(-224.000000, -36.000000)">
                                <rect id="Rectangle-3" transform="translate(367.265677, 185.487836) rotate(-45.000000) translate(-367.265677, -185.487836) " x="158.585677" y="163.15713" width="417.36" height="44.6614126"></rect>
                                <rect id="Rectangle-3-Copy" transform="translate(276.157984, 163.807539) rotate(-45.000000) translate(-276.157984, -163.807539) " x="67.4779843" y="141.476832" width="417.36" height="44.6614126"></rect>
                                <rect id="Rectangle-3-Copy-2" transform="translate(163.357984, 163.807539) rotate(-45.000000) translate(-163.357984, -163.807539) " x="-45.3220157" y="141.476832" width="417.36" height="44.6614126"></rect>
                                <rect id="Rectangle-3" transform="translate(480.065677, 185.487836) rotate(-45.000000) translate(-480.065677, -185.487836) " x="271.385677" y="163.15713" width="417.36" height="44.6614126"></rect>
                                <rect id="Rectangle-3-Copy" transform="translate(388.957984, 163.807539) rotate(-45.000000) translate(-388.957984, -163.807539) " x="180.277984" y="141.476832" width="417.36" height="44.6614126"></rect>
                                <rect id="Rectangle-3-Copy-2" transform="translate(276.157984, 163.807539) rotate(-45.000000) translate(-276.157984, -163.807539) " x="67.4779843" y="141.476832" width="417.36" height="44.6614126"></rect>
                                <rect id="Rectangle-3" transform="translate(592.865677, 185.487836) rotate(-45.000000) translate(-592.865677, -185.487836) " x="384.185677" y="163.15713" width="417.36" height="44.6614126"></rect>
                                <rect id="Rectangle-3-Copy-3" transform="translate(701.327215, 185.487836) rotate(-45.000000) translate(-701.327215, -185.487836) " x="492.647215" y="163.15713" width="417.36" height="44.6614126"></rect>
                                <rect id="Rectangle-3-Copy" transform="translate(501.757984, 163.807539) rotate(-45.000000) translate(-501.757984, -163.807539) " x="293.077984" y="141.476832" width="417.36" height="44.6614126"></rect>
                                <rect id="Rectangle-3-Copy-2" transform="translate(388.957984, 163.807539) rotate(-45.000000) translate(-388.957984, -163.807539) " x="180.277984" y="141.476832" width="417.36" height="44.6614126"></rect>
                            </g>
                        </g>
                    </g>
                    <g id="Lines-Copy-3" transform="translate(0.000000, 677.000000)">
                        <mask id="mask-8" fill="white">
                            <use xlink:href="#path-7"></use>
                        </mask>
                        <use id="Mask" fill="#1E1E1E" xlink:href="#path-7"></use>
                        <g id="Group-2" mask="url(#mask-8)" fill="#FFE859">
                            <g transform="translate(-223.864615, -36.529294)">
                                <rect id="Rectangle-3" transform="translate(367.265677, 185.487836) rotate(-45.000000) translate(-367.265677, -185.487836) " x="158.585677" y="163.15713" width="417.36" height="44.6614126"></rect>
                                <rect id="Rectangle-3-Copy" transform="translate(276.157984, 163.807539) rotate(-45.000000) translate(-276.157984, -163.807539) " x="67.4779843" y="141.476832" width="417.36" height="44.6614126"></rect>
                                <rect id="Rectangle-3-Copy-2" transform="translate(163.357984, 163.807539) rotate(-45.000000) translate(-163.357984, -163.807539) " x="-45.3220157" y="141.476832" width="417.36" height="44.6614126"></rect>
                                <rect id="Rectangle-3" transform="translate(480.065677, 185.487836) rotate(-45.000000) translate(-480.065677, -185.487836) " x="271.385677" y="163.15713" width="417.36" height="44.6614126"></rect>
                                <rect id="Rectangle-3-Copy" transform="translate(388.957984, 163.807539) rotate(-45.000000) translate(-388.957984, -163.807539) " x="180.277984" y="141.476832" width="417.36" height="44.6614126"></rect>
                                <rect id="Rectangle-3-Copy-2" transform="translate(276.157984, 163.807539) rotate(-45.000000) translate(-276.157984, -163.807539) " x="67.4779843" y="141.476832" width="417.36" height="44.6614126"></rect>
                                <rect id="Rectangle-3" transform="translate(592.865677, 185.487836) rotate(-45.000000) translate(-592.865677, -185.487836) " x="384.185677" y="163.15713" width="417.36" height="44.6614126"></rect>
                                <rect id="Rectangle-3-Copy-3" transform="translate(701.327215, 185.487836) rotate(-45.000000) translate(-701.327215, -185.487836) " x="492.647215" y="163.15713" width="417.36" height="44.6614126"></rect>
                                <rect id="Rectangle-3-Copy" transform="translate(501.757984, 163.807539) rotate(-45.000000) translate(-501.757984, -163.807539) " x="293.077984" y="141.476832" width="417.36" height="44.6614126"></rect>
                                <rect id="Rectangle-3-Copy-2" transform="translate(388.957984, 163.807539) rotate(-45.000000) translate(-388.957984, -163.807539) " x="180.277984" y="141.476832" width="417.36" height="44.6614126"></rect>
                            </g>
                        </g>
                    </g>
                    <g id="Lines-Copy-6" transform="translate(0.000000, 902.000000)">
                        <mask id="mask-10" fill="white">
                            <use xlink:href="#path-9"></use>
                        </mask>
                        <use id="Mask" fill="#1E1E1E" xlink:href="#path-9"></use>
                        <g id="Group-2" mask="url(#mask-10)" fill="#FFE859">
                            <g transform="translate(-224.000000, -36.000000)">
                                <rect id="Rectangle-3" transform="translate(367.265677, 185.487836) rotate(-45.000000) translate(-367.265677, -185.487836) " x="158.585677" y="163.15713" width="417.36" height="44.6614126"></rect>
                                <rect id="Rectangle-3-Copy" transform="translate(276.157984, 163.807539) rotate(-45.000000) translate(-276.157984, -163.807539) " x="67.4779843" y="141.476832" width="417.36" height="44.6614126"></rect>
                                <rect id="Rectangle-3-Copy-2" transform="translate(163.357984, 163.807539) rotate(-45.000000) translate(-163.357984, -163.807539) " x="-45.3220157" y="141.476832" width="417.36" height="44.6614126"></rect>
                                <rect id="Rectangle-3" transform="translate(480.065677, 185.487836) rotate(-45.000000) translate(-480.065677, -185.487836) " x="271.385677" y="163.15713" width="417.36" height="44.6614126"></rect>
                                <rect id="Rectangle-3-Copy" transform="translate(388.957984, 163.807539) rotate(-45.000000) translate(-388.957984, -163.807539) " x="180.277984" y="141.476832" width="417.36" height="44.6614126"></rect>
                                <rect id="Rectangle-3-Copy-2" transform="translate(276.157984, 163.807539) rotate(-45.000000) translate(-276.157984, -163.807539) " x="67.4779843" y="141.476832" width="417.36" height="44.6614126"></rect>
                                <rect id="Rectangle-3" transform="translate(592.865677, 185.487836) rotate(-45.000000) translate(-592.865677, -185.487836) " x="384.185677" y="163.15713" width="417.36" height="44.6614126"></rect>
                                <rect id="Rectangle-3-Copy-3" transform="translate(701.327215, 185.487836) rotate(-45.000000) translate(-701.327215, -185.487836) " x="492.647215" y="163.15713" width="417.36" height="44.6614126"></rect>
                                <rect id="Rectangle-3-Copy" transform="translate(501.757984, 163.807539) rotate(-45.000000) translate(-501.757984, -163.807539) " x="293.077984" y="141.476832" width="417.36" height="44.6614126"></rect>
                                <rect id="Rectangle-3-Copy-2" transform="translate(388.957984, 163.807539) rotate(-45.000000) translate(-388.957984, -163.807539) " x="180.277984" y="141.476832" width="417.36" height="44.6614126"></rect>
                            </g>
                        </g>
                    </g>
                </g>
                <g>
                    <g id="Lines-Copy">
                        <mask id="mask-12" fill="white">
                            <use xlink:href="#path-11"></use>
                        </mask>
                        <use id="Mask" fill="#1E1E1E" xlink:href="#path-11"></use>
                        <g id="Group-2" mask="url(#mask-12)" fill="#FFE859">
                            <g transform="translate(-224.000000, -36.000000)">
                                <rect id="Rectangle-3" transform="translate(367.265677, 185.487836) rotate(-45.000000) translate(-367.265677, -185.487836) " x="158.585677" y="163.15713" width="417.36" height="44.6614126"></rect>
                                <rect id="Rectangle-3-Copy" transform="translate(276.157984, 163.807539) rotate(-45.000000) translate(-276.157984, -163.807539) " x="67.4779843" y="141.476832" width="417.36" height="44.6614126"></rect>
                                <rect id="Rectangle-3-Copy-2" transform="translate(163.357984, 163.807539) rotate(-45.000000) translate(-163.357984, -163.807539) " x="-45.3220157" y="141.476832" width="417.36" height="44.6614126"></rect>
                                <rect id="Rectangle-3" transform="translate(480.065677, 185.487836) rotate(-45.000000) translate(-480.065677, -185.487836) " x="271.385677" y="163.15713" width="417.36" height="44.6614126"></rect>
                                <rect id="Rectangle-3-Copy" transform="translate(388.957984, 163.807539) rotate(-45.000000) translate(-388.957984, -163.807539) " x="180.277984" y="141.476832" width="417.36" height="44.6614126"></rect>
                                <rect id="Rectangle-3-Copy-2" transform="translate(276.157984, 163.807539) rotate(-45.000000) translate(-276.157984, -163.807539) " x="67.4779843" y="141.476832" width="417.36" height="44.6614126"></rect>
                                <rect id="Rectangle-3" transform="translate(592.865677, 185.487836) rotate(-45.000000) translate(-592.865677, -185.487836) " x="384.185677" y="163.15713" width="417.36" height="44.6614126"></rect>
                                <rect id="Rectangle-3-Copy-3" transform="translate(701.327215, 185.487836) rotate(-45.000000) translate(-701.327215, -185.487836) " x="492.647215" y="163.15713" width="417.36" height="44.6614126"></rect>
                                <rect id="Rectangle-3-Copy" transform="translate(501.757984, 163.807539) rotate(-45.000000) translate(-501.757984, -163.807539) " x="293.077984" y="141.476832" width="417.36" height="44.6614126"></rect>
                                <rect id="Rectangle-3-Copy-2" transform="translate(388.957984, 163.807539) rotate(-45.000000) translate(-388.957984, -163.807539) " x="180.277984" y="141.476832" width="417.36" height="44.6614126"></rect>
                            </g>
                        </g>
                    </g>
                    <g id="Lines-Copy-2" transform="translate(0.000000, 226.000000)">
                        <mask id="mask-14" fill="white">
                            <use xlink:href="#path-13"></use>
                        </mask>
                        <use id="Mask" fill="#1E1E1E" xlink:href="#path-13"></use>
                        <g id="Group-2" mask="url(#mask-14)" fill="#FFE859">
                            <g transform="translate(-223.864615, -36.529294)">
                                <rect id="Rectangle-3" transform="translate(367.265677, 185.487836) rotate(-45.000000) translate(-367.265677, -185.487836) " x="158.585677" y="163.15713" width="417.36" height="44.6614126"></rect>
                                <rect id="Rectangle-3-Copy" transform="translate(276.157984, 163.807539) rotate(-45.000000) translate(-276.157984, -163.807539) " x="67.4779843" y="141.476832" width="417.36" height="44.6614126"></rect>
                                <rect id="Rectangle-3-Copy-2" transform="translate(163.357984, 163.807539) rotate(-45.000000) translate(-163.357984, -163.807539) " x="-45.3220157" y="141.476832" width="417.36" height="44.6614126"></rect>
                                <rect id="Rectangle-3" transform="translate(480.065677, 185.487836) rotate(-45.000000) translate(-480.065677, -185.487836) " x="271.385677" y="163.15713" width="417.36" height="44.6614126"></rect>
                                <rect id="Rectangle-3-Copy" transform="translate(388.957984, 163.807539) rotate(-45.000000) translate(-388.957984, -163.807539) " x="180.277984" y="141.476832" width="417.36" height="44.6614126"></rect>
                                <rect id="Rectangle-3-Copy-2" transform="translate(276.157984, 163.807539) rotate(-45.000000) translate(-276.157984, -163.807539) " x="67.4779843" y="141.476832" width="417.36" height="44.6614126"></rect>
                                <rect id="Rectangle-3" transform="translate(592.865677, 185.487836) rotate(-45.000000) translate(-592.865677, -185.487836) " x="384.185677" y="163.15713" width="417.36" height="44.6614126"></rect>
                                <rect id="Rectangle-3-Copy-3" transform="translate(701.327215, 185.487836) rotate(-45.000000) translate(-701.327215, -185.487836) " x="492.647215" y="163.15713" width="417.36" height="44.6614126"></rect>
                                <rect id="Rectangle-3-Copy" transform="translate(501.757984, 163.807539) rotate(-45.000000) translate(-501.757984, -163.807539) " x="293.077984" y="141.476832" width="417.36" height="44.6614126"></rect>
                                <rect id="Rectangle-3-Copy-2" transform="translate(388.957984, 163.807539) rotate(-45.000000) translate(-388.957984, -163.807539) " x="180.277984" y="141.476832" width="417.36" height="44.6614126"></rect>
                            </g>
                        </g>
                    </g>
                    <g id="Lines-Copy-4" transform="translate(0.000000, 451.000000)">
                        <mask id="mask-16" fill="white">
                            <use xlink:href="#path-15"></use>
                        </mask>
                        <use id="Mask" fill="#1E1E1E" xlink:href="#path-15"></use>
                        <g id="Group-2" mask="url(#mask-16)" fill="#FFE859">
                            <g transform="translate(-224.000000, -36.000000)">
                                <rect id="Rectangle-3" transform="translate(367.265677, 185.487836) rotate(-45.000000) translate(-367.265677, -185.487836) " x="158.585677" y="163.15713" width="417.36" height="44.6614126"></rect>
                                <rect id="Rectangle-3-Copy" transform="translate(276.157984, 163.807539) rotate(-45.000000) translate(-276.157984, -163.807539) " x="67.4779843" y="141.476832" width="417.36" height="44.6614126"></rect>
                                <rect id="Rectangle-3-Copy-2" transform="translate(163.357984, 163.807539) rotate(-45.000000) translate(-163.357984, -163.807539) " x="-45.3220157" y="141.476832" width="417.36" height="44.6614126"></rect>
                                <rect id="Rectangle-3" transform="translate(480.065677, 185.487836) rotate(-45.000000) translate(-480.065677, -185.487836) " x="271.385677" y="163.15713" width="417.36" height="44.6614126"></rect>
                                <rect id="Rectangle-3-Copy" transform="translate(388.957984, 163.807539) rotate(-45.000000) translate(-388.957984, -163.807539) " x="180.277984" y="141.476832" width="417.36" height="44.6614126"></rect>
                                <rect id="Rectangle-3-Copy-2" transform="translate(276.157984, 163.807539) rotate(-45.000000) translate(-276.157984, -163.807539) " x="67.4779843" y="141.476832" width="417.36" height="44.6614126"></rect>
                                <rect id="Rectangle-3" transform="translate(592.865677, 185.487836) rotate(-45.000000) translate(-592.865677, -185.487836) " x="384.185677" y="163.15713" width="417.36" height="44.6614126"></rect>
                                <rect id="Rectangle-3-Copy-3" transform="translate(701.327215, 185.487836) rotate(-45.000000) translate(-701.327215, -185.487836) " x="492.647215" y="163.15713" width="417.36" height="44.6614126"></rect>
                                <rect id="Rectangle-3-Copy" transform="translate(501.757984, 163.807539) rotate(-45.000000) translate(-501.757984, -163.807539) " x="293.077984" y="141.476832" width="417.36" height="44.6614126"></rect>
                                <rect id="Rectangle-3-Copy-2" transform="translate(388.957984, 163.807539) rotate(-45.000000) translate(-388.957984, -163.807539) " x="180.277984" y="141.476832" width="417.36" height="44.6614126"></rect>
                            </g>
                        </g>
                    </g>
                    <g id="Lines-Copy-3" transform="translate(0.000000, 677.000000)">
                        <mask id="mask-18" fill="white">
                            <use xlink:href="#path-17"></use>
                        </mask>
                        <use id="Mask" fill="#1E1E1E" xlink:href="#path-17"></use>
                        <g id="Group-2" mask="url(#mask-18)" fill="#FFE859">
                            <g transform="translate(-223.864615, -36.529294)">
                                <rect id="Rectangle-3" transform="translate(367.265677, 185.487836) rotate(-45.000000) translate(-367.265677, -185.487836) " x="158.585677" y="163.15713" width="417.36" height="44.6614126"></rect>
                                <rect id="Rectangle-3-Copy" transform="translate(276.157984, 163.807539) rotate(-45.000000) translate(-276.157984, -163.807539) " x="67.4779843" y="141.476832" width="417.36" height="44.6614126"></rect>
                                <rect id="Rectangle-3-Copy-2" transform="translate(163.357984, 163.807539) rotate(-45.000000) translate(-163.357984, -163.807539) " x="-45.3220157" y="141.476832" width="417.36" height="44.6614126"></rect>
                                <rect id="Rectangle-3" transform="translate(480.065677, 185.487836) rotate(-45.000000) translate(-480.065677, -185.487836) " x="271.385677" y="163.15713" width="417.36" height="44.6614126"></rect>
                                <rect id="Rectangle-3-Copy" transform="translate(388.957984, 163.807539) rotate(-45.000000) translate(-388.957984, -163.807539) " x="180.277984" y="141.476832" width="417.36" height="44.6614126"></rect>
                                <rect id="Rectangle-3-Copy-2" transform="translate(276.157984, 163.807539) rotate(-45.000000) translate(-276.157984, -163.807539) " x="67.4779843" y="141.476832" width="417.36" height="44.6614126"></rect>
                                <rect id="Rectangle-3" transform="translate(592.865677, 185.487836) rotate(-45.000000) translate(-592.865677, -185.487836) " x="384.185677" y="163.15713" width="417.36" height="44.6614126"></rect>
                                <rect id="Rectangle-3-Copy-3" transform="translate(701.327215, 185.487836) rotate(-45.000000) translate(-701.327215, -185.487836) " x="492.647215" y="163.15713" width="417.36" height="44.6614126"></rect>
                                <rect id="Rectangle-3-Copy" transform="translate(501.757984, 163.807539) rotate(-45.000000) translate(-501.757984, -163.807539) " x="293.077984" y="141.476832" width="417.36" height="44.6614126"></rect>
                                <rect id="Rectangle-3-Copy-2" transform="translate(388.957984, 163.807539) rotate(-45.000000) translate(-388.957984, -163.807539) " x="180.277984" y="141.476832" width="417.36" height="44.6614126"></rect>
                            </g>
                        </g>
                    </g>
                    <g id="Lines-Copy-6" transform="translate(0.000000, 902.000000)">
                        <mask id="mask-20" fill="white">
                            <use xlink:href="#path-19"></use>
                        </mask>
                        <use id="Mask" fill="#1E1E1E" xlink:href="#path-19"></use>
                        <g id="Group-2" mask="url(#mask-20)" fill="#FFE859">
                            <g transform="translate(-224.000000, -36.000000)">
                                <rect id="Rectangle-3" transform="translate(367.265677, 185.487836) rotate(-45.000000) translate(-367.265677, -185.487836) " x="158.585677" y="163.15713" width="417.36" height="44.6614126"></rect>
                                <rect id="Rectangle-3-Copy" transform="translate(276.157984, 163.807539) rotate(-45.000000) translate(-276.157984, -163.807539) " x="67.4779843" y="141.476832" width="417.36" height="44.6614126"></rect>
                                <rect id="Rectangle-3-Copy-2" transform="translate(163.357984, 163.807539) rotate(-45.000000) translate(-163.357984, -163.807539) " x="-45.3220157" y="141.476832" width="417.36" height="44.6614126"></rect>
                                <rect id="Rectangle-3" transform="translate(480.065677, 185.487836) rotate(-45.000000) translate(-480.065677, -185.487836) " x="271.385677" y="163.15713" width="417.36" height="44.6614126"></rect>
                                <rect id="Rectangle-3-Copy" transform="translate(388.957984, 163.807539) rotate(-45.000000) translate(-388.957984, -163.807539) " x="180.277984" y="141.476832" width="417.36" height="44.6614126"></rect>
                                <rect id="Rectangle-3-Copy-2" transform="translate(276.157984, 163.807539) rotate(-45.000000) translate(-276.157984, -163.807539) " x="67.4779843" y="141.476832" width="417.36" height="44.6614126"></rect>
                                <rect id="Rectangle-3" transform="translate(592.865677, 185.487836) rotate(-45.000000) translate(-592.865677, -185.487836) " x="384.185677" y="163.15713" width="417.36" height="44.6614126"></rect>
                                <rect id="Rectangle-3-Copy-3" transform="translate(701.327215, 185.487836) rotate(-45.000000) translate(-701.327215, -185.487836) " x="492.647215" y="163.15713" width="417.36" height="44.6614126"></rect>
                                <rect id="Rectangle-3-Copy" transform="translate(501.757984, 163.807539) rotate(-45.000000) translate(-501.757984, -163.807539) " x="293.077984" y="141.476832" width="417.36" height="44.6614126"></rect>
                                <rect id="Rectangle-3-Copy-2" transform="translate(388.957984, 163.807539) rotate(-45.000000) translate(-388.957984, -163.807539) " x="180.277984" y="141.476832" width="417.36" height="44.6614126"></rect>
                            </g>
                        </g>
                    </g>
                </g>
            </g>
            <g id="Outgoing-Messages-Copy" transform="translate(1330.000000, 0.000000)">
                <rect id="Background" fill="#494949" x="0" y="0" width="590" height="1080"></rect>
                <path d="M469.000157,261 L270,261 L270,221 L469,221 L469,220.625 C469,217.842 471.258667,215.583333 474.041667,215.583333 L489.166667,215.583333 C491.954708,215.583333 494.208333,217.842 494.208333,220.625 L523.767625,220.625 C537.415417,220.625 544.625,213.168375 544.625,199.066833 L544.625,170.208333 C541.842,170.208333 539.583333,167.949667 539.583333,165.166667 L539.583333,150.041667 C539.583333,147.258667 541.842,145 544.625,145 L584.958333,145 C587.746375,145 590,147.258667 590,150.041667 L590,165.166667 C590,167.949667 587.746375,170.208333 584.958333,170.208333 L584.958333,199.066833 C584.958333,232.614083 556.93675,260.958333 523.767625,260.958333 L494.208333,260.958333 C494.208333,263.741333 491.954708,266 489.166667,266 L474.041667,266 C471.272569,266 469.022579,263.763843 469.000169,261 Z M479,255 L484,255 L484,225 L479,225 L479,255 Z M549,160 L579,160 L579,155 L549,155 L549,160 Z" id="Top-Pipe" fill="#ACACAC" fill-rule="nonzero" transform="translate(430.000000, 205.500000) rotate(-180.000000) translate(-430.000000, -205.500000) "></path>
                <path d="M199.000157,930 L0,930 L0,890 L199,890 L199,889.625 C199,886.842 201.258667,884.583333 204.041667,884.583333 L219.166667,884.583333 C221.954708,884.583333 224.208333,886.842 224.208333,889.625 L253.767625,889.625 C267.415417,889.625 274.625,882.168375 274.625,868.066833 L274.625,839.208333 C271.842,839.208333 269.583333,836.949667 269.583333,834.166667 L269.583333,819.041667 C269.583333,816.258667 271.842,814 274.625,814 L314.958333,814 C317.746375,814 320,816.258667 320,819.041667 L320,834.166667 C320,836.949667 317.746375,839.208333 314.958333,839.208333 L314.958333,868.066833 C314.958333,901.614083 286.93675,929.958333 253.767625,929.958333 L224.208333,929.958333 C224.208333,932.741333 221.954708,935 219.166667,935 L204.041667,935 C201.272569,935 199.022579,932.763843 199.000169,930 Z M209,924 L214,924 L214,894 L209,894 L209,924 Z M279,829 L309,829 L309,824 L279,824 L279,829 Z" id="Bottom-Pipe" fill="#ACACAC" fill-rule="nonzero"></path>
                <g id="Item" transform="translate(70.000000, 315.000000)">
                    <circle id="Oval" fill="#1E1E1E" cx="225" cy="225" r="225"></circle>
                    <circle id="Oval-Copy" fill="#494949" cx="225" cy="225" r="150"></circle>
                </g>
                <g id="Label" filter="url(#filter-21)" transform="translate(370.000000, 615.000000)">
                    <circle id="Background" stroke="#979797" fill="#FFFFFF" cx="75" cy="75" r="75"></circle>
                    <g id="Ship" transform="translate(33.000000, 42.000000)" fill-rule="nonzero" fill="#1E1E1E">
                        <path d="M88.9548126,32.1106086 L79.5892903,32.1106086 C79.0329226,32.1106086 78.5692829,32.5693316 78.5692829,33.1197992 L78.5692829,33.7620113 C78.5692829,34.6794573 77.8274594,35.4134141 76.9001799,35.4134141 L30.8143921,35.4134141 C29.8871127,35.4134141 29.1452891,34.6794573 29.1452891,33.7620113 L29.1452891,32.8445654 L29.1452891,19.8168327 L19.501583,19.8168327 L19.501583,16.6975165 L29.1452891,16.6975165 L29.1452891,14.9543691 L29.1452891,13.7616894 C29.1452891,13.0277326 28.4961935,12.3855205 27.75437,12.3855205 L27.2907303,12.3855205 C26.7343626,12.3855205 26.2707229,11.9267975 26.2707229,11.3763299 L26.2707229,9.44969339 C26.2707229,8.71573662 25.7143552,8.16526904 24.9725317,8.16526904 L22.7470611,8.16526904 C22.0052375,8.16526904 21.4488698,8.71573662 21.4488698,9.44969339 L21.4488698,11.3763299 C21.4488698,11.9267975 20.9852301,12.3855205 20.4288625,12.3855205 L19.9652228,12.3855205 C19.4088551,12.3855205 18.9452154,11.9267975 18.9452154,11.3763299 L18.9452154,1.28442434 C18.9452154,0.550467576 18.3888477,0 17.6470242,0 L15.6070094,0 C14.8651859,0 14.3088182,0.550467576 14.3088182,1.28442434 L14.3088182,11.3763299 C14.3088182,11.9267975 13.8451785,12.3855205 13.2888108,12.3855205 L12.2688035,12.3855205 C11.5269799,12.3855205 10.8778843,13.0277326 10.8778843,13.7616894 L10.8778843,30.3674613 C10.8778843,31.2849072 10.1360608,32.018864 9.20878133,32.018864 L1.41963409,32.018864 C0.585082599,32.018864 -0.156740947,32.7528208 0.0287149393,33.6702667 L3.92328856,58.1660739 C4.10874445,59.3587536 5.12875182,60.184455 6.24148714,60.184455 L70.5946798,60.184455 C71.4292313,60.184455 72.1710548,59.8174766 72.5419666,59.1752644 L89.6966361,33.6702667 C90.2530038,33.0280546 89.6966361,32.1106086 88.9548126,32.1106086 Z M16.6270168,46.9732331 C15.2360976,46.9732331 14.0306344,45.7805534 14.0306344,44.4043845 C14.0306344,43.0282155 15.2360976,41.8355358 16.6270168,41.8355358 C18.0179359,41.8355358 19.2233992,43.0282155 19.2233992,44.4043845 C19.2233992,45.7805534 18.1106639,46.9732331 16.6270168,46.9732331 Z M33.3180466,46.9732331 C31.9271274,46.9732331 30.7216642,45.7805534 30.7216642,44.4043845 C30.7216642,43.0282155 31.9271274,41.8355358 33.3180466,41.8355358 C34.7089657,41.8355358 35.914429,43.0282155 35.914429,44.4043845 C35.8217011,45.7805534 34.7089657,46.9732331 33.3180466,46.9732331 Z M47.5981499,46.9732331 C46.2072307,46.9732331 45.0017674,45.7805534 45.0017674,44.4043845 C45.0017674,43.0282155 46.2072307,41.8355358 47.5981499,41.8355358 C48.989069,41.8355358 50.1945323,43.0282155 50.1945323,44.4043845 C50.1945323,45.7805534 48.989069,46.9732331 47.5981499,46.9732331 Z M61.8782531,46.9732331 C60.487334,46.9732331 59.2818707,45.7805534 59.2818707,44.4043845 C59.2818707,43.0282155 60.487334,41.8355358 61.8782531,41.8355358 C63.2691723,41.8355358 64.4746355,43.0282155 64.4746355,44.4043845 C64.4746355,45.7805534 63.2691723,46.9732331 61.8782531,46.9732331 Z" id="Shape"></path>
                        <path d="M50.9128567,24.3 L37.3723488,24.3 C36.6404294,24.3 36,24.9608489 36,25.7161048 L36,32.7966289 C36,33.5518848 36.6404294,34.2127338 37.3723488,34.2127338 L50.9128567,34.2127338 C51.644776,34.2127338 52.2852055,33.5518848 52.2852055,32.7966289 L52.2852055,25.7161048 C52.2852055,24.9608489 51.736266,24.3 50.9128567,24.3 Z" id="Shape"></path>
                        <path d="M68.996298,24.3 L55.3716126,24.3 C54.6400859,24.3 54,24.9608489 54,25.7161048 L54,32.7966289 C54,33.5518848 54.6400859,34.2127338 55.3716126,34.2127338 L68.9048572,34.2127338 C69.6363839,34.2127338 70.2764698,33.5518848 70.2764698,32.7966289 L70.2764698,25.7161048 C70.3679107,24.9608489 69.7278248,24.3 68.996298,24.3 Z" id="Shape"></path>
                        <path d="M50.9128567,12.6 L37.3723488,12.6 C36.6404294,12.6 36,13.2608489 36,14.0161048 L36,21.0966289 C36,21.8518848 36.6404294,22.5127338 37.3723488,22.5127338 L50.9128567,22.5127338 C51.644776,22.5127338 52.2852055,21.8518848 52.2852055,21.0966289 L52.2852055,14.0161048 C52.2852055,13.1664419 51.736266,12.6 50.9128567,12.6 Z" id="Shape"></path>
                        <path d="M68.996298,12.6 L55.3716126,12.6 C54.6400859,12.6 54,13.2608489 54,14.0161048 L54,21.0966289 C54,21.8518848 54.6400859,22.5127338 55.3716126,22.5127338 L68.9048572,22.5127338 C69.6363839,22.5127338 70.2764698,21.8518848 70.2764698,21.0966289 L70.2764698,14.0161048 C70.3679107,13.1664419 69.7278248,12.6 68.996298,12.6 Z" id="Shape"></path>
                    </g>
                </g>
            </g>
            <g id="Incoming-Message">
                <rect id="Rectangle-2" fill="#494949" x="0" y="0" width="590" height="1080"></rect>
                <path d="M469.000157,261 L270,261 L270,221 L469,221 L469,220.625 C469,217.842 471.258667,215.583333 474.041667,215.583333 L489.166667,215.583333 C491.954708,215.583333 494.208333,217.842 494.208333,220.625 L523.767625,220.625 C537.415417,220.625 544.625,213.168375 544.625,199.066833 L544.625,170.208333 C541.842,170.208333 539.583333,167.949667 539.583333,165.166667 L539.583333,150.041667 C539.583333,147.258667 541.842,145 544.625,145 L584.958333,145 C587.746375,145 590,147.258667 590,150.041667 L590,165.166667 C590,167.949667 587.746375,170.208333 584.958333,170.208333 L584.958333,199.066833 C584.958333,232.614083 556.93675,260.958333 523.767625,260.958333 L494.208333,260.958333 C494.208333,263.741333 491.954708,266 489.166667,266 L474.041667,266 C471.272569,266 469.022579,263.763843 469.000169,261 Z M479,255 L484,255 L484,225 L479,225 L479,255 Z M549,160 L579,160 L579,155 L549,155 L549,160 Z" id="Top-Pipe" fill="#ACACAC" fill-rule="nonzero" transform="translate(430.000000, 205.500000) rotate(-180.000000) translate(-430.000000, -205.500000) "></path>
                <path d="M199.000157,930 L0,930 L0,890 L199,890 L199,889.625 C199,886.842 201.258667,884.583333 204.041667,884.583333 L219.166667,884.583333 C221.954708,884.583333 224.208333,886.842 224.208333,889.625 L253.767625,889.625 C267.415417,889.625 274.625,882.168375 274.625,868.066833 L274.625,839.208333 C271.842,839.208333 269.583333,836.949667 269.583333,834.166667 L269.583333,819.041667 C269.583333,816.258667 271.842,814 274.625,814 L314.958333,814 C317.746375,814 320,816.258667 320,819.041667 L320,834.166667 C320,836.949667 317.746375,839.208333 314.958333,839.208333 L314.958333,868.066833 C314.958333,901.614083 286.93675,929.958333 253.767625,929.958333 L224.208333,929.958333 C224.208333,932.741333 221.954708,935 219.166667,935 L204.041667,935 C201.272569,935 199.022579,932.763843 199.000169,930 Z M209,924 L214,924 L214,894 L209,894 L209,924 Z M279,829 L309,829 L309,824 L279,824 L279,829 Z" id="Bottom-Pipe" fill="#ACACAC" fill-rule="nonzero"></path>
                <g id="Item" transform="translate(70.000000, 315.000000)">
                    <circle id="Oval" fill="#1E1E1E" cx="225" cy="225" r="225"></circle>
                    <circle id="Oval-Copy" fill="#494949" cx="225" cy="225" r="150"></circle>
                    <g id="Book" transform="translate(123.000000, 128.000000)">
                        <path d="M20.2238588,137.000311 C18.721114,136.982372 17.3244445,137.740761 16.5676191,138.985642 C15.8107936,140.230523 15.8107936,141.769477 16.5676191,143.014358 C17.3244445,144.259239 18.721114,145.017628 20.2238588,144.999689 L133.776141,144.999689 C135.278886,145.017628 136.675555,144.259239 137.432381,143.014358 C138.189206,141.769477 138.189206,140.230523 137.432381,138.985642 C136.675555,137.740761 135.278886,136.982372 133.776141,137.000311 L20.2238588,137.000311 Z" id="Shape" fill="#FFFFFF"></path>
                        <path d="M20.2311106,152.000412 C18.7267373,151.979756 17.3273289,152.737523 16.5688553,153.983491 C15.8103816,155.229458 15.8103816,156.770542 16.5688553,158.016509 C17.3273289,159.262477 18.7267373,160.020244 20.2311106,159.999588 L133.768889,159.999588 C135.273263,160.020244 136.672671,159.262477 137.431145,158.016509 C138.189618,156.770542 138.189618,155.229458 137.431145,153.983491 C136.672671,152.737523 135.273263,151.979756 133.768889,152.000412 L20.2311106,152.000412 L20.2311106,152.000412 Z" id="Shape" fill="#FFFFFF"></path>
                        <path d="M79.1457225,2.75237437 C66.5489872,3.06837025 56.6426411,11.0065648 49.4385361,21.0067667 C42.2766406,30.9481696 37.4077826,43.1660873 34.3474883,53.8952527 L3.31933161,134.143658 C1.11695103,138.804712 0.0484055425,144.057711 0.00162158939,149.294893 C-0.0624204442,156.430713 1.76818366,163.627518 5.89889482,169.314487 C10.0298133,175.001663 16.7511079,178.999588 25.086137,178.999588 L139.813489,178.999588 C140.939493,179.015438 142.02378,178.573498 142.818455,177.774804 C143.61313,176.97611 144.050246,175.888955 144.029867,174.761888 L182.771563,55.8842867 C183.262831,54.4622224 182.949213,52.8854643 181.951279,51.7602019 C180.953345,50.6349395 179.426446,50.1363457 177.957605,50.4561064 C176.488764,50.7758671 175.306637,51.8642042 174.865699,53.3027032 L136.614507,170.674672 L25.086137,170.674672 C19.2414697,170.674672 15.4415731,168.296065 12.625387,164.418861 C9.80920096,160.541449 8.26699456,154.98644 8.31731331,149.369614 C8.36783997,143.752997 10.0108918,138.166351 12.8730301,134.258134 C15.7349604,130.350126 19.511777,127.989419 25.086137,127.989419 L139.143543,127.989419 C140.220038,128.160745 141.320697,127.902138 142.20862,127.269259 C143.157812,126.622262 143.797483,125.611165 143.976014,124.475624 L182.771563,5.45363756 C183.187796,4.17623995 182.962489,2.77627832 182.166553,1.6943583 C181.370617,0.61243829 180.101932,-0.0183912848 178.759787,0.00040864857 C178.747356,0.00061171814 145.542668,0.917933626 79.1457225,2.75237437 Z" id="Shape" fill="#B77E4F"></path>
                    </g>
                    <path d="M200.552,413.648 C200.528,415.016007 200.887996,416.095996 201.632,416.888 C202.376004,417.680004 203.299994,418.183999 204.404,418.4 L204.404,410.876 C204.283999,410.828 204.122001,410.774 203.918,410.714 C203.713999,410.654 203.492001,410.6 203.252,410.552 C202.363996,410.311999 201.488004,410.030002 200.624,409.706 C199.759996,409.381998 198.986003,408.950003 198.302,408.41 C197.617997,407.869997 197.072002,407.198004 196.664,406.394 C196.255998,405.589996 196.052,404.588006 196.052,403.388 C196.052,402.163994 196.285998,401.084005 196.754,400.148 C197.222002,399.211995 197.839996,398.426003 198.608,397.79 C199.376004,397.153997 200.263995,396.662002 201.272,396.314 C202.280005,395.965998 203.323995,395.756 204.404,395.684 L204.404,392.912 L206.528,392.912 L206.528,395.684 C207.608005,395.804001 208.621995,396.037998 209.57,396.386 C210.518005,396.734002 211.351996,397.213997 212.072,397.826 C212.792004,398.438003 213.379998,399.199995 213.836,400.112 C214.292002,401.024005 214.556,402.103994 214.628,403.352 L209.516,403.352 C209.492,402.391995 209.192003,401.576003 208.616,400.904 C208.039997,400.231997 207.344004,399.896 206.528,399.896 L206.528,406.268 C206.816001,406.34 207.109998,406.412 207.41,406.484 C207.710002,406.556 208.027998,406.64 208.364,406.736 C210.140009,407.216002 211.507995,407.809996 212.468,408.518 C213.428005,409.226004 214.135998,409.963996 214.592,410.732 C215.048002,411.500004 215.318,412.267996 215.402,413.036 C215.486,413.804004 215.528,414.487997 215.528,415.088 C215.528,415.616003 215.396001,416.281996 215.132,417.086 C214.867999,417.890004 214.394003,418.675996 213.71,419.444 C213.025997,420.212004 212.108006,420.895997 210.956,421.496 C209.803994,422.096003 208.328009,422.455999 206.528,422.576 L206.528,425.636 L204.404,425.636 L204.404,422.576 C201.715987,422.383999 199.616008,421.556007 198.104,420.092 C196.591992,418.627993 195.716001,416.480014 195.476,413.648 L200.552,413.648 Z M206.528,418.4 C206.960002,418.352 207.409998,418.250001 207.878,418.094 C208.346002,417.937999 208.765998,417.716001 209.138,417.428 C209.510002,417.139999 209.815999,416.786002 210.056,416.366 C210.296001,415.945998 210.416,415.448003 210.416,414.872 C210.416,413.935995 210.122003,413.234002 209.534,412.766 C208.945997,412.297998 207.944007,411.872002 206.528,411.488 L206.528,418.4 Z M204.404,399.896 C203.995998,399.896 203.600002,399.955999 203.216,400.076 C202.831998,400.196001 202.484002,400.381999 202.172,400.634 C201.859998,400.886001 201.614001,401.197998 201.434,401.57 C201.253999,401.942002 201.164,402.379997 201.164,402.884 C201.164,403.676004 201.415997,404.287998 201.92,404.72 C202.424003,405.152002 203.251994,405.499999 204.404,405.764 L204.404,399.896 Z M216.824,406.484 L221.72,406.484 C221.72,405.811997 221.785999,405.134003 221.918,404.45 C222.050001,403.765997 222.271998,403.142003 222.584,402.578 C222.896002,402.013997 223.309997,401.558002 223.826,401.21 C224.342003,400.861998 224.971996,400.688 225.716,400.688 C226.820006,400.688 227.725996,401.029997 228.434,401.714 C229.142004,402.398003 229.496,403.351994 229.496,404.576 C229.496,405.344004 229.322002,406.027997 228.974,406.628 C228.625998,407.228003 228.194003,407.767998 227.678,408.248 C227.161997,408.728002 226.592003,409.165998 225.968,409.562 C225.343997,409.958002 224.756003,410.347998 224.204,410.732 C223.123995,411.476004 222.098005,412.207996 221.126,412.928 C220.153995,413.648004 219.308004,414.433996 218.588,415.286 C217.867996,416.138004 217.298002,417.103995 216.878,418.184 C216.457998,419.264005 216.248,420.535993 216.248,422 L234.752,422 L234.752,417.608 L222.836,417.608 C223.460003,416.743996 224.179996,415.988003 224.996,415.34 C225.812004,414.691997 226.651996,414.086003 227.516,413.522 C228.380004,412.957997 229.237996,412.388003 230.09,411.812 C230.942004,411.235997 231.703997,410.594004 232.376,409.886 C233.048003,409.177996 233.587998,408.368005 233.996,407.456 C234.404002,406.543995 234.608,405.452006 234.608,404.18 C234.608,402.955994 234.374002,401.852005 233.906,400.868 C233.437998,399.883995 232.808004,399.056003 232.016,398.384 C231.223996,397.711997 230.306005,397.196002 229.262,396.836 C228.217995,396.475998 227.120006,396.296 225.968,396.296 C224.455992,396.296 223.118006,396.553997 221.954,397.07 C220.789994,397.586003 219.824004,398.305995 219.056,399.23 C218.287996,400.154005 217.712002,401.233994 217.328,402.47 C216.943998,403.706006 216.776,405.043993 216.824,406.484 Z M253.508,401.012 L253.508,396.8 L239.432,396.8 L236.948,410.732 L241.556,410.732 C242.060003,410.035997 242.599997,409.526002 243.176,409.202 C243.752003,408.877998 244.495995,408.716 245.408,408.716 C246.104003,408.716 246.715997,408.835999 247.244,409.076 C247.772003,409.316001 248.227998,409.651998 248.612,410.084 C248.996002,410.516002 249.283999,411.019997 249.476,411.596 C249.668001,412.172003 249.764,412.783997 249.764,413.432 C249.764,414.056003 249.662001,414.661997 249.458,415.25 C249.253999,415.838003 248.966002,416.353998 248.594,416.798 C248.221998,417.242002 247.766003,417.601999 247.226,417.878 C246.685997,418.154001 246.080003,418.292 245.408,418.292 C244.255994,418.292 243.308004,417.950003 242.564,417.266 C241.819996,416.581997 241.388001,415.664006 241.268,414.512 L236.156,414.512 C236.18,415.832007 236.449997,416.989995 236.966,417.986 C237.482003,418.982005 238.171996,419.815997 239.036,420.488 C239.900004,421.160003 240.889994,421.657998 242.006,421.982 C243.122006,422.306002 244.291994,422.468 245.516,422.468 C246.788006,422.492 247.987994,422.282002 249.116,421.838 C250.244006,421.393998 251.233996,420.764004 252.086,419.948 C252.938004,419.131996 253.615997,418.166006 254.12,417.05 C254.624003,415.933994 254.876,414.728006 254.876,413.432 C254.876,412.255994 254.702002,411.146005 254.354,410.102 C254.005998,409.057995 253.502003,408.152004 252.842,407.384 C252.181997,406.615996 251.372005,406.004002 250.412,405.548 C249.451995,405.091998 248.348006,404.864 247.1,404.864 C246.091995,404.864 245.192004,405.013999 244.4,405.314 C243.607996,405.614001 242.864003,406.111997 242.168,406.808 L242.096,406.736 L243.104,401.012 L253.508,401.012 Z" id="$25" fill="#FFFFFF"></path>
                    <path d="M184.868,40.292 C184.868,41.0120036 184.892,41.8819949 184.94,42.902 C184.988,43.9220051 185.137999,44.9059953 185.39,45.854 C185.642001,46.8020047 186.043997,47.6119966 186.596,48.284 C187.148003,48.9560034 187.939995,49.292 188.972,49.292 C190.028005,49.292 190.837997,48.9560034 191.402,48.284 C191.966003,47.6119966 192.373999,46.8020047 192.626,45.854 C192.878001,44.9059953 193.028,43.9220051 193.076,42.902 C193.124,41.8819949 193.148,41.0120036 193.148,40.292 C193.148,39.8599978 193.142,39.3380031 193.13,38.726 C193.118,38.1139969 193.07,37.4840032 192.986,36.836 C192.902,36.1879968 192.782001,35.5460032 192.626,34.91 C192.469999,34.2739968 192.236002,33.7040025 191.924,33.2 C191.611998,32.6959975 191.216002,32.2880016 190.736,31.976 C190.255998,31.6639984 189.668003,31.508 188.972,31.508 C188.275997,31.508 187.694002,31.6639984 187.226,31.976 C186.757998,32.2880016 186.374001,32.6959975 186.074,33.2 C185.773999,33.7040025 185.540001,34.2739968 185.372,34.91 C185.203999,35.5460032 185.084,36.1879968 185.012,36.836 C184.94,37.4840032 184.898,38.1139969 184.886,38.726 C184.874,39.3380031 184.868,39.8599978 184.868,40.292 Z M179.756,40.292 C179.756,37.8439878 180.001998,35.7860083 180.494,34.118 C180.986002,32.4499917 181.651996,31.112005 182.492,30.104 C183.332004,29.095995 184.309994,28.3760022 185.426,27.944 C186.542006,27.5119978 187.723994,27.296 188.972,27.296 C190.244006,27.296 191.437994,27.5119978 192.554,27.944 C193.670006,28.3760022 194.653996,29.095995 195.506,30.104 C196.358004,31.112005 197.029998,32.4499917 197.522,34.118 C198.014002,35.7860083 198.26,37.8439878 198.26,40.292 C198.26,42.8120126 198.014002,44.9179915 197.522,46.61 C197.029998,48.3020085 196.358004,49.651995 195.506,50.66 C194.653996,51.668005 193.670006,52.3879978 192.554,52.82 C191.437994,53.2520022 190.244006,53.468 188.972,53.468 C187.723994,53.468 186.542006,53.2520022 185.426,52.82 C184.309994,52.3879978 183.332004,51.668005 182.492,50.66 C181.651996,49.651995 180.986002,48.3020085 180.494,46.61 C180.001998,44.9179915 179.756,42.8120126 179.756,40.292 Z M201.176,47.456 L201.176,53 L206.828,53 L206.828,47.456 L201.176,47.456 Z M227.024,32.012 L227.024,27.8 L212.948,27.8 L210.464,41.732 L215.072,41.732 C215.576003,41.0359965 216.115997,40.5260016 216.692,40.202 C217.268003,39.8779984 218.011995,39.716 218.924,39.716 C219.620003,39.716 220.231997,39.8359988 220.76,40.076 C221.288003,40.3160012 221.743998,40.6519978 222.128,41.084 C222.512002,41.5160022 222.799999,42.0199971 222.992,42.596 C223.184001,43.1720029 223.28,43.7839968 223.28,44.432 C223.28,45.0560031 223.178001,45.6619971 222.974,46.25 C222.769999,46.8380029 222.482002,47.3539978 222.11,47.798 C221.737998,48.2420022 221.282003,48.6019986 220.742,48.878 C220.201997,49.1540014 219.596003,49.292 218.924,49.292 C217.771994,49.292 216.824004,48.9500034 216.08,48.266 C215.335996,47.5819966 214.904001,46.6640058 214.784,45.512 L209.672,45.512 C209.696,46.8320066 209.965997,47.989995 210.482,48.986 C210.998003,49.982005 211.687996,50.8159966 212.552,51.488 C213.416004,52.1600034 214.405994,52.6579984 215.522,52.982 C216.638006,53.3060016 217.807994,53.468 219.032,53.468 C220.304006,53.4920001 221.503994,53.2820022 222.632,52.838 C223.760006,52.3939978 224.749996,51.7640041 225.602,50.948 C226.454004,50.1319959 227.131997,49.1660056 227.636,48.05 C228.140003,46.9339944 228.392,45.7280065 228.392,44.432 C228.392,43.2559941 228.218002,42.1460052 227.87,41.102 C227.521998,40.0579948 227.018003,39.1520038 226.358,38.384 C225.697997,37.6159962 224.888005,37.0040023 223.928,36.548 C222.967995,36.0919977 221.864006,35.864 220.616,35.864 C219.607995,35.864 218.708004,36.0139985 217.916,36.314 C217.123996,36.6140015 216.380003,37.1119965 215.684,37.808 L215.612,37.736 L216.62,32.012 L227.024,32.012 Z M231.452,27.296 L231.452,53 L236.564,53 L236.564,46.592 L238.544,44.684 L243.656,53 L249.848,53 L242.036,41.228 L249.056,34.388 L243.008,34.388 L236.564,41.084 L236.564,27.296 L231.452,27.296 Z M260.324,48.608 C261.044004,48.608 261.679997,48.4640014 262.232,48.176 C262.784003,47.8879986 263.239998,47.5040024 263.6,47.024 C263.960002,46.5439976 264.229999,45.9980031 264.41,45.386 C264.590001,44.7739969 264.68,44.1320034 264.68,43.46 C264.68,42.6919962 264.608001,41.9660034 264.464,41.282 C264.319999,40.5979966 264.080002,39.9920026 263.744,39.464 C263.407998,38.9359974 262.964003,38.5160016 262.412,38.204 C261.859997,37.8919984 261.164004,37.736 260.324,37.736 C259.603996,37.736 258.986003,37.8799986 258.47,38.168 C257.953997,38.4560014 257.522002,38.8459975 257.174,39.338 C256.825998,39.8300025 256.574001,40.3939968 256.418,41.03 C256.261999,41.6660032 256.184,42.3319965 256.184,43.028 C256.184,43.7000034 256.249999,44.3659967 256.382,45.026 C256.514001,45.6860033 256.741998,46.2799974 257.066,46.808 C257.390002,47.3360026 257.815997,47.7679983 258.344,48.104 C258.872003,48.4400017 259.531996,48.608 260.324,48.608 Z M269.54,51.812 C269.54,52.5560037 269.438001,53.4079952 269.234,54.368 C269.029999,55.3280048 268.592003,56.2219959 267.92,57.05 C267.247997,57.8780041 266.276006,58.5799971 265.004,59.156 C263.731994,59.7320029 262.028011,60.02 259.892,60.02 C258.979995,60.02 258.050005,59.9060011 257.102,59.678 C256.153995,59.4499989 255.290004,59.0960024 254.51,58.616 C253.729996,58.1359976 253.082003,57.5180038 252.566,56.762 C252.049997,56.0059962 251.756,55.1000053 251.684,54.044 L256.76,54.044 C257.000001,55.0040048 257.467997,55.6699981 258.164,56.042 C258.860003,56.4140019 259.663995,56.6 260.576,56.6 C262.016007,56.6 263.065997,56.1680043 263.726,55.304 C264.386003,54.4399957 264.704,53.3480066 264.68,52.028 L264.68,49.58 L264.608,49.58 C264.055997,50.5640049 263.270005,51.2899977 262.25,51.758 C261.229995,52.2260023 260.156006,52.46 259.028,52.46 C257.635993,52.46 256.436005,52.2140025 255.428,51.722 C254.419995,51.2299975 253.592003,50.5580043 252.944,49.706 C252.295997,48.8539957 251.822001,47.8580057 251.522,46.718 C251.221998,45.5779943 251.072,44.3720064 251.072,43.1 C251.072,41.899994 251.245998,40.7420056 251.594,39.626 C251.942002,38.5099944 252.451997,37.5260043 253.124,36.674 C253.796003,35.8219957 254.629995,35.1440025 255.626,34.64 C256.622005,34.1359975 257.767994,33.884 259.064,33.884 C260.288006,33.884 261.361995,34.1119977 262.286,34.568 C263.210005,35.0240023 263.983997,35.7919946 264.608,36.872 L264.68,36.872 L264.68,34.388 L269.54,34.388 L269.54,51.812 Z" id="0.5kg" fill="#FFFFFF"></path>
                </g>
                <g id="Label" filter="url(#filter-22)" transform="translate(370.000000, 615.000000)">
                    <circle id="Oval-2" stroke="#979797" fill="#FFFFFF" cx="75" cy="75" r="75"></circle>
                    <g id="Basket" transform="translate(35.000000, 42.000000)" fill-rule="nonzero" fill="#1E1E1E">
                        <path d="M77.5,23.5789474 L69.9525,23.5789474 C70.285,23.5789474 70.48,24.7712983 70.48,25.5544101 C70.48,26.9008572 69.96,28.0477371 69.015,29.0026283 L66.21,31.7788861 C65.265,32.7337773 64.01,33.2263799 62.675,33.2263799 C61.34,33.2263799 60.085,32.9308183 59.14,31.9759271 L50.605,23.5789474 L26.895,23.5789474 L18.36,31.9607701 C17.415,32.9181875 16.16,33.3198481 14.825,33.3198481 C13.49,33.3198481 12.235,32.7363034 11.29,31.7814122 L8.485,28.9142125 C7.54,27.9593213 7.02,26.9210666 7.02,25.5720933 C7.02,24.7864553 7.215,23.5814735 7.5475,23.5814735 L2.5,23.5814735 C1.1175,23.5814735 0,24.2256462 0,25.6226166 L0,30.674951 C0,32.0719215 1.1175,33.6861423 2.5,33.6861423 L5,33.6861423 L11.515,62.2192007 C12.09,64.7403156 14.3125,66.5263158 16.875,66.5263158 L60.625,66.5263158 C63.185,66.5263158 65.4075,64.7403156 65.985,62.2192007 L72.5,33.6836161 L77.5,33.6836161 C78.8825,33.6836161 80,32.0668691 80,30.6724248 L80,25.6200905 C80,24.22312 78.8825,23.5789474 77.5,23.5789474 Z M20,50.8817624 L15,50.8817624 L15,45.829428 L20,45.829428 L20,50.8817624 Z M20,40.7770936 L15,40.7770936 L15,35.7247592 L20,35.7247592 L20,40.7770936 Z M30,60.9864311 L25,60.9864311 L25,55.9340968 L30,55.9340968 L30,60.9864311 Z M30,50.8817624 L25,50.8817624 L25,45.829428 L30,45.829428 L30,50.8817624 Z M30,40.7770936 L25,40.7770936 L25,35.7247592 L30,35.7247592 L30,40.7770936 Z M40,60.9864311 L35,60.9864311 L35,55.9340968 L40,55.9340968 L40,60.9864311 Z M40,50.8817624 L35,50.8817624 L35,45.829428 L40,45.829428 L40,50.8817624 Z M40,40.7770936 L35,40.7770936 L35,35.7247592 L40,35.7247592 L40,40.7770936 Z M50,60.9864311 L45,60.9864311 L45,55.9340968 L50,55.9340968 L50,60.9864311 Z M50,50.8817624 L45,50.8817624 L45,45.829428 L50,45.829428 L50,50.8817624 Z M50,40.7770936 L45,40.7770936 L45,35.7247592 L50,35.7247592 L50,40.7770936 Z M60,50.8817624 L55,50.8817624 L55,45.829428 L60,45.829428 L60,50.8817624 Z M60,40.7770936 L55,40.7770936 L55,35.7247592 L60,35.7247592 L60,40.7770936 Z" id="Shape"></path>
                        <path d="M13.6212975,29.5872507 C14.0859607,30.054709 14.7171075,30.3157895 15.3780723,30.3157895 C16.039037,30.3157895 16.6701838,30.054709 17.134847,29.5872507 L39.1578947,7.54708934 L61.1809424,29.5872507 C61.6480905,30.054709 62.2792373,30.3157895 62.9377172,30.3157895 C63.5961971,30.3157895 64.2298288,30.054709 64.694492,29.5872507 L67.4824711,26.7974198 C67.9496192,26.3299615 68.2105263,25.700882 68.2105263,25.0394783 C68.2105263,24.3780745 67.9496192,23.7465085 67.4824711,23.2815367 L44.9425788,0.729160349 C43.9710103,-0.24305345 42.4005978,-0.24305345 41.4290293,0.729160349 L39.1578947,3.00180335 L36.8867602,0.729160349 C35.9151917,-0.24305345 34.3447792,-0.24305345 33.3732107,0.729160349 L10.8333183,23.2815367 C10.3661703,23.7465085 10.1052632,24.3780745 10.1052632,25.0394783 C10.1052632,25.700882 10.3661703,26.332448 10.8333183,26.7974198 L13.6212975,29.5872507 Z M62.7637791,22.8563486 C64.1378901,22.8563486 65.248609,23.9678053 65.248609,25.3428289 C65.248609,26.7178525 64.1378901,27.8293092 62.7637791,27.8293092 C61.3896681,27.8293092 60.2789492,26.7178525 60.2789492,25.3428289 C60.2789492,23.9678053 61.3896681,22.8563486 62.7637791,22.8563486 Z M15.5520104,22.8563486 C16.9261213,22.8563486 18.0368403,23.9678053 18.0368403,25.3428289 C18.0368403,26.7178525 16.9261213,27.8293092 15.5520104,27.8293092 C14.1778994,27.8293092 13.0671804,26.7178525 13.0671804,25.3428289 C13.0671804,23.9678053 14.1778994,22.8563486 15.5520104,22.8563486 Z" id="Shape"></path>
                    </g>
                </g>
            </g>
        </g>
    </g>
</svg>