<?xml version="1.0" encoding="UTF-8"?>
<svg width="1920px" height="1080px" viewBox="0 0 1920 1080" version="1.1" xmlns="http://www.w3.org/2000/svg" xmlns:xlink="http://www.w3.org/1999/xlink">
    <!-- Generator: Sketch 46.2 (44496) - http://www.bohemiancoding.com/sketch -->
    <title>kafka11</title>
    <desc>Created with Sketch.</desc>
    <defs>
        <rect id="path-1" x="0" y="0" width="50" height="270"></rect>
        <rect id="path-3" x="0" y="0" width="50" height="270"></rect>
        <rect id="path-5" x="0" y="0" width="50" height="270"></rect>
        <rect id="path-7" x="0" y="0" width="50" height="270"></rect>
        <rect id="path-9" x="0" y="0" width="50" height="270"></rect>
        <rect id="path-11" x="0" y="0" width="50" height="270"></rect>
        <rect id="path-13" x="0" y="0" width="50" height="270"></rect>
        <rect id="path-15" x="0" y="0" width="50" height="270"></rect>
        <rect id="path-17" x="0" y="0" width="50" height="270"></rect>
        <rect id="path-19" x="0" y="0" width="50" height="270"></rect>
        <filter x="-5.3%" y="-4.0%" width="110.7%" height="110.7%" filterUnits="objectBoundingBox" id="filter-21">
            <feOffset dx="0" dy="2" in="SourceAlpha" result="shadowOffsetOuter1"></feOffset>
            <feGaussianBlur stdDeviation="2" in="shadowOffsetOuter1" result="shadowBlurOuter1"></feGaussianBlur>
            <feColorMatrix values="0 0 0 0 0   0 0 0 0 0   0 0 0 0 0  0 0 0 0.5 0" type="matrix" in="shadowBlurOuter1" result="shadowMatrixOuter1"></feColorMatrix>
            <feMerge>
                <feMergeNode in="shadowMatrixOuter1"></feMergeNode>
                <feMergeNode in="SourceGraphic"></feMergeNode>
            </feMerge>
        </filter>
        <filter x="-5.3%" y="-4.0%" width="110.7%" height="110.7%" filterUnits="objectBoundingBox" id="filter-22">
            <feOffset dx="0" dy="2" in="SourceAlpha" result="shadowOffsetOuter1"></feOffset>
            <feGaussianBlur stdDeviation="2" in="shadowOffsetOuter1" result="shadowBlurOuter1"></feGaussianBlur>
            <feColorMatrix values="0 0 0 0 0   0 0 0 0 0   0 0 0 0 0  0 0 0 0.5 0" type="matrix" in="shadowBlurOuter1" result="shadowMatrixOuter1"></feColorMatrix>
            <feMerge>
                <feMergeNode in="shadowMatrixOuter1"></feMergeNode>
                <feMergeNode in="SourceGraphic"></feMergeNode>
            </feMerge>
        </filter>
    </defs>
    <g id="Actual-Slides" stroke="none" stroke-width="1" fill="none" fill-rule="evenodd">
        <g id="kafka11">
            <g id="Borders" transform="translate(590.000000, 0.000000)">
                <g id="Borders-Copy" transform="translate(690.000000, 0.000000)">
                    <g id="Lines-Copy">
                        <mask id="mask-2" fill="white">
                            <use xlink:href="#path-1"></use>
                        </mask>
                        <use id="Mask" fill="#1E1E1E" xlink:href="#path-1"></use>
                        <g id="Group-2" mask="url(#mask-2)" fill="#FFE859">
                            <g transform="translate(-224.000000, -36.000000)">
                                <rect id="Rectangle-3" transform="translate(367.265677, 185.487836) rotate(-45.000000) translate(-367.265677, -185.487836) " x="158.585677" y="163.15713" width="417.36" height="44.6614126"></rect>
                                <rect id="Rectangle-3-Copy" transform="translate(276.157984, 163.807539) rotate(-45.000000) translate(-276.157984, -163.807539) " x="67.4779843" y="141.476832" width="417.36" height="44.6614126"></rect>
                                <rect id="Rectangle-3-Copy-2" transform="translate(163.357984, 163.807539) rotate(-45.000000) translate(-163.357984, -163.807539) " x="-45.3220157" y="141.476832" width="417.36" height="44.6614126"></rect>
                                <rect id="Rectangle-3" transform="translate(480.065677, 185.487836) rotate(-45.000000) translate(-480.065677, -185.487836) " x="271.385677" y="163.15713" width="417.36" height="44.6614126"></rect>
                                <rect id="Rectangle-3-Copy" transform="translate(388.957984, 163.807539) rotate(-45.000000) translate(-388.957984, -163.807539) " x="180.277984" y="141.476832" width="417.36" height="44.6614126"></rect>
                                <rect id="Rectangle-3-Copy-2" transform="translate(276.157984, 163.807539) rotate(-45.000000) translate(-276.157984, -163.807539) " x="67.4779843" y="141.476832" width="417.36" height="44.6614126"></rect>
                                <rect id="Rectangle-3" transform="translate(592.865677, 185.487836) rotate(-45.000000) translate(-592.865677, -185.487836) " x="384.185677" y="163.15713" width="417.36" height="44.6614126"></rect>
                                <rect id="Rectangle-3-Copy-3" transform="translate(701.327215, 185.487836) rotate(-45.000000) translate(-701.327215, -185.487836) " x="492.647215" y="163.15713" width="417.36" height="44.6614126"></rect>
                                <rect id="Rectangle-3-Copy" transform="translate(501.757984, 163.807539) rotate(-45.000000) translate(-501.757984, -163.807539) " x="293.077984" y="141.476832" width="417.36" height="44.6614126"></rect>
                                <rect id="Rectangle-3-Copy-2" transform="translate(388.957984, 163.807539) rotate(-45.000000) translate(-388.957984, -163.807539) " x="180.277984" y="141.476832" width="417.36" height="44.6614126"></rect>
                            </g>
                        </g>
                    </g>
                    <g id="Lines-Copy-2" transform="translate(0.000000, 226.000000)">
                        <mask id="mask-4" fill="white">
                            <use xlink:href="#path-3"></use>
                        </mask>
                        <use id="Mask" fill="#1E1E1E" xlink:href="#path-3"></use>
                        <g id="Group-2" mask="url(#mask-4)" fill="#FFE859">
                            <g transform="translate(-223.864615, -36.529294)">
                                <rect id="Rectangle-3" transform="translate(367.265677, 185.487836) rotate(-45.000000) translate(-367.265677, -185.487836) " x="158.585677" y="163.15713" width="417.36" height="44.6614126"></rect>
                                <rect id="Rectangle-3-Copy" transform="translate(276.157984, 163.807539) rotate(-45.000000) translate(-276.157984, -163.807539) " x="67.4779843" y="141.476832" width="417.36" height="44.6614126"></rect>
                                <rect id="Rectangle-3-Copy-2" transform="translate(163.357984, 163.807539) rotate(-45.000000) translate(-163.357984, -163.807539) " x="-45.3220157" y="141.476832" width="417.36" height="44.6614126"></rect>
                                <rect id="Rectangle-3" transform="translate(480.065677, 185.487836) rotate(-45.000000) translate(-480.065677, -185.487836) " x="271.385677" y="163.15713" width="417.36" height="44.6614126"></rect>
                                <rect id="Rectangle-3-Copy" transform="translate(388.957984, 163.807539) rotate(-45.000000) translate(-388.957984, -163.807539) " x="180.277984" y="141.476832" width="417.36" height="44.6614126"></rect>
                                <rect id="Rectangle-3-Copy-2" transform="translate(276.157984, 163.807539) rotate(-45.000000) translate(-276.157984, -163.807539) " x="67.4779843" y="141.476832" width="417.36" height="44.6614126"></rect>
                                <rect id="Rectangle-3" transform="translate(592.865677, 185.487836) rotate(-45.000000) translate(-592.865677, -185.487836) " x="384.185677" y="163.15713" width="417.36" height="44.6614126"></rect>
                                <rect id="Rectangle-3-Copy-3" transform="translate(701.327215, 185.487836) rotate(-45.000000) translate(-701.327215, -185.487836) " x="492.647215" y="163.15713" width="417.36" height="44.6614126"></rect>
                                <rect id="Rectangle-3-Copy" transform="translate(501.757984, 163.807539) rotate(-45.000000) translate(-501.757984, -163.807539) " x="293.077984" y="141.476832" width="417.36" height="44.6614126"></rect>
                                <rect id="Rectangle-3-Copy-2" transform="translate(388.957984, 163.807539) rotate(-45.000000) translate(-388.957984, -163.807539) " x="180.277984" y="141.476832" width="417.36" height="44.6614126"></rect>
                            </g>
                        </g>
                    </g>
                    <g id="Lines-Copy-4" transform="translate(0.000000, 451.000000)">
                        <mask id="mask-6" fill="white">
                            <use xlink:href="#path-5"></use>
                        </mask>
                        <use id="Mask" fill="#1E1E1E" xlink:href="#path-5"></use>
                        <g id="Group-2" mask="url(#mask-6)" fill="#FFE859">
                            <g transform="translate(-224.000000, -36.000000)">
                                <rect id="Rectangle-3" transform="translate(367.265677, 185.487836) rotate(-45.000000) translate(-367.265677, -185.487836) " x="158.585677" y="163.15713" width="417.36" height="44.6614126"></rect>
                                <rect id="Rectangle-3-Copy" transform="translate(276.157984, 163.807539) rotate(-45.000000) translate(-276.157984, -163.807539) " x="67.4779843" y="141.476832" width="417.36" height="44.6614126"></rect>
                                <rect id="Rectangle-3-Copy-2" transform="translate(163.357984, 163.807539) rotate(-45.000000) translate(-163.357984, -163.807539) " x="-45.3220157" y="141.476832" width="417.36" height="44.6614126"></rect>
                                <rect id="Rectangle-3" transform="translate(480.065677, 185.487836) rotate(-45.000000) translate(-480.065677, -185.487836) " x="271.385677" y="163.15713" width="417.36" height="44.6614126"></rect>
                                <rect id="Rectangle-3-Copy" transform="translate(388.957984, 163.807539) rotate(-45.000000) translate(-388.957984, -163.807539) " x="180.277984" y="141.476832" width="417.36" height="44.6614126"></rect>
                                <rect id="Rectangle-3-Copy-2" transform="translate(276.157984, 163.807539) rotate(-45.000000) translate(-276.157984, -163.807539) " x="67.4779843" y="141.476832" width="417.36" height="44.6614126"></rect>
                                <rect id="Rectangle-3" transform="translate(592.865677, 185.487836) rotate(-45.000000) translate(-592.865677, -185.487836) " x="384.185677" y="163.15713" width="417.36" height="44.6614126"></rect>
                                <rect id="Rectangle-3-Copy-3" transform="translate(701.327215, 185.487836) rotate(-45.000000) translate(-701.327215, -185.487836) " x="492.647215" y="163.15713" width="417.36" height="44.6614126"></rect>
                                <rect id="Rectangle-3-Copy" transform="translate(501.757984, 163.807539) rotate(-45.000000) translate(-501.757984, -163.807539) " x="293.077984" y="141.476832" width="417.36" height="44.6614126"></rect>
                                <rect id="Rectangle-3-Copy-2" transform="translate(388.957984, 163.807539) rotate(-45.000000) translate(-388.957984, -163.807539) " x="180.277984" y="141.476832" width="417.36" height="44.6614126"></rect>
                            </g>
                        </g>
                    </g>
                    <g id="Lines-Copy-3" transform="translate(0.000000, 677.000000)">
                        <mask id="mask-8" fill="white">
                            <use xlink:href="#path-7"></use>
                        </mask>
                        <use id="Mask" fill="#1E1E1E" xlink:href="#path-7"></use>
                        <g id="Group-2" mask="url(#mask-8)" fill="#FFE859">
                            <g transform="translate(-223.864615, -36.529294)">
                                <rect id="Rectangle-3" transform="translate(367.265677, 185.487836) rotate(-45.000000) translate(-367.265677, -185.487836) " x="158.585677" y="163.15713" width="417.36" height="44.6614126"></rect>
                                <rect id="Rectangle-3-Copy" transform="translate(276.157984, 163.807539) rotate(-45.000000) translate(-276.157984, -163.807539) " x="67.4779843" y="141.476832" width="417.36" height="44.6614126"></rect>
                                <rect id="Rectangle-3-Copy-2" transform="translate(163.357984, 163.807539) rotate(-45.000000) translate(-163.357984, -163.807539) " x="-45.3220157" y="141.476832" width="417.36" height="44.6614126"></rect>
                                <rect id="Rectangle-3" transform="translate(480.065677, 185.487836) rotate(-45.000000) translate(-480.065677, -185.487836) " x="271.385677" y="163.15713" width="417.36" height="44.6614126"></rect>
                                <rect id="Rectangle-3-Copy" transform="translate(388.957984, 163.807539) rotate(-45.000000) translate(-388.957984, -163.807539) " x="180.277984" y="141.476832" width="417.36" height="44.6614126"></rect>
                                <rect id="Rectangle-3-Copy-2" transform="translate(276.157984, 163.807539) rotate(-45.000000) translate(-276.157984, -163.807539) " x="67.4779843" y="141.476832" width="417.36" height="44.6614126"></rect>
                                <rect id="Rectangle-3" transform="translate(592.865677, 185.487836) rotate(-45.000000) translate(-592.865677, -185.487836) " x="384.185677" y="163.15713" width="417.36" height="44.6614126"></rect>
                                <rect id="Rectangle-3-Copy-3" transform="translate(701.327215, 185.487836) rotate(-45.000000) translate(-701.327215, -185.487836) " x="492.647215" y="163.15713" width="417.36" height="44.6614126"></rect>
                                <rect id="Rectangle-3-Copy" transform="translate(501.757984, 163.807539) rotate(-45.000000) translate(-501.757984, -163.807539) " x="293.077984" y="141.476832" width="417.36" height="44.6614126"></rect>
                                <rect id="Rectangle-3-Copy-2" transform="translate(388.957984, 163.807539) rotate(-45.000000) translate(-388.957984, -163.807539) " x="180.277984" y="141.476832" width="417.36" height="44.6614126"></rect>
                            </g>
                        </g>
                    </g>
                    <g id="Lines-Copy-6" transform="translate(0.000000, 902.000000)">
                        <mask id="mask-10" fill="white">
                            <use xlink:href="#path-9"></use>
                        </mask>
                        <use id="Mask" fill="#1E1E1E" xlink:href="#path-9"></use>
                        <g id="Group-2" mask="url(#mask-10)" fill="#FFE859">
                            <g transform="translate(-224.000000, -36.000000)">
                                <rect id="Rectangle-3" transform="translate(367.265677, 185.487836) rotate(-45.000000) translate(-367.265677, -185.487836) " x="158.585677" y="163.15713" width="417.36" height="44.6614126"></rect>
                                <rect id="Rectangle-3-Copy" transform="translate(276.157984, 163.807539) rotate(-45.000000) translate(-276.157984, -163.807539) " x="67.4779843" y="141.476832" width="417.36" height="44.6614126"></rect>
                                <rect id="Rectangle-3-Copy-2" transform="translate(163.357984, 163.807539) rotate(-45.000000) translate(-163.357984, -163.807539) " x="-45.3220157" y="141.476832" width="417.36" height="44.6614126"></rect>
                                <rect id="Rectangle-3" transform="translate(480.065677, 185.487836) rotate(-45.000000) translate(-480.065677, -185.487836) " x="271.385677" y="163.15713" width="417.36" height="44.6614126"></rect>
                                <rect id="Rectangle-3-Copy" transform="translate(388.957984, 163.807539) rotate(-45.000000) translate(-388.957984, -163.807539) " x="180.277984" y="141.476832" width="417.36" height="44.6614126"></rect>
                                <rect id="Rectangle-3-Copy-2" transform="translate(276.157984, 163.807539) rotate(-45.000000) translate(-276.157984, -163.807539) " x="67.4779843" y="141.476832" width="417.36" height="44.6614126"></rect>
                                <rect id="Rectangle-3" transform="translate(592.865677, 185.487836) rotate(-45.000000) translate(-592.865677, -185.487836) " x="384.185677" y="163.15713" width="417.36" height="44.6614126"></rect>
                                <rect id="Rectangle-3-Copy-3" transform="translate(701.327215, 185.487836) rotate(-45.000000) translate(-701.327215, -185.487836) " x="492.647215" y="163.15713" width="417.36" height="44.6614126"></rect>
                                <rect id="Rectangle-3-Copy" transform="translate(501.757984, 163.807539) rotate(-45.000000) translate(-501.757984, -163.807539) " x="293.077984" y="141.476832" width="417.36" height="44.6614126"></rect>
                                <rect id="Rectangle-3-Copy-2" transform="translate(388.957984, 163.807539) rotate(-45.000000) translate(-388.957984, -163.807539) " x="180.277984" y="141.476832" width="417.36" height="44.6614126"></rect>
                            </g>
                        </g>
                    </g>
                </g>
                <g>
                    <g id="Lines-Copy">
                        <mask id="mask-12" fill="white">
                            <use xlink:href="#path-11"></use>
                        </mask>
                        <use id="Mask" fill="#1E1E1E" xlink:href="#path-11"></use>
                        <g id="Group-2" mask="url(#mask-12)" fill="#FFE859">
                            <g transform="translate(-224.000000, -36.000000)">
                                <rect id="Rectangle-3" transform="translate(367.265677, 185.487836) rotate(-45.000000) translate(-367.265677, -185.487836) " x="158.585677" y="163.15713" width="417.36" height="44.6614126"></rect>
                                <rect id="Rectangle-3-Copy" transform="translate(276.157984, 163.807539) rotate(-45.000000) translate(-276.157984, -163.807539) " x="67.4779843" y="141.476832" width="417.36" height="44.6614126"></rect>
                                <rect id="Rectangle-3-Copy-2" transform="translate(163.357984, 163.807539) rotate(-45.000000) translate(-163.357984, -163.807539) " x="-45.3220157" y="141.476832" width="417.36" height="44.6614126"></rect>
                                <rect id="Rectangle-3" transform="translate(480.065677, 185.487836) rotate(-45.000000) translate(-480.065677, -185.487836) " x="271.385677" y="163.15713" width="417.36" height="44.6614126"></rect>
                                <rect id="Rectangle-3-Copy" transform="translate(388.957984, 163.807539) rotate(-45.000000) translate(-388.957984, -163.807539) " x="180.277984" y="141.476832" width="417.36" height="44.6614126"></rect>
                                <rect id="Rectangle-3-Copy-2" transform="translate(276.157984, 163.807539) rotate(-45.000000) translate(-276.157984, -163.807539) " x="67.4779843" y="141.476832" width="417.36" height="44.6614126"></rect>
                                <rect id="Rectangle-3" transform="translate(592.865677, 185.487836) rotate(-45.000000) translate(-592.865677, -185.487836) " x="384.185677" y="163.15713" width="417.36" height="44.6614126"></rect>
                                <rect id="Rectangle-3-Copy-3" transform="translate(701.327215, 185.487836) rotate(-45.000000) translate(-701.327215, -185.487836) " x="492.647215" y="163.15713" width="417.36" height="44.6614126"></rect>
                                <rect id="Rectangle-3-Copy" transform="translate(501.757984, 163.807539) rotate(-45.000000) translate(-501.757984, -163.807539) " x="293.077984" y="141.476832" width="417.36" height="44.6614126"></rect>
                                <rect id="Rectangle-3-Copy-2" transform="translate(388.957984, 163.807539) rotate(-45.000000) translate(-388.957984, -163.807539) " x="180.277984" y="141.476832" width="417.36" height="44.6614126"></rect>
                            </g>
                        </g>
                    </g>
                    <g id="Lines-Copy-2" transform="translate(0.000000, 226.000000)">
                        <mask id="mask-14" fill="white">
                            <use xlink:href="#path-13"></use>
                        </mask>
                        <use id="Mask" fill="#1E1E1E" xlink:href="#path-13"></use>
                        <g id="Group-2" mask="url(#mask-14)" fill="#FFE859">
                            <g transform="translate(-223.864615, -36.529294)">
                                <rect id="Rectangle-3" transform="translate(367.265677, 185.487836) rotate(-45.000000) translate(-367.265677, -185.487836) " x="158.585677" y="163.15713" width="417.36" height="44.6614126"></rect>
                                <rect id="Rectangle-3-Copy" transform="translate(276.157984, 163.807539) rotate(-45.000000) translate(-276.157984, -163.807539) " x="67.4779843" y="141.476832" width="417.36" height="44.6614126"></rect>
                                <rect id="Rectangle-3-Copy-2" transform="translate(163.357984, 163.807539) rotate(-45.000000) translate(-163.357984, -163.807539) " x="-45.3220157" y="141.476832" width="417.36" height="44.6614126"></rect>
                                <rect id="Rectangle-3" transform="translate(480.065677, 185.487836) rotate(-45.000000) translate(-480.065677, -185.487836) " x="271.385677" y="163.15713" width="417.36" height="44.6614126"></rect>
                                <rect id="Rectangle-3-Copy" transform="translate(388.957984, 163.807539) rotate(-45.000000) translate(-388.957984, -163.807539) " x="180.277984" y="141.476832" width="417.36" height="44.6614126"></rect>
                                <rect id="Rectangle-3-Copy-2" transform="translate(276.157984, 163.807539) rotate(-45.000000) translate(-276.157984, -163.807539) " x="67.4779843" y="141.476832" width="417.36" height="44.6614126"></rect>
                                <rect id="Rectangle-3" transform="translate(592.865677, 185.487836) rotate(-45.000000) translate(-592.865677, -185.487836) " x="384.185677" y="163.15713" width="417.36" height="44.6614126"></rect>
                                <rect id="Rectangle-3-Copy-3" transform="translate(701.327215, 185.487836) rotate(-45.000000) translate(-701.327215, -185.487836) " x="492.647215" y="163.15713" width="417.36" height="44.6614126"></rect>
                                <rect id="Rectangle-3-Copy" transform="translate(501.757984, 163.807539) rotate(-45.000000) translate(-501.757984, -163.807539) " x="293.077984" y="141.476832" width="417.36" height="44.6614126"></rect>
                                <rect id="Rectangle-3-Copy-2" transform="translate(388.957984, 163.807539) rotate(-45.000000) translate(-388.957984, -163.807539) " x="180.277984" y="141.476832" width="417.36" height="44.6614126"></rect>
                            </g>
                        </g>
                    </g>
                    <g id="Lines-Copy-4" transform="translate(0.000000, 451.000000)">
                        <mask id="mask-16" fill="white">
                            <use xlink:href="#path-15"></use>
                        </mask>
                        <use id="Mask" fill="#1E1E1E" xlink:href="#path-15"></use>
                        <g id="Group-2" mask="url(#mask-16)" fill="#FFE859">
                            <g transform="translate(-224.000000, -36.000000)">
                                <rect id="Rectangle-3" transform="translate(367.265677, 185.487836) rotate(-45.000000) translate(-367.265677, -185.487836) " x="158.585677" y="163.15713" width="417.36" height="44.6614126"></rect>
                                <rect id="Rectangle-3-Copy" transform="translate(276.157984, 163.807539) rotate(-45.000000) translate(-276.157984, -163.807539) " x="67.4779843" y="141.476832" width="417.36" height="44.6614126"></rect>
                                <rect id="Rectangle-3-Copy-2" transform="translate(163.357984, 163.807539) rotate(-45.000000) translate(-163.357984, -163.807539) " x="-45.3220157" y="141.476832" width="417.36" height="44.6614126"></rect>
                                <rect id="Rectangle-3" transform="translate(480.065677, 185.487836) rotate(-45.000000) translate(-480.065677, -185.487836) " x="271.385677" y="163.15713" width="417.36" height="44.6614126"></rect>
                                <rect id="Rectangle-3-Copy" transform="translate(388.957984, 163.807539) rotate(-45.000000) translate(-388.957984, -163.807539) " x="180.277984" y="141.476832" width="417.36" height="44.6614126"></rect>
                                <rect id="Rectangle-3-Copy-2" transform="translate(276.157984, 163.807539) rotate(-45.000000) translate(-276.157984, -163.807539) " x="67.4779843" y="141.476832" width="417.36" height="44.6614126"></rect>
                                <rect id="Rectangle-3" transform="translate(592.865677, 185.487836) rotate(-45.000000) translate(-592.865677, -185.487836) " x="384.185677" y="163.15713" width="417.36" height="44.6614126"></rect>
                                <rect id="Rectangle-3-Copy-3" transform="translate(701.327215, 185.487836) rotate(-45.000000) translate(-701.327215, -185.487836) " x="492.647215" y="163.15713" width="417.36" height="44.6614126"></rect>
                                <rect id="Rectangle-3-Copy" transform="translate(501.757984, 163.807539) rotate(-45.000000) translate(-501.757984, -163.807539) " x="293.077984" y="141.476832" width="417.36" height="44.6614126"></rect>
                                <rect id="Rectangle-3-Copy-2" transform="translate(388.957984, 163.807539) rotate(-45.000000) translate(-388.957984, -163.807539) " x="180.277984" y="141.476832" width="417.36" height="44.6614126"></rect>
                            </g>
                        </g>
                    </g>
                    <g id="Lines-Copy-3" transform="translate(0.000000, 677.000000)">
                        <mask id="mask-18" fill="white">
                            <use xlink:href="#path-17"></use>
                        </mask>
                        <use id="Mask" fill="#1E1E1E" xlink:href="#path-17"></use>
                        <g id="Group-2" mask="url(#mask-18)" fill="#FFE859">
                            <g transform="translate(-223.864615, -36.529294)">
                                <rect id="Rectangle-3" transform="translate(367.265677, 185.487836) rotate(-45.000000) translate(-367.265677, -185.487836) " x="158.585677" y="163.15713" width="417.36" height="44.6614126"></rect>
                                <rect id="Rectangle-3-Copy" transform="translate(276.157984, 163.807539) rotate(-45.000000) translate(-276.157984, -163.807539) " x="67.4779843" y="141.476832" width="417.36" height="44.6614126"></rect>
                                <rect id="Rectangle-3-Copy-2" transform="translate(163.357984, 163.807539) rotate(-45.000000) translate(-163.357984, -163.807539) " x="-45.3220157" y="141.476832" width="417.36" height="44.6614126"></rect>
                                <rect id="Rectangle-3" transform="translate(480.065677, 185.487836) rotate(-45.000000) translate(-480.065677, -185.487836) " x="271.385677" y="163.15713" width="417.36" height="44.6614126"></rect>
                                <rect id="Rectangle-3-Copy" transform="translate(388.957984, 163.807539) rotate(-45.000000) translate(-388.957984, -163.807539) " x="180.277984" y="141.476832" width="417.36" height="44.6614126"></rect>
                                <rect id="Rectangle-3-Copy-2" transform="translate(276.157984, 163.807539) rotate(-45.000000) translate(-276.157984, -163.807539) " x="67.4779843" y="141.476832" width="417.36" height="44.6614126"></rect>
                                <rect id="Rectangle-3" transform="translate(592.865677, 185.487836) rotate(-45.000000) translate(-592.865677, -185.487836) " x="384.185677" y="163.15713" width="417.36" height="44.6614126"></rect>
                                <rect id="Rectangle-3-Copy-3" transform="translate(701.327215, 185.487836) rotate(-45.000000) translate(-701.327215, -185.487836) " x="492.647215" y="163.15713" width="417.36" height="44.6614126"></rect>
                                <rect id="Rectangle-3-Copy" transform="translate(501.757984, 163.807539) rotate(-45.000000) translate(-501.757984, -163.807539) " x="293.077984" y="141.476832" width="417.36" height="44.6614126"></rect>
                                <rect id="Rectangle-3-Copy-2" transform="translate(388.957984, 163.807539) rotate(-45.000000) translate(-388.957984, -163.807539) " x="180.277984" y="141.476832" width="417.36" height="44.6614126"></rect>
                            </g>
                        </g>
                    </g>
                    <g id="Lines-Copy-6" transform="translate(0.000000, 902.000000)">
                        <mask id="mask-20" fill="white">
                            <use xlink:href="#path-19"></use>
                        </mask>
                        <use id="Mask" fill="#1E1E1E" xlink:href="#path-19"></use>
                        <g id="Group-2" mask="url(#mask-20)" fill="#FFE859">
                            <g transform="translate(-224.000000, -36.000000)">
                                <rect id="Rectangle-3" transform="translate(367.265677, 185.487836) rotate(-45.000000) translate(-367.265677, -185.487836) " x="158.585677" y="163.15713" width="417.36" height="44.6614126"></rect>
                                <rect id="Rectangle-3-Copy" transform="translate(276.157984, 163.807539) rotate(-45.000000) translate(-276.157984, -163.807539) " x="67.4779843" y="141.476832" width="417.36" height="44.6614126"></rect>
                                <rect id="Rectangle-3-Copy-2" transform="translate(163.357984, 163.807539) rotate(-45.000000) translate(-163.357984, -163.807539) " x="-45.3220157" y="141.476832" width="417.36" height="44.6614126"></rect>
                                <rect id="Rectangle-3" transform="translate(480.065677, 185.487836) rotate(-45.000000) translate(-480.065677, -185.487836) " x="271.385677" y="163.15713" width="417.36" height="44.6614126"></rect>
                                <rect id="Rectangle-3-Copy" transform="translate(388.957984, 163.807539) rotate(-45.000000) translate(-388.957984, -163.807539) " x="180.277984" y="141.476832" width="417.36" height="44.6614126"></rect>
                                <rect id="Rectangle-3-Copy-2" transform="translate(276.157984, 163.807539) rotate(-45.000000) translate(-276.157984, -163.807539) " x="67.4779843" y="141.476832" width="417.36" height="44.6614126"></rect>
                                <rect id="Rectangle-3" transform="translate(592.865677, 185.487836) rotate(-45.000000) translate(-592.865677, -185.487836) " x="384.185677" y="163.15713" width="417.36" height="44.6614126"></rect>
                                <rect id="Rectangle-3-Copy-3" transform="translate(701.327215, 185.487836) rotate(-45.000000) translate(-701.327215, -185.487836) " x="492.647215" y="163.15713" width="417.36" height="44.6614126"></rect>
                                <rect id="Rectangle-3-Copy" transform="translate(501.757984, 163.807539) rotate(-45.000000) translate(-501.757984, -163.807539) " x="293.077984" y="141.476832" width="417.36" height="44.6614126"></rect>
                                <rect id="Rectangle-3-Copy-2" transform="translate(388.957984, 163.807539) rotate(-45.000000) translate(-388.957984, -163.807539) " x="180.277984" y="141.476832" width="417.36" height="44.6614126"></rect>
                            </g>
                        </g>
                    </g>
                </g>
            </g>
            <g id="Outgoing-Messages-Copy" transform="translate(1330.000000, 0.000000)">
                <rect id="Background" fill="#494949" x="0" y="0" width="590" height="1080"></rect>
                <path d="M469.000157,261 L270,261 L270,221 L469,221 L469,220.625 C469,217.842 471.258667,215.583333 474.041667,215.583333 L489.166667,215.583333 C491.954708,215.583333 494.208333,217.842 494.208333,220.625 L523.767625,220.625 C537.415417,220.625 544.625,213.168375 544.625,199.066833 L544.625,170.208333 C541.842,170.208333 539.583333,167.949667 539.583333,165.166667 L539.583333,150.041667 C539.583333,147.258667 541.842,145 544.625,145 L584.958333,145 C587.746375,145 590,147.258667 590,150.041667 L590,165.166667 C590,167.949667 587.746375,170.208333 584.958333,170.208333 L584.958333,199.066833 C584.958333,232.614083 556.93675,260.958333 523.767625,260.958333 L494.208333,260.958333 C494.208333,263.741333 491.954708,266 489.166667,266 L474.041667,266 C471.272569,266 469.022579,263.763843 469.000169,261 Z M479,255 L484,255 L484,225 L479,225 L479,255 Z M549,160 L579,160 L579,155 L549,155 L549,160 Z" id="Top-Pipe" fill="#ACACAC" fill-rule="nonzero" transform="translate(430.000000, 205.500000) rotate(-180.000000) translate(-430.000000, -205.500000) "></path>
                <path d="M199.000157,930 L0,930 L0,890 L199,890 L199,889.625 C199,886.842 201.258667,884.583333 204.041667,884.583333 L219.166667,884.583333 C221.954708,884.583333 224.208333,886.842 224.208333,889.625 L253.767625,889.625 C267.415417,889.625 274.625,882.168375 274.625,868.066833 L274.625,839.208333 C271.842,839.208333 269.583333,836.949667 269.583333,834.166667 L269.583333,819.041667 C269.583333,816.258667 271.842,814 274.625,814 L314.958333,814 C317.746375,814 320,816.258667 320,819.041667 L320,834.166667 C320,836.949667 317.746375,839.208333 314.958333,839.208333 L314.958333,868.066833 C314.958333,901.614083 286.93675,929.958333 253.767625,929.958333 L224.208333,929.958333 C224.208333,932.741333 221.954708,935 219.166667,935 L204.041667,935 C201.272569,935 199.022579,932.763843 199.000169,930 Z M209,924 L214,924 L214,894 L209,894 L209,924 Z M279,829 L309,829 L309,824 L279,824 L279,829 Z" id="Bottom-Pipe" fill="#ACACAC" fill-rule="nonzero"></path>
                <g id="Item" transform="translate(70.000000, 315.000000)">
                    <circle id="Oval" fill="#1E1E1E" cx="225" cy="225" r="225"></circle>
                    <circle id="Oval-Copy" fill="#494949" cx="225" cy="225" r="150"></circle>
                </g>
                <g id="Label" filter="url(#filter-21)" transform="translate(370.000000, 615.000000)">
                    <circle id="Background" stroke="#979797" fill="#FFFFFF" cx="75" cy="75" r="75"></circle>
                    <g id="Ship" transform="translate(33.000000, 42.000000)" fill-rule="nonzero" fill="#1E1E1E">
                        <path d="M88.9548126,32.1106086 L79.5892903,32.1106086 C79.0329226,32.1106086 78.5692829,32.5693316 78.5692829,33.1197992 L78.5692829,33.7620113 C78.5692829,34.6794573 77.8274594,35.4134141 76.9001799,35.4134141 L30.8143921,35.4134141 C29.8871127,35.4134141 29.1452891,34.6794573 29.1452891,33.7620113 L29.1452891,32.8445654 L29.1452891,19.8168327 L19.501583,19.8168327 L19.501583,16.6975165 L29.1452891,16.6975165 L29.1452891,14.9543691 L29.1452891,13.7616894 C29.1452891,13.0277326 28.4961935,12.3855205 27.75437,12.3855205 L27.2907303,12.3855205 C26.7343626,12.3855205 26.2707229,11.9267975 26.2707229,11.3763299 L26.2707229,9.44969339 C26.2707229,8.71573662 25.7143552,8.16526904 24.9725317,8.16526904 L22.7470611,8.16526904 C22.0052375,8.16526904 21.4488698,8.71573662 21.4488698,9.44969339 L21.4488698,11.3763299 C21.4488698,11.9267975 20.9852301,12.3855205 20.4288625,12.3855205 L19.9652228,12.3855205 C19.4088551,12.3855205 18.9452154,11.9267975 18.9452154,11.3763299 L18.9452154,1.28442434 C18.9452154,0.550467576 18.3888477,0 17.6470242,0 L15.6070094,0 C14.8651859,0 14.3088182,0.550467576 14.3088182,1.28442434 L14.3088182,11.3763299 C14.3088182,11.9267975 13.8451785,12.3855205 13.2888108,12.3855205 L12.2688035,12.3855205 C11.5269799,12.3855205 10.8778843,13.0277326 10.8778843,13.7616894 L10.8778843,30.3674613 C10.8778843,31.2849072 10.1360608,32.018864 9.20878133,32.018864 L1.41963409,32.018864 C0.585082599,32.018864 -0.156740947,32.7528208 0.0287149393,33.6702667 L3.92328856,58.1660739 C4.10874445,59.3587536 5.12875182,60.184455 6.24148714,60.184455 L70.5946798,60.184455 C71.4292313,60.184455 72.1710548,59.8174766 72.5419666,59.1752644 L89.6966361,33.6702667 C90.2530038,33.0280546 89.6966361,32.1106086 88.9548126,32.1106086 Z M16.6270168,46.9732331 C15.2360976,46.9732331 14.0306344,45.7805534 14.0306344,44.4043845 C14.0306344,43.0282155 15.2360976,41.8355358 16.6270168,41.8355358 C18.0179359,41.8355358 19.2233992,43.0282155 19.2233992,44.4043845 C19.2233992,45.7805534 18.1106639,46.9732331 16.6270168,46.9732331 Z M33.3180466,46.9732331 C31.9271274,46.9732331 30.7216642,45.7805534 30.7216642,44.4043845 C30.7216642,43.0282155 31.9271274,41.8355358 33.3180466,41.8355358 C34.7089657,41.8355358 35.914429,43.0282155 35.914429,44.4043845 C35.8217011,45.7805534 34.7089657,46.9732331 33.3180466,46.9732331 Z M47.5981499,46.9732331 C46.2072307,46.9732331 45.0017674,45.7805534 45.0017674,44.4043845 C45.0017674,43.0282155 46.2072307,41.8355358 47.5981499,41.8355358 C48.989069,41.8355358 50.1945323,43.0282155 50.1945323,44.4043845 C50.1945323,45.7805534 48.989069,46.9732331 47.5981499,46.9732331 Z M61.8782531,46.9732331 C60.487334,46.9732331 59.2818707,45.7805534 59.2818707,44.4043845 C59.2818707,43.0282155 60.487334,41.8355358 61.8782531,41.8355358 C63.2691723,41.8355358 64.4746355,43.0282155 64.4746355,44.4043845 C64.4746355,45.7805534 63.2691723,46.9732331 61.8782531,46.9732331 Z" id="Shape"></path>
                        <path d="M50.9128567,24.3 L37.3723488,24.3 C36.6404294,24.3 36,24.9608489 36,25.7161048 L36,32.7966289 C36,33.5518848 36.6404294,34.2127338 37.3723488,34.2127338 L50.9128567,34.2127338 C51.644776,34.2127338 52.2852055,33.5518848 52.2852055,32.7966289 L52.2852055,25.7161048 C52.2852055,24.9608489 51.736266,24.3 50.9128567,24.3 Z" id="Shape"></path>
                        <path d="M68.996298,24.3 L55.3716126,24.3 C54.6400859,24.3 54,24.9608489 54,25.7161048 L54,32.7966289 C54,33.5518848 54.6400859,34.2127338 55.3716126,34.2127338 L68.9048572,34.2127338 C69.6363839,34.2127338 70.2764698,33.5518848 70.2764698,32.7966289 L70.2764698,25.7161048 C70.3679107,24.9608489 69.7278248,24.3 68.996298,24.3 Z" id="Shape"></path>
                        <path d="M50.9128567,12.6 L37.3723488,12.6 C36.6404294,12.6 36,13.2608489 36,14.0161048 L36,21.0966289 C36,21.8518848 36.6404294,22.5127338 37.3723488,22.5127338 L50.9128567,22.5127338 C51.644776,22.5127338 52.2852055,21.8518848 52.2852055,21.0966289 L52.2852055,14.0161048 C52.2852055,13.1664419 51.736266,12.6 50.9128567,12.6 Z" id="Shape"></path>
                        <path d="M68.996298,12.6 L55.3716126,12.6 C54.6400859,12.6 54,13.2608489 54,14.0161048 L54,21.0966289 C54,21.8518848 54.6400859,22.5127338 55.3716126,22.5127338 L68.9048572,22.5127338 C69.6363839,22.5127338 70.2764698,21.8518848 70.2764698,21.0966289 L70.2764698,14.0161048 C70.3679107,13.1664419 69.7278248,12.6 68.996298,12.6 Z" id="Shape"></path>
                    </g>
                </g>
            </g>
            <g id="Incoming-Message">
                <rect id="Rectangle-2" fill="#494949" x="0" y="0" width="590" height="1080"></rect>
                <path d="M469.000157,261 L270,261 L270,221 L469,221 L469,220.625 C469,217.842 471.258667,215.583333 474.041667,215.583333 L489.166667,215.583333 C491.954708,215.583333 494.208333,217.842 494.208333,220.625 L523.767625,220.625 C537.415417,220.625 544.625,213.168375 544.625,199.066833 L544.625,170.208333 C541.842,170.208333 539.583333,167.949667 539.583333,165.166667 L539.583333,150.041667 C539.583333,147.258667 541.842,145 544.625,145 L584.958333,145 C587.746375,145 590,147.258667 590,150.041667 L590,165.166667 C590,167.949667 587.746375,170.208333 584.958333,170.208333 L584.958333,199.066833 C584.958333,232.614083 556.93675,260.958333 523.767625,260.958333 L494.208333,260.958333 C494.208333,263.741333 491.954708,266 489.166667,266 L474.041667,266 C471.272569,266 469.022579,263.763843 469.000169,261 Z M479,255 L484,255 L484,225 L479,225 L479,255 Z M549,160 L579,160 L579,155 L549,155 L549,160 Z" id="Top-Pipe" fill="#ACACAC" fill-rule="nonzero" transform="translate(430.000000, 205.500000) rotate(-180.000000) translate(-430.000000, -205.500000) "></path>
                <path d="M199.000157,930 L0,930 L0,890 L199,890 L199,889.625 C199,886.842 201.258667,884.583333 204.041667,884.583333 L219.166667,884.583333 C221.954708,884.583333 224.208333,886.842 224.208333,889.625 L253.767625,889.625 C267.415417,889.625 274.625,882.168375 274.625,868.066833 L274.625,839.208333 C271.842,839.208333 269.583333,836.949667 269.583333,834.166667 L269.583333,819.041667 C269.583333,816.258667 271.842,814 274.625,814 L314.958333,814 C317.746375,814 320,816.258667 320,819.041667 L320,834.166667 C320,836.949667 317.746375,839.208333 314.958333,839.208333 L314.958333,868.066833 C314.958333,901.614083 286.93675,929.958333 253.767625,929.958333 L224.208333,929.958333 C224.208333,932.741333 221.954708,935 219.166667,935 L204.041667,935 C201.272569,935 199.022579,932.763843 199.000169,930 Z M209,924 L214,924 L214,894 L209,894 L209,924 Z M279,829 L309,829 L309,824 L279,824 L279,829 Z" id="Bottom-Pipe" fill="#ACACAC" fill-rule="nonzero"></path>
                <g id="Item" transform="translate(70.000000, 315.000000)">
                    <circle id="Oval" fill="#1E1E1E" cx="225" cy="225" r="225"></circle>
                    <circle id="Oval-Copy" fill="#494949" cx="225" cy="225" r="150"></circle>
                    <text id="$6500" font-family="HelveticaNeue-Bold, Helvetica Neue" font-size="36" font-weight="bold" fill="#FFFFFF">
                        <tspan x="175.46" y="422">$6500</tspan>
                    </text>
                    <text id="220kg" font-family="HelveticaNeue-Bold, Helvetica Neue" font-size="36" font-weight="bold" fill="#FFFFFF">
                        <tspan x="179" y="53">220kg</tspan>
                    </text>
                </g>
                <g id="Label" filter="url(#filter-22)" transform="translate(370.000000, 615.000000)">
                    <circle id="Oval-2" stroke="#979797" fill="#FFFFFF" cx="75" cy="75" r="75"></circle>
                    <g id="Basket" transform="translate(35.000000, 42.000000)" fill-rule="nonzero" fill="#1E1E1E">
                        <path d="M77.5,23.5789474 L69.9525,23.5789474 C70.285,23.5789474 70.48,24.7712983 70.48,25.5544101 C70.48,26.9008572 69.96,28.0477371 69.015,29.0026283 L66.21,31.7788861 C65.265,32.7337773 64.01,33.2263799 62.675,33.2263799 C61.34,33.2263799 60.085,32.9308183 59.14,31.9759271 L50.605,23.5789474 L26.895,23.5789474 L18.36,31.9607701 C17.415,32.9181875 16.16,33.3198481 14.825,33.3198481 C13.49,33.3198481 12.235,32.7363034 11.29,31.7814122 L8.485,28.9142125 C7.54,27.9593213 7.02,26.9210666 7.02,25.5720933 C7.02,24.7864553 7.215,23.5814735 7.5475,23.5814735 L2.5,23.5814735 C1.1175,23.5814735 0,24.2256462 0,25.6226166 L0,30.674951 C0,32.0719215 1.1175,33.6861423 2.5,33.6861423 L5,33.6861423 L11.515,62.2192007 C12.09,64.7403156 14.3125,66.5263158 16.875,66.5263158 L60.625,66.5263158 C63.185,66.5263158 65.4075,64.7403156 65.985,62.2192007 L72.5,33.6836161 L77.5,33.6836161 C78.8825,33.6836161 80,32.0668691 80,30.6724248 L80,25.6200905 C80,24.22312 78.8825,23.5789474 77.5,23.5789474 Z M20,50.8817624 L15,50.8817624 L15,45.829428 L20,45.829428 L20,50.8817624 Z M20,40.7770936 L15,40.7770936 L15,35.7247592 L20,35.7247592 L20,40.7770936 Z M30,60.9864311 L25,60.9864311 L25,55.9340968 L30,55.9340968 L30,60.9864311 Z M30,50.8817624 L25,50.8817624 L25,45.829428 L30,45.829428 L30,50.8817624 Z M30,40.7770936 L25,40.7770936 L25,35.7247592 L30,35.7247592 L30,40.7770936 Z M40,60.9864311 L35,60.9864311 L35,55.9340968 L40,55.9340968 L40,60.9864311 Z M40,50.8817624 L35,50.8817624 L35,45.829428 L40,45.829428 L40,50.8817624 Z M40,40.7770936 L35,40.7770936 L35,35.7247592 L40,35.7247592 L40,40.7770936 Z M50,60.9864311 L45,60.9864311 L45,55.9340968 L50,55.9340968 L50,60.9864311 Z M50,50.8817624 L45,50.8817624 L45,45.829428 L50,45.829428 L50,50.8817624 Z M50,40.7770936 L45,40.7770936 L45,35.7247592 L50,35.7247592 L50,40.7770936 Z M60,50.8817624 L55,50.8817624 L55,45.829428 L60,45.829428 L60,50.8817624 Z M60,40.7770936 L55,40.7770936 L55,35.7247592 L60,35.7247592 L60,40.7770936 Z" id="Shape"></path>
                        <path d="M13.6212975,29.5872507 C14.0859607,30.054709 14.7171075,30.3157895 15.3780723,30.3157895 C16.039037,30.3157895 16.6701838,30.054709 17.134847,29.5872507 L39.1578947,7.54708934 L61.1809424,29.5872507 C61.6480905,30.054709 62.2792373,30.3157895 62.9377172,30.3157895 C63.5961971,30.3157895 64.2298288,30.054709 64.694492,29.5872507 L67.4824711,26.7974198 C67.9496192,26.3299615 68.2105263,25.700882 68.2105263,25.0394783 C68.2105263,24.3780745 67.9496192,23.7465085 67.4824711,23.2815367 L44.9425788,0.729160349 C43.9710103,-0.24305345 42.4005978,-0.24305345 41.4290293,0.729160349 L39.1578947,3.00180335 L36.8867602,0.729160349 C35.9151917,-0.24305345 34.3447792,-0.24305345 33.3732107,0.729160349 L10.8333183,23.2815367 C10.3661703,23.7465085 10.1052632,24.3780745 10.1052632,25.0394783 C10.1052632,25.700882 10.3661703,26.332448 10.8333183,26.7974198 L13.6212975,29.5872507 Z M62.7637791,22.8563486 C64.1378901,22.8563486 65.248609,23.9678053 65.248609,25.3428289 C65.248609,26.7178525 64.1378901,27.8293092 62.7637791,27.8293092 C61.3896681,27.8293092 60.2789492,26.7178525 60.2789492,25.3428289 C60.2789492,23.9678053 61.3896681,22.8563486 62.7637791,22.8563486 Z M15.5520104,22.8563486 C16.9261213,22.8563486 18.0368403,23.9678053 18.0368403,25.3428289 C18.0368403,26.7178525 16.9261213,27.8293092 15.5520104,27.8293092 C14.1778994,27.8293092 13.0671804,26.7178525 13.0671804,25.3428289 C13.0671804,23.9678053 14.1778994,22.8563486 15.5520104,22.8563486 Z" id="Shape"></path>
                    </g>
                </g>
            </g>
            <g id="Blueprint" transform="translate(640.000000, 170.000000)">
                <g id="Top-Arrow">
                    <polyline id="Path-12" stroke="#FFFFFF" stroke-width="6" points="0.0200195312 0.162597656 319.920898 0.162597656 319.920898 91.3686523"></polyline>
                    <polygon id="Shape" fill="#FFFFFF" fill-rule="nonzero" transform="translate(319.937515, 82.195018) scale(-1, 1) translate(-319.937515, -82.195018) " points="319.9375 99.3900367 321.875 97.7025367 342.87503 79.7025367 339.00003 75.1713367 322.93753 88.9525367 322.93753 65 316.9375 65 316.9375 88.9525367 300.875 75.1713367 297 79.7025367 318 97.7025367"></polygon>
                </g>
                <g id="Add-to-Cart" transform="translate(244.500000, 99.500000)">
                    <rect id="Rectangle" fill="#FFFFFF" x="0.5" y="0.5" width="150" height="150"></rect>
                    <path d="M100,91 L97.5,91 L97.5,88.5 C97.5,87.1175 96.3825,86 95,86 C93.6175,86 92.5,87.1175 92.5,88.5 L92.5,91 L90,91 C88.6175,91 87.5,92.1175 87.5,93.5 C87.5,94.8825 88.6175,96 90,96 L92.5,96 L92.5,98.5 C92.5,99.8825 93.6175,101 95,101 C96.3825,101 97.5,99.8825 97.5,98.5 L97.5,96 L100,96 C101.3825,96 102.5,94.8825 102.5,93.5 C102.5,92.1175 101.3825,91 100,91 Z" id="Shape" fill="#4D70B8" fill-rule="nonzero"></path>
                    <path d="M113.46875,70.5 C114.868531,70.5 116,69.3825 116,68 L116,63 C116,61.6175 114.868531,60.5 113.46875,60.5 L105.826906,60.5 C106.163562,61.1775 106.361,61.9175 106.361,62.695 C106.361,64.03 105.8345,65.285 104.877687,66.23 L102.037625,69.035 C101.080812,69.98 99.810125,70.5 98.4584375,70.5 C97.10675,70.5 95.8360625,69.98 94.87925,69.035 L86.2375625,60.5 L62.2311875,60.5 L53.5895,69.035 C52.6326875,69.98 51.362,70.5 50.0103125,70.5 C48.658625,70.5 47.3879375,69.98 46.431125,69.035 L43.5910625,66.23 C42.63425,65.285 42.10775,64.03 42.10775,62.695 C42.10775,61.9175 42.3051875,61.1775 42.6418437,60.5 L37.53125,60.5 C36.1314687,60.5 35,61.6175 35,63 L35,68 C35,69.3825 36.1314687,70.5 37.53125,70.5 L40.0625,70.5 L46.6589375,98.7375 C47.241125,101.2325 49.4914062,103 52.0859375,103 L78.2312187,103 C81.7344687,108.9725 88.2600312,113 95.75,113 C106.933062,113 116,104.045 116,93 C116,86.0775 112.438531,79.9825 107.02925,76.39 L108.40625,70.5 L113.46875,70.5 Z M55.25,88 L50.1875,88 L50.1875,83 L55.25,83 L55.25,88 Z M55.25,78 L50.1875,78 L50.1875,73 L55.25,73 L55.25,78 Z M65.375,98 L60.3125,98 L60.3125,93 L65.375,93 L65.375,98 Z M65.375,88 L60.3125,88 L60.3125,83 L65.375,83 L65.375,88 Z M65.375,78 L60.3125,78 L60.3125,73 L65.375,73 L65.375,78 Z M75.5,98 L70.4375,98 L70.4375,93 L75.5,93 L75.5,98 Z M75.5,88 L70.4375,88 L70.4375,83 L75.5,83 L75.5,88 Z M75.5,78 L70.4375,78 L70.4375,73 L75.5,73 L75.5,78 Z M80.5625,78 L80.5625,73 L85.625,73 L85.625,75.6975 C84.4682188,76.36 83.3848438,77.13 82.3875312,78 L80.5625,78 Z M108.40625,93 C108.40625,99.8925 102.728656,105.5 95.75,105.5 C88.7713437,105.5 83.09375,99.8925 83.09375,93 C83.09375,86.1075 88.7713437,80.5 95.75,80.5 C102.728656,80.5 108.40625,86.11 108.40625,93 Z" id="Shape" fill="#4D70B8" fill-rule="nonzero"></path>
                    <path d="M47.5399205,67.2790502 C48.010242,67.7416392 48.6431748,68 49.3086298,68 C49.9740848,68 50.6095193,67.7416392 51.0773392,67.2790502 L73.25,45.4684738 L95.4226608,67.2790502 C95.8929824,67.7416392 96.5259152,68 97.1913702,68 C97.8568252,68 98.4922597,67.7416392 98.9600795,67.2790502 L101.766999,64.5182801 C102.23732,64.0556911 102.5,63.4331645 102.5,62.7786504 C102.5,62.1241362 102.23732,61.499149 101.766999,61.0390207 L79.0739822,38.7215649 C78.0958134,37.7594784 76.5147323,37.7594784 75.5365635,38.7215649 L73.25,40.9705346 L70.9634365,38.7215649 C69.9852677,37.7594784 68.4041866,37.7594784 67.4260178,38.7215649 L44.7330012,61.0390207 C44.2626796,61.5016096 44,62.1265968 44,62.7786504 C44,63.4307039 44.2626796,64.0581517 44.7330012,64.5182801 L47.5399205,67.2790502 Z M97.0162504,60.6182616 C98.3996964,60.6182616 99.517961,61.7181406 99.517961,63.0788411 C99.517961,64.4395415 98.3996964,65.5394205 97.0162504,65.5394205 C95.6328045,65.5394205 94.5145399,64.4395415 94.5145399,63.0788411 C94.5145399,61.7181406 95.6328045,60.6182616 97.0162504,60.6182616 Z M49.4837496,60.6182616 C50.8671955,60.6182616 51.9854601,61.7181406 51.9854601,63.0788411 C51.9854601,64.4395415 50.8671955,65.5394205 49.4837496,65.5394205 C48.1003036,65.5394205 46.982039,64.4395415 46.982039,63.0788411 C46.982039,61.7181406 48.1003036,60.6182616 49.4837496,60.6182616 Z" id="Shape" fill="#4D70B8" fill-rule="nonzero"></path>
                </g>
                <g id="State" transform="translate(55.000000, 380.000000)">
                    <g id="Item-list" transform="translate(65.000000, 0.000000)">
                        <path d="M40.010577,150 L380,150 C391.045695,150 400,141.045695 400,130 L400,130 L400,20 C400,8.954305 391.045695,2.74025825e-14 380,0 L20,0 L20,-7.10542736e-15 C8.954305,-5.0763661e-15 -1.3527075e-15,8.954305 0,20 L0,20 L0,130 C1.3527075e-15,141.045695 8.954305,150 20,150 L20.0843821,150 L20.0843821,169.967766 L40.010577,150 Z" id="Speech-bubble" fill="#FFFFFF"></path>
                        <path d="M49.2884667,92.1476686 L95.8262874,92.1476686 C96.4421664,92.1403165 97.0145719,92.4511315 97.3247463,92.9613287 C97.6349206,93.4715258 97.6349206,94.1022447 97.3247463,94.6124418 C97.0145719,95.122639 96.4421664,95.433454 95.8262874,95.4261019 L49.2884667,95.4261019 C48.6725877,95.433454 48.1001822,95.122639 47.7900078,94.6124418 C47.4798335,94.1022447 47.4798335,93.4715258 47.7900078,92.9613287 C48.1001822,92.4511315 48.6725877,92.1403165 49.2884667,92.1476686 Z M49.2914388,98.2952507 L49.2914388,98.2952507 L95.8233153,98.2952507 C96.4398617,98.2867852 97.0133898,98.5973456 97.3242396,99.107988 C97.6350895,99.6186305 97.6350895,100.250222 97.3242396,100.760864 C97.0133898,101.271507 96.4398617,101.582067 95.8233153,101.573602 L49.2914388,101.573602 C48.6748924,101.582067 48.1013643,101.271507 47.7905145,100.760864 C47.4796646,100.250222 47.4796646,99.6186305 47.7905145,99.107988 C48.1013643,98.5973456 48.6748924,98.2867852 49.2914388,98.2952507 Z M73.4367715,37.1280223 C100.648634,36.3762023 114.257113,36.0002507 114.262208,36.0001675 C114.812267,35.9924626 115.33222,36.2509993 115.658423,36.6944091 C115.984627,37.137819 116.076966,37.7115738 115.906378,38.2350974 L100.006563,87.0146001 C99.9333947,87.4799858 99.6712346,87.8943697 99.2822213,88.1595325 C98.9183186,88.418909 98.4672287,88.5248955 98.0260423,88.4546798 L51.2812037,88.4546798 C48.9966299,88.4546798 47.4487543,89.4221826 46.275832,91.0238255 C45.1028245,92.6255537 44.4294426,94.9151626 44.408735,97.217055 C44.3881125,99.5190328 45.0201643,101.795676 46.1743389,103.384779 C47.3285135,104.973797 48.8858482,105.948636 51.2812037,105.948636 L96.9895519,105.948636 L112.66627,57.8453702 C112.846983,57.2558214 113.33146,56.8097816 113.933445,56.6787321 C114.535429,56.5476827 115.161207,56.7520244 115.570196,57.2131975 C115.979186,57.6743706 116.107718,58.320583 115.906378,58.9033962 L100.028634,107.623725 C100.036986,108.085637 99.8578401,108.531193 99.5321536,108.858526 C99.206467,109.18586 98.7620873,109.366983 98.3006104,109.360487 L51.2812037,109.360487 C47.8652082,109.360487 45.1105792,107.721993 43.4175798,105.391183 C41.7246654,103.060458 40.9744179,100.110948 41.0006646,97.1864314 C41.0198383,95.0400457 41.4577668,92.887177 42.3603818,90.976909 L55.0768395,58.0882183 C56.3310585,53.6910194 58.3264921,48.683676 61.2616951,44.6093306 C64.2141972,40.5108872 68.2741751,37.2575288 73.4367715,37.1280223 Z" id="Book" fill="#4D70B8"></path>
                        <path d="M229.266667,44.7333333 C213.666667,29.1333333 188.333333,29.1333333 172.733333,44.7333333 C157.133333,60.3333333 157.133333,85.6666667 172.733333,101.266667 C188.333333,116.866667 213.666667,116.866667 229.266667,101.266667 C244.866667,85.6666667 244.866667,60.3333333 229.266667,44.7333333 Z M210.333333,82.3333333 C206.733333,85.9333333 201.4,87 196.866667,85.5333333 L189.8,106.333333 C184.866667,104.6 180.066667,101.8 176.2,97.9333333 C172.2,93.9333333 169.4,89.2666667 167.8,84.3333333 L188.733333,77.2666667 C187.266667,72.7333333 188.2,67.4 191.933333,63.8 C195.533333,60.2 200.866667,59.1333333 205.4,60.6 L212.2,39.6666667 C217.133333,41.4 221.933333,44.2 225.8,48.0666667 C229.8,52.0666667 232.6,56.7333333 234.2,61.6666667 L213.266667,68.7333333 C215,73.4 213.933333,78.6 210.333333,82.3333333 Z M193.666667,65.6666667 C189.533333,69.8 189.533333,76.3333333 193.666667,80.4666667 C197.8,84.6 204.333333,84.6 208.466667,80.4666667 C212.6,76.3333333 212.6,69.8 208.466667,65.6666667 C204.333333,61.5333333 197.666667,61.5333333 193.666667,65.6666667 Z M205.266667,77.2666667 C202.866667,79.6666667 199.133333,79.6666667 196.733333,77.2666667 C194.333333,74.8666667 194.333333,71.1333333 196.733333,68.7333333 C199.133333,66.3333333 202.866667,66.3333333 205.266667,68.7333333 C207.533333,71.1333333 207.533333,74.8666667 205.266667,77.2666667 Z" id="Game" fill="#4D70B8" fill-rule="nonzero"></path>
                    </g>
                    <text id="$55" font-family="HelveticaNeue-Bold, Helvetica Neue" font-size="36" font-weight="bold" fill="#FFFFFF">
                        <tspan x="121.476" y="229">$55</tspan>
                    </text>
                    <text id="0.7kg" font-family="HelveticaNeue-Bold, Helvetica Neue" font-size="36" font-weight="bold" fill="#FFFFFF">
                        <tspan x="205.15" y="229">0.7kg</tspan>
                    </text>
                    <g id="Basket" transform="translate(0.000000, 170.000000)">
                        <rect id="Rectangle-4" fill="#D8D8D8" opacity="0" x="0" y="0" width="90" height="90"></rect>
                        <path d="M82.5,35.5789474 L74.9525,35.5789474 C75.285,35.5789474 75.48,36.7712983 75.48,37.5544101 C75.48,38.9008572 74.96,40.0477371 74.015,41.0026283 L71.21,43.7788861 C70.265,44.7337773 69.01,45.2263799 67.675,45.2263799 C66.34,45.2263799 65.085,44.9308183 64.14,43.9759271 L55.605,35.5789474 L31.895,35.5789474 L23.36,43.9607701 C22.415,44.9181875 21.16,45.3198481 19.825,45.3198481 C18.49,45.3198481 17.235,44.7363034 16.29,43.7814122 L13.485,40.9142125 C12.54,39.9593213 12.02,38.9210666 12.02,37.5720933 C12.02,36.7864553 12.215,35.5814735 12.5475,35.5814735 L7.5,35.5814735 C6.1175,35.5814735 5,36.2256462 5,37.6226166 L5,42.674951 C5,44.0719215 6.1175,45.6861423 7.5,45.6861423 L10,45.6861423 L16.515,74.2192007 C17.09,76.7403156 19.3125,78.5263158 21.875,78.5263158 L65.625,78.5263158 C68.185,78.5263158 70.4075,76.7403156 70.985,74.2192007 L77.5,45.6836161 L82.5,45.6836161 C83.8825,45.6836161 85,44.0668691 85,42.6724248 L85,37.6200905 C85,36.22312 83.8825,35.5789474 82.5,35.5789474 Z M25,62.8817624 L20,62.8817624 L20,57.829428 L25,57.829428 L25,62.8817624 Z M25,52.7770936 L20,52.7770936 L20,47.7247592 L25,47.7247592 L25,52.7770936 Z M35,72.9864311 L30,72.9864311 L30,67.9340968 L35,67.9340968 L35,72.9864311 Z M35,62.8817624 L30,62.8817624 L30,57.829428 L35,57.829428 L35,62.8817624 Z M35,52.7770936 L30,52.7770936 L30,47.7247592 L35,47.7247592 L35,52.7770936 Z M45,72.9864311 L40,72.9864311 L40,67.9340968 L45,67.9340968 L45,72.9864311 Z M45,62.8817624 L40,62.8817624 L40,57.829428 L45,57.829428 L45,62.8817624 Z M45,52.7770936 L40,52.7770936 L40,47.7247592 L45,47.7247592 L45,52.7770936 Z M55,72.9864311 L50,72.9864311 L50,67.9340968 L55,67.9340968 L55,72.9864311 Z M55,62.8817624 L50,62.8817624 L50,57.829428 L55,57.829428 L55,62.8817624 Z M55,52.7770936 L50,52.7770936 L50,47.7247592 L55,47.7247592 L55,52.7770936 Z M65,62.8817624 L60,62.8817624 L60,57.829428 L65,57.829428 L65,62.8817624 Z M65,52.7770936 L60,52.7770936 L60,47.7247592 L65,47.7247592 L65,52.7770936 Z" id="Shape" fill="#FFFFFF" fill-rule="nonzero"></path>
                        <path d="M18.6212975,41.5872507 C19.0859607,42.054709 19.7171075,42.3157895 20.3780723,42.3157895 C21.039037,42.3157895 21.6701838,42.054709 22.134847,41.5872507 L44.1578947,19.5470893 L66.1809424,41.5872507 C66.6480905,42.054709 67.2792373,42.3157895 67.9377172,42.3157895 C68.5961971,42.3157895 69.2298288,42.054709 69.694492,41.5872507 L72.4824711,38.7974198 C72.9496192,38.3299615 73.2105263,37.700882 73.2105263,37.0394783 C73.2105263,36.3780745 72.9496192,35.7465085 72.4824711,35.2815367 L49.9425788,12.7291603 C48.9710103,11.7569466 47.4005978,11.7569466 46.4290293,12.7291603 L44.1578947,15.0018033 L41.8867602,12.7291603 C40.9151917,11.7569466 39.3447792,11.7569466 38.3732107,12.7291603 L15.8333183,35.2815367 C15.3661703,35.7465085 15.1052632,36.3780745 15.1052632,37.0394783 C15.1052632,37.700882 15.3661703,38.332448 15.8333183,38.7974198 L18.6212975,41.5872507 Z M67.7637791,34.8563486 C69.1378901,34.8563486 70.248609,35.9678053 70.248609,37.3428289 C70.248609,38.7178525 69.1378901,39.8293092 67.7637791,39.8293092 C66.3896681,39.8293092 65.2789492,38.7178525 65.2789492,37.3428289 C65.2789492,35.9678053 66.3896681,34.8563486 67.7637791,34.8563486 Z M20.5520104,34.8563486 C21.9261213,34.8563486 23.0368403,35.9678053 23.0368403,37.3428289 C23.0368403,38.7178525 21.9261213,39.8293092 20.5520104,39.8293092 C19.1778994,39.8293092 18.0671804,38.7178525 18.0671804,37.3428289 C18.0671804,35.9678053 19.1778994,34.8563486 20.5520104,34.8563486 Z" id="Shape" fill="#FFFFFF" fill-rule="nonzero"></path>
                    </g>
                </g>
            </g>
            <g id="Weight" transform="translate(1605.000000, 704.000000)" font-size="36" font-family="HelveticaNeue-Bold, Helvetica Neue" fill="#FFFFFF" font-weight="bold">
                <text id="$5">
                    <tspan x="0.484" y="35">$5</tspan>
                </text>
            </g>
            <g id="Earth" transform="translate(1515.000000, 429.000000)" fill-rule="nonzero">
                <path d="M186.321937,117.853933 C185.011396,116.54073 183.438746,116.015449 181.866097,116.015449 C180.293447,116.015449 178.720798,116.54073 177.410256,117.853933 L163.25641,132.036517 C161.945869,133.349719 160.373219,133.875 158.80057,133.875 C157.22792,133.875 155.655271,133.349719 154.344729,132.036517 L143.860399,121.530899 C142.549858,120.217697 140.977208,119.692416 139.404558,119.692416 C137.831909,119.692416 136.259259,120.217697 134.948718,121.530899 L115.552707,141.491573 C114.242165,142.804775 113.717949,144.380618 113.717949,145.956461 L113.717949,161.977528 C113.717949,163.553371 113.193732,165.129213 111.883191,166.442416 L100.612536,177.735955 C99.3019943,179.049157 97.7293447,179.574438 96.1566952,179.574438 C94.5840456,179.574438 93.011396,179.049157 91.7008547,177.735955 L85.1481481,171.169944 C83.8376068,169.856742 83.0512821,167.755618 83.0512821,165.917135 L83.0512821,150.683989 C83.0512821,143.592697 77.2849003,138.077247 70.4700855,138.077247 C60.2478632,138.077247 51.8603989,129.672753 51.8603989,119.429775 C51.8603989,109.186798 60.2478632,100.782303 70.4700855,100.782303 C73.3532764,100.782303 76.2364672,101.832865 78.5954416,104.196629 C80.4301994,106.035112 81.7407407,107.085674 85.1481481,107.085674 L103.495726,107.085674 C106.903134,107.085674 109.786325,104.196629 109.786325,100.782303 C109.786325,97.3679775 106.903134,94.4789326 103.495726,94.4789326 L93.5356125,94.4789326 C91.962963,94.4789326 90.3903134,93.9536517 89.0797721,92.6404494 L83.3133903,86.8623596 C82.002849,85.5491573 80.4301994,85.0238764 78.8575499,85.0238764 C77.2849003,85.0238764 75.7122507,85.5491573 74.4017094,86.8623596 L66.8005698,94.4789326 C65.4900285,95.7921348 63.9173789,96.3174157 62.3447293,96.3174157 C60.7720798,96.3174157 59.1994302,95.7921348 57.8888889,94.4789326 C56.5783476,93.1657303 56.0541311,91.5898876 56.0541311,90.0140449 C56.0541311,88.4382022 56.5783476,86.8623596 57.8888889,85.5491573 C59.1994302,84.2359551 60.7720798,83.7106742 62.3447293,83.7106742 L66.014245,83.7106742 L66.014245,80.0337079 C66.014245,78.4578652 66.5384615,76.8820225 67.8490028,75.5688202 L77.5470085,65.8511236 C78.8575499,64.5379213 79.3817664,62.9620787 79.3817664,61.386236 L79.3817664,50.880618 C79.3817664,49.3047753 79.9059829,47.7289326 81.2165242,46.4157303 L96.1566952,31.4452247 C97.4672365,30.1320225 99.039886,29.6067416 100.612536,29.6067416 C102.185185,29.6067416 103.757835,30.1320225 105.068376,31.4452247 L109,35.3848315 C110.310541,36.6980337 111.883191,37.2233146 113.45584,37.2233146 C115.02849,37.2233146 116.60114,36.6980337 117.911681,35.3848315 L133.376068,19.8890449 C126.037037,17.7879213 118.173789,17 110.310541,17 C58.6752137,17 17,59.0224719 17,110.5 C17,162.240169 58.9373219,204 110.310541,204 C154.344729,204 191.301994,173.533708 201,132.299157 L186.321937,117.853933 Z M53.4330484,61.9115169 C54.7435897,60.5983146 56.3162393,60.0730337 57.8888889,60.0730337 C59.4615385,60.0730337 61.034188,60.5983146 62.3447293,61.9115169 C63.6552707,63.2247191 64.1794872,64.8005618 64.1794872,66.3764045 C64.1794872,67.9522472 63.6552707,69.5280899 62.3447293,70.8412921 C61.034188,72.1544944 59.4615385,72.6797753 57.8888889,72.6797753 C56.3162393,72.6797753 54.7435897,72.1544944 53.4330484,70.8412921 C52.1225071,69.5280899 51.5982906,67.9522472 51.5982906,66.3764045 C51.5982906,64.8005618 52.1225071,63.2247191 53.4330484,61.9115169 Z M137.307692,160.139045 C137.307692,161.714888 136.783476,163.29073 135.472934,164.603933 C134.162393,165.917135 132.589744,166.442416 131.017094,166.442416 C129.444444,166.442416 127.871795,165.917135 126.561254,164.603933 C125.250712,163.29073 124.726496,161.714888 124.726496,160.139045 L124.726496,154.623596 C124.726496,153.047753 125.250712,151.47191 126.561254,150.158708 C127.871795,148.845506 129.444444,148.320225 131.017094,148.320225 C132.589744,148.320225 134.162393,148.845506 135.472934,150.158708 C136.783476,151.47191 137.307692,153.047753 137.307692,154.623596 L137.307692,160.139045 Z" id="Shape" fill="#4ABAEB"></path>
                <path d="M111,222 C49.858156,222 0,172.141844 0,111 C0,49.858156 49.858156,0 111,0 C172.141844,0 222,49.858156 222,111 C222,172.141844 172.141844,222 111,222 Z M111,7.87234043 C54.0567376,7.87234043 7.87234043,54.0567376 7.87234043,111 C7.87234043,167.943262 54.0567376,214.12766 111,214.12766 C167.943262,214.12766 214.12766,167.943262 214.12766,111 C214.12766,54.0567376 167.943262,7.87234043 111,7.87234043 Z" id="Shape" fill="#FFFFFF"></path>
            </g>
            <g id="noun_361717" transform="translate(200.000000, 449.000000)">
                <path d="M154.322222,119.911111 L156.644444,149.044444 L162.977778,153.9 L169.311111,149.044444 L171.633333,108.722222 C162.766667,110.833333 154.322222,119.911111 154.322222,119.911111 Z" id="Shape" fill="#000000" fill-rule="nonzero"></path>
                <polygon id="Shape" fill="#000000" fill-rule="nonzero" points="27.8666667 157.066667 33.9888889 161.077778 40.1111111 159.388889 42.2222222 132.366667 25.7555556 126.244444"></polygon>
                <path d="M70.3,142.922222 L66.0777778,141.655556 L66.0777778,159.6 L55.7333333,161.288889 C54.6777778,161.5 54.4666667,162.977778 55.5222222,163.4 L61.2222222,165.511111 C61.4333333,165.511111 61.6444444,165.511111 61.8555556,165.511111 L70.0888889,162.555556 L70.0888889,142.922222 L70.3,142.922222 Z" id="Shape" fill="#000000" fill-rule="nonzero"></path>
                <path d="M75.3666667,163.188889 L66.9222222,167.2 C65.8666667,167.411111 65.6555556,168.888889 66.7111111,169.311111 L71.5666667,171.633333 C71.7777778,171.633333 71.9888889,171.633333 72.2,171.633333 L79.5888889,166.144444 L79.5888889,146.511111 L75.3666667,145.244444 L75.3666667,163.188889 L75.3666667,163.188889 Z" id="Shape" fill="#000000" fill-rule="nonzero"></path>
                <polygon id="Rectangle-9" fill="#FFFFFF" points="6 86 96 102 85 135 4 109"></polygon>
                <path d="M173.744444,60.1666667 C164.033333,58.0555556 148.411111,55.7333333 128.777778,55.7333333 C150.1,48.9777778 151.577778,26.3888889 143.555556,21.7444444 C134.688889,16.4666667 135.955556,17.7333333 131.522222,6.96666667 C128.144444,-1.26666667 113.366667,-0.211111111 106.611111,0.633333333 C104.5,0.844444444 102.6,1.9 101.122222,3.37777778 L44.1222222,64.1777778 C39.2666667,64.8111111 35.4666667,65.4444444 32.9333333,65.6555556 C30.6111111,66.0777778 28.9222222,67.5555556 28.2888889,69.6666667 C26.8111111,74.7333333 23.2222222,83.3888889 15.6222222,84.2333333 L8.44444444,83.8111111 C4.43333333,83.6 0.844444444,86.9777778 0.844444444,90.9888889 L0.844444444,112.944444 L79.5888889,141.866667 L91.6222222,139.122222 C91.6222222,139.122222 99.0111111,138.911111 99.6444444,143.133333 L102.6,184.722222 L108.933333,189.366667 L117.377778,185.355556 L120.333333,143.133333 C120.544444,139.544444 123.711111,136.166667 126.455556,133.844444 C127.933333,132.577778 129.622222,131.311111 131.1,130.255556 C138.277778,128.566667 144.611111,124.766667 149.677778,119.488889 C154.533333,114.211111 162.344444,107.666667 172.477778,103.233333 C180.288889,99.8555556 185.355556,92.2555556 185.355556,83.6 L185.355556,73.8888889 C184.933333,67.1333333 180.288889,61.4333333 173.744444,60.1666667 Z M21.1111111,103.233333 L21.1111111,107.244444 L12.2444444,103.866667 L12.2444444,101.544444 C12.2444444,98.1666667 16.2555556,98.1666667 19.6333333,98.1666667 L26.1777778,100.488889 L22.8,101.333333 C21.7444444,101.544444 21.1111111,102.388889 21.1111111,103.233333 Z M33.3555556,109.566667 L33.3555556,111.888889 L25.1222222,108.722222 C25.1222222,108.722222 25.1222222,108.722222 25.1222222,108.511111 L25.1222222,104.711111 L33.7777778,103.022222 L42.0111111,105.977778 L35.0444444,107.666667 C34.2,107.877778 33.3555556,108.722222 33.3555556,109.566667 Z M46.2333333,114.211111 L46.2333333,116.744444 L37.5777778,113.577778 L37.5777778,111.466667 L49.1888889,108.722222 L55.3111111,110.833333 L47.9222222,112.311111 C46.8666667,112.311111 46.2333333,113.155556 46.2333333,114.211111 Z M50.2444444,115.9 L61.0111111,113.788889 C61.4333333,113.788889 61.8555556,113.577778 62.0666667,113.155556 L69.8777778,115.9 L61.4333333,117.588889 C60.3777778,117.8 59.7444444,118.644444 59.7444444,119.488889 L59.7444444,121.811111 L50.2444444,118.222222 L50.2444444,115.9 Z M73.4666667,123.288889 L73.4666667,126.877778 L63.9666667,123.288889 L63.9666667,121.177778 L77.4777778,118.644444 L80.2222222,119.488889 C77.6888889,120.755556 73.4666667,120.544444 73.4666667,123.288889 Z M155.377778,72.4111111 C150.522222,73.2555556 146.933333,75.1555556 144.822222,76.8444444 C142.5,78.5333333 139.966667,79.8 137.222222,80.2222222 L132.577778,80.6444444 L130.466667,76 L130.466667,76 L130.044444,75.1555556 L130.044444,75.1555556 L108.722222,23.6444444 C108.3,22.3777778 107.033333,21.5333333 105.555556,21.5333333 C105.344444,21.5333333 104.922222,21.5333333 104.711111,21.7444444 C102.811111,22.1666667 101.966667,24.2777778 102.6,25.9666667 L121.388889,75.7888889 L123.5,81.9111111 L103.655556,84.0222222 L57.2111111,71.3555556 C78.9555556,67.5555556 97.5333333,65.4444444 112.733333,64.3888889 L98.8,27.4444444 C98.8,27.4444444 98.8,27.4444444 98.8,27.4444444 C98.1666667,25.3333333 98.1666667,23.2222222 99.2222222,21.5333333 C100.066667,19.8444444 101.755556,18.3666667 103.655556,17.9444444 C104.288889,17.7333333 104.922222,17.7333333 105.555556,17.7333333 C108.511111,17.7333333 111.255556,19.6333333 112.311111,22.3777778 L129.622222,63.3333333 C141.233333,62.9111111 150.1,63.1222222 155.377778,63.5444444 C168.888889,65.0222222 164.033333,70.9333333 155.377778,72.4111111 Z" id="Shape" fill="#000000" fill-rule="nonzero"></path>
            </g>
        </g>
    </g>
</svg>