<?xml version="1.0" encoding="UTF-8"?>
<svg width="1920px" height="1080px" viewBox="0 0 1920 1080" version="1.1" xmlns="http://www.w3.org/2000/svg" xmlns:xlink="http://www.w3.org/1999/xlink">
    <!-- Generator: Sketch 46.2 (44496) - http://www.bohemiancoding.com/sketch -->
    <title>lightningStrikeRobotPaysAttention</title>
    <desc>Created with Sketch.</desc>
    <defs></defs>
    <g id="Actual-Slides" stroke="none" stroke-width="1" fill="none" fill-rule="evenodd">
        <g id="lightningStrikeRobotPaysAttention" fill-rule="nonzero">
            <path d="M1122,320.246291 C1110.53592,323.570388 1101.43049,330.465827 1097.01764,339.146939 C1094.10774,338.075536 1091.01409,337.498626 1087.77782,337.498626 C1071.92283,337.498626 1059.0902,351.481809 1059.0902,368.734144 C1059.0902,379.750364 1064.30114,389.420463 1072.19984,395 L993.377463,395 C993.103203,395 992.828943,394.942309 992.554683,394.942309 C974.508363,394.695062 960,379.423449 960,360.574998 C960,341.866654 974.206677,326.702181 991.978736,326.125272 C996.833141,299.807219 1018.30771,280 1044.00589,280 C1065.12392,280 1083.36223,293.378801 1091.89172,312.74647 C1094.05563,312.334392 1096.27988,312.169561 1098.55624,312.169561 C1107.32708,312.169561 1115.44792,315.161248 1122,320.246291 Z" id="Shape" fill="#FFFFFF"></path>
            <path d="M1196,375.900763 C1196,386.425954 1184.18785,395 1169.58673,395 C1169.06994,395 1168.57777,395 1168.0856,394.917557 C1167.83951,395 1167.53327,395 1167.23523,395 L1098.8779,395 C1098.36111,395 1097.83613,395 1097.31935,394.917557 C1096.80257,394.945038 1096.25024,395 1095.67877,395 L1090.62033,395 C1090.15277,395 1089.71801,394.94229 1089.28053,394.890076 C1075.66374,393.873282 1065,382.578626 1065,368.783206 C1065,354.355725 1076.75746,342.621374 1091.24922,342.621374 C1092.78042,342.621374 1094.28428,342.758779 1095.73346,343.006107 C1097.67754,343.335878 1099.53686,343.885496 1101.31415,344.6 C1101.71883,343.665649 1102.21647,342.731298 1102.73598,341.824427 C1107.521,333.442748 1116.268,327.039695 1126.8798,324.374046 C1130.37696,323.467176 1134.0956,323 1137.92361,323 C1159.60655,323 1177.1908,338.114504 1177.1908,356.801527 C1177.1908,357.076336 1177.1908,357.351145 1177.15798,357.625954 C1178.17241,357.845802 1179.18136,358.09313 1180.14383,358.422901 C1189.4623,361.335878 1196,368.093435 1196,375.900763 Z" id="Shape" fill="#FFFFFF"></path>
            <path d="M1098,395.06 L1095,395.06 C1095.5359,395.06 1096.05128,395.018 1096.53846,395 C1097.02308,395.06 1097.51538,395.06 1098,395.06 Z" id="Shape" fill="#FFFFFF"></path>
            <polygon id="Shape" fill="#F8E71C" points="1065.33364 459.5 1068.78655 452.606061 1042 452.606061 1058.8163 414 1095.81488 414 1079.70763 440.665758 1105 440.665758 1042 505"></polygon>
            <g id="Group" transform="translate(724.000000, 511.000000)">
                <path d="M142.5,40 L24,151.645223 L24,290 L104.031906,290 L104.031906,200.763854 C104.031906,179.570459 121.256274,162.38375 142.5,162.38375 C163.743726,162.38375 180.963019,179.575524 180.963019,200.763854 L180.963019,290 L261,290 L261,151.645223 L142.5,40 Z" id="Shape" fill="#FFFFFF"></path>
                <polygon id="Shape" fill="#FF5858" points="194 39 286.867797 127 449 127 353.894915 39"></polygon>
                <polygon id="Shape" fill="#FF5858" points="449 132.593598 449 149.595245 293.26794 149.595245 285.203898 149.595245 270.971142 149.595245 270.778052 149.595245 270.778052 149.422999 142.60703 28.780202 0 163 0 134.2046 142.60703 0 283.491495 132.593598"></polygon>
                <path d="M271,156 L271,272 L437,272 L437,156 L271,156 Z M405.505465,240.187207 L304.21733,240.187207 L304.21733,184.626977 L405.505465,184.626977 L405.505465,240.187207 Z" id="Shape" fill="#FFFFFF"></path>
            </g>
            <g id="noun_835610" transform="translate(189.000000, 632.000000)" fill="#E5A1EE">
                <path d="M283.607698,127 L273.743906,143.3441 C277.239611,145.969886 279.328285,150.420717 279.328285,155.253628 C279.328285,163.094406 273.900648,169.475962 267.233658,169.475962 C260.552088,169.475962 255.11716,163.09847 255.11716,155.253628 C255.11716,150.420717 257.205835,145.969886 260.701539,143.340035 L250.834102,127 C242.453889,133.292133 237.449091,143.852185 237.449091,155.253628 C237.449091,170.451486 246.270367,183.348733 258.386865,187.64917 L258.386865,216.508435 C258.386865,221.760009 254.785451,226.031993 250.360232,226.031993 L200.735082,226.031993 C191.829966,207.797815 174.479025,195.351748 154.642087,195.351748 L146.910712,195.351748 C127.07742,195.351748 109.722833,207.797815 100.817718,226.031993 L46.6324775,226.031993 C42.2072584,226.031993 38.6058445,221.760009 38.6058445,216.508435 L38.6058445,187.64917 C50.7223422,183.348733 59.5436191,170.451486 59.5436191,155.253628 C59.5436191,143.852185 54.5388203,133.292133 46.1586072,127 L36.2948158,143.3441 C39.7905201,145.965822 41.8791944,150.420717 41.8791944,155.253628 C41.8791944,163.094406 36.4442672,169.475962 29.7626967,169.475962 C23.0957068,169.475962 17.6680699,163.09847 17.6680699,155.253628 C17.6680699,150.420717 19.7567442,145.969886 23.2524485,143.3441 L13.3886571,127 C5.00479884,133.292133 0,143.85625 0,155.253628 C0,170.455551 8.82127691,183.356862 20.9377746,187.653234 L20.9377746,216.508435 C20.9377746,232.620848 32.4637571,245.729458 46.6324775,245.729458 L95.0401458,245.729458 C94.7047915,248.383698 94.4751467,251.070455 94.4751467,253.822247 L94.4751467,296.306337 L142.07359,296.306337 L142.07359,313 C144.818393,312.000087 147.738162,311.443226 150.778222,311.443226 C153.818282,311.443226 156.738052,312.000087 159.482854,313 L159.482854,296.306337 L207.081298,296.306337 L207.081298,253.822247 C207.081298,251.070455 206.848008,248.383698 206.516299,245.729458 L250.367523,245.729458 C264.532598,245.729458 276.062225,232.620848 276.062225,216.508435 L276.062225,187.653234 C288.178723,183.356862 297,170.459615 297,155.253628 C296.996355,143.85625 291.991556,133.292133 283.607698,127 Z M164.771975,249.757561 L138.909595,277.592526 C137.49892,279.108654 135.679987,279.864685 133.8647,279.864685 C131.961928,279.864685 130.062802,279.03549 128.637546,277.389292 C125.852647,274.170061 125.932841,269.040428 128.819804,265.930944 L141.738236,252.025656 L133.05912,252.025656 C130.197673,252.025656 127.602322,250.151836 126.432227,247.241521 C125.258487,244.331206 125.728712,240.920935 127.631483,238.53903 L149.732063,210.834135 C152.400317,207.488899 156.993213,207.192177 159.989531,210.167526 C162.989494,213.138811 163.25559,218.264379 160.587336,221.605551 L149.243612,235.82382 L159.72708,235.82382 C162.690591,235.82382 165.3552,237.831774 166.463328,240.892483 C167.571455,243.957255 166.900746,247.461014 164.771975,249.757561 Z" id="Shape"></path>
                <path d="M99.2920061,139 L200.708,139 C202.493124,139 204,137.178348 204,135.020323 L204,119.979677 C204,117.821652 202.493124,116 200.708,116 L99.2920061,116 C97.5068823,116 96.0000065,117.821652 96.0000065,119.979677 L96.0000065,135.020323 C95.9963929,137.178348 97.5068823,139 99.2920061,139 Z" id="Shape"></path>
                <polygon id="Shape" points="155 0 151 0 147 0 147 15 155 15"></polygon>
                <polygon id="Shape" points="170 39 181 39 181 35 181 31 170 31"></polygon>
                <polygon id="Shape" points="130 31 119 31 119 35 119 39 130 39"></polygon>
                <rect id="Rectangle-path" transform="translate(170.000000, 15.500000) rotate(45.000000) translate(-170.000000, -15.500000) " x="166" y="8" width="8" height="15"></rect>
                <rect id="Rectangle-path" transform="translate(132.500000, 15.000000) rotate(45.000000) translate(-132.500000, -15.000000) " x="127" y="11" width="11" height="8"></rect>
                <path d="M222.619688,74.1959184 L167.308579,74.1959184 L167.308579,58.8081633 L155.918459,58.8081633 L155.918459,46.7714286 C159.553374,44.7102041 162.073726,40.4938776 162.073726,35.5673469 C162.073726,28.6285714 157.119312,23 151.003594,23 C144.887877,23 139.933463,28.6244898 139.933463,35.5673469 C139.933463,40.4938776 142.453814,44.7142857 146.088729,46.7714286 L146.088729,58.8081633 L134.695014,58.8081633 L134.695014,74.1959184 L79.3803097,74.1959184 C74.2209596,74.1959184 70,78.9877551 70,84.844898 L70,178.35102 C70,184.208163 74.2209596,189 79.3803097,189 L222.619688,189 C227.779038,189 231.999998,184.208163 231.999998,178.35102 L231.999998,84.8489796 C232.003593,78.9877551 227.782633,74.1959184 222.619688,74.1959184 Z M217.837851,132.918367 C217.837851,143.17551 210.488923,151.518367 201.453769,151.518367 L100.549824,151.518367 C91.5146697,151.518367 84.1657417,143.17551 84.1657417,132.918367 L84.1657417,118.865306 C84.1657417,108.608163 91.5146697,100.265306 100.549824,100.265306 L201.453769,100.265306 C210.488923,100.265306 217.837851,108.608163 217.837851,118.865306 L217.837851,132.918367 Z" id="Shape"></path>
                <path d="M131,344 C131,356.700442 140.400374,367 152,367 C163.596056,367 173,356.704352 173,344 C173,331.295648 163.599626,321 152,321 C140.400374,321 131,331.299558 131,344 Z M158.16219,344 C158.16219,347.726454 155.402414,350.749065 152,350.749065 C148.594016,350.749065 145.83781,347.726454 145.83781,344 C145.83781,340.273546 148.597586,337.250935 152,337.250935 C155.402414,337.250935 158.16219,340.273546 158.16219,344 Z" id="Shape"></path>
            </g>
            <g id="noun_1142898" transform="translate(337.045202, 599.045202) rotate(-45.000000) translate(-337.045202, -599.045202) translate(270.045202, 533.045202)" fill="#3AB1EB">
                <path d="M0.00093628223,5.79758805 C0.160532973,8.67594991 2.95979766,11.1514016 5.87671269,10.9936455 C70.5499991,10.9936455 122.858386,62.6087502 122.858386,126.424943 C122.816606,129.328865 125.485743,132 128.428951,132 C131.372437,132 134.041295,129.328865 133.999516,126.424943 C133.999516,56.6676113 76.5711116,0.000188544965 5.87671269,0.000188544965 C2.54030625,-0.0272950973 -0.0548807805,2.95468009 0.00093628223,5.79758805 Z M0.00093628223,38.7779588 C0.160532973,41.6563207 2.95979766,44.1317723 5.87671269,43.9740162 C52.0907338,43.9740162 89.4349948,80.8232593 89.4349948,126.424943 C89.3932156,129.328865 92.0623519,132 95.0055599,132 C97.9490466,132 100.617904,129.328865 100.576125,126.424943 C100.576125,74.8821204 58.1118463,32.9805593 5.87671269,32.9805593 C2.3978112,33.008043 -0.0549643389,36.1274364 0.00093628223,38.7779588 Z" id="Shape"></path>
            </g>
        </g>
    </g>
</svg>