<?xml version="1.0" encoding="UTF-8"?>
<svg width="1920px" height="1080px" viewBox="0 0 1920 1080" version="1.1" xmlns="http://www.w3.org/2000/svg" xmlns:xlink="http://www.w3.org/1999/xlink">
    <!-- Generator: Sketch 46.2 (44496) - http://www.bohemiancoding.com/sketch -->
    <title>lightningStrike</title>
    <desc>Created with Sketch.</desc>
    <defs></defs>
    <g id="Page-1" stroke="none" stroke-width="1" fill="none" fill-rule="evenodd">
        <g id="lightningStrike" fill-rule="nonzero">
            <path d="M1122,320.246291 C1110.53592,323.570388 1101.43049,330.465827 1097.01764,339.146939 C1094.10774,338.075536 1091.01409,337.498626 1087.77782,337.498626 C1071.92283,337.498626 1059.0902,351.481809 1059.0902,368.734144 C1059.0902,379.750364 1064.30114,389.420463 1072.19984,395 L993.377463,395 C993.103203,395 992.828943,394.942309 992.554683,394.942309 C974.508363,394.695062 960,379.423449 960,360.574998 C960,341.866654 974.206677,326.702181 991.978736,326.125272 C996.833141,299.807219 1018.30771,280 1044.00589,280 C1065.12392,280 1083.36223,293.378801 1091.89172,312.74647 C1094.05563,312.334392 1096.27988,312.169561 1098.55624,312.169561 C1107.32708,312.169561 1115.44792,315.161248 1122,320.246291 Z" id="Shape" fill="#FFFFFF"></path>
            <path d="M1196,375.900763 C1196,386.425954 1184.18785,395 1169.58673,395 C1169.06994,395 1168.57777,395 1168.0856,394.917557 C1167.83951,395 1167.53327,395 1167.23523,395 L1098.8779,395 C1098.36111,395 1097.83613,395 1097.31935,394.917557 C1096.80257,394.945038 1096.25024,395 1095.67877,395 L1090.62033,395 C1090.15277,395 1089.71801,394.94229 1089.28053,394.890076 C1075.66374,393.873282 1065,382.578626 1065,368.783206 C1065,354.355725 1076.75746,342.621374 1091.24922,342.621374 C1092.78042,342.621374 1094.28428,342.758779 1095.73346,343.006107 C1097.67754,343.335878 1099.53686,343.885496 1101.31415,344.6 C1101.71883,343.665649 1102.21647,342.731298 1102.73598,341.824427 C1107.521,333.442748 1116.268,327.039695 1126.8798,324.374046 C1130.37696,323.467176 1134.0956,323 1137.92361,323 C1159.60655,323 1177.1908,338.114504 1177.1908,356.801527 C1177.1908,357.076336 1177.1908,357.351145 1177.15798,357.625954 C1178.17241,357.845802 1179.18136,358.09313 1180.14383,358.422901 C1189.4623,361.335878 1196,368.093435 1196,375.900763 Z" id="Shape" fill="#FFFFFF"></path>
            <path d="M1098,395.06 L1095,395.06 C1095.5359,395.06 1096.05128,395.018 1096.53846,395 C1097.02308,395.06 1097.51538,395.06 1098,395.06 Z" id="Shape" fill="#FFFFFF"></path>
            <polygon id="Shape" fill="#F8E71C" points="1065.33364 459.5 1068.78655 452.606061 1042 452.606061 1058.8163 414 1095.81488 414 1079.70763 440.665758 1105 440.665758 1042 505"></polygon>
            <g id="Group" transform="translate(724.000000, 511.000000)">
                <path d="M142.5,40 L24,151.645223 L24,290 L104.031906,290 L104.031906,200.763854 C104.031906,179.570459 121.256274,162.38375 142.5,162.38375 C163.743726,162.38375 180.963019,179.575524 180.963019,200.763854 L180.963019,290 L261,290 L261,151.645223 L142.5,40 Z" id="Shape" fill="#FFFFFF"></path>
                <polygon id="Shape" fill="#FF5858" points="194 39 286.867797 127 449 127 353.894915 39"></polygon>
                <polygon id="Shape" fill="#FF5858" points="449 132.593598 449 149.595245 293.26794 149.595245 285.203898 149.595245 270.971142 149.595245 270.778052 149.595245 270.778052 149.422999 142.60703 28.780202 0 163 0 134.2046 142.60703 0 283.491495 132.593598"></polygon>
                <path d="M271,156 L271,272 L437,272 L437,156 L271,156 Z M405.505465,240.187207 L304.21733,240.187207 L304.21733,184.626977 L405.505465,184.626977 L405.505465,240.187207 Z" id="Shape" fill="#FFFFFF"></path>
            </g>
        </g>
    </g>
</svg>