<?xml version="1.0" encoding="UTF-8"?>
<svg width="1920px" height="1080px" viewBox="0 0 1920 1080" version="1.1" xmlns="http://www.w3.org/2000/svg" xmlns:xlink="http://www.w3.org/1999/xlink">
    <!-- Generator: Sketch 46.2 (44496) - http://www.bohemiancoding.com/sketch -->
    <title>loginFormOverview</title>
    <desc>Created with Sketch.</desc>
    <defs>
        <rect id="path-1" x="730" y="310" width="460" height="460"></rect>
        <mask id="mask-2" maskContentUnits="userSpaceOnUse" maskUnits="objectBoundingBox" x="0" y="0" width="460" height="460" fill="white">
            <use xlink:href="#path-1"></use>
        </mask>
        <rect id="path-3" x="0.535714286" y="0.0357142857" width="164.285714" height="82.1428571"></rect>
    </defs>
    <g id="Actual-Slides" stroke="none" stroke-width="1" fill="none" fill-rule="evenodd">
        <g id="loginFormOverview">
            <use id="Rectangle-2-Copy" stroke="#1E1E1E" mask="url(#mask-2)" stroke-width="10" stroke-dasharray="25" xlink:href="#path-1"></use>
            <g id="Password" transform="translate(796.000000, 490.000000)">
                <path d="M52.0952381,39.2380952 L50.452381,39.2380952 L50.452381,34.5833333 C50.452381,29.2993571 46.1530238,25 40.8690476,25 C35.5850714,25 31.2857143,29.2993571 31.2857143,34.5833333 L31.2857143,39.2380952 L30.1904762,39.2380952 C28.9807857,39.2380952 28,40.218881 28,41.4285714 L28,55.6666667 C28,56.8763571 28.9807857,57.8571429 30.1904762,57.8571429 L52.0952381,57.8571429 C53.3049286,57.8571429 54.2857143,56.8763571 54.2857143,55.6666667 L54.2857143,41.4285714 C54.2857143,40.218881 53.3049286,39.2380952 52.0952381,39.2380952 Z M42.7857143,50.7380952 C42.7857143,51.6455 42.0502619,52.3809524 41.1428571,52.3809524 C40.2354524,52.3809524 39.5,51.6455 39.5,50.7380952 L39.5,46.3571429 C39.5,45.4497381 40.2354524,44.7142857 41.1428571,44.7142857 C42.0502619,44.7142857 42.7857143,45.4497381 42.7857143,46.3571429 L42.7857143,50.7380952 Z M34.5714286,39.2380952 L34.5714286,34.5833333 C34.5714286,31.110881 37.3965952,28.2857143 40.8690476,28.2857143 C44.3415,28.2857143 47.1666667,31.110881 47.1666667,34.5833333 L47.1666667,39.2380952 L34.5714286,39.2380952 Z" id="Shape" fill="#1E1E1E" fill-rule="nonzero"></path>
                <rect id="Rectangle-2-Copy-3" stroke="#1E1E1E" stroke-width="5" x="2.57142857" y="2.85714286" width="323.571429" height="77.1428571"></rect>
                <path d="M79.7371429,39.9028571 C78.6571429,39.9028571 77.7571429,40.2628571 77.0371429,40.9828571 C76.3171429,41.7028571 75.9571429,42.6028571 75.9571429,43.6468571 C75.9571429,44.6548571 76.3171429,45.5548571 77.0371429,46.3108571 C77.7931429,47.0308571 78.6931429,47.4268571 79.7371429,47.4268571 C80.7451429,47.4268571 81.6451429,47.0308571 82.4371429,46.3108571 C83.1571429,45.5548571 83.5171429,44.6548571 83.5171429,43.6468571 C83.5171429,42.6028571 83.1571429,41.7028571 82.4371429,40.9828571 C81.6811429,40.2628571 80.7811429,39.9028571 79.7371429,39.9028571 Z M94.4971429,39.9028571 C93.4171429,39.9028571 92.5171429,40.2628571 91.7971429,40.9828571 C91.0771429,41.7028571 90.7171429,42.6028571 90.7171429,43.6468571 C90.7171429,44.6548571 91.0771429,45.5548571 91.7971429,46.3108571 C92.5531429,47.0308571 93.4531429,47.4268571 94.4971429,47.4268571 C95.5051429,47.4268571 96.4051429,47.0308571 97.1971429,46.3108571 C97.9171429,45.5548571 98.2771429,44.6548571 98.2771429,43.6468571 C98.2771429,42.6028571 97.9171429,41.7028571 97.1971429,40.9828571 C96.4411429,40.2628571 95.5411429,39.9028571 94.4971429,39.9028571 Z M109.257143,39.9028571 C108.177143,39.9028571 107.277143,40.2628571 106.557143,40.9828571 C105.837143,41.7028571 105.477143,42.6028571 105.477143,43.6468571 C105.477143,44.6548571 105.837143,45.5548571 106.557143,46.3108571 C107.313143,47.0308571 108.213143,47.4268571 109.257143,47.4268571 C110.265143,47.4268571 111.165143,47.0308571 111.957143,46.3108571 C112.677143,45.5548571 113.037143,44.6548571 113.037143,43.6468571 C113.037143,42.6028571 112.677143,41.7028571 111.957143,40.9828571 C111.201143,40.2628571 110.301143,39.9028571 109.257143,39.9028571 Z M124.017143,39.9028571 C122.937143,39.9028571 122.037143,40.2628571 121.317143,40.9828571 C120.597143,41.7028571 120.237143,42.6028571 120.237143,43.6468571 C120.237143,44.6548571 120.597143,45.5548571 121.317143,46.3108571 C122.073143,47.0308571 122.973143,47.4268571 124.017143,47.4268571 C125.025143,47.4268571 125.925143,47.0308571 126.717143,46.3108571 C127.437143,45.5548571 127.797143,44.6548571 127.797143,43.6468571 C127.797143,42.6028571 127.437143,41.7028571 126.717143,40.9828571 C125.961143,40.2628571 125.061143,39.9028571 124.017143,39.9028571 Z M138.777143,39.9028571 C137.697143,39.9028571 136.797143,40.2628571 136.077143,40.9828571 C135.357143,41.7028571 134.997143,42.6028571 134.997143,43.6468571 C134.997143,44.6548571 135.357143,45.5548571 136.077143,46.3108571 C136.833143,47.0308571 137.733143,47.4268571 138.777143,47.4268571 C139.785143,47.4268571 140.685143,47.0308571 141.477143,46.3108571 C142.197143,45.5548571 142.557143,44.6548571 142.557143,43.6468571 C142.557143,42.6028571 142.197143,41.7028571 141.477143,40.9828571 C140.721143,40.2628571 139.821143,39.9028571 138.777143,39.9028571 Z M153.537143,39.9028571 C152.457143,39.9028571 151.557143,40.2628571 150.837143,40.9828571 C150.117143,41.7028571 149.757143,42.6028571 149.757143,43.6468571 C149.757143,44.6548571 150.117143,45.5548571 150.837143,46.3108571 C151.593143,47.0308571 152.493143,47.4268571 153.537143,47.4268571 C154.545143,47.4268571 155.445143,47.0308571 156.237143,46.3108571 C156.957143,45.5548571 157.317143,44.6548571 157.317143,43.6468571 C157.317143,42.6028571 156.957143,41.7028571 156.237143,40.9828571 C155.481143,40.2628571 154.581143,39.9028571 153.537143,39.9028571 Z M168.297143,39.9028571 C167.217143,39.9028571 166.317143,40.2628571 165.597143,40.9828571 C164.877143,41.7028571 164.517143,42.6028571 164.517143,43.6468571 C164.517143,44.6548571 164.877143,45.5548571 165.597143,46.3108571 C166.353143,47.0308571 167.253143,47.4268571 168.297143,47.4268571 C169.305143,47.4268571 170.205143,47.0308571 170.997143,46.3108571 C171.717143,45.5548571 172.077143,44.6548571 172.077143,43.6468571 C172.077143,42.6028571 171.717143,41.7028571 170.997143,40.9828571 C170.241143,40.2628571 169.341143,39.9028571 168.297143,39.9028571 Z M183.057143,39.9028571 C181.977143,39.9028571 181.077143,40.2628571 180.357143,40.9828571 C179.637143,41.7028571 179.277143,42.6028571 179.277143,43.6468571 C179.277143,44.6548571 179.637143,45.5548571 180.357143,46.3108571 C181.113143,47.0308571 182.013143,47.4268571 183.057143,47.4268571 C184.065143,47.4268571 184.965143,47.0308571 185.757143,46.3108571 C186.477143,45.5548571 186.837143,44.6548571 186.837143,43.6468571 C186.837143,42.6028571 186.477143,41.7028571 185.757143,40.9828571 C185.001143,40.2628571 184.101143,39.9028571 183.057143,39.9028571 Z M197.817143,39.9028571 C196.737143,39.9028571 195.837143,40.2628571 195.117143,40.9828571 C194.397143,41.7028571 194.037143,42.6028571 194.037143,43.6468571 C194.037143,44.6548571 194.397143,45.5548571 195.117143,46.3108571 C195.873143,47.0308571 196.773143,47.4268571 197.817143,47.4268571 C198.825143,47.4268571 199.725143,47.0308571 200.517143,46.3108571 C201.237143,45.5548571 201.597143,44.6548571 201.597143,43.6468571 C201.597143,42.6028571 201.237143,41.7028571 200.517143,40.9828571 C199.761143,40.2628571 198.861143,39.9028571 197.817143,39.9028571 Z M212.577143,39.9028571 C211.497143,39.9028571 210.597143,40.2628571 209.877143,40.9828571 C209.157143,41.7028571 208.797143,42.6028571 208.797143,43.6468571 C208.797143,44.6548571 209.157143,45.5548571 209.877143,46.3108571 C210.633143,47.0308571 211.533143,47.4268571 212.577143,47.4268571 C213.585143,47.4268571 214.485143,47.0308571 215.277143,46.3108571 C215.997143,45.5548571 216.357143,44.6548571 216.357143,43.6468571 C216.357143,42.6028571 215.997143,41.7028571 215.277143,40.9828571 C214.521143,40.2628571 213.621143,39.9028571 212.577143,39.9028571 Z M227.337143,39.9028571 C226.257143,39.9028571 225.357143,40.2628571 224.637143,40.9828571 C223.917143,41.7028571 223.557143,42.6028571 223.557143,43.6468571 C223.557143,44.6548571 223.917143,45.5548571 224.637143,46.3108571 C225.393143,47.0308571 226.293143,47.4268571 227.337143,47.4268571 C228.345143,47.4268571 229.245143,47.0308571 230.037143,46.3108571 C230.757143,45.5548571 231.117143,44.6548571 231.117143,43.6468571 C231.117143,42.6028571 230.757143,41.7028571 230.037143,40.9828571 C229.281143,40.2628571 228.381143,39.9028571 227.337143,39.9028571 Z M242.097143,39.9028571 C241.017143,39.9028571 240.117143,40.2628571 239.397143,40.9828571 C238.677143,41.7028571 238.317143,42.6028571 238.317143,43.6468571 C238.317143,44.6548571 238.677143,45.5548571 239.397143,46.3108571 C240.153143,47.0308571 241.053143,47.4268571 242.097143,47.4268571 C243.105143,47.4268571 244.005143,47.0308571 244.797143,46.3108571 C245.517143,45.5548571 245.877143,44.6548571 245.877143,43.6468571 C245.877143,42.6028571 245.517143,41.7028571 244.797143,40.9828571 C244.041143,40.2628571 243.141143,39.9028571 242.097143,39.9028571 Z M256.857143,39.9028571 C255.777143,39.9028571 254.877143,40.2628571 254.157143,40.9828571 C253.437143,41.7028571 253.077143,42.6028571 253.077143,43.6468571 C253.077143,44.6548571 253.437143,45.5548571 254.157143,46.3108571 C254.913143,47.0308571 255.813143,47.4268571 256.857143,47.4268571 C257.865143,47.4268571 258.765143,47.0308571 259.557143,46.3108571 C260.277143,45.5548571 260.637143,44.6548571 260.637143,43.6468571 C260.637143,42.6028571 260.277143,41.7028571 259.557143,40.9828571 C258.801143,40.2628571 257.901143,39.9028571 256.857143,39.9028571 Z" id="∙∙∙∙∙∙∙∙∙∙∙∙∙" fill="#1E1E1E"></path>
            </g>
            <g id="User-Name" transform="translate(796.000000, 375.000000)">
                <path d="M57.8563086,57.8565011 L57.8563086,54.4091323 C57.8563086,52.7345731 56.7734347,51.3128599 55.2704129,50.8094782 L55.2704129,50.8094782 C55.1520759,50.7693694 47.4585631,48.8041657 46.3576563,46.6182031 C45.8553655,45.6194615 46.3506613,44.3401507 46.8519894,43.4577567 C47.081476,43.1488867 47.3060212,42.822048 47.5217746,42.4791016 C47.5217746,42.4771122 47.5217746,42.4771122 47.5217746,42.4771122 L47.5217746,42.4771122 C48.8253432,40.3915179 49.8200419,37.6482031 49.9211802,34.2571791 C50.0735938,29.1556585 46.1260519,25.012514 41.4396735,25.0005134 L41.4396735,25.0005134 C41.4356306,25.0005134 41.4326786,25.0005134 41.4286356,25.0005134 C41.4255552,25.0005134 41.4216406,25.0005134 41.4175335,25.0005134 L41.4175335,25.0005134 C36.7320536,25.012514 32.7845759,29.1556585 32.937952,34.2573075 C33.0392188,37.6483956 34.0329548,40.3917104 35.3363309,42.4772405 L35.3363309,42.4772405 C35.3363309,42.4772405 35.3374219,42.4772405 35.3374219,42.4792299 C35.5520201,42.8221763 35.7766295,43.1490792 36.0061802,43.457885 C36.5075725,44.340279 37.0028041,45.619654 36.5005134,46.6183315 C35.400505,48.8041657 27.7060296,50.7694978 27.5876925,50.8096066 L27.5876925,50.8096066 C26.0847349,51.3131166 25.0007701,52.7347015 25.0007701,54.409389 L25.0007701,57.8566295 L57.8563086,57.8565011 L57.8563086,57.8565011 Z" id="Shape" fill="#1E1E1E" fill-rule="nonzero"></path>
                <rect id="Rectangle-2-Copy-2" stroke="#1E1E1E" stroke-width="5" x="3.14285714" y="3.14285714" width="323.571429" height="77.1428571"></rect>
                <path d="M238.111504,49.7926223 C238.104602,49.7986025 238.09772,49.8046808 238.090857,49.8108571 C237.826856,50.0268582 237.526859,50.2848556 237.190857,50.5848571 C236.854855,50.8848586 236.494859,51.1668558 236.110857,51.4308571 C235.726855,51.6948585 235.342859,51.9348561 234.958857,52.1508571 C234.574855,52.3668582 234.214859,52.4988569 233.878857,52.5468571 C233.926857,52.4028564 233.962857,52.2708577 233.986857,52.1508571 C234.106858,51.8868558 234.232856,51.5988587 234.364857,51.2868571 C234.496858,50.9748556 234.634856,50.6628587 234.778857,50.3508571 C235.162859,49.3908523 235.426856,48.6828594 235.570857,48.2268571 C235.714858,47.7708549 235.702858,47.3748588 235.534857,47.0388571 C235.462857,46.9188565 235.366858,46.7988577 235.246857,46.6788571 C235.126857,46.5588565 234.970858,46.4748574 234.778857,46.4268571 C234.370855,46.3068565 234.022859,46.4148555 233.734857,46.7508571 L233.338857,47.1468571 C233.074856,47.4108585 232.726859,47.7468551 232.294857,48.1548571 C231.862855,48.5628592 231.35886,49.0188546 230.782857,49.5228571 C230.206854,50.0268597 229.59486,50.5428545 228.946857,51.0708571 C228.106853,51.7188604 227.36286,52.258855 226.714857,52.6908571 C226.066854,53.1228593 225.49686,53.4648559 225.004857,53.7168571 C224.512855,53.9688584 224.080859,54.1548565 223.708857,54.2748571 C223.336855,54.3948577 223.030858,54.466857 222.790857,54.4908571 L222.862857,54.2748571 C222.886857,54.2028568 222.922857,54.1188576 222.970857,54.0228571 C223.090858,53.7588558 223.216856,53.4828586 223.348857,53.1948571 C223.480858,52.9068557 223.606857,52.6188586 223.726857,52.3308571 C224.20686,51.3228521 224.548856,50.5428599 224.752857,49.9908571 C224.956858,49.4388544 224.962858,48.9588592 224.770857,48.5508571 C224.578856,48.1428551 224.290859,47.9028575 223.906857,47.8308571 C223.090853,47.5908559 222.190862,47.7228546 221.206857,48.2268571 C220.798855,48.4188581 220.414859,48.6588557 220.054857,48.9468571 C219.694855,49.2348586 219.346859,49.4988559 219.010857,49.7388571 C218.993177,49.7565377 218.976059,49.7744594 218.959504,49.7926223 C218.952602,49.7986025 218.94572,49.8046808 218.938857,49.8108571 C218.674856,50.0268582 218.374859,50.2848556 218.038857,50.5848571 C217.702855,50.8848586 217.342859,51.1668558 216.958857,51.4308571 C216.574855,51.6948585 216.190859,51.9348561 215.806857,52.1508571 C215.422855,52.3668582 215.062859,52.4988569 214.726857,52.5468571 C214.774857,52.4028564 214.810857,52.2708577 214.834857,52.1508571 C214.954858,51.8868558 215.080856,51.5988587 215.212857,51.2868571 C215.344858,50.9748556 215.482856,50.6628587 215.626857,50.3508571 C216.010859,49.3908523 216.274856,48.6828594 216.418857,48.2268571 C216.562858,47.7708549 216.550858,47.3748588 216.382857,47.0388571 C216.310857,46.9188565 216.214858,46.7988577 216.094857,46.6788571 C215.974857,46.5588565 215.818858,46.4748574 215.626857,46.4268571 C215.218855,46.3068565 214.870859,46.4148555 214.582857,46.7508571 L214.186857,47.1468571 C213.922856,47.4108585 213.574859,47.7468551 213.142857,48.1548571 C212.710855,48.5628592 212.20686,49.0188546 211.630857,49.5228571 C211.054854,50.0268597 210.44286,50.5428545 209.794857,51.0708571 C208.954853,51.7188604 208.21086,52.258855 207.562857,52.6908571 C206.914854,53.1228593 206.34486,53.4648559 205.852857,53.7168571 C205.360855,53.9688584 204.928859,54.1548565 204.556857,54.2748571 C204.184855,54.3948577 203.878858,54.466857 203.638857,54.4908571 L203.710857,54.2748571 C203.734857,54.2028568 203.770857,54.1188576 203.818857,54.0228571 C203.938858,53.7588558 204.064856,53.4828586 204.196857,53.1948571 C204.328858,52.9068557 204.454857,52.6188586 204.574857,52.3308571 C205.05486,51.3228521 205.396856,50.5428599 205.600857,49.9908571 C205.804858,49.4388544 205.810858,48.9588592 205.618857,48.5508571 C205.426856,48.1428551 205.138859,47.9028575 204.754857,47.8308571 C203.938853,47.5908559 203.038862,47.7228546 202.054857,48.2268571 C201.646855,48.4188581 201.262859,48.6588557 200.902857,48.9468571 C200.609134,49.1818358 200.323402,49.4008354 200.045657,49.6038601 C199.982737,49.6306498 199.92047,49.6636488 199.858857,49.7028571 C199.666856,49.8468579 199.474858,49.9788565 199.282857,50.0988571 L198.706857,50.4588571 C197.794853,51.0828603 196.918861,51.6588545 196.078857,52.1868571 C195.238853,52.7148598 194.446861,53.1828551 193.702857,53.5908571 C192.838853,54.0468594 192.178859,54.3228567 191.722857,54.4188571 C191.770857,54.2268562 191.830857,54.0108583 191.902857,53.7708571 C191.974858,53.5308559 192.070857,53.2428588 192.190857,52.9068571 C192.382858,52.3068541 192.568856,51.7128601 192.748857,51.1248571 C192.928858,50.5368542 193.102856,50.0388592 193.270857,49.6308571 C193.318857,49.4868564 193.354857,49.3608577 193.378857,49.2528571 C193.402857,49.1448566 193.438857,49.0428576 193.486857,48.9468571 C193.534857,48.7548562 193.576857,48.574858 193.612857,48.4068571 C193.648857,48.2388563 193.606858,48.0468582 193.486857,47.8308571 C193.342856,47.5428557 193.114859,47.3628575 192.802857,47.2908571 C192.586856,47.2188568 192.358858,47.2308567 192.118857,47.3268571 L191.614857,47.5248571 C191.278855,47.6568578 190.83486,47.8248561 190.282857,48.0288571 C189.730854,48.2328582 189.094861,48.4668558 188.374857,48.7308571 C187.654854,48.9948585 186.910861,49.2708557 186.142857,49.5588571 C186.023324,49.6086627 185.917228,49.6719042 185.824568,49.748582 C184.555167,50.2821748 183.473272,50.7949287 182.578857,51.2868571 C182.602857,51.1908567 182.626857,51.1068575 182.650857,51.0348571 C182.674857,50.9628568 182.698857,50.8788576 182.722857,50.7828571 C182.890858,50.3028547 183.028857,49.876859 183.136857,49.5048571 C183.244858,49.1328553 183.334857,48.7908587 183.406857,48.4788571 C183.526858,47.9268544 183.592857,47.5008586 183.604857,47.2008571 C183.616857,46.9008556 183.562858,46.6548581 183.442857,46.4628571 C183.298856,46.1268555 183.058859,45.9348574 182.722857,45.8868571 C182.602857,45.8388569 182.488858,45.8208571 182.380857,45.8328571 C182.272857,45.8448572 182.158858,45.862857 182.038857,45.8868571 L181.084857,46.2468571 C180.448854,46.4868583 179.650862,46.7868553 178.690857,47.1468571 C177.730852,47.5068589 176.668863,47.902855 175.504857,48.3348571 C174.340851,48.7668593 173.218863,49.1748552 172.138857,49.5588571 C172.04744,49.5969476 171.963882,49.6428966 171.888183,49.6967044 C171.838801,49.7300544 171.790359,49.7681053 171.742857,49.8108571 C171.478856,50.0268582 171.178859,50.2848556 170.842857,50.5848571 C170.506855,50.8848586 170.146859,51.1668558 169.762857,51.4308571 C169.378855,51.6948585 168.994859,51.9348561 168.610857,52.1508571 C168.226855,52.3668582 167.866859,52.4988569 167.530857,52.5468571 C167.578857,52.4028564 167.614857,52.2708577 167.638857,52.1508571 C167.758858,51.8868558 167.884856,51.5988587 168.016857,51.2868571 C168.148858,50.9748556 168.286856,50.6628587 168.430857,50.3508571 C168.814859,49.3908523 169.078856,48.6828594 169.222857,48.2268571 C169.366858,47.7708549 169.354858,47.3748588 169.186857,47.0388571 C169.114857,46.9188565 169.018858,46.7988577 168.898857,46.6788571 C168.778857,46.5588565 168.622858,46.4748574 168.430857,46.4268571 C168.022855,46.3068565 167.674859,46.4148555 167.386857,46.7508571 L166.990857,47.1468571 C166.726856,47.4108585 166.378859,47.7468551 165.946857,48.1548571 C165.514855,48.5628592 165.01086,49.0188546 164.434857,49.5228571 C163.858854,50.0268597 163.24686,50.5428545 162.598857,51.0708571 C161.758853,51.7188604 161.01486,52.258855 160.366857,52.6908571 C159.718854,53.1228593 159.14886,53.4648559 158.656857,53.7168571 C158.164855,53.9688584 157.732859,54.1548565 157.360857,54.2748571 C156.988855,54.3948577 156.682858,54.466857 156.442857,54.4908571 L156.514857,54.2748571 C156.538857,54.2028568 156.574857,54.1188576 156.622857,54.0228571 C156.742858,53.7588558 156.868856,53.4828586 157.000857,53.1948571 C157.132858,52.9068557 157.258857,52.6188586 157.378857,52.3308571 C157.85886,51.3228521 158.200856,50.5428599 158.404857,49.9908571 C158.608858,49.4388544 158.614858,48.9588592 158.422857,48.5508571 C158.230856,48.1428551 157.942859,47.9028575 157.558857,47.8308571 C156.742853,47.5908559 155.842862,47.7228546 154.858857,48.2268571 C154.450855,48.4188581 154.066859,48.6588557 153.706857,48.9468571 C153.346855,49.2348586 152.998859,49.4988559 152.662857,49.7388571 C152.446856,49.9548582 152.314857,50.2068557 152.266857,50.4948571 C152.218857,50.7828586 152.290856,51.0468559 152.482857,51.2868571 C152.674858,51.5028582 152.920856,51.6348569 153.220857,51.6828571 C153.520859,51.7308574 153.790856,51.6588581 154.030857,51.4668571 C154.390859,51.1788557 154.744855,50.8968585 155.092857,50.6208571 C155.440859,50.3448558 155.770856,50.1468577 156.082857,50.0268571 C155.962857,50.2428582 155.854858,50.4708559 155.758857,50.7108571 C155.662857,50.9508583 155.566858,51.1668562 155.470857,51.3588571 C154.942855,52.4388625 154.564858,53.3208537 154.336857,54.0048571 C154.108856,54.6888606 154.102856,55.2708547 154.318857,55.7508571 C154.486858,56.1348591 154.786855,56.3868565 155.218857,56.5068571 C155.386858,56.5548574 155.548856,56.590857 155.704857,56.6148571 C155.860858,56.6388573 156.034856,56.6508571 156.226857,56.6508571 C158.074866,56.6508571 160.654841,55.3428702 163.966857,52.7268571 C164.278859,52.4628558 164.572856,52.2228582 164.848857,52.0068571 C165.124859,51.7908561 165.394856,51.5628583 165.658857,51.3228571 C165.442856,51.9468603 165.304857,52.4568552 165.244857,52.8528571 C165.184857,53.2488591 165.226856,53.6148555 165.370857,53.9508571 C165.538858,54.2868588 165.814855,54.5268564 166.198857,54.6708571 C166.77486,54.8148579 167.362854,54.8208578 167.962857,54.6888571 C168.56286,54.5568565 169.156854,54.3288588 169.744857,54.0048571 C170.33286,53.6808555 170.914854,53.2968594 171.490857,52.8528571 C172.004232,52.4571306 172.508068,52.0375786 173.002377,51.5941911 C173.677616,51.3462072 174.37377,51.0877648 175.090857,50.8188571 C175.858861,50.5308557 176.608853,50.2488585 177.340857,49.9728571 C178.072861,49.6968558 178.762854,49.4388583 179.410857,49.1988571 C180.05886,48.9588559 180.634855,48.7428581 181.138857,48.5508571 C181.066857,48.7908583 180.982858,49.0608556 180.886857,49.3608571 C180.790857,49.6608586 180.682858,50.0148551 180.562857,50.4228571 C180.322856,51.1188606 180.112858,51.7428544 179.932857,52.2948571 C179.752856,52.8468599 179.662857,53.134857 179.662857,53.1588571 C179.494856,53.6388595 179.602855,54.0348556 179.986857,54.3468571 C180.178858,54.514858 180.418856,54.5988571 180.706857,54.5988571 C180.922858,54.5988571 181.102856,54.5388577 181.246857,54.4188571 C181.72686,54.1548558 182.266854,53.8668587 182.866857,53.5548571 C183.37086,53.2908558 183.970854,52.9908588 184.666857,52.6548571 C185.330552,52.3344528 186.048795,52.0031414 186.821607,51.6609138 C186.835373,51.6565368 186.849123,51.6518512 186.862857,51.6468571 C187.582861,51.3828558 188.278854,51.1188585 188.950857,50.8548571 C189.622861,50.5908558 190.234854,50.3628581 190.786857,50.1708571 C190.426855,51.2988628 190.144858,52.2168536 189.940857,52.9248571 C189.736856,53.6328607 189.592858,54.1908551 189.508857,54.5988571 C189.424857,55.0068592 189.394857,55.3128561 189.418857,55.5168571 C189.442857,55.7208582 189.490857,55.8948564 189.562857,56.0388571 C189.754858,56.3508587 189.994856,56.5548567 190.282857,56.6508571 C190.426858,56.6748573 190.558857,56.6928571 190.678857,56.7048571 C190.798858,56.7168572 190.918857,56.7228571 191.038857,56.7228571 C191.950862,56.7228571 193.186849,56.3148612 194.746857,55.4988571 C195.514861,55.0908551 196.330853,54.6108599 197.194857,54.0588571 C198.058861,53.5068544 198.946853,52.9308601 199.858857,52.3308571 C200.074858,52.1868564 200.284856,52.0488578 200.488857,51.9168571 C200.618878,51.8327262 200.74646,51.7461588 200.871605,51.6571538 C200.996543,51.6198067 201.11496,51.5563746 201.226857,51.4668571 C201.586859,51.1788557 201.940855,50.8968585 202.288857,50.6208571 C202.636859,50.3448558 202.966856,50.1468577 203.278857,50.0268571 C203.158857,50.2428582 203.050858,50.4708559 202.954857,50.7108571 C202.858857,50.9508583 202.762858,51.1668562 202.666857,51.3588571 C202.138855,52.4388625 201.760858,53.3208537 201.532857,54.0048571 C201.304856,54.6888606 201.298856,55.2708547 201.514857,55.7508571 C201.682858,56.1348591 201.982855,56.3868565 202.414857,56.5068571 C202.582858,56.5548574 202.744856,56.590857 202.900857,56.6148571 C203.056858,56.6388573 203.230856,56.6508571 203.422857,56.6508571 C205.270866,56.6508571 207.850841,55.3428702 211.162857,52.7268571 C211.474859,52.4628558 211.768856,52.2228582 212.044857,52.0068571 C212.320859,51.7908561 212.590856,51.5628583 212.854857,51.3228571 C212.638856,51.9468603 212.500857,52.4568552 212.440857,52.8528571 C212.380857,53.2488591 212.422856,53.6148555 212.566857,53.9508571 C212.734858,54.2868588 213.010855,54.5268564 213.394857,54.6708571 C213.97086,54.8148579 214.558854,54.8208578 215.158857,54.6888571 C215.75886,54.5568565 216.352854,54.3288588 216.940857,54.0048571 C217.52886,53.6808555 218.110854,53.2968594 218.686857,52.8528571 C219.208505,52.4507533 219.720305,52.0240499 220.222267,51.5727365 C220.27581,51.5428303 220.328007,51.5075372 220.378857,51.4668571 C220.738859,51.1788557 221.092855,50.8968585 221.440857,50.6208571 C221.788859,50.3448558 222.118856,50.1468577 222.430857,50.0268571 C222.310857,50.2428582 222.202858,50.4708559 222.106857,50.7108571 C222.010857,50.9508583 221.914858,51.1668562 221.818857,51.3588571 C221.290855,52.4388625 220.912858,53.3208537 220.684857,54.0048571 C220.456856,54.6888606 220.450856,55.2708547 220.666857,55.7508571 C220.834858,56.1348591 221.134855,56.3868565 221.566857,56.5068571 C221.734858,56.5548574 221.896856,56.590857 222.052857,56.6148571 C222.208858,56.6388573 222.382856,56.6508571 222.574857,56.6508571 C224.422866,56.6508571 227.002841,55.3428702 230.314857,52.7268571 C230.626859,52.4628558 230.920856,52.2228582 231.196857,52.0068571 C231.472859,51.7908561 231.742856,51.5628583 232.006857,51.3228571 C231.790856,51.9468603 231.652857,52.4568552 231.592857,52.8528571 C231.532857,53.2488591 231.574856,53.6148555 231.718857,53.9508571 C231.886858,54.2868588 232.162855,54.5268564 232.546857,54.6708571 C233.12286,54.8148579 233.710854,54.8208578 234.310857,54.6888571 C234.91086,54.5568565 235.504854,54.3288588 236.092857,54.0048571 C236.68086,53.6808555 237.262854,53.2968594 237.838857,52.8528571 C238.360505,52.4507533 238.872305,52.0240499 239.374267,51.5727365 C239.42781,51.5428303 239.480007,51.5075372 239.530857,51.4668571 C239.890859,51.1788557 240.244855,50.8968585 240.592857,50.6208571 C240.940859,50.3448558 241.270856,50.1468577 241.582857,50.0268571 C241.462857,50.2428582 241.354858,50.4708559 241.258857,50.7108571 C241.162857,50.9508583 241.066858,51.1668562 240.970857,51.3588571 C240.442855,52.4388625 240.064858,53.3208537 239.836857,54.0048571 C239.608856,54.6888606 239.602856,55.2708547 239.818857,55.7508571 C239.986858,56.1348591 240.286855,56.3868565 240.718857,56.5068571 C240.886858,56.5548574 241.048856,56.590857 241.204857,56.6148571 C241.360858,56.6388573 241.534856,56.6508571 241.726857,56.6508571 C243.574866,56.6508571 246.154841,55.3428702 249.466857,52.7268571 C249.778859,52.4628558 250.072856,52.2228582 250.348857,52.0068571 C250.624859,51.7908561 250.894856,51.5628583 251.158857,51.3228571 C250.942856,51.9468603 250.804857,52.4568552 250.744857,52.8528571 C250.684857,53.2488591 250.726856,53.6148555 250.870857,53.9508571 C251.038858,54.2868588 251.314855,54.5268564 251.698857,54.6708571 C252.27486,54.8148579 252.862854,54.8208578 253.462857,54.6888571 C254.06286,54.5568565 254.656854,54.3288588 255.244857,54.0048571 C255.83286,53.6808555 256.414854,53.2968594 256.990857,52.8528571 C257.56686,52.4088549 258.130854,51.9348597 258.682857,51.4308571 C258.922858,51.2148561 259.048857,50.9628586 259.060857,50.6748571 C259.072857,50.3868557 258.982858,50.1228583 258.790857,49.8828571 C258.574856,49.6668561 258.322859,49.5468573 258.034857,49.5228571 C257.746856,49.498857 257.482858,49.5948561 257.242857,49.8108571 C256.978856,50.0268582 256.678859,50.2848556 256.342857,50.5848571 C256.006855,50.8848586 255.646859,51.1668558 255.262857,51.4308571 C254.878855,51.6948585 254.494859,51.9348561 254.110857,52.1508571 C253.726855,52.3668582 253.366859,52.4988569 253.030857,52.5468571 C253.078857,52.4028564 253.114857,52.2708577 253.138857,52.1508571 C253.258858,51.8868558 253.384856,51.5988587 253.516857,51.2868571 C253.648858,50.9748556 253.786856,50.6628587 253.930857,50.3508571 C254.314859,49.3908523 254.578856,48.6828594 254.722857,48.2268571 C254.866858,47.7708549 254.854858,47.3748588 254.686857,47.0388571 C254.614857,46.9188565 254.518858,46.7988577 254.398857,46.6788571 C254.278857,46.5588565 254.122858,46.4748574 253.930857,46.4268571 C253.522855,46.3068565 253.174859,46.4148555 252.886857,46.7508571 L252.490857,47.1468571 C252.226856,47.4108585 251.878859,47.7468551 251.446857,48.1548571 C251.014855,48.5628592 250.51086,49.0188546 249.934857,49.5228571 C249.358854,50.0268597 248.74686,50.5428545 248.098857,51.0708571 C247.258853,51.7188604 246.51486,52.258855 245.866857,52.6908571 C245.218854,53.1228593 244.64886,53.4648559 244.156857,53.7168571 C243.664855,53.9688584 243.232859,54.1548565 242.860857,54.2748571 C242.488855,54.3948577 242.182858,54.466857 241.942857,54.4908571 L242.014857,54.2748571 C242.038857,54.2028568 242.074857,54.1188576 242.122857,54.0228571 C242.242858,53.7588558 242.368856,53.4828586 242.500857,53.1948571 C242.632858,52.9068557 242.758857,52.6188586 242.878857,52.3308571 C243.35886,51.3228521 243.700856,50.5428599 243.904857,49.9908571 C244.108858,49.4388544 244.114858,48.9588592 243.922857,48.5508571 C243.730856,48.1428551 243.442859,47.9028575 243.058857,47.8308571 C242.242853,47.5908559 241.342862,47.7228546 240.358857,48.2268571 C239.950855,48.4188581 239.566859,48.6588557 239.206857,48.9468571 C238.846855,49.2348586 238.498859,49.4988559 238.162857,49.7388571 C238.145177,49.7565377 238.128059,49.7744594 238.111504,49.7926223 Z M115.99455,49.7595268 C114.736377,50.2891873 113.663156,50.798293 112.774857,51.2868571 C112.798857,51.1908567 112.822857,51.1068575 112.846857,51.0348571 C112.870857,50.9628568 112.894857,50.8788576 112.918857,50.7828571 C113.086858,50.3028547 113.224857,49.876859 113.332857,49.5048571 C113.440858,49.1328553 113.530857,48.7908587 113.602857,48.4788571 C113.722858,47.9268544 113.788857,47.5008586 113.800857,47.2008571 C113.812857,46.9008556 113.758858,46.6548581 113.638857,46.4628571 C113.494856,46.1268555 113.254859,45.9348574 112.918857,45.8868571 C112.798857,45.8388569 112.684858,45.8208571 112.576857,45.8328571 C112.468857,45.8448572 112.354858,45.862857 112.234857,45.8868571 L111.280857,46.2468571 C110.644854,46.4868583 109.846862,46.7868553 108.886857,47.1468571 C107.926852,47.5068589 106.864863,47.902855 105.700857,48.3348571 C104.536851,48.7668593 103.414863,49.1748552 102.334857,49.5588571 C102.24344,49.5969476 102.159882,49.6428966 102.084183,49.6967044 C102.034801,49.7300544 101.986359,49.7681053 101.938857,49.8108571 C101.674856,50.0268582 101.374859,50.2848556 101.038857,50.5848571 C100.702855,50.8848586 100.342859,51.1668558 99.9588571,51.4308571 C99.5748552,51.6948585 99.1908591,51.9348561 98.8068571,52.1508571 C98.4228552,52.3668582 98.0628588,52.4988569 97.7268571,52.5468571 C97.7748574,52.4028564 97.810857,52.2708577 97.8348571,52.1508571 C97.9548577,51.8868558 98.0808565,51.5988587 98.2128571,51.2868571 C98.3448578,50.9748556 98.4828564,50.6628587 98.6268571,50.3508571 C99.0108591,49.3908523 99.2748564,48.6828594 99.4188571,48.2268571 C99.5628579,47.7708549 99.550858,47.3748588 99.3828571,47.0388571 C99.3108568,46.9188565 99.2148577,46.7988577 99.0948571,46.6788571 C98.9748565,46.5588565 98.8188581,46.4748574 98.6268571,46.4268571 C98.2188551,46.3068565 97.8708586,46.4148555 97.5828571,46.7508571 L97.1868571,47.1468571 C96.9228558,47.4108585 96.5748593,47.7468551 96.1428571,48.1548571 C95.710855,48.5628592 95.20686,49.0188546 94.6308571,49.5228571 C94.0548543,50.0268597 93.4428604,50.5428545 92.7948571,51.0708571 C91.9548529,51.7188604 91.2108604,52.258855 90.5628571,52.6908571 C89.9148539,53.1228593 89.3448596,53.4648559 88.8528571,53.7168571 C88.3608547,53.9688584 87.928859,54.1548565 87.5568571,54.2748571 C87.1848553,54.3948577 86.8788583,54.466857 86.6388571,54.4908571 L86.7108571,54.2748571 C86.7348573,54.2028568 86.7708569,54.1188576 86.8188571,54.0228571 C86.9388577,53.7588558 87.0648565,53.4828586 87.1968571,53.1948571 C87.3288578,52.9068557 87.4548565,52.6188586 87.5748571,52.3308571 C88.0548595,51.3228521 88.3968561,50.5428599 88.6008571,49.9908571 C88.8048582,49.4388544 88.8108581,48.9588592 88.6188571,48.5508571 C88.4268562,48.1428551 88.1388591,47.9028575 87.7548571,47.8308571 C86.9388531,47.5908559 86.0388621,47.7228546 85.0548571,48.2268571 C84.6468551,48.4188581 84.2628589,48.6588557 83.9028571,48.9468571 C83.5833018,49.2025014 83.2732056,49.4392324 82.9725613,49.6570556 C82.2407181,49.94786 81.6208218,50.1851252 81.1128571,50.3688571 C80.5488543,50.5728582 80.0868589,50.7468564 79.7268571,50.8908571 C79.7988575,50.7948567 79.8648568,50.6928577 79.9248571,50.5848571 C79.9848574,50.4768566 80.0388569,50.3988574 80.0868571,50.3508571 C80.5668595,49.6548537 80.9628556,49.01886 81.2748571,48.4428571 C81.5868587,47.8668543 81.6348582,47.3028599 81.4188571,46.7508571 C81.3708569,46.5828563 81.262858,46.3908582 81.0948571,46.1748571 C80.9268563,45.9588561 80.6388592,45.7908577 80.2308571,45.6708571 C79.7268546,45.5268564 79.2048598,45.5328564 78.6648571,45.6888571 C78.1248544,45.8448579 77.5848598,46.0908555 77.0448571,46.4268571 C76.5048544,46.7628588 75.95286,47.1648548 75.3888571,47.6328571 C74.8248543,48.1008595 74.25486,48.5988545 73.6788571,49.1268571 C73.5588565,49.2468577 73.4328578,49.3608566 73.3008571,49.4688571 C73.1688565,49.5768577 73.0428577,49.6908565 72.9228571,49.8108571 C72.7068561,50.0028581 72.5868573,50.2488556 72.5628571,50.5488571 C72.538857,50.8488586 72.6348561,51.1068561 72.8508571,51.3228571 C73.0428581,51.5628583 73.2888556,51.6888571 73.5888571,51.7008571 C73.8888586,51.7128572 74.1468561,51.6228581 74.3628571,51.4308571 C74.4828577,51.3108565 74.6088565,51.1968577 74.7408571,51.0888571 C74.8728578,50.9808566 74.9988565,50.8668577 75.1188571,50.7468571 C75.6228597,50.2908549 76.1148547,49.8528592 76.5948571,49.4328571 C77.0748595,49.012855 77.530855,48.6708585 77.9628571,48.4068571 C78.2268585,48.2148562 78.4608561,48.0708576 78.6648571,47.9748571 C78.8688582,47.8788567 79.0428564,47.8068574 79.1868571,47.7588571 C79.1388569,47.8308575 79.1028573,47.878857 79.0788571,47.9028571 C78.9588565,48.0948581 78.8388577,48.2988561 78.7188571,48.5148571 C78.5988565,48.7308582 78.4668579,48.9348562 78.3228571,49.1268571 C77.8668549,49.7508603 77.4888586,50.3448543 77.1888571,50.9088571 C76.8888556,51.47286 76.8348562,52.0188545 77.0268571,52.5468571 C77.0748574,52.6668577 77.1768564,52.8288561 77.3328571,53.0328571 C77.4888579,53.2368582 77.7588552,53.3868567 78.1428571,53.4828571 C78.2148575,53.5068573 78.3108565,53.5188571 78.4308571,53.5188571 C78.5508577,53.5188571 78.6648566,53.5008573 78.7728571,53.4648571 C78.8808577,53.428857 79.0308562,53.3868574 79.2228571,53.3388571 L79.7088571,53.1768571 C79.888858,53.1168568 80.0988559,53.0388576 80.3388571,52.9428571 C80.7708593,52.7748563 81.298854,52.5828582 81.9228571,52.3668571 C82.5468603,52.1508561 83.2428533,51.9108585 84.0108571,51.6468571 C84.2014565,51.5602211 84.3576528,51.4329303 84.4794484,51.2649826 C84.7527646,51.0467608 85.0225659,50.8320536 85.2888571,50.6208571 C85.6368589,50.3448558 85.9668556,50.1468577 86.2788571,50.0268571 C86.1588565,50.2428582 86.0508576,50.4708559 85.9548571,50.7108571 C85.8588567,50.9508583 85.7628576,51.1668562 85.6668571,51.3588571 C85.1388545,52.4388625 84.7608583,53.3208537 84.5328571,54.0048571 C84.304856,54.6888606 84.2988561,55.2708547 84.5148571,55.7508571 C84.682858,56.1348591 84.982855,56.3868565 85.4148571,56.5068571 C85.582858,56.5548574 85.7448564,56.590857 85.9008571,56.6148571 C86.0568579,56.6388573 86.2308562,56.6508571 86.4228571,56.6508571 C88.2708664,56.6508571 90.8508406,55.3428702 94.1628571,52.7268571 C94.4748587,52.4628558 94.7688558,52.2228582 95.0448571,52.0068571 C95.3208585,51.7908561 95.5908558,51.5628583 95.8548571,51.3228571 C95.6388561,51.9468603 95.5008574,52.4568552 95.4408571,52.8528571 C95.3808568,53.2488591 95.4228564,53.6148555 95.5668571,53.9508571 C95.734858,54.2868588 96.0108552,54.5268564 96.3948571,54.6708571 C96.97086,54.8148579 97.5588541,54.8208578 98.1588571,54.6888571 C98.7588601,54.5568565 99.3528542,54.3288588 99.9408571,54.0048571 C100.52886,53.6808555 101.110854,53.2968594 101.686857,52.8528571 C102.200232,52.4571306 102.704068,52.0375786 103.198377,51.5941911 C103.873616,51.3462072 104.56977,51.0877648 105.286857,50.8188571 C106.054861,50.5308557 106.804853,50.2488585 107.536857,49.9728571 C108.268861,49.6968558 108.958854,49.4388583 109.606857,49.1988571 C110.25486,48.9588559 110.830855,48.7428581 111.334857,48.5508571 C111.262857,48.7908583 111.178858,49.0608556 111.082857,49.3608571 C110.986857,49.6608586 110.878858,50.0148551 110.758857,50.4228571 C110.518856,51.1188606 110.308858,51.7428544 110.128857,52.2948571 C109.948856,52.8468599 109.858857,53.134857 109.858857,53.1588571 C109.690856,53.6388595 109.798855,54.0348556 110.182857,54.3468571 C110.374858,54.514858 110.614856,54.5988571 110.902857,54.5988571 C111.118858,54.5988571 111.298856,54.5388577 111.442857,54.4188571 C111.92286,54.1548558 112.462854,53.8668587 113.062857,53.5548571 C113.56686,53.2908558 114.166854,52.9908588 114.862857,52.6548571 C115.528111,52.3336999 116.248171,52.0015842 117.023056,51.658501 C117.14967,51.6213414 117.269603,51.5574602 117.382857,51.4668571 C117.742859,51.1788557 118.096855,50.8968585 118.444857,50.6208571 C118.792859,50.3448558 119.122856,50.1468577 119.434857,50.0268571 C119.314857,50.2428582 119.206858,50.4708559 119.110857,50.7108571 C119.014857,50.9508583 118.918858,51.1668562 118.822857,51.3588571 C118.294855,52.4388625 117.916858,53.3208537 117.688857,54.0048571 C117.460856,54.6888606 117.454856,55.2708547 117.670857,55.7508571 C117.838858,56.1348591 118.138855,56.3868565 118.570857,56.5068571 C118.738858,56.5548574 118.900856,56.590857 119.056857,56.6148571 C119.212858,56.6388573 119.386856,56.6508571 119.578857,56.6508571 C121.426866,56.6508571 124.006841,55.3428702 127.318857,52.7268571 C127.630859,52.4628558 127.924856,52.2228582 128.200857,52.0068571 C128.476859,51.7908561 128.746856,51.5628583 129.010857,51.3228571 C128.794856,51.9468603 128.656857,52.4568552 128.596857,52.8528571 C128.536857,53.2488591 128.578856,53.6148555 128.722857,53.9508571 C128.890858,54.2868588 129.166855,54.5268564 129.550857,54.6708571 C130.12686,54.8148579 130.714854,54.8208578 131.314857,54.6888571 C131.91486,54.5568565 132.508854,54.3288588 133.096857,54.0048571 C133.68486,53.6808555 134.266854,53.2968594 134.842857,52.8528571 C135.41886,52.4088549 135.982854,51.9348597 136.534857,51.4308571 C136.774858,51.2148561 136.900857,50.9628586 136.912857,50.6748571 C136.924857,50.3868557 136.834858,50.1228583 136.642857,49.8828571 C136.426856,49.6668561 136.174859,49.5468573 135.886857,49.5228571 C135.598856,49.498857 135.334858,49.5948561 135.094857,49.8108571 C134.830856,50.0268582 134.530859,50.2848556 134.194857,50.5848571 C133.858855,50.8848586 133.498859,51.1668558 133.114857,51.4308571 C132.730855,51.6948585 132.346859,51.9348561 131.962857,52.1508571 C131.578855,52.3668582 131.218859,52.4988569 130.882857,52.5468571 C130.930857,52.4028564 130.966857,52.2708577 130.990857,52.1508571 C131.110858,51.8868558 131.236856,51.5988587 131.368857,51.2868571 C131.500858,50.9748556 131.638856,50.6628587 131.782857,50.3508571 C132.166859,49.3908523 132.430856,48.6828594 132.574857,48.2268571 C132.718858,47.7708549 132.706858,47.3748588 132.538857,47.0388571 C132.466857,46.9188565 132.370858,46.7988577 132.250857,46.6788571 C132.130857,46.5588565 131.974858,46.4748574 131.782857,46.4268571 C131.374855,46.3068565 131.026859,46.4148555 130.738857,46.7508571 L130.342857,47.1468571 C130.078856,47.4108585 129.730859,47.7468551 129.298857,48.1548571 C128.866855,48.5628592 128.36286,49.0188546 127.786857,49.5228571 C127.210854,50.0268597 126.59886,50.5428545 125.950857,51.0708571 C125.110853,51.7188604 124.36686,52.258855 123.718857,52.6908571 C123.070854,53.1228593 122.50086,53.4648559 122.008857,53.7168571 C121.516855,53.9688584 121.084859,54.1548565 120.712857,54.2748571 C120.340855,54.3948577 120.034858,54.466857 119.794857,54.4908571 L119.866857,54.2748571 C119.890857,54.2028568 119.926857,54.1188576 119.974857,54.0228571 C120.094858,53.7588558 120.220856,53.4828586 120.352857,53.1948571 C120.484858,52.9068557 120.610857,52.6188586 120.730857,52.3308571 C121.21086,51.3228521 121.552856,50.5428599 121.756857,49.9908571 C121.960858,49.4388544 121.966858,48.9588592 121.774857,48.5508571 C121.582856,48.1428551 121.294859,47.9028575 120.910857,47.8308571 C120.094853,47.5908559 119.194862,47.7228546 118.210857,48.2268571 C117.802855,48.4188581 117.418859,48.6588557 117.058857,48.9468571 C116.698855,49.2348586 116.350859,49.4988559 116.014857,49.7388571 C116.008003,49.7457108 116.001234,49.7526007 115.99455,49.7595268 Z" id="jane-dowaad" fill="#1E1E1E"></path>
            </g>
            <g id="Login-Button" transform="translate(960.000000, 622.000000)">
                <g id="Rectangle-2-Copy-4">
                    <use fill="#1E1E1E" fill-rule="evenodd" xlink:href="#path-3"></use>
                    <rect stroke="#1E1E1E" stroke-width="5" x="3.03571429" y="2.53571429" width="159.285714" height="77.1428571"></rect>
                </g>
                <path d="M40.922115,41.6557876 C41.4778121,42.1550797 41.5933149,42.6819677 41.5933149,43.0330124 C41.5933149,43.3840571 41.475887,43.9070945 40.9227566,44.4051031 C40.5467307,44.7409594 40.1709186,45.0768158 39.7953204,45.4126721 C38.3470428,46.7064676 36.8493557,48.0439031 35.3516685,49.3274305 C34.9698674,49.6540882 34.6458177,49.7625462 34.3891447,49.7625462 C34.2254512,49.7631457 34.0647407,49.7187449 33.9245665,49.6341935 C33.6216923,49.4519326 33.2540082,49.0071904 33.2244908,47.9161922 C33.2071654,47.2712197 33.2110155,46.6435748 33.2148656,45.9164566 C33.2148656,45.8043618 33.2148656,45.689914 33.2148656,45.573113 L32.156731,45.573113 C30.9497261,45.5763218 29.8094562,45.5795306 28.6646945,45.5654118 C27.6688031,45.5532183 26.898784,45.2188595 26.4425477,44.5989158 C26.1024559,44.1362041 25.9535856,43.5406475 26.0126204,42.8770638 C26.156999,41.2591776 27.0232704,40.4383619 28.5876925,40.4383619 L28.645444,40.4383619 C29.7934141,40.4531224 30.9413842,40.4499136 32.1605811,40.4467048 L33.2103738,40.446063 C33.2103738,40.3801753 33.2103738,40.3147154 33.2103738,40.2496834 C33.2052403,39.5841744 33.2001069,38.9571713 33.2212824,38.3154077 C33.2328327,37.9483188 33.270692,36.8316501 33.9386835,36.4343983 C34.5771577,36.0538325 35.2464326,36.6250022 35.4665297,36.8130389 C36.9584417,38.0869398 38.4458619,39.4269423 39.8838726,40.7226632 L40.922115,41.6557876 Z M58.7871995,27.7109048 C58.8057078,27.76163 58.8291339,27.8104225 58.8571429,27.8565851 L58.8571429,54.7991075 C58.8365292,54.8235448 58.8194636,54.8507668 58.8064499,54.8799698 C58.4483911,56.2238229 57.5603024,56.9233453 56.212769,56.9233453 C55.0911078,56.9252706 53.9675217,56.923987 52.8452188,56.9329717 C51.5977879,56.9438817 50.3400901,56.9008836 49.0952259,56.9971481 C47.7014913,57.1043226 46.317382,57.3430587 44.9287809,57.5201855 C44.4301936,57.5837201 43.9816575,57.4502333 43.5639221,57.157589 C43.4118031,57.0501345 43.23212,56.9884511 43.0460843,56.9798205 C41.5477555,56.970194 40.0513517,56.9855964 38.5543063,56.9798205 C37.321634,56.9759699 36.2981503,56.0916196 36.1268211,54.8305539 C36.0504609,54.2690107 36.0921702,53.6862893 36.0921702,53.1138361 C36.1053016,53.0435358 36.145957,52.9813898 36.2051064,52.9412017 C36.5804907,52.6690939 36.9616501,52.405329 37.3396012,52.1357883 C37.6058994,51.9458263 37.8664225,51.7500883 38.1872638,51.5177699 C38.1872638,52.1037001 38.178922,52.6081264 38.1872638,53.1131944 C38.2052309,54.1997003 38.9912921,55.1623458 40.0340263,55.2669532 C40.8072538,55.3433231 41.5926732,55.2849226 42.3710342,55.316369 C42.7027841,55.3304878 42.7990365,55.2335815 42.7990365,54.8812533 C42.7913363,50.8997515 42.7990365,46.9143991 42.7990365,42.9354643 C42.7981809,37.9823323 42.8022449,33.0296281 42.8112284,28.0773518 C42.8118701,27.8148705 42.7560437,27.7051289 42.4762701,27.7141136 C41.813412,27.7352918 41.1499123,27.7186059 40.4870542,27.7250236 C39.1157785,27.7372171 38.1769969,28.7082055 38.1769969,30.1252197 C38.1769969,31.4491782 38.1769969,32.7724948 38.1769969,34.0964533 C38.1769969,34.1984937 38.16673,34.3024594 38.1596715,34.4308122 C37.4737128,33.9456388 36.8191966,33.4887031 36.177514,33.0189321 C36.1191209,32.9746504 36.0928119,32.8495065 36.0928119,32.7622266 C36.0896035,31.2617832 36.0806199,29.7613397 36.0973037,28.261538 C36.1101373,27.121124 36.8557725,26.1494938 37.9299491,25.8805948 C38.288008,25.7907479 38.6698091,25.7759873 39.0413433,25.771495 C40.2708071,25.7548091 41.500271,25.7637938 42.7297348,25.7548091 C42.8368958,25.7541673 43.0018082,25.7310638 43.0409508,25.6604698 C43.3386915,25.127806 43.8135366,24.8601905 44.35255,24.6785714 L44.9942326,24.6785714 C45.0717575,24.7104631 45.1518208,24.7357946 45.2335802,24.7542995 C46.7768267,24.9737827 48.3200733,25.1996835 49.865245,25.4024808 C50.8592113,25.5366095 51.8551026,25.6822898 52.8548441,25.7291386 C54.0169312,25.7836885 55.1841518,25.7272133 56.3488057,25.7349144 C57.5789112,25.7426156 58.4817586,26.4844944 58.7871995,27.7109048 Z" id="Combined-Shape" fill="#FFFFFF" fill-rule="nonzero"></path>
                <path d="M117.055088,49.908131 C116.930383,49.9967924 116.803259,50.0830341 116.673714,50.1668571 C116.469713,50.2988578 116.259715,50.4368564 116.043714,50.5808571 C115.13171,51.1808601 114.243719,51.7568544 113.379714,52.3088571 C112.51571,52.8608599 111.699718,53.3408551 110.931714,53.7488571 C109.371706,54.5648612 108.135719,54.9728571 107.223714,54.9728571 C107.103714,54.9728571 106.983715,54.9668572 106.863714,54.9548571 C106.743714,54.9428571 106.611715,54.9248573 106.467714,54.9008571 C106.179713,54.8048567 105.939715,54.6008587 105.747714,54.2888571 C105.675714,54.1448564 105.627714,53.9708582 105.603714,53.7668571 C105.579714,53.5628561 105.609714,53.2568592 105.693714,52.8488571 C105.777715,52.4408551 105.921713,51.8828607 106.125714,51.1748571 C106.329715,50.4668536 106.611712,49.5488628 106.971714,48.4208571 C106.419712,48.6128581 105.807718,48.8408558 105.135714,49.1048571 C104.508505,49.3512608 103.860398,49.5976609 103.191375,49.8440641 C102.697021,50.2874985 102.193138,50.7070928 101.679714,51.1028571 C101.103711,51.5468594 100.521717,51.9308555 99.9337143,52.2548571 C99.3457113,52.5788588 98.7517173,52.8068565 98.1517143,52.9388571 C97.5517113,53.0708578 96.9637172,53.0648579 96.3877143,52.9208571 C96.0037124,52.7768564 95.7277151,52.5368588 95.5597143,52.2008571 C95.4157136,51.8648555 95.373714,51.4988591 95.4337143,51.1028571 C95.4937146,50.7068552 95.6317132,50.1968603 95.8477143,49.5728571 C95.583713,49.8128583 95.3137157,50.0408561 95.0377143,50.2568571 C94.7617129,50.4728582 94.4677158,50.7128558 94.1557143,50.9768571 C90.8436977,53.5928702 88.2637235,54.9008571 86.4157143,54.9008571 C86.2237133,54.9008571 86.0497151,54.8888573 85.8937143,54.8648571 C85.7377135,54.840857 85.5757151,54.8048574 85.4077143,54.7568571 C84.9757121,54.6368565 84.6757151,54.3848591 84.5077143,54.0008571 C84.2917132,53.5208547 84.2977131,52.9388606 84.5257143,52.2548571 C84.7537154,51.5708537 85.1317116,50.6888625 85.6597143,49.6088571 C85.7557148,49.4168562 85.8517138,49.2008583 85.9477143,48.9608571 C86.0437148,48.7208559 86.1517137,48.4928582 86.2717143,48.2768571 C85.9597127,48.3968577 85.629716,48.5948558 85.2817143,48.8708571 C84.9337125,49.1468585 84.5797161,49.4288557 84.2197143,49.7168571 C83.9797131,49.9088581 83.7097158,49.9808574 83.4097143,49.9328571 C83.1097128,49.8848569 82.8637152,49.7528582 82.6717143,49.5368571 C82.4797133,49.2968559 82.407714,49.0328586 82.4557143,48.7448571 C82.5037145,48.4568557 82.6357132,48.2048582 82.8517143,47.9888571 C83.187716,47.7488559 83.5357125,47.4848586 83.8957143,47.1968571 C84.2557161,46.9088557 84.6397122,46.6688581 85.0477143,46.4768571 C86.0317192,45.9728546 86.9317102,45.8408559 87.7477143,46.0808571 C88.1317162,46.1528575 88.4197133,46.3928551 88.6117143,46.8008571 C88.8037152,47.2088592 88.7977153,47.6888544 88.5937143,48.2408571 C88.3897133,48.7928599 88.0477167,49.5728521 87.5677143,50.5808571 C87.4477137,50.8688586 87.3217149,51.1568557 87.1897143,51.4448571 C87.0577136,51.7328586 86.9317149,52.0088558 86.8117143,52.2728571 C86.763714,52.3688576 86.7277144,52.4528568 86.7037143,52.5248571 L86.6317143,52.7408571 C86.8717155,52.716857 87.1777124,52.6448577 87.5497143,52.5248571 C87.9217161,52.4048565 88.3537118,52.2188584 88.8457143,51.9668571 C89.3377167,51.7148559 89.907711,51.3728593 90.5557143,50.9408571 C91.2037175,50.508855 91.9477101,49.9688604 92.7877143,49.3208571 C93.4357175,48.7928545 94.0477114,48.2768597 94.6237143,47.7728571 C95.1997172,47.2688546 95.7037121,46.8128592 96.1357143,46.4048571 C96.5677164,45.9968551 96.915713,45.6608585 97.1797143,45.3968571 L97.5757143,45.0008571 C97.8637157,44.6648555 98.2117122,44.5568565 98.6197143,44.6768571 C98.8117152,44.7248574 98.9677137,44.8088565 99.0877143,44.9288571 C99.2077149,45.0488577 99.3037139,45.1688565 99.3757143,45.2888571 C99.5437151,45.6248588 99.555715,46.0208549 99.4117143,46.4768571 C99.2677136,46.9328594 99.0037162,47.6408523 98.6197143,48.6008571 C98.4757136,48.9128587 98.3377149,49.2248556 98.2057143,49.5368571 C98.0737136,49.8488587 97.9477149,50.1368558 97.8277143,50.4008571 C97.8037142,50.5208577 97.7677145,50.6528564 97.7197143,50.7968571 C98.055716,50.7488569 98.4157124,50.6168582 98.7997143,50.4008571 C99.1837162,50.1848561 99.5677124,49.9448585 99.9517143,49.6808571 C100.335716,49.4168558 100.695713,49.1348586 101.031714,48.8348571 C101.367716,48.5348556 101.667713,48.2768582 101.931714,48.0608571 C101.979216,48.0181053 102.027658,47.9800544 102.077041,47.9467044 C102.152739,47.8928966 102.236297,47.8469476 102.327714,47.8088571 C103.095718,47.5208557 103.839711,47.2448585 104.559714,46.9808571 C105.279718,46.7168558 105.915712,46.4828582 106.467714,46.2788571 C107.019717,46.0748561 107.463713,45.9068578 107.799714,45.7748571 L108.303714,45.5768571 C108.543715,45.4808567 108.771713,45.4688568 108.987714,45.5408571 C109.299716,45.6128575 109.527714,45.7928557 109.671714,46.0808571 C109.791715,46.2968582 109.833714,46.4888563 109.797714,46.6568571 C109.761714,46.824858 109.719715,47.0048562 109.671714,47.1968571 C109.623714,47.2928576 109.587714,47.3948566 109.563714,47.5028571 C109.539714,47.6108577 109.503715,47.7368564 109.455714,47.8808571 C109.287713,48.2888592 109.113715,48.7868542 108.933714,49.3748571 C108.753713,49.9628601 108.567715,50.5568541 108.375714,51.1568571 C108.255714,51.4928588 108.159715,51.7808559 108.087714,52.0208571 C108.015714,52.2608583 107.955715,52.4768562 107.907714,52.6688571 C108.363717,52.5728567 109.02371,52.2968594 109.887714,51.8408571 C110.631718,51.4328551 111.42371,50.9648598 112.263714,50.4368571 C113.103718,49.9088545 113.97971,49.3328603 114.891714,48.7088571 L115.467714,48.3488571 C115.659715,48.2288565 115.851713,48.0968579 116.043714,47.9528571 C116.159264,47.8793254 116.277112,47.8276328 116.397259,47.7977794 C117.154803,47.5137765 117.888947,47.2414718 118.599714,46.9808571 C119.319718,46.7168558 119.955712,46.4828582 120.507714,46.2788571 C121.059717,46.0748561 121.503713,45.9068578 121.839714,45.7748571 L122.343714,45.5768571 C122.583715,45.4808567 122.811713,45.4688568 123.027714,45.5408571 C123.339716,45.6128575 123.567714,45.7928557 123.711714,46.0808571 C123.831715,46.2968582 123.873714,46.4888563 123.837714,46.6568571 C123.801714,46.824858 123.759715,47.0048562 123.711714,47.1968571 C123.663714,47.2928576 123.627714,47.3948566 123.603714,47.5028571 C123.579714,47.6108577 123.543715,47.7368564 123.495714,47.8808571 C123.327713,48.2888592 123.153715,48.7868542 122.973714,49.3748571 C122.793713,49.9628601 122.607715,50.5568541 122.415714,51.1568571 C122.295714,51.4928588 122.199715,51.7808559 122.127714,52.0208571 C122.055714,52.2608583 121.995715,52.4768562 121.947714,52.6688571 C122.403717,52.5728567 123.06371,52.2968594 123.927714,51.8408571 C124.671718,51.4328551 125.46371,50.9648598 126.303714,50.4368571 C127.143718,49.9088545 128.01971,49.3328603 128.931714,48.7088571 L129.507714,48.3488571 C129.699715,48.2288565 129.891713,48.0968579 130.083714,47.9528571 C130.347716,47.7848563 130.623713,47.7308568 130.911714,47.7908571 C131.199716,47.8508574 131.439713,48.0128558 131.631714,48.2768571 C131.799715,48.5408585 131.853715,48.8108558 131.793714,49.0868571 C131.733714,49.3628585 131.571716,49.5848563 131.307714,49.7528571 C131.115713,49.8968579 130.917715,50.0348565 130.713714,50.1668571 C130.509713,50.2988578 130.299715,50.4368564 130.083714,50.5808571 C129.17171,51.1808601 128.283719,51.7568544 127.419714,52.3088571 C126.55571,52.8608599 125.739718,53.3408551 124.971714,53.7488571 C123.411706,54.5648612 122.175719,54.9728571 121.263714,54.9728571 C121.143714,54.9728571 121.023715,54.9668572 120.903714,54.9548571 C120.783714,54.9428571 120.651715,54.9248573 120.507714,54.9008571 C120.219713,54.8048567 119.979715,54.6008587 119.787714,54.2888571 C119.715714,54.1448564 119.667714,53.9708582 119.643714,53.7668571 C119.619714,53.5628561 119.649714,53.2568592 119.733714,52.8488571 C119.817715,52.4408551 119.961713,51.8828607 120.165714,51.1748571 C120.369715,50.4668536 120.651712,49.5488628 121.011714,48.4208571 C120.459712,48.6128581 119.847718,48.8408558 119.175714,49.1048571 C118.503711,49.3688585 117.807718,49.6328558 117.087714,49.8968571 C117.076849,49.9008082 117.065973,49.9045661 117.055088,49.908131 Z" id="buy" fill="#FFFFFF"></path>
            </g>
        </g>
    </g>
</svg>