<?xml version="1.0" encoding="UTF-8"?>
<svg width="1920px" height="1080px" viewBox="0 0 1920 1080" version="1.1" xmlns="http://www.w3.org/2000/svg" xmlns:xlink="http://www.w3.org/1999/xlink">
    <!-- Generator: Sketch 46.2 (44496) - http://www.bohemiancoding.com/sketch -->
    <title>loginForm</title>
    <desc>Created with Sketch.</desc>
    <defs>
        <rect id="path-1" x="0" y="0" width="560" height="560"></rect>
        <mask id="mask-2" maskContentUnits="userSpaceOnUse" maskUnits="objectBoundingBox" x="0" y="0" width="560" height="560" fill="white">
            <use xlink:href="#path-1"></use>
        </mask>
        <rect id="path-3" x="280" y="380" width="200" height="100"></rect>
    </defs>
    <g id="Examples" stroke="none" stroke-width="1" fill="none" fill-rule="evenodd">
        <g id="loginForm">
            <rect id="Rectangle" fill="#FFFFFF" x="0" y="0" width="960" height="1080"></rect>
            <g id="Login-Form" transform="translate(200.000000, 260.000000)">
                <use id="Rectangle-2-Copy" stroke="#1E1E1E" mask="url(#mask-2)" stroke-width="10" stroke-dasharray="25" xlink:href="#path-1"></use>
                <rect id="Rectangle-2-Copy-2" stroke="#1E1E1E" stroke-width="5" x="82.5" y="82.5" width="395" height="95"></rect>
                <rect id="Rectangle-2-Copy-3" stroke="#1E1E1E" stroke-width="5" x="82.5" y="222.5" width="395" height="95"></rect>
                <g id="Rectangle-2-Copy-4">
                    <use fill="#1E1E1E" fill-rule="evenodd" xlink:href="#path-3"></use>
                    <rect stroke="#1E1E1E" stroke-width="5" x="282.5" y="382.5" width="195" height="95"></rect>
                </g>
                <g id="Password" transform="translate(114.000000, 250.000000)" fill-rule="nonzero" fill="#1E1E1E">
                    <path d="M29.3333333,17.3333333 L27.3333333,17.3333333 L27.3333333,11.6666667 C27.3333333,5.234 22.0993333,0 15.6666667,0 C9.234,0 4,5.234 4,11.6666667 L4,17.3333333 L2.66666667,17.3333333 C1.194,17.3333333 0,18.5273333 0,20 L0,37.3333333 C0,38.806 1.194,40 2.66666667,40 L29.3333333,40 C30.806,40 32,38.806 32,37.3333333 L32,20 C32,18.5273333 30.806,17.3333333 29.3333333,17.3333333 Z M18,31.3333333 C18,32.438 17.1046667,33.3333333 16,33.3333333 C14.8953333,33.3333333 14,32.438 14,31.3333333 L14,26 C14,24.8953333 14.8953333,24 16,24 C17.1046667,24 18,24.8953333 18,26 L18,31.3333333 Z M8,17.3333333 L8,11.6666667 C8,7.43933333 11.4393333,4 15.6666667,4 C19.894,4 23.3333333,7.43933333 23.3333333,11.6666667 L23.3333333,17.3333333 L8,17.3333333 Z" id="Shape"></path>
                </g>
                <g id="User-Name" transform="translate(110.000000, 110.000000)" fill-rule="nonzero" fill="#1E1E1E">
                    <path d="M39.9989844,39.9992188 L39.9989844,35.8024219 C39.9989844,33.7638281 38.6807031,32.0330469 36.8509375,31.4202344 L36.8509375,31.4202344 C36.706875,31.3714063 27.3408594,28.9789844 26.000625,26.3178125 C25.3891406,25.1019531 25.9921094,23.5445313 26.6024219,22.4703125 C26.8817969,22.0942969 27.1551563,21.6964063 27.4178125,21.2789063 C27.4178125,21.2764844 27.4178125,21.2764844 27.4178125,21.2764844 L27.4178125,21.2764844 C29.0047656,18.7375 30.2157031,15.3978125 30.3388281,11.2696094 C30.524375,5.0590625 25.7186719,0.015234375 20.0135156,0.000625 L20.0135156,0.000625 C20.0085938,0.000625 20.005,0.000625 20.0000781,0.000625 C19.9963281,0.000625 19.9915625,0.000625 19.9865625,0.000625 L19.9865625,0.000625 C14.2825,0.015234375 9.476875,5.0590625 9.66359375,11.2697656 C9.786875,15.3980469 10.9966406,18.7377344 12.5833594,21.2766406 L12.5833594,21.2766406 C12.5833594,21.2766406 12.5846875,21.2766406 12.5846875,21.2790625 C12.8459375,21.6965625 13.119375,22.0945313 13.3988281,22.4704688 C14.0092188,23.5446875 14.6121094,25.1021875 14.000625,26.3179688 C12.6614844,28.9789844 3.29429688,31.3715625 3.15023438,31.4203906 L3.15023438,31.4203906 C1.32054688,32.0333594 0.0009375,33.7639844 0.0009375,35.8027344 L0.0009375,39.999375 L39.9989844,39.9992188 L39.9989844,39.9992188 Z" id="Shape"></path>
                </g>
                <g id="Login-Button" transform="translate(311.000000, 397.000000)" fill="#FFFFFF">
                    <path d="M18.166053,33.6679153 C18.8425538,34.2757492 18.983166,34.917178 18.983166,35.3445368 C18.983166,35.7718956 18.8402103,36.4086368 18.1668342,37.0149082 C17.7090634,37.4237767 17.251553,37.8326453 16.794303,38.2415138 C15.0311825,39.8165693 13.2079112,41.4447516 11.38464,43.0073067 C10.9198386,43.4049769 10.5253433,43.5370128 10.2128718,43.5370128 C10.0135927,43.5377425 9.81794515,43.4836894 9.64729835,43.3807573 C9.27858196,43.1588745 8.83096652,42.6174492 8.7950323,41.2892774 C8.77394047,40.5040935 8.77862754,39.7400041 8.78331462,38.8548167 C8.78331462,38.7183536 8.78331462,38.5790257 8.78331462,38.4368332 L7.4951508,38.4368332 C6.02575351,38.4407396 4.63759881,38.444646 3.24397586,38.4274579 C2.03158639,38.4126136 1.09417185,38.005568 0.53875373,37.250854 C0.124728975,36.6875529 -0.0565045032,35.9625273 0.015363945,35.1546864 C0.191129171,33.1850858 1.24572053,32.1858319 3.1502344,32.1858319 L3.2205405,32.1858319 C4.61806934,32.2038012 6.01559818,32.1998948 7.49983787,32.1959885 L8.77784636,32.1952072 C8.77784636,32.114996 8.77784636,32.0353057 8.77784636,31.9561363 C8.77159693,31.1459515 8.7653475,30.3826434 8.7911264,29.6013658 C8.80518762,29.1544751 8.85127717,27.7950522 9.66448428,27.3114415 C10.4417572,26.8481439 11.2565266,27.5434809 11.524471,27.7723952 C13.3407116,29.3232311 15.1514841,30.9545385 16.9021057,32.5319378 L18.166053,33.6679153 Z M39.9148515,16.6915362 C39.9373834,16.7532886 39.9659021,16.8126882 40,16.8688862 L40,49.6684787 C39.9749052,49.6982285 39.9541296,49.7313683 39.9382869,49.7669197 C39.5023891,51.4029148 38.4212377,52.2545073 36.7807622,52.2545073 C35.4152617,52.2568511 34.0474177,52.2552886 32.681136,52.2662265 C31.1625244,52.2795082 29.631414,52.2271626 28.1159272,52.3443542 C26.4192068,52.4748276 24.7342042,52.7654628 23.0437333,52.9810954 C22.4367574,53.0584419 21.8907134,52.8959361 21.382166,52.5396736 C21.1969777,52.4088594 20.978233,52.3337665 20.7517548,52.3232597 C18.9277023,52.3115406 17.1059934,52.3302912 15.2835033,52.3232597 C13.7828588,52.3185721 12.5368787,51.2419716 12.3283039,49.7067613 C12.2353437,49.0231435 12.2861203,48.3137435 12.2861203,47.616844 C12.3021063,47.531261 12.3515999,47.455605 12.4236077,47.4066803 C12.8805973,47.0754187 13.3446175,46.7543136 13.8047318,46.4261771 C14.128921,46.1949189 14.4460796,45.9566293 14.836669,45.6738068 C14.836669,46.3871132 14.8265137,47.0011973 14.836669,47.6160627 C14.858542,48.9387655 15.815486,50.1106818 17.0849016,50.23803 C18.026222,50.3310021 18.9823848,50.2599058 19.9299547,50.2981884 C20.3338241,50.3153765 20.4510009,50.1974036 20.4510009,49.7684823 C20.4416268,44.9214366 20.4510009,40.0697032 20.4510009,35.2257827 C20.4499594,29.1958828 20.4549068,23.1665038 20.4658433,17.1376457 C20.4666245,16.8181032 20.398662,16.6845047 20.058068,16.6954426 C19.2511103,16.7212248 18.4433715,16.7009116 17.6364138,16.7087243 C15.9670347,16.7235686 14.8241702,17.9056415 14.8241702,19.6307022 C14.8241702,21.2424777 14.8241702,22.853472 14.8241702,24.4652475 C14.8241702,24.5894706 14.8116713,24.7160376 14.8030783,24.8722931 C13.9679982,24.2816473 13.1711958,23.7253777 12.3900171,23.1534825 C12.3189298,23.0995744 12.2869015,22.9472253 12.2869015,22.8409715 C12.2829956,21.0143447 12.2720591,19.1877179 12.2923697,17.3618723 C12.3079933,15.9735422 13.215723,14.7906881 14.5234163,14.4633328 C14.9593141,14.3539539 15.4241155,14.3359845 15.876418,14.3305156 C17.3731565,14.3102024 18.8698951,14.3211403 20.3666336,14.3102024 C20.4970905,14.3094211 20.6978534,14.2812951 20.7455053,14.1953546 C21.1079723,13.5468943 21.6860446,13.2211015 22.3422348,13 L23.1234136,13 C23.2177918,13.0388246 23.3152601,13.069663 23.4147932,13.0921907 C25.2935282,13.3593877 27.1722632,13.6343973 29.0533417,13.881281 C30.2633876,14.044568 31.4757771,14.221918 32.6928537,14.2789513 C34.1075684,14.3453599 35.5285326,14.2766075 36.9463721,14.2859828 C38.4438919,14.2953581 39.5430104,15.1985149 39.9148515,16.6915362 Z" id="Combined-Shape" fill-rule="nonzero"></path>
                    <text id="buy" font-family="RedactedScript, Redacted Script" font-size="50" font-weight="normal">
                        <tspan x="69" y="49">buy</tspan>
                    </text>
                </g>
            </g>
        </g>
    </g>
</svg>