<?xml version="1.0" encoding="UTF-8"?>
<svg width="1920px" height="1080px" viewBox="0 0 1920 1080" version="1.1" xmlns="http://www.w3.org/2000/svg" xmlns:xlink="http://www.w3.org/1999/xlink">
    <!-- Generator: Sketch 46.2 (44496) - http://www.bohemiancoding.com/sketch -->
    <title>login23</title>
    <desc>Created with Sketch.</desc>
    <defs>
        <rect id="path-1" x="0" y="0" width="50" height="270"></rect>
        <rect id="path-3" x="0" y="0" width="50" height="270"></rect>
        <rect id="path-5" x="0" y="0" width="50" height="270"></rect>
        <rect id="path-7" x="0" y="0" width="50" height="270"></rect>
        <rect id="path-9" x="0" y="0" width="50" height="270"></rect>
        <rect id="path-11" x="0" y="0" width="50" height="270"></rect>
        <rect id="path-13" x="0" y="0" width="50" height="270"></rect>
        <rect id="path-15" x="0" y="0" width="50" height="270"></rect>
        <rect id="path-17" x="0" y="0" width="50" height="270"></rect>
        <rect id="path-19" x="0" y="0" width="50" height="270"></rect>
        <rect id="path-21" x="14" y="75" width="23" height="24"></rect>
    </defs>
    <g id="Actual-Slides" stroke="none" stroke-width="1" fill="none" fill-rule="evenodd">
        <g id="login23">
            <g id="Top-Arrow" transform="translate(1293.000000, 233.000000) scale(-1, 1) translate(-1293.000000, -233.000000) translate(1142.000000, 183.000000)">
                <polyline id="Path-12" stroke="#FFFFFF" stroke-width="6" points="0 0.162597656 278.937515 0.162597656 278.937515 91.3686523"></polyline>
                <polygon id="Shape" fill="#FFFFFF" fill-rule="nonzero" transform="translate(278.937515, 82.195018) scale(-1, 1) translate(-278.937515, -82.195018) " points="278.9375 99.3900367 280.875 97.7025367 301.87503 79.7025367 298.00003 75.1713367 281.93753 88.9525367 281.93753 65 275.9375 65 275.9375 88.9525367 259.875 75.1713367 256 79.7025367 277 97.7025367"></polygon>
            </g>
            <g id="All-Borders" transform="translate(590.000000, 0.000000)">
                <g id="Borders-Copy" transform="translate(690.000000, 0.000000)">
                    <g id="Lines-Copy">
                        <mask id="mask-2" fill="white">
                            <use xlink:href="#path-1"></use>
                        </mask>
                        <use id="Mask" fill="#1E1E1E" xlink:href="#path-1"></use>
                        <g id="Group-2" mask="url(#mask-2)" fill="#FFE859">
                            <g transform="translate(-224.000000, -36.000000)">
                                <rect id="Rectangle-3" transform="translate(367.265677, 185.487836) rotate(-45.000000) translate(-367.265677, -185.487836) " x="158.585677" y="163.15713" width="417.36" height="44.6614126"></rect>
                                <rect id="Rectangle-3-Copy" transform="translate(276.157984, 163.807539) rotate(-45.000000) translate(-276.157984, -163.807539) " x="67.4779843" y="141.476832" width="417.36" height="44.6614126"></rect>
                                <rect id="Rectangle-3-Copy-2" transform="translate(163.357984, 163.807539) rotate(-45.000000) translate(-163.357984, -163.807539) " x="-45.3220157" y="141.476832" width="417.36" height="44.6614126"></rect>
                                <rect id="Rectangle-3" transform="translate(480.065677, 185.487836) rotate(-45.000000) translate(-480.065677, -185.487836) " x="271.385677" y="163.15713" width="417.36" height="44.6614126"></rect>
                                <rect id="Rectangle-3-Copy" transform="translate(388.957984, 163.807539) rotate(-45.000000) translate(-388.957984, -163.807539) " x="180.277984" y="141.476832" width="417.36" height="44.6614126"></rect>
                                <rect id="Rectangle-3-Copy-2" transform="translate(276.157984, 163.807539) rotate(-45.000000) translate(-276.157984, -163.807539) " x="67.4779843" y="141.476832" width="417.36" height="44.6614126"></rect>
                                <rect id="Rectangle-3" transform="translate(592.865677, 185.487836) rotate(-45.000000) translate(-592.865677, -185.487836) " x="384.185677" y="163.15713" width="417.36" height="44.6614126"></rect>
                                <rect id="Rectangle-3-Copy-3" transform="translate(701.327215, 185.487836) rotate(-45.000000) translate(-701.327215, -185.487836) " x="492.647215" y="163.15713" width="417.36" height="44.6614126"></rect>
                                <rect id="Rectangle-3-Copy" transform="translate(501.757984, 163.807539) rotate(-45.000000) translate(-501.757984, -163.807539) " x="293.077984" y="141.476832" width="417.36" height="44.6614126"></rect>
                                <rect id="Rectangle-3-Copy-2" transform="translate(388.957984, 163.807539) rotate(-45.000000) translate(-388.957984, -163.807539) " x="180.277984" y="141.476832" width="417.36" height="44.6614126"></rect>
                            </g>
                        </g>
                    </g>
                    <g id="Lines-Copy-2" transform="translate(0.000000, 226.000000)">
                        <mask id="mask-4" fill="white">
                            <use xlink:href="#path-3"></use>
                        </mask>
                        <use id="Mask" fill="#1E1E1E" xlink:href="#path-3"></use>
                        <g id="Group-2" mask="url(#mask-4)" fill="#FFE859">
                            <g transform="translate(-223.864615, -36.529294)">
                                <rect id="Rectangle-3" transform="translate(367.265677, 185.487836) rotate(-45.000000) translate(-367.265677, -185.487836) " x="158.585677" y="163.15713" width="417.36" height="44.6614126"></rect>
                                <rect id="Rectangle-3-Copy" transform="translate(276.157984, 163.807539) rotate(-45.000000) translate(-276.157984, -163.807539) " x="67.4779843" y="141.476832" width="417.36" height="44.6614126"></rect>
                                <rect id="Rectangle-3-Copy-2" transform="translate(163.357984, 163.807539) rotate(-45.000000) translate(-163.357984, -163.807539) " x="-45.3220157" y="141.476832" width="417.36" height="44.6614126"></rect>
                                <rect id="Rectangle-3" transform="translate(480.065677, 185.487836) rotate(-45.000000) translate(-480.065677, -185.487836) " x="271.385677" y="163.15713" width="417.36" height="44.6614126"></rect>
                                <rect id="Rectangle-3-Copy" transform="translate(388.957984, 163.807539) rotate(-45.000000) translate(-388.957984, -163.807539) " x="180.277984" y="141.476832" width="417.36" height="44.6614126"></rect>
                                <rect id="Rectangle-3-Copy-2" transform="translate(276.157984, 163.807539) rotate(-45.000000) translate(-276.157984, -163.807539) " x="67.4779843" y="141.476832" width="417.36" height="44.6614126"></rect>
                                <rect id="Rectangle-3" transform="translate(592.865677, 185.487836) rotate(-45.000000) translate(-592.865677, -185.487836) " x="384.185677" y="163.15713" width="417.36" height="44.6614126"></rect>
                                <rect id="Rectangle-3-Copy-3" transform="translate(701.327215, 185.487836) rotate(-45.000000) translate(-701.327215, -185.487836) " x="492.647215" y="163.15713" width="417.36" height="44.6614126"></rect>
                                <rect id="Rectangle-3-Copy" transform="translate(501.757984, 163.807539) rotate(-45.000000) translate(-501.757984, -163.807539) " x="293.077984" y="141.476832" width="417.36" height="44.6614126"></rect>
                                <rect id="Rectangle-3-Copy-2" transform="translate(388.957984, 163.807539) rotate(-45.000000) translate(-388.957984, -163.807539) " x="180.277984" y="141.476832" width="417.36" height="44.6614126"></rect>
                            </g>
                        </g>
                    </g>
                    <g id="Lines-Copy-4" transform="translate(0.000000, 451.000000)">
                        <mask id="mask-6" fill="white">
                            <use xlink:href="#path-5"></use>
                        </mask>
                        <use id="Mask" fill="#1E1E1E" xlink:href="#path-5"></use>
                        <g id="Group-2" mask="url(#mask-6)" fill="#FFE859">
                            <g transform="translate(-224.000000, -36.000000)">
                                <rect id="Rectangle-3" transform="translate(367.265677, 185.487836) rotate(-45.000000) translate(-367.265677, -185.487836) " x="158.585677" y="163.15713" width="417.36" height="44.6614126"></rect>
                                <rect id="Rectangle-3-Copy" transform="translate(276.157984, 163.807539) rotate(-45.000000) translate(-276.157984, -163.807539) " x="67.4779843" y="141.476832" width="417.36" height="44.6614126"></rect>
                                <rect id="Rectangle-3-Copy-2" transform="translate(163.357984, 163.807539) rotate(-45.000000) translate(-163.357984, -163.807539) " x="-45.3220157" y="141.476832" width="417.36" height="44.6614126"></rect>
                                <rect id="Rectangle-3" transform="translate(480.065677, 185.487836) rotate(-45.000000) translate(-480.065677, -185.487836) " x="271.385677" y="163.15713" width="417.36" height="44.6614126"></rect>
                                <rect id="Rectangle-3-Copy" transform="translate(388.957984, 163.807539) rotate(-45.000000) translate(-388.957984, -163.807539) " x="180.277984" y="141.476832" width="417.36" height="44.6614126"></rect>
                                <rect id="Rectangle-3-Copy-2" transform="translate(276.157984, 163.807539) rotate(-45.000000) translate(-276.157984, -163.807539) " x="67.4779843" y="141.476832" width="417.36" height="44.6614126"></rect>
                                <rect id="Rectangle-3" transform="translate(592.865677, 185.487836) rotate(-45.000000) translate(-592.865677, -185.487836) " x="384.185677" y="163.15713" width="417.36" height="44.6614126"></rect>
                                <rect id="Rectangle-3-Copy-3" transform="translate(701.327215, 185.487836) rotate(-45.000000) translate(-701.327215, -185.487836) " x="492.647215" y="163.15713" width="417.36" height="44.6614126"></rect>
                                <rect id="Rectangle-3-Copy" transform="translate(501.757984, 163.807539) rotate(-45.000000) translate(-501.757984, -163.807539) " x="293.077984" y="141.476832" width="417.36" height="44.6614126"></rect>
                                <rect id="Rectangle-3-Copy-2" transform="translate(388.957984, 163.807539) rotate(-45.000000) translate(-388.957984, -163.807539) " x="180.277984" y="141.476832" width="417.36" height="44.6614126"></rect>
                            </g>
                        </g>
                    </g>
                    <g id="Lines-Copy-3" transform="translate(0.000000, 677.000000)">
                        <mask id="mask-8" fill="white">
                            <use xlink:href="#path-7"></use>
                        </mask>
                        <use id="Mask" fill="#1E1E1E" xlink:href="#path-7"></use>
                        <g id="Group-2" mask="url(#mask-8)" fill="#FFE859">
                            <g transform="translate(-223.864615, -36.529294)">
                                <rect id="Rectangle-3" transform="translate(367.265677, 185.487836) rotate(-45.000000) translate(-367.265677, -185.487836) " x="158.585677" y="163.15713" width="417.36" height="44.6614126"></rect>
                                <rect id="Rectangle-3-Copy" transform="translate(276.157984, 163.807539) rotate(-45.000000) translate(-276.157984, -163.807539) " x="67.4779843" y="141.476832" width="417.36" height="44.6614126"></rect>
                                <rect id="Rectangle-3-Copy-2" transform="translate(163.357984, 163.807539) rotate(-45.000000) translate(-163.357984, -163.807539) " x="-45.3220157" y="141.476832" width="417.36" height="44.6614126"></rect>
                                <rect id="Rectangle-3" transform="translate(480.065677, 185.487836) rotate(-45.000000) translate(-480.065677, -185.487836) " x="271.385677" y="163.15713" width="417.36" height="44.6614126"></rect>
                                <rect id="Rectangle-3-Copy" transform="translate(388.957984, 163.807539) rotate(-45.000000) translate(-388.957984, -163.807539) " x="180.277984" y="141.476832" width="417.36" height="44.6614126"></rect>
                                <rect id="Rectangle-3-Copy-2" transform="translate(276.157984, 163.807539) rotate(-45.000000) translate(-276.157984, -163.807539) " x="67.4779843" y="141.476832" width="417.36" height="44.6614126"></rect>
                                <rect id="Rectangle-3" transform="translate(592.865677, 185.487836) rotate(-45.000000) translate(-592.865677, -185.487836) " x="384.185677" y="163.15713" width="417.36" height="44.6614126"></rect>
                                <rect id="Rectangle-3-Copy-3" transform="translate(701.327215, 185.487836) rotate(-45.000000) translate(-701.327215, -185.487836) " x="492.647215" y="163.15713" width="417.36" height="44.6614126"></rect>
                                <rect id="Rectangle-3-Copy" transform="translate(501.757984, 163.807539) rotate(-45.000000) translate(-501.757984, -163.807539) " x="293.077984" y="141.476832" width="417.36" height="44.6614126"></rect>
                                <rect id="Rectangle-3-Copy-2" transform="translate(388.957984, 163.807539) rotate(-45.000000) translate(-388.957984, -163.807539) " x="180.277984" y="141.476832" width="417.36" height="44.6614126"></rect>
                            </g>
                        </g>
                    </g>
                    <g id="Lines-Copy-6" transform="translate(0.000000, 902.000000)">
                        <mask id="mask-10" fill="white">
                            <use xlink:href="#path-9"></use>
                        </mask>
                        <use id="Mask" fill="#1E1E1E" xlink:href="#path-9"></use>
                        <g id="Group-2" mask="url(#mask-10)" fill="#FFE859">
                            <g transform="translate(-224.000000, -36.000000)">
                                <rect id="Rectangle-3" transform="translate(367.265677, 185.487836) rotate(-45.000000) translate(-367.265677, -185.487836) " x="158.585677" y="163.15713" width="417.36" height="44.6614126"></rect>
                                <rect id="Rectangle-3-Copy" transform="translate(276.157984, 163.807539) rotate(-45.000000) translate(-276.157984, -163.807539) " x="67.4779843" y="141.476832" width="417.36" height="44.6614126"></rect>
                                <rect id="Rectangle-3-Copy-2" transform="translate(163.357984, 163.807539) rotate(-45.000000) translate(-163.357984, -163.807539) " x="-45.3220157" y="141.476832" width="417.36" height="44.6614126"></rect>
                                <rect id="Rectangle-3" transform="translate(480.065677, 185.487836) rotate(-45.000000) translate(-480.065677, -185.487836) " x="271.385677" y="163.15713" width="417.36" height="44.6614126"></rect>
                                <rect id="Rectangle-3-Copy" transform="translate(388.957984, 163.807539) rotate(-45.000000) translate(-388.957984, -163.807539) " x="180.277984" y="141.476832" width="417.36" height="44.6614126"></rect>
                                <rect id="Rectangle-3-Copy-2" transform="translate(276.157984, 163.807539) rotate(-45.000000) translate(-276.157984, -163.807539) " x="67.4779843" y="141.476832" width="417.36" height="44.6614126"></rect>
                                <rect id="Rectangle-3" transform="translate(592.865677, 185.487836) rotate(-45.000000) translate(-592.865677, -185.487836) " x="384.185677" y="163.15713" width="417.36" height="44.6614126"></rect>
                                <rect id="Rectangle-3-Copy-3" transform="translate(701.327215, 185.487836) rotate(-45.000000) translate(-701.327215, -185.487836) " x="492.647215" y="163.15713" width="417.36" height="44.6614126"></rect>
                                <rect id="Rectangle-3-Copy" transform="translate(501.757984, 163.807539) rotate(-45.000000) translate(-501.757984, -163.807539) " x="293.077984" y="141.476832" width="417.36" height="44.6614126"></rect>
                                <rect id="Rectangle-3-Copy-2" transform="translate(388.957984, 163.807539) rotate(-45.000000) translate(-388.957984, -163.807539) " x="180.277984" y="141.476832" width="417.36" height="44.6614126"></rect>
                            </g>
                        </g>
                    </g>
                </g>
                <g id="Borders">
                    <g id="Lines-Copy">
                        <mask id="mask-12" fill="white">
                            <use xlink:href="#path-11"></use>
                        </mask>
                        <use id="Mask" fill="#1E1E1E" xlink:href="#path-11"></use>
                        <g id="Group-2" mask="url(#mask-12)" fill="#FFE859">
                            <g transform="translate(-224.000000, -36.000000)">
                                <rect id="Rectangle-3" transform="translate(367.265677, 185.487836) rotate(-45.000000) translate(-367.265677, -185.487836) " x="158.585677" y="163.15713" width="417.36" height="44.6614126"></rect>
                                <rect id="Rectangle-3-Copy" transform="translate(276.157984, 163.807539) rotate(-45.000000) translate(-276.157984, -163.807539) " x="67.4779843" y="141.476832" width="417.36" height="44.6614126"></rect>
                                <rect id="Rectangle-3-Copy-2" transform="translate(163.357984, 163.807539) rotate(-45.000000) translate(-163.357984, -163.807539) " x="-45.3220157" y="141.476832" width="417.36" height="44.6614126"></rect>
                                <rect id="Rectangle-3" transform="translate(480.065677, 185.487836) rotate(-45.000000) translate(-480.065677, -185.487836) " x="271.385677" y="163.15713" width="417.36" height="44.6614126"></rect>
                                <rect id="Rectangle-3-Copy" transform="translate(388.957984, 163.807539) rotate(-45.000000) translate(-388.957984, -163.807539) " x="180.277984" y="141.476832" width="417.36" height="44.6614126"></rect>
                                <rect id="Rectangle-3-Copy-2" transform="translate(276.157984, 163.807539) rotate(-45.000000) translate(-276.157984, -163.807539) " x="67.4779843" y="141.476832" width="417.36" height="44.6614126"></rect>
                                <rect id="Rectangle-3" transform="translate(592.865677, 185.487836) rotate(-45.000000) translate(-592.865677, -185.487836) " x="384.185677" y="163.15713" width="417.36" height="44.6614126"></rect>
                                <rect id="Rectangle-3-Copy-3" transform="translate(701.327215, 185.487836) rotate(-45.000000) translate(-701.327215, -185.487836) " x="492.647215" y="163.15713" width="417.36" height="44.6614126"></rect>
                                <rect id="Rectangle-3-Copy" transform="translate(501.757984, 163.807539) rotate(-45.000000) translate(-501.757984, -163.807539) " x="293.077984" y="141.476832" width="417.36" height="44.6614126"></rect>
                                <rect id="Rectangle-3-Copy-2" transform="translate(388.957984, 163.807539) rotate(-45.000000) translate(-388.957984, -163.807539) " x="180.277984" y="141.476832" width="417.36" height="44.6614126"></rect>
                            </g>
                        </g>
                    </g>
                    <g id="Lines-Copy-2" transform="translate(0.000000, 226.000000)">
                        <mask id="mask-14" fill="white">
                            <use xlink:href="#path-13"></use>
                        </mask>
                        <use id="Mask" fill="#1E1E1E" xlink:href="#path-13"></use>
                        <g id="Group-2" mask="url(#mask-14)" fill="#FFE859">
                            <g transform="translate(-223.864615, -36.529294)">
                                <rect id="Rectangle-3" transform="translate(367.265677, 185.487836) rotate(-45.000000) translate(-367.265677, -185.487836) " x="158.585677" y="163.15713" width="417.36" height="44.6614126"></rect>
                                <rect id="Rectangle-3-Copy" transform="translate(276.157984, 163.807539) rotate(-45.000000) translate(-276.157984, -163.807539) " x="67.4779843" y="141.476832" width="417.36" height="44.6614126"></rect>
                                <rect id="Rectangle-3-Copy-2" transform="translate(163.357984, 163.807539) rotate(-45.000000) translate(-163.357984, -163.807539) " x="-45.3220157" y="141.476832" width="417.36" height="44.6614126"></rect>
                                <rect id="Rectangle-3" transform="translate(480.065677, 185.487836) rotate(-45.000000) translate(-480.065677, -185.487836) " x="271.385677" y="163.15713" width="417.36" height="44.6614126"></rect>
                                <rect id="Rectangle-3-Copy" transform="translate(388.957984, 163.807539) rotate(-45.000000) translate(-388.957984, -163.807539) " x="180.277984" y="141.476832" width="417.36" height="44.6614126"></rect>
                                <rect id="Rectangle-3-Copy-2" transform="translate(276.157984, 163.807539) rotate(-45.000000) translate(-276.157984, -163.807539) " x="67.4779843" y="141.476832" width="417.36" height="44.6614126"></rect>
                                <rect id="Rectangle-3" transform="translate(592.865677, 185.487836) rotate(-45.000000) translate(-592.865677, -185.487836) " x="384.185677" y="163.15713" width="417.36" height="44.6614126"></rect>
                                <rect id="Rectangle-3-Copy-3" transform="translate(701.327215, 185.487836) rotate(-45.000000) translate(-701.327215, -185.487836) " x="492.647215" y="163.15713" width="417.36" height="44.6614126"></rect>
                                <rect id="Rectangle-3-Copy" transform="translate(501.757984, 163.807539) rotate(-45.000000) translate(-501.757984, -163.807539) " x="293.077984" y="141.476832" width="417.36" height="44.6614126"></rect>
                                <rect id="Rectangle-3-Copy-2" transform="translate(388.957984, 163.807539) rotate(-45.000000) translate(-388.957984, -163.807539) " x="180.277984" y="141.476832" width="417.36" height="44.6614126"></rect>
                            </g>
                        </g>
                    </g>
                    <g id="Lines-Copy-4" transform="translate(0.000000, 451.000000)">
                        <mask id="mask-16" fill="white">
                            <use xlink:href="#path-15"></use>
                        </mask>
                        <use id="Mask" fill="#1E1E1E" xlink:href="#path-15"></use>
                        <g id="Group-2" mask="url(#mask-16)" fill="#FFE859">
                            <g transform="translate(-224.000000, -36.000000)">
                                <rect id="Rectangle-3" transform="translate(367.265677, 185.487836) rotate(-45.000000) translate(-367.265677, -185.487836) " x="158.585677" y="163.15713" width="417.36" height="44.6614126"></rect>
                                <rect id="Rectangle-3-Copy" transform="translate(276.157984, 163.807539) rotate(-45.000000) translate(-276.157984, -163.807539) " x="67.4779843" y="141.476832" width="417.36" height="44.6614126"></rect>
                                <rect id="Rectangle-3-Copy-2" transform="translate(163.357984, 163.807539) rotate(-45.000000) translate(-163.357984, -163.807539) " x="-45.3220157" y="141.476832" width="417.36" height="44.6614126"></rect>
                                <rect id="Rectangle-3" transform="translate(480.065677, 185.487836) rotate(-45.000000) translate(-480.065677, -185.487836) " x="271.385677" y="163.15713" width="417.36" height="44.6614126"></rect>
                                <rect id="Rectangle-3-Copy" transform="translate(388.957984, 163.807539) rotate(-45.000000) translate(-388.957984, -163.807539) " x="180.277984" y="141.476832" width="417.36" height="44.6614126"></rect>
                                <rect id="Rectangle-3-Copy-2" transform="translate(276.157984, 163.807539) rotate(-45.000000) translate(-276.157984, -163.807539) " x="67.4779843" y="141.476832" width="417.36" height="44.6614126"></rect>
                                <rect id="Rectangle-3" transform="translate(592.865677, 185.487836) rotate(-45.000000) translate(-592.865677, -185.487836) " x="384.185677" y="163.15713" width="417.36" height="44.6614126"></rect>
                                <rect id="Rectangle-3-Copy-3" transform="translate(701.327215, 185.487836) rotate(-45.000000) translate(-701.327215, -185.487836) " x="492.647215" y="163.15713" width="417.36" height="44.6614126"></rect>
                                <rect id="Rectangle-3-Copy" transform="translate(501.757984, 163.807539) rotate(-45.000000) translate(-501.757984, -163.807539) " x="293.077984" y="141.476832" width="417.36" height="44.6614126"></rect>
                                <rect id="Rectangle-3-Copy-2" transform="translate(388.957984, 163.807539) rotate(-45.000000) translate(-388.957984, -163.807539) " x="180.277984" y="141.476832" width="417.36" height="44.6614126"></rect>
                            </g>
                        </g>
                    </g>
                    <g id="Lines-Copy-3" transform="translate(0.000000, 677.000000)">
                        <mask id="mask-18" fill="white">
                            <use xlink:href="#path-17"></use>
                        </mask>
                        <use id="Mask" fill="#1E1E1E" xlink:href="#path-17"></use>
                        <g id="Group-2" mask="url(#mask-18)" fill="#FFE859">
                            <g transform="translate(-223.864615, -36.529294)">
                                <rect id="Rectangle-3" transform="translate(367.265677, 185.487836) rotate(-45.000000) translate(-367.265677, -185.487836) " x="158.585677" y="163.15713" width="417.36" height="44.6614126"></rect>
                                <rect id="Rectangle-3-Copy" transform="translate(276.157984, 163.807539) rotate(-45.000000) translate(-276.157984, -163.807539) " x="67.4779843" y="141.476832" width="417.36" height="44.6614126"></rect>
                                <rect id="Rectangle-3-Copy-2" transform="translate(163.357984, 163.807539) rotate(-45.000000) translate(-163.357984, -163.807539) " x="-45.3220157" y="141.476832" width="417.36" height="44.6614126"></rect>
                                <rect id="Rectangle-3" transform="translate(480.065677, 185.487836) rotate(-45.000000) translate(-480.065677, -185.487836) " x="271.385677" y="163.15713" width="417.36" height="44.6614126"></rect>
                                <rect id="Rectangle-3-Copy" transform="translate(388.957984, 163.807539) rotate(-45.000000) translate(-388.957984, -163.807539) " x="180.277984" y="141.476832" width="417.36" height="44.6614126"></rect>
                                <rect id="Rectangle-3-Copy-2" transform="translate(276.157984, 163.807539) rotate(-45.000000) translate(-276.157984, -163.807539) " x="67.4779843" y="141.476832" width="417.36" height="44.6614126"></rect>
                                <rect id="Rectangle-3" transform="translate(592.865677, 185.487836) rotate(-45.000000) translate(-592.865677, -185.487836) " x="384.185677" y="163.15713" width="417.36" height="44.6614126"></rect>
                                <rect id="Rectangle-3-Copy-3" transform="translate(701.327215, 185.487836) rotate(-45.000000) translate(-701.327215, -185.487836) " x="492.647215" y="163.15713" width="417.36" height="44.6614126"></rect>
                                <rect id="Rectangle-3-Copy" transform="translate(501.757984, 163.807539) rotate(-45.000000) translate(-501.757984, -163.807539) " x="293.077984" y="141.476832" width="417.36" height="44.6614126"></rect>
                                <rect id="Rectangle-3-Copy-2" transform="translate(388.957984, 163.807539) rotate(-45.000000) translate(-388.957984, -163.807539) " x="180.277984" y="141.476832" width="417.36" height="44.6614126"></rect>
                            </g>
                        </g>
                    </g>
                    <g id="Lines-Copy-6" transform="translate(0.000000, 902.000000)">
                        <mask id="mask-20" fill="white">
                            <use xlink:href="#path-19"></use>
                        </mask>
                        <use id="Mask" fill="#1E1E1E" xlink:href="#path-19"></use>
                        <g id="Group-2" mask="url(#mask-20)" fill="#FFE859">
                            <g transform="translate(-224.000000, -36.000000)">
                                <rect id="Rectangle-3" transform="translate(367.265677, 185.487836) rotate(-45.000000) translate(-367.265677, -185.487836) " x="158.585677" y="163.15713" width="417.36" height="44.6614126"></rect>
                                <rect id="Rectangle-3-Copy" transform="translate(276.157984, 163.807539) rotate(-45.000000) translate(-276.157984, -163.807539) " x="67.4779843" y="141.476832" width="417.36" height="44.6614126"></rect>
                                <rect id="Rectangle-3-Copy-2" transform="translate(163.357984, 163.807539) rotate(-45.000000) translate(-163.357984, -163.807539) " x="-45.3220157" y="141.476832" width="417.36" height="44.6614126"></rect>
                                <rect id="Rectangle-3" transform="translate(480.065677, 185.487836) rotate(-45.000000) translate(-480.065677, -185.487836) " x="271.385677" y="163.15713" width="417.36" height="44.6614126"></rect>
                                <rect id="Rectangle-3-Copy" transform="translate(388.957984, 163.807539) rotate(-45.000000) translate(-388.957984, -163.807539) " x="180.277984" y="141.476832" width="417.36" height="44.6614126"></rect>
                                <rect id="Rectangle-3-Copy-2" transform="translate(276.157984, 163.807539) rotate(-45.000000) translate(-276.157984, -163.807539) " x="67.4779843" y="141.476832" width="417.36" height="44.6614126"></rect>
                                <rect id="Rectangle-3" transform="translate(592.865677, 185.487836) rotate(-45.000000) translate(-592.865677, -185.487836) " x="384.185677" y="163.15713" width="417.36" height="44.6614126"></rect>
                                <rect id="Rectangle-3-Copy-3" transform="translate(701.327215, 185.487836) rotate(-45.000000) translate(-701.327215, -185.487836) " x="492.647215" y="163.15713" width="417.36" height="44.6614126"></rect>
                                <rect id="Rectangle-3-Copy" transform="translate(501.757984, 163.807539) rotate(-45.000000) translate(-501.757984, -163.807539) " x="293.077984" y="141.476832" width="417.36" height="44.6614126"></rect>
                                <rect id="Rectangle-3-Copy-2" transform="translate(388.957984, 163.807539) rotate(-45.000000) translate(-388.957984, -163.807539) " x="180.277984" y="141.476832" width="417.36" height="44.6614126"></rect>
                            </g>
                        </g>
                    </g>
                </g>
            </g>
            <g id="Write-Copy" transform="translate(685.000000, 283.000000)">
                <rect id="Rectangle" fill="#FFFFFF" x="0" y="0" width="120" height="120"></rect>
                <path d="M29.7471742,91.9559766 C31.5827533,91.4857384 47.5337296,87.2700938 51.9787184,86.2561941 C52.8028728,86.0680988 53.4628563,85.7042829 54.0601414,85.1061729 L63.7247748,75.4415395 L89.7858733,49.379616 L89.91622,49.2500942 L89.915395,49.2484443 C92.7376495,46.2867683 92.6947505,41.5555116 89.7866982,38.6474593 L81.3529341,30.2136952 C78.4448818,27.3056429 73.7136251,27.2627439 70.7511241,30.0849984 L70.7494742,30.0833484 L70.6199524,30.2136952 L44.5588539,56.2747936 L34.8942205,65.938602 C34.2969355,66.5367121 33.9322946,67.1975206 33.7441993,68.02085 C32.7319496,72.4641889 28.5212549,88.3945407 28.0485417,90.2375446 C27.9874932,90.4627639 27.9817184,90.7069578 28.0444168,90.9495018 C28.237462,91.6969331 28.9989179,92.1473718 29.7471742,91.9559766 Z M82.435307,46.3370921 C82.9434943,45.8289048 83.7750735,45.8289048 84.2824359,46.3370921 L84.5307546,46.5854109 C85.0389419,47.0935982 85.0389419,47.9251774 84.5307546,48.4333647 L53.7779985,79.1869458 C53.2698112,79.6943082 52.4382319,79.6943082 51.9300447,79.1869458 L51.6817259,78.938627 C51.1735386,78.4304397 51.1735386,77.5988605 51.6817259,77.0906732 L82.435307,46.3370921 Z M76.9640438,40.8650039 C77.4714061,40.3568166 78.3021604,40.3568166 78.8111726,40.8650039 L79.0594914,41.1124977 C79.5676787,41.62151 79.5676787,42.4530892 79.0594914,42.9612765 L48.3059103,73.7140327 C47.797723,74.22222 46.9653188,74.22222 46.4579565,73.7140327 L46.2104626,73.4657139 C45.7014504,72.9583516 45.7022753,72.1267723 46.2104626,71.618585 L76.9640438,40.8650039 Z M40.7367245,66.1456719 L71.4894807,35.3920907 C71.9984929,34.8839034 72.8292472,34.8839034 73.3374345,35.3920907 L73.5865782,35.6404095 C74.0947655,36.1485968 74.0947655,36.980176 73.5865782,37.4891883 L42.8329971,68.2411195 C42.3248098,68.7493068 41.4932306,68.7493068 40.9850433,68.2411195 L40.7375495,67.9936257 C40.2285372,67.4846134 40.2293622,66.6538592 40.7367245,66.1456719 Z M36.0112426,70.4462894 L49.554104,83.9883258 L39.3235348,86.6125852 L33.3878082,80.6768586 L36.0112426,70.4462894 Z" id="Shape" fill="#4D70B8" fill-rule="nonzero"></path>
            </g>
            <g id="Password" opacity="0.2" transform="translate(825.000000, 673.000000)" fill="#FFFFFF">
                <rect id="Rectangle" opacity="0" x="0" y="0" width="120" height="120"></rect>
                <path d="M80,56.4 L77,56.4 L77,47.9 C77,38.251 69.149,30.4 59.5,30.4 C49.851,30.4 42,38.251 42,47.9 L42,56.4 L40,56.4 C37.791,56.4 36,58.191 36,60.4 L36,86.4 C36,88.609 37.791,90.4 40,90.4 L80,90.4 C82.209,90.4 84,88.609 84,86.4 L84,60.4 C84,58.191 82.209,56.4 80,56.4 Z M63,77.4 C63,79.057 61.657,80.4 60,80.4 C58.343,80.4 57,79.057 57,77.4 L57,69.4 C57,67.743 58.343,66.4 60,66.4 C61.657,66.4 63,67.743 63,69.4 L63,77.4 Z M48,56.4 L48,47.9 C48,41.559 53.159,36.4 59.5,36.4 C65.841,36.4 71,41.559 71,47.9 L71,56.4 L48,56.4 Z" id="Shape" fill-rule="nonzero"></path>
            </g>
            <g id="User-Name-Copy-2" transform="translate(685.000000, 673.000000)" fill="#FFFFFF">
                <rect id="Rectangle" opacity="0" x="0" y="0" width="120" height="120"></rect>
                <path d="M90.3989453,89.5997656 L90.3989453,83.3043736 C90.3989453,80.2463874 88.4214616,77.6501344 85.6767274,76.7308869 L85.6767274,76.7308869 C85.4606269,76.6576424 71.4111644,73.0688975 69.40075,69.0770149 C68.4834948,67.2531688 69.3879762,64.916963 70.3034735,63.3055845 C70.7225491,62.7415435 71.132601,62.1446889 71.5265977,61.5184193 C71.5265977,61.5147864 71.5265977,61.5147864 71.5265977,61.5147864 L71.5265977,61.5147864 C73.9071018,57.7061908 75.7235648,52.696503 75.9082581,46.5040048 C76.1865871,37.1878934 68.9778071,29.6219147 60.4198053,29.6 L60.4198053,29.6 C60.4124223,29.6 60.4070315,29.6 60.3996484,29.6 C60.3940233,29.6 60.3868746,29.6 60.3793744,29.6 L60.3793744,29.6 C51.8230132,29.6219147 44.6143504,37.1878934 44.8944373,46.5042392 C45.079365,52.6968546 46.8940701,57.7065424 49.2742226,61.5150208 L49.2742226,61.5150208 C49.2742226,61.5150208 49.2762149,61.5150208 49.2762149,61.5186537 C49.6681021,62.1449233 50.0782712,62.7418951 50.497464,63.3058189 C51.4130785,64.9171974 52.3174427,67.2535204 51.4001875,69.0772493 C49.3914138,73.0688975 35.3401934,76.6578768 35.1240929,76.7311213 L35.1240929,76.7311213 C32.3794759,77.6506031 30.4,80.2466218 30.4,83.3048423 L30.4,89.6 L90.3989453,89.5997656 L90.3989453,89.5997656 Z" id="Shape" fill-rule="nonzero"></path>
            </g>
            <g id="Login" transform="translate(825.000000, 283.000000)">
                <rect id="Rectangle" fill="#FFFFFF" x="0" y="0" width="120" height="120"></rect>
                <path d="M52.0490795,61.4018729 C53.0638307,62.3136238 53.274749,63.2757671 53.274749,63.9168052 C53.274749,64.5578434 53.0603154,65.5129552 52.0502513,66.4223622 C51.3635951,67.0356651 50.6773295,67.6489679 49.9914546,68.2622708 C47.3467738,70.624854 44.6118669,73.0671275 41.8769599,75.41096 C41.1797579,76.0074654 40.588015,76.2055192 40.1193077,76.2055192 C39.8203891,76.2066138 39.5269177,76.1255341 39.2709475,75.971136 C38.7178729,75.6383118 38.0464498,74.8261738 37.9925484,72.8339161 C37.9609107,71.6561403 37.9679413,70.5100062 37.9749719,69.182225 C37.9749719,68.9775303 37.9749719,68.7685386 37.9749719,68.5552498 L36.0427262,68.5552498 C33.8386303,68.5611094 31.7563982,68.566969 29.6659638,68.5411868 C27.8473796,68.5189204 26.4412578,67.9083521 25.6081306,66.7762809 C24.9870935,65.9313293 24.7152432,64.843791 24.8230459,63.6320296 C25.0866938,60.6776287 26.6685808,59.1787478 29.5253516,59.1787478 L29.6308107,59.1787478 C31.727104,59.2057019 33.8233973,59.1998423 36.0497568,59.1939827 L37.9667695,59.1928108 C37.9667695,59.072494 37.9667695,58.9529586 37.9667695,58.8342044 C37.9573954,57.6189272 37.9480213,56.473965 37.9866896,55.3020488 C38.0077814,54.6317127 38.0769158,52.5925784 39.2967264,51.8671622 C40.4626358,51.1722158 41.68479,52.2152213 42.0867065,52.5585928 C44.8110675,54.8848466 47.5272261,57.3318077 50.1531586,59.6979067 L52.0490795,61.4018729 Z M84.6722773,35.9373044 C84.7060752,36.029933 84.7488532,36.1190324 84.8,36.2033294 L84.8,85.4027181 C84.7623577,85.4473427 84.7311944,85.4970525 84.7074303,85.5503795 C84.0535837,88.0043722 82.4318565,89.2817609 79.9711433,89.2817609 C77.9228926,89.2852767 75.8711265,89.2829329 73.821704,89.2993397 C71.5437866,89.3192623 69.247121,89.2407439 66.9738907,89.4165313 C64.4288103,89.6122413 61.9013063,90.0481942 59.3656,90.3716431 C58.4551361,90.4876628 57.6360701,90.2439042 56.8732491,89.7095104 C56.5954665,89.5132891 56.2673495,89.4006498 55.9276321,89.3848896 C53.1915535,89.3673108 50.4589901,89.3954368 47.7252549,89.3848896 C45.4742882,89.3778581 43.605318,87.7629575 43.2924559,85.460142 C43.1530155,84.4347153 43.2291804,83.3706153 43.2291804,82.325266 C43.2531594,82.1968915 43.3273998,82.0834075 43.4354116,82.0100205 C44.120896,81.513128 44.8169263,81.0314704 45.5070978,80.5392656 C45.9933816,80.1923784 46.4691194,79.8349439 47.0550035,79.4107102 C47.0550035,80.4806698 47.0397705,81.401796 47.0550035,82.3240941 C47.087813,84.3081483 48.523229,86.0660227 50.4273523,86.2570451 C51.839333,86.3965031 53.2735772,86.2898587 54.694932,86.3472826 C55.3007362,86.3730648 55.4765014,86.1961054 55.4765014,85.5527234 C55.4624402,78.2821549 55.4765014,71.0045548 55.4765014,63.738674 C55.474939,54.6938242 55.4823602,45.6497557 55.498765,36.6064686 C55.4999368,36.1271548 55.3979929,35.9267571 54.887102,35.9431639 C53.6766655,35.9818372 52.4650572,35.9513674 51.2546207,35.9630865 C48.7505521,35.9853529 47.0362552,37.7584622 47.0362552,40.3460534 C47.0362552,42.7637166 47.0362552,45.180208 47.0362552,47.5978712 C47.0362552,47.7842059 47.0175069,47.9740563 47.0046175,48.2084396 C45.7519973,47.3224709 44.5567938,46.4880665 43.3850256,45.6302238 C43.2783947,45.5493616 43.2303522,45.3208379 43.2303522,45.1614573 C43.2244934,42.4215171 43.2080886,39.6815768 43.2385546,36.9428085 C43.2619899,34.8603133 44.6235846,33.0860321 46.5851245,32.5949992 C47.2389711,32.4309309 47.9361732,32.4039768 48.614627,32.3957734 C50.8597348,32.3653036 53.1048426,32.3817104 55.3499504,32.3653036 C55.5456357,32.3641317 55.8467801,32.3219427 55.918258,32.1930319 C56.4619584,31.2203414 57.3290669,30.7316523 58.3133522,30.4 L59.4851203,30.4 C59.6266877,30.4582369 59.7728901,30.5044945 59.9221899,30.5382861 C62.7402923,30.9390815 65.5583948,31.351596 68.3800126,31.7219215 C70.1950815,31.966852 72.0136657,32.232877 73.8392805,32.3184269 C75.9613526,32.4180398 78.092799,32.3149112 80.2195582,32.3289742 C82.4658378,32.3430372 84.1145156,33.6977724 84.6722773,35.9373044 Z" id="Combined-Shape" fill="#4D70B8" fill-rule="nonzero"></path>
            </g>
            <g id="Connect" opacity="0.2" transform="translate(965.000000, 673.000000)">
                <rect id="Rectangle" fill="#FFFFFF" opacity="0" x="0" y="0" width="120" height="120"></rect>
                <path d="M45.6,78 L79.7748,78 C84.768,78 88.8,73.9716 88.8,69.0036 L88.8,63.6 C88.8,61.5984 87.1872,60 85.2,60 C83.1984,60 81.6,61.6128 81.6,63.6 L81.6,67.2 C81.6,69.2016 79.9944,70.8 78.0144,70.8 L45.6,70.8 L45.6,60 L31.2,74.4 L45.6,88.8 L45.6,78 L45.6,78 Z M74.4,42 L40.2252,42 C35.232,42 31.2,46.0284 31.2,50.9964 L31.2,56.4 C31.2,58.4016 32.8128,60 34.8,60 C36.8016,60 38.4,58.3872 38.4,56.4 L38.4,52.8 C38.4,50.7984 40.0056,49.2 41.9856,49.2 L74.4,49.2 L74.4,60 L88.8,45.6 L74.4,31.2 L74.4,42 Z" id="Combined-Shape" fill="#FFFFFF" fill-rule="nonzero"></path>
                <g id="Number-Of-Times" transform="translate(80.000000, 80.000000)">
                    <circle id="Oval" stroke="#FFFFFF" stroke-width="5" cx="20" cy="20" r="17.5"></circle>
                    <text id="3" font-family="HelveticaNeue-Bold, Helvetica Neue" font-size="24" font-weight="bold" fill="#FFFFFF">
                        <tspan x="13.728" y="28.2">3</tspan>
                    </text>
                </g>
            </g>
            <g id="All-together-Copy" transform="translate(965.000000, 283.000000)">
                <rect id="Rectangle" fill="#FFFFFF" x="0" y="0" width="120" height="120"></rect>
                <g id="Group" transform="translate(30.400000, 30.400000)" fill="#4D70B8">
                    <path d="M8.27665043,48.5058443 L16.6071429,56.7857143 L16.6071429,46.8021104 L16.6071429,46.8021104 L48.3917411,46.8021104 C53.0357143,46.8021104 56.7857143,43.0782261 56.7857143,38.4857683 L56.7857143,33.4906384 C56.7857143,31.6403439 55.2857143,30.1627705 53.4375,30.1627705 C51.5758929,30.1627705 50.0892857,31.6536553 50.0892857,33.4906384 L50.0892857,36.8185064 C50.0892857,38.668801 48.5959821,40.1463744 46.7544643,40.1463744 L16.6872294,40.1463744 L8.27665043,48.5058443 Z M48.4552219,8.57142857 L56.7857143,16.8512986 L43.3928571,30.1627705 L43.3928571,20.1791665 L36.7765151,20.1791665 L48.4552219,8.57142857 Z M26.1699134,20.1791665 L13.2455357,20.1791665 C11.4040179,20.1791665 9.91071429,21.6567399 9.91071429,23.5070345 L9.91071429,26.8349025 C9.91071429,28.6718856 8.42410714,30.1627705 6.5625,30.1627705 C4.71428571,30.1627705 3.21428571,28.6851971 3.21428571,26.8349025 L3.21428571,21.8397727 C3.21428571,17.2473149 6.96428571,13.5234306 11.6082589,13.5234306 L32.866342,13.5234306 L26.1699134,20.1791665 Z" id="Combined-Shape" fill-rule="nonzero"></path>
                    <polygon id="Line-Copy-2" points="3.78327081 60 60 3.78327081 56.2167292 0 0 56.2167292"></polygon>
                </g>
            </g>
            <g id="All-together" transform="translate(1105.000000, 283.000000)">
                <rect id="Rectangle" fill="#FFFFFF" x="0" y="0" width="120" height="120"></rect>
                <path d="M60,25 C40.5555556,25 25,40.5555556 25,60 C25,79.4444444 40.5555556,95 60,95 C79.4444444,95 95,79.4444444 95,60 C95,40.5555556 79.4444444,25 60,25 Z M78.2777778,51.0555556 L56.8888889,74.3888889 C56.1111111,75.1666667 54.9444444,75.5555556 54.1666667,75.5555556 C53.3888889,75.5555556 52.2222222,75.1666667 51.4444444,74.3888889 L41.7222222,63.8888889 C40.1666667,62.3333333 40.5555556,60 42.1111111,58.4444444 C43.6666667,56.8888889 46,57.2777778 47.5555556,58.8333333 L54.1666667,66.2222222 L72.8333333,46 C74.3888889,44.4444444 76.7222222,44.4444444 78.2777778,45.6111111 C79.8333333,46.7777778 79.8333333,49.5 78.2777778,51.0555556 Z" id="Shape" fill="#4C71B6" fill-rule="nonzero"></path>
            </g>
            <g id="Logged-in" transform="translate(1105.000000, 673.000000)" fill="#FFFFFF">
                <rect id="Rectangle" opacity="0" x="0" y="0" width="120" height="120"></rect>
                <path d="M60,25 C40.5555556,25 25,40.5555556 25,60 C25,79.4444444 40.5555556,95 60,95 C79.4444444,95 95,79.4444444 95,60 C95,40.5555556 79.4444444,25 60,25 Z M78.2777778,51.0555556 L56.8888889,74.3888889 C56.1111111,75.1666667 54.9444444,75.5555556 54.1666667,75.5555556 C53.3888889,75.5555556 52.2222222,75.1666667 51.4444444,74.3888889 L41.7222222,63.8888889 C40.1666667,62.3333333 40.5555556,60 42.1111111,58.4444444 C43.6666667,56.8888889 46,57.2777778 47.5555556,58.8333333 L54.1666667,66.2222222 L72.8333333,46 C74.3888889,44.4444444 76.7222222,44.4444444 78.2777778,45.6111111 C79.8333333,46.7777778 79.8333333,49.5 78.2777778,51.0555556 Z" id="Shape" fill-rule="nonzero"></path>
            </g>
            <g id="Top-Arrow" transform="translate(956.000000, 603.000000) scale(-1, 1) translate(-956.000000, -603.000000) translate(862.000000, 533.000000)">
                <polyline id="Path-12" stroke="#FFFFFF" stroke-width="6" points="0 0.162597656 164.937515 0.162597656 164.937515 112"></polyline>
                <polygon id="Shape" fill="#FFFFFF" fill-rule="nonzero" transform="translate(164.937515, 122.195018) scale(-1, 1) translate(-164.937515, -122.195018) " points="164.9375 139.390037 166.875 137.702537 187.87503 119.702537 184.00003 115.171337 167.93753 128.952537 167.93753 105 161.9375 105 161.9375 128.952537 145.875 115.171337 142 119.702537 163 137.702537"></polygon>
            </g>
            <g id="Top-Arrow-Copy" transform="translate(1096.000000, 603.000000) scale(-1, 1) translate(-1096.000000, -603.000000) translate(1002.000000, 533.000000)">
                <polyline id="Path-12" stroke="#FFFFFF" stroke-width="6" points="0 0.162597656 164.937515 0.162597656 164.937515 112"></polyline>
                <polygon id="Shape" fill="#FFFFFF" fill-rule="nonzero" transform="translate(164.937515, 122.195018) scale(-1, 1) translate(-164.937515, -122.195018) " points="164.9375 139.390037 166.875 137.702537 187.87503 119.702537 184.00003 115.171337 167.93753 128.952537 167.93753 105 161.9375 105 161.9375 128.952537 145.875 115.171337 142 119.702537 163 137.702537"></polygon>
            </g>
            <g id="Center-Arrow" transform="translate(1135.000000, 403.000000)">
                <path d="M30,0 L30,240" id="Path-15" stroke="#FFFFFF" stroke-width="6"></path>
                <polygon id="Shape" fill="#FFFFFF" fill-rule="nonzero" transform="translate(29.937515, 252.195018) scale(-1, 1) translate(-29.937515, -252.195018) " points="29.9375 269.390037 31.875 267.702537 52.87503 249.702537 49.00003 245.171337 32.93753 258.952537 32.93753 235 26.9375 235 26.9375 258.952537 10.875 245.171337 7 249.702537 28 267.702537"></polygon>
                <g id="cog-circle" transform="translate(0.000000, 100.000000)" fill-rule="nonzero">
                    <circle id="Oval-3" fill="#FFFFFF" cx="30" cy="30" r="30"></circle>
                    <path d="M14.6608512,44.124415 C13.8896752,44.5431837 12.9085583,44.2652442 12.4651547,43.4961427 L9.22307698,37.8726294 C8.78160319,37.1068755 9.03144047,36.1137419 9.7780104,35.6562992 L12.0255851,34.2791516 C12.7735402,33.8208601 13.3794916,32.7340937 13.3790204,31.8609051 L13.3767845,27.7172922 C13.3763112,26.840023 12.7681886,25.7564783 12.0215985,25.2990232 L9.77396302,23.9218385 C9.02598779,23.4635346 8.77596959,22.4748147 9.2198469,21.7059966 L12.465388,16.0845546 C12.9073333,15.3190827 13.8919586,15.0386737 14.6614214,15.4565122 L16.9779161,16.7144291 C17.7488066,17.1330428 18.9933525,17.1151065 19.7497915,16.6789203 L23.3393835,14.6090502 C24.0993576,14.1708255 24.7340567,13.1030875 24.7569288,12.2278176 L24.8257861,9.59278697 C24.8487008,8.71589314 25.5799545,8.00458723 26.4677177,8.00403535 L32.958862,8.00000032 C33.8427612,7.99945083 34.5779289,8.71177538 34.60081,9.58739319 L34.6696948,12.2234711 C34.6926184,13.1007135 35.3307483,14.1695542 36.0871031,14.6062359 L39.6762943,16.6784564 C40.4361836,17.1171787 41.6787852,17.1325787 42.4485332,16.7145856 L44.765886,15.4562025 C45.537062,15.0374338 46.5181788,15.3153733 46.9615825,16.0844747 L50.2036603,21.7079883 C50.645134,22.4737421 50.3952968,23.4668756 49.6487268,23.9243183 L47.401152,25.3014659 C46.653197,25.7597575 46.0472457,26.846524 46.0477167,27.7197125 L46.0499527,31.8633255 C46.050426,32.7405946 46.6585486,33.8241391 47.4051387,34.2815944 L49.6527742,35.6587791 C50.4007495,36.1170831 50.6507676,37.1058029 50.2068902,37.8746209 L46.9613492,43.4960631 C46.5194039,44.2615349 45.5347786,44.5419438 44.7653158,44.1241054 L42.4488211,42.8661883 C41.6779307,42.4475747 40.4333847,42.465511 39.6769456,42.9016973 L36.0873537,44.9715675 C35.3273796,45.4097921 34.6926806,46.47753 34.6698084,47.3528 L34.600951,49.9878306 C34.5780364,50.8647245 33.8467827,51.5760304 32.9590195,51.5765821 L26.4678752,51.5806173 C25.583976,51.5811667 24.8488084,50.8688422 24.8259272,49.9932244 L24.7570424,47.3571464 C24.7341188,46.4799041 24.0959888,45.4110633 23.3396341,44.9743818 L19.7504429,42.9021611 C18.9905536,42.4634389 17.747952,42.4480389 16.978204,42.866032 L14.6608512,44.124415 Z M24.9310161,38.0735863 C29.5057439,40.7148067 35.3554258,39.1473891 37.9966461,34.5726612 C40.6378665,29.9979334 39.0704489,24.1482516 34.495721,21.5070312 C29.9209933,18.8658109 24.0713114,20.4332285 21.4300911,25.0079563 C18.7888707,29.5826841 20.3562883,35.4323659 24.9310161,38.0735863 Z" id="Shape" fill="#4D70B8"></path>
                </g>
            </g>
            <g id="Server" transform="translate(1330.000000, 0.000000)">
                <rect id="Rectangle-6" fill="#494949" x="0" y="0" width="590" height="1080"></rect>
                <path d="M256,724.875 L256,458" id="Path-20" stroke="#ACACAC" stroke-width="8"></path>
                <path d="M195,452.012999 C195.011597,460.727974 202.073589,467.789966 210.788564,467.801563 L216.051419,467.801563 L216.051419,475.16956 C216.051419,478.076154 218.407679,480.432414 221.314274,480.432414 C224.220868,480.432414 226.577128,478.076154 226.577128,475.16956 L226.577128,467.801563 L363.411351,467.801563 L363.411351,475.16956 C363.411351,478.076154 365.767611,480.432414 368.674205,480.432414 C371.5808,480.432414 373.93706,478.076154 373.93706,475.16956 L373.93706,467.801563 L379.199915,467.801563 C387.91489,467.789966 394.976882,460.727974 394.988479,452.012999 L394.988479,406.752449 L195,406.752449 L195,452.012999 Z M345.517645,421.488442 C354.237428,421.488442 361.306209,428.557223 361.306209,437.277006 C361.306209,445.996789 354.237428,453.06557 345.517645,453.06557 C336.797861,453.06557 329.72908,445.996789 329.72908,437.277006 C329.740677,428.562031 336.802669,421.500039 345.517645,421.488442 L345.517645,421.488442 Z M291.836527,426.751296 C291.836527,423.844702 294.192787,421.488442 297.099381,421.488442 C300.005976,421.488442 302.362236,423.844702 302.362236,426.751296 L302.362236,447.802715 C302.362236,450.70931 300.005976,453.06557 297.099381,453.06557 C294.192787,453.06557 291.836527,450.70931 291.836527,447.802715 L291.836527,426.751296 Z M270.785108,426.751296 C270.785108,423.844702 273.141368,421.488442 276.047962,421.488442 C278.954557,421.488442 281.310817,423.844702 281.310817,426.751296 L281.310817,447.802715 C281.310817,450.70931 278.954557,453.06557 276.047962,453.06557 C273.141368,453.06557 270.785108,450.70931 270.785108,447.802715 L270.785108,426.751296 Z M249.733689,426.751296 C249.733689,423.844702 252.089949,421.488442 254.996544,421.488442 C257.903138,421.488442 260.259398,423.844702 260.259398,426.751296 L260.259398,447.802715 C260.259398,450.70931 257.903138,453.06557 254.996544,453.06557 C252.089949,453.06557 249.733689,450.70931 249.733689,447.802715 L249.733689,426.751296 Z M228.68227,426.751296 C228.68227,423.844702 231.03853,421.488442 233.945125,421.488442 C236.851719,421.488442 239.20798,423.844702 239.20798,426.751296 L239.20798,447.802715 C239.20798,450.70931 236.851719,453.06557 233.945125,453.06557 C231.03853,453.06557 228.68227,450.70931 228.68227,447.802715 L228.68227,426.751296 Z M389.725624,400.437023 L200.262855,400.437023 C197.513519,400.227479 195.392003,397.931466 195.399977,395.174168 L195.399977,340.314171 C195.373875,340.012998 195.373875,339.710132 195.399977,339.156343 C195.454935,338.92732 195.525265,338.702261 195.610491,338.23008 C195.719115,337.989298 195.845785,337.757071 195.989417,337.409075 C196.175639,337.137166 196.387089,336.883426 196.620959,336.651224 C196.773604,336.501126 196.935302,336.360519 197.105142,336.230196 L224.619346,315.684011 C229.54501,312.006719 235.524089,310.013692 241.670996,310.000128 L350.085802,310.000128 C356.625485,309.98056 362.973007,312.210369 368.063714,316.315553 L393.325417,336.88279 L393.809599,337.324869 C393.961131,337.491046 394.101767,337.666841 394.377988,338.061669 C394.541104,338.315699 394.681971,338.583345 394.799016,338.861623 L394.799016,339.135291 C394.875414,339.341603 394.938694,339.552538 394.988479,339.766834 L394.988479,340.082605 C395.00384,340.313916 395.00384,340.545991 394.988479,340.966765 L394.988479,395.174168 C394.988479,398.080763 392.632218,400.437023 389.725624,400.437023 Z M239.20798,380.438175 L239.20798,359.386756 C239.20798,356.480162 236.851719,354.123902 233.945125,354.123902 C231.03853,354.123902 228.68227,356.480162 228.68227,359.386756 L228.68227,380.438175 C228.68227,383.344769 231.03853,385.70103 233.945125,385.70103 C236.851719,385.70103 239.20798,383.344769 239.20798,380.438175 Z M260.259398,380.438175 L260.259398,359.386756 C260.259398,356.480162 257.903138,354.123902 254.996544,354.123902 C252.089949,354.123902 249.733689,356.480162 249.733689,359.386756 L249.733689,380.438175 C249.733689,383.344769 252.089949,385.70103 254.996544,385.70103 C257.903138,385.70103 260.259398,383.344769 260.259398,380.438175 Z M281.310817,380.438175 L281.310817,359.386756 C281.310817,356.480162 278.954557,354.123902 276.047962,354.123902 C273.141368,354.123902 270.785108,356.480162 270.785108,359.386756 L270.785108,380.438175 C270.785108,383.344769 273.141368,385.70103 276.047962,385.70103 C278.954557,385.70103 281.310817,383.344769 281.310817,380.438175 Z M302.362236,380.438175 L302.362236,359.386756 C302.362236,356.480162 300.005976,354.123902 297.099381,354.123902 C294.192787,354.123902 291.836527,356.480162 291.836527,359.386756 L291.836527,380.438175 C291.836527,383.344769 294.192787,385.70103 297.099381,385.70103 C300.005976,385.70103 302.362236,383.344769 302.362236,380.438175 Z M345.517645,385.70103 C354.23262,385.689433 361.294612,378.627441 361.306209,369.912466 C361.306209,361.192682 354.237428,354.123902 345.517645,354.123902 C336.797861,354.123902 329.72908,361.192682 329.72908,369.912466 C329.72908,378.632249 336.797861,385.70103 345.517645,385.70103 Z M230.934772,324.020373 L216.07247,335.219727 L329.265949,335.535499 L374.989631,335.661807 L361.222003,324.483504 C358.024371,321.873076 354.024192,320.445503 349.89634,320.441631 L241.670996,320.441631 C237.800558,320.449174 234.035647,321.704144 230.934772,324.020373 Z" fill="#ACACAC" fill-rule="nonzero"></path>
                <g id="Modem" transform="translate(195.000000, 650.000000)">
                    <g id="Rectangle-2-Copy-5">
                        <use fill="#29D051" fill-rule="evenodd" xlink:href="#path-21"></use>
                        <rect stroke="#979797" stroke-width="1" x="14.5" y="75.5" width="22" height="23"></rect>
                    </g>
                    <path d="M181.411111,57.0911111 L159,57.0911111 L159,15.4688889 C161.331111,14.1111111 162.92,11.6111111 162.92,8.72444444 C162.92,4.40444444 159.404444,0.888888889 155.084444,0.888888889 C150.764444,0.888888889 147.248889,4.40444444 147.248889,8.72444444 C147.248889,11.6133333 148.837778,14.1133333 151.171111,15.4711111 L151.171111,57.0911111 L7.82888889,57.0911111 C3.50444444,57.0911111 0,60.5977778 0,64.9244444 L0,111.908889 C0,116.233333 3.50444444,119.737778 7.82888889,119.737778 L24.0244444,119.737778 L24.0244444,120.393333 C24.0244444,123.275556 26.3622222,125.613333 29.2444444,125.613333 L39.8177778,125.613333 C42.7,125.613333 45.0377778,123.275556 45.0377778,120.393333 L45.0377778,119.737778 L144.206667,119.737778 L144.206667,120.393333 C144.206667,123.275556 146.542222,125.613333 149.426667,125.613333 L159.997778,125.613333 C162.88,125.613333 165.217778,123.275556 165.217778,120.393333 L165.217778,119.737778 L181.413333,119.737778 C185.737778,119.737778 189.244444,116.233333 189.244444,111.908889 L189.244444,64.9244444 C189.242222,60.5977778 185.735556,57.0911111 181.411111,57.0911111 Z M29.3644444,92.6288889 C29.3644444,93.9044444 28.3288889,94.94 27.0533333,94.94 L18.6244444,94.94 C17.3488889,94.94 16.3133333,93.9044444 16.3133333,92.6288889 L16.3133333,84.2 C16.3133333,82.9222222 17.3488889,81.8888889 18.6244444,81.8888889 L27.0533333,81.8888889 C28.3288889,81.8888889 29.3644444,82.9222222 29.3644444,84.2 L29.3644444,92.6288889 Z M55.4666667,92.6288889 C55.4666667,93.9044444 54.4311111,94.94 53.1555556,94.94 L44.7266667,94.94 C43.4488889,94.94 42.4155556,93.9044444 42.4155556,92.6288889 L42.4155556,84.2 C42.4155556,82.9222222 43.4488889,81.8888889 44.7266667,81.8888889 L53.1555556,81.8888889 C54.4311111,81.8888889 55.4666667,82.9222222 55.4666667,84.2 L55.4666667,92.6288889 Z M81.5688889,92.6288889 C81.5688889,93.9044444 80.5333333,94.94 79.2577778,94.94 L70.8266667,94.94 C69.5533333,94.94 68.5177778,93.9044444 68.5177778,92.6288889 L68.5177778,84.2 C68.5177778,82.9222222 69.5533333,81.8888889 70.8266667,81.8888889 L79.2577778,81.8888889 C80.5333333,81.8888889 81.5688889,82.9222222 81.5688889,84.2 L81.5688889,92.6288889 Z M107.671111,92.6288889 C107.671111,93.9044444 106.635556,94.94 105.36,94.94 L96.9311111,94.94 C95.6533333,94.94 94.62,93.9044444 94.62,92.6288889 L94.62,84.2 C94.62,82.9222222 95.6533333,81.8888889 96.9311111,81.8888889 L105.36,81.8888889 C106.635556,81.8888889 107.671111,82.9222222 107.671111,84.2 L107.671111,92.6288889 Z M172.926667,92.6288889 C172.926667,93.9044444 171.891111,94.94 170.615556,94.94 L123.033333,94.94 C121.755556,94.94 120.722222,93.9044444 120.722222,92.6288889 L120.722222,84.2 C120.722222,82.9222222 121.755556,81.8888889 123.033333,81.8888889 L170.615556,81.8888889 C171.891111,81.8888889 172.926667,82.9222222 172.926667,84.2 L172.926667,92.6288889 L172.926667,92.6288889 Z" id="Shape" fill="#ACACAC" fill-rule="nonzero"></path>
                </g>
            </g>
            <g id="Bottom-Arrow" transform="translate(902.500000, 869.500000) scale(-1, 1) translate(-902.500000, -869.500000) translate(640.000000, 793.000000)">
                <polyline id="Path-12-Copy" stroke="#FFFFFF" stroke-width="6" transform="translate(467.378906, 64.915527) scale(-1, -1) translate(-467.378906, -64.915527) " points="420 0 514.757813 0 514.757813 129.831055"></polyline>
                <polyline id="Path-12-Copy-2" stroke="#FFFFFF" stroke-width="6" transform="translate(257.378906, 64.915527) scale(-1, -1) translate(-257.378906, -64.915527) " points="-5.68434189e-13 0 514.757812 0 514.757812 129.831055"></polyline>
                <polygon id="Shape-Copy" fill="#FFFFFF" fill-rule="nonzero" transform="translate(507.195018, 129.937515) scale(-1, 1) rotate(-270.000000) translate(-507.195018, -129.937515) " points="507.195003 147.132533 509.132503 145.445033 530.132533 127.445033 526.257533 122.913833 510.195033 136.695033 510.195033 112.742497 504.195003 112.742497 504.195003 136.695033 488.132503 122.913833 484.257503 127.445033 505.257503 145.445033"></polygon>
            </g>
            <g id="Logged-in-successfully">
                <rect id="Rectangle" fill="#FFFFFF" x="0" y="0" width="590" height="1080"></rect>
                <g id="Group-5" transform="translate(121.000000, 384.000000)">
                    <g id="Group-3" transform="translate(0.000000, 242.000000)">
                        <path d="M313,0 C293.555556,0 278,15.5555556 278,35 C278,54.4444444 293.555556,70 313,70 C332.444444,70 348,54.4444444 348,35 C348,15.5555556 332.444444,0 313,0 Z M331.277778,26.0555556 L309.888889,49.3888889 C309.111111,50.1666667 307.944444,50.5555556 307.166667,50.5555556 C306.388889,50.5555556 305.222222,50.1666667 304.444444,49.3888889 L294.722222,38.8888889 C293.166667,37.3333333 293.555556,35 295.111111,33.4444444 C296.666667,31.8888889 299,32.2777778 300.555556,33.8333333 L307.166667,41.2222222 L325.833333,21 C327.388889,19.4444444 329.722222,19.4444444 331.277778,20.6111111 C332.833333,21.7777778 332.833333,24.5 331.277778,26.0555556 Z" id="Shape" fill="#32CE56" fill-rule="nonzero"></path>
                        <path d="M221.588146,29.8209097 C221.54133,29.2057056 221.342615,28.4974066 220.992,27.696 C220.607998,27.0239966 220.120003,26.4320026 219.528,25.92 C218.935997,25.4079974 218.288004,25.056001 217.584,24.864 C216.559995,24.6079987 215.544005,24.6639982 214.536,25.032 C213.527995,25.4000018 212.656004,26.0159957 211.92,26.88 C211.888,26.9440003 211.856,26.9919998 211.824,27.024 C211.792,27.0880003 211.744,27.1519997 211.68,27.216 L211.008,27.984 C210.719999,28.3360018 210.400002,28.7279978 210.048,29.16 C209.695998,29.5920022 209.296002,30.0479976 208.848,30.528 C208.816,30.2399986 208.76,29.9600014 208.68,29.688 C208.6,29.4159986 208.496001,29.1360014 208.368,28.848 L208.416,28.896 C207.807997,27.295992 206.576009,26.2560024 204.72,25.776 C202.927991,25.3919981 201.200008,25.7119949 199.536,26.736 C199.247999,26.928001 198.912002,27.1839984 198.528,27.504 C198.143998,27.8240016 197.696003,28.2079978 197.184,28.656 C196.812223,29.0277775 196.43494,29.416078 196.052146,29.8209097 C196.00533,29.2057056 195.806615,28.4974066 195.456,27.696 C195.071998,27.0239966 194.584003,26.4320026 193.992,25.92 C193.399997,25.4079974 192.752004,25.056001 192.048,24.864 C191.023995,24.6079987 190.008005,24.6639982 189,25.032 C187.991995,25.4000018 187.120004,26.0159957 186.384,26.88 C186.352,26.9440003 186.32,26.9919998 186.288,27.024 C186.256,27.0880003 186.208,27.1519997 186.144,27.216 L185.472,27.984 C185.183999,28.3360018 184.864002,28.7279978 184.512,29.16 C184.159998,29.5920022 183.760002,30.0479976 183.312,30.528 C183.28,30.2399986 183.224,29.9600014 183.144,29.688 C183.064,29.4159986 182.960001,29.1360014 182.832,28.848 L182.88,28.896 C182.271997,27.295992 181.040009,26.2560024 179.184,25.776 C177.391991,25.3919981 175.664008,25.7119949 174,26.736 C173.711999,26.928001 173.376002,27.1839984 172.992,27.504 C172.607998,27.8240016 172.160003,28.2079978 171.648,28.656 C171.199998,29.1040022 170.744002,29.5759975 170.28,30.072 C169.815998,30.5680025 169.360002,31.0559976 168.912,31.536 L167.952,32.592 C167.599998,33.0400022 167.208002,33.4879978 166.776,33.936 C166.721246,33.9927821 166.668677,34.0472508 166.618292,34.0994062 C166.65629,33.9959849 166.69286,33.8935163 166.728,33.792 C166.872001,33.3759979 167.007999,32.9920018 167.136,32.64 C167.264001,32.2879982 167.383999,31.9840013 167.496,31.728 C167.608001,31.4719987 167.696,31.2320011 167.76,31.008 C167.792,30.9439997 167.816,30.8640005 167.832,30.768 C167.848,30.6719995 167.872,30.5920003 167.904,30.528 C167.904,30.4639997 167.92,30.4240001 167.952,30.408 C167.984,30.3919999 168,30.3520003 168,30.288 C168.256001,29.4559958 168.312001,28.7200032 168.168,28.08 C168.023999,27.4399968 167.856001,26.9440018 167.664,26.592 C167.055997,25.3439938 166.064007,24.5440018 164.688,24.192 C163.855996,23.9359987 163.032004,23.9199989 162.216,24.144 C161.399996,24.3680011 160.688003,24.783997 160.08,25.392 C160.048,25.392 159.912001,25.5119988 159.672,25.752 C159.431999,25.9920012 159.104002,26.3039981 158.688,26.688 C158.271998,27.0720019 157.784003,27.5199974 157.224,28.032 C156.663997,28.5440026 156.064003,29.0879971 155.424,29.664 C154.303994,30.6240048 153.360004,31.407997 152.592,32.016 C151.823996,32.624003 151.184003,33.0959983 150.672,33.432 C150.562959,33.5035579 150.459362,33.5703986 150.361207,33.6325222 C150.411343,33.4460679 150.45894,33.2672278 150.504,33.096 C150.584,32.7919985 150.656,32.4800016 150.72,32.16 C151.008001,30.9439939 151.184,29.8720046 151.248,28.944 C151.312,28.0159954 151.088003,27.1040045 150.576,26.208 C150.255998,25.6639973 149.840003,25.1840021 149.328,24.768 C148.815997,24.3519979 148.240003,24.0640008 147.6,23.904 C145.839991,23.4559978 144.304007,23.8559938 142.992,25.104 C142.575998,25.4880019 142.128002,25.9039978 141.648,26.352 C141.231998,26.7360019 140.744003,27.1679976 140.184,27.648 C139.623997,28.1280024 139.008003,28.6399973 138.336,29.184 C136.095989,30.976009 134.328006,32.2399963 133.032,32.976 C132.855629,33.0761615 132.686221,33.1712854 132.523777,33.2613718 L132.72,32.64 C132.752,32.5119994 132.792,32.3760007 132.84,32.232 C132.888,32.0879993 132.928,31.9360008 132.96,31.776 C133.024,31.5199987 133.08,31.0320036 133.128,30.312 C133.176,29.5919964 132.976002,28.7200051 132.528,27.696 C132.143998,27.0239966 131.656003,26.4320026 131.064,25.92 C130.471997,25.4079974 129.824004,25.056001 129.12,24.864 C128.095995,24.6079987 127.080005,24.6639982 126.072,25.032 C125.063995,25.4000018 124.192004,26.0159957 123.456,26.88 C123.424,26.9440003 123.392,26.9919998 123.36,27.024 C123.328,27.0880003 123.28,27.1519997 123.216,27.216 L122.544,27.984 C122.255999,28.3360018 121.936002,28.7279978 121.584,29.16 C121.231998,29.5920022 120.832002,30.0479976 120.384,30.528 C120.352,30.2399986 120.296,29.9600014 120.216,29.688 C120.136,29.4159986 120.032001,29.1360014 119.904,28.848 L119.952,28.896 C119.343997,27.295992 118.112009,26.2560024 116.256,25.776 C114.463991,25.3919981 112.736008,25.7119949 111.072,26.736 C110.783999,26.928001 110.448002,27.1839984 110.064,27.504 C109.679998,27.8240016 109.232003,28.2079978 108.72,28.656 C108.271998,29.1040022 107.816002,29.5759975 107.352,30.072 C106.887998,30.5680025 106.432002,31.0559976 105.984,31.536 L105.024,32.592 C104.671998,33.0400022 104.280002,33.4879978 103.848,33.936 C103.415998,34.3840022 103.120001,34.6879992 102.96,34.848 C102.383997,35.3920027 101.928002,36.0079966 101.592,36.696 C101.255998,37.3840034 101.088,38.1119962 101.088,38.88 C101.088,40.0320058 101.471996,41.1199949 102.24,42.144 C102.400001,42.4000013 102.639998,42.6399989 102.96,42.864 C103.280002,43.0880011 103.583999,43.295999 103.872,43.488 C103.776,43.9680024 103.728,44.4639974 103.728,44.976 C103.728,45.3600019 103.76,45.7359982 103.824,46.104 C103.888,46.4720018 104.031999,46.8799978 104.256,47.328 C104.608002,48.128004 105.135996,48.8079972 105.84,49.368 C106.544004,49.9280028 107.343996,50.3359987 108.24,50.592 C108.400001,50.6240002 108.631998,50.6479999 108.936,50.664 C109.240002,50.6800001 109.567998,50.688 109.92,50.688 C110.464003,50.688 111.039997,50.6400005 111.648,50.544 C112.256003,50.4479995 112.831997,50.2880011 113.376,50.064 C113.984003,49.8079987 114.623997,49.5040018 115.296,49.152 C115.968003,48.7999982 116.671996,48.3680026 117.408,47.856 L117.36,47.856 C117.808002,47.5679986 118.207998,47.2880014 118.56,47.016 C118.912002,46.7439986 119.279998,46.4480016 119.664,46.128 C120.016002,46.5760022 120.439998,46.9519985 120.936,47.256 C121.432002,47.5600015 121.967997,47.7759994 122.544,47.904 C123.312004,48.1280011 124.079996,48.24 124.848,48.24 C126.672009,48.24 128.527991,47.6800056 130.416,46.56 C131.248004,46.0479974 132.039996,45.5040029 132.792,44.928 C133.544004,44.3519971 134.255997,43.7760029 134.928,43.2 L135.168,42.96 C135.352025,42.8029051 135.523145,42.6410889 135.681358,42.4745513 C136.535892,42.0545206 137.43677,41.5603381 138.384,40.992 C138.352,41.0560003 138.336,41.1039998 138.336,41.136 C138.336,41.1680002 138.32,41.2159997 138.288,41.28 C138.256,41.3440003 138.24,41.3919998 138.24,41.424 C137.983999,42.3520046 137.999999,43.2799954 138.288,44.208 C138.576001,45.1360046 139.103996,45.903997 139.872,46.512 C140.704004,47.2160035 141.711994,47.568 142.896,47.568 C143.664004,47.568 144.431996,47.3600021 145.2,46.944 C145.232,46.944 145.439998,46.840001 145.824,46.632 C146.208002,46.423999 146.727997,46.1440018 147.384,45.792 C148.040003,45.4399982 148.807996,45.0480022 149.688,44.616 C150.517547,44.2087681 151.425278,43.7802154 152.41122,43.3303306 C152.559114,43.2827043 152.699374,43.231261 152.832,43.176 C153.024001,43.0959996 153.231999,42.9920006 153.456,42.864 C153.392,43.056001 153.344,43.2399991 153.312,43.416 C153.28,43.5920009 153.248,43.7599992 153.216,43.92 C153.184,44.0800008 153.152,44.2879987 153.12,44.544 C153.088,44.8000013 153.072,45.0959983 153.072,45.432 C153.072,45.7680017 153.112,46.1279981 153.192,46.512 C153.272,46.8960019 153.423999,47.2959979 153.648,47.712 C153.936001,48.320003 154.351997,48.8399978 154.896,49.272 C155.440003,49.7040022 156.047997,49.9999992 156.72,50.16 C157.360003,50.3200008 157.967997,50.4 158.544,50.4 C159.120003,50.4 159.759996,50.3200008 160.464,50.16 C160.912002,50.0319994 161.359998,49.8800009 161.808,49.704 C162.256002,49.5279991 162.735997,49.2960014 163.248,49.008 C163.952004,48.6239981 164.647997,48.1760026 165.336,47.664 C165.81505,47.307498 166.321244,46.9277286 166.85459,46.5246861 C166.932283,46.776402 167.042086,47.0441723 167.184,47.328 C167.536002,48.128004 168.063996,48.8079972 168.768,49.368 C169.472004,49.9280028 170.271996,50.3359987 171.168,50.592 C171.328001,50.6240002 171.559998,50.6479999 171.864,50.664 C172.168002,50.6800001 172.495998,50.688 172.848,50.688 C173.392003,50.688 173.967997,50.6400005 174.576,50.544 C175.184003,50.4479995 175.759997,50.2880011 176.304,50.064 C176.912003,49.8079987 177.551997,49.5040018 178.224,49.152 C178.896003,48.7999982 179.599996,48.3680026 180.336,47.856 L180.288,47.856 C180.736002,47.5679986 181.135998,47.2880014 181.488,47.016 C181.840002,46.7439986 182.207998,46.4480016 182.592,46.128 C182.944002,46.5760022 183.367998,46.9519985 183.864,47.256 C184.360002,47.5600015 184.895997,47.7759994 185.472,47.904 C186.240004,48.1280011 187.007996,48.24 187.776,48.24 C189.348151,48.24 190.944055,47.8239761 192.563747,46.9919175 C192.610592,47.1013252 192.662676,47.2133526 192.72,47.328 C193.072002,48.128004 193.599996,48.8079972 194.304,49.368 C195.008004,49.9280028 195.807996,50.3359987 196.704,50.592 C196.864001,50.6240002 197.095998,50.6479999 197.4,50.664 C197.704002,50.6800001 198.031998,50.688 198.384,50.688 C198.928003,50.688 199.503997,50.6400005 200.112,50.544 C200.720003,50.4479995 201.295997,50.2880011 201.84,50.064 C202.448003,49.8079987 203.087997,49.5040018 203.76,49.152 C204.432003,48.7999982 205.135996,48.3680026 205.872,47.856 L205.824,47.856 C206.272002,47.5679986 206.671998,47.2880014 207.024,47.016 C207.376002,46.7439986 207.743998,46.4480016 208.128,46.128 C208.480002,46.5760022 208.903998,46.9519985 209.4,47.256 C209.896002,47.5600015 210.431997,47.7759994 211.008,47.904 C211.776004,48.1280011 212.543996,48.24 213.312,48.24 C214.884151,48.24 216.480055,47.8239761 218.099747,46.9919175 C218.146592,47.1013252 218.198676,47.2133526 218.256,47.328 C218.608002,48.128004 219.135996,48.8079972 219.84,49.368 C220.544004,49.9280028 221.343996,50.3359987 222.24,50.592 C222.400001,50.6240002 222.631998,50.6479999 222.936,50.664 C223.240002,50.6800001 223.567998,50.688 223.92,50.688 C224.464003,50.688 225.039997,50.6400005 225.648,50.544 C226.256003,50.4479995 226.831997,50.2880011 227.376,50.064 C227.984003,49.8079987 228.623997,49.5040018 229.296,49.152 C229.968003,48.7999982 230.671996,48.3680026 231.408,47.856 L231.36,47.856 C231.808002,47.5679986 232.207998,47.2880014 232.56,47.016 C232.912002,46.7439986 233.279998,46.4480016 233.664,46.128 C234.016002,46.5760022 234.439998,46.9519985 234.936,47.256 C235.432002,47.5600015 235.967997,47.7759994 236.544,47.904 C237.312004,48.1280011 238.079996,48.24 238.848,48.24 C240.672009,48.24 242.527991,47.6800056 244.416,46.56 C245.248004,46.0479974 246.039996,45.5040029 246.792,44.928 C247.544004,44.3519971 248.255997,43.7760029 248.928,43.2 L249.168,42.96 C250.480007,41.8399944 251.136,40.480008 251.136,38.88 C251.136,38.3039971 251.032001,37.712003 250.824,37.104 C250.615999,36.495997 250.304002,35.9360026 249.888,35.424 C249.439998,34.9119974 248.904003,34.5120014 248.28,34.224 C247.655997,33.9359986 247.024003,33.7600003 246.384,33.696 L246.432,33.552 L246.72,32.64 C246.752,32.5119994 246.792,32.3760007 246.84,32.232 C246.888,32.0879993 246.928,31.9360008 246.96,31.776 C247.024,31.5199987 247.08,31.0320036 247.128,30.312 C247.176,29.5919964 246.976002,28.7200051 246.528,27.696 C246.143998,27.0239966 245.656003,26.4320026 245.064,25.92 C244.471997,25.4079974 243.824004,25.056001 243.12,24.864 C242.095995,24.6079987 241.080005,24.6639982 240.072,25.032 C239.063995,25.4000018 238.192004,26.0159957 237.456,26.88 C237.424,26.9440003 237.392,26.9919998 237.36,27.024 C237.328,27.0880003 237.28,27.1519997 237.216,27.216 L236.544,27.984 C236.255999,28.3360018 235.936002,28.7279978 235.584,29.16 C235.231998,29.5920022 234.832002,30.0479976 234.384,30.528 C234.352,30.2399986 234.296,29.9600014 234.216,29.688 C234.136,29.4159986 234.032001,29.1360014 233.904,28.848 L233.952,28.896 C233.343997,27.295992 232.112009,26.2560024 230.256,25.776 C228.463991,25.3919981 226.736008,25.7119949 225.072,26.736 C224.783999,26.928001 224.448002,27.1839984 224.064,27.504 C223.679998,27.8240016 223.232003,28.2079978 222.72,28.656 C222.348223,29.0277775 221.97094,29.416078 221.588146,29.8209097 Z M57.9642181,30.6321423 C58.069691,30.0245849 58.1402846,29.4618726 58.176,28.944 C58.2400003,28.0159954 58.0160026,27.1040045 57.504,26.208 C57.1839984,25.6639973 56.7680026,25.1840021 56.256,24.768 C55.7439974,24.3519979 55.1680032,24.0640008 54.528,23.904 C52.7679912,23.4559978 51.2320066,23.8559938 49.92,25.104 C49.5039979,25.4880019 49.0560024,25.9039978 48.576,26.352 C48.1599979,26.7360019 47.6720028,27.1679976 47.112,27.648 C46.5519972,28.1280024 45.9360034,28.6399973 45.264,29.184 C43.0239888,30.976009 41.2560065,32.2399963 39.96,32.976 C39.7836286,33.0761615 39.6142211,33.1712854 39.4517773,33.2613718 L39.648,32.64 C39.6800002,32.5119994 39.7199998,32.3760007 39.768,32.232 C39.8160002,32.0879993 39.8559998,31.9360008 39.888,31.776 C39.9520003,31.5199987 40.0079998,31.0320036 40.056,30.312 C40.1040002,29.5919964 39.9040022,28.7200051 39.456,27.696 C39.0719981,27.0239966 38.584003,26.4320026 37.992,25.92 C37.399997,25.4079974 36.7520035,25.056001 36.048,24.864 C35.0239949,24.6079987 34.008005,24.6639982 33,25.032 C31.991995,25.4000018 31.1200037,26.0159957 30.384,26.88 C30.3519998,26.9440003 30.3200002,26.9919998 30.288,27.024 C30.2559998,27.0880003 30.2080003,27.1519997 30.144,27.216 L29.472,27.984 C29.1839986,28.3360018 28.8640018,28.7279978 28.512,29.16 C28.1599982,29.5920022 27.7600022,30.0479976 27.312,30.528 C27.2799998,30.2399986 27.2240004,29.9600014 27.144,29.688 C27.0639996,29.4159986 26.9600006,29.1360014 26.832,28.848 L26.88,28.896 C26.271997,27.295992 25.0400093,26.2560024 23.184,25.776 C21.391991,25.3919981 19.6640083,25.7119949 18,26.736 C17.7119986,26.928001 17.3760019,27.1839984 16.992,27.504 C16.6079981,27.8240016 16.1600026,28.2079978 15.648,28.656 C15.6141658,28.6898342 15.5802861,28.7238052 15.5463607,28.757913 C15.2333477,28.1950101 14.8432293,27.6970417 14.376,27.264 C13.7199967,26.655997 12.9600043,26.2240013 12.096,25.968 C10.495992,25.6159982 8.86400832,25.839996 7.2,26.64 C6.75199776,26.8640011 6.28000248,27.1359984 5.784,27.456 C5.28799752,27.7760016 4.76800272,28.1439979 4.224,28.56 C3.423996,29.2000032 2.60000424,29.9119961 1.752,30.696 C0.90399576,31.4800039 0.09600384,32.2559962 -0.672,33.024 C-1.12000224,33.4720022 -1.543998,33.8879981 -1.944,34.272 C-2.344002,34.6560019 -2.71999824,34.9919986 -3.072,35.28 C-3.5520024,35.7280022 -3.92799864,36.2319972 -4.2,36.792 C-4.47200136,37.3520028 -4.63199976,37.9439969 -4.68,38.568 C-4.72800024,39.1920031 -4.65600096,39.807997 -4.464,40.416 C-4.27199904,41.024003 -3.95200224,41.5679976 -3.504,42.048 C-2.79999648,42.848004 -1.96000488,43.351999 -0.984,43.56 C-0.00799512,43.768001 0.92799552,43.6960018 1.824,43.344 C2.17600176,43.9840032 2.63999712,44.5359977 3.216,45 C3.79200288,45.4640023 4.44799632,45.791999 5.184,45.984 C5.6640024,46.0800005 6.09599808,46.128 6.48,46.128 C6.89600208,46.128 7.27999824,46.0800005 7.632,45.984 C7.98400176,45.8879995 8.3199984,45.8080003 8.64,45.744 C8.8000008,45.6799997 9.00799872,45.6000005 9.264,45.504 C9.52000128,45.4079995 9.82399824,45.2960006 10.176,45.168 C10.3276972,45.1174343 10.4877169,45.0629846 10.6560594,45.004651 C10.6576123,45.3787091 10.6895922,45.7451553 10.752,46.104 C10.8160003,46.4720018 10.9599989,46.8799978 11.184,47.328 C11.5360018,48.128004 12.0639965,48.8079972 12.768,49.368 C13.4720035,49.9280028 14.2719955,50.3359987 15.168,50.592 C15.3280008,50.6240002 15.5599985,50.6479999 15.864,50.664 C16.1680015,50.6800001 16.4959982,50.688 16.848,50.688 C17.3920027,50.688 17.967997,50.6400005 18.576,50.544 C19.184003,50.4479995 19.7599973,50.2880011 20.304,50.064 C20.912003,49.8079987 21.5519966,49.5040018 22.224,49.152 C22.8960034,48.7999982 23.5999963,48.3680026 24.336,47.856 L24.288,47.856 C24.7360022,47.5679986 25.1359982,47.2880014 25.488,47.016 C25.8400018,46.7439986 26.2079981,46.4480016 26.592,46.128 C26.9440018,46.5760022 27.3679975,46.9519985 27.864,47.256 C28.3600025,47.5600015 28.8959971,47.7759994 29.472,47.904 C30.2400038,48.1280011 31.0079962,48.24 31.776,48.24 C33.6000091,48.24 35.4559906,47.6800056 37.344,46.56 C38.1760042,46.0479974 38.9679962,45.5040029 39.72,44.928 C40.4720038,44.3519971 41.1839966,43.7760029 41.856,43.2 L42.096,42.96 C42.2800255,42.8029051 42.4511448,42.6410889 42.609358,42.4745513 C43.4638916,42.0545206 44.3647698,41.5603381 45.312,40.992 C45.2799998,41.0560003 45.264,41.1039998 45.264,41.136 C45.264,41.1680002 45.2480002,41.2159997 45.216,41.28 C45.1839998,41.3440003 45.168,41.3919998 45.168,41.424 C44.9119987,42.3520046 44.9279986,43.2799954 45.216,44.208 C45.5040014,45.1360046 46.0319962,45.903997 46.8,46.512 C47.6320042,47.2160035 48.6399941,47.568 49.824,47.568 C50.5920038,47.568 51.3599962,47.3600021 52.128,46.944 C52.1600002,46.944 52.3679981,46.840001 52.752,46.632 C53.1360019,46.423999 53.6559967,46.1440018 54.312,45.792 C54.4938824,45.6944046 54.6843737,45.5937347 54.8834743,45.4899901 C54.8993168,45.6970761 54.9248253,45.9017455 54.96,46.104 C55.0240003,46.4720018 55.1679989,46.8799978 55.392,47.328 C55.7440018,48.128004 56.2719965,48.8079972 56.976,49.368 C57.6800035,49.9280028 58.4799955,50.3359987 59.376,50.592 C59.5360008,50.6240002 59.7679985,50.6479999 60.072,50.664 C60.3760015,50.6800001 60.7039982,50.688 61.056,50.688 C61.6000027,50.688 62.175997,50.6400005 62.784,50.544 C63.392003,50.4479995 63.9679973,50.2880011 64.512,50.064 C65.120003,49.8079987 65.7599966,49.5040018 66.432,49.152 C67.1040034,48.7999982 67.8079963,48.3680026 68.544,47.856 L68.496,47.856 C68.9440022,47.5679986 69.3439982,47.2880014 69.696,47.016 C70.0480018,46.7439986 70.4159981,46.4480016 70.8,46.128 C71.1520018,46.5760022 71.5759975,46.9519985 72.072,47.256 C72.5680025,47.5600015 73.1039971,47.7759994 73.68,47.904 C74.4480038,48.1280011 75.2159962,48.24 75.984,48.24 C77.8080091,48.24 79.6639906,47.6800056 81.552,46.56 C82.3840042,46.0479974 83.1759962,45.5040029 83.928,44.928 C84.6800038,44.3519971 85.3919966,43.7760029 86.064,43.2 L86.304,42.96 C87.6160066,41.8399944 88.272,40.480008 88.272,38.88 C88.272,38.3039971 88.168001,37.712003 87.96,37.104 C87.751999,36.495997 87.4400021,35.9360026 87.024,35.424 C86.5759978,34.9119974 86.0400031,34.5120014 85.416,34.224 C84.7919969,33.9359986 84.1600032,33.7600003 83.52,33.696 L83.568,33.552 L83.856,32.64 C83.8880002,32.5119994 83.9279998,32.3760007 83.976,32.232 C84.0240002,32.0879993 84.0639998,31.9360008 84.096,31.776 C84.1600003,31.5199987 84.2159998,31.0320036 84.264,30.312 C84.3120002,29.5919964 84.1120022,28.7200051 83.664,27.696 C83.2799981,27.0239966 82.792003,26.4320026 82.2,25.92 C81.607997,25.4079974 80.9600035,25.056001 80.256,24.864 C79.2319949,24.6079987 78.216005,24.6639982 77.208,25.032 C76.199995,25.4000018 75.3280037,26.0159957 74.592,26.88 C74.5599998,26.9440003 74.5280002,26.9919998 74.496,27.024 C74.4639998,27.0880003 74.4160003,27.1519997 74.352,27.216 L73.68,27.984 C73.3919986,28.3360018 73.0720018,28.7279978 72.72,29.16 C72.3679982,29.5920022 71.9680022,30.0479976 71.52,30.528 C71.4879998,30.2399986 71.4320004,29.9600014 71.352,29.688 C71.2719996,29.4159986 71.1680006,29.1360014 71.04,28.848 L71.088,28.896 C70.479997,27.295992 69.2480093,26.2560024 67.392,25.776 C65.599991,25.3919981 63.8720083,25.7119949 62.208,26.736 C61.9199986,26.928001 61.5840019,27.1839984 61.2,27.504 C60.8159981,27.8240016 60.3680026,28.2079978 59.856,28.656 C59.4079978,29.1040022 58.9520023,29.5759975 58.488,30.072 C58.3122576,30.2598625 58.1376639,30.4465763 57.9642181,30.6321423 Z" id="jane-dowaad" fill="#1E1E1E"></path>
                    </g>
                    <g id="Head" transform="translate(74.000000, 0.000000)">
                        <circle id="Oval-3" fill="#1D1D1D" cx="100" cy="100" r="100"></circle>
                        <path d="M149.998242,149.999609 L149.998242,139.507289 C149.998242,134.410646 146.702436,130.083557 142.127879,128.551478 L142.127879,128.551478 C141.767711,128.429404 118.351941,122.448162 115.00125,115.795025 C113.472491,112.755281 114.97996,108.861605 116.505789,106.175974 C117.204249,105.235906 117.887668,104.241148 118.54433,103.197366 C118.54433,103.191311 118.54433,103.191311 118.54433,103.191311 L118.54433,103.191311 C122.511836,96.8436514 125.539275,88.4941717 125.847097,78.1733414 C126.310978,62.646489 114.296345,50.0365246 100.033009,50 L100.033009,50 C100.020704,50 100.011719,50 99.999414,50 C99.9900388,50 99.9781243,50 99.9656239,50 L99.9656239,50 C85.705022,50.0365246 73.6905841,62.646489 74.1573955,78.173732 C74.4656083,88.4947576 77.4901169,96.8442373 81.4570377,103.191701 L81.4570377,103.191701 C81.4570377,103.191701 81.4603581,103.191701 81.4603581,103.197756 C82.1135035,104.241539 82.7971187,105.236492 83.4957733,106.176365 C85.0217976,108.861996 86.5290712,112.755867 85.0003125,115.795415 C81.6523563,122.448162 58.2336557,128.429795 57.8734882,128.551869 L57.8734882,128.551869 C53.2991265,130.084339 50,134.411036 50,139.508071 L50,150 L149.998242,149.999609 L149.998242,149.999609 Z" id="Shape" fill="#FFFFFF" fill-rule="nonzero"></path>
                    </g>
                </g>
            </g>
        </g>
    </g>
</svg>