<?xml version="1.0" encoding="UTF-8"?>
<svg width="1920px" height="1080px" viewBox="0 0 1920 1080" version="1.1" xmlns="http://www.w3.org/2000/svg" xmlns:xlink="http://www.w3.org/1999/xlink">
    <!-- Generator: Sketch 46.2 (44496) - http://www.bohemiancoding.com/sketch -->
    <title>loginFormIntroducingRender</title>
    <desc>Created with Sketch.</desc>
    <defs>
        <rect id="path-1" x="0" y="0" width="560" height="560"></rect>
        <mask id="mask-2" maskContentUnits="userSpaceOnUse" maskUnits="objectBoundingBox" x="0" y="0" width="560" height="560" fill="white">
            <use xlink:href="#path-1"></use>
        </mask>
        <rect id="path-3" x="280" y="380" width="200" height="100"></rect>
        <rect id="path-4" x="0" y="0" width="238.235294" height="270"></rect>
        <circle id="path-6" cx="119.411765" cy="150.411765" r="79.4117647"></circle>
        <rect id="path-7" x="0" y="0" width="47.6470588" height="47.6470588"></rect>
    </defs>
    <g id="Examples" stroke="none" stroke-width="1" fill="none" fill-rule="evenodd">
        <g id="loginFormIntroducingRender">
            <rect id="Rectangle" fill="#FFFFFF" x="0" y="0" width="960" height="1080"></rect>
            <g id="Login-Form" transform="translate(200.000000, 260.000000)">
                <use id="Rectangle-2-Copy" stroke="#1E1E1E" mask="url(#mask-2)" stroke-width="10" stroke-dasharray="25" xlink:href="#path-1"></use>
                <rect id="Rectangle-2-Copy-2" stroke="#1E1E1E" stroke-width="5" x="82.5" y="82.5" width="395" height="95"></rect>
                <rect id="Rectangle-2-Copy-3" stroke="#1E1E1E" stroke-width="5" x="82.5" y="222.5" width="395" height="95"></rect>
                <g id="Rectangle-2-Copy-4">
                    <use fill="#1E1E1E" fill-rule="evenodd" xlink:href="#path-3"></use>
                    <rect stroke="#1E1E1E" stroke-width="5" x="282.5" y="382.5" width="195" height="95"></rect>
                </g>
                <g id="Password" transform="translate(114.000000, 250.000000)" fill-rule="nonzero" fill="#1E1E1E">
                    <path d="M29.3333333,17.3333333 L27.3333333,17.3333333 L27.3333333,11.6666667 C27.3333333,5.234 22.0993333,0 15.6666667,0 C9.234,0 4,5.234 4,11.6666667 L4,17.3333333 L2.66666667,17.3333333 C1.194,17.3333333 0,18.5273333 0,20 L0,37.3333333 C0,38.806 1.194,40 2.66666667,40 L29.3333333,40 C30.806,40 32,38.806 32,37.3333333 L32,20 C32,18.5273333 30.806,17.3333333 29.3333333,17.3333333 Z M18,31.3333333 C18,32.438 17.1046667,33.3333333 16,33.3333333 C14.8953333,33.3333333 14,32.438 14,31.3333333 L14,26 C14,24.8953333 14.8953333,24 16,24 C17.1046667,24 18,24.8953333 18,26 L18,31.3333333 Z M8,17.3333333 L8,11.6666667 C8,7.43933333 11.4393333,4 15.6666667,4 C19.894,4 23.3333333,7.43933333 23.3333333,11.6666667 L23.3333333,17.3333333 L8,17.3333333 Z" id="Shape"></path>
                </g>
                <g id="User-Name" transform="translate(110.000000, 110.000000)" fill-rule="nonzero" fill="#1E1E1E">
                    <path d="M39.9989844,39.9992188 L39.9989844,35.8024219 C39.9989844,33.7638281 38.6807031,32.0330469 36.8509375,31.4202344 L36.8509375,31.4202344 C36.706875,31.3714063 27.3408594,28.9789844 26.000625,26.3178125 C25.3891406,25.1019531 25.9921094,23.5445313 26.6024219,22.4703125 C26.8817969,22.0942969 27.1551563,21.6964063 27.4178125,21.2789063 C27.4178125,21.2764844 27.4178125,21.2764844 27.4178125,21.2764844 L27.4178125,21.2764844 C29.0047656,18.7375 30.2157031,15.3978125 30.3388281,11.2696094 C30.524375,5.0590625 25.7186719,0.015234375 20.0135156,0.000625 L20.0135156,0.000625 C20.0085938,0.000625 20.005,0.000625 20.0000781,0.000625 C19.9963281,0.000625 19.9915625,0.000625 19.9865625,0.000625 L19.9865625,0.000625 C14.2825,0.015234375 9.476875,5.0590625 9.66359375,11.2697656 C9.786875,15.3980469 10.9966406,18.7377344 12.5833594,21.2766406 L12.5833594,21.2766406 C12.5833594,21.2766406 12.5846875,21.2766406 12.5846875,21.2790625 C12.8459375,21.6965625 13.119375,22.0945313 13.3988281,22.4704688 C14.0092188,23.5446875 14.6121094,25.1021875 14.000625,26.3179688 C12.6614844,28.9789844 3.29429688,31.3715625 3.15023438,31.4203906 L3.15023438,31.4203906 C1.32054688,32.0333594 0.0009375,33.7639844 0.0009375,35.8027344 L0.0009375,39.999375 L39.9989844,39.9992188 L39.9989844,39.9992188 Z" id="Shape"></path>
                </g>
                <g id="Login-Button" transform="translate(311.000000, 397.000000)" fill="#FFFFFF">
                    <path d="M18.166053,33.6679153 C18.8425538,34.2757492 18.983166,34.917178 18.983166,35.3445368 C18.983166,35.7718956 18.8402103,36.4086368 18.1668342,37.0149082 C17.7090634,37.4237767 17.251553,37.8326453 16.794303,38.2415138 C15.0311825,39.8165693 13.2079112,41.4447516 11.38464,43.0073067 C10.9198386,43.4049769 10.5253433,43.5370128 10.2128718,43.5370128 C10.0135927,43.5377425 9.81794515,43.4836894 9.64729835,43.3807573 C9.27858196,43.1588745 8.83096652,42.6174492 8.7950323,41.2892774 C8.77394047,40.5040935 8.77862754,39.7400041 8.78331462,38.8548167 C8.78331462,38.7183536 8.78331462,38.5790257 8.78331462,38.4368332 L7.4951508,38.4368332 C6.02575351,38.4407396 4.63759881,38.444646 3.24397586,38.4274579 C2.03158639,38.4126136 1.09417185,38.005568 0.53875373,37.250854 C0.124728975,36.6875529 -0.0565045032,35.9625273 0.015363945,35.1546864 C0.191129171,33.1850858 1.24572053,32.1858319 3.1502344,32.1858319 L3.2205405,32.1858319 C4.61806934,32.2038012 6.01559818,32.1998948 7.49983787,32.1959885 L8.77784636,32.1952072 C8.77784636,32.114996 8.77784636,32.0353057 8.77784636,31.9561363 C8.77159693,31.1459515 8.7653475,30.3826434 8.7911264,29.6013658 C8.80518762,29.1544751 8.85127717,27.7950522 9.66448428,27.3114415 C10.4417572,26.8481439 11.2565266,27.5434809 11.524471,27.7723952 C13.3407116,29.3232311 15.1514841,30.9545385 16.9021057,32.5319378 L18.166053,33.6679153 Z M39.9148515,16.6915362 C39.9373834,16.7532886 39.9659021,16.8126882 40,16.8688862 L40,49.6684787 C39.9749052,49.6982285 39.9541296,49.7313683 39.9382869,49.7669197 C39.5023891,51.4029148 38.4212377,52.2545073 36.7807622,52.2545073 C35.4152617,52.2568511 34.0474177,52.2552886 32.681136,52.2662265 C31.1625244,52.2795082 29.631414,52.2271626 28.1159272,52.3443542 C26.4192068,52.4748276 24.7342042,52.7654628 23.0437333,52.9810954 C22.4367574,53.0584419 21.8907134,52.8959361 21.382166,52.5396736 C21.1969777,52.4088594 20.978233,52.3337665 20.7517548,52.3232597 C18.9277023,52.3115406 17.1059934,52.3302912 15.2835033,52.3232597 C13.7828588,52.3185721 12.5368787,51.2419716 12.3283039,49.7067613 C12.2353437,49.0231435 12.2861203,48.3137435 12.2861203,47.616844 C12.3021063,47.531261 12.3515999,47.455605 12.4236077,47.4066803 C12.8805973,47.0754187 13.3446175,46.7543136 13.8047318,46.4261771 C14.128921,46.1949189 14.4460796,45.9566293 14.836669,45.6738068 C14.836669,46.3871132 14.8265137,47.0011973 14.836669,47.6160627 C14.858542,48.9387655 15.815486,50.1106818 17.0849016,50.23803 C18.026222,50.3310021 18.9823848,50.2599058 19.9299547,50.2981884 C20.3338241,50.3153765 20.4510009,50.1974036 20.4510009,49.7684823 C20.4416268,44.9214366 20.4510009,40.0697032 20.4510009,35.2257827 C20.4499594,29.1958828 20.4549068,23.1665038 20.4658433,17.1376457 C20.4666245,16.8181032 20.398662,16.6845047 20.058068,16.6954426 C19.2511103,16.7212248 18.4433715,16.7009116 17.6364138,16.7087243 C15.9670347,16.7235686 14.8241702,17.9056415 14.8241702,19.6307022 C14.8241702,21.2424777 14.8241702,22.853472 14.8241702,24.4652475 C14.8241702,24.5894706 14.8116713,24.7160376 14.8030783,24.8722931 C13.9679982,24.2816473 13.1711958,23.7253777 12.3900171,23.1534825 C12.3189298,23.0995744 12.2869015,22.9472253 12.2869015,22.8409715 C12.2829956,21.0143447 12.2720591,19.1877179 12.2923697,17.3618723 C12.3079933,15.9735422 13.215723,14.7906881 14.5234163,14.4633328 C14.9593141,14.3539539 15.4241155,14.3359845 15.876418,14.3305156 C17.3731565,14.3102024 18.8698951,14.3211403 20.3666336,14.3102024 C20.4970905,14.3094211 20.6978534,14.2812951 20.7455053,14.1953546 C21.1079723,13.5468943 21.6860446,13.2211015 22.3422348,13 L23.1234136,13 C23.2177918,13.0388246 23.3152601,13.069663 23.4147932,13.0921907 C25.2935282,13.3593877 27.1722632,13.6343973 29.0533417,13.881281 C30.2633876,14.044568 31.4757771,14.221918 32.6928537,14.2789513 C34.1075684,14.3453599 35.5285326,14.2766075 36.9463721,14.2859828 C38.4438919,14.2953581 39.5430104,15.1985149 39.9148515,16.6915362 Z" id="Combined-Shape" fill-rule="nonzero"></path>
                    <text id="buy" font-family="RedactedScript, Redacted Script" font-size="50" font-weight="normal">
                        <tspan x="69" y="49">buy</tspan>
                    </text>
                </g>
            </g>
            <g id="Effects" transform="translate(1060.000000, 720.000000)">
                <g id="Render-Effect">
                    <g id="Effect">
                        <g id="Lines">
                            <mask id="mask-5" fill="white">
                                <use xlink:href="#path-4"></use>
                            </mask>
                            <use id="Mask" fill="#1E1E1E" xlink:href="#path-4"></use>
                            <g id="Group-2" mask="url(#mask-5)">
                                <g transform="translate(-223.864615, -36.529294)">
                                    <rect id="Rectangle-3" fill="#FFFFFF" transform="translate(367.265677, 185.487836) rotate(-45.000000) translate(-367.265677, -185.487836) " x="158.585677" y="163.15713" width="417.36" height="44.6614126"></rect>
                                    <rect id="Rectangle-3-Copy" fill="#FFDE10" transform="translate(276.157984, 163.807539) rotate(-45.000000) translate(-276.157984, -163.807539) " x="67.4779843" y="141.476832" width="417.36" height="44.6614126"></rect>
                                    <rect id="Rectangle-3-Copy-2" fill="#FFFFFF" transform="translate(163.357984, 163.807539) rotate(-45.000000) translate(-163.357984, -163.807539) " x="-45.3220157" y="141.476832" width="417.36" height="44.6614126"></rect>
                                    <rect id="Rectangle-3" fill="#FFFFFF" transform="translate(480.065677, 185.487836) rotate(-45.000000) translate(-480.065677, -185.487836) " x="271.385677" y="163.15713" width="417.36" height="44.6614126"></rect>
                                    <rect id="Rectangle-3-Copy" fill="#FFDE10" transform="translate(388.957984, 163.807539) rotate(-45.000000) translate(-388.957984, -163.807539) " x="180.277984" y="141.476832" width="417.36" height="44.6614126"></rect>
                                    <rect id="Rectangle-3-Copy-2" fill="#FFFFFF" transform="translate(276.157984, 163.807539) rotate(-45.000000) translate(-276.157984, -163.807539) " x="67.4779843" y="141.476832" width="417.36" height="44.6614126"></rect>
                                    <rect id="Rectangle-3" fill="#FFFFFF" transform="translate(592.865677, 185.487836) rotate(-45.000000) translate(-592.865677, -185.487836) " x="384.185677" y="163.15713" width="417.36" height="44.6614126"></rect>
                                    <rect id="Rectangle-3-Copy-3" fill="#FFDE10" transform="translate(701.327215, 185.487836) rotate(-45.000000) translate(-701.327215, -185.487836) " x="492.647215" y="163.15713" width="417.36" height="44.6614126"></rect>
                                    <rect id="Rectangle-3-Copy" fill="#FFFFFF" transform="translate(501.757984, 163.807539) rotate(-45.000000) translate(-501.757984, -163.807539) " x="293.077984" y="141.476832" width="417.36" height="44.6614126"></rect>
                                    <rect id="Rectangle-3-Copy-2" fill="#FFFFFF" transform="translate(388.957984, 163.807539) rotate(-45.000000) translate(-388.957984, -163.807539) " x="180.277984" y="141.476832" width="417.36" height="44.6614126"></rect>
                                </g>
                            </g>
                        </g>
                        <g id="Oval-Copy-2">
                            <use fill="#1E1E1E" fill-rule="evenodd" xlink:href="#path-6"></use>
                            <circle stroke="#FFFFFF" stroke-width="5" cx="119.411765" cy="150.411765" r="76.9117647"></circle>
                        </g>
                        <path d="M82.8571429,120 C80.7202857,120 79,121.720286 79,123.857143 L79,133.5 L112.689732,133.5 L102.142857,120 L82.8571429,120 Z M105.035714,120 L115.642857,133.5 L160,133.5 L160,123.857143 C160,121.720286 158.279714,120 156.142857,120 L105.035714,120 Z M85.75,124.821429 C86.81515,124.821429 87.6785714,125.68485 87.6785714,126.75 C87.6785714,127.81515 86.81515,128.678571 85.75,128.678571 C84.68485,128.678571 83.8214286,127.81515 83.8214286,126.75 C83.8214286,125.68485 84.68485,124.821429 85.75,124.821429 Z M92.5,124.821429 C93.56515,124.821429 94.4285714,125.68485 94.4285714,126.75 C94.4285714,127.81515 93.56515,128.678571 92.5,128.678571 C91.43485,128.678571 90.5714286,127.81515 90.5714286,126.75 C90.5714286,125.68485 91.43485,124.821429 92.5,124.821429 Z M99.25,124.821429 C100.31515,124.821429 101.178571,125.68485 101.178571,126.75 C101.178571,127.81515 100.31515,128.678571 99.25,128.678571 C98.18485,128.678571 97.3214286,127.81515 97.3214286,126.75 C97.3214286,125.68485 98.18485,124.821429 99.25,124.821429 Z M79,135.428571 L79,177.857172 C79,179.994029 80.7202857,181.714315 82.8571429,181.714315 L156.142857,181.714315 C158.279714,181.714315 160,179.994029 160,177.857172 L160,135.428571 L79,135.428571 Z M123.116071,144.137229 C124.391532,143.96115 125.599493,145.316068 125.225446,146.547962 L117.511161,173.547972 C117.235182,174.52624 116.086332,175.161318 115.100446,174.904047 C114.116875,174.647354 113.498189,173.471504 113.774554,172.493333 L121.488839,145.493304 C121.685843,144.7563 122.358721,144.230861 123.116071,144.137229 Z M108.712054,147.934219 C109.5883,147.821976 110.509964,148.392737 110.791343,149.22994 C111.072818,150.067133 110.683536,151.0805 109.917411,151.520118 L97.1104429,159.535743 L109.917411,167.521186 C110.777457,168.057425 111.086704,169.313311 110.550271,170.172972 C110.013743,171.032922 108.728157,171.342458 107.868304,170.805833 L92.4397321,161.162975 C91.1414179,160.323757 91.3243429,158.565093 92.4397321,157.878329 L107.868304,148.235462 C108.12085,148.071051 108.41245,147.967005 108.712054,147.934219 Z M130.016693,147.934219 C130.407421,147.918791 130.8022,148.024862 131.131696,148.235462 L146.560268,157.878329 C147.675657,158.565093 147.853375,160.35259 146.560268,161.162975 L131.131696,170.805833 C130.271843,171.342458 129.016343,171.032922 128.479911,170.172972 C127.943382,169.313311 128.222446,168.057425 129.082589,167.521186 L141.889557,159.535743 L129.082589,151.520118 C128.370079,151.096604 127.999793,150.182461 128.208657,149.380658 C128.417618,148.578651 129.188275,147.956398 130.016693,147.934219 Z" id="Shape" fill="#FFFFFF" fill-rule="nonzero"></path>
                    </g>
                    <rect id="Rectangle-2-Copy-5" stroke="#FFFFFF" stroke-width="5" x="2.5" y="2.5" width="235" height="265"></rect>
                    <g id="Group-3" transform="translate(44.000000, 0.000000)">
                        <g id="Rectangle">
                            <use fill="#1E1E1E" fill-rule="evenodd" xlink:href="#path-7"></use>
                            <rect stroke="#FFFFFF" stroke-width="5" x="2.5" y="2.5" width="42.6470588" height="42.6470588"></rect>
                        </g>
                        <path d="M34.7468866,33.4788511 C35.3207747,34.0527392 34.8616643,34.9709601 33.9434433,34.9709601 C31.7626686,34.8561825 28.31934,34.1675168 26.3681205,31.7571868 C25.1055667,30.1503002 24.9907891,28.084303 26.4828982,26.7069716 C27.8602296,25.5591954 29.9262267,25.6739731 31.1887805,26.8217492 C33.9434433,29.1173016 32.1070014,30.2650778 34.7468866,33.4788511 Z M26.827231,23.6079759 C26.9420086,23.7227536 26.9420086,23.9523088 26.7124534,23.9523088 C26.0237877,24.181864 25.4498996,24.5261969 24.9907891,24.9853074 C24.416901,25.4444178 24.0725682,26.0183059 23.7282353,26.592194 C23.6134577,26.8217492 23.4986801,26.8217492 23.3839025,26.7069716 C19.1371306,22.4601998 10.4140317,14.0814337 12.2504736,12.2449918 C14.0869154,10.4085499 22.6952368,19.3612041 26.827231,23.6079759 Z" id="Combined-Shape" fill="#FFFFFF" fill-rule="nonzero" transform="translate(23.500000, 23.485480) scale(-1, 1) translate(-23.500000, -23.485480) "></path>
                    </g>
                </g>
            </g>
        </g>
    </g>
</svg>