<?xml version="1.0" encoding="UTF-8"?>
<svg width="1920px" height="1080px" viewBox="0 0 1920 1080" version="1.1" xmlns="http://www.w3.org/2000/svg" xmlns:xlink="http://www.w3.org/1999/xlink">
    <!-- Generator: Sketch 46.2 (44496) - http://www.bohemiancoding.com/sketch -->
    <title>newPhone</title>
    <desc>Created with Sketch.</desc>
    <defs></defs>
    <g id="Actual-Slides" stroke="none" stroke-width="1" fill="none" fill-rule="evenodd">
        <g id="newPhone">
            <g id="noun_1131411" transform="translate(885.000000, 446.000000)" fill="#4ABAEB">
                <rect id="Rectangle-4" x="0" y="0" width="151" height="101"></rect>
            </g>
            <g id="noun_207006" transform="translate(863.000000, 371.000000)">
                <path d="M56,202 L40,202 C35.1992534,202 32,205.332556 32,210.333333 L32,218.666667 C32.0037331,223.667444 35.1992534,227 40,227 L56,227 C60.7970135,227 64,223.667444 64,218.666667 L64,210.333333 C64,205.336444 60.7970135,202 56,202 Z" id="Shape"></path>
                <path d="M104.996267,284 L89,284 C84.1992534,284 81,287.332556 81,292.333333 L81,300.666667 C81,305.667444 84.1955203,309 89,309 L104.996267,309 C109.797014,309 113,305.667444 113,300.666667 L113,292.333333 C112.996267,287.332556 109.797014,284 104.996267,284 Z" id="Shape"></path>
                <path d="M104.996267,243 L89,243 C84.1992534,243 81,246.332556 81,251.333333 L81,259.666667 C81,264.667444 84.1955203,268 89,268 L104.996267,268 C109.797014,268 113,264.667444 113,259.666667 L113,251.333333 C112.996267,246.332556 109.797014,243 104.996267,243 Z" id="Shape"></path>
                <path d="M104.996267,202 L89,202 C84.1992534,202 81,205.332556 81,210.333333 L81,218.666667 C81,223.667444 84.1955203,227 89,227 L104.996267,227 C109.797014,227 113,223.667444 113,218.666667 L113,210.333333 C112.996267,205.336444 109.797014,202 104.996267,202 Z" id="Shape"></path>
                <path d="M56,284 L40,284 C35.1992534,284 32,287.332556 32,292.333333 L32,300.666667 C32,305.667444 35.1955203,309 40,309 L56,309 C60.7970135,309 64,305.667444 64,300.666667 L64,292.333333 C64,287.332556 60.7970135,284 56,284 Z" id="Shape"></path>
                <path d="M56,243 L40,243 C35.1992534,243 32,246.332556 32,251.333333 L32,259.666667 C32,264.667444 35.1955203,268 40,268 L56,268 C60.7970135,268 64,264.667444 64,259.666667 L64,251.333333 C64,246.332556 60.7970135,243 56,243 Z" id="Shape"></path>
                <path d="M153,284 L137,284 C132.202986,284 129,287.332556 129,292.333333 L129,300.666667 C129,305.667444 132.199253,309 137,309 L153,309 C157.800747,309 161,305.667444 161,300.666667 L161,292.333333 C161,287.332556 157.800747,284 153,284 Z" id="Shape"></path>
                <path d="M160.940476,89 L32.0595235,89 C27.225313,89 24,92.2393952 24,97.100378 L24,161.899622 C24,166.760605 27.2215539,170 32.0595235,170 L160.940476,170 C165.774687,170 169,166.760605 169,161.899622 L169,97.100378 C168.996241,92.2431751 165.774687,89 160.940476,89 Z" id="Shape"></path>
                <path d="M153,202 L137,202 C132.202986,202 129,205.332556 129,210.333333 L129,218.666667 C129,223.667444 132.202986,227 137,227 L153,227 C157.800747,227 161,223.667444 161,218.666667 L161,210.333333 C161,205.336444 157.800747,202 153,202 Z" id="Shape"></path>
                <path d="M153,243 L137,243 C132.202986,243 129,246.332556 129,251.333333 L129,259.666667 C129,264.667444 132.199253,268 137,268 L153,268 C157.800747,268 161,264.667444 161,259.666667 L161,251.333333 C161,246.332556 157.800747,243 153,243 Z" id="Shape"></path>
                <path d="M161.667924,64.7624444 L32.3358482,64.7624444 L32.3358482,16.1915556 C32.3358482,7.28733333 25.0591507,0 16.1641518,0 C7.26915299,0 0,7.28733333 0,16.1915556 L0,64.7624444 L0,307.620667 C0,325.429111 14.5458505,340 32.3320759,340 L161.664152,340 C179.454149,340 194,325.429111 194,307.620667 L194,97.1417778 C194,79.3333333 179.454149,64.7624444 161.667924,64.7624444 Z M64.6679241,299.524889 C64.6679241,304.383111 61.4350937,307.620667 56.583962,307.620667 L40.416038,307.620667 C35.5649063,307.620667 32.3320759,304.383111 32.3320759,299.524889 L32.3320759,291.429111 C32.3358482,286.570889 35.5649063,283.333333 40.416038,283.333333 L56.583962,283.333333 C61.4313215,283.333333 64.6679241,286.570889 64.6679241,291.429111 L64.6679241,299.524889 Z M64.6679241,259.046 C64.6679241,263.904222 61.4350937,267.141778 56.583962,267.141778 L40.416038,267.141778 C35.5649063,267.141778 32.3320759,263.904222 32.3320759,259.046 L32.3320759,250.950222 C32.3320759,246.092 35.561134,242.854444 40.416038,242.854444 L56.583962,242.854444 C61.4313215,242.854444 64.6679241,246.092 64.6679241,250.950222 L64.6679241,259.046 Z M64.6679241,218.570889 C64.6679241,223.429111 61.4350937,226.666667 56.583962,226.666667 L40.416038,226.666667 C35.5649063,226.666667 32.3320759,223.429111 32.3320759,218.570889 L32.3320759,210.475111 C32.3320759,205.616889 35.561134,202.379333 40.416038,202.379333 L56.583962,202.379333 C61.4313215,202.379333 64.6679241,205.616889 64.6679241,210.475111 L64.6679241,218.570889 Z M113.167924,299.524889 C113.167924,304.383111 109.935094,307.620667 105.08019,307.620667 L88.916038,307.620667 C84.0649063,307.620667 80.8320759,304.383111 80.8320759,299.524889 L80.8320759,291.429111 C80.8320759,286.570889 84.061134,283.333333 88.916038,283.333333 L105.08019,283.333333 C109.931321,283.333333 113.167924,286.570889 113.167924,291.429111 L113.167924,299.524889 L113.167924,299.524889 Z M113.167924,259.046 C113.167924,263.904222 109.935094,267.141778 105.08019,267.141778 L88.916038,267.141778 C84.0649063,267.141778 80.8320759,263.904222 80.8320759,259.046 L80.8320759,250.950222 C80.8320759,246.092 84.061134,242.854444 88.916038,242.854444 L105.08019,242.854444 C109.931321,242.854444 113.167924,246.092 113.167924,250.950222 L113.167924,259.046 L113.167924,259.046 Z M113.167924,218.570889 C113.167924,223.429111 109.935094,226.666667 105.08019,226.666667 L88.916038,226.666667 C84.0649063,226.666667 80.8320759,223.429111 80.8320759,218.570889 L80.8320759,210.475111 C80.8320759,205.616889 84.061134,202.379333 88.916038,202.379333 L105.08019,202.379333 C109.931321,202.379333 113.167924,205.616889 113.167924,210.475111 L113.167924,218.570889 L113.167924,218.570889 Z M161.667924,299.524889 C161.667924,304.383111 158.438866,307.620667 153.583962,307.620667 L137.416038,307.620667 C132.568679,307.620667 129.332076,304.383111 129.332076,299.524889 L129.332076,291.429111 C129.332076,286.570889 132.568679,283.333333 137.416038,283.333333 L153.583962,283.333333 C158.435094,283.333333 161.667924,286.570889 161.667924,291.429111 L161.667924,299.524889 Z M161.667924,259.046 C161.667924,263.904222 158.438866,267.141778 153.583962,267.141778 L137.416038,267.141778 C132.568679,267.141778 129.332076,263.904222 129.332076,259.046 L129.332076,250.950222 C129.332076,246.092 132.564906,242.854444 137.416038,242.854444 L153.583962,242.854444 C158.435094,242.854444 161.667924,246.092 161.667924,250.950222 L161.667924,259.046 Z M161.667924,218.570889 C161.667924,223.429111 158.438866,226.666667 153.583962,226.666667 L137.416038,226.666667 C132.568679,226.666667 129.332076,223.429111 129.332076,218.570889 L129.332076,210.475111 C129.332076,205.616889 132.564906,202.379333 137.416038,202.379333 L153.583962,202.379333 C158.435094,202.379333 161.667924,205.616889 161.667924,210.475111 L161.667924,218.570889 Z M169.751886,161.904222 C169.751886,166.762444 166.519056,170 161.664152,170 L32.3358482,170 C27.4809442,170 24.2481139,166.762444 24.2481139,161.904222 L24.2481139,97.1417778 C24.2481139,92.2835556 27.4809442,89.046 32.3358482,89.046 L161.667924,89.046 C166.519056,89.046 169.755658,92.2835556 169.755658,97.1417778 L169.755658,161.904222 L169.751886,161.904222 Z" id="Shape" fill="#FFFFFF" fill-rule="nonzero"></path>
            </g>
        </g>
    </g>
</svg>