<?xml version="1.0" encoding="UTF-8"?>
<svg width="1920px" height="1080px" viewBox="0 0 1920 1080" version="1.1" xmlns="http://www.w3.org/2000/svg" xmlns:xlink="http://www.w3.org/1999/xlink">
    <!-- Generator: Sketch 46.2 (44496) - http://www.bohemiancoding.com/sketch -->
    <title>phoneAboutToExplode</title>
    <desc>Created with Sketch.</desc>
    <defs></defs>
    <g id="Actual-Slides" stroke="none" stroke-width="1" fill="none" fill-rule="evenodd">
        <g id="phoneAboutToExplode">
            <g id="noun_1131411" transform="translate(860.000000, 367.000000)">
                <rect id="Rectangle-4" fill="#4ABAEB" x="8" y="44" width="178" height="247"></rect>
                <path d="M156.521739,0 L43.4782609,0 C19.4658804,0 0,19.419649 0,43.375 L0,303.625 C0,327.580351 19.4658804,347 43.4782609,347 L156.521739,347 C180.53412,347 200,327.580351 200,303.625 L200,43.375 C200,19.419649 180.53412,0 156.521739,0 Z M121.73913,316.6375 L78.2608696,316.6375 C73.4583935,316.6375 69.5652174,312.75357 69.5652174,307.9625 C69.5652174,303.17143 73.4583935,299.2875 78.2608696,299.2875 L121.73913,299.2875 C126.541607,299.2875 130.434783,303.17143 130.434783,307.9625 C130.434783,312.75357 126.541607,316.6375 121.73913,316.6375 Z M182.608696,273.2625 L17.3913043,273.2625 L17.3913043,56.3875 L182.608696,56.3875 L182.608696,273.2625 Z" id="Shape" fill="#FFFFFF" fill-rule="nonzero"></path>
            </g>
        </g>
    </g>
</svg>