<?xml version="1.0" encoding="UTF-8"?>
<svg width="1920px" height="1080px" viewBox="0 0 1920 1080" version="1.1" xmlns="http://www.w3.org/2000/svg" xmlns:xlink="http://www.w3.org/1999/xlink">
    <!-- Generator: Sketch 46.2 (44496) - http://www.bohemiancoding.com/sketch -->
    <title>stateToEffect</title>
    <desc>Created with Sketch.</desc>
    <defs>
        <rect id="path-1" x="0" y="0" width="565" height="450"></rect>
    </defs>
    <g id="Actual-Slides" stroke="none" stroke-width="1" fill="none" fill-rule="evenodd">
        <g id="stateToEffect">
            <polyline id="Path-4" stroke="#6F6F6F" stroke-width="5" points="740.190388 259.866996 693 259.866996 593 360"></polyline>
            <polyline id="Path-3" stroke="#FFFFFF" stroke-width="5" points="592 359.130859 691.427734 460.098633 740.697266 460.098633"></polyline>
            <polyline id="Path-9" stroke="#FFFFFF" stroke-width="5" points="593.698169 359.701172 540.357422 359.701172 540.357422 299.955078 350 299.955078"></polyline>
            <circle id="Oval-3" stroke="#FFFFFF" stroke-width="5" fill="#ACACAC" cx="594" cy="360" r="8"></circle>
            <polyline id="Path-6" stroke="#6F6F6F" stroke-width="5" points="740.894531 490.486328 690.580078 490.486328 590.865234 490.486328 590.865234 550.605469 350 550.605469"></polyline>
            <polyline id="Path-8" stroke="#6F6F6F" stroke-width="5" points="741.458984 519.730469 690.394531 519.730469 690.394531 799.744141 350 799.744141"></polyline>
            <g id="Effect" transform="translate(1205.000000, 480.000000)">
                <g id="Lines">
                    <mask id="mask-2" fill="white">
                        <use xlink:href="#path-1"></use>
                    </mask>
                    <use id="Mask" fill="#2E2E2E" xlink:href="#path-1"></use>
                    <g id="Group-2" mask="url(#mask-2)" fill="#FFDE10">
                        <g transform="translate(-414.564103, -67.646840)">
                            <rect id="Rectangle-3" transform="translate(680.121623, 343.495992) rotate(-45.000000) translate(-680.121623, -343.495992) " x="293.677179" y="302.142833" width="772.888889" height="82.7063197"></rect>
                            <rect id="Rectangle-3-Copy" transform="translate(511.403675, 303.347294) rotate(-45.000000) translate(-511.403675, -303.347294) " x="124.95923" y="261.994134" width="772.888889" height="82.7063197"></rect>
                            <rect id="Rectangle-3-Copy-2" transform="translate(302.514786, 303.347294) rotate(-45.000000) translate(-302.514786, -303.347294) " x="-83.9296587" y="261.994134" width="772.888889" height="82.7063197"></rect>
                            <rect id="Rectangle-3" transform="translate(889.010512, 343.495992) rotate(-45.000000) translate(-889.010512, -343.495992) " x="502.566068" y="302.142833" width="772.888889" height="82.7063197"></rect>
                            <rect id="Rectangle-3-Copy" transform="translate(720.292564, 303.347294) rotate(-45.000000) translate(-720.292564, -303.347294) " x="333.848119" y="261.994134" width="772.888889" height="82.7063197"></rect>
                            <rect id="Rectangle-3-Copy-2" transform="translate(511.403675, 303.347294) rotate(-45.000000) translate(-511.403675, -303.347294) " x="124.95923" y="261.994134" width="772.888889" height="82.7063197"></rect>
                            <rect id="Rectangle-3" transform="translate(1097.899401, 343.495992) rotate(-45.000000) translate(-1097.899401, -343.495992) " x="711.454957" y="302.142833" width="772.888889" height="82.7063197"></rect>
                            <rect id="Rectangle-3-Copy-3" transform="translate(1298.754102, 343.495992) rotate(-45.000000) translate(-1298.754102, -343.495992) " x="912.309658" y="302.142833" width="772.888889" height="82.7063197"></rect>
                            <rect id="Rectangle-3-Copy" transform="translate(929.181452, 303.347294) rotate(-45.000000) translate(-929.181452, -303.347294) " x="542.737008" y="261.994134" width="772.888889" height="82.7063197"></rect>
                            <rect id="Rectangle-3-Copy-2" transform="translate(720.292564, 303.347294) rotate(-45.000000) translate(-720.292564, -303.347294) " x="333.848119" y="261.994134" width="772.888889" height="82.7063197"></rect>
                        </g>
                    </g>
                </g>
                <g id="Fire-Deparment" transform="translate(203.000000, 92.000000)">
                    <circle id="Oval-Copy-2" fill="#494949" cx="133.5" cy="133.5" r="133.5"></circle>
                    <path d="M212.313253,118.019272 L205.694478,118.019272 L205.694478,104.7488 L212.313253,104.7488 L212.313253,98.1144578 L126.262048,98.1144578 L126.262048,104.7488 L132.882606,104.7488 L132.882606,118.019272 L126.262048,118.019272 L126.262048,124.653614 L212.313253,124.653614 L212.313253,118.019272 Z M146.120156,118.019272 L139.501381,118.019272 L139.501381,104.7488 L146.120156,104.7488 L146.120156,118.019272 Z M159.357705,118.019272 L152.73893,118.019272 L152.73893,104.7488 L159.357705,104.7488 L159.357705,118.019272 Z M172.597038,118.019272 L165.978263,118.019272 L165.978263,104.7488 L172.597038,104.7488 L172.597038,118.019272 Z M185.836371,118.019272 L179.215813,118.019272 L179.215813,104.7488 L185.836371,104.7488 L185.836371,118.019272 Z M199.075704,118.019272 L192.455145,118.019272 L192.455145,104.7488 L199.075704,104.7488 L199.075704,118.019272 Z" id="Shape" fill="#FFFFFF" fill-rule="nonzero" transform="translate(169.287651, 111.384036) scale(-1, 1) translate(-169.287651, -111.384036) "></path>
                    <path d="M182.15512,150.388554 C173.048305,150.388554 165.668675,157.771738 165.668675,166.875 C165.668675,175.981816 173.048305,183.361446 182.15512,183.361446 C191.261936,183.361446 198.641566,175.981816 198.641566,166.875 C198.641566,157.773515 191.261936,150.388554 182.15512,150.388554 M182.15512,174.2955 C178.064605,174.2955 174.734621,170.969069 174.734621,166.876777 C174.734621,162.788039 178.064605,159.458054 182.15512,159.458054 C186.245635,159.458054 189.573843,162.788039 189.573843,166.876777 C189.573843,170.969069 186.245635,174.2955 182.15512,174.2955" id="Shape" fill="#FFFFFF" fill-rule="nonzero" transform="translate(182.155120, 166.875000) scale(-1, 1) translate(-182.155120, -166.875000) "></path>
                    <path d="M82.4322289,150.388554 C73.3254134,150.388554 65.9457831,157.771738 65.9457831,166.875 C65.9457831,175.981816 73.3254134,183.361446 82.4322289,183.361446 C91.5390445,183.361446 98.9186747,175.981816 98.9186747,166.875 C98.9186747,157.773515 91.5390445,150.388554 82.4322289,150.388554 M82.4322289,174.2955 C78.3417139,174.2955 75.013506,170.969069 75.013506,166.876777 C75.013506,162.788039 78.3417139,159.458054 82.4322289,159.458054 C86.5227439,159.458054 89.8527288,162.788039 89.8527288,166.876777 C89.8527288,170.969069 86.5227439,174.2955 82.4322289,174.2955" id="Shape" fill="#FFFFFF" fill-rule="nonzero" transform="translate(82.432229, 166.875000) scale(-1, 1) translate(-82.432229, -166.875000) "></path>
                    <path d="M206.518522,97.680046 L193.318848,97.680046 L193.318848,84.4427711 L180.119174,84.4427711 L180.119174,97.680046 L157.020189,97.680046 C151.555741,97.680046 147.122656,102.128141 147.122656,107.608894 L147.122656,144.014075 L147.122656,157.253134 L140.52193,157.253134 L140.52193,144.014075 L140.52193,130.7768 L54.7284948,130.7768 L54.7284948,144.014075 L64.6278057,144.014075 C55.005896,144.015859 53.0783133,170.493976 53.0783133,170.493976 L61.5923964,170.493976 C61.4376919,169.407813 61.3292209,168.309166 61.3292209,167.183765 C61.3292209,154.39237 71.6713068,144.015859 84.4264276,144.015859 C97.1815484,144.015859 107.523634,154.390587 107.523634,167.183765 C107.523634,168.309166 107.420498,169.407813 107.265793,170.493976 L160.583728,170.493976 C160.429023,169.407813 160.320552,168.309166 160.320552,167.183765 C160.320552,154.39237 170.662638,144.015859 183.417759,144.015859 C196.17288,144.015859 206.516744,154.390587 206.516744,167.183765 C206.516744,168.309166 206.411829,169.407813 206.257125,170.493976 L213.11747,170.493976 L213.11747,144.015859 L206.518522,97.680046 Z M166.921278,117.539526 L153.721604,117.539526 L153.721604,104.300467 L166.921278,104.300467 L166.921278,117.539526 Z M173.520226,130.778584 L173.520226,104.300467 L180.119174,104.300467 L193.318848,104.300467 L199.917796,104.300467 L203.216381,130.778584 L173.520226,130.778584 L173.520226,130.778584 Z" id="Shape" fill="#FFFFFF" fill-rule="nonzero" transform="translate(133.097892, 127.468373) scale(-1, 1) translate(-133.097892, -127.468373) "></path>
                </g>
                <g id="Call-box" transform="translate(0.000000, 285.000000)">
                    <rect id="Rectangle" fill="#FFFFFF" x="0" y="0" width="125" height="125"></rect>
                    <path d="M43.6973069,87.7172721 L33.0300065,77.0310882 C15.3662847,59.3360511 10.9334743,45.7357753 26.934414,29.7064778 C29.5054602,27.1974351 32.7550349,24.8512304 36.0778082,28.1798925 L45.9831554,41.155976 C48.1823574,45.2510072 46.6186677,46.8510073 44.45926,48.7889784 C36.5660073,55.8728008 39.1853389,63.5157774 44.4592492,68.6347824 L52.0787479,76.2677848 C57.1886968,81.5510525 64.8181521,84.1750155 71.8894424,76.2677848 C73.823985,74.1045392 75.4211653,72.5380675 79.5089412,74.7411778 L92.4620793,84.6640906 C95.7848418,87.9927419 93.4427662,91.2480756 90.9381946,93.8236783 C74.9372549,109.852976 61.361018,105.412309 43.6973069,87.7172721 Z M56.3819379,17.5371842 C56.3605406,16.4288925 57.3553963,15.2663862 58.6343958,15.2771005 C85.7348409,15.2771005 107.749814,37.3685774 107.749814,64.5630819 C107.76583,65.6951594 106.742733,66.7364865 105.614358,66.7364865 C104.48609,66.7364865 103.462886,65.6951594 103.478902,64.5630819 C103.478902,39.6846971 83.4266689,19.562838 58.6343958,19.562838 C57.5162068,19.6243384 56.4431187,18.6592974 56.3819379,17.5371842 Z M56.3819379,30.3943967 C56.3605086,29.3611054 57.3007713,28.1450274 58.6343958,28.134313 C78.6585475,28.134313 94.937077,44.4694016 94.937077,64.5630819 C94.9530929,65.6951594 93.9299959,66.7364865 92.8016208,66.7364865 C91.6733525,66.7364865 90.6501486,65.6951594 90.6661645,64.5630819 C90.6661645,46.7855212 76.3503756,32.4200506 58.6343958,32.4200506 C57.5162068,32.4815509 56.4431187,31.5165099 56.3819379,30.3943967 Z" id="Combined-Shape" fill="#2E2E2E" fill-rule="nonzero"></path>
                </g>
            </g>
            <g id="Lightning-Strike-Action" transform="translate(150.000000, 200.000000)">
                <rect id="Rectangle" fill="#FFFFFF" x="0" y="0" width="200" height="200"></rect>
                <g id="Lightning-with-Cloud" transform="translate(38.000000, 41.000000)" fill-rule="nonzero" fill="#2E2E2E">
                    <path d="M84.8421053,21.1682151 C78.8381776,22.9165796 74.0695078,26.5433523 71.7584265,31.1093291 C70.234463,30.5458066 68.6142644,30.2423715 66.9193757,30.2423715 C58.6158575,30.2423715 51.8951931,37.5970619 51.8951931,46.6712183 C51.8951931,52.465385 54.6242511,57.5515363 58.7609285,60.4861878 L17.4803349,60.4861878 C17.3367003,60.4861878 17.1930656,60.4558443 17.049431,60.4558443 C7.59827211,60.3258007 0,52.2934384 0,42.3797781 C0,32.5398091 7.44027401,24.5637991 16.7477983,24.2603639 C19.2901313,10.4179407 30.5367231,0 43.9952882,0 C55.055155,0 64.6068581,7.03680597 69.0738952,17.2235579 C70.2071725,17.0068185 71.3720493,16.9201228 72.5642168,16.9201228 C77.1576524,16.9201228 81.4106739,18.4936509 84.8421053,21.1682151 Z" id="Shape"></path>
                    <path d="M124,50.3708616 C124,55.9452069 117.762199,60.4861878 110.051584,60.4861878 C109.77868,60.4861878 109.518771,60.4861878 109.258863,60.4425246 C109.128909,60.4861878 108.967188,60.4861878 108.809799,60.4861878 L72.7114128,60.4861878 C72.438509,60.4861878 72.1612734,60.4861878 71.8883696,60.4425246 C71.6154658,60.457079 71.3237909,60.4861878 71.0220084,60.4861878 L68.3507278,60.4861878 C68.1038148,60.4861878 67.8742291,60.4556236 67.6431994,60.4279701 C60.4524009,59.8894564 54.8210526,53.9075872 54.8210526,46.6012652 C54.8210526,38.9601915 61.0299751,32.7454515 68.6828329,32.7454515 C69.4914368,32.7454515 70.2856013,32.8182236 71.0508871,32.9492134 C72.0775252,33.1238666 73.0594013,33.4149551 73.9979593,33.7933702 C74.2116618,33.2985197 74.474458,32.8036692 74.7488058,32.3233731 C77.2756928,27.8842731 81.8948423,24.4930918 87.4987558,23.0813125 C89.3455492,22.6010164 91.3093014,22.3535912 93.3308111,22.3535912 C104.781219,22.3535912 114.067168,30.3585256 114.067168,40.2555354 C114.067168,40.4010797 114.067168,40.5466239 114.049841,40.6921682 C114.585541,40.8086036 115.118353,40.9395934 115.626618,41.1142466 C120.54755,42.6570157 124,46.2359491 124,50.3708616 Z" id="Shape"></path>
                    <polygon id="Shape" points="55.4013291 95.0027624 57.2255736 91.3668173 43.0736842 91.3668173 51.9580854 71.0055249 71.5052032 71.0055249 62.9954109 85.0693605 76.3578947 85.0693605 43.0736842 119"></polygon>
                </g>
            </g>
            <g id="Cellphone-Explosion-Action" transform="translate(150.000000, 450.000000)">
                <rect id="Rectangle" fill="#6F6F6F" x="0" y="0" width="200" height="200"></rect>
                <g id="Group" transform="translate(70.000000, 38.000000)">
                    <g id="noun_1131411" transform="translate(0.000000, 9.000000)" fill-rule="nonzero" fill="#FFFFFF">
                        <path d="M49.3043478,0 L13.6956522,0 C6.13175234,0 0,6.15608469 0,13.75 L0,96.25 C0,103.843915 6.13175234,110 13.6956522,110 L49.3043478,110 C56.8682477,110 63,103.843915 63,96.25 L63,13.75 C63,6.15608469 56.8682477,0 49.3043478,0 Z M38.3478261,100.375 L24.6521739,100.375 C23.1393939,100.375 21.9130435,99.1437831 21.9130435,97.625 C21.9130435,96.1062169 23.1393939,94.875 24.6521739,94.875 L38.3478261,94.875 C39.8606061,94.875 41.0869565,96.1062169 41.0869565,97.625 C41.0869565,99.1437831 39.8606061,100.375 38.3478261,100.375 Z M57.5217391,86.625 L5.47826087,86.625 L5.47826087,17.875 L57.5217391,17.875 L57.5217391,86.625 Z" id="Shape"></path>
                    </g>
                    <polygon id="Rectangle-2" fill="#FFFFFF" points="36.7395667 18 59 24.9065257 56.2604333 34 34 27.0934743"></polygon>
                    <g id="noun_563989" transform="translate(26.000000, 0.000000)" fill-rule="nonzero" fill="#A2A2A2">
                        <path d="M46,0.65497076 L26.190991,8.26900585 L16.7423423,0 L14.836036,8.10526316 L0.745945946,5.23976608 L9.94594595,19.5672515 L0,23.1695906 L9.44864865,27.6725146 L8.45405405,42 L21.0522523,31.0292398 L30.9981982,39.871345 L34.645045,26.7719298 L43.3477477,27.754386 L38.209009,14.7368421 L46,0.65497076 Z M24.8648649,22.1052632 L27.6,32.1754386 L21.1351351,23.497076 L15.9963964,29.1461988 L18.5657658,22.0233918 L8.86846847,22.3508772 L17.8198198,19.0760234 L12.5153153,13.6725146 L19.5603604,16.8654971 L22.9585586,9.8245614 L23.372973,18.0116959 L30.8324324,13.2631579 L26.190991,19.7309942 L33.5675676,21.0409357 L24.8648649,22.1052632 Z" id="Shape"></path>
                        <polygon id="Shape" points="38.404321 31.8947368 38.9722222 31.1428571 37.0555556 30.3157895"></polygon>
                        <polygon id="Shape" points="3.51388889 29.0340557 3.79783951 30 5.43055556 28.7368421"></polygon>
                        <polygon id="Shape" points="18.2083333 40.4784689 19.1666667 40.7368421 19.0192308 37.8947368"></polygon>
                        <polygon id="Shape" points="12.1388889 1.97832817 11.1805556 1.89473684 12.7777778 4.73684211"></polygon>
                        <polygon id="Shape" points="21.4027778 37.8947368 22.6805556 37.2849365 21.6423611 35.3684211"></polygon>
                        <polygon id="Shape" points="26.6367521 6.63157895 27.1527778 4.55639098 26.1944444 4.10526316"></polygon>
                        <path d="M32.9027778,2.84210526 C32.9027778,2.84210526 34.103796,1.63636364 34.1744441,1.63636364 C34.2450923,1.63636364 33.6799072,0.947368421 33.6799072,0.947368421 L32.9027778,2.84210526 Z" id="Shape"></path>
                        <polygon id="Shape" points="41.8472222 12.9473684 44.5425347 11.6842105 44.7222222 12.6315789"></polygon>
                        <polygon id="Shape" points="1.4375 12.6315789 0.958333333 13.2947368 2.23611111 13.5789474"></polygon>
                        <polygon id="Shape" points="6.38888889 18.3157895 4.95979532 17.3684211 4.79166667 18.1894737"></polygon>
                    </g>
                </g>
            </g>
            <g id="Meteor-Action" transform="translate(150.000000, 700.000000)">
                <rect id="Rectangle" fill="#6F6F6F" x="0" y="0" width="200" height="200"></rect>
                <path d="M156.656114,46.2373846 L156.630849,46.2246932 C156.445571,46.0554748 156.233625,45.983557 155.990799,46.0089398 C155.972552,45.9990687 155.955709,45.9976585 155.943076,46.0032991 C152.397539,46.1499551 149.699787,46.2966111 147.852627,46.443267 C147.764199,46.4587787 147.764199,46.7267079 147.678578,46.7422196 C144.297265,46.9537426 141.494241,47.7899636 139.061773,48.6628486 L139.019664,48.6783603 C133.843124,50.5369426 130.124942,52.2784821 128.088294,54.5262668 C128.065836,54.5516495 128.088294,54.6715126 128.078468,54.6912547 C125.943567,56.9587815 124.583461,59.490007 124.517491,63.734569 L124.496437,63.7416198 C124.182027,66.6676882 123.432495,69.220066 122.194505,71.2605581 C122.156607,71.3211947 122.113095,71.3776008 122.07239,71.4396476 C120.876509,73.1205505 119.086897,74.1245798 116.420024,73.6747409 L116.39897,73.6817916 C113.371368,73.3616868 110.639929,73.2108004 108.189213,73.198109 C108.043237,73.2192613 107.804622,72.9879961 107.650224,72.996457 C104.948261,72.9330001 102.828799,72.9273595 101.44764,73.4223234 C101.418164,73.4321945 101.398513,73.4392452 101.384477,73.4448858 C98.6221583,74.4362237 96.4128649,76.3455715 94.6190421,78.7893675 L94.4758732,78.9712773 C93.2954311,80.5548797 92.3493932,82.9084258 90.7043538,86.1616499 L90.6973358,86.1404976 C90.3632749,89.1370738 88.5862955,91.5992017 88.0276559,92.5679772 C87.9995836,92.5778482 88.0697644,92.5609264 88.0753789,92.5736178 C86.8991477,94.4350204 85.5572897,95.6759554 83.9655878,96.3260362 C83.6399486,96.4600008 83.3185203,96.4966648 82.9605979,96.45295 C82.6153081,96.4035946 82.3205485,96.2668097 82.0580721,96.0496461 C81.9822768,96.0129821 81.9275357,95.9791384 81.8854272,95.9452948 C81.2116909,95.4531512 80.7653407,94.8693476 80.5421655,94.1981146 C80.4481232,93.9330057 80.4200508,93.6552055 80.4551413,93.3604834 C80.4733883,92.9317968 80.6221717,92.4255517 80.8958771,91.840338 C80.9772869,91.6697094 81.0727328,91.5174128 81.1962511,91.3806279 C81.5724205,90.729137 82.1942229,89.7927951 83.1500862,88.541989 L83.1430682,88.5208367 C84.0287506,87.0768395 85.1151503,85.7569359 85.5179884,84.8755899 C85.5320246,84.8220041 85.5334282,84.793801 85.5572897,84.7670081 C86.2661164,83.2144291 86.3629659,81.8268381 85.9180193,80.5774421 C85.908194,80.5492391 85.8983687,80.521036 85.8885433,80.4928329 L85.5699222,79.5973855 C85.4955305,79.3900929 85.3537652,79.2222846 85.1516443,79.0911404 L85.1881384,79.1010114 C85.0070718,78.9811484 84.8231979,78.9346133 84.632306,78.9726875 C84.6014264,78.968457 84.573354,78.9712773 84.5452817,78.9797382 C84.309474,79.0178124 84.0989314,79.1235739 83.9122504,79.3012532 C83.7957501,79.4521397 83.7269729,79.6340495 83.7087259,79.8441623 C83.704515,79.8765959 83.7017078,79.9104395 83.6974969,79.9414629 C83.5318701,81.2698275 82.919893,82.4205127 81.8643729,83.3921085 C81.7731378,83.4879989 81.7240112,83.7192641 81.6145291,83.8066936 C80.6474368,84.5427937 79.224169,85.620151 77.1103216,86.3774034 C77.0836528,86.3872745 77.0625986,86.3957354 77.0485624,86.401376 C77.0345262,86.4056065 77.0204901,86.4098369 77.0064539,86.4140674 C73.9676227,87.5055262 72.1738,88.2825207 71.5730518,88.6082662 C71.4804131,88.6548013 71.3751418,88.6223677 71.3063646,88.6449302 C69.2009388,89.7786936 67.8085506,91.4031904 67.154465,93.5945689 C67.1207782,93.7158421 67.0660371,93.8258341 67.0042779,93.9583885 C66.4231804,95.653393 65.328359,97.9350213 63.7240246,100.828656 C60.7666032,103.282323 57.7418082,105.63728 54.6538505,107.904806 C46.6925339,113.72169 43.1919127,121.267421 44.1561976,130.546231 C45.6594716,145.104655 53.6600895,152.888702 68.1608585,153.895552 C82.0664938,154.850226 91.3079092,149.260377 95.8879121,137.130237 C98.2305491,130.891718 100.495987,124.977535 102.543865,118.999894 C104.472435,117.242843 107.199663,116.374188 110.322711,115.253116 L110.343765,115.244655 C114.282315,113.831681 117.269212,112.71343 119.081282,111.232769 C119.086897,111.213026 119.065842,111.101624 119.078475,111.097394 C124.450118,106.714637 127.044002,102.001904 126.628532,97.1594369 C126.610285,97.1030308 126.747839,96.939453 126.726785,96.8830468 C126.71696,96.8534336 126.705731,96.8210001 126.691694,96.7772853 L126.521857,96.2992433 C126.440447,96.076439 126.170952,95.9551658 125.974446,95.8381231 C125.949181,95.8169708 125.86356,95.8310723 125.848121,95.8367129 C125.657229,95.7323616 125.429843,95.7210803 125.233336,95.7760763 C125.198246,95.7718459 125.151926,95.7803068 125.12245,95.7901779 C124.896468,95.8437637 124.711191,95.9495252 124.59469,96.0990015 L124.688733,95.9227323 C124.47819,96.2343762 123.666899,97.2835304 122.277318,99.0659644 C122.247842,99.0772456 122.236614,99.089937 122.242228,99.1026284 C121.510943,99.9741032 120.891948,100.562137 120.393664,100.869551 C120.187332,100.989414 119.965561,101.068382 119.735368,101.120558 C118.006111,102.207786 116.318964,103.2513 114.55181,103.884459 L114.511105,103.899971 C112.769216,104.526079 111.331912,104.464032 110.084096,103.410647 C109.10016,102.69852 108.314135,101.344772 107.723212,99.3338936 C107.638995,99.0518629 107.623555,98.768422 107.678296,98.483571 C108.563979,92.3902978 112.839397,88.4475087 120.501743,86.6509732 C126.723978,85.1364683 130.373382,83.9928339 131.449957,83.213019 C131.619794,83.0748239 131.807879,82.9690624 132.014211,82.8943243 C135.243934,80.7170473 137.046178,78.7555238 137.422348,77.0097538 C137.429366,76.9462969 137.440595,76.8870705 137.451824,76.8348948 C137.813957,75.0468202 137.540252,71.6539909 136.636322,66.6592273 C136.630708,66.6451258 136.641937,66.6592273 136.651762,66.6394851 C135.861525,62.18199 137.604818,57.6229638 142.420628,54.4853723 L142.399574,54.4938332 C147.427331,51.2815036 151.735032,48.4414545 156.058173,48.0296897 C156.323457,47.9972562 156.560668,47.8647017 156.767,47.6658701 C156.915783,47.4247338 156.990175,47.1553945 157,46.8719537 C156.943855,46.6279971 156.827355,46.4108335 156.656114,46.2373846 Z M93.7151127,102.495458 C91.154915,107.10807 89.6923459,110.51077 88.4389157,113.025074 C86.6787798,116.615324 85.2835843,119.933416 84.3473717,122.645141 C84.0891061,123.367139 83.5276593,123.46867 83.5571352,124.864722 L84.1157748,124.66166 C84.3922874,124.56436 84.687047,124.010169 85.226036,123.64494 C85.6092235,123.365729 85.9657423,122.725519 86.5187674,122.353239 C87.2374194,121.873787 88.5062894,121.679186 89.6502373,119.860088 L93.7642393,118.383657 L94.3579693,120.053279 C93.9495167,122.843972 93.0497981,125.592361 92.2132423,128.099614 C92.0083142,128.70457 91.6363556,129.3476 91.4159877,129.908841 C90.2636181,132.576852 88.7280609,135.081284 87.0016117,137.454573 C84.1803412,141.302881 80.870612,144.116138 77.1004962,145.469885 C76.7818751,145.584107 76.4857119,145.689869 76.2091993,145.78999 C75.3529929,146.098813 74.4785394,146.373793 73.5535556,146.533141 C68.3770155,147.610498 63.7815729,147.523068 59.7545953,146.231368 C55.7655153,144.908644 52.8923109,141.780923 51.1293677,136.828464 C49.1993941,131.402194 49.2232556,126.080275 51.1939341,120.851425 C51.3216633,120.335309 51.5069408,119.824834 51.7469593,119.315768 C52.8895037,116.793004 54.3197896,114.617137 56.0336061,112.779707 C57.1438673,111.913873 58.1881585,110.957789 59.1734977,109.915685 C59.5370346,109.582889 59.9370655,109.283937 60.3721868,109.018828 C60.309024,108.838328 60.913983,108.353235 62.1912747,107.56637 C62.9688786,107.082687 64.004748,106.507344 65.291865,105.841752 C65.8097997,105.54703 66.32212,105.27628 66.8274222,105.033734 C69.2963848,103.613709 71.0916111,102.70416 72.210294,102.300856 C76.4913264,100.763789 79.4655912,99.9092362 81.1316847,99.7315568 C81.0446605,100.844168 80.3849604,102.381235 79.2143437,104.521848 C77.8486242,106.858473 77.1482192,108.872172 76.5825615,109.075234 L84.1241966,106.367739 C84.8695173,106.10122 86.4822734,105.102831 88.7112175,103.881639 C90.9387579,102.613911 92.1206036,101.949728 93.2968348,101.32503 L93.7151127,102.495458 Z M61.6217195,117.323294 C59.5353321,118.632504 57.7560995,120.372815 56.2854371,122.547117 C53.2365373,127.033154 53.2379528,131.487364 56.2910989,135.908301 C60.9861781,142.733557 67.4067025,143.822879 75.552672,139.179158 C79.5598379,136.896358 81.3574715,133.543042 80.9413264,129.122104 C79.8485917,117.595262 73.4096663,113.66329 61.6217195,117.323294 Z M77.2979336,130.95934 C77.31775,131.465664 77.2738708,131.970542 77.1691268,132.47542 C76.0579911,133.522789 74.7628456,133.835264 73.279444,133.414291 C71.1605011,132.789341 70.4315395,131.380312 71.0925591,129.181417 C71.2680761,128.604207 71.5539989,128.209273 71.951743,128.000957 C73.177531,127.104039 74.3693479,127.010007 75.5314401,127.728988 C76.6524841,128.423376 77.2427307,129.501125 77.2979336,130.95934 Z" id="Combined-Shape" fill="#FFFFFF" fill-rule="nonzero"></path>
            </g>
            <g id="Fire-State" transform="translate(740.000000, 430.000000)">
                <rect id="Background-Copy" fill="#FFFFFF" x="0" y="0" width="120" height="120"></rect>
                <path d="M76.5365946,59.9152895 C73.4017316,53.0793803 74.4860534,47.4187478 74.4860534,47.4187478 C74.4860534,47.4187478 68.3463193,53.1434568 69.3006492,61.5464016 C69.6216655,64.373879 70.7797021,67.5825711 71.8164659,70.755575 C70.7495821,73.2756474 68.867079,75.8038307 65.6656349,75.235253 C59.5893114,74.1556855 61.6985075,69.185295 62.9762316,64.8881133 C64.2539558,60.5901206 61.0873875,57.1575662 61.0873875,57.1575662 C61.0873875,57.1575662 58.2331166,64.6155854 55.7989411,58.8073336 C53.3647656,52.9990818 65.9272038,46.9961673 64.4592477,38.3620603 C62.9920843,29.7279533 57.1646475,24 57.1646475,24 C57.1646475,24 60.9320315,29.367016 58.4962707,36.1485819 C56.06051,42.9301477 51.3205655,42.3169598 46.9119415,50.5544413 C42.5033176,58.7919228 49.0377828,66.2158759 45.9251136,68.0116404 C39.5103359,71.7134783 40.7183084,58.3133767 40.7183084,58.3133767 C40.7183084,58.3133767 32.7182649,68.2379359 40.1872443,83.801228 C48.2411868,100.584407 67.0741435,96.6700623 68.0427409,96.4559332 C73.7536606,95.7413585 79.176062,91.8408023 82.0881951,84.3543949 C87.6302841,70.1034546 79.6714575,66.7511987 76.5365946,59.9152895 Z" id="Shape-Copy-6" fill="#2E2E2E" fill-rule="nonzero"></path>
            </g>
            <g id="Sun-State" transform="translate(740.000000, 200.000000)">
                <rect id="Background-Copy" fill="#6F6F6F" x="0" y="0" width="120" height="120"></rect>
                <g id="noun_1174161" transform="translate(26.000000, 26.000000)" fill-rule="nonzero" fill="#FFFFFF">
                    <path d="M35.1509434,16.9245283 C25.0974843,16.9245283 16.9245283,25.0974843 16.9245283,35.1509434 C16.9245283,45.2044025 25.0974843,53.3773585 35.1509434,53.3773585 C45.2044025,53.3773585 53.3773585,45.2044025 53.3773585,35.1509434 C53.3773585,25.0974843 45.2044025,16.9245283 35.1509434,16.9245283 Z" id="Shape"></path>
                    <path d="M35.1509434,11.7169811 C36.5711835,11.7169811 37.754717,10.6951514 37.754717,9.46895568 L37.754717,2.24802545 C37.754717,1.02182975 36.5711835,0 35.1509434,0 C33.7307033,0 32.5471698,1.02182975 32.5471698,2.24802545 L32.5471698,9.46895568 C32.5471698,10.7632734 33.7307033,11.7169811 35.1509434,11.7169811 Z" id="Shape"></path>
                    <path d="M15.3956221,18.7883307 C15.8403948,19.2323134 16.5075539,19.5283019 17.1005842,19.5283019 C17.6936144,19.5283019 18.3607735,19.3063105 18.8055462,18.7883307 C19.7692204,17.8263682 19.7692204,16.3464258 18.8055462,15.3844633 L13.2458873,9.83467945 C12.2822131,8.87271691 10.7996374,8.87271691 9.8359632,9.83467945 C8.87228899,10.796642 8.87228899,12.2765843 9.8359632,13.2385469 L15.3956221,18.7883307 Z" id="Shape"></path>
                    <path d="M11.7169811,35.1509434 C11.7169811,33.7307033 10.6951514,32.5471698 9.46895568,32.5471698 L2.24802545,32.5471698 C1.02182975,32.5471698 0,33.7307033 0,35.1509434 C0,36.5711835 1.02182975,37.754717 2.24802545,37.754717 L9.46895568,37.754717 C10.7632734,37.754717 11.7169811,36.5711835 11.7169811,35.1509434 Z" id="Shape"></path>
                    <path d="M15.3956221,50.19317 L9.8359632,55.7429539 C8.87228899,56.7049164 8.87228899,58.1848587 9.8359632,59.1468213 C10.2807359,59.590804 10.947895,59.8867925 11.5409253,59.8867925 C12.1339555,59.8867925 12.8011146,59.6648011 13.2458873,59.1468213 L18.8055462,53.5970374 C19.7692204,52.6350749 19.7692204,51.1551325 18.8055462,50.19317 C17.9160008,49.2312075 16.3592963,49.2312075 15.3956221,50.19317 Z" id="Shape"></path>
                    <path d="M35.1509434,57.2830189 C33.7307033,57.2830189 32.5471698,58.3048486 32.5471698,59.5310443 L32.5471698,66.7519746 C32.5471698,67.9781703 33.7307033,69 35.1509434,69 C36.5711835,69 37.754717,67.9781703 37.754717,66.7519746 L37.754717,59.5310443 C37.754717,58.2367266 36.5711835,57.2830189 35.1509434,57.2830189 Z" id="Shape"></path>
                    <path d="M53.6043779,50.19317 C52.6407037,49.2312075 51.158128,49.2312075 50.1944538,50.19317 C49.2307796,51.1551325 49.2307796,52.6350749 50.1944538,53.5970374 L55.7541127,59.1468213 C56.1988854,59.590804 56.8660445,59.8867925 57.4590747,59.8867925 C58.052105,59.8867925 58.7192641,59.6648011 59.1640368,59.1468213 C60.127711,58.1848587 60.127711,56.7049164 59.1640368,55.7429539 L53.6043779,50.19317 Z" id="Shape"></path>
                    <path d="M66.7519746,32.5471698 L59.5310443,32.5471698 C58.3048486,32.5471698 57.2830189,33.7307033 57.2830189,35.1509434 C57.2830189,36.5711835 58.3048486,37.754717 59.5310443,37.754717 L66.7519746,37.754717 C67.9781703,37.754717 69,36.5711835 69,35.1509434 C69,33.7307033 67.9781703,32.5471698 66.7519746,32.5471698 Z" id="Shape"></path>
                    <path d="M51.8994158,19.5283019 C52.4924461,19.5283019 53.1596052,19.3063105 53.6043779,18.7883307 L59.1640368,13.2385469 C60.127711,12.2765843 60.127711,10.796642 59.1640368,9.83467945 C58.2003626,8.87271691 56.7177869,8.87271691 55.7541127,9.83467945 L50.1944538,15.3844633 C49.2307796,16.3464258 49.2307796,17.8263682 50.1944538,18.7883307 C50.6392265,19.3063105 51.2322568,19.5283019 51.8994158,19.5283019 Z" id="Shape"></path>
                </g>
            </g>
            <g id="Ground-Off" transform="translate(690.000000, 400.000000)">
                <rect id="Rectangle-2" x="0" y="0" width="50" height="50"></rect>
                <path d="M25.6983292,24.0385448 C25.7015911,24.0025865 25.7032577,23.9661676 25.7032577,23.9293595 L25.7032577,14.1932495 C25.7032577,13.534236 25.1690217,13 24.5100082,13 C23.8509947,13 23.3167587,13.534236 23.3167587,14.1932495 L23.3167587,23.9293595 C23.3167587,23.9661676 23.3184253,24.0025865 23.3216871,24.0385448 L13.1932495,24.0385448 C12.534236,24.0385448 12,24.5727808 12,25.2317943 C12,25.8908078 12.534236,26.4250438 13.1932495,26.4250438 L35.8379547,26.4250438 C36.4969682,26.4250438 37.0312042,25.8908078 37.0312042,25.2317943 C37.0312042,24.5727808 36.4969682,24.0385448 35.8379547,24.0385448 L25.6983292,24.0385448 Z M16.1694417,30.2515164 C15.5104282,30.2515164 14.9761922,29.7172803 14.9761922,29.0582668 C14.9761922,28.3992533 15.5104282,27.8650173 16.1694417,27.8650173 L32.8642785,27.8650173 C33.523292,27.8650173 34.057528,28.3992533 34.057528,29.0582668 C34.057528,29.7172803 33.523292,30.2515164 32.8642785,30.2515164 L16.1694417,30.2515164 Z M19.207341,34.0656656 C18.5483275,34.0656656 18.0140915,33.5314296 18.0140915,32.8724161 C18.0140915,32.2134026 18.5483275,31.6791666 19.207341,31.6791666 L29.8120596,31.6791666 C30.4710731,31.6791666 31.0053091,32.2134026 31.0053091,32.8724161 C31.0053091,33.5314296 30.4710731,34.0656656 29.8120596,34.0656656 L19.207341,34.0656656 Z M22.3474236,37.8843647 C21.6884101,37.8843647 21.1541741,37.3501287 21.1541741,36.6911152 C21.1541741,36.0321017 21.6884101,35.4978657 22.3474236,35.4978657 L26.6662232,35.4978657 C27.3252367,35.4978657 27.8594727,36.0321017 27.8594727,36.6911152 C27.8594727,37.3501287 27.3252367,37.8843647 26.6662232,37.8843647 L22.3474236,37.8843647 Z" id="Combined-Shape" fill="#FFFFFF" fill-rule="nonzero"></path>
                <path d="M15.1932495,29.386499 L37.8379547,29.386499 C38.4969682,29.386499 39.0312042,28.852263 39.0312042,28.1932495 C39.0312042,27.534236 38.4969682,27 37.8379547,27 L15.1932495,27 C14.534236,27 14,27.534236 14,28.1932495 C14,28.852263 14.534236,29.386499 15.1932495,29.386499 Z" id="Shape-Copy" fill="#6F6F6F" transform="translate(26.515602, 28.193250) rotate(-45.000000) translate(-26.515602, -28.193250) "></path>
            </g>
            <g id="Ground-On" transform="translate(690.000000, 200.000000)">
                <rect id="Rectangle-2" x="0" y="0" width="50" height="50"></rect>
                <path d="M25.6983292,24.0385448 C25.7015911,24.0025865 25.7032577,23.9661676 25.7032577,23.9293595 L25.7032577,14.1932495 C25.7032577,13.534236 25.1690217,13 24.5100082,13 C23.8509947,13 23.3167587,13.534236 23.3167587,14.1932495 L23.3167587,23.9293595 C23.3167587,23.9661676 23.3184253,24.0025865 23.3216871,24.0385448 L13.1932495,24.0385448 C12.534236,24.0385448 12,24.5727808 12,25.2317943 C12,25.8908078 12.534236,26.4250438 13.1932495,26.4250438 L35.8379547,26.4250438 C36.4969682,26.4250438 37.0312042,25.8908078 37.0312042,25.2317943 C37.0312042,24.5727808 36.4969682,24.0385448 35.8379547,24.0385448 L25.6983292,24.0385448 Z M16.1694417,30.2515164 C15.5104282,30.2515164 14.9761922,29.7172803 14.9761922,29.0582668 C14.9761922,28.3992533 15.5104282,27.8650173 16.1694417,27.8650173 L32.8642785,27.8650173 C33.523292,27.8650173 34.057528,28.3992533 34.057528,29.0582668 C34.057528,29.7172803 33.523292,30.2515164 32.8642785,30.2515164 L16.1694417,30.2515164 Z M19.207341,34.0656656 C18.5483275,34.0656656 18.0140915,33.5314296 18.0140915,32.8724161 C18.0140915,32.2134026 18.5483275,31.6791666 19.207341,31.6791666 L29.8120596,31.6791666 C30.4710731,31.6791666 31.0053091,32.2134026 31.0053091,32.8724161 C31.0053091,33.5314296 30.4710731,34.0656656 29.8120596,34.0656656 L19.207341,34.0656656 Z M22.3474236,37.8843647 C21.6884101,37.8843647 21.1541741,37.3501287 21.1541741,36.6911152 C21.1541741,36.0321017 21.6884101,35.4978657 22.3474236,35.4978657 L26.6662232,35.4978657 C27.3252367,35.4978657 27.8594727,36.0321017 27.8594727,36.6911152 C27.8594727,37.3501287 27.3252367,37.8843647 26.6662232,37.8843647 L22.3474236,37.8843647 Z" id="Combined-Shape" fill="#6F6F6F" fill-rule="nonzero"></path>
            </g>
            <polyline id="Path-10" stroke="#FFFFFF" stroke-width="5" points="860 490 1155 490 1155 825 1206 825"></polyline>
        </g>
    </g>
</svg>